<svg width="24" height="24" viewBox="0 0 24 24" fill="none" xmlns="http://www.w3.org/2000/svg">
<path d="M12 2C15.866 2 19 5.13401 19 9C19 11.5905 17.5916 13.85 15.5 15.0605V16H8.5V15.0605C6.40841 13.85 5 11.5905 5 9C5 5.13401 8.13401 2 12 2Z" fill="white"/>
<path d="M8.5 17H15.5V18C15.5 18.5523 15.0523 19 14.5 19H9.5C8.94772 19 8.5 18.5523 8.5 18V17Z" fill="white"/>
<path d="M14 20C14 21.1046 13.1046 22 12 22C10.8954 22 10 21.1046 10 20H14Z" fill="white"/>
<path d="M22.0293 7.95801L23 8.49707L22.0332 9.0332L21.4971 10L20.958 9.0293L20 8.49707L20.9619 7.96191L21.4971 7L22.0293 7.95801Z" fill="white"/>
<path d="M21.3877 2.60254L23 3.49805L21.3906 4.39062L20.498 6L19.6025 4.3877L18 3.49805L19.6055 2.60547L20.498 1L21.3877 2.60254Z" fill="white"/>
</svg>
