<svg width="32" height="32" viewBox="0 0 32 32" fill="none" xmlns="http://www.w3.org/2000/svg">
<g clip-path="url(#clip0_319_23017)">
<path d="M31.5 16C31.5 7.43959 24.5604 0.5 16 0.5C7.43959 0.5 0.5 7.43959 0.5 16C0.5 24.5604 7.43959 31.5 16 31.5C24.5604 31.5 31.5 24.5604 31.5 16Z" fill="black" fill-opacity="0.5" stroke="white"/>
<path fill-rule="evenodd" clip-rule="evenodd" d="M13 21.3874V10.6594C13 10.2174 13.358 9.85938 13.8 9.85938C13.98 9.85938 14.156 9.92038 14.297 10.0324L21.194 15.5044C21.54 15.7794 21.598 16.2824 21.324 16.6284C21.282 16.6804 21.234 16.7274 21.182 16.7674L14.285 22.0244C13.934 22.2914 13.432 22.2244 13.164 21.8724C13.058 21.7334 13 21.5624 13 21.3874Z" fill="white"/>
</g>
<defs>
<clipPath id="clip0_319_23017">
<rect width="32" height="32" fill="white"/>
</clipPath>
</defs>
</svg>
