<svg width="18" height="18" viewBox="0 0 18 18" fill="none" xmlns="http://www.w3.org/2000/svg">
<path d="M14.8476 0.707108C15.2381 0.316583 15.8713 0.316583 16.2618 0.707108C16.6523 1.09763 16.6523 1.7308 16.2618 2.12132L2.11968 16.2635C1.72916 16.654 1.096 16.654 0.705473 16.2635C0.314949 15.873 0.31495 15.2398 0.705473 14.8493L14.8476 0.707108Z" fill="#15181F"/>
<path d="M0.761793 2.20711C0.37127 1.81658 0.371269 1.18342 0.761793 0.792892C1.15232 0.402367 1.78548 0.402367 2.176 0.792892L16.3181 14.9351C16.7086 15.3256 16.7086 15.9587 16.3181 16.3493C15.9276 16.7398 15.2944 16.7398 14.9039 16.3493L0.761793 2.20711Z" fill="#15181F"/>
</svg>
