<svg width="48" height="48" viewBox="0 0 48 48" fill="none" xmlns="http://www.w3.org/2000/svg">
<path d="M15.8157 38.778C15.3427 38.6893 15 38.2763 15 37.7951L15 10.2049C15 9.72372 15.3427 9.31074 15.8157 9.22206L31.8157 6.22206C32.4311 6.10667 33 6.57879 33 7.20493L33 40.7951C33 41.4212 32.4311 41.8933 31.8157 41.778L15.8157 38.778Z" fill="#E4DDCD"/>
<path d="M32 16.6667L32.7622 15.8536C33.669 14.8864 35.229 14.9721 36.0245 16.0327C36.8033 17.071 38.3211 17.1789 39.2389 16.2611L40 15.5" stroke="#7E796E" stroke-width="2" stroke-linecap="round"/>
<path d="M32 24.6667L32.7622 23.8536C33.669 22.8864 35.229 22.9721 36.0245 24.0327C36.8033 25.071 38.3211 25.1789 39.2389 24.2611L40 23.5" stroke="#7E796E" stroke-width="2" stroke-linecap="round"/>
<path d="M32 32.6667L32.7622 31.8536C33.669 30.8864 35.229 30.9721 36.0245 32.0327C36.8033 33.071 38.3211 33.1789 39.2389 32.2611L40 31.5" stroke="#7E796E" stroke-width="2" stroke-linecap="round"/>
<ellipse cx="14.5" cy="35.5" rx="1.5" ry="1.5" transform="rotate(-90 14.5 35.5)" fill="#7E796E"/>
<ellipse cx="10.5" cy="30.5" rx="1.5" ry="1.5" transform="rotate(-90 10.5 30.5)" fill="#7E796E"/>
<ellipse cx="17" cy="28" rx="2" ry="2" transform="rotate(-90 17 28)" fill="#7E796E"/>
<ellipse cx="7" cy="18" rx="2" ry="2" transform="rotate(-90 7 18)" fill="#7E796E"/>
<ellipse cx="12.5" cy="13.5" rx="1.5" ry="1.5" transform="rotate(-90 12.5 13.5)" fill="#7E796E"/>
<ellipse cx="12.5" cy="22.5" rx="1.5" ry="1.5" transform="rotate(-90 12.5 22.5)" fill="#7E796E"/>
</svg>
