<svg width="48" height="48" viewBox="0 0 48 48" fill="none" xmlns="http://www.w3.org/2000/svg">
<path d="M21 5C21 5 33.9015 19.1158 34.9316 28.2734C34.4834 28.1705 34.0046 28.1211 33.5039 28.1211C32.372 28.1211 31.3479 28.3569 30.5488 28.9502C30.1383 29.2509 29.8185 29.6138 29.6035 30.0303V29.9238C29.6035 29.5195 29.464 29.1546 29.2188 28.8594L29.1074 28.7373L28.9854 28.625C28.69 28.3796 28.3245 28.2402 27.9199 28.2402H27.1641C26.4965 28.2402 25.8754 28.4343 25.3369 28.8291L24.1328 29.7119C23.5013 30.1652 23.1642 30.8283 23.1641 31.6035V32.4805C23.1641 32.6928 23.2092 32.9345 23.3428 33.166C23.4782 33.4006 23.6706 33.5668 23.873 33.6748L23.8965 33.6865C24.0976 33.7871 24.3492 33.8542 24.6299 33.8262C24.8951 33.7996 25.1163 33.6927 25.29 33.5635L25.292 33.5654L25.4805 33.4277V37.3164C25.4806 37.7784 25.6627 38.189 25.9766 38.5029C26.2906 38.817 26.7018 39 27.1641 39H27.9199C28.3822 39 28.7933 38.817 29.1074 38.5029C29.3838 38.2265 29.557 37.875 29.5947 37.4795C29.7922 37.7605 30.0392 38.0148 30.3359 38.2373L30.3408 38.2402C30.6027 38.4341 30.8881 38.5918 31.1934 38.7178C31.097 38.8173 30.9991 38.9157 30.8994 39.0127C28.2739 41.5654 24.713 43 21 43C17.287 43 13.7261 41.5654 11.1006 39.0127C8.4752 36.46 7 32.9977 7 29.3877C7.00037 20.3138 20.9975 5.0027 21 5ZM28.0537 29.2529C28.1826 29.2785 28.2985 29.3424 28.4004 29.4443C28.5361 29.5802 28.6035 29.7401 28.6035 29.9238V31H28V36H28.6035V37.3164L28.5908 37.4492C28.5654 37.5782 28.5023 37.6939 28.4004 37.7959L28.2939 37.8848C28.1828 37.9615 28.0581 38 27.9199 38H27.1641L27.0303 37.9873C26.9014 37.9618 26.7855 37.8978 26.6836 37.7959C26.5817 37.6939 26.5186 37.5782 26.4932 37.4492L26.4805 37.3164V31.4844H26.4561L24.7041 32.7559C24.5921 32.8439 24.4718 32.856 24.3438 32.792C24.224 32.7281 24.1642 32.6241 24.1641 32.4805V31.6035C24.1642 31.1479 24.3482 30.7883 24.7158 30.5244L25.9277 29.6357C26.2427 29.4048 26.5977 29.275 26.9922 29.2461L27.1641 29.2402H27.9199L28.0537 29.2529ZM32.1221 36C32.1917 36.1324 32.2918 36.2518 32.4238 36.3574L32.5322 36.4355C32.6363 36.5036 32.7507 36.5557 32.874 36.5967C32.5816 37.052 32.2602 37.4909 31.9121 37.9121C31.5382 37.7991 31.2124 37.6415 30.9355 37.4365C30.4372 37.0626 30.1435 36.5836 30.0537 36H32.1221ZM33.8711 29.1309C34.2889 29.1541 34.6647 29.2176 34.998 29.3223C34.9982 29.3441 35 29.3659 35 29.3877C35 29.9292 34.9666 30.4677 34.9014 31H34.6143C34.5894 30.9685 34.5631 30.9373 34.5332 30.9082L34.4521 30.8369C34.2491 30.6689 33.9812 30.5747 33.6494 30.5537L33.5039 30.5488C33.1119 30.5488 32.7994 30.6449 32.5674 30.8369C32.5065 30.887 32.4545 30.9417 32.4102 31H30.3232C30.4115 30.5076 30.6811 30.0927 31.1396 29.7568C31.7076 29.3328 32.4959 29.1211 33.5039 29.1211L33.8711 29.1309Z" fill="#E4DDCD"/>
<path d="M37.809 38.0002C37.625 38.0002 37.465 37.9322 37.329 37.7962C37.193 37.6602 37.125 37.5002 37.125 37.3162V29.9242C37.125 29.7402 37.193 29.5802 37.329 29.4442C37.465 29.3082 37.625 29.2402 37.809 29.2402H38.553C38.737 29.2402 38.893 29.3082 39.021 29.4442C39.157 29.5802 39.225 29.7402 39.225 29.9242V36.2122C39.225 36.2762 39.261 36.3082 39.333 36.3082H42.249C42.433 36.3082 42.593 36.3762 42.729 36.5122C42.865 36.6482 42.933 36.8082 42.933 36.9922V37.3162C42.933 37.5002 42.865 37.6602 42.729 37.7962C42.593 37.9322 42.433 38.0002 42.249 38.0002H37.809Z" fill="#504323"/>
<path d="M33.2034 34.1711C32.7634 34.3551 32.4514 34.5551 32.2674 34.7711C32.0914 34.9791 32.0034 35.2231 32.0034 35.5031C32.0034 35.8471 32.1434 36.1311 32.4234 36.3551C32.7034 36.5791 33.0634 36.6911 33.5034 36.6911C33.9434 36.6911 34.2994 36.5791 34.5714 36.3551C34.8514 36.1311 34.9914 35.8471 34.9914 35.5031C34.9914 35.1991 34.8834 34.9511 34.6674 34.7591C34.4594 34.5591 34.0354 34.3591 33.3954 34.1591C33.3394 34.1351 33.2754 34.1391 33.2034 34.1711ZM33.5034 30.5471C33.1114 30.5471 32.7994 30.6431 32.5674 30.8351C32.3434 31.0191 32.2314 31.2591 32.2314 31.5551C32.2314 31.8031 32.3234 32.0191 32.5074 32.2031C32.6994 32.3871 33.0274 32.5551 33.4914 32.7071C33.5554 32.7311 33.6194 32.7311 33.6834 32.7071C34.4274 32.4191 34.7994 32.0351 34.7994 31.5551C34.7994 31.2591 34.6834 31.0191 34.4514 30.8351C34.2194 30.6431 33.9034 30.5471 33.5034 30.5471ZM36.0594 37.4351C35.4514 37.8911 34.5994 38.1191 33.5034 38.1191C32.4074 38.1191 31.5514 37.8911 30.9354 37.4351C30.3274 36.9791 30.0234 36.3671 30.0234 35.5991C30.0234 34.7271 30.5754 34.0351 31.6794 33.5231C31.6874 33.5231 31.6914 33.5151 31.6914 33.4991C31.6914 33.4911 31.6874 33.4871 31.6794 33.4871C30.7514 32.9591 30.2874 32.2511 30.2874 31.3631C30.2874 30.7071 30.5714 30.1711 31.1394 29.7551C31.7074 29.3311 32.4954 29.1191 33.5034 29.1191C34.5114 29.1191 35.2994 29.3311 35.8674 29.7551C36.4354 30.1711 36.7194 30.7071 36.7194 31.3631C36.7194 32.1231 36.2274 32.7551 35.2434 33.2591C35.2354 33.2591 35.2314 33.2631 35.2314 33.2711C35.2314 33.2871 35.2354 33.2951 35.2434 33.2951C36.4034 33.7751 36.9834 34.5431 36.9834 35.5991C36.9834 36.3671 36.6754 36.9791 36.0594 37.4351Z" fill="#504323"/>
<path d="M24.7041 32.7562C24.5921 32.8442 24.4721 32.8562 24.3441 32.7922C24.2241 32.7282 24.1641 32.6242 24.1641 32.4802V31.6042C24.1641 31.1482 24.3481 30.7882 24.7161 30.5242L25.9281 29.6362C26.2881 29.3722 26.7001 29.2402 27.1641 29.2402H27.9201C28.1041 29.2402 28.2641 29.3082 28.4001 29.4442C28.5361 29.5802 28.6041 29.7402 28.6041 29.9242V37.3162C28.6041 37.5002 28.5361 37.6602 28.4001 37.7962C28.2641 37.9322 28.1041 38.0002 27.9201 38.0002H27.1641C26.9801 38.0002 26.8201 37.9322 26.6841 37.7962C26.5481 37.6602 26.4801 37.5002 26.4801 37.3162V31.4842H26.4681H26.4561L24.7041 32.7562Z" fill="#504323"/>
</svg>
