<svg width="48" height="48" viewBox="0 0 48 48" fill="none" xmlns="http://www.w3.org/2000/svg">
<path d="M21 5C21 5 33.8713 19.0818 34.9287 28.2402H31.5635C31.1119 28.2403 30.6993 28.4097 30.3779 28.7246C30.3262 28.774 30.2787 28.8261 30.2344 28.8799C30.229 28.8732 30.2242 28.866 30.2188 28.8594L30.1074 28.7373L29.9854 28.625C29.69 28.3796 29.3245 28.2402 28.9199 28.2402H28.1641C27.4965 28.2402 26.8754 28.4343 26.3369 28.8291L25.1328 29.7119C24.5013 30.1652 24.1642 30.8283 24.1641 31.6035V32.4805C24.1641 32.6928 24.2092 32.9345 24.3428 33.166C24.4782 33.4006 24.6706 33.5668 24.873 33.6748L24.8965 33.6865C25.0976 33.7871 25.3492 33.8542 25.6299 33.8262C25.8951 33.7996 26.1163 33.6927 26.29 33.5635L26.292 33.5654L26.4805 33.4277V37.3164C26.4806 37.7784 26.6627 38.189 26.9766 38.5029C27.2906 38.817 27.7018 39 28.1641 39H28.9199C29.3822 39 29.7933 38.817 30.1074 38.5029C30.1354 38.4749 30.1606 38.4446 30.1865 38.415C30.4114 38.6467 30.6893 38.8149 31.0098 38.9023C30.9729 38.939 30.9367 38.9764 30.8994 39.0127C28.2739 41.5654 24.713 43 21 43C17.287 43 13.7261 41.5654 11.1006 39.0127C8.4752 36.46 7 32.9977 7 29.3877C7.00037 20.3138 20.9975 5.0027 21 5ZM31.3115 36.248C31.9594 36.416 32.4754 36.5 32.8594 36.5C32.8854 36.5 32.9111 36.4985 32.9365 36.498C32.5992 37.0335 32.2231 37.5475 31.8096 38.0361C31.6478 38.0127 31.4856 37.9856 31.3232 37.9521C31.1315 37.9121 30.9716 37.8121 30.8438 37.6523C30.7237 37.4923 30.6641 37.3076 30.6641 37.0996V36.7275C30.6642 36.5599 30.7315 36.4279 30.8672 36.332C31.0032 36.236 31.1516 36.2081 31.3115 36.248ZM29.0537 29.2529C29.1826 29.2785 29.2985 29.3424 29.4004 29.4443C29.5361 29.5802 29.6035 29.7401 29.6035 29.9238V37.3164L29.5908 37.4492C29.5654 37.5782 29.5023 37.6939 29.4004 37.7959L29.2939 37.8848C29.1828 37.9615 29.0581 38 28.9199 38H28.1641L28.0303 37.9873C27.9014 37.9618 27.7855 37.8978 27.6836 37.7959C27.5817 37.6939 27.5186 37.5782 27.4932 37.4492L27.4805 37.3164V31.4844H27.4561L25.7041 32.7559C25.5921 32.8439 25.4718 32.856 25.3438 32.792C25.224 32.7281 25.1642 32.6241 25.1641 32.4805V31.6035C25.1642 31.1479 25.3482 30.7883 25.7158 30.5244L26.9277 29.6357C27.2427 29.4048 27.5977 29.275 27.9922 29.2461L28.1641 29.2402H28.9199L29.0537 29.2529ZM33.4238 34.8242C33.5148 34.8242 33.572 34.8331 33.6055 34.8408C33.6126 34.871 33.6214 34.9216 33.623 35H32.9043C32.936 34.9876 32.9698 34.974 33.0059 34.96L33.0186 34.9551L33.0312 34.9492C33.1042 34.9185 33.1618 34.8958 33.2041 34.8789C33.2514 34.86 33.2653 34.8546 33.2598 34.8564L33.293 34.8457L33.3242 34.833C33.3323 34.8309 33.3627 34.8242 33.4238 34.8242ZM35 29.3877C35 29.8899 34.9703 30.3894 34.9141 30.8838H32.8232C32.7515 30.8839 32.7158 30.9166 32.7158 30.9805L32.6436 32.5039C32.6436 32.5118 32.6475 32.5155 32.6553 32.5156H32.6797C33.0635 32.3557 33.4435 32.2764 33.8193 32.2764L34.1455 32.2871C34.327 32.3 34.4988 32.3243 34.6611 32.3594C34.5326 32.9179 34.3689 33.4672 34.1699 34.0039C34.0112 33.9043 33.8114 33.8453 33.5693 33.8291L33.4238 33.8242C33.2398 33.8242 33.0794 33.8522 32.9434 33.9082L32.6436 34.0283L32.3076 34.1602L32.0195 34.2441L31.8545 34.2715L31.6953 34.2803H31.3232L31.1904 34.2676C31.0631 34.242 30.9514 34.1781 30.8555 34.0762C30.7595 33.9742 30.7021 33.8585 30.6826 33.7295L30.6758 33.5957L30.8438 29.9238C30.8598 29.7321 30.9355 29.5722 31.0713 29.4443C31.1733 29.3424 31.2913 29.2784 31.4248 29.2529L31.5635 29.2402H34.9971C34.9979 29.2896 35 29.3387 35 29.3877Z" fill="#E4DDCD"/>
<path d="M37.809 38.0002C37.625 38.0002 37.465 37.9322 37.329 37.7962C37.193 37.6602 37.125 37.5002 37.125 37.3162V29.9242C37.125 29.7402 37.193 29.5802 37.329 29.4442C37.465 29.3082 37.625 29.2402 37.809 29.2402H38.553C38.737 29.2402 38.893 29.3082 39.021 29.4442C39.157 29.5802 39.225 29.7402 39.225 29.9242V36.2122C39.225 36.2762 39.261 36.3082 39.333 36.3082H42.249C42.433 36.3082 42.593 36.3762 42.729 36.5122C42.865 36.6482 42.933 36.8082 42.933 36.9922V37.3162C42.933 37.5002 42.865 37.6602 42.729 37.7962C42.593 37.9322 42.433 38.0002 42.249 38.0002H37.809Z" fill="#504323"/>
<path d="M31.3241 37.9522C31.1321 37.9122 30.9721 37.8122 30.8441 37.6522C30.7241 37.4922 30.6641 37.3082 30.6641 37.1002V36.7282C30.6641 36.5602 30.7321 36.4282 30.8681 36.3322C31.0041 36.2362 31.1521 36.2082 31.3121 36.2482C31.9601 36.4162 32.4761 36.5002 32.8601 36.5002C34.0361 36.5002 34.6241 36.0082 34.6241 35.0242C34.6241 34.2242 34.2241 33.8242 33.4241 33.8242C33.2401 33.8242 33.0801 33.8522 32.9441 33.9082C32.8961 33.9242 32.7961 33.9642 32.6441 34.0282C32.5001 34.0842 32.3881 34.1282 32.3081 34.1602C32.2361 34.1842 32.1401 34.2122 32.0201 34.2442C31.9081 34.2682 31.8001 34.2802 31.6961 34.2802H31.3241C31.1401 34.2802 30.9841 34.2122 30.8561 34.0762C30.7281 33.9402 30.6681 33.7802 30.6761 33.5962L30.8441 29.9242C30.8601 29.7322 30.9361 29.5722 31.0721 29.4442C31.2081 29.3082 31.3721 29.2402 31.5641 29.2402H35.5361C35.7201 29.2402 35.8801 29.3082 36.0161 29.4442C36.1521 29.5802 36.2201 29.7402 36.2201 29.9242V30.2002C36.2201 30.3842 36.1521 30.5442 36.0161 30.6802C35.8801 30.8162 35.7201 30.8842 35.5361 30.8842H32.8241C32.7521 30.8842 32.7161 30.9162 32.7161 30.9802L32.6441 32.5042C32.6441 32.5122 32.6481 32.5162 32.6561 32.5162H32.6801C33.0641 32.3562 33.4441 32.2762 33.8201 32.2762C34.7161 32.2762 35.4041 32.5162 35.8841 32.9962C36.3721 33.4682 36.6161 34.1442 36.6161 35.0242C36.6161 37.0882 35.3921 38.1202 32.9441 38.1202C32.4081 38.1202 31.8681 38.0642 31.3241 37.9522Z" fill="#504323"/>
<path d="M25.7041 32.7562C25.5921 32.8442 25.4721 32.8562 25.3441 32.7922C25.2241 32.7282 25.1641 32.6242 25.1641 32.4802V31.6042C25.1641 31.1482 25.3481 30.7882 25.7161 30.5242L26.9281 29.6362C27.2881 29.3722 27.7001 29.2402 28.1641 29.2402H28.9201C29.1041 29.2402 29.2641 29.3082 29.4001 29.4442C29.5361 29.5802 29.6041 29.7402 29.6041 29.9242V37.3162C29.6041 37.5002 29.5361 37.6602 29.4001 37.7962C29.2641 37.9322 29.1041 38.0002 28.9201 38.0002H28.1641C27.9801 38.0002 27.8201 37.9322 27.6841 37.7962C27.5481 37.6602 27.4801 37.5002 27.4801 37.3162V31.4842H27.4681H27.4561L25.7041 32.7562Z" fill="#504323"/>
</svg>
