<svg width="48" height="48" viewBox="0 0 48 48" fill="none" xmlns="http://www.w3.org/2000/svg">
<path d="M17.3065 40.112L14.8825 32.648C14.8265 32.488 14.8465 32.34 14.9425 32.204C15.0465 32.068 15.1825 32 15.3505 32H16.1545C16.3545 32 16.5345 32.064 16.6945 32.192C16.8545 32.312 16.9585 32.468 17.0065 32.66L18.5785 38.792C18.5785 38.8 18.5825 38.804 18.5905 38.804C18.5985 38.804 18.6025 38.8 18.6025 38.792L20.2225 32.66C20.2705 32.468 20.3745 32.312 20.5345 32.192C20.6945 32.064 20.8745 32 21.0745 32H21.8305C21.9985 32 22.1305 32.068 22.2265 32.204C22.3305 32.34 22.3545 32.488 22.2985 32.648L19.8745 40.112C19.8185 40.304 19.7065 40.46 19.5385 40.58C19.3785 40.7 19.1945 40.76 18.9865 40.76H18.1945C17.9945 40.76 17.8105 40.7 17.6425 40.58C17.4825 40.46 17.3705 40.304 17.3065 40.112Z" fill="#504323"/>
<path d="M13.72 37.58C13.72 39.78 12.6 40.88 10.36 40.88C8.12 40.88 7 39.78 7 37.58V32.684C7 32.5 7.068 32.34 7.204 32.204C7.34 32.068 7.5 32 7.684 32H8.38C8.564 32 8.724 32.068 8.86 32.204C8.996 32.34 9.064 32.5 9.064 32.684V37.724C9.064 38.268 9.168 38.656 9.376 38.888C9.584 39.12 9.92 39.236 10.384 39.236C10.848 39.236 11.184 39.12 11.392 38.888C11.6 38.656 11.704 38.268 11.704 37.724V32.684C11.704 32.5 11.772 32.34 11.908 32.204C12.044 32.068 12.204 32 12.388 32H13.036C13.22 32 13.38 32.068 13.516 32.204C13.652 32.34 13.72 32.5 13.72 32.684V37.58Z" fill="#504323"/>
<path d="M25 23C26.1819 23 27.3524 23.2333 28.4443 23.6855C29.5361 24.1378 30.5286 24.8001 31.3643 25.6357C32.1999 26.4714 32.8622 27.4639 33.3145 28.5557C33.7667 29.6476 34 30.8181 34 32C34 33.1819 33.7667 34.3524 33.3145 35.4443C32.8622 36.5361 32.1999 37.5286 31.3643 38.3643C30.5286 39.1999 29.5361 39.8622 28.4443 40.3145C27.3524 40.7667 26.1819 41 25 41V23ZM25 23C23.8181 23 22.6476 22.7667 21.5557 22.3145C20.4639 21.8622 19.4714 21.1999 18.6357 20.3643C17.8001 19.5286 17.1378 18.5361 16.6855 17.4443C16.2333 16.3524 16 15.1819 16 14C16 12.8181 16.2333 11.6476 16.6855 10.5557C17.1378 9.46386 17.8001 8.47139 18.6357 7.63574C19.4714 6.8001 20.4639 6.13784 21.5557 5.68555C22.6476 5.23325 23.8181 5 25 5V23ZM34 14C35.1819 14 36.3524 14.2333 37.4443 14.6855C38.5361 15.1378 39.5286 15.8001 40.3643 16.6357C41.1999 17.4714 41.8622 18.4639 42.3145 19.5557C42.7667 20.6476 43 21.8181 43 23H25C25 21.8181 25.2333 20.6476 25.6855 19.5557C26.1378 18.4639 26.8001 17.4714 27.6357 16.6357C28.4714 15.8001 29.4639 15.1378 30.5557 14.6855C31.6476 14.2333 32.8181 14 34 14Z" fill="#E4DDCD"/>
<path d="M11.5 25L16.5 30L21.5 25M21.5 25L18.5 25M21.5 25L21.5 28" stroke="#7E796E" stroke-width="2" stroke-linecap="round" stroke-linejoin="round"/>
<path d="M10.5 30L6 25.5" stroke="#7E796E" stroke-width="2" stroke-linecap="round" stroke-linejoin="round"/>
</svg>
