<svg width="48" height="48" viewBox="0 0 48 48" fill="none" xmlns="http://www.w3.org/2000/svg">
<path d="M21 5C21 5 33.8713 19.0818 34.9287 28.2402H31.1914C30.7871 28.2403 30.4222 28.3798 30.127 28.625L30.0049 28.7373C29.9083 28.8339 29.8252 28.9402 29.7549 29.0537C28.9934 28.3853 27.9861 28.1211 26.8779 28.1211C26.1102 28.1211 25.3238 28.231 24.5225 28.4424L24.5088 28.4463C24.0982 28.5613 23.7504 28.8001 23.498 29.1445L23.4082 29.2754C23.2134 29.5849 23.1182 29.9338 23.1182 30.2969V30.8008C23.1182 31.305 23.3619 31.7432 23.7783 32.0127C24.1786 32.2717 24.6523 32.324 25.0996 32.1592L25.1074 32.1562C25.7698 31.906 26.2506 31.8125 26.5781 31.8125C26.6824 31.8125 26.7523 31.8244 26.7959 31.834C26.7983 31.8547 26.8018 31.882 26.8018 31.917C26.8018 32.1525 26.7067 32.4795 26.3604 32.9141L26.3545 32.9209C26.0054 33.3669 25.2069 34.104 23.8643 35.1592L23.6523 35.3428C23.1887 35.79 22.9375 36.3734 22.9375 37.041V37.3174C22.9376 37.7794 23.1207 38.19 23.4346 38.5039C23.7486 38.818 24.1598 39.001 24.6221 39.001H29.2656C29.6833 39.001 30.0609 38.848 30.3613 38.5752C30.5468 38.7061 30.7553 38.8048 30.9854 38.8623L30.9932 38.8643L31.002 38.8662C31.014 38.869 31.0261 38.8713 31.0381 38.874C30.9919 38.9202 30.9463 38.9671 30.8994 39.0127C28.2739 41.5654 24.713 43 21 43C17.287 43 13.7261 41.5654 11.1006 39.0127C8.4752 36.46 7 32.9977 7 29.3877C7.00037 20.3138 20.9975 5.0027 21 5ZM31.2041 36.1641L31.457 36.2432C31.9567 36.3902 32.407 36.4741 32.8076 36.4951L32.9365 36.498C32.6056 37.0232 32.2372 37.5276 31.833 38.0078C31.6321 37.9754 31.43 37.9385 31.2275 37.8916C31.0357 37.8436 30.876 37.7399 30.748 37.5801C30.628 37.4121 30.5674 37.2236 30.5674 37.0156V36.6084C30.5674 36.4484 30.6318 36.3243 30.7598 36.2363C30.8958 36.1403 31.0441 36.1161 31.2041 36.1641ZM27.2305 29.1318C28.0285 29.1826 28.6554 29.4114 29.1104 29.8174L29.2959 29.9961C29.3759 30.0829 29.4456 30.1768 29.5098 30.2744L29.5107 30.2754C29.6523 30.4909 29.7539 30.7322 29.8184 31H29V34.043C28.5177 34.638 27.7307 35.398 26.6377 36.3213L26.626 36.3447C26.626 36.3486 26.6271 36.3515 26.6289 36.3535L26.6377 36.3574H29.2656L29.3984 36.3701C29.4617 36.3828 29.5215 36.4043 29.5771 36.4355V36.4385C29.6147 36.4598 29.65 36.4857 29.6846 36.5146C29.7012 36.5293 29.7186 36.5438 29.7344 36.5605C29.8704 36.6965 29.9375 36.857 29.9375 37.041V37.3174L29.9248 37.4502C29.9224 37.4625 29.9181 37.4743 29.915 37.4863C29.8855 37.6003 29.8273 37.7039 29.7354 37.7959C29.7339 37.7975 29.731 37.7982 29.7295 37.7998C29.6022 37.9332 29.4478 38.001 29.2656 38.001H24.6221L24.4883 37.9883C24.3593 37.9628 24.2436 37.8988 24.1416 37.7969C24.0397 37.6949 23.9766 37.5792 23.9512 37.4502L23.9375 37.3174V37.041C23.9375 36.6489 24.0758 36.321 24.3516 36.0576L24.4775 35.9492C25.8213 34.8934 26.7095 34.0891 27.1416 33.5371C27.5267 33.054 27.7439 32.58 27.792 32.1152L27.8018 31.917C27.8018 31.2271 27.4435 30.8606 26.7266 30.8174L26.5781 30.8125C26.0821 30.8125 25.4739 30.9487 24.7539 31.2207C24.602 31.2767 24.4582 31.2608 24.3223 31.1729C24.1863 31.0849 24.1182 30.9608 24.1182 30.8008V30.2969C24.1182 30.089 24.1779 29.9051 24.2979 29.7451C24.3879 29.6191 24.5007 29.5249 24.6357 29.4619L24.7783 29.4092C25.5062 29.2172 26.206 29.1211 26.8779 29.1211L27.2305 29.1318ZM33 35.2256C33.0876 35.2337 33.1666 35.2432 33.2373 35.2539C33.3364 35.269 33.4112 35.2857 33.4658 35.3008C33.4635 35.3631 33.4546 35.3908 33.4521 35.3965C33.4507 35.3999 33.4494 35.4011 33.4492 35.4014C33.4486 35.4022 33.4456 35.4061 33.4385 35.4121C33.4207 35.427 33.3199 35.5 33.0039 35.5C33.0026 35.5 33.0013 35.499 33 35.499V35.2256ZM35 29.3877C35 30.3607 34.8916 31.3231 34.6836 32.2598L34.0117 32.8164V32.8281L34.0146 32.8369C34.0166 32.8389 34.0195 32.8398 34.0234 32.8398H34.168C34.2948 32.8399 34.4167 32.8489 34.5342 32.8633C34.3887 33.3986 34.2108 33.9244 34 34.4375C33.7876 34.3301 33.4546 34.2582 33 34.2227V31.6895L33.9033 30.9082V30.8965C33.9033 30.8885 33.8996 30.8838 33.8916 30.8838H31.1914C31.0075 30.8837 30.8479 30.8156 30.7119 30.6797C30.576 30.5437 30.5079 30.3841 30.5078 30.2002V29.9238C30.5079 29.7399 30.576 29.5803 30.7119 29.4443C30.814 29.3422 30.9294 29.2784 31.0586 29.2529L31.1914 29.2402H34.9971C34.9979 29.2896 35 29.3387 35 29.3877Z" fill="#E4DDCD"/>
<path d="M37.809 38.0002C37.625 38.0002 37.465 37.9322 37.329 37.7962C37.193 37.6602 37.125 37.5002 37.125 37.3162V29.9242C37.125 29.7402 37.193 29.5802 37.329 29.4442C37.465 29.3082 37.625 29.2402 37.809 29.2402H38.553C38.737 29.2402 38.893 29.3082 39.021 29.4442C39.157 29.5802 39.225 29.7402 39.225 29.9242V36.2122C39.225 36.2762 39.261 36.3082 39.333 36.3082H42.249C42.433 36.3082 42.593 36.3762 42.729 36.5122C42.865 36.6482 42.933 36.8082 42.933 36.9922V37.3162C42.933 37.5002 42.865 37.6602 42.729 37.7962C42.593 37.9322 42.433 38.0002 42.249 38.0002H37.809Z" fill="#504323"/>
<path d="M31.1918 30.8842C31.0078 30.8842 30.8478 30.8162 30.7118 30.6802C30.5758 30.5442 30.5078 30.3842 30.5078 30.2002V29.9242C30.5078 29.7402 30.5758 29.5802 30.7118 29.4442C30.8478 29.3082 31.0078 29.2402 31.1918 29.2402H35.6678C35.8518 29.2402 36.0118 29.3082 36.1478 29.4442C36.2838 29.5802 36.3518 29.7402 36.3518 29.9242V30.2002C36.3518 30.6562 36.1758 31.0282 35.8238 31.3162L34.0118 32.8162V32.8282C34.0118 32.8362 34.0158 32.8402 34.0238 32.8402H34.1678C34.8638 32.8402 35.4198 33.0562 35.8358 33.4882C36.2598 33.9202 36.4718 34.5042 36.4718 35.2402C36.4718 36.1682 36.1878 36.8802 35.6198 37.3762C35.0518 37.8722 34.2358 38.1202 33.1718 38.1202C32.5318 38.1202 31.8838 38.0442 31.2278 37.8922C31.0358 37.8442 30.8758 37.7402 30.7478 37.5802C30.6278 37.4122 30.5678 37.2242 30.5678 37.0162V36.6082C30.5678 36.4482 30.6318 36.3242 30.7598 36.2362C30.8958 36.1402 31.0438 36.1162 31.2038 36.1642C31.8918 36.3882 32.4918 36.5002 33.0038 36.5002C33.4678 36.5002 33.8278 36.3922 34.0838 36.1762C34.3398 35.9602 34.4678 35.6602 34.4678 35.2762C34.4678 34.8842 34.3198 34.6082 34.0238 34.4482C33.7278 34.2882 33.1758 34.2042 32.3678 34.1962C32.1838 34.1962 32.0238 34.1322 31.8878 34.0042C31.7518 33.8682 31.6838 33.7082 31.6838 33.5242V33.5002C31.6838 33.0522 31.8558 32.6802 32.1998 32.3842L33.9038 30.9082V30.8962C33.9038 30.8882 33.8998 30.8842 33.8918 30.8842H31.1918Z" fill="#504323"/>
<path d="M24.6215 37.9991C24.4375 37.9991 24.2775 37.9311 24.1415 37.7951C24.0055 37.6591 23.9375 37.4991 23.9375 37.3151V37.0391C23.9375 36.5911 24.1175 36.2271 24.4775 35.9471C25.8215 34.8911 26.7095 34.0871 27.1415 33.5351C27.5815 32.9831 27.8015 32.4431 27.8015 31.9151C27.8015 31.1791 27.3935 30.8111 26.5775 30.8111C26.0815 30.8111 25.4735 30.9471 24.7535 31.2191C24.6015 31.2751 24.4575 31.2591 24.3215 31.1711C24.1855 31.0831 24.1175 30.9591 24.1175 30.7991V30.2951C24.1175 30.0871 24.1775 29.9031 24.2975 29.7431C24.4175 29.5751 24.5775 29.4631 24.7775 29.4071C25.5055 29.2151 26.2055 29.1191 26.8775 29.1191C27.8455 29.1191 28.5895 29.3511 29.1095 29.8151C29.6375 30.2711 29.9015 30.9071 29.9015 31.7231C29.9015 32.4271 29.6775 33.0991 29.2295 33.7391C28.7895 34.3711 27.9255 35.2311 26.6375 36.3191C26.6295 36.3271 26.6255 36.3351 26.6255 36.3431C26.6255 36.3511 26.6295 36.3551 26.6375 36.3551H29.2655C29.4495 36.3551 29.6055 36.4231 29.7335 36.5591C29.8695 36.6951 29.9375 36.8551 29.9375 37.0391V37.3151C29.9375 37.4991 29.8695 37.6591 29.7335 37.7951C29.6055 37.9311 29.4495 37.9991 29.2655 37.9991H24.6215Z" fill="#504323"/>
</svg>
