<svg width="48" height="48" viewBox="0 0 48 48" fill="none" xmlns="http://www.w3.org/2000/svg">
<path d="M16 9L15.3717 9.62829C14.2049 10.7951 14.5241 12.7621 16 13.5C17.4759 14.2379 17.7951 16.2049 16.6283 17.3717L16 18" stroke="#7E796E" stroke-width="2" stroke-linecap="round" stroke-linejoin="round"/>
<path d="M24 9L23.3717 9.62829C22.2049 10.7951 22.5241 12.7621 24 13.5C25.4759 14.2379 25.7951 16.2049 24.6283 17.3717L24 18" stroke="#7E796E" stroke-width="2" stroke-linecap="round" stroke-linejoin="round"/>
<path d="M32 9L31.3717 9.62829C30.2049 10.7951 30.5241 12.7621 32 13.5C33.4759 14.2379 33.7951 16.2049 32.6283 17.3717L32 18" stroke="#7E796E" stroke-width="2" stroke-linecap="round" stroke-linejoin="round"/>
<path d="M38 21C38.5523 21 39 21.4477 39 22V30.2305L39.001 29.6592C39.5313 29.6597 40.0406 29.4498 40.416 29.0752C40.7914 28.7005 41.0024 28.1916 41.0029 27.6611C41.0034 27.131 40.7934 26.6224 40.4189 26.2471C40.0442 25.8716 39.5353 25.6597 39.0049 25.6592L39.0078 22.6592C40.3339 22.6604 41.6052 23.1894 42.542 24.1279C43.4785 25.0665 44.0042 26.3382 44.0029 27.6641C44.0017 28.9901 43.4737 30.2614 42.5352 31.1982C41.597 32.1346 40.3255 32.659 39 32.6582V37C39 39.2091 37.2091 41 35 41H13C10.7909 41 9 39.2091 9 37V32.6641C7.67392 32.6641 6.40253 32.1369 5.46484 31.1992C4.52716 30.2615 4 28.9901 4 27.6641C4 26.338 4.52716 25.0666 5.46484 24.1289C6.40253 23.1912 7.67392 22.6641 9 22.6641V22C9 21.4477 9.44772 21 10 21H38ZM9 25.6641C8.46957 25.6641 7.96101 25.8749 7.58594 26.25C7.21086 26.6251 7 27.1336 7 27.6641C7 28.1945 7.21086 28.7031 7.58594 29.0781C7.96101 29.4532 8.46957 29.6641 9 29.6641V25.6641Z" fill="#E4DDCD"/>
<path d="M27.4064 34.76C27.2224 34.76 27.0624 34.692 26.9264 34.556C26.7984 34.42 26.7344 34.26 26.7344 34.076V26.684C26.7344 26.5 26.7984 26.34 26.9264 26.204C27.0624 26.068 27.2224 26 27.4064 26H28.2944C28.4784 26 28.6344 26.068 28.7624 26.204C28.8984 26.34 28.9664 26.5 28.9664 26.684V34.076C28.9664 34.26 28.8984 34.42 28.7624 34.556C28.6344 34.692 28.4784 34.76 28.2944 34.76H27.4064Z" fill="#504323"/>
<path d="M21.7029 27.776L20.8269 31.22C20.8189 31.244 20.8229 31.268 20.8389 31.292C20.8629 31.308 20.8869 31.316 20.9109 31.316H22.5189C22.5429 31.316 22.5629 31.308 22.5789 31.292C22.6029 31.268 22.6109 31.244 22.6029 31.22L21.7269 27.776C21.7269 27.768 21.7229 27.764 21.7149 27.764C21.7069 27.764 21.7029 27.768 21.7029 27.776ZM18.4989 34.76C18.3309 34.76 18.1949 34.692 18.0909 34.556C17.9949 34.42 17.9749 34.272 18.0309 34.112L20.4549 26.648C20.5189 26.456 20.6309 26.3 20.7909 26.18C20.9589 26.06 21.1429 26 21.3429 26H22.1349C22.3429 26 22.5309 26.06 22.6989 26.18C22.8669 26.3 22.9789 26.456 23.0349 26.648L25.4469 34.112C25.5029 34.272 25.4789 34.42 25.3749 34.556C25.2789 34.692 25.1469 34.76 24.9789 34.76H24.1749C23.9749 34.76 23.7949 34.7 23.6349 34.58C23.4749 34.452 23.3709 34.292 23.3229 34.1L23.0349 32.96C23.0269 32.896 22.9869 32.864 22.9149 32.864H20.5149C20.4509 32.864 20.4109 32.896 20.3949 32.96L20.1069 34.1C20.0589 34.292 19.9549 34.452 19.7949 34.58C19.6349 34.7 19.4549 34.76 19.2549 34.76H18.4989Z" fill="#504323"/>
</svg>
