<svg width="48" height="48" viewBox="0 0 48 48" fill="none" xmlns="http://www.w3.org/2000/svg">
<circle cx="24" cy="24" r="18" fill="#E4DDCD"/>
<path d="M35.5479 14.4881C36.0674 14.0994 36.7933 14.2212 37.1687 14.7593C37.8688 15.7629 38.4648 16.8516 38.9414 18.008C39.4181 19.1644 39.7652 20.3628 39.9808 21.5807C40.0963 22.2336 39.6783 22.8603 39.048 22.9802C38.4177 23.0997 37.8126 22.6668 37.6969 22.0139C37.5121 20.9704 37.2156 19.9431 36.8071 18.9519C36.3985 17.9605 35.8872 17.0272 35.2872 16.167C34.9118 15.6289 35.0283 14.877 35.5479 14.4881Z" fill="#7E796E"/>
<path d="M10.843 14.7358C11.2193 14.1986 11.945 14.0796 12.4638 14.4693C12.9824 14.8592 13.0984 15.6109 12.7222 16.1482C12.1208 17.0074 11.608 17.9389 11.1977 18.9296C10.7874 19.9204 10.4888 20.948 10.3023 21.9916C10.1854 22.644 9.58006 23.0749 8.95008 22.9543C8.31988 22.8335 7.90306 22.2064 8.01951 21.5537C8.23706 20.3361 8.586 19.1379 9.06456 17.9821C9.54317 16.8264 10.1411 15.7384 10.843 14.7358Z" fill="#7E796E"/>
<path d="M25.3683 9.00637C25.475 8.35187 26.0739 7.90987 26.7057 8.02015C27.8844 8.22653 29.0477 8.56979 30.1707 9.04746C31.2934 9.52508 32.3525 10.1269 33.3308 10.8379C33.8553 11.2193 33.9822 11.9699 33.6142 12.5133C33.2461 13.0565 32.5225 13.1876 31.9979 12.8068C31.1593 12.1974 30.2514 11.6806 29.2889 11.2712C28.3262 10.8617 27.3294 10.5687 26.3192 10.3918C25.6874 10.2811 25.2618 9.66079 25.3683 9.00637Z" fill="#7E796E"/>
<path d="M21.3161 8.01663C21.9483 7.90722 22.5467 8.34923 22.6525 9.00402C22.7578 9.65848 22.331 10.2773 21.6992 10.3871C20.6887 10.5622 19.6918 10.8539 18.7284 11.2618C17.7651 11.6696 16.8569 12.1847 16.0172 12.7928C15.492 13.1731 14.7683 13.0407 14.4009 12.4969C14.0337 11.9529 14.1616 11.2032 14.6865 10.8227C15.6661 10.1132 16.7264 9.51262 17.85 9.03689C18.9738 8.56116 20.1371 8.22097 21.3161 8.01663Z" fill="#7E796E"/>
<circle cx="24" cy="24" r="3" fill="#7E796E"/>
<path d="M28.1406 16L24 23.9909" stroke="#7E796E" stroke-width="2" stroke-linecap="round" stroke-linejoin="round"/>
<path d="M37.7109 26.0859C34.5853 27.9278 34.9609 33.1172 34.9609 33.1172C34.9609 33.1172 33.5859 32.6484 33.5859 30.5391C31.9455 31.5119 30.8359 33.3818 30.8359 35.4609C30.8359 38.5675 33.2984 41.0859 36.3359 41.0859C39.3735 41.0859 41.8359 38.5675 41.8359 35.4609C41.8359 30.8906 37.7109 29.9531 37.7109 26.0859Z" fill="#7E796E"/>
</svg>
