<svg width="48" height="48" viewBox="0 0 48 48" fill="none" xmlns="http://www.w3.org/2000/svg">
<path d="M8.03309 17.8436C8.11002 17.3578 8.52888 17 9.02079 17H38.9792C39.4711 17 39.89 17.3578 39.9669 17.8436L42.8169 35.8436C42.913 36.4507 42.4439 37 41.8292 37H6.17079C5.55614 37 5.08697 36.4507 5.18309 35.8436L8.03309 17.8436Z" fill="#E4DDCD"/>
<path fill-rule="evenodd" clip-rule="evenodd" d="M39.968 17.8436C39.891 17.3578 39.4722 17 38.9803 17H9.02182C8.52991 17 8.11105 17.3578 8.03412 17.8436L6.10938 30H41.8927L39.968 17.8436Z" fill="#EFEBE1"/>
<circle cx="11" cy="33" r="1" fill="#7E796E"/>
<circle cx="15" cy="33" r="1" fill="#7E796E"/>
<circle cx="33" cy="33" r="1" fill="#7E796E"/>
<circle cx="37" cy="33" r="1" fill="#7E796E"/>
<rect x="18" y="32" width="12" height="2" rx="1" fill="#7E796E"/>
<path d="M39.4923 12.7078C40.0405 13.0918 40.1738 13.8474 39.7899 14.3957C39.4059 14.9437 38.6502 15.0771 38.102 14.6933L37.8636 14.5264L32.8432 21.6964L32.8408 21.6947L30.9807 22.1769L30.9751 22.173L30.8597 22.3378C30.4639 22.9026 29.6852 23.0402 29.1202 22.6445C28.5553 22.2489 28.4181 21.47 28.8134 20.905L28.9339 20.733L28.7522 18.8319L28.7498 18.8302L33.7703 11.6602L33.5343 11.495C32.9861 11.1111 32.853 10.3554 33.2367 9.80709C33.6206 9.2588 34.3762 9.12559 34.9245 9.50947L35.1605 9.67471L35.5986 9.04915C36.279 8.07786 37.6178 7.84178 38.5894 8.52179L39.167 8.9262C40.1382 9.60661 40.3743 10.9455 39.6943 11.917L39.2563 12.5426L39.4923 12.7078Z" fill="#7E796E"/>
</svg>
