<svg width="48" height="48" viewBox="0 0 48 48" fill="none" xmlns="http://www.w3.org/2000/svg">
<circle cx="24" cy="25" r="13" fill="#E4DDCD"/>
<path d="M36.677 17.2914L37.5297 14.5945L40.2266 15.4473" stroke="#7E796E" stroke-width="2" stroke-linecap="round" stroke-linejoin="round"/>
<path d="M24.126 16.9956L18.1256 25.3045C18.0505 25.4088 18.0073 25.5299 18.0009 25.655C17.9944 25.7801 18.0248 25.9045 18.0888 26.0149C18.1528 26.1254 18.2481 26.2177 18.3645 26.2821C18.4809 26.3464 18.614 26.3805 18.7497 26.3805H23.835L22.5149 32.4765C22.3559 33.2202 23.418 33.6259 23.874 32.9959L29.8744 24.6869C29.9495 24.5826 29.9927 24.4615 29.9991 24.3364C30.0056 24.2113 29.9752 24.0869 29.9112 23.9765C29.8472 23.8661 29.7519 23.7738 29.6355 23.7094C29.5191 23.645 29.386 23.611 29.2503 23.6109H24.165L25.4851 17.5149C25.6441 16.7712 24.5715 16.3807 24.126 16.9956Z" fill="#7E796E"/>
<path d="M22.9916 8.02967C13.6193 8.58679 6.47318 16.6362 7.0303 26.0085C7.58743 35.3808 15.6368 42.5269 25.0091 41.9698C34.3814 41.4126 41.5275 33.3632 40.9704 23.991C40.7641 20.5213 39.5311 17.3568 37.5842 14.7752" stroke="#7E796E" stroke-width="2" stroke-linecap="round" stroke-linejoin="round"/>
</svg>
