<svg width="48" height="48" viewBox="0 0 48 48" fill="none" xmlns="http://www.w3.org/2000/svg">
<path d="M6 35C6 34.4477 6.44772 34 7 34H41C41.5523 34 42 34.4477 42 35V36C42 38.2091 40.2091 40 38 40H10C7.79086 40 6 38.2091 6 36V35Z" fill="#7E796E"/>
<path d="M14.5 16C11.0902 17.9646 11.5 23.5 11.5 23.5C11.5 23.5 10 23 10 20.75C8.21041 21.7877 7 23.7823 7 26C7 29.3137 9.68629 32 13 32C16.3137 32 19 29.3137 19 26C19 21.125 14.5 20.125 14.5 16Z" fill="#E4DDCD"/>
<path d="M36.5 16C33.0902 17.9646 33.5 23.5 33.5 23.5C33.5 23.5 32 23 32 20.75C30.2104 21.7877 29 23.7823 29 26C29 29.3137 31.6863 32 35 32C38.3137 32 41 29.3137 41 26C41 21.125 36.5 20.125 36.5 16Z" fill="#E4DDCD"/>
<path d="M25.5 7C22.0902 8.96464 22.5 14.5 22.5 14.5C22.5 14.5 21 14 21 11.75C19.2104 12.7877 18 14.7823 18 17C18 20.3137 20.6863 23 24 23C27.3137 23 30 20.3137 30 17C30 12.125 25.5 11.125 25.5 7Z" fill="#E4DDCD"/>
</svg>
