<svg width="48" height="48" viewBox="0 0 48 48" fill="none" xmlns="http://www.w3.org/2000/svg">
<path d="M41.4484 23.0194C41.7909 23.6283 41.7909 24.3717 41.4484 24.9805L33.5735 38.9794C33.2192 39.6091 32.5529 39.9988 31.8303 39.9988L15.236 39.9988C14.4785 39.9988 13.786 39.5708 13.4472 38.8933L6.44726 24.8944C6.1657 24.3314 6.16569 23.6686 6.44723 23.1055L13.4472 9.10557C13.786 8.428 14.4785 8 15.2361 8L31.8303 8C32.5529 8 33.2192 8.38972 33.5735 9.01948L41.4484 23.0194Z" fill="#E4DDCD"/>
<path d="M21.0212 12.583C23.353 12.5835 25.6209 13.7926 26.8708 15.9569C28.1197 18.12 28.0329 20.6862 26.8698 22.7053L31.1496 30.1181C32.0813 31.732 31.5278 33.7957 29.9138 34.7276C28.2999 35.6592 26.2366 35.1064 25.3048 33.4926L21.025 26.0798C18.6952 26.0772 16.4299 24.8688 15.1812 22.706C13.9337 20.5446 14.0189 17.9808 15.1793 15.9626L16.9738 19.0706C17.9056 20.6846 19.9701 21.2378 21.5841 20.306C23.1979 19.3741 23.7504 17.31 22.8186 15.6961L21.0212 12.583Z" fill="#7E796E"/>
</svg>
