<svg width="48" height="48" viewBox="0 0 48 48" fill="none" xmlns="http://www.w3.org/2000/svg">
<path d="M8.03309 19.8436C8.11002 19.3578 8.52888 19 9.02079 19H38.9792C39.4711 19 39.89 19.3578 39.9669 19.8436L42.8169 37.8436C42.913 38.4507 42.4439 39 41.8292 39H6.17079C5.55614 39 5.08697 38.4507 5.18309 37.8436L8.03309 19.8436Z" fill="#E4DDCD"/>
<circle cx="11" cy="35" r="1" fill="#7E796E"/>
<circle cx="15" cy="35" r="1" fill="#7E796E"/>
<circle cx="33" cy="35" r="1" fill="#7E796E"/>
<circle cx="37" cy="35" r="1" fill="#7E796E"/>
<rect x="18" y="34" width="12" height="2" rx="1" fill="#7E796E"/>
<path d="M25.75 6C21.7719 8.21022 22.25 14.4375 22.25 14.4375C22.25 14.4375 20.5 13.875 20.5 11.3438C18.4121 12.5112 17 14.7551 17 17.25C17 20.9779 20.134 24 24 24C27.866 24 31 20.9779 31 17.25C31 11.7656 25.75 10.6406 25.75 6Z" fill="#7E796E"/>
<path d="M24.75 15C23.0451 15.9823 23.25 18.75 23.25 18.75C23.25 18.75 22.5 18.5 22.5 17.375C21.6052 17.8939 21 18.8911 21 20C21 21.6569 22.3431 23 24 23C25.6569 23 27 21.6569 27 20C27 17.5625 24.75 17.0625 24.75 15Z" fill="white"/>
</svg>
