<svg width="48" height="48" viewBox="0 0 48 48" fill="none" xmlns="http://www.w3.org/2000/svg">
<path d="M33 20C33.5523 20 34 20.4477 34 21V22C34.7956 22 35.5585 22.3163 36.1211 22.8789C36.6837 23.4415 37 24.2044 37 25C37 25.7956 36.6837 26.5585 36.1211 27.1211C35.5585 27.6837 34.7956 28 34 28V30C34 32.2091 32.2091 34 30 34H18C15.7909 34 14 32.2091 14 30V28C13.2044 28 12.4415 27.6837 11.8789 27.1211C11.3163 26.5585 11 25.7956 11 25C11 24.2044 11.3163 23.4415 11.8789 22.8789C12.4415 22.3163 13.2044 22 14 22V21C14 20.4477 14.4477 20 15 20H33ZM34 26.2002C34.3183 26.2002 34.6236 26.0737 34.8486 25.8486C35.0737 25.6236 35.2002 25.3183 35.2002 25C35.2002 24.6817 35.0737 24.3764 34.8486 24.1514C34.6236 23.9263 34.3183 23.7998 34 23.7998V26.2002ZM14 23.7998C13.6817 23.7998 13.3764 23.9263 13.1514 24.1514C12.9263 24.3764 12.7998 24.6817 12.7998 25C12.7998 25.3183 12.9263 25.6236 13.1514 25.8486C13.3764 26.0737 13.6817 26.2002 14 26.2002V23.7998Z" fill="#E4DDCD"/>
<path d="M13.1055 38.3374C15.1366 39.8818 17.4726 40.9754 19.9583 41.5457C22.4439 42.1159 25.0223 42.1498 27.522 41.6449C30.0216 41.14 32.3854 40.108 34.4563 38.6174C36.5271 37.1268 38.2575 35.2119 39.5325 32.9997M12.9712 40.8069L12.5586 37.8761L15.3596 37.3963M17.0063 7.40422C14.6556 8.39407 12.542 9.87374 10.8062 11.7449C9.07035 13.6161 7.75195 15.8359 6.9386 18.2568C6.12525 20.6777 5.83559 23.2443 6.08885 25.786C6.34212 28.3278 7.13252 30.7864 8.40752 32.9985M14.9385 6.05313L17.6785 7.16059L16.6928 9.83031M41.798 26.2566C42.1176 23.7224 41.8951 21.1491 41.1453 18.7076C40.3955 16.2662 39.1356 14.0126 37.4492 12.0966C35.7629 10.1805 33.6888 8.64594 31.3647 7.59479C29.0406 6.54364 26.5198 6 23.9698 6M44 25.1383L41.6725 26.9616L39.8572 24.7717" stroke="#7E796E" stroke-width="2" stroke-linecap="round" stroke-linejoin="round"/>
<path d="M26.8549 17.5731C26.6231 17.1521 26.2286 16.7916 25.7214 16.5373C25.2142 16.283 24.617 16.1464 24.0053 16.1445C23.3937 16.1427 22.7951 16.2759 22.2851 16.5272C21.7752 16.7785 21.3769 17.1366 21.1406 17.5562" stroke="#7E796E" stroke-width="2" stroke-linecap="round"/>
<path d="M29 15.8571C28.5943 15.015 27.904 14.2941 27.0164 13.7856C26.1287 13.277 25.0836 13.0036 24.0132 13C22.9429 12.9964 21.8953 13.2627 21.0029 13.7653C20.1106 14.2679 19.4135 14.9841 19 15.8234" stroke="#7E796E" stroke-width="2" stroke-linecap="round"/>
</svg>
