<svg width="48" height="48" viewBox="0 0 48 48" fill="none" xmlns="http://www.w3.org/2000/svg">
<path d="M7 8C7 7.44772 7.44772 7 8 7H40C40.5523 7 41 7.44772 41 8V40C41 40.5523 40.5523 41 40 41H8C7.44772 41 7 40.5523 7 40V8Z" fill="#E4DDCD"/>
<path d="M31.5106 23.1918C31.408 23.2724 31.298 23.2834 31.1806 23.2248C31.0706 23.1661 31.0156 23.0707 31.0156 22.9388V22.1357C31.0156 21.7177 31.1843 21.3878 31.5216 21.1458L32.6326 20.3317C32.9626 20.0897 33.3403 19.9688 33.7656 19.9688H34.4586C34.6273 19.9688 34.774 20.0311 34.8986 20.1557C35.0233 20.2804 35.0856 20.4271 35.0856 20.5957V27.3718C35.0856 27.5404 35.0233 27.6871 34.8986 27.8117C34.774 27.9364 34.6273 27.9988 34.4586 27.9988H33.7656C33.597 27.9988 33.4503 27.9364 33.3256 27.8117C33.201 27.6871 33.1386 27.5404 33.1386 27.3718V22.0257H33.1276H33.1166L31.5106 23.1918Z" fill="#504323"/>
<path d="M26.5575 23.1918C26.4548 23.2724 26.3448 23.2834 26.2275 23.2248C26.1175 23.1661 26.0625 23.0707 26.0625 22.9388V22.1357C26.0625 21.7177 26.2312 21.3878 26.5685 21.1458L27.6795 20.3317C28.0095 20.0897 28.3872 19.9688 28.8125 19.9688H29.5055C29.6742 19.9688 29.8208 20.0311 29.9455 20.1557C30.0702 20.2804 30.1325 20.4271 30.1325 20.5957V27.3718C30.1325 27.5404 30.0702 27.6871 29.9455 27.8117C29.8208 27.9364 29.6742 27.9988 29.5055 27.9988H28.8125C28.6438 27.9988 28.4972 27.9364 28.3725 27.8117C28.2478 27.6871 28.1855 27.5404 28.1855 27.3718V22.0257H28.1745H28.1635L26.5575 23.1918Z" fill="#504323"/>
<path d="M15.4469 32C14.1575 32 13.0244 31.7026 12.0476 31.1079C11.0904 30.5132 10.3382 29.6307 9.79121 28.4604C9.26374 27.271 9 25.7938 9 24.0288C9 21.3813 9.58608 19.3861 10.7582 18.0432C11.9499 16.6811 13.5226 16 15.4762 16C16.6874 16 17.674 16.2206 18.4359 16.6619C19.203 17.095 19.8289 17.6206 20.3136 18.2386C20.3308 18.2605 20.357 18.2734 20.3848 18.2734C20.4273 18.2734 20.4641 18.2435 20.4727 18.2018L20.7033 17.0854C20.7993 16.6209 21.2083 16.2878 21.6826 16.2878H21.9194C22.4717 16.2878 22.9194 16.7355 22.9194 17.2878V28.3165C22.9194 28.9113 23.0366 29.3333 23.2711 29.5827C23.5055 29.8129 23.7888 29.9281 24.1209 29.9281C24.2772 29.9281 24.4432 29.9089 24.619 29.8705C24.8132 29.8281 25 29.976 25 30.1748V31.18C25 31.4563 24.8523 31.7126 24.5897 31.7986C24.4139 31.8561 24.2186 31.9041 24.0037 31.9424C23.7888 31.9808 23.5739 32 23.359 32C22.6166 32 22.0012 31.8273 21.5128 31.482C21.0372 31.1458 20.6913 30.5548 20.4751 29.7092C20.4648 29.6689 20.4286 29.6403 20.3869 29.6403C20.3579 29.6403 20.3307 29.6543 20.3135 29.6777C19.8477 30.3139 19.2316 30.8578 18.4652 31.3094C17.6838 31.7698 16.6777 32 15.4469 32ZM15.8571 29.8993C16.9707 29.8993 17.8498 29.7074 18.4945 29.3237C19.1587 28.9209 19.6374 28.3165 19.9304 27.5108C20.2234 26.705 20.37 25.7074 20.37 24.518V24.0576C20.37 22.1391 20.0476 20.6715 19.4029 19.6547C18.7582 18.6187 17.5665 18.1007 15.8278 18.1007C14.4408 18.1007 13.3956 18.6475 12.6923 19.741C12.0085 20.8153 11.6667 22.2638 11.6667 24.0863C11.6667 25.9281 12.0085 27.3573 12.6923 28.3741C13.3956 29.3909 14.4505 29.8993 15.8571 29.8993Z" fill="#7E796E"/>
<path d="M27 17H38V31H27" stroke="#7E796E" stroke-width="2" stroke-linecap="round" stroke-linejoin="round"/>
</svg>
