<svg width="48" height="48" viewBox="0 0 48 48" fill="none" xmlns="http://www.w3.org/2000/svg">
<rect x="6" y="7" width="36" height="26" rx="1" fill="#E4DDCD"/>
<mask id="path-2-inside-1_2233_72065" fill="white">
<rect x="11" y="37" width="26" height="4" rx="1"/>
</mask>
<rect x="11" y="37" width="26" height="4" rx="1" stroke="#E4DDCD" stroke-width="4" mask="url(#path-2-inside-1_2233_72065)"/>
<rect x="22" y="37" width="4" height="4" transform="rotate(-90 22 37)" fill="#E4DDCD"/>
<path d="M36.8198 14.4416C36.6331 14.0749 36.3398 13.8916 35.9398 13.8916C35.5398 13.8916 35.2431 14.0749 35.0498 14.4416C34.8631 14.8082 34.7698 15.4449 34.7698 16.3516C34.7698 17.2582 34.8631 17.8949 35.0498 18.2616C35.2431 18.6282 35.5398 18.8116 35.9398 18.8116C36.3398 18.8116 36.6331 18.6282 36.8198 18.2616C37.0131 17.8949 37.1098 17.2582 37.1098 16.3516C37.1098 15.4449 37.0131 14.8082 36.8198 14.4416ZM38.1198 19.2216C37.6465 19.8082 36.9198 20.1016 35.9398 20.1016C34.9598 20.1016 34.2298 19.8082 33.7498 19.2216C33.2765 18.6349 33.0398 17.6782 33.0398 16.3516C33.0398 15.0249 33.2765 14.0682 33.7498 13.4816C34.2298 12.8949 34.9598 12.6016 35.9398 12.6016C36.9198 12.6016 37.6465 12.8949 38.1198 13.4816C38.5998 14.0682 38.8398 15.0249 38.8398 16.3516C38.8398 17.6782 38.5998 18.6349 38.1198 19.2216Z" fill="#504323"/>
<path d="M28.206 15.6331C28.1126 15.7065 28.0126 15.7165 27.906 15.6631C27.806 15.6098 27.756 15.5231 27.756 15.4031V14.6731C27.756 14.2931 27.9093 13.9931 28.216 13.7731L29.226 13.0331C29.526 12.8131 29.8693 12.7031 30.256 12.7031H30.886C31.0393 12.7031 31.1726 12.7598 31.286 12.8731C31.3993 12.9865 31.456 13.1198 31.456 13.2731V19.4331C31.456 19.5865 31.3993 19.7198 31.286 19.8331C31.1726 19.9465 31.0393 20.0031 30.886 20.0031H30.256C30.1026 20.0031 29.9693 19.9465 29.856 19.8331C29.7426 19.7198 29.686 19.5865 29.686 19.4331V14.5731H29.676H29.666L28.206 15.6331Z" fill="#504323"/>
<path d="M23.2926 14.0416V15.9616C23.2926 16.0216 23.3192 16.0516 23.3726 16.0516H23.8526C24.3192 16.0516 24.6759 15.9549 24.9226 15.7616C25.1692 15.5616 25.2926 15.2849 25.2926 14.9316C25.2926 14.2382 24.8359 13.8916 23.9226 13.8916C23.7159 13.8916 23.5359 13.9049 23.3826 13.9316C23.3226 13.9449 23.2926 13.9816 23.2926 14.0416ZM22.1926 20.0016C22.0392 20.0016 21.9059 19.9449 21.7926 19.8316C21.6792 19.7182 21.6226 19.5849 21.6226 19.4316V13.3216C21.6226 13.1549 21.6759 13.0116 21.7826 12.8916C21.8959 12.7716 22.0326 12.7049 22.1926 12.6916C22.7859 12.6316 23.3959 12.6016 24.0226 12.6016C25.0226 12.6016 25.7659 12.7916 26.2526 13.1716C26.7459 13.5449 26.9926 14.0782 26.9926 14.7716C26.9926 15.2182 26.8626 15.6216 26.6026 15.9816C26.3426 16.3349 26.0026 16.5882 25.5826 16.7416C25.5759 16.7416 25.5726 16.7449 25.5726 16.7516C25.5726 16.7649 25.5792 16.7716 25.5926 16.7716C25.9192 16.9582 26.1959 17.3516 26.4226 17.9516L26.9926 19.4716C27.0392 19.5982 27.0226 19.7182 26.9426 19.8316C26.8626 19.9449 26.7559 20.0016 26.6226 20.0016H26.0126C25.8392 20.0016 25.6826 19.9516 25.5426 19.8516C25.4026 19.7516 25.3059 19.6216 25.2526 19.4616L24.7526 18.0216C24.6592 17.7416 24.5459 17.5516 24.4126 17.4516C24.2792 17.3516 24.0726 17.3016 23.7926 17.3016H23.3726C23.3192 17.3016 23.2926 17.3316 23.2926 17.3916V19.4316C23.2926 19.5849 23.2359 19.7182 23.1226 19.8316C23.0092 19.9449 22.8759 20.0016 22.7226 20.0016H22.1926Z" fill="#504323"/>
<path d="M16.9782 14.0816V18.6216C16.9782 18.6816 17.0082 18.7182 17.0682 18.7316C17.2016 18.7582 17.3616 18.7716 17.5482 18.7716C18.2216 18.7716 18.7182 18.5749 19.0382 18.1816C19.3649 17.7882 19.5282 17.1449 19.5282 16.2516C19.5282 15.4516 19.3649 14.8649 19.0382 14.4916C18.7116 14.1182 18.2149 13.9316 17.5482 13.9316C17.3616 13.9316 17.2016 13.9449 17.0682 13.9716C17.0082 13.9849 16.9782 14.0216 16.9782 14.0816ZM15.8782 20.0216C15.7182 20.0082 15.5849 19.9416 15.4782 19.8216C15.3716 19.6949 15.3182 19.5482 15.3182 19.3816V13.3216C15.3182 13.1549 15.3716 13.0116 15.4782 12.8916C15.5849 12.7649 15.7182 12.6949 15.8782 12.6816C16.3982 12.6282 16.9116 12.6016 17.4182 12.6016C18.6116 12.6016 19.5316 12.9182 20.1782 13.5516C20.8249 14.1849 21.1482 15.0849 21.1482 16.2516C21.1482 17.5182 20.8249 18.4782 20.1782 19.1316C19.5316 19.7782 18.6116 20.1016 17.4182 20.1016C16.9116 20.1016 16.3982 20.0749 15.8782 20.0216Z" fill="#504323"/>
<path d="M9.33001 20.0031C9.17668 20.0031 9.04334 19.9465 8.93001 19.8331C8.81668 19.7198 8.76001 19.5865 8.76001 19.4331V13.2731C8.76001 13.1198 8.81668 12.9865 8.93001 12.8731C9.04334 12.7598 9.17668 12.7031 9.33001 12.7031H9.90001C10.0533 12.7031 10.1833 12.7598 10.29 12.8731C10.4033 12.9865 10.46 13.1198 10.46 13.2731V15.4731C10.46 15.5331 10.49 15.5631 10.55 15.5631H12.61C12.67 15.5631 12.7 15.5331 12.7 15.4731V13.2731C12.7 13.1198 12.7533 12.9865 12.86 12.8731C12.9733 12.7598 13.1067 12.7031 13.26 12.7031H13.83C13.9833 12.7031 14.1167 12.7598 14.23 12.8731C14.3433 12.9865 14.4 13.1198 14.4 13.2731V19.4331C14.4 19.5865 14.3433 19.7198 14.23 19.8331C14.1167 19.9465 13.9833 20.0031 13.83 20.0031H13.26C13.1067 20.0031 12.9733 19.9465 12.86 19.8331C12.7533 19.7198 12.7 19.5865 12.7 19.4331V16.9331C12.7 16.8798 12.67 16.8531 12.61 16.8531H10.55C10.49 16.8531 10.46 16.8798 10.46 16.9331V19.4331C10.46 19.5865 10.4033 19.7198 10.29 19.8331C10.1833 19.9465 10.0533 20.0031 9.90001 20.0031H9.33001Z" fill="#504323"/>
<path d="M28.5697 23.35C28.4257 23.128 28.2037 23.017 27.9037 23.017C27.6037 23.017 27.3787 23.128 27.2287 23.35C27.0847 23.572 27.0127 23.932 27.0127 24.43C27.0127 24.928 27.0847 25.288 27.2287 25.51C27.3787 25.732 27.6037 25.843 27.9037 25.843C28.2037 25.843 28.4257 25.732 28.5697 25.51C28.7197 25.288 28.7947 24.928 28.7947 24.43C28.7947 23.932 28.7197 23.572 28.5697 23.35ZM29.6407 26.221C29.2267 26.647 28.6477 26.86 27.9037 26.86C27.1597 26.86 26.5807 26.647 26.1667 26.221C25.7527 25.795 25.5457 25.198 25.5457 24.43C25.5457 23.662 25.7527 23.065 26.1667 22.639C26.5807 22.213 27.1597 22 27.9037 22C28.6477 22 29.2267 22.213 29.6407 22.639C30.0547 23.065 30.2617 23.662 30.2617 24.43C30.2617 25.198 30.0547 25.795 29.6407 26.221Z" fill="#504323"/>
<path d="M22.5365 26.7698C22.3985 26.7698 22.2785 26.7188 22.1765 26.6168C22.0805 26.5148 22.0325 26.3948 22.0325 26.2568V22.6028C22.0325 22.4648 22.0805 22.3448 22.1765 22.2428C22.2785 22.1408 22.3985 22.0898 22.5365 22.0898H22.9775C23.1155 22.0898 23.2325 22.1408 23.3285 22.2428C23.4305 22.3448 23.4815 22.4648 23.4815 22.6028V22.9808C23.4815 22.9868 23.4845 22.9898 23.4905 22.9898C23.5025 22.9898 23.5085 22.9868 23.5085 22.9808C23.8805 22.4828 24.3995 22.1918 25.0655 22.1078C25.2035 22.0898 25.3205 22.1318 25.4165 22.2338C25.5185 22.3358 25.5695 22.4588 25.5695 22.6028V22.6748C25.5695 22.8128 25.5185 22.9328 25.4165 23.0348C25.3205 23.1368 25.2005 23.1938 25.0565 23.2058C24.5705 23.2598 24.1925 23.4278 23.9225 23.7098C23.6585 23.9858 23.5265 24.3458 23.5265 24.7898V26.2568C23.5265 26.3948 23.4755 26.5148 23.3735 26.6168C23.2775 26.7188 23.1605 26.7698 23.0225 26.7698H22.5365Z" fill="#504323"/>
<path d="M18.4222 23.872V24.988C18.4222 25.186 18.5122 25.369 18.6922 25.537C18.8782 25.699 19.0882 25.78 19.3222 25.78C19.5982 25.78 19.8172 25.669 19.9792 25.447C20.1412 25.219 20.2222 24.88 20.2222 24.43C20.2222 23.53 19.9222 23.08 19.3222 23.08C19.0882 23.08 18.8782 23.164 18.6922 23.332C18.5122 23.494 18.4222 23.674 18.4222 23.872ZM17.5132 28.75C17.3752 28.75 17.2552 28.699 17.1532 28.597C17.0512 28.495 17.0002 28.375 17.0002 28.237V22.603C17.0002 22.465 17.0512 22.345 17.1532 22.243C17.2552 22.141 17.3752 22.09 17.5132 22.09H17.8732C18.0172 22.09 18.1402 22.141 18.2422 22.243C18.3442 22.339 18.3982 22.459 18.4042 22.603V22.675C18.4042 22.681 18.4072 22.684 18.4132 22.684L18.4312 22.666C18.8152 22.222 19.2772 22 19.8172 22C20.3752 22 20.8192 22.21 21.1492 22.63C21.4852 23.05 21.6532 23.65 21.6532 24.43C21.6532 25.186 21.4792 25.78 21.1312 26.212C20.7892 26.644 20.3512 26.86 19.8172 26.86C19.3192 26.86 18.8752 26.677 18.4852 26.311C18.4792 26.305 18.4732 26.302 18.4672 26.302C18.4612 26.302 18.4582 26.305 18.4582 26.311V28.237C18.4582 28.375 18.4072 28.495 18.3052 28.597C18.2032 28.699 18.0832 28.75 17.9452 28.75H17.5132Z" fill="#504323"/>
</svg>
