<svg width="48" height="48" viewBox="0 0 48 48" fill="none" xmlns="http://www.w3.org/2000/svg">
<rect x="6" y="7" width="36" height="26" rx="1" fill="#E4DDCD"/>
<mask id="path-2-inside-1_2512_78198" fill="white">
<rect x="11" y="37" width="26" height="4" rx="1"/>
</mask>
<rect x="11" y="37" width="26" height="4" rx="1" stroke="#E4DDCD" stroke-width="4" mask="url(#path-2-inside-1_2512_78198)"/>
<rect x="22" y="37" width="4" height="4" transform="rotate(-90 22 37)" fill="#E4DDCD"/>
<path d="M10 26.1481H17L20.5 22L24 26.1481L27.5 30L31 26.1481H38" stroke="#7E796E" stroke-width="2" stroke-linecap="round" stroke-linejoin="round"/>
<path d="M24.6677 13.4416C24.481 13.0749 24.1877 12.8916 23.7877 12.8916C23.3877 12.8916 23.091 13.0749 22.8977 13.4416C22.711 13.8082 22.6177 14.4449 22.6177 15.3516C22.6177 16.2582 22.711 16.8949 22.8977 17.2616C23.091 17.6282 23.3877 17.8116 23.7877 17.8116C24.1877 17.8116 24.481 17.6282 24.6677 17.2616C24.861 16.8949 24.9577 16.2582 24.9577 15.3516C24.9577 14.4449 24.861 13.8082 24.6677 13.4416ZM25.9677 18.2216C25.4944 18.8082 24.7677 19.1016 23.7877 19.1016C22.8077 19.1016 22.0777 18.8082 21.5977 18.2216C21.1244 17.6349 20.8877 16.6782 20.8877 15.3516C20.8877 14.0249 21.1244 13.0682 21.5977 12.4816C22.0777 11.8949 22.8077 11.6016 23.7877 11.6016C24.7677 11.6016 25.4944 11.8949 25.9677 12.4816C26.4477 13.0682 26.6877 14.0249 26.6877 15.3516C26.6877 16.6782 26.4477 17.6349 25.9677 18.2216Z" fill="#504323"/>
<path d="M16.0837 19.0016C15.9303 19.0016 15.797 18.9449 15.6837 18.8316C15.5703 18.7182 15.5137 18.5849 15.5137 18.4316V18.2016C15.5137 17.8282 15.6637 17.5249 15.9637 17.2916C17.0837 16.4116 17.8237 15.7416 18.1837 15.2816C18.5503 14.8216 18.7337 14.3716 18.7337 13.9316C18.7337 13.3182 18.3937 13.0116 17.7137 13.0116C17.3003 13.0116 16.7937 13.1249 16.1937 13.3516C16.067 13.3982 15.947 13.3849 15.8337 13.3116C15.7203 13.2382 15.6637 13.1349 15.6637 13.0016V12.5816C15.6637 12.4082 15.7137 12.2549 15.8137 12.1216C15.9137 11.9816 16.047 11.8882 16.2137 11.8416C16.8203 11.6816 17.4037 11.6016 17.9637 11.6016C18.7703 11.6016 19.3903 11.7949 19.8237 12.1816C20.2637 12.5616 20.4837 13.0916 20.4837 13.7716C20.4837 14.3582 20.297 14.9182 19.9237 15.4516C19.557 15.9782 18.837 16.6949 17.7637 17.6016C17.757 17.6082 17.7537 17.6149 17.7537 17.6216C17.7537 17.6282 17.757 17.6316 17.7637 17.6316H19.9537C20.107 17.6316 20.237 17.6882 20.3437 17.8016C20.457 17.9149 20.5137 18.0482 20.5137 18.2016V18.4316C20.5137 18.5849 20.457 18.7182 20.3437 18.8316C20.237 18.9449 20.107 19.0016 19.9537 19.0016H16.0837Z" fill="#504323"/>
<path d="M11.5301 14.6331C11.4367 14.7065 11.3367 14.7165 11.2301 14.6631C11.1301 14.6098 11.0801 14.5231 11.0801 14.4031V13.6731C11.0801 13.2931 11.2334 12.9931 11.5401 12.7731L12.5501 12.0331C12.8501 11.8131 13.1934 11.7031 13.5801 11.7031H14.2101C14.3634 11.7031 14.4967 11.7598 14.6101 11.8731C14.7234 11.9865 14.7801 12.1198 14.7801 12.2731V18.4331C14.7801 18.5865 14.7234 18.7198 14.6101 18.8331C14.4967 18.9465 14.3634 19.0031 14.2101 19.0031H13.5801C13.4267 19.0031 13.2934 18.9465 13.1801 18.8331C13.0667 18.7198 13.0101 18.5865 13.0101 18.4331V13.5731H13.0001H12.9901L11.5301 14.6331Z" fill="#504323"/>
<path d="M27.9859 19C27.8632 19 27.7565 18.9547 27.6659 18.864C27.5752 18.7733 27.5299 18.6667 27.5299 18.544V13.616C27.5299 13.4933 27.5752 13.3867 27.6659 13.296C27.7565 13.2053 27.8632 13.16 27.9859 13.16H28.4419C28.5645 13.16 28.6685 13.2053 28.7539 13.296C28.8445 13.3867 28.8899 13.4933 28.8899 13.616V15.376C28.8899 15.424 28.9139 15.448 28.9619 15.448H30.6099C30.6579 15.448 30.6819 15.424 30.6819 15.376V13.616C30.6819 13.4933 30.7245 13.3867 30.8099 13.296C30.9005 13.2053 31.0072 13.16 31.1299 13.16H31.5859C31.7085 13.16 31.8152 13.2053 31.9059 13.296C31.9965 13.3867 32.0419 13.4933 32.0419 13.616V18.544C32.0419 18.6667 31.9965 18.7733 31.9059 18.864C31.8152 18.9547 31.7085 19 31.5859 19H31.1299C31.0072 19 30.9005 18.9547 30.8099 18.864C30.7245 18.7733 30.6819 18.6667 30.6819 18.544V16.544C30.6819 16.5013 30.6579 16.48 30.6099 16.48H28.9619C28.9139 16.48 28.8899 16.5013 28.8899 16.544V18.544C28.8899 18.6667 28.8445 18.7733 28.7539 18.864C28.6685 18.9547 28.5645 19 28.4419 19H27.9859ZM32.6644 17.744L34.2804 15.768V15.752C34.2804 15.7467 34.2778 15.744 34.2724 15.744H32.8324C32.7098 15.744 32.6031 15.7013 32.5124 15.616C32.4218 15.5253 32.3764 15.4187 32.3764 15.296C32.3764 15.1733 32.4218 15.0667 32.5124 14.976C32.6031 14.8853 32.7098 14.84 32.8324 14.84H35.4404C35.5631 14.84 35.6698 14.8853 35.7604 14.976C35.8511 15.0667 35.8964 15.1733 35.8964 15.296C35.8964 15.5947 35.8004 15.8613 35.6084 16.096L33.9924 18.072V18.088C33.9924 18.0933 33.9951 18.096 34.0004 18.096H35.4404C35.5631 18.096 35.6698 18.1413 35.7604 18.232C35.8511 18.3173 35.8964 18.4213 35.8964 18.544C35.8964 18.6667 35.8511 18.7733 35.7604 18.864C35.6698 18.9547 35.5631 19 35.4404 19H32.8324C32.7098 19 32.6031 18.9547 32.5124 18.864C32.4218 18.7733 32.3764 18.6667 32.3764 18.544C32.3764 18.2453 32.4724 17.9787 32.6644 17.744Z" fill="#504323"/>
</svg>
