<svg width="48" height="48" viewBox="0 0 48 48" fill="none" xmlns="http://www.w3.org/2000/svg">
<path d="M7 8C7 7.44772 7.44772 7 8 7H40C40.5523 7 41 7.44772 41 8V40C41 40.5523 40.5523 41 40 41H8C7.44772 41 7 40.5523 7 40V8Z" fill="#E4DDCD"/>
<path d="M31.1983 24.552C30.7557 24.736 30.442 24.936 30.2569 25.152C30.0799 25.36 29.9914 25.604 29.9914 25.884C29.9914 26.228 30.1322 26.512 30.4138 26.736C30.6954 26.96 31.0575 27.072 31.5 27.072C31.9425 27.072 32.3006 26.96 32.5741 26.736C32.8557 26.512 32.9966 26.228 32.9966 25.884C32.9966 25.58 32.8879 25.332 32.6707 25.14C32.4615 24.94 32.0351 24.74 31.3914 24.54C31.3351 24.516 31.2707 24.52 31.1983 24.552ZM31.5 20.928C31.1057 20.928 30.792 21.024 30.5586 21.216C30.3333 21.4 30.2207 21.64 30.2207 21.936C30.2207 22.184 30.3132 22.4 30.4983 22.584C30.6914 22.768 31.0213 22.936 31.4879 23.088C31.5523 23.112 31.6167 23.112 31.681 23.088C32.4293 22.8 32.8034 22.416 32.8034 21.936C32.8034 21.64 32.6868 21.4 32.4534 21.216C32.2201 21.024 31.9023 20.928 31.5 20.928ZM34.0707 27.816C33.4592 28.272 32.6023 28.5 31.5 28.5C30.3977 28.5 29.5368 28.272 28.9172 27.816C28.3057 27.36 28 26.748 28 25.98C28 25.108 28.5552 24.416 29.6655 23.904C29.6736 23.904 29.6776 23.896 29.6776 23.88C29.6776 23.872 29.6736 23.868 29.6655 23.868C28.7322 23.34 28.2655 22.632 28.2655 21.744C28.2655 21.088 28.5511 20.552 29.1224 20.136C29.6937 19.712 30.4862 19.5 31.5 19.5C32.5138 19.5 33.3063 19.712 33.8776 20.136C34.4489 20.552 34.7345 21.088 34.7345 21.744C34.7345 22.504 34.2397 23.136 33.25 23.64C33.242 23.64 33.2379 23.644 33.2379 23.652C33.2379 23.668 33.242 23.676 33.25 23.676C34.4167 24.156 35 24.924 35 25.98C35 26.748 34.6902 27.36 34.0707 27.816Z" fill="#504323"/>
<path d="M15.4469 32C14.1575 32 13.0244 31.7026 12.0476 31.1079C11.0904 30.5132 10.3382 29.6307 9.79121 28.4604C9.26374 27.271 9 25.7938 9 24.0288C9 21.3813 9.58608 19.3861 10.7582 18.0432C11.9499 16.6811 13.5226 16 15.4762 16C16.6874 16 17.674 16.2206 18.4359 16.6619C19.203 17.095 19.8289 17.6206 20.3136 18.2386C20.3308 18.2605 20.357 18.2734 20.3848 18.2734C20.4273 18.2734 20.4641 18.2435 20.4727 18.2018L20.7033 17.0854C20.7993 16.6209 21.2083 16.2878 21.6826 16.2878H21.9194C22.4717 16.2878 22.9194 16.7355 22.9194 17.2878V28.3165C22.9194 28.9113 23.0366 29.3333 23.2711 29.5827C23.5055 29.8129 23.7888 29.9281 24.1209 29.9281C24.2772 29.9281 24.4432 29.9089 24.619 29.8705C24.8132 29.8281 25 29.976 25 30.1748V31.18C25 31.4563 24.8523 31.7126 24.5897 31.7986C24.4139 31.8561 24.2186 31.9041 24.0037 31.9424C23.7888 31.9808 23.5739 32 23.359 32C22.6166 32 22.0012 31.8273 21.5128 31.482C21.0372 31.1458 20.6913 30.5548 20.4751 29.7092C20.4648 29.6689 20.4286 29.6403 20.3869 29.6403C20.3579 29.6403 20.3307 29.6543 20.3135 29.6777C19.8477 30.3139 19.2316 30.8578 18.4652 31.3094C17.6838 31.7698 16.6777 32 15.4469 32ZM15.8571 29.8993C16.9707 29.8993 17.8498 29.7074 18.4945 29.3237C19.1587 28.9209 19.6374 28.3165 19.9304 27.5108C20.2234 26.705 20.37 25.7074 20.37 24.518V24.0576C20.37 22.1391 20.0476 20.6715 19.4029 19.6547C18.7582 18.6187 17.5665 18.1007 15.8278 18.1007C14.4408 18.1007 13.3956 18.6475 12.6923 19.741C12.0085 20.8153 11.6667 22.2638 11.6667 24.0863C11.6667 25.9281 12.0085 27.3573 12.6923 28.3741C13.3956 29.3909 14.4505 29.8993 15.8571 29.8993Z" fill="#7E796E"/>
<path d="M27 17H38V31H27" stroke="#7E796E" stroke-width="2" stroke-linecap="round" stroke-linejoin="round"/>
</svg>
