<svg width="48" height="48" viewBox="0 0 48 48" fill="none" xmlns="http://www.w3.org/2000/svg">
<rect x="6" y="7" width="36" height="26" rx="1" fill="#E4DDCD"/>
<mask id="path-2-inside-1_2233_71938" fill="white">
<rect x="11" y="37" width="26" height="4" rx="1"/>
</mask>
<rect x="11" y="37" width="26" height="4" rx="1" stroke="#E4DDCD" stroke-width="4" mask="url(#path-2-inside-1_2233_71938)"/>
<rect x="22" y="37" width="4" height="4" transform="rotate(-90 22 37)" fill="#E4DDCD"/>
<path d="M22.1279 11.2725C25.0078 10.5548 30.8824 10.8714 33.0078 17.0547C33.6691 18.9788 33.6521 23.3181 28.6035 23.9541C27.7109 24.0665 24.7182 23.7127 24.7178 25.7656C24.7178 26.9133 26.2719 28.0956 24.7178 28.8721C23.1629 29.6481 16.1708 28.0949 15.1348 21.3662C14.0987 14.637 19.2852 11.9809 22.1279 11.2725ZM18.5078 18.0547C17.6794 18.0547 17.0078 18.7263 17.0078 19.5547C17.0079 20.383 17.6794 21.0547 18.5078 21.0547C19.3362 21.0547 20.0077 20.383 20.0078 19.5547C20.0078 18.7263 19.3362 18.0547 18.5078 18.0547ZM29.5078 16.0547C28.6794 16.0547 28.0078 16.7263 28.0078 17.5547C28.0079 18.383 28.6794 19.0547 29.5078 19.0547C30.3362 19.0547 31.0077 18.383 31.0078 17.5547C31.0078 16.7263 30.3362 16.0547 29.5078 16.0547ZM20.5078 14.0547C19.6794 14.0547 19.0078 14.7263 19.0078 15.5547C19.0079 16.383 19.6794 17.0547 20.5078 17.0547C21.3362 17.0547 22.0077 16.383 22.0078 15.5547C22.0078 14.7263 21.3362 14.0547 20.5078 14.0547ZM25.5078 13.0547C24.6794 13.0547 24.0078 13.7263 24.0078 14.5547C24.0079 15.383 24.6794 16.0547 25.5078 16.0547C26.3362 16.0547 27.0077 15.383 27.0078 14.5547C27.0078 13.7263 26.3362 13.0547 25.5078 13.0547Z" fill="#7E796E"/>
</svg>
