<svg width="48" height="48" viewBox="0 0 48 48" fill="none" xmlns="http://www.w3.org/2000/svg">
<rect x="6" y="8" width="36" height="28" rx="1" fill="#E4DDCD"/>
<path d="M23.3133 32.6488C23.6987 32.2847 24.3013 32.2847 24.6867 32.6488L31.6984 39.2731C32.356 39.8944 31.9163 41 31.0117 41H16.9883C16.0837 41 15.644 39.8944 16.3016 39.2731L23.3133 32.6488Z" fill="#7E796E"/>
<path d="M23.1542 22.28V23.52C23.1542 23.7467 23.2542 23.95 23.4542 24.13C23.6542 24.31 23.8876 24.4 24.1542 24.4C24.4609 24.4 24.7042 24.2767 24.8842 24.03C25.0642 23.7833 25.1542 23.4067 25.1542 22.9C25.1542 21.9 24.8209 21.4 24.1542 21.4C23.8876 21.4 23.6542 21.49 23.4542 21.67C23.2542 21.85 23.1542 22.0533 23.1542 22.28ZM22.1342 25.5C21.9809 25.5 21.8476 25.4433 21.7342 25.33C21.6276 25.2167 21.5742 25.0833 21.5742 24.93V18.57C21.5742 18.4167 21.6276 18.2833 21.7342 18.17C21.8476 18.0567 21.9809 18 22.1342 18H22.6242C22.7776 18 22.9076 18.0567 23.0142 18.17C23.1276 18.2833 23.1842 18.4167 23.1842 18.57V20.81C23.1842 20.8167 23.1876 20.82 23.1942 20.82C23.2009 20.82 23.2076 20.8167 23.2142 20.81C23.6609 20.4033 24.1576 20.2 24.7042 20.2C25.3242 20.2 25.8176 20.4333 26.1842 20.9C26.5509 21.3667 26.7342 22.0333 26.7342 22.9C26.7342 23.7467 26.5442 24.41 26.1642 24.89C25.7842 25.3633 25.2976 25.6 24.7042 25.6C24.0709 25.6 23.5442 25.3533 23.1242 24.86L23.1042 24.84C23.0976 24.84 23.0942 24.8433 23.0942 24.85V24.93C23.0876 25.09 23.0276 25.2267 22.9142 25.34C22.8076 25.4467 22.6742 25.5 22.5142 25.5H22.1342Z" fill="#504323"/>
<path d="M18.5097 21.2892C18.2097 21.2892 17.983 21.3692 17.8297 21.5292C17.6764 21.6826 17.5797 21.9492 17.5397 22.3292C17.5397 22.3826 17.563 22.4092 17.6097 22.4092H19.2997C19.3597 22.4092 19.3897 22.3792 19.3897 22.3192C19.363 21.6326 19.0697 21.2892 18.5097 21.2892ZM18.7597 25.5992C17.853 25.5992 17.153 25.3692 16.6597 24.9092C16.173 24.4492 15.9297 23.7792 15.9297 22.8992C15.9297 22.0259 16.1464 21.3592 16.5797 20.8992C17.0197 20.4326 17.653 20.1992 18.4797 20.1992C20.0664 20.1992 20.873 21.0659 20.8997 22.7992C20.8997 22.9592 20.8364 23.0959 20.7097 23.2092C20.5897 23.3159 20.4497 23.3692 20.2897 23.3692H17.6197C17.553 23.3692 17.5264 23.3992 17.5397 23.4592C17.593 23.8259 17.733 24.0892 17.9597 24.2492C18.193 24.4026 18.5397 24.4792 18.9997 24.4792C19.2997 24.4792 19.623 24.4359 19.9697 24.3492C20.1097 24.3159 20.233 24.3426 20.3397 24.4292C20.453 24.5159 20.5097 24.6292 20.5097 24.7692V24.7892C20.5097 24.9559 20.4564 25.1092 20.3497 25.2492C20.2497 25.3826 20.1197 25.4626 19.9597 25.4892C19.573 25.5626 19.173 25.5992 18.7597 25.5992Z" fill="#504323"/>
<path d="M9.2412 24.9392L8.0112 18.7592C7.97787 18.6126 8.00787 18.4826 8.1012 18.3692C8.2012 18.2559 8.32454 18.1992 8.4712 18.1992H9.0512C9.2112 18.1992 9.35454 18.2526 9.4812 18.3592C9.60787 18.4659 9.6812 18.5992 9.7012 18.7592L10.3812 23.7592C10.3812 23.7659 10.3845 23.7692 10.3912 23.7692C10.3979 23.7692 10.4012 23.7659 10.4012 23.7592L11.0212 18.7592C11.0412 18.5992 11.1112 18.4659 11.2312 18.3592C11.3512 18.2526 11.4912 18.1992 11.6512 18.1992H12.5912C12.7512 18.1992 12.8912 18.2526 13.0112 18.3592C13.1312 18.4659 13.2012 18.5992 13.2212 18.7592L13.8412 23.7592C13.8412 23.7659 13.8445 23.7692 13.8512 23.7692C13.8579 23.7692 13.8612 23.7659 13.8612 23.7592L14.5412 18.7592C14.5612 18.5992 14.6345 18.4659 14.7612 18.3592C14.8879 18.2526 15.0312 18.1992 15.1912 18.1992H15.7312C15.8779 18.1992 15.9979 18.2559 16.0912 18.3692C16.1845 18.4826 16.2179 18.6126 16.1912 18.7592L14.9612 24.9392C14.9279 25.0992 14.8479 25.2326 14.7212 25.3392C14.5945 25.4459 14.4479 25.4992 14.2812 25.4992H13.4312C13.2712 25.4992 13.1279 25.4459 13.0012 25.3392C12.8812 25.2326 12.8112 25.0992 12.7912 24.9392L12.1112 19.9392C12.1112 19.9326 12.1079 19.9292 12.1012 19.9292C12.0945 19.9292 12.0912 19.9326 12.0912 19.9392L11.4112 24.9392C11.3912 25.0992 11.3179 25.2326 11.1912 25.3392C11.0712 25.4459 10.9312 25.4992 10.7712 25.4992H9.9212C9.75454 25.4992 9.60454 25.4459 9.4712 25.3392C9.34454 25.2326 9.26787 25.0992 9.2412 24.9392Z" fill="#504323"/>
<path d="M37.4552 22.48C36.6152 22.2133 36.0085 21.8833 35.6352 21.49C35.2619 21.09 35.0752 20.6033 35.0752 20.03C35.0752 19.4033 35.2919 18.91 35.7252 18.55C36.1652 18.1833 36.7919 18 37.6052 18C38.2185 18 38.7752 18.07 39.2752 18.21C39.4352 18.2567 39.5619 18.3533 39.6552 18.5C39.7552 18.64 39.8052 18.7967 39.8052 18.97V19.26C39.8052 19.3933 39.7485 19.4967 39.6352 19.57C39.5219 19.6433 39.4019 19.6567 39.2752 19.61C38.7085 19.41 38.1852 19.31 37.7052 19.31C37.0919 19.31 36.7852 19.55 36.7852 20.03C36.7852 20.4367 37.0519 20.7267 37.5852 20.9C38.5052 21.18 39.1419 21.5067 39.4952 21.88C39.8552 22.2533 40.0352 22.7433 40.0352 23.35C40.0352 24.7833 39.1319 25.5 37.3252 25.5C36.7519 25.5 36.2319 25.41 35.7652 25.23C35.6052 25.17 35.4785 25.0667 35.3852 24.92C35.2985 24.7667 35.2552 24.6 35.2552 24.42V24.1C35.2552 23.98 35.3085 23.89 35.4152 23.83C35.5219 23.7633 35.6285 23.7567 35.7352 23.81C36.2219 24.05 36.7185 24.17 37.2252 24.17C37.5785 24.17 37.8452 24.1033 38.0252 23.97C38.2119 23.83 38.3052 23.6333 38.3052 23.38C38.3052 23.16 38.2419 22.98 38.1152 22.84C37.9885 22.7 37.7685 22.58 37.4552 22.48Z" fill="#504323"/>
<path d="M33.0111 21.75C33.0111 20.1833 32.4511 19.4 31.3311 19.4C30.2111 19.4 29.6511 20.1833 29.6511 21.75C29.6511 23.3167 30.2111 24.1 31.3311 24.1C32.4511 24.1 33.0111 23.3167 33.0111 21.75ZM33.8311 24.51C33.2178 25.17 32.3845 25.5 31.3311 25.5C30.2778 25.5 29.4445 25.17 28.8311 24.51C28.2178 23.8433 27.9111 22.9233 27.9111 21.75C27.9111 20.5767 28.2178 19.66 28.8311 19C29.4445 18.3333 30.2778 18 31.3311 18C32.3845 18 33.2178 18.3333 33.8311 19C34.4445 19.66 34.7511 20.5767 34.7511 21.75C34.7511 22.9233 34.4445 23.8433 33.8311 24.51Z" fill="#504323"/>
</svg>
