<svg width="48" height="48" viewBox="0 0 48 48" fill="none" xmlns="http://www.w3.org/2000/svg">
<path d="M7 8C7 7.44772 7.44772 7 8 7H40C40.5523 7 41 7.44772 41 8V40C41 40.5523 40.5523 41 40 41H8C7.44772 41 7 40.5523 7 40V8Z" fill="#E4DDCD"/>
<path d="M29.6667 21.189C29.4873 21.189 29.3314 21.1192 29.1988 20.9795C29.0663 20.8397 29 20.6753 29 20.4863V20.2027C29 20.0137 29.0663 19.8493 29.1988 19.7096C29.3314 19.5699 29.4873 19.5 29.6667 19.5H34.345C34.5244 19.5 34.6764 19.5699 34.8012 19.7096C34.9337 19.8493 35 20.0137 35 20.2027V20.4863C35 20.9384 34.8908 21.3699 34.6725 21.7808C33.6745 23.5973 32.8168 25.6151 32.0994 27.8342C32.037 28.0315 31.924 28.1918 31.7602 28.3151C31.5965 28.4384 31.4172 28.5 31.2222 28.5H30.4269C30.2632 28.5 30.1345 28.4301 30.0409 28.2904C29.9474 28.1507 29.9318 27.9986 29.9942 27.8342C30.8596 25.4589 31.8928 23.2685 33.0936 21.263C33.1092 21.2466 33.117 21.2301 33.117 21.2137C33.117 21.1973 33.1092 21.189 33.0936 21.189H29.6667Z" fill="#504323"/>
<path d="M15.4469 32C14.1575 32 13.0244 31.7026 12.0476 31.1079C11.0904 30.5132 10.3382 29.6307 9.79121 28.4604C9.26374 27.271 9 25.7938 9 24.0288C9 21.3813 9.58608 19.3861 10.7582 18.0432C11.9499 16.6811 13.5226 16 15.4762 16C16.6874 16 17.674 16.2206 18.4359 16.6619C19.203 17.095 19.8289 17.6206 20.3136 18.2386C20.3308 18.2605 20.357 18.2734 20.3848 18.2734C20.4273 18.2734 20.4641 18.2435 20.4727 18.2018L20.7033 17.0854C20.7993 16.6209 21.2083 16.2878 21.6826 16.2878H21.9194C22.4717 16.2878 22.9194 16.7355 22.9194 17.2878V28.3165C22.9194 28.9113 23.0366 29.3333 23.2711 29.5827C23.5055 29.8129 23.7888 29.9281 24.1209 29.9281C24.2772 29.9281 24.4432 29.9089 24.619 29.8705C24.8132 29.8281 25 29.976 25 30.1748V31.18C25 31.4563 24.8523 31.7126 24.5897 31.7986C24.4139 31.8561 24.2186 31.9041 24.0037 31.9424C23.7888 31.9808 23.5739 32 23.359 32C22.6166 32 22.0012 31.8273 21.5128 31.482C21.0372 31.1458 20.6913 30.5548 20.4751 29.7092C20.4648 29.6689 20.4286 29.6403 20.3869 29.6403C20.3579 29.6403 20.3307 29.6543 20.3135 29.6777C19.8477 30.3139 19.2316 30.8578 18.4652 31.3094C17.6838 31.7698 16.6777 32 15.4469 32ZM15.8571 29.8993C16.9707 29.8993 17.8498 29.7074 18.4945 29.3237C19.1587 28.9209 19.6374 28.3165 19.9304 27.5108C20.2234 26.705 20.37 25.7074 20.37 24.518V24.0576C20.37 22.1391 20.0476 20.6715 19.4029 19.6547C18.7582 18.6187 17.5665 18.1007 15.8278 18.1007C14.4408 18.1007 13.3956 18.6475 12.6923 19.741C12.0085 20.8153 11.6667 22.2638 11.6667 24.0863C11.6667 25.9281 12.0085 27.3573 12.6923 28.3741C13.3956 29.3909 14.4505 29.8993 15.8571 29.8993Z" fill="#7E796E"/>
<path d="M27 17H38V31H27" stroke="#7E796E" stroke-width="2" stroke-linecap="round" stroke-linejoin="round"/>
</svg>
