<svg width="48" height="48" viewBox="0 0 48 48" fill="none" xmlns="http://www.w3.org/2000/svg">
<path d="M23 8L23.8191 9.22869C24.5342 10.3013 24.5342 11.6987 23.8191 12.7713C23.2995 13.5508 23.1483 14.5191 23.4057 15.4199L24 17.5" stroke="#7E796E" stroke-width="2" stroke-linecap="round"/>
<path d="M9.40346 20.1833C12.7682 12.6063 21.8668 17.6378 23.976 17.6326V17.6379C26.2769 17.6379 35.2138 12.6193 38.5875 20.1852C42.2068 28.3019 44.355 39.5847 37.6262 39.9727C31.4733 39.3907 28.5779 33.7557 23.976 33.7557V33.7579C19.7576 33.7557 16.4986 39.4172 10.3622 40C3.6512 39.6114 5.79375 28.312 9.40346 20.1833Z" fill="#E4DDCD"/>
<circle cx="32.5" cy="23.5" r="1.5" fill="#7E796E"/>
<circle cx="32.5" cy="29.5" r="1.5" fill="#7E796E"/>
<circle cx="29.5" cy="26.5" r="1.5" fill="#7E796E"/>
<circle cx="35.5" cy="26.5" r="1.5" fill="#7E796E"/>
<rect x="14.5" y="22" width="2" height="9" rx="1" fill="#7E796E"/>
<rect x="20" y="25.5" width="2" height="9" rx="1" transform="rotate(90 20 25.5)" fill="#7E796E"/>
</svg>
