<svg width="48" height="48" viewBox="0 0 48 48" fill="none" xmlns="http://www.w3.org/2000/svg">
<rect x="6" y="7" width="36" height="26" rx="1" fill="#E4DDCD"/>
<mask id="path-2-inside-1_2512_78142" fill="white">
<rect x="11" y="37" width="26" height="4" rx="1"/>
</mask>
<rect x="11" y="37" width="26" height="4" rx="1" stroke="#E4DDCD" stroke-width="4" mask="url(#path-2-inside-1_2512_78142)"/>
<rect x="22" y="37" width="4" height="4" transform="rotate(-90 22 37)" fill="#E4DDCD"/>
<path d="M10 26.1481H17L20.5 22L24 26.1481L27.5 30L31 26.1481H38" stroke="#7E796E" stroke-width="2" stroke-linecap="round" stroke-linejoin="round"/>
<path d="M22.3281 16.2492V16.2592C22.3281 16.2659 22.3315 16.2692 22.3381 16.2692H23.9881C24.0481 16.2692 24.0781 16.2426 24.0781 16.1892V13.7692C24.0781 13.7626 24.0748 13.7592 24.0681 13.7592C24.0548 13.7592 24.0481 13.7626 24.0481 13.7692L22.3281 16.2492ZM21.3881 17.5992C21.2348 17.5992 21.1015 17.5426 20.9881 17.4292C20.8815 17.3159 20.8281 17.1826 20.8281 17.0292V16.8392C20.8281 16.4659 20.9381 16.1226 21.1581 15.8092L23.7481 12.1592C23.9681 11.8526 24.2648 11.6992 24.6381 11.6992H25.1381C25.2915 11.6992 25.4215 11.7559 25.5281 11.8692C25.6415 11.9826 25.6981 12.1159 25.6981 12.2692V16.1892C25.6981 16.2426 25.7281 16.2692 25.7881 16.2692H26.1881C26.3415 16.2692 26.4748 16.3259 26.5881 16.4392C26.7015 16.5526 26.7581 16.6859 26.7581 16.8392V17.0292C26.7581 17.1826 26.7015 17.3159 26.5881 17.4292C26.4748 17.5426 26.3415 17.5992 26.1881 17.5992H25.7881C25.7281 17.5992 25.6981 17.6292 25.6981 17.6892V18.4292C25.6981 18.5826 25.6415 18.7159 25.5281 18.8292C25.4215 18.9426 25.2915 18.9992 25.1381 18.9992H24.6381C24.4848 18.9992 24.3515 18.9426 24.2381 18.8292C24.1315 18.7159 24.0781 18.5826 24.0781 18.4292V17.6892C24.0781 17.6292 24.0481 17.5992 23.9881 17.5992H21.3881Z" fill="#504323"/>
<path d="M16.2236 16.2492V16.2592C16.2236 16.2659 16.227 16.2692 16.2336 16.2692H17.8836C17.9436 16.2692 17.9736 16.2426 17.9736 16.1892V13.7692C17.9736 13.7626 17.9703 13.7592 17.9636 13.7592C17.9503 13.7592 17.9436 13.7626 17.9436 13.7692L16.2236 16.2492ZM15.2836 17.5992C15.1303 17.5992 14.997 17.5426 14.8836 17.4292C14.777 17.3159 14.7236 17.1826 14.7236 17.0292V16.8392C14.7236 16.4659 14.8336 16.1226 15.0536 15.8092L17.6436 12.1592C17.8636 11.8526 18.1603 11.6992 18.5336 11.6992H19.0336C19.187 11.6992 19.317 11.7559 19.4236 11.8692C19.537 11.9826 19.5936 12.1159 19.5936 12.2692V16.1892C19.5936 16.2426 19.6236 16.2692 19.6836 16.2692H20.0836C20.237 16.2692 20.3703 16.3259 20.4836 16.4392C20.597 16.5526 20.6536 16.6859 20.6536 16.8392V17.0292C20.6536 17.1826 20.597 17.3159 20.4836 17.4292C20.3703 17.5426 20.237 17.5992 20.0836 17.5992H19.6836C19.6236 17.5992 19.5936 17.6292 19.5936 17.6892V18.4292C19.5936 18.5826 19.537 18.7159 19.4236 18.8292C19.317 18.9426 19.187 18.9992 19.0336 18.9992H18.5336C18.3803 18.9992 18.247 18.9426 18.1336 18.8292C18.027 18.7159 17.9736 18.5826 17.9736 18.4292V17.6892C17.9736 17.6292 17.9436 17.5992 17.8836 17.5992H15.2836Z" fill="#504323"/>
<path d="M10.95 14.6292C10.8567 14.7026 10.7567 14.7126 10.65 14.6592C10.55 14.6059 10.5 14.5192 10.5 14.3992V13.6692C10.5 13.2892 10.6533 12.9892 10.96 12.7692L11.97 12.0292C12.27 11.8092 12.6133 11.6992 13 11.6992H13.63C13.7833 11.6992 13.9167 11.7559 14.03 11.8692C14.1433 11.9826 14.2 12.1159 14.2 12.2692V18.4292C14.2 18.5826 14.1433 18.7159 14.03 18.8292C13.9167 18.9426 13.7833 18.9992 13.63 18.9992H13C12.8467 18.9992 12.7133 18.9426 12.6 18.8292C12.4867 18.7159 12.43 18.5826 12.43 18.4292V13.5692H12.42H12.41L10.95 14.6292Z" fill="#504323"/>
<path d="M33.2421 17.7438L34.8581 15.7678V15.7518C34.8581 15.7465 34.8554 15.7438 34.8501 15.7438H33.4101C33.2874 15.7438 33.1808 15.7012 33.0901 15.6158C32.9994 15.5252 32.9541 15.4185 32.9541 15.2958C32.9541 15.1732 32.9994 15.0665 33.0901 14.9758C33.1808 14.8852 33.2874 14.8398 33.4101 14.8398H36.0181C36.1408 14.8398 36.2474 14.8852 36.3381 14.9758C36.4288 15.0665 36.4741 15.1732 36.4741 15.2958C36.4741 15.5945 36.3781 15.8612 36.1861 16.0958L34.5701 18.0718V18.0878C34.5701 18.0932 34.5728 18.0958 34.5781 18.0958H36.0181C36.1408 18.0958 36.2474 18.1412 36.3381 18.2318C36.4288 18.3172 36.4741 18.4212 36.4741 18.5438C36.4741 18.6665 36.4288 18.7732 36.3381 18.8638C36.2474 18.9545 36.1408 18.9998 36.0181 18.9998H33.4101C33.2874 18.9998 33.1808 18.9545 33.0901 18.8638C32.9994 18.7732 32.9541 18.6665 32.9541 18.5438C32.9541 18.2452 33.0501 17.9785 33.2421 17.7438Z" fill="#504323"/>
<path d="M28.5644 19.0002C28.4417 19.0002 28.3351 18.9548 28.2444 18.8642C28.1537 18.7735 28.1084 18.6668 28.1084 18.5442V13.6162C28.1084 13.4935 28.1537 13.3868 28.2444 13.2962C28.3351 13.2055 28.4417 13.1602 28.5644 13.1602H29.0204C29.1431 13.1602 29.2471 13.2055 29.3324 13.2962C29.4231 13.3868 29.4684 13.4935 29.4684 13.6162V15.3762C29.4684 15.4242 29.4924 15.4482 29.5404 15.4482H31.1884C31.2364 15.4482 31.2604 15.4242 31.2604 15.3762V13.6162C31.2604 13.4935 31.3031 13.3868 31.3884 13.2962C31.4791 13.2055 31.5857 13.1602 31.7084 13.1602H32.1644C32.2871 13.1602 32.3937 13.2055 32.4844 13.2962C32.5751 13.3868 32.6204 13.4935 32.6204 13.6162V18.5442C32.6204 18.6668 32.5751 18.7735 32.4844 18.8642C32.3937 18.9548 32.2871 19.0002 32.1644 19.0002H31.7084C31.5857 19.0002 31.4791 18.9548 31.3884 18.8642C31.3031 18.7735 31.2604 18.6668 31.2604 18.5442V16.5442C31.2604 16.5015 31.2364 16.4802 31.1884 16.4802H29.5404C29.4924 16.4802 29.4684 16.5015 29.4684 16.5442V18.5442C29.4684 18.6668 29.4231 18.7735 29.3324 18.8642C29.2471 18.9548 29.1431 19.0002 29.0204 19.0002H28.5644Z" fill="#504323"/>
</svg>
