<svg width="48" height="48" viewBox="0 0 48 48" fill="none" xmlns="http://www.w3.org/2000/svg">
<path d="M7 8C7 7.44772 7.44772 7 8 7H40C40.5523 7 41 7.44772 41 8V40C41 40.5523 40.5523 41 40 41H8C7.44772 41 7 40.5523 7 40V8Z" fill="#E4DDCD"/>
<path d="M31.4938 20.976C31.0379 20.976 30.6773 21.108 30.4121 21.372C30.1551 21.636 30.0266 22 30.0266 22.464C30.0266 23.016 30.1551 23.432 30.4121 23.712C30.669 23.992 31.0296 24.132 31.4938 24.132C31.9497 24.132 32.3061 23.988 32.5631 23.7C32.8283 23.412 32.9609 23 32.9609 22.464C32.9609 22.016 32.8242 21.656 32.5506 21.384C32.2771 21.112 31.9248 20.976 31.4938 20.976ZM31.0586 25.5C30.0722 25.5 29.3138 25.244 28.7833 24.732C28.2611 24.22 28 23.476 28 22.5C28 21.58 28.3108 20.852 28.9325 20.316C29.5625 19.772 30.4162 19.5 31.4938 19.5C32.6128 19.5 33.4748 19.824 34.0799 20.472C34.6933 21.12 35 22.076 35 23.34C35 26.78 33.6448 28.5 30.9343 28.5C30.4784 28.5 30.0142 28.464 29.5417 28.392C29.3428 28.36 29.177 28.268 29.0444 28.116C28.9201 27.956 28.8579 27.776 28.8579 27.576V27.36C28.8579 27.192 28.9284 27.06 29.0693 26.964C29.2102 26.86 29.3677 26.828 29.5417 26.868C30.0142 26.972 30.4535 27.024 30.8597 27.024C31.4896 27.024 31.9828 26.852 32.3393 26.508C32.704 26.164 32.9029 25.66 32.9361 24.996C32.9361 24.988 32.9319 24.984 32.9236 24.984H32.9112C32.447 25.328 31.8295 25.5 31.0586 25.5Z" fill="#504323"/>
<path d="M15.4469 32C14.1575 32 13.0244 31.7026 12.0476 31.1079C11.0904 30.5132 10.3382 29.6307 9.79121 28.4604C9.26374 27.271 9 25.7938 9 24.0288C9 21.3813 9.58608 19.3861 10.7582 18.0432C11.9499 16.6811 13.5226 16 15.4762 16C16.6874 16 17.674 16.2206 18.4359 16.6619C19.203 17.095 19.8289 17.6206 20.3136 18.2386C20.3308 18.2605 20.357 18.2734 20.3848 18.2734C20.4273 18.2734 20.4641 18.2435 20.4727 18.2018L20.7033 17.0854C20.7993 16.6209 21.2083 16.2878 21.6826 16.2878H21.9194C22.4717 16.2878 22.9194 16.7355 22.9194 17.2878V28.3165C22.9194 28.9113 23.0366 29.3333 23.2711 29.5827C23.5055 29.8129 23.7888 29.9281 24.1209 29.9281C24.2772 29.9281 24.4432 29.9089 24.619 29.8705C24.8132 29.8281 25 29.976 25 30.1748V31.18C25 31.4563 24.8523 31.7126 24.5897 31.7986C24.4139 31.8561 24.2186 31.9041 24.0037 31.9424C23.7888 31.9808 23.5739 32 23.359 32C22.6166 32 22.0012 31.8273 21.5128 31.482C21.0372 31.1458 20.6913 30.5548 20.4751 29.7092C20.4648 29.6689 20.4286 29.6403 20.3869 29.6403C20.3579 29.6403 20.3307 29.6543 20.3135 29.6777C19.8477 30.3139 19.2316 30.8578 18.4652 31.3094C17.6838 31.7698 16.6777 32 15.4469 32ZM15.8571 29.8993C16.9707 29.8993 17.8498 29.7074 18.4945 29.3237C19.1587 28.9209 19.6374 28.3165 19.9304 27.5108C20.2234 26.705 20.37 25.7074 20.37 24.518V24.0576C20.37 22.1391 20.0476 20.6715 19.4029 19.6547C18.7582 18.6187 17.5665 18.1007 15.8278 18.1007C14.4408 18.1007 13.3956 18.6475 12.6923 19.741C12.0085 20.8153 11.6667 22.2638 11.6667 24.0863C11.6667 25.9281 12.0085 27.3573 12.6923 28.3741C13.3956 29.3909 14.4505 29.8993 15.8571 29.8993Z" fill="#7E796E"/>
<path d="M27 17H38V31H27" stroke="#7E796E" stroke-width="2" stroke-linecap="round" stroke-linejoin="round"/>
</svg>
