<svg width="48" height="48" viewBox="0 0 48 48" fill="none" xmlns="http://www.w3.org/2000/svg">
<rect x="6" y="7" width="36" height="26" rx="1" fill="#E4DDCD"/>
<mask id="path-2-inside-1_1014_70128" fill="white">
<rect x="11" y="37" width="26" height="4" rx="1"/>
</mask>
<rect x="11" y="37" width="26" height="4" rx="1" stroke="#E4DDCD" stroke-width="4" mask="url(#path-2-inside-1_1014_70128)"/>
<rect x="22" y="37" width="4" height="4" transform="rotate(-90 22 37)" fill="#E4DDCD"/>
<path d="M24.9208 25.0022C24.7368 25.0022 24.5768 24.9342 24.4408 24.7982C24.3048 24.6622 24.2368 24.5022 24.2368 24.3182V16.9262C24.2368 16.7422 24.3048 16.5822 24.4408 16.4462C24.5768 16.3102 24.7368 16.2422 24.9208 16.2422H25.6048C25.7888 16.2422 25.9448 16.3102 26.0728 16.4462C26.2088 16.5822 26.2768 16.7422 26.2768 16.9262V19.9862C26.2768 19.9942 26.2808 19.9982 26.2888 19.9982C26.3048 19.9982 26.3128 19.9942 26.3128 19.9862L28.3528 16.8182C28.5928 16.4342 28.9408 16.2422 29.3968 16.2422H30.4048C30.5488 16.2422 30.6528 16.3062 30.7168 16.4342C30.7808 16.5622 30.7728 16.6862 30.6928 16.8062L28.2568 20.3582C28.2168 20.4142 28.2168 20.4702 28.2568 20.5262L30.8248 24.4382C30.9048 24.5582 30.9088 24.6822 30.8368 24.8102C30.7728 24.9382 30.6688 25.0022 30.5248 25.0022H29.5168C29.0608 25.0022 28.7168 24.8102 28.4848 24.4262L26.3128 20.8982C26.3128 20.8902 26.3048 20.8862 26.2888 20.8862C26.2808 20.8862 26.2768 20.8902 26.2768 20.8982V24.3182C26.2768 24.5022 26.2088 24.6622 26.0728 24.7982C25.9448 24.9342 25.7888 25.0022 25.6048 25.0022H24.9208Z" fill="#504323"/>
<path d="M17.944 21.7022V21.7142C17.944 21.7222 17.948 21.7262 17.956 21.7262H19.936C20.008 21.7262 20.044 21.6942 20.044 21.6302V18.7262C20.044 18.7182 20.04 18.7142 20.032 18.7142C20.016 18.7142 20.008 18.7182 20.008 18.7262L17.944 21.7022ZM16.816 23.3222C16.632 23.3222 16.472 23.2542 16.336 23.1182C16.208 22.9822 16.144 22.8222 16.144 22.6382V22.4102C16.144 21.9622 16.276 21.5502 16.54 21.1742L19.648 16.7942C19.912 16.4262 20.268 16.2422 20.716 16.2422H21.316C21.5 16.2422 21.656 16.3102 21.784 16.4462C21.92 16.5822 21.988 16.7422 21.988 16.9262V21.6302C21.988 21.6942 22.024 21.7262 22.096 21.7262H22.576C22.76 21.7262 22.92 21.7942 23.056 21.9302C23.192 22.0662 23.26 22.2262 23.26 22.4102V22.6382C23.26 22.8222 23.192 22.9822 23.056 23.1182C22.92 23.2542 22.76 23.3222 22.576 23.3222H22.096C22.024 23.3222 21.988 23.3582 21.988 23.4302V24.3182C21.988 24.5022 21.92 24.6622 21.784 24.7982C21.656 24.9342 21.5 25.0022 21.316 25.0022H20.716C20.532 25.0022 20.372 24.9342 20.236 24.7982C20.108 24.6622 20.044 24.5022 20.044 24.3182V23.4302C20.044 23.3582 20.008 23.3222 19.936 23.3222H16.816Z" fill="#504323"/>
</svg>
