<svg width="48" height="48" viewBox="0 0 48 48" fill="none" xmlns="http://www.w3.org/2000/svg">
<rect x="9" y="13" width="30" height="22" rx="1" fill="#E4DDCD"/>
<path d="M35 10H41C41.5523 10 42 10.4477 42 11V17" stroke="#7E796E" stroke-width="2" stroke-linecap="round"/>
<path d="M35 38H41C41.5523 38 42 37.5523 42 37V31" stroke="#7E796E" stroke-width="2" stroke-linecap="round"/>
<path d="M13 10H7C6.44772 10 6 10.4477 6 11V17" stroke="#7E796E" stroke-width="2" stroke-linecap="round"/>
<path d="M13 38H7C6.44772 38 6 37.5523 6 37V31" stroke="#7E796E" stroke-width="2" stroke-linecap="round"/>
<path d="M25.6601 28.76C25.4761 28.76 25.3161 28.692 25.1801 28.556C25.0441 28.42 24.9761 28.26 24.9761 28.076V20.684C24.9761 20.5 25.0441 20.34 25.1801 20.204C25.3161 20.068 25.4761 20 25.6601 20H26.3441C26.5281 20 26.6841 20.068 26.8121 20.204C26.9481 20.34 27.0161 20.5 27.0161 20.684V23.744C27.0161 23.752 27.0201 23.756 27.0281 23.756C27.0441 23.756 27.0521 23.752 27.0521 23.744L29.0921 20.576C29.3321 20.192 29.6801 20 30.1361 20H31.1441C31.2881 20 31.3921 20.064 31.4561 20.192C31.5201 20.32 31.5121 20.444 31.4321 20.564L28.9961 24.116C28.9561 24.172 28.9561 24.228 28.9961 24.284L31.5641 28.196C31.6441 28.316 31.6481 28.44 31.5761 28.568C31.5121 28.696 31.4081 28.76 31.2641 28.76H30.2561C29.8001 28.76 29.4561 28.568 29.2241 28.184L27.0521 24.656C27.0521 24.648 27.0441 24.644 27.0281 24.644C27.0201 24.644 27.0161 24.648 27.0161 24.656V28.076C27.0161 28.26 26.9481 28.42 26.8121 28.556C26.6841 28.692 26.5281 28.76 26.3441 28.76H25.6601Z" fill="#504323"/>
<path d="M18.8034 25.46V25.472C18.8034 25.48 18.8074 25.484 18.8154 25.484H20.7954C20.8674 25.484 20.9034 25.452 20.9034 25.388V22.484C20.9034 22.476 20.8994 22.472 20.8914 22.472C20.8754 22.472 20.8674 22.476 20.8674 22.484L18.8034 25.46ZM17.6754 27.08C17.4914 27.08 17.3314 27.012 17.1954 26.876C17.0674 26.74 17.0034 26.58 17.0034 26.396V26.168C17.0034 25.72 17.1354 25.308 17.3994 24.932L20.5074 20.552C20.7714 20.184 21.1274 20 21.5754 20H22.1754C22.3594 20 22.5154 20.068 22.6434 20.204C22.7794 20.34 22.8474 20.5 22.8474 20.684V25.388C22.8474 25.452 22.8834 25.484 22.9554 25.484H23.4354C23.6194 25.484 23.7794 25.552 23.9154 25.688C24.0514 25.824 24.1194 25.984 24.1194 26.168V26.396C24.1194 26.58 24.0514 26.74 23.9154 26.876C23.7794 27.012 23.6194 27.08 23.4354 27.08H22.9554C22.8834 27.08 22.8474 27.116 22.8474 27.188V28.076C22.8474 28.26 22.7794 28.42 22.6434 28.556C22.5154 28.692 22.3594 28.76 22.1754 28.76H21.5754C21.3914 28.76 21.2314 28.692 21.0954 28.556C20.9674 28.42 20.9034 28.26 20.9034 28.076V27.188C20.9034 27.116 20.8674 27.08 20.7954 27.08H17.6754Z" fill="#504323"/>
</svg>
