<svg width="48" height="48" viewBox="0 0 48 48" fill="none" xmlns="http://www.w3.org/2000/svg">
<rect x="6" y="7" width="36" height="26" rx="1" fill="#E4DDCD"/>
<mask id="path-2-inside-1_7582_80819" fill="white">
<rect x="11" y="37" width="26" height="4" rx="1"/>
</mask>
<rect x="11" y="37" width="26" height="4" rx="1" stroke="#E4DDCD" stroke-width="4" mask="url(#path-2-inside-1_7582_80819)"/>
<rect x="22" y="37" width="4" height="4" transform="rotate(-90 22 37)" fill="#E4DDCD"/>
<path d="M13.2476 28.108C12.9036 28.108 12.6396 28.016 12.4556 27.832C12.2716 27.64 12.1796 27.372 12.1796 27.028V21.04C12.1796 20.688 12.2716 20.42 12.4556 20.236C12.6476 20.052 12.9156 19.96 13.2596 19.96H16.1996C17.1596 19.96 17.8876 20.168 18.3836 20.584C18.8796 20.992 19.1276 21.588 19.1276 22.372C19.1276 22.9 19.0116 23.344 18.7796 23.704C18.5476 24.064 18.2076 24.336 17.7596 24.52C17.3116 24.704 16.7716 24.796 16.1396 24.796L16.2236 24.58H16.7876C16.9636 24.58 17.1076 24.58 17.2196 24.58C17.3396 24.58 17.4436 24.604 17.5316 24.652C17.6276 24.7 17.7276 24.796 17.8316 24.94C17.9356 25.076 18.0676 25.288 18.2276 25.576L18.8516 26.728C18.9796 26.952 19.0356 27.172 19.0196 27.388C19.0116 27.596 18.9316 27.768 18.7796 27.904C18.6276 28.04 18.3956 28.108 18.0836 28.108C17.7876 28.108 17.5436 28.048 17.3516 27.928C17.1676 27.8 16.9996 27.604 16.8476 27.34L15.7436 25.312C15.6796 25.184 15.6236 25.088 15.5756 25.024C15.5276 24.952 15.4636 24.9 15.3836 24.868C15.3036 24.836 15.1756 24.82 14.9996 24.82H14.3036V27.028C14.3036 27.372 14.2116 27.64 14.0276 27.832C13.8516 28.016 13.5916 28.108 13.2476 28.108ZM14.3036 23.416H15.8156C16.2556 23.416 16.5796 23.344 16.7876 23.2C16.9956 23.056 17.0996 22.804 17.0996 22.444C17.0996 22.092 16.9956 21.844 16.7876 21.7C16.5796 21.548 16.2556 21.472 15.8156 21.472H14.3036V23.416ZM24.567 28.132C23.623 28.132 22.827 27.948 22.179 27.58C21.531 27.212 21.039 26.704 20.703 26.056C20.367 25.4 20.199 24.652 20.199 23.812C20.199 23.244 20.295 22.72 20.487 22.24C20.679 21.76 20.963 21.34 21.339 20.98C21.723 20.612 22.195 20.328 22.755 20.128C23.315 19.928 23.959 19.828 24.687 19.828C25.095 19.828 25.507 19.868 25.923 19.948C26.347 20.028 26.759 20.172 27.159 20.38C27.359 20.484 27.495 20.62 27.567 20.788C27.639 20.948 27.659 21.12 27.627 21.304C27.603 21.488 27.535 21.656 27.423 21.808C27.319 21.952 27.179 22.048 27.003 22.096C26.827 22.144 26.627 22.12 26.403 22.024C26.155 21.904 25.891 21.812 25.611 21.748C25.331 21.684 25.027 21.652 24.699 21.652C24.291 21.652 23.935 21.708 23.631 21.82C23.335 21.932 23.087 22.088 22.887 22.288C22.695 22.48 22.551 22.708 22.455 22.972C22.367 23.228 22.323 23.508 22.323 23.812C22.323 24.284 22.403 24.712 22.563 25.096C22.723 25.48 22.975 25.784 23.319 26.008C23.671 26.232 24.127 26.344 24.687 26.344C24.887 26.344 25.059 26.328 25.203 26.296C25.347 26.256 25.479 26.208 25.599 26.152C25.719 26.096 25.839 26.036 25.959 25.972C26.079 25.9 26.211 25.832 26.355 25.768L25.971 26.596C25.963 26.124 25.959 25.752 25.959 25.48C25.967 25.208 25.971 25.02 25.971 24.916C25.907 24.916 25.799 24.916 25.647 24.916C25.503 24.916 25.295 24.916 25.023 24.916C24.751 24.908 24.539 24.84 24.387 24.712C24.235 24.584 24.159 24.4 24.159 24.16C24.159 23.92 24.235 23.736 24.387 23.608C24.539 23.48 24.751 23.416 25.023 23.416H26.295C26.535 23.416 26.743 23.436 26.919 23.476C27.095 23.516 27.239 23.588 27.351 23.692C27.471 23.788 27.559 23.92 27.615 24.088C27.679 24.256 27.711 24.464 27.711 24.712V26.476C27.711 26.716 27.675 26.916 27.603 27.076C27.531 27.236 27.379 27.372 27.147 27.484C26.971 27.572 26.755 27.668 26.499 27.772C26.251 27.876 25.967 27.96 25.647 28.024C25.327 28.096 24.967 28.132 24.567 28.132ZM30.2233 28C29.8633 28 29.5873 27.908 29.3953 27.724C29.2113 27.532 29.1193 27.256 29.1193 26.896V21.064C29.1193 20.704 29.2113 20.432 29.3953 20.248C29.5873 20.056 29.8633 19.96 30.2233 19.96H33.0553C33.6633 19.96 34.1753 20.044 34.5913 20.212C35.0073 20.38 35.3193 20.612 35.5273 20.908C35.7433 21.204 35.8513 21.544 35.8513 21.928C35.8513 22.24 35.7873 22.532 35.6593 22.804C35.5393 23.068 35.3633 23.296 35.1313 23.488C34.9073 23.672 34.6313 23.804 34.3033 23.884V23.692C34.8793 23.796 35.3193 24.004 35.6233 24.316C35.9273 24.628 36.0793 25.056 36.0793 25.6C36.0793 26.344 35.8233 26.932 35.3113 27.364C34.8073 27.788 34.0953 28 33.1753 28H30.2233ZM31.1473 26.404H32.8873C33.3033 26.404 33.6073 26.328 33.7993 26.176C33.9913 26.024 34.0873 25.788 34.0873 25.468C34.0873 25.14 33.9913 24.908 33.7993 24.772C33.6073 24.636 33.3033 24.568 32.8873 24.568H31.1473V26.404ZM31.1473 23.068H32.6713C32.9433 23.068 33.1633 23.036 33.3313 22.972C33.5073 22.9 33.6353 22.804 33.7153 22.684C33.8033 22.556 33.8473 22.4 33.8473 22.216C33.8473 22.048 33.8073 21.908 33.7273 21.796C33.6473 21.676 33.5193 21.584 33.3433 21.52C33.1753 21.456 32.9513 21.424 32.6713 21.424H31.1473V23.068Z" fill="#504323"/>
<path d="M14.6042 17.072C14.3802 17.072 14.2096 17.008 14.0922 16.88C13.9749 16.752 13.9162 16.576 13.9162 16.352V13.688C13.9162 13.4587 13.9749 13.2853 14.0922 13.168C14.2096 13.0507 14.3749 12.992 14.5882 12.992C14.8016 12.992 14.9669 13.0507 15.0842 13.168C15.2016 13.2853 15.2602 13.4587 15.2602 13.688V14.136L15.1722 13.76C15.2789 13.5253 15.4442 13.336 15.6682 13.192C15.8922 13.048 16.1562 12.976 16.4602 12.976C16.7482 12.976 16.9936 13.048 17.1962 13.192C17.4042 13.3307 17.5536 13.544 17.6442 13.832H17.5322C17.6549 13.5653 17.8362 13.3573 18.0762 13.208C18.3216 13.0533 18.5962 12.976 18.9002 12.976C19.2042 12.976 19.4549 13.0373 19.6522 13.16C19.8549 13.2827 20.0042 13.4693 20.1002 13.72C20.1962 13.9653 20.2442 14.28 20.2442 14.664V16.352C20.2442 16.576 20.1829 16.752 20.0602 16.88C19.9429 17.008 19.7749 17.072 19.5562 17.072C19.3376 17.072 19.1669 17.008 19.0442 16.88C18.9269 16.752 18.8682 16.576 18.8682 16.352V14.704C18.8682 14.4693 18.8309 14.2987 18.7562 14.192C18.6869 14.0853 18.5669 14.032 18.3962 14.032C18.1989 14.032 18.0442 14.104 17.9322 14.248C17.8202 14.392 17.7642 14.5973 17.7642 14.864V16.352C17.7642 16.576 17.7056 16.752 17.5882 16.88C17.4709 17.008 17.3002 17.072 17.0762 17.072C16.8576 17.072 16.6869 17.008 16.5642 16.88C16.4469 16.752 16.3882 16.576 16.3882 16.352V14.704C16.3882 14.4693 16.3509 14.2987 16.2762 14.192C16.2069 14.0853 16.0896 14.032 15.9242 14.032C15.7216 14.032 15.5642 14.104 15.4522 14.248C15.3456 14.392 15.2922 14.5973 15.2922 14.864V16.352C15.2922 16.576 15.2336 16.752 15.1162 16.88C14.9989 17.008 14.8282 17.072 14.6042 17.072ZM21.6561 17.072C21.4374 17.072 21.2694 17.0053 21.1521 16.872C21.0348 16.7387 20.9761 16.552 20.9761 16.312V13.768C20.9761 13.5227 21.0348 13.3333 21.1521 13.2C21.2694 13.0613 21.4374 12.992 21.6561 12.992C21.8694 12.992 22.0348 13.0613 22.1521 13.2C22.2694 13.3333 22.3281 13.5227 22.3281 13.768V16.312C22.3281 16.552 22.2694 16.7387 22.1521 16.872C22.0401 17.0053 21.8748 17.072 21.6561 17.072ZM21.6561 12.576C21.4481 12.576 21.2721 12.504 21.1281 12.36C20.9841 12.216 20.9121 12.04 20.9121 11.832C20.9121 11.6187 20.9841 11.4427 21.1281 11.304C21.2721 11.16 21.4481 11.088 21.6561 11.088C21.8588 11.088 22.0321 11.16 22.1761 11.304C22.3254 11.4427 22.4001 11.6187 22.4001 11.832C22.4001 12.04 22.3254 12.216 22.1761 12.36C22.0321 12.504 21.8588 12.576 21.6561 12.576ZM25.1165 17.088C24.6792 17.088 24.2925 17.0053 23.9565 16.84C23.6259 16.6747 23.3672 16.4373 23.1805 16.128C22.9939 15.8133 22.9005 15.4453 22.9005 15.024C22.9005 14.704 22.9512 14.4187 23.0525 14.168C23.1592 13.9173 23.3112 13.704 23.5085 13.528C23.7059 13.3467 23.9405 13.2107 24.2125 13.12C24.4899 13.024 24.7912 12.976 25.1165 12.976C25.2765 12.976 25.4499 12.9973 25.6365 13.04C25.8232 13.0773 25.9992 13.144 26.1645 13.24C26.2979 13.3147 26.3885 13.4053 26.4365 13.512C26.4899 13.6133 26.5059 13.7147 26.4845 13.816C26.4632 13.9173 26.4179 14.008 26.3485 14.088C26.2792 14.1627 26.1912 14.2107 26.0845 14.232C25.9779 14.248 25.8605 14.224 25.7325 14.16C25.6472 14.112 25.5619 14.08 25.4765 14.064C25.3965 14.0427 25.3139 14.032 25.2285 14.032C25.0899 14.032 24.9592 14.056 24.8365 14.104C24.7192 14.1467 24.6125 14.2133 24.5165 14.304C24.4259 14.3893 24.3539 14.4933 24.3005 14.616C24.2472 14.7333 24.2205 14.8693 24.2205 15.024C24.2205 15.232 24.2632 15.4107 24.3485 15.56C24.4392 15.7093 24.5619 15.824 24.7165 15.904C24.8712 15.984 25.0419 16.024 25.2285 16.024C25.3139 16.024 25.4019 16.0133 25.4925 15.992C25.5832 15.9653 25.6765 15.9253 25.7725 15.872C25.8952 15.8133 26.0072 15.7973 26.1085 15.824C26.2099 15.8507 26.2925 15.904 26.3565 15.984C26.4259 16.064 26.4659 16.1547 26.4765 16.256C26.4925 16.3573 26.4765 16.4587 26.4285 16.56C26.3805 16.656 26.2925 16.7413 26.1645 16.816C25.9885 16.9227 25.8099 16.9947 25.6285 17.032C25.4472 17.0693 25.2765 17.088 25.1165 17.088ZM27.5965 17.072C27.3832 17.072 27.2152 17.0053 27.0925 16.872C26.9752 16.7387 26.9165 16.56 26.9165 16.336V13.72C26.9165 13.4907 26.9752 13.312 27.0925 13.184C27.2152 13.056 27.3752 12.992 27.5725 12.992C27.7912 12.992 27.9592 13.0587 28.0765 13.192C28.1939 13.32 28.2525 13.496 28.2525 13.72V14.064H28.1645C28.2019 13.872 28.2605 13.696 28.3405 13.536C28.4205 13.3707 28.5299 13.24 28.6685 13.144C28.8125 13.0427 28.9859 12.9893 29.1885 12.984C29.3165 12.9787 29.4232 13.0027 29.5085 13.056C29.5939 13.1093 29.6605 13.1787 29.7085 13.264C29.7619 13.344 29.7912 13.432 29.7965 13.528C29.8019 13.6187 29.7859 13.712 29.7485 13.808C29.7165 13.904 29.6605 13.9867 29.5805 14.056C29.5005 14.1253 29.3885 14.168 29.2445 14.184L29.0685 14.2C28.8605 14.2213 28.7005 14.2667 28.5885 14.336C28.4765 14.4 28.3992 14.4933 28.3565 14.616C28.3139 14.7333 28.2925 14.88 28.2925 15.056V16.336C28.2925 16.56 28.2339 16.7387 28.1165 16.872C27.9992 17.0053 27.8259 17.072 27.5965 17.072ZM32.1187 17.088C31.7081 17.088 31.3401 16.9973 31.0147 16.816C30.6894 16.6347 30.4334 16.3893 30.2467 16.08C30.0601 15.7707 29.9667 15.4213 29.9667 15.032C29.9667 14.7387 30.0201 14.4693 30.1267 14.224C30.2334 13.9733 30.3827 13.7547 30.5747 13.568C30.7721 13.3813 31.0014 13.2373 31.2627 13.136C31.5241 13.0293 31.8094 12.976 32.1187 12.976C32.5347 12.976 32.9027 13.0667 33.2227 13.248C33.5481 13.4293 33.8041 13.6747 33.9907 13.984C34.1827 14.2933 34.2787 14.6427 34.2787 15.032C34.2787 15.3253 34.2227 15.5973 34.1107 15.848C34.0041 16.0933 33.8547 16.312 33.6627 16.504C33.4707 16.6907 33.2414 16.8347 32.9747 16.936C32.7134 17.0373 32.4281 17.088 32.1187 17.088ZM32.1187 16.072C32.2734 16.072 32.4121 16.0293 32.5347 15.944C32.6627 15.8587 32.7641 15.7387 32.8387 15.584C32.9134 15.424 32.9507 15.24 32.9507 15.032C32.9507 14.8187 32.9134 14.6347 32.8387 14.48C32.7641 14.3253 32.6627 14.2053 32.5347 14.12C32.4121 14.0347 32.2734 13.992 32.1187 13.992C31.9694 13.992 31.8307 14.0347 31.7027 14.12C31.5747 14.2053 31.4734 14.3253 31.3987 14.48C31.3241 14.6347 31.2867 14.8187 31.2867 15.032C31.2867 15.24 31.3241 15.424 31.3987 15.584C31.4734 15.7387 31.5747 15.8587 31.7027 15.944C31.8307 16.0293 31.9694 16.072 32.1187 16.072Z" fill="#504323"/>
</svg>
