<svg width="48" height="48" viewBox="0 0 48 48" fill="none" xmlns="http://www.w3.org/2000/svg">
<rect x="6" y="7" width="36" height="26" rx="1" fill="#E4DDCD"/>
<mask id="path-2-inside-1_7582_80832" fill="white">
<rect x="11" y="37" width="26" height="4" rx="1"/>
</mask>
<rect x="11" y="37" width="26" height="4" rx="1" stroke="#E4DDCD" stroke-width="4" mask="url(#path-2-inside-1_7582_80832)"/>
<rect x="22" y="37" width="4" height="4" transform="rotate(-90 22 37)" fill="#E4DDCD"/>
<path d="M13.2476 28.108C12.9036 28.108 12.6396 28.016 12.4556 27.832C12.2716 27.64 12.1796 27.372 12.1796 27.028V21.04C12.1796 20.688 12.2716 20.42 12.4556 20.236C12.6476 20.052 12.9156 19.96 13.2596 19.96H16.1996C17.1596 19.96 17.8876 20.168 18.3836 20.584C18.8796 20.992 19.1276 21.588 19.1276 22.372C19.1276 22.9 19.0116 23.344 18.7796 23.704C18.5476 24.064 18.2076 24.336 17.7596 24.52C17.3116 24.704 16.7716 24.796 16.1396 24.796L16.2236 24.58H16.7876C16.9636 24.58 17.1076 24.58 17.2196 24.58C17.3396 24.58 17.4436 24.604 17.5316 24.652C17.6276 24.7 17.7276 24.796 17.8316 24.94C17.9356 25.076 18.0676 25.288 18.2276 25.576L18.8516 26.728C18.9796 26.952 19.0356 27.172 19.0196 27.388C19.0116 27.596 18.9316 27.768 18.7796 27.904C18.6276 28.04 18.3956 28.108 18.0836 28.108C17.7876 28.108 17.5436 28.048 17.3516 27.928C17.1676 27.8 16.9996 27.604 16.8476 27.34L15.7436 25.312C15.6796 25.184 15.6236 25.088 15.5756 25.024C15.5276 24.952 15.4636 24.9 15.3836 24.868C15.3036 24.836 15.1756 24.82 14.9996 24.82H14.3036V27.028C14.3036 27.372 14.2116 27.64 14.0276 27.832C13.8516 28.016 13.5916 28.108 13.2476 28.108ZM14.3036 23.416H15.8156C16.2556 23.416 16.5796 23.344 16.7876 23.2C16.9956 23.056 17.0996 22.804 17.0996 22.444C17.0996 22.092 16.9956 21.844 16.7876 21.7C16.5796 21.548 16.2556 21.472 15.8156 21.472H14.3036V23.416ZM24.567 28.132C23.623 28.132 22.827 27.948 22.179 27.58C21.531 27.212 21.039 26.704 20.703 26.056C20.367 25.4 20.199 24.652 20.199 23.812C20.199 23.244 20.295 22.72 20.487 22.24C20.679 21.76 20.963 21.34 21.339 20.98C21.723 20.612 22.195 20.328 22.755 20.128C23.315 19.928 23.959 19.828 24.687 19.828C25.095 19.828 25.507 19.868 25.923 19.948C26.347 20.028 26.759 20.172 27.159 20.38C27.359 20.484 27.495 20.62 27.567 20.788C27.639 20.948 27.659 21.12 27.627 21.304C27.603 21.488 27.535 21.656 27.423 21.808C27.319 21.952 27.179 22.048 27.003 22.096C26.827 22.144 26.627 22.12 26.403 22.024C26.155 21.904 25.891 21.812 25.611 21.748C25.331 21.684 25.027 21.652 24.699 21.652C24.291 21.652 23.935 21.708 23.631 21.82C23.335 21.932 23.087 22.088 22.887 22.288C22.695 22.48 22.551 22.708 22.455 22.972C22.367 23.228 22.323 23.508 22.323 23.812C22.323 24.284 22.403 24.712 22.563 25.096C22.723 25.48 22.975 25.784 23.319 26.008C23.671 26.232 24.127 26.344 24.687 26.344C24.887 26.344 25.059 26.328 25.203 26.296C25.347 26.256 25.479 26.208 25.599 26.152C25.719 26.096 25.839 26.036 25.959 25.972C26.079 25.9 26.211 25.832 26.355 25.768L25.971 26.596C25.963 26.124 25.959 25.752 25.959 25.48C25.967 25.208 25.971 25.02 25.971 24.916C25.907 24.916 25.799 24.916 25.647 24.916C25.503 24.916 25.295 24.916 25.023 24.916C24.751 24.908 24.539 24.84 24.387 24.712C24.235 24.584 24.159 24.4 24.159 24.16C24.159 23.92 24.235 23.736 24.387 23.608C24.539 23.48 24.751 23.416 25.023 23.416H26.295C26.535 23.416 26.743 23.436 26.919 23.476C27.095 23.516 27.239 23.588 27.351 23.692C27.471 23.788 27.559 23.92 27.615 24.088C27.679 24.256 27.711 24.464 27.711 24.712V26.476C27.711 26.716 27.675 26.916 27.603 27.076C27.531 27.236 27.379 27.372 27.147 27.484C26.971 27.572 26.755 27.668 26.499 27.772C26.251 27.876 25.967 27.96 25.647 28.024C25.327 28.096 24.967 28.132 24.567 28.132ZM30.2233 28C29.8633 28 29.5873 27.908 29.3953 27.724C29.2113 27.532 29.1193 27.256 29.1193 26.896V21.064C29.1193 20.704 29.2113 20.432 29.3953 20.248C29.5873 20.056 29.8633 19.96 30.2233 19.96H33.0553C33.6633 19.96 34.1753 20.044 34.5913 20.212C35.0073 20.38 35.3193 20.612 35.5273 20.908C35.7433 21.204 35.8513 21.544 35.8513 21.928C35.8513 22.24 35.7873 22.532 35.6593 22.804C35.5393 23.068 35.3633 23.296 35.1313 23.488C34.9073 23.672 34.6313 23.804 34.3033 23.884V23.692C34.8793 23.796 35.3193 24.004 35.6233 24.316C35.9273 24.628 36.0793 25.056 36.0793 25.6C36.0793 26.344 35.8233 26.932 35.3113 27.364C34.8073 27.788 34.0953 28 33.1753 28H30.2233ZM31.1473 26.404H32.8873C33.3033 26.404 33.6073 26.328 33.7993 26.176C33.9913 26.024 34.0873 25.788 34.0873 25.468C34.0873 25.14 33.9913 24.908 33.7993 24.772C33.6073 24.636 33.3033 24.568 32.8873 24.568H31.1473V26.404ZM31.1473 23.068H32.6713C32.9433 23.068 33.1633 23.036 33.3313 22.972C33.5073 22.9 33.6353 22.804 33.7153 22.684C33.8033 22.556 33.8473 22.4 33.8473 22.216C33.8473 22.048 33.8073 21.908 33.7273 21.796C33.6473 21.676 33.5193 21.584 33.3433 21.52C33.1753 21.456 32.9513 21.424 32.6713 21.424H31.1473V23.068Z" fill="#504323"/>
<path d="M17.5916 17.072C17.3676 17.072 17.1969 17.008 17.0796 16.88C16.9622 16.752 16.9036 16.576 16.9036 16.352V13.688C16.9036 13.4587 16.9622 13.2853 17.0796 13.168C17.1969 13.0507 17.3622 12.992 17.5756 12.992C17.7889 12.992 17.9542 13.0507 18.0716 13.168C18.1889 13.2853 18.2476 13.4587 18.2476 13.688V14.136L18.1596 13.76C18.2662 13.5253 18.4316 13.336 18.6556 13.192C18.8796 13.048 19.1436 12.976 19.4476 12.976C19.7356 12.976 19.9809 13.048 20.1836 13.192C20.3916 13.3307 20.5409 13.544 20.6316 13.832H20.5196C20.6422 13.5653 20.8236 13.3573 21.0636 13.208C21.3089 13.0533 21.5836 12.976 21.8876 12.976C22.1916 12.976 22.4422 13.0373 22.6396 13.16C22.8422 13.2827 22.9916 13.4693 23.0876 13.72C23.1836 13.9653 23.2316 14.28 23.2316 14.664V16.352C23.2316 16.576 23.1702 16.752 23.0476 16.88C22.9302 17.008 22.7622 17.072 22.5436 17.072C22.3249 17.072 22.1542 17.008 22.0316 16.88C21.9142 16.752 21.8556 16.576 21.8556 16.352V14.704C21.8556 14.4693 21.8182 14.2987 21.7436 14.192C21.6742 14.0853 21.5542 14.032 21.3836 14.032C21.1862 14.032 21.0316 14.104 20.9196 14.248C20.8076 14.392 20.7516 14.5973 20.7516 14.864V16.352C20.7516 16.576 20.6929 16.752 20.5756 16.88C20.4582 17.008 20.2876 17.072 20.0636 17.072C19.8449 17.072 19.6742 17.008 19.5516 16.88C19.4342 16.752 19.3756 16.576 19.3756 16.352V14.704C19.3756 14.4693 19.3382 14.2987 19.2636 14.192C19.1942 14.0853 19.0769 14.032 18.9116 14.032C18.7089 14.032 18.5516 14.104 18.4396 14.248C18.3329 14.392 18.2796 14.5973 18.2796 14.864V16.352C18.2796 16.576 18.2209 16.752 18.1036 16.88C17.9862 17.008 17.8156 17.072 17.5916 17.072ZM24.6434 17.072C24.4248 17.072 24.2568 17.0053 24.1394 16.872C24.0221 16.7387 23.9634 16.552 23.9634 16.312V13.768C23.9634 13.5227 24.0221 13.3333 24.1394 13.2C24.2568 13.0613 24.4248 12.992 24.6434 12.992C24.8568 12.992 25.0221 13.0613 25.1394 13.2C25.2568 13.3333 25.3154 13.5227 25.3154 13.768V16.312C25.3154 16.552 25.2568 16.7387 25.1394 16.872C25.0274 17.0053 24.8621 17.072 24.6434 17.072ZM24.6434 12.576C24.4354 12.576 24.2594 12.504 24.1154 12.36C23.9714 12.216 23.8994 12.04 23.8994 11.832C23.8994 11.6187 23.9714 11.4427 24.1154 11.304C24.2594 11.16 24.4354 11.088 24.6434 11.088C24.8461 11.088 25.0194 11.16 25.1634 11.304C25.3128 11.4427 25.3874 11.6187 25.3874 11.832C25.3874 12.04 25.3128 12.216 25.1634 12.36C25.0194 12.504 24.8461 12.576 24.6434 12.576ZM26.7519 17.072C26.5332 17.072 26.3625 17.008 26.2399 16.88C26.1172 16.752 26.0559 16.5787 26.0559 16.36V13.688C26.0559 13.4587 26.1145 13.2853 26.2319 13.168C26.3545 13.0507 26.5252 12.992 26.7439 12.992C26.9572 12.992 27.1199 13.0507 27.2319 13.168C27.3439 13.2853 27.3999 13.4587 27.3999 13.688V14.08L27.3119 13.76C27.4399 13.5093 27.6212 13.3173 27.8559 13.184C28.0959 13.0453 28.3679 12.976 28.6719 12.976C28.9865 12.976 29.2452 13.0373 29.4479 13.16C29.6505 13.2827 29.8025 13.4693 29.9039 13.72C30.0052 13.9653 30.0559 14.28 30.0559 14.664V16.36C30.0559 16.5787 29.9972 16.752 29.8799 16.88C29.7625 17.008 29.5919 17.072 29.3679 17.072C29.1492 17.072 28.9785 17.008 28.8559 16.88C28.7385 16.752 28.6799 16.5787 28.6799 16.36V14.72C28.6799 14.4747 28.6372 14.2987 28.5519 14.192C28.4665 14.0853 28.3385 14.032 28.1679 14.032C27.9439 14.032 27.7652 14.104 27.6319 14.248C27.4985 14.3867 27.4319 14.576 27.4319 14.816V16.36C27.4319 16.5787 27.3759 16.752 27.2639 16.88C27.1519 17.008 26.9812 17.072 26.7519 17.072ZM31.46 17.072C31.2413 17.072 31.0733 17.0053 30.956 16.872C30.8387 16.7387 30.78 16.552 30.78 16.312V13.768C30.78 13.5227 30.8387 13.3333 30.956 13.2C31.0733 13.0613 31.2413 12.992 31.46 12.992C31.6733 12.992 31.8387 13.0613 31.956 13.2C32.0733 13.3333 32.132 13.5227 32.132 13.768V16.312C32.132 16.552 32.0733 16.7387 31.956 16.872C31.844 17.0053 31.6787 17.072 31.46 17.072ZM31.46 12.576C31.252 12.576 31.076 12.504 30.932 12.36C30.788 12.216 30.716 12.04 30.716 11.832C30.716 11.6187 30.788 11.4427 30.932 11.304C31.076 11.16 31.252 11.088 31.46 11.088C31.6627 11.088 31.836 11.16 31.98 11.304C32.1293 11.4427 32.204 11.6187 32.204 11.832C32.204 12.04 32.1293 12.216 31.98 12.36C31.836 12.504 31.6627 12.576 31.46 12.576Z" fill="#504323"/>
</svg>
