<svg width="48" height="48" viewBox="0 0 48 48" fill="none" xmlns="http://www.w3.org/2000/svg">
<path d="M9.62724 14.7274C9.74917 14.297 10.1421 14 10.5894 14H37.4106C37.8579 14 38.2508 14.297 38.3728 14.7274L40.6394 22.7274C40.8203 23.3657 40.3408 24 39.6773 24H8.3227C7.65923 24 7.17971 23.3657 7.36057 22.7274L9.62724 14.7274Z" fill="#D5CDBA"/>
<rect x="7" y="22" width="34" height="18" rx="1" fill="#E4DDCD"/>
<rect x="21" y="24.002" width="6" height="2" rx="1" fill="#7E796E"/>
<path d="M23.0078 7L24.0005 8.12488L24.9932 7" stroke="#7E796E" stroke-width="2" stroke-linecap="round" stroke-linejoin="round"/>
<path d="M23.9297 8.5V17.874" stroke="#7E796E" stroke-width="2" stroke-linecap="round" stroke-linejoin="round"/>
<path d="M25 19L24.0073 17.8751L23.0146 19" stroke="#7E796E" stroke-width="2" stroke-linecap="round" stroke-linejoin="round"/>
<path d="M23.0078 7L24.0005 8.12488L24.9932 7" stroke="#7E796E" stroke-width="2" stroke-linecap="round" stroke-linejoin="round"/>
<path d="M23.9297 8.5V17.874" stroke="#7E796E" stroke-width="2" stroke-linecap="round" stroke-linejoin="round"/>
<path d="M25 19L24.0073 17.8751L23.0146 19" stroke="#7E796E" stroke-width="2" stroke-linecap="round" stroke-linejoin="round"/>
<path d="M29.0078 9.1875L28.4725 10.5618L30.0005 10.8111" stroke="#7E796E" stroke-width="2" stroke-linecap="round" stroke-linejoin="round"/>
<path d="M28.0938 10.6875L19.4969 15.3745" stroke="#7E796E" stroke-width="2" stroke-linecap="round" stroke-linejoin="round"/>
<path d="M19 16.8125L19.5353 15.4382L18.0073 15.1889" stroke="#7E796E" stroke-width="2" stroke-linecap="round" stroke-linejoin="round"/>
<path d="M30 15.1875L28.472 15.4369L29.0073 16.8111" stroke="#7E796E" stroke-width="2" stroke-linecap="round" stroke-linejoin="round"/>
<path d="M28.1641 15.1875L19.5672 10.5005" stroke="#7E796E" stroke-width="2" stroke-linecap="round" stroke-linejoin="round"/>
<path d="M18 10.8125L19.528 10.5631L18.9927 9.18888" stroke="#7E796E" stroke-width="2" stroke-linecap="round" stroke-linejoin="round"/>
</svg>
