<svg width="48" height="48" viewBox="0 0 48 48" fill="none" xmlns="http://www.w3.org/2000/svg">
<path d="M37 30C37.5523 30 38 30.4477 38 31V39C38 39.5523 37.5523 40 37 40H9C8.44772 40 8 39.5523 8 39V31C8 30.4477 8.44772 30 9 30H17L19 32H27L29 30H37Z" fill="#E4DDCD"/>
<path d="M37 19C37.5523 19 38 19.4477 38 20V28C38 28.5523 37.5523 29 37 29H9C8.44772 29 8 28.5523 8 28V20C8 19.4477 8.44772 19 9 19H17L19 21H27L29 19H37Z" fill="#E4DDCD"/>
<path d="M37 8C37.5523 8 38 8.44772 38 9V17C38 17.5523 37.5523 18 37 18H9C8.44772 18 8 17.5523 8 17V9C8 8.44772 8.44772 8 9 8H17L19 10H27L29 8H37Z" fill="#E4DDCD"/>
<path d="M41 25H43" stroke="#7E796E" stroke-width="2" stroke-linecap="round"/>
<path d="M41 33H43" stroke="#7E796E" stroke-width="2" stroke-linecap="round"/>
<path d="M41 29H43" stroke="#7E796E" stroke-width="2" stroke-linecap="round"/>
<path d="M37 22C38.1046 22 39 22.8954 39 24V34.5361C40.1954 35.2278 41 36.5196 41 38C41 40.2091 39.2091 42 37 42C34.7909 42 33 40.2091 33 38C33 36.5196 33.8046 35.2278 35 34.5361V24C35 22.8954 35.8954 22 37 22Z" fill="#7E796E"/>
<path d="M37 30C37.4142 30 37.75 30.3358 37.75 30.75V36.1465C38.4828 36.4433 39 37.1608 39 38C39 39.1046 38.1046 40 37 40C35.8954 40 35 39.1046 35 38C35 37.1608 35.5172 36.4433 36.25 36.1465V30.75C36.25 30.3358 36.5858 30 37 30Z" fill="#EFEBE1"/>
</svg>
