<svg width="48" height="48" viewBox="0 0 48 48" fill="none" xmlns="http://www.w3.org/2000/svg">
<path d="M11.0843 11.8678C11.1505 11.371 11.5743 11 12.0755 11H35.9245C36.4257 11 36.8495 11.371 36.9157 11.8678L39.849 33.8678C39.929 34.4673 39.4626 35 38.8578 35H9.14218C8.53739 35 8.07102 34.4673 8.15096 33.8678L11.0843 11.8678Z" fill="#E4DDCD"/>
<path d="M13 17.5L19 14" stroke="#7E796E" stroke-width="2" stroke-linecap="round"/>
<path d="M17 23.5L23 20" stroke="#7E796E" stroke-width="2" stroke-linecap="round"/>
<path d="M13 21.5L24 15" stroke="#7E796E" stroke-width="2" stroke-linecap="round"/>
<path d="M6.43874 34.3162C6.2229 33.6687 6.70487 33 7.38743 33H40.6126C41.2951 33 41.7771 33.6687 41.5613 34.3162L40.2279 38.3162C40.0918 38.7246 39.7097 39 39.2792 39H8.72076C8.29033 39 7.90819 38.7246 7.77208 38.3162L6.43874 34.3162Z" fill="#7E796E"/>
<path d="M22 35H26" stroke="white" stroke-width="2" stroke-linecap="round"/>
<path d="M35.0256 6.42445C35.1775 5.96843 35.8225 5.96843 35.9744 6.42445L36.643 8.4322C36.689 8.5702 36.7928 8.68135 36.9273 8.73666L38.8752 9.53756C39.2884 9.70743 39.2884 10.2926 38.8752 10.4624L36.9273 11.2633C36.7928 11.3187 36.689 11.4298 36.643 11.5678L35.9744 13.5756C35.8225 14.0316 35.1775 14.0316 35.0256 13.5755L34.357 11.5678C34.311 11.4298 34.2072 11.3187 34.0727 11.2633L32.1248 10.4624C31.7116 10.2926 31.7116 9.70743 32.1248 9.53756L34.0727 8.73666C34.2072 8.68135 34.311 8.5702 34.357 8.4322L35.0256 6.42445Z" fill="#7E796E"/>
<path d="M39.1195 12.1753C39.2389 11.8063 39.7611 11.8063 39.8805 12.1753L40.389 13.7457C40.4248 13.8561 40.5068 13.9456 40.6137 13.9909L42.1288 14.6316C42.4544 14.7693 42.4544 15.2307 42.1288 15.3684L40.6137 16.0091C40.5068 16.0544 40.4248 16.1439 40.389 16.2543L39.8805 17.8247C39.7611 18.1937 39.2389 18.1937 39.1195 17.8247L38.611 16.2543C38.5752 16.1439 38.4932 16.0544 38.3863 16.0091L36.8712 15.3684C36.5456 15.2307 36.5456 14.7693 36.8712 14.6316L38.3863 13.9909C38.4932 13.9456 38.5752 13.8561 38.611 13.7457L39.1195 12.1753Z" fill="#7E796E"/>
</svg>
