<svg width="48" height="48" viewBox="0 0 48 48" fill="none" xmlns="http://www.w3.org/2000/svg">
<path d="M9.52567 16.7274C9.64761 16.297 10.0405 16 10.4878 16H37.3091C37.7564 16 38.1493 16.297 38.2712 16.7274L40.5379 24.7274C40.7187 25.3657 40.2392 26 39.5757 26H8.22113C7.55767 26 7.07815 25.3657 7.25901 24.7274L9.52567 16.7274Z" fill="#D5CDBA"/>
<rect x="6.89844" y="24" width="34" height="18" rx="1" fill="#E4DDCD"/>
<rect x="20.8984" y="26" width="6" height="2" rx="1" fill="#7E796E"/>
<path d="M36.3175 6.04666C36.4384 5.95202 36.6271 6.00818 36.66 6.15818C37.3167 9.14913 36.7918 14.601 32.8682 16.8154C30.0293 18.4175 26.8353 17.5682 25.458 17.0234C25.4021 17.0013 25.3768 16.9368 25.3992 16.8811C25.8322 15.8041 26.5385 15.0142 27.3145 14.4424C28.4858 13.5794 29.8161 13.2153 30.5918 13.1455C30.8468 13.1226 31.0357 12.9002 31.0127 12.6484C30.9895 12.3967 30.7637 12.2107 30.5088 12.2334C29.5838 12.3164 28.0848 12.7317 26.7598 13.708C25.9998 14.268 25.2971 15.0136 24.7949 15.9823C24.721 16.125 24.5186 16.1367 24.4461 15.9933C22.9502 13.0343 24.5196 8.11426 29.1592 8.11426C33.2786 8.11425 35.5824 6.62195 36.3175 6.04666Z" fill="#7E796E"/>
<path d="M11.4792 10.3825C11.3584 10.2879 11.1699 10.3435 11.137 10.4933C10.48 13.4841 11.0042 18.9368 14.9287 21.1514C17.768 22.7535 20.9626 21.9042 22.3398 21.3594C22.6167 21.2499 22.8641 21.0752 23.0459 20.8421C23.0904 20.7851 23.094 20.7071 23.0595 20.6435C22.63 19.8525 22.0454 19.2425 21.4141 18.7773C20.2425 17.9143 18.9115 17.5511 18.1357 17.4814C17.8808 17.4585 17.6929 17.2361 17.7158 16.9844C17.739 16.7327 17.964 16.5469 18.2188 16.5693C19.1437 16.6524 20.6436 17.0668 21.9688 18.043C22.4737 18.415 22.9531 18.8695 23.3654 19.4165C23.4651 19.5488 23.6744 19.5205 23.7165 19.3603C24.4915 16.409 22.7997 12.4502 18.6377 12.4502C14.5179 12.4501 12.2142 10.9577 11.4792 10.3825Z" fill="#7E796E"/>
</svg>
