<svg width="48" height="48" viewBox="0 0 48 48" fill="none" xmlns="http://www.w3.org/2000/svg">
<path d="M10 6C10 5.44772 10.4477 5 11 5H37C37.5523 5 38 5.44772 38 6V24C38 24.5523 37.5523 25 37 25H11C10.4477 25 10 24.5523 10 24V6Z" fill="#E4DDCD"/>
<rect x="10" y="26" width="28" height="16" rx="1" fill="#E4DDCD"/>
<path d="M23.1875 29L24.0177 29.9577L24.8479 29" stroke="#7E796E" stroke-width="2" stroke-linecap="round" stroke-linejoin="round"/>
<path d="M23.9531 30.2734V38.2545" stroke="#7E796E" stroke-width="2" stroke-linecap="round" stroke-linejoin="round"/>
<path d="M24.8516 39.2188L24.0213 38.261L23.1911 39.2187" stroke="#7E796E" stroke-width="2" stroke-linecap="round" stroke-linejoin="round"/>
<path d="M23.1875 29L24.0177 29.9577L24.8479 29" stroke="#7E796E" stroke-width="2" stroke-linecap="round" stroke-linejoin="round"/>
<path d="M23.9531 30.2734V38.2545" stroke="#7E796E" stroke-width="2" stroke-linecap="round" stroke-linejoin="round"/>
<path d="M24.8516 39.2188L24.0213 38.261L23.1911 39.2187" stroke="#7E796E" stroke-width="2" stroke-linecap="round" stroke-linejoin="round"/>
<path d="M28.2031 30.8594L27.7554 32.0294L29.0333 32.2417" stroke="#7E796E" stroke-width="2" stroke-linecap="round" stroke-linejoin="round"/>
<path d="M27.4375 32.1406L20.2475 36.1312" stroke="#7E796E" stroke-width="2" stroke-linecap="round" stroke-linejoin="round"/>
<path d="M19.8359 37.3516L20.2836 36.1815L19.0057 35.9692" stroke="#7E796E" stroke-width="2" stroke-linecap="round" stroke-linejoin="round"/>
<path d="M29.0391 35.9766L27.7612 36.1889L28.2088 37.3589" stroke="#7E796E" stroke-width="2" stroke-linecap="round" stroke-linejoin="round"/>
<path d="M27.5 35.9766L20.31 31.986" stroke="#7E796E" stroke-width="2" stroke-linecap="round" stroke-linejoin="round"/>
<path d="M19 32.25L20.2779 32.0377L19.8302 30.8676" stroke="#7E796E" stroke-width="2" stroke-linecap="round" stroke-linejoin="round"/>
<path d="M26.2108 8.88886C26.4381 8.55996 26.7612 8.30362 27.1393 8.15224C27.5173 8.00087 27.9333 7.96126 28.3347 8.03843C28.736 8.1156 29.1047 8.30608 29.394 8.58579C29.6834 8.86549 29.8804 9.22186 29.9602 9.60982C30.0401 9.99778 29.9991 10.3999 29.8425 10.7654C29.6859 11.1308 29.4207 11.4432 29.0805 11.6629C28.7402 11.8827 28.3402 12 27.931 12L20 12" stroke="#7E796E" stroke-width="2" stroke-linecap="round"/>
<path d="M24.2108 21.1111C24.4381 21.44 24.7612 21.6964 25.1393 21.8478C25.5173 21.9991 25.9333 22.0387 26.3347 21.9616C26.736 21.8844 27.1047 21.6939 27.394 21.4142C27.6834 21.1345 27.8804 20.7781 27.9602 20.3902C28.0401 20.0022 27.9991 19.6001 27.8425 19.2346C27.6859 18.8692 27.4207 18.5568 27.0805 18.3371C26.7402 18.1173 26.3402 18 25.931 18L19 18" stroke="#7E796E" stroke-width="2" stroke-linecap="round"/>
<path d="M17 15L26 15" stroke="#7E796E" stroke-width="2" stroke-linecap="round"/>
</svg>
