<svg width="48" height="48" viewBox="0 0 48 48" fill="none" xmlns="http://www.w3.org/2000/svg">
<path d="M8.84705 9.17899C8.93574 8.70602 9.34871 8.36328 9.82993 8.36328H38.1701C38.6513 8.36328 39.0643 8.70602 39.1529 9.17899L41.7779 23.179C41.8933 23.7944 41.4212 24.3633 40.7951 24.3633H7.20493C6.57879 24.3633 6.10666 23.7944 6.22205 23.179L8.84705 9.17899Z" fill="#E4DDCD"/>
<path d="M6.51823 26.1406C6.29671 25.8084 6.53491 25.3633 6.93426 25.3633H41.0657C41.4651 25.3633 41.7033 25.8084 41.4818 26.1406L40.1484 28.1406C40.0557 28.2797 39.8996 28.3633 39.7324 28.3633H8.26759C8.10041 28.3633 7.9443 28.2797 7.85157 28.1406L6.51823 26.1406Z" fill="#E4DDCD"/>
<path d="M24.0696 31.3633V41.8633M24.0696 41.8633L26 39.7833M24.0696 41.8633L22 39.7834" stroke="#7E796E" stroke-width="2" stroke-linecap="round" stroke-linejoin="round"/>
<path d="M17.9887 31.3633C18.0984 33.6815 17.4543 38.7269 14 40.3633" stroke="#7E796E" stroke-width="2" stroke-linecap="round"/>
<path d="M16.3559 41.0654L13.5277 41.2985L13.4032 38.367" stroke="#7E796E" stroke-width="2" stroke-linecap="round" stroke-linejoin="round"/>
<path d="M30.0113 31.3633C29.9016 33.6815 30.5457 38.7269 34 40.3633" stroke="#7E796E" stroke-width="2" stroke-linecap="round"/>
<path d="M31.6441 41.0654L34.4723 41.2985L34.5968 38.367" stroke="#7E796E" stroke-width="2" stroke-linecap="round" stroke-linejoin="round"/>
<path d="M27.1642 20.3791C26.9802 20.3791 26.8202 20.3111 26.6842 20.1751C26.5562 20.0391 26.4922 19.8791 26.4922 19.6951V12.3031C26.4922 12.1191 26.5562 11.9591 26.6842 11.8231C26.8202 11.6871 26.9802 11.6191 27.1642 11.6191H28.0522C28.2362 11.6191 28.3922 11.6871 28.5202 11.8231C28.6562 11.9591 28.7242 12.1191 28.7242 12.3031V19.6951C28.7242 19.8791 28.6562 20.0391 28.5202 20.1751C28.3922 20.3111 28.2362 20.3791 28.0522 20.3791H27.1642Z" fill="#504323"/>
<path d="M21.7029 13.3951L20.8269 16.8391C20.8189 16.8631 20.8229 16.8871 20.8389 16.9111C20.8629 16.9271 20.8869 16.9351 20.9109 16.9351H22.5189C22.5429 16.9351 22.5629 16.9271 22.5789 16.9111C22.6029 16.8871 22.6109 16.8631 22.6029 16.8391L21.7269 13.3951C21.7269 13.3871 21.7229 13.3831 21.7149 13.3831C21.7069 13.3831 21.7029 13.3871 21.7029 13.3951ZM18.4989 20.3791C18.3309 20.3791 18.1949 20.3111 18.0909 20.1751C17.9949 20.0391 17.9749 19.8911 18.0309 19.7311L20.4549 12.2671C20.5189 12.0751 20.6309 11.9191 20.7909 11.7991C20.9589 11.6791 21.1429 11.6191 21.3429 11.6191H22.1349C22.3429 11.6191 22.5309 11.6791 22.6989 11.7991C22.8669 11.9191 22.9789 12.0751 23.0349 12.2671L25.4469 19.7311C25.5029 19.8911 25.4789 20.0391 25.3749 20.1751C25.2789 20.3111 25.1469 20.3791 24.9789 20.3791H24.1749C23.9749 20.3791 23.7949 20.3191 23.6349 20.1991C23.4749 20.0711 23.3709 19.9111 23.3229 19.7191L23.0349 18.5791C23.0269 18.5151 22.9869 18.4831 22.9149 18.4831H20.5149C20.4509 18.4831 20.4109 18.5151 20.3949 18.5791L20.1069 19.7191C20.0589 19.9111 19.9549 20.0711 19.7949 20.1991C19.6349 20.3191 19.4549 20.3791 19.2549 20.3791H18.4989Z" fill="#504323"/>
</svg>
