<svg width="48" height="48" viewBox="0 0 48 48" fill="none" xmlns="http://www.w3.org/2000/svg">
<path d="M32 16C32 13.5758 32.8 8.58182 36 8" stroke="#7E796E" stroke-width="2" stroke-linecap="round"/>
<path d="M17 23C17 20.5758 18 15.5 21 14" stroke="#7E796E" stroke-width="2" stroke-linecap="round"/>
<path d="M32.5 13C36.6421 13 40 16.326 40 20.4287C40 21.3975 39.8118 22.3226 39.4707 23.1709C39.3004 23.5946 39.3846 24.0853 39.6953 24.4199C41.1311 25.9651 42 27.9777 42 30.1787C41.9999 35.0506 37.7467 39 32.5 39C30.1716 39 28.0399 38.2208 26.3877 36.9297C27.8859 34.8825 28.9999 31.7989 29 27.5752C28.9999 24.3049 28.3167 21.8406 27.0264 20.21C26.4988 19.5433 25.8848 19.0378 25.2109 18.6787C26.0054 15.4206 28.9665 13 32.5 13ZM25.0332 19.7314C26.831 20.871 27.9999 23.3861 28 27.5752L27.9961 27.9971C27.9258 31.7734 26.9139 34.4833 25.6318 36.2695C24.0025 34.6859 23 32.5418 23 30.1787C23 27.9779 23.8683 25.9652 25.3037 24.4199C25.6145 24.0853 25.6985 23.5947 25.5283 23.1709C25.1875 22.3226 25 21.3973 25 20.4287C25 20.1936 25.0116 19.961 25.0332 19.7314Z" fill="#E4DDCD"/>
<path d="M16.9463 14.676C18.0598 15.8879 17.926 17.8854 17.8617 18.4522C17.8513 18.5436 17.7779 18.6111 17.6859 18.6137C17.1157 18.6298 15.1141 18.5941 14.0007 17.3821C12.8873 16.1702 13.021 14.1727 13.0853 13.6059C13.0957 13.5145 13.1691 13.447 13.2611 13.4444C13.8313 13.4283 15.8329 13.464 16.9463 14.676Z" fill="#7E796E"/>
<path d="M21.8889 19.0194C25.3496 18.7506 27.9999 21.2649 28 27.5753C27.9999 36.6659 22.6375 39.806 20.6667 38.829C19.281 38.1419 18.0695 37.8872 17 37.9022C15.9305 37.8872 14.719 38.142 13.3333 38.829C11.3625 39.8062 6.00007 36.6661 6 27.5753C6.00015 21.2651 8.6504 18.7506 12.1111 19.0194C13.6359 19.1378 15.3525 20.9086 17 20.9086L17.1552 20.9038C18.7549 20.7996 20.4119 19.1341 21.8889 19.0194Z" fill="#E4DDCD"/>
</svg>
