<svg width="48" height="48" viewBox="0 0 48 48" fill="none" xmlns="http://www.w3.org/2000/svg">
<path d="M6.43874 36.3162C6.2229 35.6687 6.70487 35 7.38743 35H40.6126C41.2951 35 41.7771 35.6687 41.5613 36.3162L40.2279 40.3162C40.0918 40.7246 39.7097 41 39.2792 41H8.72076C8.29033 41 7.90819 40.7246 7.77208 40.3162L6.43874 36.3162Z" fill="#7E796E"/>
<path d="M22 37H26" stroke="white" stroke-width="2" stroke-linecap="round"/>
<path d="M9.1875 20C9.1875 19.4477 9.63522 19 10.1875 19L22.1875 19C22.7398 19 23.1875 19.4477 23.1875 20L23.1875 32C23.1875 32.5523 22.7398 33 22.1875 33L10.1875 33C9.63522 33 9.1875 32.5523 9.1875 32L9.1875 20Z" fill="#E4DDCD"/>
<path d="M22.1875 19L22.29 19.0049C22.7942 19.0562 23.1875 19.4823 23.1875 20H18.6875C18.1698 20 17.7437 19.6067 17.6924 19.1025L17.6875 19H22.1875ZM31.6875 19C31.6875 19.5523 31.2398 20 30.6875 20H26.8984C28.1918 18.859 29.8557 18.1296 31.6875 18.0166V19ZM30.6875 6C31.2398 6 31.6875 6.44772 31.6875 7V17.0137C29.2238 17.1486 27.0247 18.275 25.4805 20H24.1875C24.1875 18.8954 23.2921 18 22.1875 18H17.6875V7C17.6875 6.44772 18.1352 6 18.6875 6H30.6875Z" fill="#E4DDCD"/>
<path d="M14.1875 31L11.1875 31L11.1875 28" stroke="#7E796E" stroke-width="2" stroke-linecap="round" stroke-linejoin="round"/>
<path d="M40.1875 26C40.1875 30.4183 36.6058 34 32.1875 34C27.7692 34 24.1875 30.4183 24.1875 26C24.1875 21.5817 27.7692 18 32.1875 18C36.6058 18 40.1875 21.5817 40.1875 26Z" fill="#E4DDCD"/>
<path d="M19.6875 11L19.6875 8L22.6875 8" stroke="#7E796E" stroke-width="2" stroke-linecap="round" stroke-linejoin="round"/>
<path d="M33.26 20.1931C34.2553 20.4412 35.1777 20.9214 35.9519 21.5944C36.726 22.2674 37.3299 23.114 37.7142 24.0651" stroke="#7E796E" stroke-width="2" stroke-linecap="round"/>
</svg>
