<svg width="48" height="48" viewBox="0 0 48 48" fill="none" xmlns="http://www.w3.org/2000/svg">
<rect x="14.5" y="8" width="19" height="34" rx="1" fill="#BDAE96"/>
<path d="M14.5 9C14.5 8.44772 14.9477 8 15.5 8H23.5V25H14.5V9Z" fill="#E4DDCD"/>
<path d="M14.5 26H23.5V42H15.5C14.9477 42 14.5 41.5523 14.5 41V26Z" fill="#E4DDCD"/>
<path d="M24.5 26H33.5V41C33.5 41.5523 33.0523 42 32.5 42H24.5V26Z" fill="#E4DDCD"/>
<path d="M24.5 8H32.5C33.0523 8 33.5 8.44772 33.5 9V25H24.5V8Z" fill="#E4DDCD"/>
<path d="M34.5 8.78078C34.5 8.32191 34.8123 7.92193 35.2575 7.81063L41.2575 6.31063C41.8886 6.15285 42.5 6.63021 42.5 7.28078V25.7192C42.5 26.3698 41.8886 26.8472 41.2575 26.6894L35.2575 25.1894C34.8123 25.0781 34.5 24.6781 34.5 24.2192V8.78078Z" fill="#E4DDCD"/>
<path d="M13.5 8.78078C13.5 8.32191 13.1877 7.92193 12.7425 7.81063L6.74254 6.31063C6.11139 6.15285 5.5 6.63021 5.5 7.28078V25.7192C5.5 26.3698 6.11139 26.8472 6.74254 26.6894L12.7425 25.1894C13.1877 25.0781 13.5 24.6781 13.5 24.2192V8.78078Z" fill="#E4DDCD"/>
<rect x="26.5" y="10" width="5" height="13" rx="1" fill="#7E796E"/>
<rect x="16.5" y="10" width="5" height="13" rx="1" fill="#7E796E"/>
</svg>
