<svg width="48" height="48" viewBox="0 0 48 48" fill="none" xmlns="http://www.w3.org/2000/svg">
<rect x="24.0703" y="11" width="10" height="10" rx="1" transform="rotate(45 24.0703 11)" fill="#7E796E"/>
<path d="M26.1406 15L24.4946 13.354C24.2603 13.1196 23.8804 13.1196 23.6461 13.354L22 15" stroke="white" stroke-linecap="round"/>
<rect x="14.2422" y="27" width="6" height="6" rx="1" transform="rotate(45 14.2422 27)" fill="#7E796E"/>
<rect x="34.2422" y="25" width="6" height="6" rx="1" transform="rotate(45 34.2422 25)" fill="#7E796E"/>
<path d="M33.7936 18.448C34.5937 17.6479 35.8755 17.6324 36.6566 18.4135C37.4376 19.1945 37.4222 20.4763 36.6221 21.2764C35.5391 22.3593 32.4139 22.6561 32.4139 22.6561C32.4139 22.6561 32.7107 19.5309 33.7936 18.448Z" fill="#7E796E"/>
<path d="M11.3366 22.161C10.5998 21.3023 10.682 20.023 11.5203 19.3037C12.3585 18.5844 13.6354 18.6974 14.3722 19.5561C15.3696 20.7184 15.4275 23.8571 15.4275 23.8571C15.4275 23.8571 12.334 23.3232 11.3366 22.161Z" fill="#7E796E"/>
<rect x="6" y="31" width="36" height="3" fill="#E4DDCD"/>
<path d="M8 34H16L14.6667 39H9.33333L8 34Z" fill="#E4DDCD"/>
<path d="M16 34H24L22.6667 39H17.3333L16 34Z" fill="#E4DDCD"/>
<path d="M24 34H32L30.6667 39H25.3333L24 34Z" fill="#E4DDCD"/>
<path d="M32 34H40L38.6667 39H33.3333L32 34Z" fill="#E4DDCD"/>
<circle cx="11.5" cy="12.5" r="1.5" fill="#D5CDBA"/>
<circle cx="21.5" cy="27.5" r="1.5" fill="#D5CDBA"/>
<circle cx="35.5" cy="12.5" r="1.5" fill="#D5CDBA"/>
</svg>
