<svg width="48" height="48" viewBox="0 0 48 48" fill="none" xmlns="http://www.w3.org/2000/svg">
<circle cx="23" cy="24" r="13" fill="#E4DDCD"/>
<path d="M40.5536 16.8547L39.3621 19.42L36.7969 18.2285" stroke="#7E796E" stroke-width="2" stroke-linecap="round" stroke-linejoin="round"/>
<path d="M38.9109 18C36.4856 11.5719 30.2767 7 23 7C13.6112 7 6 14.6112 6 24C6 33.3888 13.6112 41 23 41C26.4758 41 29.7079 39.9569 32.4004 38.1667" stroke="#7E796E" stroke-width="2" stroke-linecap="round" stroke-linejoin="round"/>
<path d="M30 32L40 32" stroke="#7E796E" stroke-width="2" stroke-linecap="round"/>
<path d="M33 28L43 28" stroke="#7E796E" stroke-width="2" stroke-linecap="round"/>
<path d="M34 24L41 24" stroke="#7E796E" stroke-width="2" stroke-linecap="round"/>
<path d="M22 17L23 18L24 17" stroke="#7E796E" stroke-width="2" stroke-linecap="round" stroke-linejoin="round"/>
<path d="M22 31L23 30L24 31" stroke="#7E796E" stroke-width="2" stroke-linecap="round" stroke-linejoin="round"/>
<path d="M23 18V30" stroke="#7E796E" stroke-width="2" stroke-linecap="round" stroke-linejoin="round"/>
<path d="M28.5625 19.6348L28.1965 21.0008L29.5625 21.3668" stroke="#7E796E" stroke-width="2" stroke-linecap="round" stroke-linejoin="round"/>
<path d="M16.4453 26.6348L17.8113 27.0008L17.4453 28.3668" stroke="#7E796E" stroke-width="2" stroke-linecap="round" stroke-linejoin="round"/>
<path d="M28.2031 21.002L17.8108 27.002" stroke="#7E796E" stroke-width="2" stroke-linecap="round" stroke-linejoin="round"/>
<path d="M29.5547 26.6309L28.1887 26.9969L28.5547 28.3629" stroke="#7E796E" stroke-width="2" stroke-linecap="round" stroke-linejoin="round"/>
<path d="M17.4297 19.6309L17.7957 20.9969L16.4297 21.3629" stroke="#7E796E" stroke-width="2" stroke-linecap="round" stroke-linejoin="round"/>
<path d="M28.1953 26.998L17.803 20.998" stroke="#7E796E" stroke-width="2" stroke-linecap="round" stroke-linejoin="round"/>
</svg>
