<svg width="48" height="48" viewBox="0 0 48 48" fill="none" xmlns="http://www.w3.org/2000/svg">
<rect x="7" y="7" width="34" height="34" rx="1" fill="#E4DDCD"/>
<path d="M16.2959 17.4316C18.6085 10.1958 28.8401 10.1893 31.166 17.4131L31.249 17.6543C32.7686 22.1354 38.5191 22.607 41 19.2129V22.292C37.0824 24.9876 30.9539 23.7229 29.1387 18.3701L29.0557 18.1279C29.0536 18.1219 29.0518 18.1155 29.0498 18.1094C27.3955 12.9337 20.0722 12.9337 18.418 18.1094L18.2637 18.6367C16.7257 23.8686 10.8512 25.2941 7 22.8154V19.8301C9.45127 22.9421 14.8653 22.2973 16.126 18.0078L16.2881 17.457L16.2959 17.4316Z" fill="#7E796E"/>
<path d="M37.27 34.5C36.1767 34.5 35.3167 34.1767 34.69 33.53C34.0633 32.8833 33.75 31.9567 33.75 30.75C33.75 29.5633 34.0533 28.6433 34.66 27.99C35.2667 27.33 36.1133 27 37.2 27C37.72 27 38.1733 27.0367 38.56 27.11C38.72 27.1367 38.85 27.2167 38.95 27.35C39.05 27.4833 39.1 27.6333 39.1 27.8V28.12C39.1 28.26 39.0433 28.37 38.93 28.45C38.8167 28.53 38.6933 28.5533 38.56 28.52C38.18 28.42 37.7933 28.37 37.4 28.37C36.8 28.37 36.33 28.5733 35.99 28.98C35.6567 29.3867 35.49 29.9767 35.49 30.75C35.49 31.51 35.67 32.1 36.03 32.52C36.39 32.94 36.87 33.15 37.47 33.15C37.87 33.15 38.26 33.1 38.64 33C38.7733 32.9667 38.8967 32.99 39.01 33.07C39.13 33.15 39.19 33.26 39.19 33.4V33.7C39.19 33.8667 39.1367 34.0167 39.03 34.15C38.93 34.2833 38.8 34.3633 38.64 34.39C38.2467 34.4633 37.79 34.5 37.27 34.5Z" fill="#504323"/>
<path d="M32.4459 28.22C32.3259 28.0933 32.1793 28.03 32.0059 28.03C31.8326 28.03 31.6826 28.0933 31.5559 28.22C31.4359 28.3467 31.3759 28.4967 31.3759 28.67C31.3759 28.8433 31.4359 28.9933 31.5559 29.12C31.6826 29.24 31.8326 29.3 32.0059 29.3C32.1793 29.3 32.3259 29.24 32.4459 29.12C32.5726 28.9933 32.6359 28.8433 32.6359 28.67C32.6359 28.4967 32.5726 28.3467 32.4459 28.22ZM33.1859 29.85C32.8593 30.17 32.4659 30.33 32.0059 30.33C31.5459 30.33 31.1526 30.17 30.8259 29.85C30.4993 29.5233 30.3359 29.13 30.3359 28.67C30.3359 28.21 30.4993 27.8167 30.8259 27.49C31.1526 27.1633 31.5459 27 32.0059 27C32.4659 27 32.8593 27.1633 33.1859 27.49C33.5126 27.8167 33.6759 28.21 33.6759 28.67C33.6759 29.13 33.5126 29.5233 33.1859 29.85Z" fill="#504323"/>
<path d="M25.5031 34.3596C25.3431 34.3263 25.2098 34.2429 25.1031 34.1096C25.0031 33.9763 24.9531 33.8229 24.9531 33.6496V33.3396C24.9531 33.1996 25.0098 33.0896 25.1231 33.0096C25.2365 32.9296 25.3598 32.9063 25.4931 32.9396C26.0331 33.0796 26.4631 33.1496 26.7831 33.1496C27.7631 33.1496 28.2531 32.7396 28.2531 31.9196C28.2531 31.2529 27.9198 30.9196 27.2531 30.9196C27.0998 30.9196 26.9665 30.9429 26.8531 30.9896C26.8131 31.0029 26.7298 31.0363 26.6031 31.0896C26.4831 31.1363 26.3898 31.1729 26.3231 31.1996C26.2631 31.2196 26.1831 31.2429 26.0831 31.2696C25.9898 31.2896 25.8998 31.2996 25.8131 31.2996H25.5031C25.3498 31.2996 25.2198 31.2429 25.1131 31.1296C25.0065 31.0163 24.9565 30.8829 24.9631 30.7296L25.1031 27.6696C25.1165 27.5096 25.1798 27.3763 25.2931 27.2696C25.4065 27.1563 25.5431 27.0996 25.7031 27.0996H29.0131C29.1665 27.0996 29.2998 27.1563 29.4131 27.2696C29.5265 27.3829 29.5831 27.5163 29.5831 27.6696V27.8996C29.5831 28.0529 29.5265 28.1863 29.4131 28.2996C29.2998 28.4129 29.1665 28.4696 29.0131 28.4696H26.7531C26.6931 28.4696 26.6631 28.4963 26.6631 28.5496L26.6031 29.8196C26.6031 29.8263 26.6065 29.8296 26.6131 29.8296H26.6331C26.9531 29.6963 27.2698 29.6296 27.5831 29.6296C28.3298 29.6296 28.9031 29.8296 29.3031 30.2296C29.7098 30.6229 29.9131 31.1863 29.9131 31.9196C29.9131 33.6396 28.8931 34.4996 26.8531 34.4996C26.4065 34.4996 25.9565 34.4529 25.5031 34.3596Z" fill="#504323"/>
<path d="M22.4763 34.4C22.3229 34.4 22.1896 34.3433 22.0763 34.23C21.9629 34.1167 21.9062 33.9833 21.9062 33.83V33.07C21.9062 32.9167 21.9629 32.7833 22.0763 32.67C22.1896 32.5567 22.3229 32.5 22.4763 32.5H23.2363C23.3896 32.5 23.5229 32.5567 23.6363 32.67C23.7496 32.7833 23.8063 32.9167 23.8063 33.07V33.83C23.8063 33.9833 23.7496 34.1167 23.6363 34.23C23.5229 34.3433 23.3896 34.4 23.2363 34.4H22.4763Z" fill="#504323"/>
<path d="M19.28 28.84C19.0933 28.4733 18.8 28.29 18.4 28.29C18 28.29 17.7033 28.4733 17.51 28.84C17.3233 29.2067 17.23 29.8433 17.23 30.75C17.23 31.6567 17.3233 32.2933 17.51 32.66C17.7033 33.0267 18 33.21 18.4 33.21C18.8 33.21 19.0933 33.0267 19.28 32.66C19.4733 32.2933 19.57 31.6567 19.57 30.75C19.57 29.8433 19.4733 29.2067 19.28 28.84ZM20.58 33.62C20.1067 34.2067 19.38 34.5 18.4 34.5C17.42 34.5 16.69 34.2067 16.21 33.62C15.7367 33.0333 15.5 32.0767 15.5 30.75C15.5 29.4233 15.7367 28.4667 16.21 27.88C16.69 27.2933 17.42 27 18.4 27C19.38 27 20.1067 27.2933 20.58 27.88C21.06 28.4667 21.3 29.4233 21.3 30.75C21.3 32.0767 21.06 33.0333 20.58 33.62Z" fill="#504323"/>
<path d="M9.57 34.8004C9.41667 34.8004 9.28333 34.7437 9.17 34.6304C9.05667 34.5171 9 34.3837 9 34.2304V34.0804C9 33.9271 9.05667 33.7971 9.17 33.6904C9.28333 33.5771 9.41667 33.5204 9.57 33.5204H14.37C14.5233 33.5204 14.6567 33.5771 14.77 33.6904C14.8833 33.7971 14.94 33.9271 14.94 34.0804V34.2304C14.94 34.3837 14.8833 34.5171 14.77 34.6304C14.6567 34.7437 14.5233 34.8004 14.37 34.8004H9.57ZM9.57 31.1104C9.41667 31.1104 9.28333 31.0537 9.17 30.9404C9.05667 30.8271 9 30.6937 9 30.5404V30.3904C9 30.2371 9.05667 30.1037 9.17 29.9904C9.28333 29.8771 9.41667 29.8204 9.57 29.8204H11.2C11.26 29.8204 11.29 29.7937 11.29 29.7404V28.4704C11.29 28.3171 11.3433 28.1837 11.45 28.0704C11.5633 27.9571 11.6967 27.9004 11.85 27.9004H12.09C12.2433 27.9004 12.3733 27.9571 12.48 28.0704C12.5933 28.1837 12.65 28.3171 12.65 28.4704V29.7404C12.65 29.7937 12.68 29.8204 12.74 29.8204H14.37C14.5233 29.8204 14.6567 29.8771 14.77 29.9904C14.8833 30.1037 14.94 30.2371 14.94 30.3904V30.5404C14.94 30.6937 14.8833 30.8271 14.77 30.9404C14.6567 31.0537 14.5233 31.1104 14.37 31.1104H12.74C12.68 31.1104 12.65 31.1371 12.65 31.1904V32.4704C12.65 32.6237 12.5933 32.7571 12.48 32.8704C12.3733 32.9771 12.2433 33.0304 12.09 33.0304H11.85C11.6967 33.0304 11.5633 32.9771 11.45 32.8704C11.3433 32.7571 11.29 32.6237 11.29 32.4704V31.1904C11.29 31.1371 11.26 31.1104 11.2 31.1104H9.57Z" fill="#504323"/>
</svg>
