<svg width="48" height="48" viewBox="0 0 48 48" fill="none" xmlns="http://www.w3.org/2000/svg">
<path d="M6 10L9.79053 38H38.2116L42 10" stroke="#7E796E" stroke-width="2" stroke-linecap="round" stroke-linejoin="round"/>
<path d="M38.8359 19L37.0068 19.9473C33.0082 22.0183 28.2283 21.901 24.336 19.6364C20.3667 17.327 15.59 16.8558 11.246 18.3451L9.33594 19L11.5717 33.3088C11.7238 34.2823 12.5623 35 13.5477 35H34.9633C35.9663 35 36.8142 34.2571 36.946 33.2627L38.8359 19Z" fill="#E4DDCD"/>
<path d="M32.1156 9.33562C32.2266 8.9498 32.7734 8.9498 32.8844 9.33562L33.3955 11.1114C33.4272 11.2215 33.5046 11.3128 33.608 11.362L35.2408 12.1388C35.545 12.2835 35.545 12.7165 35.2408 12.8612L33.608 13.638C33.5046 13.6872 33.4272 13.7785 33.3955 13.8886L32.8844 15.6644C32.7734 16.0502 32.2266 16.0502 32.1156 15.6644L31.6045 13.8886C31.5728 13.7785 31.4954 13.6872 31.392 13.638L29.7592 12.8612C29.455 12.7165 29.455 12.2835 29.7592 12.1388L31.392 11.362C31.4954 11.3128 31.5728 11.2215 31.6045 11.1114L32.1156 9.33562Z" fill="#7E796E"/>
<path d="M35.1133 14.4631C35.2182 14.0661 35.7818 14.0661 35.8867 14.4631L36.1299 15.3833C36.1588 15.4924 36.2324 15.5843 36.3326 15.6362L37.3144 16.1448C37.6024 16.294 37.6024 16.706 37.3144 16.8552L36.3326 17.3638C36.2324 17.4157 36.1588 17.5076 36.1299 17.6167L35.8867 18.5369C35.7818 18.9339 35.2182 18.9339 35.1133 18.5369L34.8701 17.6167C34.8412 17.5076 34.7676 17.4157 34.6674 17.3638L33.6856 16.8552C33.3976 16.706 33.3976 16.294 33.6856 16.1448L34.6674 15.6362C34.7676 15.5843 34.8412 15.4924 34.8701 15.3833L35.1133 14.4631Z" fill="#7E796E"/>
</svg>
