<svg width="48" height="48" viewBox="0 0 48 48" fill="none" xmlns="http://www.w3.org/2000/svg">
<path d="M19.5 43C16.1848 43 13.0054 41.7169 10.6612 39.4328C8.31696 37.1488 7 34.051 7 30.8209C7 22.7015 19.5 9 19.5 9C19.5 9 32 22.7015 32 30.8209C32 34.051 30.683 37.1488 28.3388 39.4328C25.9946 41.7169 22.8152 43 19.5 43Z" fill="#E4DDCD"/>
<path d="M33 20C31.6739 20 30.4021 19.4716 29.4645 18.5312C28.5268 17.5907 28 16.3151 28 14.9851C28 11.6418 33 6 33 6C33 6 38 11.6418 38 14.9851C38 16.3151 37.4732 17.5907 36.5355 18.5312C35.5979 19.4716 34.3261 20 33 20Z" fill="#E4DDCD"/>
<path d="M38.6016 26.75V24.25H36.1016" stroke="#7E796E" stroke-width="2" stroke-linecap="round" stroke-linejoin="round"/>
<path d="M37 25.8568L36.117 26.694C35.0699 27.6868 33.4033 27.594 32.4729 26.4913C31.5629 25.4128 29.9428 25.2965 28.8881 26.234L28 27.0234" stroke="#7E796E" stroke-width="2" stroke-linecap="round"/>
<path d="M38.6016 32.2734V29.7734H36.1016" stroke="#7E796E" stroke-width="2" stroke-linecap="round" stroke-linejoin="round"/>
<path d="M37 31.3802L36.117 32.2174C35.0699 33.2102 33.4033 33.1175 32.4729 32.0147C31.5629 30.9362 29.9428 30.8199 28.8881 31.7574L28 32.5469" stroke="#7E796E" stroke-width="2" stroke-linecap="round"/>
<path d="M38.6016 37.793V35.293H36.1016" stroke="#7E796E" stroke-width="2" stroke-linecap="round" stroke-linejoin="round"/>
<path d="M37 36.8958L36.117 37.7331C35.0699 38.7258 33.4033 38.6331 32.4729 37.5303C31.5629 36.4518 29.9428 36.3356 28.8881 37.273L28 38.0625" stroke="#7E796E" stroke-width="2" stroke-linecap="round"/>
</svg>
