<svg width="48" height="48" viewBox="0 0 48 48" fill="none" xmlns="http://www.w3.org/2000/svg">
<path d="M22 43C18.287 43 14.726 41.5659 12.1005 39.0132C9.475 36.4604 8 32.9982 8 29.3881C8 20.3134 22 5 22 5C22 5 36 20.3134 36 29.3881C36 32.9982 34.525 36.4604 31.8995 39.0132C29.274 41.5659 25.713 43 22 43Z" fill="#E4DDCD"/>
<path d="M39.6016 30.2734V27.7734H37.1016" stroke="#7E796E" stroke-width="2" stroke-linecap="round" stroke-linejoin="round"/>
<path d="M38 29.3802L37.117 30.2174C36.0699 31.2102 34.4033 31.1175 33.4729 30.0147C32.5629 28.9362 30.9428 28.8199 29.8881 29.7574L29 30.5469" stroke="#7E796E" stroke-width="2" stroke-linecap="round"/>
<path d="M39.6016 35.793V33.293H37.1016" stroke="#7E796E" stroke-width="2" stroke-linecap="round" stroke-linejoin="round"/>
<path d="M38 34.8958L37.117 35.7331C36.0699 36.7258 34.4033 36.6331 33.4729 35.5303C32.5629 34.4518 30.9428 34.3356 29.8881 35.273L29 36.0625" stroke="#7E796E" stroke-width="2" stroke-linecap="round"/>
</svg>
