<svg width="48" height="48" viewBox="0 0 48 48" fill="none" xmlns="http://www.w3.org/2000/svg">
<path d="M17.8268 7.09415C18.6176 6.7137 19.3937 7.55475 19.1278 8.39112C18.6133 10.0097 18.335 11.7372 18.335 13.5312C18.335 22.7114 25.6135 30.1541 34.5918 30.1543C36.2801 30.1543 37.9081 29.8904 39.439 29.4016C40.2771 29.134 41.1286 29.9094 40.7552 30.7061C37.9725 36.6435 32.0411 40.744 25.1719 40.7441C15.6323 40.7441 7.89849 32.837 7.89844 23.083C7.89844 16.0145 11.9599 9.91643 17.8268 7.09415Z" fill="#E4DDCD"/>
<path d="M34.1092 10.8889C34.3365 10.56 34.6597 10.3036 35.0377 10.1522C35.4158 10.0009 35.8318 9.96126 36.2331 10.0384C36.6344 10.1156 37.0031 10.3061 37.2925 10.5858C37.5818 10.8655 37.7789 11.2219 37.8587 11.6098C37.9385 11.9978 37.8975 12.3999 37.7409 12.7654C37.5844 13.1308 37.3192 13.4432 36.9789 13.6629C36.6387 13.8827 36.2387 14 35.8295 14L27.8984 14" stroke="#7E796E" stroke-width="2" stroke-linecap="round"/>
<path d="M34.1092 25.1111C34.3365 25.44 34.6597 25.6964 35.0377 25.8478C35.4158 25.9991 35.8318 26.0387 36.2331 25.9616C36.6344 25.8844 37.0031 25.6939 37.2925 25.4142C37.5818 25.1345 37.7789 24.7781 37.8587 24.3902C37.9385 24.0022 37.8975 23.6001 37.7409 23.2346C37.5844 22.8692 37.3192 22.5568 36.9789 22.3371C36.6387 22.1173 36.2387 22 35.8295 22L25.8984 22" stroke="#7E796E" stroke-width="2" stroke-linecap="round"/>
<path d="M23.8984 18L35.8984 18" stroke="#7E796E" stroke-width="2" stroke-linecap="round"/>
</svg>
