<svg width="48" height="48" viewBox="0 0 48 48" fill="none" xmlns="http://www.w3.org/2000/svg">
<path d="M40 38.8867C40 39.439 39.5523 39.8867 39 39.8867H9C8.44772 39.8867 8 39.439 8 38.8867V24.3867C8 24.072 8.14819 23.7756 8.4 23.5867L23.4 12.3367C23.7556 12.0701 24.2444 12.0701 24.6 12.3367L39.6 23.5867C39.8518 23.7756 40 24.072 40 24.3867V38.8867Z" fill="#E4DDCD"/>
<path d="M40 20.1133L23.9997 8.11328L8 20.1133" stroke="#7E796E" stroke-width="2" stroke-linecap="round" stroke-linejoin="round"/>
<path d="M35.5222 29.5495C35.6672 29.0793 36.3328 29.0793 36.4778 29.5495L37.2834 32.1621C37.326 32.3002 37.4263 32.4131 37.5583 32.4718L39.9709 33.543C40.367 33.7189 40.367 34.2811 39.9709 34.457L37.5583 35.5282C37.4263 35.5869 37.326 35.6998 37.2834 35.8379L36.4778 38.4505C36.3328 38.9207 35.6672 38.9207 35.5222 38.4505L34.7166 35.8379C34.674 35.6998 34.5737 35.5869 34.4417 35.5282L32.0291 34.457C31.633 34.2811 31.633 33.7189 32.0291 33.543L34.4417 32.4718C34.5737 32.4131 34.674 32.3002 34.7166 32.1621L35.5222 29.5495Z" fill="#7E796E"/>
<path d="M39.62 23.1552C39.7406 22.7885 40.2594 22.7885 40.38 23.1552L41.0232 25.1107C41.0595 25.2211 41.1421 25.3103 41.2494 25.355L43.1129 26.1307C43.4413 26.2674 43.4413 26.7326 43.1129 26.8693L41.2494 27.645C41.1421 27.6897 41.0595 27.7789 41.0232 27.8893L40.38 29.8448C40.2594 30.2115 39.7406 30.2115 39.62 29.8448L38.9768 27.8893C38.9405 27.7789 38.8579 27.6897 38.7506 27.645L36.8871 26.8693C36.5587 26.7326 36.5587 26.2674 36.8871 26.1307L38.7506 25.355C38.8579 25.3103 38.9405 25.2211 38.9768 25.1107L39.62 23.1552Z" fill="#7E796E"/>
</svg>
