<svg width="48" height="48" viewBox="0 0 48 48" fill="none" xmlns="http://www.w3.org/2000/svg">
<path d="M40 38.8828C40 39.4351 39.5523 39.8828 39 39.8828H9C8.44772 39.8828 8 39.4351 8 38.8828V24.3828C8 24.0681 8.14819 23.7717 8.4 23.5828L23.4 12.3328C23.7556 12.0661 24.2444 12.0661 24.6 12.3328L39.6 23.5828C39.8518 23.7717 40 24.0681 40 24.3828V38.8828Z" fill="#E4DDCD"/>
<path d="M40 20.1094L23.9997 8.10938L8 20.1094" stroke="#7E796E" stroke-width="2" stroke-linecap="round" stroke-linejoin="round"/>
<path d="M24.4064 34.76C24.2224 34.76 24.0624 34.692 23.9264 34.556C23.7984 34.42 23.7344 34.26 23.7344 34.076V26.684C23.7344 26.5 23.7984 26.34 23.9264 26.204C24.0624 26.068 24.2224 26 24.4064 26H25.2944C25.4784 26 25.6344 26.068 25.7624 26.204C25.8984 26.34 25.9664 26.5 25.9664 26.684V34.076C25.9664 34.26 25.8984 34.42 25.7624 34.556C25.6344 34.692 25.4784 34.76 25.2944 34.76H24.4064Z" fill="#504323"/>
<path d="M18.7029 27.776L17.8269 31.22C17.8189 31.244 17.8229 31.268 17.8389 31.292C17.8629 31.308 17.8869 31.316 17.9109 31.316H19.5189C19.5429 31.316 19.5629 31.308 19.5789 31.292C19.6029 31.268 19.6109 31.244 19.6029 31.22L18.7269 27.776C18.7269 27.768 18.7229 27.764 18.7149 27.764C18.7069 27.764 18.7029 27.768 18.7029 27.776ZM15.4989 34.76C15.3309 34.76 15.1949 34.692 15.0909 34.556C14.9949 34.42 14.9749 34.272 15.0309 34.112L17.4549 26.648C17.5189 26.456 17.6309 26.3 17.7909 26.18C17.9589 26.06 18.1429 26 18.3429 26H19.1349C19.3429 26 19.5309 26.06 19.6989 26.18C19.8669 26.3 19.9789 26.456 20.0349 26.648L22.4469 34.112C22.5029 34.272 22.4789 34.42 22.3749 34.556C22.2789 34.692 22.1469 34.76 21.9789 34.76H21.1749C20.9749 34.76 20.7949 34.7 20.6349 34.58C20.4749 34.452 20.3709 34.292 20.3229 34.1L20.0349 32.96C20.0269 32.896 19.9869 32.864 19.9149 32.864H17.5149C17.4509 32.864 17.4109 32.896 17.3949 32.96L17.1069 34.1C17.0589 34.292 16.9549 34.452 16.7949 34.58C16.6349 34.7 16.4549 34.76 16.2549 34.76H15.4989Z" fill="#504323"/>
<path d="M39.2108 24.8889C39.4381 24.56 39.7612 24.3036 40.1393 24.1522C40.5173 24.0009 40.9333 23.9613 41.3347 24.0384C41.736 24.1156 42.1047 24.3061 42.394 24.5858C42.6834 24.8655 42.8804 25.2219 42.9602 25.6098C43.0401 25.9978 42.9991 26.3999 42.8425 26.7654C42.6859 27.1308 42.4207 27.4432 42.0805 27.6629C41.7402 27.8827 41.3402 28 40.931 28L33 28" stroke="#7E796E" stroke-width="2" stroke-linecap="round"/>
<path d="M37.2108 37.1111C37.4381 37.44 37.7612 37.6964 38.1393 37.8478C38.5173 37.9991 38.9333 38.0387 39.3347 37.9616C39.736 37.8844 40.1047 37.6939 40.394 37.4142C40.6834 37.1345 40.8804 36.7781 40.9602 36.3902C41.0401 36.0022 40.9991 35.6001 40.8425 35.2346C40.6859 34.8692 40.4207 34.5568 40.0805 34.3371C39.7402 34.1173 39.3402 34 38.931 34L32 34" stroke="#7E796E" stroke-width="2" stroke-linecap="round"/>
<path d="M30 31L39 31" stroke="#7E796E" stroke-width="2" stroke-linecap="round"/>
</svg>
