<svg width="48" height="48" viewBox="0 0 48 48" fill="none" xmlns="http://www.w3.org/2000/svg">
<path d="M26.9285 27.9988C26.7598 27.9988 26.6132 27.9364 26.4885 27.8117C26.3712 27.6871 26.3125 27.5404 26.3125 27.3718V20.5957C26.3125 20.4271 26.3712 20.2804 26.4885 20.1557C26.6132 20.0311 26.7598 19.9688 26.9285 19.9688H27.7425C27.9112 19.9688 28.0542 20.0311 28.1715 20.1557C28.2962 20.2804 28.3585 20.4271 28.3585 20.5957V27.3718C28.3585 27.5404 28.2962 27.6871 28.1715 27.8117C28.0542 27.9364 27.9112 27.9988 27.7425 27.9988H26.9285Z" fill="#9F9A8E"/>
<path d="M21.6991 21.5968L20.8961 24.7537C20.8887 24.7757 20.8924 24.7978 20.9071 24.8198C20.9291 24.8344 20.9511 24.8418 20.9731 24.8418H22.4471C22.4691 24.8418 22.4874 24.8344 22.5021 24.8198C22.5241 24.7978 22.5314 24.7757 22.5241 24.7537L21.7211 21.5968C21.7211 21.5894 21.7174 21.5858 21.7101 21.5858C21.7027 21.5858 21.6991 21.5894 21.6991 21.5968ZM18.7621 27.9988C18.6081 27.9988 18.4834 27.9364 18.3881 27.8117C18.3001 27.6871 18.2817 27.5514 18.3331 27.4048L20.5551 20.5627C20.6137 20.3867 20.7164 20.2437 20.8631 20.1337C21.0171 20.0238 21.1857 19.9688 21.3691 19.9688H22.0951C22.2857 19.9688 22.4581 20.0238 22.6121 20.1337C22.7661 20.2437 22.8687 20.3867 22.9201 20.5627L25.1311 27.4048C25.1824 27.5514 25.1604 27.6871 25.0651 27.8117C24.9771 27.9364 24.8561 27.9988 24.7021 27.9988H23.9651C23.7817 27.9988 23.6167 27.9438 23.4701 27.8338C23.3234 27.7164 23.2281 27.5697 23.1841 27.3937L22.9201 26.3488C22.9127 26.2901 22.8761 26.2608 22.8101 26.2608H20.6101C20.5514 26.2608 20.5147 26.2901 20.5001 26.3488L20.2361 27.3937C20.1921 27.5697 20.0967 27.7164 19.9501 27.8338C19.8034 27.9438 19.6384 27.9988 19.4551 27.9988H18.7621Z" fill="#9F9A8E"/>
<path d="M13 6C13 5.44772 13.4477 5 14 5H30C30.5523 5 31 5.44772 31 6V42C31 42.5523 30.5523 43 30 43H14C13.4477 43 13 42.5523 13 42V6Z" fill="#E4DDCD"/>
<circle cx="22" cy="15" r="5" stroke="#7E796E" stroke-width="2"/>
<path d="M41 22C38.5 27 33.5 31.5 28 35" stroke="#7E796E" stroke-width="2" stroke-linecap="round" stroke-linejoin="round"/>
<path d="M31 13C36.1323 15.2286 44.5 19 28 31" stroke="#7E796E" stroke-width="2" stroke-linecap="round" stroke-linejoin="round"/>
<path d="M32 18C33 18.5 34.5 20 35 21" stroke="#7E796E" stroke-width="2" stroke-linecap="round" stroke-linejoin="round"/>
</svg>
