<svg width="48" height="48" viewBox="0 0 48 48" fill="none" xmlns="http://www.w3.org/2000/svg">
<path d="M30 5C30.5523 5 31 5.44772 31 6V30.2324C30.9629 30.1949 30.9245 30.1583 30.8838 30.124L30.7695 30.0352L30.6504 29.957C30.368 29.7864 30.0503 29.6992 29.7178 29.6992H29.0576C28.6757 29.6993 28.3202 29.8183 28.0166 30.0352L28.0078 30.042L27.998 30.0488C27.6999 30.2724 27.486 30.5724 27.3691 30.9229L27.3672 30.9297L25.3467 37.1504H25.3486C25.2067 37.576 25.2654 38.0285 25.5312 38.4053L25.542 38.4209L25.5537 38.4365C25.8253 38.7917 26.2301 38.999 26.6885 38.999H27V39H31V42C31 42.5523 30.5523 43 30 43H14C13.4477 43 13 42.5523 13 42V6C13 5.44772 13.4477 5 14 5H30ZM29.8447 30.708C29.9685 30.7267 30.0835 30.7736 30.1885 30.8486C30.3284 30.9486 30.4211 31.0793 30.4678 31.2393L31 32.8848V37H30.5947L30.4678 36.499C30.4611 36.4458 30.428 36.419 30.3682 36.4189H28.3682L28.332 36.4238C28.2994 36.4338 28.2776 36.4589 28.2676 36.499L28.1416 37H27V37.999H26.6885L26.5879 37.9883C26.493 37.967 26.4126 37.914 26.3477 37.8291C26.2677 37.7158 26.2512 37.5923 26.2979 37.459L28.3184 31.2393C28.3717 31.0793 28.4644 30.9486 28.5977 30.8486C28.7026 30.7737 28.8156 30.7267 28.9355 30.708L29.0576 30.6992H29.7178L29.8447 30.708ZM29.3584 32.1787L28.6279 35.0488C28.6213 35.0688 28.6244 35.0894 28.6377 35.1094C28.6476 35.116 28.658 35.1207 28.668 35.124L28.6982 35.1289H30.0381C30.048 35.1289 30.0572 35.1273 30.0654 35.124L30.0879 35.1094C30.0979 35.0994 30.1051 35.0891 30.1084 35.0791V35.0488L29.3779 32.1787C29.3778 32.1723 29.3745 32.169 29.3682 32.1689C29.3616 32.1689 29.3585 32.1723 29.3584 32.1787Z" fill="#E4DDCD"/>
<circle cx="22" cy="15" r="5" stroke="#7E796E" stroke-width="2"/>
<path d="M34.1108 37.9992C33.9574 37.9992 33.8241 37.9426 33.7108 37.8292C33.6041 37.7159 33.5508 37.5826 33.5508 37.4292V31.2692C33.5508 31.1159 33.6041 30.9826 33.7108 30.8692C33.8241 30.7559 33.9574 30.6992 34.1108 30.6992H34.8508C35.0041 30.6992 35.1341 30.7559 35.2408 30.8692C35.3541 30.9826 35.4108 31.1159 35.4108 31.2692V37.4292C35.4108 37.5826 35.3541 37.7159 35.2408 37.8292C35.1341 37.9426 35.0041 37.9992 34.8508 37.9992H34.1108Z" fill="#504323"/>
<path d="M29.3602 32.1792L28.6302 35.0492C28.6235 35.0692 28.6269 35.0892 28.6402 35.1092C28.6602 35.1226 28.6802 35.1292 28.7002 35.1292H30.0402C30.0602 35.1292 30.0769 35.1226 30.0902 35.1092C30.1102 35.0892 30.1169 35.0692 30.1102 35.0492L29.3802 32.1792C29.3802 32.1726 29.3769 32.1692 29.3702 32.1692C29.3635 32.1692 29.3602 32.1726 29.3602 32.1792ZM26.6902 37.9992C26.5502 37.9992 26.4369 37.9426 26.3502 37.8292C26.2702 37.7159 26.2535 37.5926 26.3002 37.4592L28.3202 31.2392C28.3735 31.0792 28.4669 30.9492 28.6002 30.8492C28.7402 30.7492 28.8935 30.6992 29.0602 30.6992H29.7202C29.8935 30.6992 30.0502 30.7492 30.1902 30.8492C30.3302 30.9492 30.4235 31.0792 30.4702 31.2392L32.4802 37.4592C32.5269 37.5926 32.5069 37.7159 32.4202 37.8292C32.3402 37.9426 32.2302 37.9992 32.0902 37.9992H31.4202C31.2535 37.9992 31.1035 37.9492 30.9702 37.8492C30.8369 37.7426 30.7502 37.6092 30.7102 37.4492L30.4702 36.4992C30.4635 36.4459 30.4302 36.4192 30.3702 36.4192H28.3702C28.3169 36.4192 28.2835 36.4459 28.2702 36.4992L28.0302 37.4492C27.9902 37.6092 27.9035 37.7426 27.7702 37.8492C27.6369 37.9492 27.4869 37.9992 27.3202 37.9992H26.6902Z" fill="#504323"/>
<path d="M36 28C36.2626 28 36.5227 28.0517 36.7654 28.1522C37.008 28.2528 37.2285 28.4001 37.4142 28.5858C37.5999 28.7715 37.7472 28.992 37.8478 29.2346C37.9483 29.4773 38 29.7374 38 30" stroke="#7E796E" stroke-width="2" stroke-linecap="round"/>
<path d="M36 25C36.6566 25 37.3068 25.1293 37.9134 25.3806C38.52 25.6319 39.0712 26.0002 39.5355 26.4645C39.9998 26.9288 40.3681 27.48 40.6194 28.0866C40.8707 28.6932 41 29.3434 41 30" stroke="#7E796E" stroke-width="2" stroke-linecap="round"/>
</svg>
