<svg width="48" height="48" viewBox="0 0 48 48" fill="none" xmlns="http://www.w3.org/2000/svg">
<g clip-path="url(#clip0_2226_64897)">
<path d="M40 38.8828C40 39.4351 39.5523 39.8828 39 39.8828H9C8.44772 39.8828 8 39.4351 8 38.8828V24.3828C8 24.0681 8.14819 23.7717 8.4 23.5828L23.4 12.3328C23.7556 12.0661 24.2444 12.0661 24.6 12.3328L39.6 23.5828C39.8518 23.7717 40 24.0681 40 24.3828V38.8828Z" fill="#E4DDCD"/>
<path d="M40 20.1094L23.9997 8.10938L8 20.1094" stroke="#7E796E" stroke-width="2" stroke-linecap="round" stroke-linejoin="round"/>
<path d="M39.2108 24.8889C39.4381 24.56 39.7612 24.3036 40.1393 24.1522C40.5173 24.0009 40.9333 23.9613 41.3347 24.0384C41.736 24.1156 42.1047 24.3061 42.394 24.5858C42.6834 24.8655 42.8804 25.2219 42.9602 25.6098C43.0401 25.9978 42.9991 26.3999 42.8425 26.7654C42.6859 27.1308 42.4207 27.4432 42.0805 27.6629C41.7402 27.8827 41.3402 28 40.931 28L33 28" stroke="#7E796E" stroke-width="2" stroke-linecap="round"/>
<path d="M37.2108 37.1111C37.4381 37.44 37.7612 37.6964 38.1393 37.8478C38.5173 37.9991 38.9333 38.0387 39.3347 37.9616C39.736 37.8844 40.1047 37.6939 40.394 37.4142C40.6834 37.1345 40.8804 36.7781 40.9602 36.3902C41.0401 36.0022 40.9991 35.6001 40.8425 35.2346C40.6859 34.8692 40.4207 34.5568 40.0805 34.3371C39.7402 34.1173 39.3402 34 38.931 34L32 34" stroke="#7E796E" stroke-width="2" stroke-linecap="round"/>
<path d="M30 31L39 31" stroke="#7E796E" stroke-width="2" stroke-linecap="round"/>
</g>
<defs>
<clipPath id="clip0_2226_64897">
<rect width="48" height="48" fill="white"/>
</clipPath>
</defs>
</svg>
