<svg width="48" height="48" viewBox="0 0 48 48" fill="none" xmlns="http://www.w3.org/2000/svg">
<path d="M14 6C14 5.44772 14.4477 5 15 5H31C31.5523 5 32 5.44772 32 6V26H14V6Z" fill="#E4DDCD"/>
<path d="M14 27H32V42C32 42.5523 31.5523 43 31 43H15C14.4477 43 14 42.5523 14 42V27Z" fill="#E4DDCD"/>
<circle cx="23" cy="14" r="5" stroke="#7E796E" stroke-width="2"/>
<path d="M32 30.5H28C25.7909 30.5 24 32.2909 24 34.5C24 36.7091 25.7909 38.5 28 38.5H28.1953" stroke="#7E796E" stroke-width="2" stroke-linecap="round"/>
<path d="M33 38.5H37C39.2091 38.5 41 36.7091 41 34.5V34.1094C41 32.116 39.384 30.5 37.3906 30.5" stroke="#7E796E" stroke-width="2" stroke-linecap="round"/>
<path d="M33 29L34 30.5L33 32" stroke="#7E796E" stroke-width="2" stroke-linecap="round" stroke-linejoin="round"/>
<path d="M32 37L31 38.5L32 40" stroke="#7E796E" stroke-width="2" stroke-linecap="round" stroke-linejoin="round"/>
</svg>
