<svg width="48" height="48" viewBox="0 0 48 48" fill="none" xmlns="http://www.w3.org/2000/svg">
<path d="M7.0752 20.4482H7.07715C6.93522 20.8738 6.99388 21.3263 7.25977 21.7031L7.27051 21.7188L7.28223 21.7344C7.55385 22.0896 7.95862 22.2969 8.41699 22.2969H9.04688C9.42975 22.2968 9.79036 22.177 10.0967 21.9473L10.1094 21.9375L10.1211 21.9277C10.4184 21.6899 10.6303 21.3707 10.7256 20.9912L10.7266 20.9922L10.7959 20.7168H11.3975L11.4668 20.9912C11.5621 21.3708 11.7749 21.6898 12.0723 21.9277L12.084 21.9375L12.0967 21.9473C12.403 22.1769 12.7636 22.2969 13.1465 22.2969H13.8164C14.1926 22.2969 14.5353 22.1528 14.7959 21.8936C15.0784 22.1476 15.4365 22.2968 15.8369 22.2969H16.5771C17.0005 22.2969 17.3828 22.1299 17.6729 21.833L17.6738 21.834C17.6764 21.8315 17.6782 21.8277 17.6807 21.8252C17.6851 21.8206 17.6909 21.8172 17.6953 21.8125L17.6943 21.8115C17.9729 21.5228 18.1367 21.1477 18.1367 20.7266V18.2969H41C41.5523 18.2969 42 18.7446 42 19.2969V33.2969C42 33.8492 41.5523 34.2969 41 34.2969H7C6.44772 34.2969 6 33.8492 6 33.2969V19.2969C6 18.7446 6.44772 18.2969 7 18.2969H7.77441L7.0752 20.4482ZM14.207 20.7568L14.2295 20.8555C14.2393 20.9515 14.2114 21.0421 14.1465 21.127C14.0665 21.2402 13.9564 21.2969 13.8164 21.2969H13.1465C12.9798 21.2969 12.8296 21.2465 12.6963 21.1465C12.5632 21.0399 12.4765 20.9068 12.4365 20.7471L12.1963 19.7969C12.1896 19.7436 12.1566 19.7168 12.0967 19.7168H10.0967L10.0605 19.7217C10.0279 19.7316 10.0061 19.7568 9.99609 19.7969L9.75684 20.7471C9.71682 20.907 9.62939 21.0398 9.49609 21.1465C9.39601 21.2215 9.28683 21.2684 9.16797 21.2871L9.04688 21.2969H8.41699L8.31641 21.2861C8.22148 21.2649 8.14113 21.2119 8.07617 21.127C7.99626 21.0137 7.97973 20.8901 8.02637 20.7568L8.8252 18.2969H10.3691L10.3564 18.3467C10.3498 18.3667 10.3529 18.3872 10.3662 18.4072C10.3762 18.4139 10.3865 18.4185 10.3965 18.4219L10.4268 18.4268H11.7666C11.7765 18.4268 11.7856 18.4252 11.7939 18.4219L11.8164 18.4072C11.8264 18.3972 11.8336 18.387 11.8369 18.377V18.3467L11.8242 18.2969H13.4121L14.207 20.7568ZM17.1367 20.7266C17.1367 20.8799 17.0801 21.0136 16.9668 21.127C16.8602 21.2401 16.7304 21.2969 16.5771 21.2969H15.8369C15.6838 21.2968 15.5507 21.2401 15.4375 21.127C15.3574 21.0419 15.3071 20.9455 15.2871 20.8379L15.2773 20.7266V18.2969H17.1367V20.7266Z" fill="#E4DDCD"/>
<path d="M11 34.2969C11 32.0877 12.7909 30.2969 15 30.2969H33C35.2091 30.2969 37 32.0877 37 34.2969H11Z" fill="#7E796E"/>
<circle cx="18" cy="24.2969" r="1" fill="#7E796E"/>
<path d="M22 24.2969H30" stroke="#7E796E" stroke-width="2" stroke-linecap="round"/>
<path d="M15.8371 21.3C15.6838 21.3 15.5504 21.2433 15.4371 21.13C15.3304 21.0167 15.2771 20.8833 15.2771 20.73V14.57C15.2771 14.4167 15.3304 14.2833 15.4371 14.17C15.5504 14.0567 15.6838 14 15.8371 14H16.5771C16.7304 14 16.8604 14.0567 16.9671 14.17C17.0804 14.2833 17.1371 14.4167 17.1371 14.57V20.73C17.1371 20.8833 17.0804 21.0167 16.9671 21.13C16.8604 21.2433 16.7304 21.3 16.5771 21.3H15.8371Z" fill="#504323"/>
<path d="M11.0865 15.48L10.3565 18.35C10.3499 18.37 10.3532 18.39 10.3665 18.41C10.3865 18.4233 10.4065 18.43 10.4265 18.43H11.7665C11.7865 18.43 11.8032 18.4233 11.8165 18.41C11.8365 18.39 11.8432 18.37 11.8365 18.35L11.1065 15.48C11.1065 15.4733 11.1032 15.47 11.0965 15.47C11.0899 15.47 11.0865 15.4733 11.0865 15.48ZM8.41652 21.3C8.27652 21.3 8.16319 21.2433 8.07652 21.13C7.99652 21.0167 7.97986 20.8933 8.02652 20.76L10.0465 14.54C10.0999 14.38 10.1932 14.25 10.3265 14.15C10.4665 14.05 10.6199 14 10.7865 14H11.4465C11.6199 14 11.7765 14.05 11.9165 14.15C12.0565 14.25 12.1499 14.38 12.1965 14.54L14.2065 20.76C14.2532 20.8933 14.2332 21.0167 14.1465 21.13C14.0665 21.2433 13.9565 21.3 13.8165 21.3H13.1465C12.9799 21.3 12.8299 21.25 12.6965 21.15C12.5632 21.0433 12.4765 20.91 12.4365 20.75L12.1965 19.8C12.1899 19.7467 12.1565 19.72 12.0965 19.72H10.0965C10.0432 19.72 10.0099 19.7467 9.99652 19.8L9.75652 20.75C9.71652 20.91 9.62986 21.0433 9.49652 21.15C9.36319 21.25 9.21319 21.3 9.04652 21.3H8.41652Z" fill="#504323"/>
<path d="M20.9062 13.5948C20.8619 13.3359 20.767 13.0883 20.6269 12.8661C20.4869 12.6439 20.3045 12.4514 20.09 12.2998C19.8756 12.1481 19.6334 12.0401 19.3773 11.982C19.1212 11.9239 18.8561 11.9168 18.5972 11.9612" stroke="#7E796E" stroke-width="2" stroke-linecap="round"/>
<path d="M23.8528 13.0831C23.7419 12.436 23.5046 11.817 23.1545 11.2615C22.8044 10.706 22.3484 10.2249 21.8123 9.84566C21.2763 9.46644 20.6708 9.1965 20.0305 9.05127C19.3901 8.90604 18.7275 8.88836 18.0803 8.99923" stroke="#7E796E" stroke-width="2" stroke-linecap="round"/>
</svg>
