<svg width="48" height="48" viewBox="0 0 48 48" fill="none" xmlns="http://www.w3.org/2000/svg">
<path d="M32 5C32.5523 5 33 5.44772 33 6V42C33 42.5523 32.5523 43 32 43H16C15.4477 43 15 42.5523 15 42V36.999H15.4062C15.845 36.999 16.2403 36.8258 16.541 36.5176L16.543 36.5195C16.8457 36.2168 17.0224 35.819 17.0225 35.3721V28.5957C17.0224 28.1591 16.8526 27.7707 16.5625 27.4707H16.5635C16.56 27.467 16.5562 27.4636 16.5527 27.46C16.5493 27.4565 16.5464 27.4526 16.543 27.4492H16.542C16.2413 27.1411 15.8449 26.9688 15.4062 26.9688H15V6C15 5.44772 15.4477 5 16 5H32ZM15.4062 27.9688C15.5749 27.9688 15.7186 28.0316 15.8359 28.1562C15.9604 28.2808 16.0224 28.4273 16.0225 28.5957V35.3721L16.0107 35.4941C15.9874 35.6125 15.9295 35.7189 15.8359 35.8125C15.7186 35.9371 15.5749 35.999 15.4062 35.999H15V27.9688H15.4062Z" fill="#E4DDCD"/>
<path d="M14.5926 36.0007C14.4239 36.0007 14.2772 35.9384 14.1526 35.8137C14.0352 35.689 13.9766 35.5424 13.9766 35.3737V28.5977C13.9766 28.429 14.0352 28.2824 14.1526 28.1577C14.2772 28.033 14.4239 27.9707 14.5926 27.9707H15.4066C15.5752 27.9707 15.7182 28.033 15.8356 28.1577C15.9602 28.2824 16.0226 28.429 16.0226 28.5977V35.3737C16.0226 35.5424 15.9602 35.689 15.8356 35.8137C15.7182 35.9384 15.5752 36.0007 15.4066 36.0007H14.5926Z" fill="#504323"/>
<path d="M9.69906 29.5987L8.89606 32.7557C8.88872 32.7777 8.89239 32.7997 8.90706 32.8217C8.92906 32.8364 8.95106 32.8437 8.97306 32.8437H10.4471C10.4691 32.8437 10.4874 32.8364 10.5021 32.8217C10.5241 32.7997 10.5314 32.7777 10.5241 32.7557L9.72106 29.5987C9.72106 29.5914 9.71739 29.5877 9.71006 29.5877C9.70272 29.5877 9.69906 29.5914 9.69906 29.5987ZM6.76206 36.0007C6.60806 36.0007 6.48339 35.9384 6.38806 35.8137C6.30006 35.689 6.28172 35.5534 6.33306 35.4067L8.55506 28.5647C8.61372 28.3887 8.71639 28.2457 8.86306 28.1357C9.01706 28.0257 9.18572 27.9707 9.36906 27.9707H10.0951C10.2857 27.9707 10.4581 28.0257 10.6121 28.1357C10.7661 28.2457 10.8687 28.3887 10.9201 28.5647L13.1311 35.4067C13.1824 35.5534 13.1604 35.689 13.0651 35.8137C12.9771 35.9384 12.8561 36.0007 12.7021 36.0007H11.9651C11.7817 36.0007 11.6167 35.9457 11.4701 35.8357C11.3234 35.7184 11.2281 35.5717 11.1841 35.3957L10.9201 34.3507C10.9127 34.292 10.8761 34.2627 10.8101 34.2627H8.61006C8.55139 34.2627 8.51472 34.292 8.50006 34.3507L8.23606 35.3957C8.19206 35.5717 8.09672 35.7184 7.95006 35.8357C7.80339 35.9457 7.63839 36.0007 7.45506 36.0007H6.76206Z" fill="#504323"/>
<path d="M35.2108 26.8889C35.4381 26.56 35.7612 26.3036 36.1393 26.1522C36.5173 26.0009 36.9333 25.9613 37.3347 26.0384C37.736 26.1156 38.1047 26.3061 38.394 26.5858C38.6834 26.8655 38.8804 27.2219 38.9602 27.6098C39.0401 27.9978 38.9991 28.3999 38.8425 28.7654C38.6859 29.1308 38.4207 29.4432 38.0805 29.6629C37.7402 29.8827 37.3402 30 36.931 30L29 30" stroke="#7E796E" stroke-width="2" stroke-linecap="round"/>
<path d="M33.2108 39.1111C33.4381 39.44 33.7612 39.6964 34.1393 39.8478C34.5173 39.9991 34.9333 40.0387 35.3347 39.9616C35.736 39.8844 36.1047 39.6939 36.394 39.4142C36.6834 39.1345 36.8804 38.7781 36.9602 38.3902C37.0401 38.0022 36.9991 37.6001 36.8425 37.2346C36.6859 36.8692 36.4207 36.5568 36.0805 36.3371C35.7402 36.1173 35.3402 36 34.931 36L28 36" stroke="#7E796E" stroke-width="2" stroke-linecap="round"/>
<path d="M26 33L35 33" stroke="#7E796E" stroke-width="2" stroke-linecap="round"/>
<circle cx="24" cy="15" r="5" stroke="#7E796E" stroke-width="2"/>
</svg>
