<svg width="48" height="48" viewBox="0 0 48 48" fill="none" xmlns="http://www.w3.org/2000/svg">
<circle cx="23" cy="24" r="13" fill="#E4DDCD"/>
<path d="M23.3057 16.2285C23.6995 15.8348 24.3377 15.8348 24.7314 16.2285C25.1252 16.6223 25.1251 17.2605 24.7314 17.6543L24.0166 18.3691V29.6328L24.7305 30.3477C25.1243 30.7415 25.1243 31.3796 24.7305 31.7734C24.3366 32.1671 23.6985 32.1672 23.3047 31.7734L23.0098 31.4785L22.7139 31.7734C22.3201 32.1672 21.6819 32.1672 21.2881 31.7734C20.8943 31.3796 20.8943 30.7415 21.2881 30.3477L22 29.6357V18.3652L21.2891 17.6543C20.8952 17.2605 20.8952 16.6223 21.2891 16.2285C21.6829 15.835 22.3211 15.8348 22.7148 16.2285L23.0098 16.5244L23.3057 16.2285Z" fill="#7E796E"/>
<path d="M29.8844 20.3694C30.4223 20.5135 30.7414 21.0662 30.5973 21.6041C30.453 22.1419 29.9003 22.4612 29.3625 22.317L28.3909 22.056L18.6278 27.6927L18.3672 28.6652C18.223 29.203 17.6703 29.522 17.1324 29.3781C16.5945 29.2339 16.2754 28.6813 16.4195 28.1433L16.527 27.7396L16.1241 27.6316C15.5861 27.4875 15.2666 26.934 15.4107 26.396C15.5551 25.8583 16.1077 25.5391 16.6455 25.6831L17.6207 25.9444L27.3804 20.3097L27.6408 19.335C27.785 18.7972 28.3378 18.4783 28.8756 18.6221C29.4136 18.7663 29.7331 19.3197 29.589 19.8577L29.481 20.2606L29.8844 20.3694Z" fill="#7E796E"/>
<path d="M29.5805 28.1423C29.7243 28.6801 29.4053 29.2329 28.8676 29.3771C28.3297 29.5212 27.7762 29.2017 27.632 28.6637L27.3723 27.6917L17.6134 22.0574L16.6369 22.3191C16.0991 22.463 15.5463 22.1441 15.4022 21.6062C15.2581 21.0683 15.5773 20.5157 16.1151 20.3714L16.5193 20.2631L16.4105 19.8598C16.2663 19.3218 16.5859 18.7683 17.1239 18.6242C17.6616 18.4801 18.2143 18.7994 18.3586 19.337L18.6188 20.3082L28.3794 25.9435L29.3537 25.6817C29.8917 25.5376 30.4452 25.8571 30.5893 26.3951C30.7334 26.933 30.4139 27.4865 29.8759 27.6307L29.4722 27.7381L29.5805 28.1423Z" fill="#7E796E"/>
<path d="M40.5536 16.8547L39.3621 19.42L36.7969 18.2285" stroke="#7E796E" stroke-width="2" stroke-linecap="round" stroke-linejoin="round"/>
<path d="M38.9109 18C36.4856 11.5719 30.2767 7 23 7C13.6112 7 6 14.6112 6 24C6 33.3888 13.6112 41 23 41C26.4758 41 29.7079 39.9569 32.4004 38.1667" stroke="#7E796E" stroke-width="2" stroke-linecap="round" stroke-linejoin="round"/>
<path d="M35.993 23.6666C36.1734 23.42 36.4299 23.2277 36.7299 23.1142C37.0299 23.0006 37.36 22.9709 37.6785 23.0288C37.997 23.0867 38.2895 23.2296 38.5191 23.4393C38.7487 23.6491 38.9051 23.9164 38.9685 24.2074C39.0318 24.4983 38.9993 24.7999 38.875 25.074C38.7508 25.3481 38.5403 25.5824 38.2703 25.7472C38.0003 25.912 37.6829 26 37.3582 26L34 26" stroke="#7E796E" stroke-width="2" stroke-linecap="round"/>
<path d="M35.993 34.3334C36.1734 34.58 36.4299 34.7723 36.7299 34.8858C37.0299 34.9994 37.36 35.0291 37.6785 34.9712C37.997 34.9133 38.2895 34.7704 38.5191 34.5607C38.7487 34.3509 38.9051 34.0836 38.9685 33.7926C39.0318 33.5017 38.9993 33.2001 38.875 32.926C38.7508 32.6519 38.5403 32.4176 38.2703 32.2528C38.0003 32.088 37.6829 32 37.3582 32L33 32" stroke="#7E796E" stroke-width="2" stroke-linecap="round"/>
<path d="M41.1581 26.6666C41.3286 26.42 41.5709 26.2277 41.8545 26.1142C42.138 26.0006 42.45 25.9709 42.751 26.0288C43.052 26.0867 43.3285 26.2296 43.5455 26.4393C43.7625 26.6491 43.9103 26.9164 43.9702 27.2074C44.0301 27.4983 43.9993 27.7999 43.8819 28.074C43.7644 28.3481 43.5655 28.5824 43.3104 28.7472C43.0552 28.912 42.7552 29 42.4483 29C38.2215 29 37.2268 29 33 29" stroke="#7E796E" stroke-width="2" stroke-linecap="round"/>
</svg>
