<svg width="48" height="48" viewBox="0 0 48 48" fill="none" xmlns="http://www.w3.org/2000/svg">
<path d="M38.666 32.5C38.9419 32.0217 39.5538 31.8581 40.0322 32.1338C40.5104 32.4097 40.6741 33.0207 40.3984 33.499C39.0526 35.8339 37.226 37.8552 35.04 39.4287C32.854 41.0022 30.3587 42.092 27.7197 42.625C25.0808 43.158 22.3585 43.1225 19.7344 42.5205C17.6563 42.0437 15.6783 41.2186 13.8799 40.0869L13.9619 40.667C14.0389 41.2139 13.6572 41.7199 13.1104 41.7969C12.5636 41.8737 12.0585 41.493 11.9814 40.9463L11.5684 38.0156C11.493 37.4803 11.8569 36.982 12.3896 36.8906L15.1904 36.4111C15.7348 36.3179 16.2525 36.6832 16.3457 37.2275C16.4389 37.7719 16.0726 38.2886 15.5283 38.3818L15.0537 38.4629C16.6333 39.4402 18.3649 40.1545 20.1816 40.5713C22.5287 41.1098 24.9639 41.1418 27.3242 40.665C29.6845 40.1883 31.9166 39.2132 33.8721 37.8057C35.8276 36.3981 37.4618 34.5893 38.666 32.5ZM14.0117 5.67871C14.2187 5.16669 14.8014 4.91907 15.3135 5.12598L18.0537 6.2334C18.5545 6.43605 18.8033 6.99998 18.6162 7.50684L17.6309 10.1768C17.4396 10.6947 16.8647 10.9597 16.3467 10.7686C15.8287 10.5773 15.5638 10.0024 15.7549 9.48438L15.9209 9.03223C14.2881 9.91353 12.8067 11.0583 11.5391 12.4248C9.89977 14.1919 8.65493 16.2887 7.88672 18.5752C7.11854 20.8617 6.84483 23.2859 7.08398 25.6865C7.32319 28.0872 8.06934 30.4098 9.27344 32.499C9.54921 32.9775 9.38564 33.5894 8.90723 33.8652C8.42877 34.141 7.81682 33.9764 7.54102 33.498C6.19523 31.1631 5.36106 28.5674 5.09375 25.8848C4.82653 23.2023 5.13188 20.4935 5.99023 17.9385C6.8487 15.3832 8.24093 13.0396 10.0732 11.0645C11.5252 9.49932 13.2284 8.19478 15.1074 7.2002L14.5635 6.98047C14.0516 6.77346 13.8049 6.19065 14.0117 5.67871ZM41.377 16.4502C41.6535 17.0898 41.8961 17.7451 42.1016 18.4141C42.7284 20.4553 43.0041 22.5838 42.9248 24.71L43.3838 24.3516C43.8185 24.0111 44.4465 24.0869 44.7871 24.5215C45.1277 24.9563 45.051 25.5852 44.6162 25.9258L42.2891 27.749C41.8628 28.0828 41.2479 28.0165 40.9023 27.5996L39.0869 25.4102C38.7346 24.9851 38.7938 24.3544 39.2188 24.002C39.6439 23.6495 40.2745 23.7086 40.627 24.1338L40.9307 24.5C40.9852 22.6423 40.7371 20.7843 40.1895 19.001C40.0116 18.422 39.8037 17.8542 39.5664 17.2998H40.1338C40.616 17.2998 41.0206 17.0555 41.2617 16.6719L41.2637 16.6729C41.2672 16.6674 41.269 16.6608 41.2725 16.6553C41.2764 16.6488 41.2823 16.6432 41.2861 16.6367L41.2842 16.6357C41.3203 16.5761 41.3503 16.5136 41.377 16.4502ZM35.6123 9C36.1683 9.43281 36.7005 9.89651 37.2061 10.3896L37.709 11.5986L37.7139 11.6094L37.7236 11.6201C37.7303 11.6201 37.7334 11.616 37.7334 11.6094L37.7373 11.5986L37.9287 11.1367C38.0197 11.2358 38.1112 11.3345 38.2002 11.4355C38.4626 11.7337 38.7145 12.0403 38.957 12.3535L38.874 12.5195C38.854 12.5728 38.854 12.6264 38.874 12.6797L40.4434 15.79C40.5034 15.9034 40.4972 16.0166 40.4238 16.1299C40.3572 16.2432 40.2604 16.2998 40.1338 16.2998H39.3643L39.2373 16.291C39.1799 16.2829 39.1247 16.2683 39.0713 16.249C38.7792 15.6781 38.4563 15.1234 38.1016 14.5889L37.6973 13.5986L37.6934 13.5898C37.6934 13.5832 37.6903 13.5801 37.6836 13.5801C37.6771 13.5802 37.6738 13.5833 37.6738 13.5898L37.5723 13.8369C37.296 13.4659 37.0049 13.1052 36.6982 12.7568C36.6484 12.7002 36.5974 12.6448 36.5469 12.5889C36.5457 12.5658 36.5428 12.5426 36.5342 12.5195L35.0137 9.50977C34.9538 9.39656 34.9569 9.28313 35.0234 9.16992C35.0735 9.08483 35.1428 9.03195 35.2305 9.01074L35.3242 9H35.6123ZM33.4209 9.01074C33.527 9.03205 33.6203 9.08504 33.7002 9.16992C33.8133 9.28309 33.87 9.4163 33.8701 9.56934V10.1943C33.3467 9.81768 32.8021 9.47046 32.2383 9.15527C32.3677 9.07426 32.5126 9.02424 32.6738 9.00684L32.8096 9H33.3096L33.4209 9.01074ZM23.9697 5C26.6617 5 29.3229 5.57402 31.7764 6.68359C32.6164 7.06355 33.4248 7.50475 34.1973 8H32.8096C32.2052 8.00008 31.678 8.23353 31.2842 8.66113C31.174 8.60842 31.0635 8.55623 30.9521 8.50586C28.7576 7.51339 26.3774 7 23.9697 7C23.4175 6.99993 22.9697 6.55224 22.9697 6C22.9697 5.44776 23.4175 5.00007 23.9697 5Z" fill="#7E796E"/>
<path d="M24 11C25.7401 11 27.4001 11.3426 28.917 11.9629L28.5146 12.5312L28.5117 12.5352C28.1768 13.0122 28 13.5552 28 14.1396V14.3301C28.0001 14.7422 28.1534 15.1194 28.4316 15.415L28.4531 15.4365C28.7445 15.7279 29.1281 15.8993 29.5596 15.8994H31.2588C31.295 16.2453 31.442 16.5608 31.6816 16.8154L31.7031 16.8369C31.9944 17.1281 32.3781 17.2997 32.8096 17.2998H33.3096C33.7331 17.2998 34.1162 17.133 34.4062 16.8359L34.4072 16.8369C34.4141 16.8298 34.4209 16.8226 34.4277 16.8154L34.4268 16.8145C34.5099 16.7283 34.5814 16.6337 34.6426 16.5332C36.1277 18.6461 37 21.2211 37 24C37 31.1797 31.1797 37 24 37C16.8203 37 11 31.1797 11 24C11 16.8203 16.8203 11 24 11ZM29.8438 12.3848C30.2044 12.5666 30.5551 12.7651 30.8955 12.9785L30.5 13.5498V13.5596L30.5098 13.5693H31.7598C32.5351 14.1471 33.2416 14.811 33.8701 15.5439V15.7295L33.8594 15.8408C33.8382 15.9484 33.7852 16.0448 33.7002 16.1299C33.5935 16.2432 33.4629 16.2998 33.3096 16.2998H32.8096C32.6564 16.2997 32.5234 16.243 32.4102 16.1299C32.3035 16.0165 32.25 15.8828 32.25 15.7295V14.9902C32.25 14.9303 32.22 14.8995 32.1602 14.8994H29.5596C29.4064 14.8993 29.2734 14.8427 29.1602 14.7295C29.0536 14.6162 29.0001 14.4833 29 14.3301V14.1396C29 13.7664 29.1101 13.4227 29.3301 13.1094L29.8438 12.3848Z" fill="#E4DDCD"/>
<path d="M35.2745 16.3C35.1412 16.3 35.0412 16.2433 34.9745 16.13C34.9078 16.0167 34.9045 15.9033 34.9645 15.79L36.5345 12.68C36.5545 12.6267 36.5545 12.5733 36.5345 12.52L35.0145 9.51C34.9545 9.39667 34.9578 9.28333 35.0245 9.17C35.0912 9.05667 35.1912 9 35.3245 9H36.0545C36.2278 9 36.3845 9.04667 36.5245 9.14C36.6712 9.23333 36.7778 9.36 36.8445 9.52L37.7145 11.61C37.7145 11.6167 37.7178 11.62 37.7245 11.62C37.7312 11.62 37.7345 11.6167 37.7345 11.61L38.6045 9.52C38.6712 9.36 38.7745 9.23333 38.9145 9.14C39.0612 9.04667 39.2212 9 39.3945 9H40.0845C40.2112 9 40.3078 9.05667 40.3745 9.17C40.4478 9.28333 40.4545 9.39667 40.3945 9.51L38.8745 12.52C38.8545 12.5733 38.8545 12.6267 38.8745 12.68L40.4445 15.79C40.5045 15.9033 40.4978 16.0167 40.4245 16.13C40.3578 16.2433 40.2612 16.3 40.1345 16.3H39.3645C39.1912 16.3 39.0345 16.2533 38.8945 16.16C38.7545 16.06 38.6512 15.93 38.5845 15.77L37.6945 13.59C37.6945 13.5833 37.6912 13.58 37.6845 13.58C37.6778 13.58 37.6745 13.5833 37.6745 13.59L36.7845 15.77C36.7178 15.93 36.6112 16.06 36.4645 16.16C36.3245 16.2533 36.1712 16.3 36.0045 16.3H35.2745Z" fill="#504323"/>
<path d="M30.5 13.55V13.56C30.5 13.5667 30.5033 13.57 30.51 13.57H32.16C32.22 13.57 32.25 13.5433 32.25 13.49V11.07C32.25 11.0633 32.2467 11.06 32.24 11.06C32.2267 11.06 32.22 11.0633 32.22 11.07L30.5 13.55ZM29.56 14.9C29.4067 14.9 29.2733 14.8433 29.16 14.73C29.0533 14.6167 29 14.4833 29 14.33V14.14C29 13.7667 29.11 13.4233 29.33 13.11L31.92 9.46C32.14 9.15333 32.4367 9 32.81 9H33.31C33.4633 9 33.5933 9.05667 33.7 9.17C33.8133 9.28333 33.87 9.41667 33.87 9.57V13.49C33.87 13.5433 33.9 13.57 33.96 13.57H34.36C34.5133 13.57 34.6467 13.6267 34.76 13.74C34.8733 13.8533 34.93 13.9867 34.93 14.14V14.33C34.93 14.4833 34.8733 14.6167 34.76 14.73C34.6467 14.8433 34.5133 14.9 34.36 14.9H33.96C33.9 14.9 33.87 14.93 33.87 14.99V15.73C33.87 15.8833 33.8133 16.0167 33.7 16.13C33.5933 16.2433 33.4633 16.3 33.31 16.3H32.81C32.6567 16.3 32.5233 16.2433 32.41 16.13C32.3033 16.0167 32.25 15.8833 32.25 15.73V14.99C32.25 14.93 32.22 14.9 32.16 14.9H29.56Z" fill="#504323"/>
<path d="M24.3125 16.2285C24.7062 15.835 25.3445 15.8351 25.7383 16.2285C26.1321 16.6223 26.1321 17.2614 25.7383 17.6553L25.0234 18.3701V29.6328L25.7383 30.3477C26.1319 30.7414 26.1317 31.3796 25.7383 31.7734C25.3445 32.1673 24.7054 32.1673 24.3115 31.7734L24.0166 31.4785L23.7207 31.7734C23.3269 32.1673 22.6887 32.1673 22.2949 31.7734C21.9014 31.3796 21.9012 30.7414 22.2949 30.3477L23.0068 29.6357V18.3662L22.2959 17.6553C21.9021 17.2614 21.9021 16.6223 22.2959 16.2285C22.6897 15.8351 23.3279 15.835 23.7217 16.2285L24.0176 16.5244L24.3125 16.2285Z" fill="#7E796E"/>
<path d="M30.8922 20.3694C31.4301 20.5136 31.7492 21.0662 31.6051 21.6041C31.4609 22.142 30.9082 22.4611 30.3703 22.317L29.3978 22.0565L19.6356 27.6927L19.375 28.6652C19.2308 29.2032 18.6774 29.5227 18.1394 29.3786C17.6017 29.2344 17.2827 28.6816 17.4265 28.1438L17.5348 27.7396L17.1311 27.6321C16.5931 27.488 16.2736 26.9345 16.4177 26.3965C16.5619 25.8585 17.1153 25.539 17.6533 25.6831L18.6298 25.9448L28.387 20.3115L28.6486 19.335C28.7929 18.7973 29.3456 18.4782 29.8834 18.6221C30.4214 18.7663 30.7409 19.3197 30.5968 19.8577L30.4888 20.2606L30.8922 20.3694Z" fill="#7E796E"/>
<path d="M30.5875 28.1418C30.7316 28.6798 30.4126 29.2325 29.8746 29.3766C29.3367 29.5206 28.784 29.2016 28.6398 28.6637L28.3801 27.6917L18.6213 22.0574L17.6448 22.3191C17.1068 22.4631 16.5541 22.1441 16.41 21.6062C16.2659 21.0683 16.585 20.5156 17.1229 20.3714L17.5271 20.2631L17.4183 19.8598C17.2742 19.3219 17.5934 18.7693 18.1312 18.625C18.6692 18.4809 19.2218 18.7999 19.366 19.3379L19.627 20.3095L29.3859 25.9438L30.361 25.6825C30.899 25.5384 31.4516 25.8575 31.5958 26.3954C31.7399 26.9334 31.4209 27.486 30.8829 27.6302L30.48 27.7381L30.5875 28.1418Z" fill="#7E796E"/>
</svg>
