<svg width="48" height="48" viewBox="0 0 48 48" fill="none" xmlns="http://www.w3.org/2000/svg">
<circle cx="24" cy="24" r="13" fill="#E4DDCD"/>
<path d="M32.532 8.49026C33.8639 7.06966 36.1556 7.19524 37.324 8.75296C37.7377 9.30447 38.5446 9.36152 39.032 8.87405L39.7928 8.11331C40.1833 7.72279 40.8163 7.72279 41.2068 8.11331C41.5974 8.50384 41.5974 9.13685 41.2068 9.52737L40.4461 10.2881C39.0981 11.6362 36.8684 11.4782 35.7244 9.95315C35.3021 9.38999 34.4737 9.34422 33.992 9.85745L33.2293 10.6709C32.8517 11.0737 32.2191 11.0942 31.8162 10.7168C31.4133 10.3391 31.3926 9.70568 31.7703 9.30276L32.532 8.49026Z" fill="#7E796E"/>
<path d="M34.532 12.4903C35.8639 11.0697 38.1556 11.1952 39.324 12.753C39.7377 13.3045 40.5446 13.3615 41.032 12.8741L41.7928 12.1133C42.1833 11.7228 42.8163 11.7228 43.2068 12.1133C43.5974 12.5038 43.5974 13.1368 43.2068 13.5274L42.4461 14.2881C41.0981 15.6362 38.8684 15.4782 37.7244 13.9532C37.3021 13.39 36.4737 13.3442 35.992 13.8575L35.2293 14.6709C34.8517 15.0737 34.2191 15.0942 33.8162 14.7168C33.4133 14.3391 33.3926 13.7057 33.7703 13.3028L34.532 12.4903Z" fill="#7E796E"/>
<path d="M38.666 32.5C38.9419 32.0217 39.5538 31.8581 40.0322 32.1338C40.5104 32.4097 40.6741 33.0207 40.3984 33.499C39.0526 35.8339 37.226 37.8552 35.04 39.4287C32.854 41.0022 30.3587 42.092 27.7197 42.625C25.0808 43.158 22.3585 43.1225 19.7344 42.5205C17.6563 42.0437 15.6783 41.2186 13.8799 40.0869L13.9619 40.667C14.0389 41.2139 13.6572 41.7199 13.1104 41.7969C12.5636 41.8737 12.0585 41.493 11.9814 40.9463L11.5684 38.0156C11.493 37.4803 11.8569 36.982 12.3896 36.8906L15.1904 36.4111C15.7348 36.3179 16.2525 36.6832 16.3457 37.2275C16.4389 37.7719 16.0726 38.2886 15.5283 38.3818L15.0537 38.4629C16.6333 39.4402 18.3649 40.1545 20.1816 40.5713C22.5287 41.1098 24.9639 41.1418 27.3242 40.665C29.6845 40.1883 31.9166 39.2132 33.8721 37.8057C35.8276 36.3981 37.4618 34.5893 38.666 32.5ZM14.0117 5.67871C14.2187 5.16669 14.8014 4.91907 15.3135 5.12598L18.0537 6.2334C18.5545 6.43605 18.8033 6.99998 18.6162 7.50684L17.6309 10.1768C17.4396 10.6947 16.8647 10.9597 16.3467 10.7686C15.8287 10.5773 15.5638 10.0024 15.7549 9.48438L15.9209 9.03223C14.2881 9.91353 12.8067 11.0583 11.5391 12.4248C9.89977 14.1919 8.65493 16.2887 7.88672 18.5752C7.11854 20.8617 6.84483 23.2859 7.08398 25.6865C7.32319 28.0872 8.06934 30.4098 9.27344 32.499C9.54921 32.9775 9.38564 33.5894 8.90723 33.8652C8.42877 34.141 7.81682 33.9764 7.54102 33.498C6.19523 31.1631 5.36106 28.5674 5.09375 25.8848C4.82653 23.2023 5.13188 20.4935 5.99023 17.9385C6.8487 15.3832 8.24093 13.0396 10.0732 11.0645C11.5252 9.49932 13.2284 8.19478 15.1074 7.2002L14.5635 6.98047C14.0516 6.77346 13.8049 6.19065 14.0117 5.67871ZM41.4199 16.5498C41.6787 17.1578 41.9068 17.7798 42.1016 18.4141C42.7284 20.4553 43.0041 22.5838 42.9248 24.71L43.3838 24.3516C43.8185 24.0111 44.4465 24.0869 44.7871 24.5215C45.1277 24.9563 45.051 25.5852 44.6162 25.9258L42.2891 27.749C41.8628 28.0828 41.2479 28.0165 40.9023 27.5996L39.0869 25.4102C38.7346 24.9851 38.7938 24.3544 39.2188 24.002C39.6439 23.6495 40.2745 23.7086 40.627 24.1338L40.9307 24.5C40.9852 22.6423 40.7371 20.7843 40.1895 19.001C39.9357 18.1748 39.619 17.3718 39.2451 16.5977C39.9601 16.7527 40.7067 16.7381 41.4199 16.5498ZM36.2324 12.251C37.1429 12.6855 38.172 12.8095 39.1543 12.6113C39.757 13.4175 40.2939 14.2696 40.7607 15.1592C39.6487 15.3483 38.4615 14.9344 37.7246 13.9521C37.6527 13.8563 37.5683 13.7766 37.4766 13.7109C37.2287 13.3844 36.9699 13.0655 36.6982 12.7568C36.5466 12.5846 36.3906 12.4166 36.2324 12.251ZM33.7129 7.69922C34.8154 8.36022 35.8489 9.13072 36.7959 10.001C36.4774 10.0021 36.159 10.036 35.8457 10.1025C35.8045 10.0539 35.7634 10.0039 35.7246 9.95215C35.3022 9.38941 34.4738 9.3435 33.9922 9.85645L33.7529 10.1104C33.1978 9.71796 32.6191 9.3588 32.0195 9.03516L32.5322 8.48926C32.8742 8.12458 33.2797 7.86202 33.7129 7.69922ZM23.9697 5C26.6617 5 29.3229 5.57402 31.7764 6.68359C31.8976 6.73841 32.0178 6.79525 32.1377 6.85254C31.8902 7.02875 31.6547 7.23125 31.4375 7.46289L30.6758 8.27539C30.6518 8.30092 30.6301 8.32825 30.6074 8.35449C28.5094 7.46121 26.2519 7 23.9697 7C23.4175 6.99993 22.9697 6.55224 22.9697 6C22.9697 5.44776 23.4175 5.00007 23.9697 5Z" fill="#7E796E"/>
<path d="M27.728 28.49C27.5287 28.49 27.3553 28.4163 27.208 28.269C27.0693 28.1217 27 27.9483 27 27.749V19.741C27 19.5417 27.0693 19.3683 27.208 19.221C27.3553 19.0737 27.5287 19 27.728 19H28.69C28.8893 19 29.0583 19.0737 29.197 19.221C29.3443 19.3683 29.418 19.5417 29.418 19.741V27.749C29.418 27.9483 29.3443 28.1217 29.197 28.269C29.0583 28.4163 28.8893 28.49 28.69 28.49H27.728Z" fill="#504323"/>
<path d="M22.0115 20.924L21.0625 24.655C21.0539 24.681 21.0582 24.707 21.0755 24.733C21.1015 24.7503 21.1275 24.759 21.1535 24.759H22.8955C22.9215 24.759 22.9432 24.7503 22.9605 24.733C22.9865 24.707 22.9952 24.681 22.9865 24.655L22.0375 20.924C22.0375 20.9153 22.0332 20.911 22.0245 20.911C22.0159 20.911 22.0115 20.9153 22.0115 20.924ZM18.5405 28.49C18.3585 28.49 18.2112 28.4163 18.0985 28.269C17.9945 28.1217 17.9729 27.9613 18.0335 27.788L20.6595 19.702C20.7289 19.494 20.8502 19.325 21.0235 19.195C21.2055 19.065 21.4049 19 21.6215 19H22.4795C22.7049 19 22.9085 19.065 23.0905 19.195C23.2725 19.325 23.3939 19.494 23.4545 19.702L26.0675 27.788C26.1282 27.9613 26.1022 28.1217 25.9895 28.269C25.8855 28.4163 25.7425 28.49 25.5605 28.49H24.6895C24.4729 28.49 24.2779 28.425 24.1045 28.295C23.9312 28.1563 23.8185 27.983 23.7665 27.775L23.4545 26.54C23.4459 26.4707 23.4025 26.436 23.3245 26.436H20.7245C20.6552 26.436 20.6119 26.4707 20.5945 26.54L20.2825 27.775C20.2305 27.983 20.1179 28.1563 19.9445 28.295C19.7712 28.425 19.5762 28.49 19.3595 28.49H18.5405Z" fill="#504323"/>
</svg>
