<svg width="35" height="35" viewBox="0 0 35 35" fill="none" xmlns="http://www.w3.org/2000/svg">
<rect width="35" height="35" rx="17.5" fill="#EA1917"/>
<path d="M15.5981 18.5456C15.6119 16.1146 16.268 15.3688 17.4351 14.6367C18.2845 14.0981 18.9337 13.4903 18.9337 12.5787C18.9337 11.6119 18.1671 10.9765 17.221 10.9765C16.3163 10.9765 15.4669 11.5843 15.4185 12.7238H12.6492C12.7044 9.98204 14.7486 8.66298 17.2348 8.66298C19.9696 8.66298 21.8964 10.0787 21.8964 12.4889C21.8964 14.0981 21.0677 15.1202 19.7762 15.8936C18.6782 16.5497 18.1948 17.1851 18.1809 18.5456V18.7666H15.5981V18.5456ZM15.308 21.5359C15.2942 20.6381 16.0401 19.9061 16.9448 19.9061C17.8218 19.9061 18.5815 20.6381 18.5884 21.5359C18.5815 22.4406 17.8218 23.1727 16.9448 23.1727C16.0401 23.1727 15.2942 22.4406 15.308 21.5359Z" fill="white"/>
</svg>
