<svg width="48" height="48" viewBox="0 0 48 48" fill="none" xmlns="http://www.w3.org/2000/svg">
<path d="M26.75 5C20.4987 8.43812 21.25 18.125 21.25 18.125C21.25 18.125 18.5 17.25 18.5 13.3125C15.2191 15.1285 13 18.619 13 22.5C13 28.299 17.9249 33 24 33C30.0751 33 35 28.299 35 22.5C34.9999 13.9688 26.75 12.2187 26.75 5Z" fill="#E4DDCD"/>
<path d="M25.875 17C22.7494 18.7191 23.125 23.5625 23.125 23.5625C23.125 23.5625 21.75 23.125 21.75 21.1563C20.1095 22.0643 19 23.8095 19 25.75C19 28.6495 21.4624 31 24.5 31C27.5376 31 30 28.6495 30 25.75C30 21.4844 25.875 20.6094 25.875 17Z" fill="#EFEBE1"/>
<path d="M13 38C13 39.6569 11.6569 41 10 41C8.34315 41 7 39.6569 7 38C7 36.3431 8.34315 35 10 35C11.6569 35 13 36.3431 13 38Z" fill="#7E796E"/>
<path d="M12.2314 36C12.7077 36.531 13 37.2305 13 38C13 38.7695 12.7077 39.469 12.2314 40H10C8.89543 40 8 39.1046 8 38C8 36.8954 8.89543 36 10 36H12.2314ZM40 36C41.1046 36 42 36.8954 42 38C42 39.1046 41.1046 40 40 40H13.4639C13.8044 39.4116 14 38.7288 14 38C14 37.2712 13.8044 36.5884 13.4639 36H40Z" fill="#7E796E"/>
<rect x="17" y="37" width="4" height="2" rx="1" fill="white"/>
<rect x="23" y="37" width="4" height="2" rx="1" fill="white"/>
<rect x="29" y="37" width="4" height="2" rx="1" fill="white"/>
<rect x="35" y="37" width="4" height="2" rx="1" fill="white"/>
</svg>
