<svg width="48" height="48" viewBox="0 0 48 48" fill="none" xmlns="http://www.w3.org/2000/svg">
<path d="M6.29192 21.3979C6.00583 21.0893 5.92176 20.6396 6.0765 20.2455L9.83086 10.6847C9.99324 10.2712 10.3864 10 10.8236 10H37.1764C37.6136 10 38.0068 10.2712 38.1691 10.6847L41.9235 20.2455C42.0782 20.6396 41.9942 21.0893 41.7081 21.3979L24.7774 39.6587C24.3554 40.1138 23.6446 40.1138 23.2226 39.6587L6.29192 21.3979Z" fill="#E4DDCD"/>
<path d="M36.2133 15.9297C36.3003 15.6476 36.6997 15.6476 36.7867 15.9297L37.135 17.0593C37.1606 17.1422 37.2207 17.2099 37.2999 17.2451L38.3825 17.7258C38.6202 17.8313 38.6202 18.1687 38.3825 18.2742L37.2999 18.7549C37.2207 18.7901 37.1606 18.8578 37.135 18.9407L36.7867 20.0703C36.6997 20.3524 36.3003 20.3524 36.2133 20.0703L35.865 18.9407C35.8394 18.8578 35.7793 18.7901 35.7001 18.7549L34.6175 18.2742C34.3798 18.1687 34.3798 17.8313 34.6175 17.7258L35.7001 17.2451C35.7793 17.2099 35.8394 17.1422 35.865 17.0593L36.2133 15.9297Z" fill="#7E796E"/>
<path d="M40.7123 13.9717C40.7971 13.6853 41.2029 13.6853 41.2877 13.9717L41.5017 14.6946C41.5261 14.7774 41.5851 14.8455 41.6634 14.8818L42.4113 15.2277C42.6434 15.3351 42.6434 15.6649 42.4113 15.7723L41.6634 16.1182C41.5851 16.1545 41.5261 16.2226 41.5017 16.3054L41.2877 17.0283C41.2029 17.3147 40.7971 17.3147 40.7123 17.0283L40.4983 16.3054C40.4739 16.2226 40.4149 16.1545 40.3366 16.1182L39.5887 15.7723C39.3566 15.6649 39.3566 15.3351 39.5887 15.2277L40.3366 14.8818C40.4149 14.8455 40.4739 14.7774 40.4983 14.6946L40.7123 13.9717Z" fill="#7E796E"/>
<path d="M37.1156 7.33562C37.2266 6.9498 37.7734 6.9498 37.8844 7.33562L38.3955 9.11143C38.4272 9.22154 38.5046 9.31278 38.608 9.362L40.2408 10.1388C40.545 10.2835 40.545 10.7165 40.2408 10.8612L38.608 11.638C38.5046 11.6872 38.4272 11.7785 38.3955 11.8886L37.8844 13.6644C37.7734 14.0502 37.2266 14.0502 37.1156 13.6644L36.6045 11.8886C36.5728 11.7785 36.4954 11.6872 36.392 11.638L34.7592 10.8612C34.455 10.7165 34.455 10.2835 34.7592 10.1388L36.392 9.362C36.4954 9.31278 36.5728 9.22154 36.6045 9.11143L37.1156 7.33562Z" fill="#7E796E"/>
</svg>
