<svg width="48" height="48" viewBox="0 0 48 48" fill="none" xmlns="http://www.w3.org/2000/svg">
<path d="M8.03309 18.8436C8.11002 18.3578 8.52888 18 9.02079 18H38.9792C39.4711 18 39.89 18.3578 39.9669 18.8436L42.8169 36.8436C42.913 37.4507 42.4439 38 41.8292 38H6.17079C5.55614 38 5.08697 37.4507 5.18309 36.8436L8.03309 18.8436Z" fill="#E4DDCD"/>
<circle cx="11" cy="34" r="1" fill="#7E796E"/>
<circle cx="15" cy="34" r="1" fill="#7E796E"/>
<circle cx="33" cy="34" r="1" fill="#7E796E"/>
<circle cx="37" cy="34" r="1" fill="#7E796E"/>
<rect x="18" y="33" width="12" height="2" rx="1" fill="#7E796E"/>
<path d="M32 18.0857C32 22.3114 26.1063 25.8504 24.4363 26.7684C24.161 26.9197 23.839 26.9197 23.5637 26.7684C21.8937 25.8504 16 22.3114 16 18.0857C16 16.2255 16 13.62 16 12.3732C16 11.9422 16.2761 11.5615 16.6852 11.4259L23.6852 9.10439C23.8896 9.03661 24.1104 9.03661 24.3148 9.10439L31.3148 11.4259C31.7239 11.5615 32 11.9422 32 12.3732C32 13.62 32 16.2255 32 18.0857Z" fill="#D9D9D9"/>
<path d="M32 18.0857C32 22.3114 26.1063 25.8504 24.4363 26.7684C24.161 26.9197 23.839 26.9197 23.5637 26.7684C21.8937 25.8504 16 22.3114 16 18.0857C16 16.2255 16 13.62 16 12.3732C16 11.9422 16.2761 11.5615 16.6852 11.4259L23.6852 9.10439C23.8896 9.03661 24.1104 9.03661 24.3148 9.10439L31.3148 11.4259C31.7239 11.5615 32 11.9422 32 12.3732C32 13.62 32 16.2255 32 18.0857Z" fill="#7E796E"/>
<path d="M21 17.1429L23.1634 20L27 15" stroke="white" stroke-width="2" stroke-linecap="round" stroke-linejoin="round"/>
</svg>
