<svg width="48" height="48" viewBox="0 0 48 48" fill="none" xmlns="http://www.w3.org/2000/svg">
<path d="M8.03309 17.8436C8.11002 17.3578 8.52888 17 9.02079 17H38.9792C39.4711 17 39.89 17.3578 39.9669 17.8436L42.8169 35.8436C42.913 36.4507 42.4439 37 41.8292 37H6.17079C5.55614 37 5.08697 36.4507 5.18309 35.8436L8.03309 17.8436Z" fill="#E4DDCD"/>
<path d="M13.2133 17.9297C13.3003 17.6476 13.6997 17.6476 13.7867 17.9297L14.135 19.0593C14.1606 19.1422 14.2207 19.2099 14.2999 19.2451L15.3825 19.7258C15.6202 19.8313 15.6202 20.1687 15.3825 20.2742L14.2999 20.7549C14.2207 20.7901 14.1606 20.8578 14.135 20.9407L13.7867 22.0703C13.6997 22.3524 13.3003 22.3524 13.2133 22.0703L12.865 20.9407C12.8394 20.8578 12.7793 20.7901 12.7001 20.7549L11.6175 20.2742C11.3798 20.1687 11.3798 19.8313 11.6175 19.7258L12.7001 19.2451C12.7793 19.2099 12.8394 19.1422 12.865 19.0593L13.2133 17.9297Z" fill="#7E796E"/>
<path d="M7.71234 16.9717C7.79714 16.6853 8.20286 16.6853 8.28766 16.9717L8.50165 17.6946C8.52614 17.7774 8.58507 17.8455 8.66337 17.8818L9.41133 18.2277C9.64341 18.3351 9.64341 18.6649 9.41133 18.7723L8.66337 19.1182C8.58507 19.1545 8.52614 19.2226 8.50165 19.3054L8.28766 20.0283C8.20286 20.3147 7.79714 20.3147 7.71234 20.0283L7.49835 19.3054C7.47386 19.2226 7.41493 19.1545 7.33663 19.1182L6.58867 18.7723C6.35659 18.6649 6.35659 18.3351 6.58867 18.2277L7.33663 17.8818C7.41493 17.8455 7.47386 17.7774 7.49835 17.6946L7.71234 16.9717Z" fill="#7E796E"/>
<path d="M11.1156 10.3356C11.2266 9.9498 11.7734 9.9498 11.8844 10.3356L12.3955 12.1114C12.4272 12.2215 12.5046 12.3128 12.608 12.362L14.2408 13.1388C14.545 13.2835 14.545 13.7165 14.2408 13.8612L12.608 14.638C12.5046 14.6872 12.4272 14.7785 12.3955 14.8886L11.8844 16.6644C11.7734 17.0502 11.2266 17.0502 11.1156 16.6644L10.6045 14.8886C10.5728 14.7785 10.4954 14.6872 10.392 14.638L8.75922 13.8612C8.45502 13.7165 8.45502 13.2835 8.75922 13.1388L10.392 12.362C10.4954 12.3128 10.5728 12.2215 10.6045 12.1114L11.1156 10.3356Z" fill="#7E796E"/>
<circle cx="11" cy="33" r="1" fill="#7E796E"/>
<circle cx="15" cy="33" r="1" fill="#7E796E"/>
<circle cx="33" cy="33" r="1" fill="#7E796E"/>
<circle cx="37" cy="33" r="1" fill="#7E796E"/>
<rect x="18" y="32" width="12" height="2" rx="1" fill="#7E796E"/>
</svg>
