<svg width="40" height="40" viewBox="0 0 40 40" fill="none" xmlns="http://www.w3.org/2000/svg">
<path d="M19.9971 5C23.5776 5 26.5702 7.50949 27.3164 10.8652C30.6921 11.1931 33.3311 14.0382 33.3311 17.5C33.3311 21.1819 30.346 24.167 26.6641 24.167C25.3394 24.167 24.106 23.7785 23.0684 23.1123L19.9971 27.5L16.9258 23.1123C15.8883 23.7783 14.6554 24.1669 13.3311 24.167C9.64916 24.167 6.66406 21.1819 6.66406 17.5C6.66406 14.0384 9.30232 11.1934 12.6777 10.8652C13.4239 7.50952 16.4167 5.00015 19.9971 5Z" fill="#E4DDCD"/>
<path d="M5.83203 30.8337L6.83937 30.1696C7.74128 29.575 8.92693 29.645 9.7527 30.3414L9.84229 30.417C10.6984 31.1391 11.9503 31.1391 12.8064 30.417C13.6625 29.6949 14.9144 29.6949 15.7705 30.417C16.6266 31.1391 17.8785 31.1391 18.7346 30.417C19.5907 29.6949 20.8426 29.6949 21.6987 30.417C22.5548 31.1391 23.8067 31.1391 24.6628 30.417C25.5189 29.6949 26.7708 29.6949 27.6269 30.417C28.483 31.1391 29.7455 31.1301 30.6016 30.408C31.4511 29.6915 32.6987 29.6654 33.5679 30.3578L34.1654 30.8337" stroke="#7E796E" stroke-width="1.66667" stroke-linecap="round"/>
<path d="M5.83203 34.9997L6.83937 34.3356C7.74128 33.741 8.92693 33.811 9.7527 34.5074L9.84229 34.583C10.6984 35.3051 11.9503 35.3051 12.8064 34.583C13.6625 33.8609 14.9144 33.8609 15.7705 34.583C16.6266 35.3051 17.8785 35.3051 18.7346 34.583C19.5907 33.8609 20.8426 33.8609 21.6987 34.583C22.5548 35.3051 23.8067 35.3051 24.6628 34.583C25.5189 33.8609 26.7708 33.8609 27.6269 34.583C28.483 35.3051 29.7455 35.2961 30.6016 34.574C31.4511 33.8576 32.6987 33.8314 33.5679 34.5238L34.1654 34.9997" stroke="#7E796E" stroke-width="1.66667" stroke-linecap="round"/>
</svg>
