<svg width="48" height="48" viewBox="0 0 48 48" fill="none" xmlns="http://www.w3.org/2000/svg">
<path fill-rule="evenodd" clip-rule="evenodd" d="M14.8606 10.4323C14.6279 10.4833 14.421 10.6157 14.2772 10.8057L7 20.4199L12.3615 25.0577L14.3166 22.4259C14.0907 28.1654 13.4469 31.3764 11.6127 36.3962C11.4228 36.916 11.685 37.496 12.2068 37.6804C19.1826 40.1445 25.0212 40.5639 32.0418 39.324C32.3764 39.2649 32.6574 39.0355 32.7841 38.7203C35.2024 32.7077 35.9385 29.0586 36.3145 22.4298L37.6385 24.9727L43 20.3349L36.5426 10.8465C36.3963 10.6316 36.172 10.482 35.9173 10.4297L28.964 9C28.964 10.6694 27.3435 12.0226 25.3179 12.0226C23.2922 12.0226 21.4 10.6694 21.4 9L14.8606 10.4323Z" fill="#E4DDCD"/>
<path d="M16.9951 24.5L19.6499 25.7168C21.3928 26.5156 23.4236 26.3651 25.0297 25.3182C27.1317 23.948 29.8893 24.1468 31.7729 25.8045L31.9951 26" stroke="#7E796E" stroke-width="2"/>
<path d="M31.3994 23L33.208 25.3935L30.8145 27.2021" stroke="#7E796E" stroke-width="2" stroke-linecap="round" stroke-linejoin="round"/>
<path d="M18.7295 23L16.0034 24.2525L17.2559 26.9785" stroke="#7E796E" stroke-width="2" stroke-linecap="round" stroke-linejoin="round"/>
<path d="M11.6146 6.38882C11.723 5.99811 12.277 5.99811 12.3854 6.38882L12.7624 7.74711C12.7929 7.85688 12.8687 7.94845 12.9708 7.99886L14.2729 8.64128C14.5703 8.78799 14.5703 9.21201 14.2729 9.35872L12.9708 10.0011C12.8687 10.0515 12.7929 10.1431 12.7624 10.2529L12.3854 11.6112C12.277 12.0019 11.723 12.0019 11.6146 11.6112L11.2376 10.2529C11.2071 10.1431 11.1313 10.0515 11.0292 10.0011L9.72706 9.35872C9.4297 9.21201 9.4297 8.78799 9.72706 8.64128L11.0292 7.99886C11.1313 7.94845 11.2071 7.85688 11.2376 7.74711L11.6146 6.38882Z" fill="#7E796E"/>
<path d="M38.1156 31.3356C38.2266 30.9498 38.7734 30.9498 38.8844 31.3356L39.3955 33.1114C39.4272 33.2215 39.5046 33.3128 39.608 33.362L41.2408 34.1388C41.545 34.2835 41.545 34.7165 41.2408 34.8612L39.608 35.638C39.5046 35.6872 39.4272 35.7785 39.3955 35.8886L38.8844 37.6644C38.7734 38.0502 38.2266 38.0502 38.1156 37.6644L37.6045 35.8886C37.5728 35.7785 37.4954 35.6872 37.392 35.638L35.7592 34.8612C35.455 34.7165 35.455 34.2835 35.7592 34.1388L37.392 33.362C37.4954 33.3128 37.5728 33.2215 37.6045 33.1114L38.1156 31.3356Z" fill="#7E796E"/>
<path d="M8.11328 11.4631C8.21822 11.0661 8.78178 11.0661 8.88672 11.4631L9.12992 12.3833C9.15877 12.4924 9.2324 12.5843 9.33265 12.6362L10.3144 13.1448C10.6024 13.294 10.6024 13.706 10.3144 13.8552L9.33265 14.3638C9.2324 14.4157 9.15877 14.5076 9.12992 14.6167L8.88672 15.5369C8.78178 15.9339 8.21822 15.9339 8.11328 15.5369L7.87008 14.6167C7.84123 14.5076 7.7676 14.4157 7.66735 14.3638L6.6856 13.8552C6.39759 13.706 6.39759 13.294 6.68559 13.1448L7.66735 12.6362C7.7676 12.5843 7.84123 12.4924 7.87008 12.3833L8.11328 11.4631Z" fill="#7E796E"/>
</svg>
