<svg width="48" height="48" viewBox="0 0 48 48" fill="none" xmlns="http://www.w3.org/2000/svg">
<path d="M24 43C20.287 43 16.726 41.5659 14.1005 39.0132C11.475 36.4604 10 32.9982 10 29.3881C10 20.3134 24 5 24 5C24 5 38 20.3134 38 29.3881C38 32.9982 36.525 36.4604 33.8995 39.0132C31.274 41.5659 27.713 43 24 43Z" fill="#E4DDCD"/>
<path d="M40.6035 28.751V26.251H38.1035" stroke="#7E796E" stroke-width="2" stroke-linecap="round" stroke-linejoin="round"/>
<path d="M39 27.8548L38.117 28.692C37.0699 29.6848 35.4033 29.5921 34.4729 28.4893C33.5629 27.4108 31.9428 27.2945 30.8881 28.232L30 29.0215" stroke="#7E796E" stroke-width="2" stroke-linecap="round"/>
<path d="M40.6035 34.2725V31.7725H38.1035" stroke="#7E796E" stroke-width="2" stroke-linecap="round" stroke-linejoin="round"/>
<path d="M39 33.3763L38.117 34.2135C37.0699 35.2063 35.4033 35.1136 34.4729 34.0108C33.5629 32.9323 31.9428 32.816 30.8881 33.7535L30 34.543" stroke="#7E796E" stroke-width="2" stroke-linecap="round"/>
</svg>
