<svg width="48" height="48" viewBox="0 0 48 48" fill="none" xmlns="http://www.w3.org/2000/svg">
<path d="M7 38H41" stroke="#7E796E" stroke-width="2" stroke-linecap="round"/>
<rect x="14.7031" y="6" width="18" height="36" rx="1" fill="#E4DDCD"/>
<path d="M18.7031 13.5L24.7031 10" stroke="#7E796E" stroke-width="2" stroke-linecap="round"/>
<path d="M18.7031 17.5L27.7031 12.5" stroke="#7E796E" stroke-width="2" stroke-linecap="round"/>
<path d="M10.3177 30.3888C10.4261 29.9981 10.9801 29.9981 11.0886 30.3888L11.4655 31.7471C11.496 31.8569 11.5718 31.9485 11.674 31.9989L12.9761 32.6413C13.2734 32.788 13.2734 33.212 12.9761 33.3587L11.674 34.0011C11.5718 34.0515 11.496 34.1431 11.4655 34.2529L11.0886 35.6112C10.9801 36.0019 10.4261 36.0019 10.3177 35.6112L9.94073 34.2529C9.91027 34.1431 9.83445 34.0515 9.73228 34.0011L8.43019 33.3587C8.13283 33.212 8.13283 32.788 8.43019 32.6413L9.73228 31.9989C9.83445 31.9485 9.91027 31.8569 9.94073 31.7471L10.3177 30.3888Z" fill="#7E796E"/>
<path d="M36.8187 8.33562C36.9298 7.9498 37.4765 7.9498 37.5875 8.33562L38.0986 10.1114C38.1303 10.2215 38.2077 10.3128 38.3112 10.362L39.9439 11.1388C40.2481 11.2835 40.2481 11.7165 39.9439 11.8612L38.3112 12.638C38.2077 12.6872 38.1303 12.7785 38.0986 12.8886L37.5875 14.6644C37.4765 15.0502 36.9298 15.0502 36.8187 14.6644L36.3076 12.8886C36.276 12.7785 36.1986 12.6872 36.0951 12.638L34.4623 11.8612C34.1581 11.7165 34.1581 11.2835 34.4623 11.1388L36.0951 10.362C36.1986 10.3128 36.276 10.2215 36.3076 10.1114L36.8187 8.33562Z" fill="#7E796E"/>
</svg>
