<svg width="48" height="48" viewBox="0 0 48 48" fill="none" xmlns="http://www.w3.org/2000/svg">
<path d="M27 6C27.5523 6 28 6.44772 28 7V26C28 26.5523 27.5523 27 27 27H23C16.5 27 16 31.3333 16 34V41C16 41.5523 15.5523 42 15 42H11C10.4478 42 10.0002 41.556 10 41.0039V23.7139C10.0001 8.85709 16.1251 6 23 6H27Z" fill="#E4DDCD"/>
<path d="M24 6V27" stroke="#7E796E" stroke-width="2"/>
<path d="M31 10.6667L31.7622 9.85362C32.669 8.88644 34.229 8.97206 35.0245 10.0327C35.8033 11.071 37.3211 11.1789 38.2389 10.2611L39 9.5" stroke="#7E796E" stroke-width="2" stroke-linecap="round"/>
<path d="M31 16.6667L31.7622 15.8536C32.669 14.8864 34.229 14.9721 35.0245 16.0327C35.8033 17.071 37.3211 17.1789 38.2389 16.2611L39 15.5" stroke="#7E796E" stroke-width="2" stroke-linecap="round"/>
<path d="M31 22.6667L31.7622 21.8536C32.669 20.8864 34.229 20.9721 35.0245 22.0327C35.8033 23.071 37.3211 23.1789 38.2389 22.2611L39 21.5" stroke="#7E796E" stroke-width="2" stroke-linecap="round"/>
</svg>
