<svg width="48" height="48" viewBox="0 0 48 48" fill="none" xmlns="http://www.w3.org/2000/svg">
<path d="M15.25 14C17.956 14 20.2747 15.654 21.2529 18.0059C23.8968 18.1376 26 20.3234 26 23C26 25.7614 23.7614 28 21 28C20.234 28 19.5083 27.8274 18.8594 27.5195L15.5 32L12.1396 27.5195C11.4909 27.8272 10.7657 28 10 28C7.23858 28 5 25.7614 5 23C5 20.5023 6.83139 18.4322 9.22461 18.0596C10.1897 15.6792 12.5234 14 15.25 14Z" fill="#E4DDCD"/>
<path d="M32.25 5C34.956 5 37.2747 6.65405 38.2529 9.00586C40.8968 9.13758 43 11.3234 43 14C43 16.7614 40.7614 19 38 19C37.234 19 36.5083 18.8274 35.8594 18.5195L32.5 23L29.1396 18.5195C28.4909 18.8272 27.7657 19 27 19C24.2386 19 22 16.7614 22 14C22 11.5023 23.8314 9.43216 26.2246 9.05957C27.1897 6.67918 29.5234 5 32.25 5Z" fill="#E4DDCD"/>
<path d="M7 36L8.2088 35.2031C9.2911 34.4896 10.7139 34.5736 11.7048 35.4093L11.8123 35.5C12.8396 36.3665 14.3419 36.3665 15.3692 35.5C16.3966 34.6335 17.8988 34.6335 18.9262 35.5C19.9535 36.3665 21.4557 36.3665 22.4831 35.5C23.5104 34.6335 25.0127 34.6335 26.04 35.5C27.0673 36.3665 28.5696 36.3665 29.5969 35.5C30.6243 34.6335 32.1265 34.6335 33.1538 35.5C34.1812 36.3665 35.6962 36.3557 36.7235 35.4892C37.7429 34.6295 39.24 34.5981 40.2831 35.4289L41 36" stroke="#7E796E" stroke-width="2" stroke-linecap="round"/>
<path d="M7 41L8.2088 40.2031C9.2911 39.4896 10.7139 39.5736 11.7048 40.4093L11.8123 40.5C12.8396 41.3665 14.3419 41.3665 15.3692 40.5C16.3966 39.6335 17.8988 39.6335 18.9262 40.5C19.9535 41.3665 21.4557 41.3665 22.4831 40.5C23.5104 39.6335 25.0127 39.6335 26.04 40.5C27.0673 41.3665 28.5696 41.3665 29.5969 40.5C30.6243 39.6335 32.1265 39.6335 33.1538 40.5C34.1812 41.3665 35.6962 41.3557 36.7235 40.4892C37.7429 39.6295 39.24 39.5981 40.2831 40.4289L41 41" stroke="#7E796E" stroke-width="2" stroke-linecap="round"/>
</svg>
