<svg width="40" height="40" viewBox="0 0 40 40" fill="none" xmlns="http://www.w3.org/2000/svg">
<path fill-rule="evenodd" clip-rule="evenodd" d="M11.5505 12.0266C11.3566 12.0691 11.1842 12.1794 11.0643 12.3377L5 20.3496L9.4679 24.2145L11.0972 22.0213C10.9089 26.8042 10.3724 29.48 8.84392 33.6632C8.68565 34.0964 8.90419 34.5797 9.33902 34.7333C15.1521 36.7868 20.0177 37.1363 25.8682 36.103C26.147 36.0537 26.3811 35.8626 26.4868 35.5999C28.502 30.5894 29.1154 27.5485 29.4287 22.0245L30.5321 24.1436L35 20.2787L29.6188 12.3718C29.4969 12.1926 29.31 12.068 29.0977 12.0244L23.3033 10.833C23.3033 12.2241 21.953 13.3519 20.2649 13.3519C18.5769 13.3519 17 12.2241 17 10.833L11.5505 12.0266Z" fill="#E4DDCD"/>
<path d="M14.1602 6.25L16.3725 7.26398C17.8249 7.92968 19.5172 7.80429 20.8557 6.93181C22.6073 5.78999 24.9053 5.95571 26.475 7.33704L26.6602 7.5" stroke="#7E796E" stroke-width="1.66667"/>
<path d="M26.1641 5L27.6713 6.99458L25.6767 8.50178" stroke="#7E796E" stroke-width="1.66667" stroke-linecap="round" stroke-linejoin="round"/>
<path d="M15.6055 5L13.3338 6.04372L14.3775 8.31543" stroke="#7E796E" stroke-width="1.66667" stroke-linecap="round" stroke-linejoin="round"/>
</svg>
