<svg width="48" height="48" viewBox="0 0 48 48" fill="none" xmlns="http://www.w3.org/2000/svg">
<g clip-path="url(#clip0_2631_97553)">
<path d="M22 22L17 19C14.7909 19 13 20.7909 13 23V34H7V15C7 12.2386 9.23858 10 12 10H17L22 8V22Z" fill="#E4DDCD"/>
<path d="M23.5728 6H23.4272C22.639 6 22 6.69116 22 7.54376V22.4562C22 23.3088 22.639 24 23.4272 24H23.5728C24.361 24 25 23.3088 25 22.4562V7.54376C25 6.69116 24.361 6 23.5728 6Z" fill="#7E796E"/>
<path d="M31 30L26 27C23.7909 27 22 28.7909 22 31V42H16V23C16 20.2386 18.2386 18 21 18H26L31 16V30Z" fill="#E4DDCD"/>
<path d="M32.5728 14H32.4272C31.639 14 31 14.6912 31 15.5438V30.4562C31 31.3088 31.639 32 32.4272 32H32.5728C33.361 32 34 31.3088 34 30.4562V15.5438C34 14.6912 33.361 14 32.5728 14Z" fill="#7E796E"/>
<path d="M36 23.6667L36.5329 22.9088C37.1553 22.0235 38.4884 22.0905 39.019 23.0338C39.54 23.96 40.841 24.0454 41.4786 23.1952L42 22.5" stroke="#7E796E" stroke-width="2" stroke-linecap="round"/>
<path d="M36 28L36.5717 27.3902C37.2517 26.6648 38.4218 26.729 39.0184 27.5245C39.6024 28.3033 40.7408 28.3842 41.4292 27.6958L42 27.125" stroke="#7E796E" stroke-width="2" stroke-linecap="round"/>
<path d="M36 19L36.5717 18.3902C37.2517 17.6648 38.4218 17.729 39.0184 18.5245C39.6024 19.3033 40.7408 19.3842 41.4292 18.6958L42 18.125" stroke="#7E796E" stroke-width="2" stroke-linecap="round"/>
</g>
<defs>
<clipPath id="clip0_2631_97553">
<rect width="48" height="48" fill="white"/>
</clipPath>
</defs>
</svg>
