<svg width="48" height="48" viewBox="0 0 48 48" fill="none" xmlns="http://www.w3.org/2000/svg">
<rect x="11" y="9" width="26" height="34" rx="1" fill="#E4DDCD"/>
<path d="M23.6155 16.2746L18.1152 23.7757C18.0463 23.8699 18.0067 23.9792 18.0008 24.0922C17.9948 24.2051 18.0227 24.3174 18.0814 24.4171C18.1401 24.5168 18.2274 24.6001 18.3341 24.6582C18.4408 24.7164 18.5628 24.7471 18.6872 24.7471H23.3487L22.1387 30.2505C21.9929 30.9218 22.9665 31.2881 23.3845 30.7193L28.8848 23.2182C28.9537 23.124 28.9933 23.0147 28.9992 22.9017C29.0052 22.7888 28.9773 22.6765 28.9186 22.5768C28.8599 22.4771 28.7726 22.3938 28.6659 22.3357C28.5592 22.2775 28.4372 22.2468 28.3128 22.2468H23.6513L24.8613 16.7434C25.0071 16.0721 24.0239 15.7195 23.6155 16.2746Z" fill="#7E796E"/>
<path d="M24 5C25.1046 5 26 5.89543 26 7H28C28.5523 7 29 7.44772 29 8V10C29 10.5523 28.5523 11 28 11H20C19.4477 11 19 10.5523 19 10V8C19 7.44772 19.4477 7 20 7H22C22 5.89543 22.8954 5 24 5Z" fill="#7E796E"/>
<path d="M16 34H32" stroke="#7E796E" stroke-width="2" stroke-linecap="round" stroke-linejoin="round"/>
<path d="M16 37H32" stroke="#7E796E" stroke-width="2" stroke-linecap="round" stroke-linejoin="round"/>
</svg>
