<svg width="48" height="48" viewBox="0 0 48 48" fill="none" xmlns="http://www.w3.org/2000/svg">
<path d="M10 7C10 6.44772 10.4477 6 11 6H25C25.5523 6 26 6.44772 26 7V43C26 43.5523 25.5523 44 25 44H11C10.4477 44 10 43.5523 10 43V7Z" fill="#E4DDCD"/>
<path d="M27 7C27 6.44772 27.4477 6 28 6H35C35.5523 6 36 6.44772 36 7V43C36 43.5523 35.5523 44 35 44H28C27.4477 44 27 43.5523 27 43V7Z" fill="#E4DDCD"/>
<path d="M13 9V41" stroke="#7E796E" stroke-width="2" stroke-linecap="round"/>
<path d="M18 9V41" stroke="#7E796E" stroke-width="2" stroke-linecap="round"/>
<path d="M23 9V41" stroke="#7E796E" stroke-width="2" stroke-linecap="round"/>
<path d="M35.0256 6.42445C35.1775 5.96843 35.8225 5.96843 35.9744 6.42445L36.643 8.4322C36.689 8.5702 36.7928 8.68135 36.9273 8.73666L38.8752 9.53756C39.2884 9.70743 39.2884 10.2926 38.8752 10.4624L36.9273 11.2633C36.7928 11.3187 36.689 11.4298 36.643 11.5678L35.9744 13.5756C35.8225 14.0316 35.1775 14.0316 35.0256 13.5755L34.357 11.5678C34.311 11.4298 34.2072 11.3187 34.0727 11.2633L32.1248 10.4624C31.7116 10.2926 31.7116 9.70743 32.1248 9.53756L34.0727 8.73666C34.2072 8.68135 34.311 8.5702 34.357 8.4322L35.0256 6.42445Z" fill="#7E796E"/>
<path d="M39.1195 14.1753C39.2389 13.8063 39.7611 13.8063 39.8805 14.1753L40.389 15.7457C40.4248 15.8561 40.5068 15.9456 40.6137 15.9909L42.1288 16.6316C42.4544 16.7693 42.4544 17.2307 42.1288 17.3684L40.6137 18.0091C40.5068 18.0544 40.4248 18.1439 40.389 18.2543L39.8805 19.8247C39.7611 20.1937 39.2389 20.1937 39.1195 19.8247L38.611 18.2543C38.5752 18.1439 38.4932 18.0544 38.3863 18.0091L36.8712 17.3684C36.5456 17.2307 36.5456 16.7693 36.8712 16.6316L38.3863 15.9909C38.4932 15.9456 38.5752 15.8561 38.611 15.7457L39.1195 14.1753Z" fill="#7E796E"/>
</svg>
