<svg width="48" height="48" viewBox="0 0 48 48" fill="none" xmlns="http://www.w3.org/2000/svg">
<g clip-path="url(#clip0_2631_97438)">
<path d="M22 43C18.287 43 14.726 41.5659 12.1005 39.0132C9.475 36.4604 8 32.9982 8 29.3881C8 20.3134 22 5 22 5C22 5 36 20.3134 36 29.3881C36 32.9982 34.525 36.4604 31.8995 39.0132C29.274 41.5659 25.713 43 22 43Z" fill="#E4DDCD"/>
<path d="M39.6016 24.75V22.25H37.1016" stroke="#7E796E" stroke-width="2" stroke-linecap="round" stroke-linejoin="round"/>
<path d="M38 23.8548L37.117 24.692C36.0699 25.6848 34.4033 25.5921 33.4729 24.4893C32.5629 23.4108 30.9428 23.2945 29.8881 24.232L29 25.0215" stroke="#7E796E" stroke-width="2" stroke-linecap="round"/>
<path d="M39.6016 30.2715V27.7715H37.1016" stroke="#7E796E" stroke-width="2" stroke-linecap="round" stroke-linejoin="round"/>
<path d="M38 29.3763L37.117 30.2135C36.0699 31.2063 34.4033 31.1136 33.4729 30.0108C32.5629 28.9323 30.9428 28.816 29.8881 29.7535L29 30.543" stroke="#7E796E" stroke-width="2" stroke-linecap="round"/>
<path d="M39.6016 35.793V33.293H37.1016" stroke="#7E796E" stroke-width="2" stroke-linecap="round" stroke-linejoin="round"/>
<path d="M38 34.8978L37.117 35.735C36.0699 36.7278 34.4033 36.6351 33.4729 35.5323C32.5629 34.4538 30.9428 34.3375 29.8881 35.275L29 36.0645" stroke="#7E796E" stroke-width="2" stroke-linecap="round"/>
</g>
<defs>
<clipPath id="clip0_2631_97438">
<rect width="48" height="48" fill="white"/>
</clipPath>
</defs>
</svg>
