<svg width="48" height="48" viewBox="0 0 48 48" fill="none" xmlns="http://www.w3.org/2000/svg">
<path d="M23 11C30.1797 11 36 16.8203 36 24C36 31.1797 30.1797 37 23 37C15.8203 37 10 31.1797 10 24C10 16.8203 15.8203 11 23 11Z" fill="#E4DDCD"/>
<path d="M37.6661 32.5C37.9419 32.0217 38.5539 31.858 39.0323 32.1338C39.5104 32.4097 39.6742 33.0207 39.3985 33.499C38.0527 35.8339 36.2261 37.8552 34.0401 39.4287C31.8541 41.0022 29.3587 42.092 26.7198 42.625C24.0808 43.158 21.3585 43.1225 18.7344 42.5205C16.6563 42.0437 14.6784 41.2186 12.8799 40.0869L12.962 40.667C13.0389 41.2139 12.6573 41.7199 12.1104 41.7969C11.5636 41.8737 11.0585 41.4931 10.9815 40.9463L10.5684 38.0156C10.493 37.4803 10.8569 36.982 11.3897 36.8906L14.1905 36.4111C14.7348 36.3179 15.2525 36.6832 15.3457 37.2275C15.4389 37.7719 15.0727 38.2886 14.5284 38.3818L14.0537 38.4629C15.6334 39.4402 17.3649 40.1545 19.1817 40.5713C21.5288 41.1098 23.9639 41.1418 26.3243 40.665C28.6846 40.1883 30.9166 39.2132 32.8721 37.8057C34.8277 36.3981 36.4619 34.5893 37.6661 32.5ZM13.0118 5.67871C13.2187 5.16667 13.8015 4.91902 14.3135 5.12598L17.0537 6.2334C17.5545 6.43605 17.8034 6.99998 17.6162 7.50684L16.6309 10.1768C16.4396 10.6947 15.8647 10.9597 15.3467 10.7686C14.8287 10.5773 14.5639 10.0024 14.7549 9.48438L14.9209 9.03223C13.2882 9.91354 11.8068 11.0583 10.5391 12.4248C8.89979 14.1919 7.65498 16.2886 6.88676 18.5752C6.11857 20.8617 5.84486 23.2859 6.08402 25.6865C6.32323 28.0872 7.06937 30.4098 8.27348 32.499C8.54924 32.9775 8.38568 33.5894 7.90726 33.8652C7.4288 34.141 6.81687 33.9765 6.54105 33.498C5.19526 31.1631 4.3611 28.5674 4.09379 25.8848C3.82656 23.2023 4.13191 20.4935 4.99027 17.9385C5.84875 15.3832 7.24095 13.0396 9.07328 11.0645C10.5253 9.49931 12.2284 8.19478 14.1075 7.2002L13.5635 6.98047C13.0516 6.77348 12.8049 6.19068 13.0118 5.67871ZM22.9698 5C25.6618 5 28.323 5.574 30.7764 6.68359C33.2299 7.79328 35.4202 9.41303 37.2002 11.4355C38.9803 13.4581 40.3102 15.8372 41.1016 18.4141C41.7285 20.4553 42.0042 22.5838 41.9248 24.71L42.3838 24.3516C42.8185 24.0111 43.4466 24.0869 43.7871 24.5215C44.1277 24.9563 44.051 25.5852 43.6162 25.9258L41.2891 27.749C40.8628 28.0828 40.2479 28.0165 39.9024 27.5996L38.087 25.4102C37.7346 24.985 37.7938 24.3544 38.2188 24.002C38.644 23.6495 39.2745 23.7086 39.627 24.1338L39.9307 24.5C39.9852 22.6423 39.7372 20.7843 39.1895 19.001C38.4813 16.6951 37.2909 14.5663 35.6983 12.7568C34.1057 10.9475 32.1467 9.49839 29.9522 8.50586C27.7577 7.51337 25.3775 7 22.9698 7C22.4175 6.99997 21.9698 6.55227 21.9698 6C21.9698 5.44773 22.4175 5.00003 22.9698 5Z" fill="#7E796E"/>
<path d="M23.126 16.2929L17.1256 24.2941C17.0505 24.3945 17.0073 24.5112 17.0009 24.6317C16.9944 24.7521 17.0248 24.8719 17.0888 24.9782C17.1528 25.0846 17.2481 25.1734 17.3645 25.2354C17.4809 25.2974 17.614 25.3302 17.7497 25.3303H22.835L21.5149 31.2005C21.3559 31.9166 22.418 32.3073 22.874 31.7006L28.8744 23.6994C28.9495 23.599 28.9927 23.4823 28.9991 23.3618C29.0056 23.2414 28.9752 23.1216 28.9112 23.0153C28.8472 22.9089 28.7519 22.82 28.6355 22.758C28.5191 22.696 28.386 22.6633 28.2503 22.6632H23.165L24.4851 16.793C24.6441 16.0769 23.5715 15.7008 23.126 16.2929Z" fill="#7E796E"/>
</svg>
