<svg width="48" height="48" viewBox="0 0 48 48" fill="none" xmlns="http://www.w3.org/2000/svg">
<path d="M30.3486 13.4521H30.3506C30.2087 13.8777 30.2673 14.3302 30.5332 14.707L30.5439 14.7227L30.5557 14.7383C30.8273 15.0935 31.2321 15.3008 31.6904 15.3008H32.3203C32.7032 15.3007 33.0638 15.1809 33.3701 14.9512L33.3828 14.9414L33.3945 14.9316C33.6918 14.6938 33.9037 14.3746 33.999 13.9951L34 13.9961L34.0693 13.7207H34.6709L34.7402 13.9951C34.8355 14.3747 35.0483 14.6938 35.3457 14.9316L35.3574 14.9414L35.3701 14.9512C35.6765 15.1809 36.037 15.3008 36.4199 15.3008H37.0898C37.4661 15.3008 37.8087 15.1567 38.0693 14.8975C38.3518 15.1516 38.7099 15.3007 39.1104 15.3008H39.8506C40.2739 15.3008 40.6562 15.1338 40.9463 14.8369L40.9473 14.8379C40.9498 14.8354 40.9516 14.8316 40.9541 14.8291C40.9586 14.8245 40.9643 14.8211 40.9688 14.8164L40.9678 14.8154C41.2464 14.5267 41.4102 14.1516 41.4102 13.7305V11.3887C41.7579 11.5453 42 11.8947 42 12.3008V26.3008C42 26.8531 41.5523 27.3008 41 27.3008H7C6.44772 27.3008 6 26.8531 6 26.3008V12.3008C6 11.7485 6.44772 11.3008 7 11.3008H31.0479L30.3486 13.4521ZM37.4805 13.7607L37.5029 13.8594C37.5128 13.9554 37.4848 14.046 37.4199 14.1309C37.3399 14.2441 37.2298 14.3008 37.0898 14.3008H36.4199C36.2533 14.3008 36.103 14.2504 35.9697 14.1504C35.8366 14.0438 35.7499 13.9108 35.71 13.751L35.4697 12.8008C35.4631 12.7475 35.43 12.7207 35.3701 12.7207H33.3701L33.334 12.7256C33.3013 12.7355 33.2796 12.7607 33.2695 12.8008L33.0303 13.751C32.9903 13.9109 32.9028 14.0438 32.7695 14.1504C32.6695 14.2254 32.5603 14.2723 32.4414 14.291L32.3203 14.3008H31.6904L31.5898 14.29C31.4949 14.2688 31.4146 14.2158 31.3496 14.1309C31.2697 14.0176 31.2532 13.894 31.2998 13.7607L32.0986 11.3008H33.6426L33.6299 11.3506C33.6232 11.3706 33.6263 11.3911 33.6396 11.4111C33.6496 11.4178 33.6599 11.4224 33.6699 11.4258L33.7002 11.4307H35.04C35.05 11.4307 35.0591 11.4291 35.0674 11.4258L35.0898 11.4111C35.0999 11.4011 35.107 11.3909 35.1104 11.3809V11.3506L35.0977 11.3008H36.6855L37.4805 13.7607ZM40.4102 13.7305C40.4102 13.8838 40.3536 14.0175 40.2402 14.1309C40.1336 14.244 40.0038 14.3008 39.8506 14.3008H39.1104C38.9572 14.3007 38.8242 14.244 38.7109 14.1309C38.6309 14.0458 38.5805 13.9494 38.5605 13.8418L38.5508 13.7305V11.3008H40.4102V13.7305Z" fill="#E4DDCD"/>
<path d="M11 27.3008C11 25.0916 12.7909 23.3008 15 23.3008H33C35.2091 23.3008 37 25.0916 37 27.3008V27.3008H11V27.3008Z" fill="#7E796E"/>
<path d="M33 39.4961C31.1148 38.9698 30 37.9961 30 33.9961L30 29.4961" stroke="#7E796E" stroke-width="2" stroke-linecap="round"/>
<path d="M15 39.4961C16.8852 38.9698 18 37.9961 18 33.9961L18 29.4961" stroke="#7E796E" stroke-width="2" stroke-linecap="round"/>
<path d="M24 39.4961L24 29.4961" stroke="#7E796E" stroke-width="2" stroke-linecap="round"/>
<circle cx="18" cy="17.3008" r="1" fill="#7E796E"/>
<path d="M22 17.3008H30" stroke="#7E796E" stroke-width="2" stroke-linecap="round"/>
<path d="M39.1069 14.3C38.9535 14.3 38.8202 14.2433 38.7069 14.13C38.6002 14.0167 38.5469 13.8833 38.5469 13.73V7.57C38.5469 7.41667 38.6002 7.28333 38.7069 7.17C38.8202 7.05667 38.9535 7 39.1069 7H39.8469C40.0002 7 40.1302 7.05667 40.2369 7.17C40.3502 7.28333 40.4069 7.41667 40.4069 7.57V13.73C40.4069 13.8833 40.3502 14.0167 40.2369 14.13C40.1302 14.2433 40.0002 14.3 39.8469 14.3H39.1069Z" fill="#504323"/>
<path d="M34.3592 8.48L33.6292 11.35C33.6226 11.37 33.6259 11.39 33.6392 11.41C33.6592 11.4233 33.6792 11.43 33.6992 11.43H35.0392C35.0592 11.43 35.0759 11.4233 35.0892 11.41C35.1092 11.39 35.1159 11.37 35.1092 11.35L34.3792 8.48C34.3792 8.47333 34.3759 8.47 34.3692 8.47C34.3626 8.47 34.3592 8.47333 34.3592 8.48ZM31.6892 14.3C31.5492 14.3 31.4359 14.2433 31.3492 14.13C31.2692 14.0167 31.2526 13.8933 31.2992 13.76L33.3192 7.54C33.3726 7.38 33.4659 7.25 33.5992 7.15C33.7392 7.05 33.8926 7 34.0592 7H34.7192C34.8926 7 35.0492 7.05 35.1892 7.15C35.3292 7.25 35.4226 7.38 35.4692 7.54L37.4792 13.76C37.5259 13.8933 37.5059 14.0167 37.4192 14.13C37.3392 14.2433 37.2292 14.3 37.0892 14.3H36.4192C36.2526 14.3 36.1026 14.25 35.9692 14.15C35.8359 14.0433 35.7492 13.91 35.7092 13.75L35.4692 12.8C35.4626 12.7467 35.4292 12.72 35.3692 12.72H33.3692C33.3159 12.72 33.2826 12.7467 33.2692 12.8L33.0292 13.75C32.9892 13.91 32.9026 14.0433 32.7692 14.15C32.6359 14.25 32.4859 14.3 32.3192 14.3H31.6892Z" fill="#504323"/>
</svg>
