<svg width="48" height="48" viewBox="0 0 48 48" fill="none" xmlns="http://www.w3.org/2000/svg">
<circle cx="24" cy="24" r="13" fill="#E4DDCD"/>
<path d="M32.532 8.49026C33.8639 7.06966 36.1556 7.19524 37.324 8.75296C37.7377 9.30447 38.5446 9.36152 39.032 8.87405L39.7928 8.11331C40.1833 7.72279 40.8163 7.72279 41.2068 8.11331C41.5974 8.50384 41.5974 9.13685 41.2068 9.52737L40.4461 10.2881C39.0981 11.6362 36.8684 11.4782 35.7244 9.95315C35.3021 9.38999 34.4737 9.34422 33.992 9.85745L33.2293 10.6709C32.8517 11.0737 32.2191 11.0942 31.8162 10.7168C31.4133 10.3391 31.3926 9.70568 31.7703 9.30276L32.532 8.49026Z" fill="#7E796E"/>
<path d="M34.532 12.4903C35.8639 11.0697 38.1556 11.1952 39.324 12.753C39.7377 13.3045 40.5446 13.3615 41.032 12.8741L41.7928 12.1133C42.1833 11.7228 42.8163 11.7228 43.2068 12.1133C43.5974 12.5038 43.5974 13.1368 43.2068 13.5274L42.4461 14.2881C41.0981 15.6362 38.8684 15.4782 37.7244 13.9532C37.3021 13.39 36.4737 13.3442 35.992 13.8575L35.2293 14.6709C34.8517 15.0737 34.2191 15.0942 33.8162 14.7168C33.4133 14.3391 33.3926 13.7057 33.7703 13.3028L34.532 12.4903Z" fill="#7E796E"/>
<path d="M38.666 32.5C38.9419 32.0217 39.5538 31.8581 40.0322 32.1338C40.5104 32.4097 40.6741 33.0207 40.3984 33.499C39.0526 35.8339 37.226 37.8552 35.04 39.4287C32.854 41.0022 30.3587 42.092 27.7197 42.625C25.0808 43.158 22.3585 43.1225 19.7344 42.5205C17.6563 42.0437 15.6783 41.2186 13.8799 40.0869L13.9619 40.667C14.0389 41.2139 13.6572 41.7199 13.1104 41.7969C12.5636 41.8737 12.0585 41.493 11.9814 40.9463L11.5684 38.0156C11.493 37.4803 11.8569 36.982 12.3896 36.8906L15.1904 36.4111C15.7348 36.3179 16.2525 36.6832 16.3457 37.2275C16.4389 37.7719 16.0726 38.2886 15.5283 38.3818L15.0537 38.4629C16.6333 39.4402 18.3649 40.1545 20.1816 40.5713C22.5287 41.1098 24.9639 41.1418 27.3242 40.665C29.6845 40.1883 31.9166 39.2132 33.8721 37.8057C35.8276 36.3981 37.4618 34.5893 38.666 32.5ZM14.0117 5.67871C14.2187 5.16669 14.8014 4.91907 15.3135 5.12598L18.0537 6.2334C18.5545 6.43605 18.8033 6.99998 18.6162 7.50684L17.6309 10.1768C17.4396 10.6947 16.8647 10.9597 16.3467 10.7686C15.8287 10.5773 15.5638 10.0024 15.7549 9.48438L15.9209 9.03223C14.2881 9.91353 12.8067 11.0583 11.5391 12.4248C9.89977 14.1919 8.65493 16.2887 7.88672 18.5752C7.11854 20.8617 6.84483 23.2859 7.08398 25.6865C7.32319 28.0872 8.06934 30.4098 9.27344 32.499C9.54921 32.9775 9.38564 33.5894 8.90723 33.8652C8.42877 34.141 7.81682 33.9764 7.54102 33.498C6.19523 31.1631 5.36106 28.5674 5.09375 25.8848C4.82653 23.2023 5.13188 20.4935 5.99023 17.9385C6.8487 15.3832 8.24093 13.0396 10.0732 11.0645C11.5252 9.49932 13.2284 8.19478 15.1074 7.2002L14.5635 6.98047C14.0516 6.77346 13.8049 6.19065 14.0117 5.67871ZM41.4199 16.5498C41.6787 17.1578 41.9068 17.7798 42.1016 18.4141C42.7284 20.4553 43.0041 22.5838 42.9248 24.71L43.3838 24.3516C43.8185 24.0111 44.4465 24.0869 44.7871 24.5215C45.1277 24.9563 45.051 25.5852 44.6162 25.9258L42.2891 27.749C41.8628 28.0828 41.2479 28.0165 40.9023 27.5996L39.0869 25.4102C38.7346 24.9851 38.7938 24.3544 39.2188 24.002C39.6439 23.6495 40.2745 23.7086 40.627 24.1338L40.9307 24.5C40.9852 22.6423 40.7371 20.7843 40.1895 19.001C39.9357 18.1748 39.619 17.3718 39.2451 16.5977C39.9601 16.7527 40.7067 16.7381 41.4199 16.5498ZM36.2324 12.251C37.1429 12.6855 38.172 12.8095 39.1543 12.6113C39.757 13.4175 40.2939 14.2696 40.7607 15.1592C39.6487 15.3483 38.4615 14.9344 37.7246 13.9521C37.6527 13.8563 37.5683 13.7766 37.4766 13.7109C37.2287 13.3844 36.9699 13.0655 36.6982 12.7568C36.5466 12.5846 36.3906 12.4166 36.2324 12.251ZM33.7129 7.69922C34.8154 8.36022 35.8489 9.13072 36.7959 10.001C36.4774 10.0021 36.159 10.036 35.8457 10.1025C35.8045 10.0539 35.7634 10.0039 35.7246 9.95215C35.3022 9.38941 34.4738 9.3435 33.9922 9.85645L33.7529 10.1104C33.1978 9.71796 32.6191 9.3588 32.0195 9.03516L32.5322 8.48926C32.8742 8.12458 33.2797 7.86202 33.7129 7.69922ZM23.9697 5C26.6617 5 29.3229 5.57402 31.7764 6.68359C31.8976 6.73841 32.0178 6.79525 32.1377 6.85254C31.8902 7.02875 31.6547 7.23125 31.4375 7.46289L30.6758 8.27539C30.6518 8.30092 30.6301 8.32825 30.6074 8.35449C28.5094 7.46121 26.2519 7 23.9697 7C23.4175 6.99993 22.9697 6.55224 22.9697 6C22.9697 5.44776 23.4175 5.00007 23.9697 5Z" fill="#7E796E"/>
<path d="M26.728 29.49C26.5287 29.49 26.3553 29.4163 26.208 29.269C26.0693 29.1217 26 28.9483 26 28.749V20.741C26 20.5417 26.0693 20.3683 26.208 20.221C26.3553 20.0737 26.5287 20 26.728 20H27.69C27.8893 20 28.0583 20.0737 28.197 20.221C28.3443 20.3683 28.418 20.5417 28.418 20.741V28.749C28.418 28.9483 28.3443 29.1217 28.197 29.269C28.0583 29.4163 27.8893 29.49 27.69 29.49H26.728Z" fill="#504323"/>
<path d="M21.0115 21.924L20.0625 25.655C20.0539 25.681 20.0582 25.707 20.0755 25.733C20.1015 25.7503 20.1275 25.759 20.1535 25.759H21.8955C21.9215 25.759 21.9432 25.7503 21.9605 25.733C21.9865 25.707 21.9952 25.681 21.9865 25.655L21.0375 21.924C21.0375 21.9153 21.0332 21.911 21.0245 21.911C21.0159 21.911 21.0115 21.9153 21.0115 21.924ZM17.5405 29.49C17.3585 29.49 17.2112 29.4163 17.0985 29.269C16.9945 29.1217 16.9729 28.9613 17.0335 28.788L19.6595 20.702C19.7289 20.494 19.8502 20.325 20.0235 20.195C20.2055 20.065 20.4049 20 20.6215 20H21.4795C21.7049 20 21.9085 20.065 22.0905 20.195C22.2725 20.325 22.3939 20.494 22.4545 20.702L25.0675 28.788C25.1282 28.9613 25.1022 29.1217 24.9895 29.269C24.8855 29.4163 24.7425 29.49 24.5605 29.49H23.6895C23.4729 29.49 23.2779 29.425 23.1045 29.295C22.9312 29.1563 22.8185 28.983 22.7665 28.775L22.4545 27.54C22.4459 27.4707 22.4025 27.436 22.3245 27.436H19.7245C19.6552 27.436 19.6119 27.4707 19.5945 27.54L19.2825 28.775C19.2305 28.983 19.1179 29.1563 18.9445 29.295C18.7712 29.425 18.5762 29.49 18.3595 29.49H17.5405Z" fill="#504323"/>
<path d="M30.1133 16.4631C30.2182 16.0661 30.7818 16.0661 30.8867 16.4631L31.1299 17.3833C31.1588 17.4924 31.2324 17.5843 31.3326 17.6362L32.3144 18.1448C32.6024 18.294 32.6024 18.706 32.3144 18.8552L31.3326 19.3638C31.2324 19.4157 31.1588 19.5076 31.1299 19.6167L30.8867 20.5369C30.7818 20.9339 30.2182 20.9339 30.1133 20.5369L29.8701 19.6167C29.8412 19.5076 29.7676 19.4157 29.6674 19.3638L28.6856 18.8552C28.3976 18.706 28.3976 18.294 28.6856 18.1448L29.6674 17.6362C29.7676 17.5843 29.8412 17.4924 29.8701 17.3833L30.1133 16.4631Z" fill="#7E796E"/>
<path d="M32.2071 20.3191C32.2767 20.0058 32.7233 20.0058 32.7929 20.3191L32.8777 20.701C32.8952 20.7801 32.9441 20.8488 33.013 20.8913L33.586 21.2447C33.776 21.3619 33.776 21.6381 33.586 21.7553L33.013 22.1087C32.9441 22.1512 32.8952 22.2199 32.8777 22.299L32.7929 22.6809C32.7233 22.9942 32.2767 22.9942 32.2071 22.6809L32.1223 22.299C32.1048 22.2199 32.0559 22.1512 31.987 22.1087L31.414 21.7553C31.224 21.6381 31.224 21.3619 31.414 21.2447L31.987 20.8913C32.0559 20.8488 32.1048 20.7801 32.1223 20.701L32.2071 20.3191Z" fill="#7E796E"/>
</svg>
