<svg width="48" height="48" viewBox="0 0 48 48" fill="none" xmlns="http://www.w3.org/2000/svg">
<path d="M5 11.1875C5 10.5672 5.55619 10.0945 6.16867 10.1928C9.29229 10.6941 18.0043 12 24 12C29.9957 12 38.7077 10.6941 41.8313 10.1928C42.4438 10.0945 43 10.5672 43 11.1875V36.8125C43 37.4328 42.4438 37.9055 41.8313 37.8072C38.7077 37.3059 29.9957 36 24 36C18.0043 36 9.29229 37.3059 6.16867 37.8072C5.55619 37.9055 5 37.4328 5 36.8125V11.1875Z" fill="#E4DDCD"/>
<path d="M39.0012 28.998L39.0036 31.9976L36 31.9983" stroke="#7E796E" stroke-width="2" stroke-linecap="round" stroke-linejoin="round"/>
<path d="M27.2031 28.084C30.7031 27.584 36.6602 29.3997 38.2031 31.084" stroke="#7E796E" stroke-width="2" stroke-linecap="round"/>
<path d="M39.0012 19.002L39.0036 16.0024L36 16.0017" stroke="#7E796E" stroke-width="2" stroke-linecap="round" stroke-linejoin="round"/>
<path d="M27.2031 20.0898C30.7031 20.5898 36.6602 18.7742 38.2031 17.0898" stroke="#7E796E" stroke-width="2" stroke-linecap="round"/>
<path d="M8.99883 29L8.99637 31.9996L12 32.0003" stroke="#7E796E" stroke-width="2" stroke-linecap="round" stroke-linejoin="round"/>
<path d="M21.2031 28.1699C17.7031 27.6699 11.7461 29.4856 10.2031 31.1699" stroke="#7E796E" stroke-width="2" stroke-linecap="round"/>
<path d="M8.99883 19L8.99637 16.0004L12 15.9997" stroke="#7E796E" stroke-width="2" stroke-linecap="round" stroke-linejoin="round"/>
<path d="M21.2031 20C17.7031 20.5 11.7461 18.6843 10.2031 17" stroke="#7E796E" stroke-width="2" stroke-linecap="round"/>
</svg>
