<svg width="48" height="48" viewBox="0 0 48 48" fill="none" xmlns="http://www.w3.org/2000/svg">
<path d="M42.6799 17.1998L41.5837 19.8071L38.9763 18.7109" stroke="#7E796E" stroke-width="2" stroke-linecap="round" stroke-linejoin="round"/>
<path d="M5.30393 30.4799L6.42751 27.8842L9.02319 29.0078" stroke="#7E796E" stroke-width="2" stroke-linecap="round" stroke-linejoin="round"/>
<path d="M6.21399 21.4949C6.79694 17.347 8.80823 13.5322 11.9014 10.7078C14.9945 7.88338 18.9758 6.22611 23.1595 6.02149C27.3432 5.81687 31.4672 7.07772 34.8212 9.58683C38.1752 12.0959 40.5492 15.6962 41.5341 19.7674" stroke="#7E796E" stroke-width="2" stroke-linecap="round" stroke-linejoin="round"/>
<circle cx="24.0022" cy="24" r="14" fill="#E4DDCD"/>
<path d="M41.8172 26.8158C41.162 30.9529 39.0844 34.732 35.9424 37.502C32.8005 40.272 28.7908 41.8595 24.6042 41.9911C20.4176 42.1227 16.3162 40.7901 13.0065 38.2228C9.69679 35.6555 7.38604 32.0144 6.47232 27.9266" stroke="#7E796E" stroke-width="2" stroke-linecap="round" stroke-linejoin="round"/>
<path d="M23.8358 16.8889C24.0631 16.56 24.3862 16.3036 24.7643 16.1522C25.1423 16.0009 25.5583 15.9613 25.9597 16.0384C26.361 16.1156 26.7297 16.3061 27.019 16.5858C27.3084 16.8655 27.5054 17.2219 27.5852 17.6098C27.6651 17.9978 27.6241 18.3999 27.4675 18.7654C27.3109 19.1308 27.0457 19.4432 26.7055 19.6629C26.3652 19.8827 25.9652 20 25.556 20L17 20" stroke="#7E796E" stroke-width="2" stroke-linecap="round"/>
<path d="M23.8358 31.1111C24.0631 31.44 24.3862 31.6964 24.7643 31.8478C25.1423 31.9991 25.5583 32.0387 25.9597 31.9616C26.361 31.8844 26.7297 31.6939 27.019 31.4142C27.3084 31.1345 27.5054 30.7781 27.5852 30.3902C27.6651 30.0022 27.6241 29.6001 27.4675 29.2346C27.3109 28.8692 27.0457 28.5568 26.7055 28.3371C26.3652 28.1173 25.9652 28 25.556 28L17 28" stroke="#7E796E" stroke-width="2" stroke-linecap="round"/>
<path d="M29.8358 20.8889C30.0631 20.56 30.3862 20.3036 30.7643 20.1522C31.1423 20.0009 31.5583 19.9613 31.9597 20.0384C32.361 20.1156 32.7297 20.3061 33.019 20.5858C33.3084 20.8655 33.5054 21.2219 33.5852 21.6098C33.6651 21.9978 33.6241 22.3999 33.4675 22.7654C33.3109 23.1308 33.0457 23.4432 32.7055 23.6629C32.3652 23.8827 31.9652 24 31.556 24L15 24" stroke="#7E796E" stroke-width="2" stroke-linecap="round"/>
</svg>
