<svg width="48" height="48" viewBox="0 0 48 48" fill="none" xmlns="http://www.w3.org/2000/svg">
<circle cx="24" cy="24" r="13" fill="#E4DDCD"/>
<path d="M43.2192 18.3619L42.123 20.9693L39.5156 19.873" stroke="#7E796E" stroke-width="2" stroke-linecap="round" stroke-linejoin="round"/>
<path d="M4.98102 30.191L6.27291 27.6749L8.78906 28.9668" stroke="#7E796E" stroke-width="2" stroke-linecap="round" stroke-linejoin="round"/>
<path d="M6.17517 21.4949C6.75812 17.347 8.76941 13.5322 11.8626 10.7078C14.9557 7.88338 18.937 6.22611 23.1207 6.02149C27.3044 5.81687 31.4284 7.07772 34.7824 9.58683C38.1364 12.0959 40.5104 15.6962 41.4953 19.7674" stroke="#7E796E" stroke-width="2" stroke-linecap="round" stroke-linejoin="round"/>
<path d="M6.42969 27.9258C7.34342 32.0136 9.65416 35.6547 12.9639 38.222C16.2736 40.7893 20.375 42.1219 24.5616 41.9903C27.9432 41.8841 31.2094 40.8279 33.9962 38.9659" stroke="#7E796E" stroke-width="2" stroke-linecap="round" stroke-linejoin="round"/>
<path d="M38.105 23.2746L33.1047 30.7757C33.042 30.8699 33.0061 30.9792 33.0007 31.0922C32.9953 31.2051 33.0206 31.3174 33.074 31.4171C33.1274 31.5168 33.2068 31.6001 33.3038 31.6582C33.4007 31.7164 33.5117 31.7471 33.6247 31.7471H37.8625L36.7624 37.2505C36.6299 37.9218 37.515 38.2881 37.895 37.7193L42.8953 30.2182C42.958 30.124 42.9939 30.0147 42.9993 29.9017C43.0047 29.7888 42.9794 29.6765 42.926 29.5768C42.8726 29.4771 42.7932 29.3938 42.6963 29.3357C42.5993 29.2775 42.4883 29.2468 42.3753 29.2468H38.1375L39.2376 23.7434C39.3701 23.0721 38.4763 22.7195 38.105 23.2746Z" fill="#7E796E"/>
<path d="M21.298 29.36C21.0833 29.36 20.8967 29.2807 20.738 29.122C20.5793 28.9633 20.5 28.7767 20.5 28.562V28.24C20.5 27.7173 20.71 27.2927 21.13 26.966C22.698 25.734 23.734 24.796 24.238 24.152C24.7513 23.508 25.008 22.878 25.008 22.262C25.008 21.4033 24.532 20.974 23.58 20.974C23.0013 20.974 22.292 21.1327 21.452 21.45C21.2747 21.5153 21.1067 21.4967 20.948 21.394C20.7893 21.2913 20.71 21.1467 20.71 20.96V20.372C20.71 20.1293 20.78 19.9147 20.92 19.728C21.06 19.532 21.2467 19.4013 21.48 19.336C22.3293 19.112 23.146 19 23.93 19C25.0593 19 25.9273 19.2707 26.534 19.812C27.15 20.344 27.458 21.086 27.458 22.038C27.458 22.8593 27.1967 23.6433 26.674 24.39C26.1607 25.1273 25.1527 26.1307 23.65 27.4C23.6407 27.4093 23.636 27.4187 23.636 27.428C23.636 27.4373 23.6407 27.442 23.65 27.442H26.716C26.9307 27.442 27.1127 27.5213 27.262 27.68C27.4207 27.8387 27.5 28.0253 27.5 28.24V28.562C27.5 28.7767 27.4207 28.9633 27.262 29.122C27.1127 29.2807 26.9307 29.36 26.716 29.36H21.298Z" fill="#504323"/>
</svg>
