<svg width="48" height="48" viewBox="0 0 48 48" fill="none" xmlns="http://www.w3.org/2000/svg">
<path d="M25.5 26V24.5H22.5V26H24H25.5ZM17.5 33.875C17.5 33.0466 16.8284 32.375 16 32.375C15.1716 32.375 14.5 33.0466 14.5 33.875H16H17.5ZM24 26H22.5C22.5 26.0021 22.5 26.0043 22.5 26.0064C22.5 26.0086 22.5 26.0108 22.5 26.013C22.5 26.0152 22.5 26.0174 22.5 26.0196C22.5 26.0218 22.5 26.0241 22.5 26.0263C22.5 26.0286 22.5 26.0308 22.5 26.0331C22.5 26.0354 22.5 26.0377 22.5 26.04C22.5 26.0423 22.5 26.0447 22.5 26.047C22.5 26.0494 22.5 26.0517 22.5 26.0541C22.5 26.0565 22.5 26.0589 22.5 26.0613C22.5 26.0637 22.5 26.0661 22.5 26.0685C22.5 26.071 22.5 26.0734 22.5 26.0759C22.5 26.0784 22.5 26.0808 22.5 26.0833C22.5 26.0858 22.5 26.0884 22.5 26.0909C22.5 26.0934 22.5 26.096 22.5 26.0985C22.5 26.1011 22.5 26.1036 22.5 26.1062C22.5 26.1088 22.5 26.1114 22.5 26.114C22.5 26.1167 22.5 26.1193 22.5 26.1219C22.5 26.1246 22.5 26.1272 22.5 26.1299C22.5 26.1326 22.5 26.1353 22.5 26.138C22.5 26.1407 22.5 26.1434 22.5 26.1462C22.5 26.1489 22.5 26.1516 22.5 26.1544C22.5 26.1572 22.5 26.16 22.5 26.1628C22.5 26.1656 22.5 26.1684 22.5 26.1712C22.5 26.174 22.5 26.1768 22.5 26.1797C22.5 26.1826 22.5 26.1854 22.5 26.1883C22.5 26.1912 22.5 26.1941 22.5 26.197C22.5 26.1999 22.5 26.2028 22.5 26.2058C22.5 26.2087 22.5 26.2117 22.5 26.2146C22.5 26.2176 22.5 26.2206 22.5 26.2236C22.5 26.2266 22.5 26.2296 22.5 26.2326C22.5 26.2357 22.5 26.2387 22.5 26.2418C22.5 26.2448 22.5 26.2479 22.5 26.251C22.5 26.254 22.5 26.2571 22.5 26.2603C22.5 26.2634 22.5 26.2665 22.5 26.2696C22.5 26.2728 22.5 26.2759 22.5 26.2791C22.5 26.2823 22.5 26.2855 22.5 26.2887C22.5 26.2919 22.5 26.2951 22.5 26.2983C22.5 26.3015 22.5 26.3048 22.5 26.308C22.5 26.3113 22.5 26.3145 22.5 26.3178C22.5 26.3211 22.5 26.3244 22.5 26.3277C22.5 26.331 22.5 26.3343 22.5 26.3377C22.5 26.341 22.5 26.3444 22.5 26.3477C22.5 26.3511 22.5 26.3545 22.5 26.3579C22.5 26.3612 22.5 26.3647 22.5 26.3681C22.5 26.3715 22.5 26.3749 22.5 26.3784C22.5 26.3818 22.5 26.3853 22.5 26.3888C22.5 26.3922 22.5 26.3957 22.5 26.3992C22.5 26.4027 22.5 26.4062 22.5 26.4098C22.5 26.4133 22.5 26.4168 22.5 26.4204C22.5 26.424 22.5 26.4275 22.5 26.4311C22.5 26.4347 22.5 26.4383 22.5 26.4419C22.5 26.4455 22.5 26.4491 22.5 26.4528C22.5 26.4564 22.5 26.4601 22.5 26.4637C22.5 26.4674 22.5 26.4711 22.5 26.4748C22.5 26.4785 22.5 26.4822 22.5 26.4859C22.5 26.4896 22.5 26.4933 22.5 26.4971C22.5 26.5008 22.5 26.5046 22.5 26.5083C22.5 26.5121 22.5 26.5159 22.5 26.5197C22.5 26.5235 22.5 26.5273 22.5 26.5311C22.5 26.5349 22.5 26.5388 22.5 26.5426C22.5 26.5465 22.5 26.5503 22.5 26.5542C22.5 26.5581 22.5 26.562 22.5 26.5659C22.5 26.5698 22.5 26.5737 22.5 26.5776C22.5 26.5816 22.5 26.5855 22.5 26.5895C22.5 26.5934 22.5 26.5974 22.5 26.6014C22.5 26.6053 22.5 26.6093 22.5 26.6133C22.5 26.6173 22.5 26.6214 22.5 26.6254C22.5 26.6294 22.5 26.6335 22.5 26.6375C22.5 26.6416 22.5 26.6456 22.5 26.6497C22.5 26.6538 22.5 26.6579 22.5 26.662C22.5 26.6661 22.5 26.6702 22.5 26.6744C22.5 26.6785 22.5 26.6826 22.5 26.6868C22.5 26.691 22.5 26.6951 22.5 26.6993C22.5 26.7035 22.5 26.7077 22.5 26.7119C22.5 26.7161 22.5 26.7203 22.5 26.7246C22.5 26.7288 22.5 26.733 22.5 26.7373C22.5 26.7416 22.5 26.7458 22.5 26.7501C22.5 26.7544 22.5 26.7587 22.5 26.763C22.5 26.7673 22.5 26.7716 22.5 26.776C22.5 26.7803 22.5 26.7846 22.5 26.789C22.5 26.7934 22.5 26.7977 22.5 26.8021C22.5 26.8065 22.5 26.8109 22.5 26.8153C22.5 26.8197 22.5 26.8241 22.5 26.8285C22.5 26.833 22.5 26.8374 22.5 26.8419C22.5 26.8463 22.5 26.8508 22.5 26.8553C22.5 26.8598 22.5 26.8642 22.5 26.8687C22.5 26.8733 22.5 26.8778 22.5 26.8823C22.5 26.8868 22.5 26.8914 22.5 26.8959C22.5 26.9005 22.5 26.905 22.5 26.9096C22.5 26.9142 22.5 26.9188 22.5 26.9234C22.5 26.928 22.5 26.9326 22.5 26.9372C22.5 26.9418 22.5 26.9464 22.5 26.9511C22.5 26.9557 22.5 26.9604 22.5 26.9651C22.5 26.9697 22.5 26.9744 22.5 26.9791C22.5 26.9838 22.5 26.9885 22.5 26.9932C22.5 26.9979 22.5 27.0027 22.5 27.0074C22.5 27.0121 22.5 27.0169 22.5 27.0217C22.5 27.0264 22.5 27.0312 22.5 27.036C22.5 27.0408 22.5 27.0456 22.5 27.0504C22.5 27.0552 22.5 27.06 22.5 27.0648C22.5 27.0697 22.5 27.0745 22.5 27.0794C22.5 27.0842 22.5 27.0891 22.5 27.094C22.5 27.0988 22.5 27.1037 22.5 27.1086C22.5 27.1135 22.5 27.1184 22.5 27.1234C22.5 27.1283 22.5 27.1332 22.5 27.1382C22.5 27.1431 22.5 27.1481 22.5 27.153C22.5 27.158 22.5 27.163 22.5 27.168C22.5 27.173 22.5 27.178 22.5 27.183C22.5 27.188 22.5 27.193 22.5 27.198C22.5 27.2031 22.5 27.2081 22.5 27.2132C22.5 27.2182 22.5 27.2233 22.5 27.2284C22.5 27.2335 22.5 27.2386 22.5 27.2437C22.5 27.2488 22.5 27.2539 22.5 27.259C22.5 27.2641 22.5 27.2693 22.5 27.2744C22.5 27.2795 22.5 27.2847 22.5 27.2899C22.5 27.295 22.5 27.3002 22.5 27.3054C22.5 27.3106 22.5 27.3158 22.5 27.321C22.5 27.3262 22.5 27.3314 22.5 27.3366C22.5 27.3419 22.5 27.3471 22.5 27.3524C22.5 27.3576 22.5 27.3629 22.5 27.3682C22.5 27.3734 22.5 27.3787 22.5 27.384C22.5 27.3893 22.5 27.3946 22.5 27.3999C22.5 27.4052 22.5 27.4106 22.5 27.4159C22.5 27.4212 22.5 27.4266 22.5 27.432C22.5 27.4373 22.5 27.4427 22.5 27.4481C22.5 27.4534 22.5 27.4588 22.5 27.4642C22.5 27.4696 22.5 27.475 22.5 27.4805C22.5 27.4859 22.5 27.4913 22.5 27.4968C22.5 27.5022 22.5 27.5076 22.5 27.5131C22.5 27.5186 22.5 27.524 22.5 27.5295C22.5 27.535 22.5 27.5405 22.5 27.546C22.5 27.5515 22.5 27.557 22.5 27.5625C22.5 27.5681 22.5 27.5736 22.5 27.5791C22.5 27.5847 22.5 27.5902 22.5 27.5958C22.5 27.6014 22.5 27.6069 22.5 27.6125C22.5 27.6181 22.5 27.6237 22.5 27.6293C22.5 27.6349 22.5 27.6405 22.5 27.6461C22.5 27.6518 22.5 27.6574 22.5 27.663C22.5 27.6687 22.5 27.6743 22.5 27.68C22.5 27.6857 22.5 27.6913 22.5 27.697C22.5 27.7027 22.5 27.7084 22.5 27.7141C22.5 27.7198 22.5 27.7255 22.5 27.7312C22.5 27.7369 22.5 27.7427 22.5 27.7484C22.5 27.7542 22.5 27.7599 22.5 27.7657C22.5 27.7714 22.5 27.7772 22.5 27.783C22.5 27.7888 22.5 27.7946 22.5 27.8004C22.5 27.8062 22.5 27.812 22.5 27.8178C22.5 27.8236 22.5 27.8294 22.5 27.8353C22.5 27.8411 22.5 27.8469 22.5 27.8528C22.5 27.8587 22.5 27.8645 22.5 27.8704C22.5 27.8763 22.5 27.8822 22.5 27.888C22.5 27.8939 22.5 27.8998 22.5 27.9058C22.5 27.9117 22.5 27.9176 22.5 27.9235C22.5 27.9295 22.5 27.9354 22.5 27.9413C22.5 27.9473 22.5 27.9532 22.5 27.9592C22.5 27.9652 22.5 27.9712 22.5 27.9771C22.5 27.9831 22.5 27.9891 22.5 27.9951C22.5 28.0011 22.5 28.0072 22.5 28.0132C22.5 28.0192 22.5 28.0252 22.5 28.0313C22.5 28.0373 22.5 28.0434 22.5 28.0494C22.5 28.0555 22.5 28.0615 22.5 28.0676C22.5 28.0737 22.5 28.0798 22.5 28.0859C22.5 28.092 22.5 28.0981 22.5 28.1042C22.5 28.1103 22.5 28.1164 22.5 28.1226C22.5 28.1287 22.5 28.1348 22.5 28.141C22.5 28.1471 22.5 28.1533 22.5 28.1594C22.5 28.1656 22.5 28.1718 22.5 28.178C22.5 28.1841 22.5 28.1903 22.5 28.1965C22.5 28.2027 22.5 28.2089 22.5 28.2152C22.5 28.2214 22.5 28.2276 22.5 28.2338C22.5 28.2401 22.5 28.2463 22.5 28.2526C22.5 28.2588 22.5 28.2651 22.5 28.2713C22.5 28.2776 22.5 28.2839 22.5 28.2902C22.5 28.2965 22.5 28.3028 22.5 28.3091C22.5 28.3154 22.5 28.3217 22.5 28.328C22.5 28.3343 22.5 28.3406 22.5 28.347C22.5 28.3533 22.5 28.3597 22.5 28.366C22.5 28.3724 22.5 28.3787 22.5 28.3851C22.5 28.3915 22.5 28.3978 22.5 28.4042C22.5 28.4106 22.5 28.417 22.5 28.4234C22.5 28.4298 22.5 28.4362 22.5 28.4426C22.5 28.4491 22.5 28.4555 22.5 28.4619C22.5 28.4684 22.5 28.4748 22.5 28.4812C22.5 28.4877 22.5 28.4942 22.5 28.5006C22.5 28.5071 22.5 28.5136 22.5 28.52C22.5 28.5265 22.5 28.533 22.5 28.5395C22.5 28.546 22.5 28.5525 22.5 28.559C22.5 28.5656 22.5 28.5721 22.5 28.5786C22.5 28.5851 22.5 28.5917 22.5 28.5982C22.5 28.6048 22.5 28.6113 22.5 28.6179C22.5 28.6244 22.5 28.631 22.5 28.6376C22.5 28.6442 22.5 28.6507 22.5 28.6573C22.5 28.6639 22.5 28.6705 22.5 28.6771C22.5 28.6837 22.5 28.6904 22.5 28.697C22.5 28.7036 22.5 28.7102 22.5 28.7169C22.5 28.7235 22.5 28.7302 22.5 28.7368C22.5 28.7435 22.5 28.7501 22.5 28.7568C22.5 28.7635 22.5 28.7701 22.5 28.7768C22.5 28.7835 22.5 28.7902 22.5 28.7969C22.5 28.8036 22.5 28.8103 22.5 28.817C22.5 28.8237 22.5 28.8304 22.5 28.8372C22.5 28.8439 22.5 28.8506 22.5 28.8574C22.5 28.8641 22.5 28.8709 22.5 28.8776C22.5 28.8844 22.5 28.8911 22.5 28.8979C22.5 28.9047 22.5 28.9115 22.5 28.9182C22.5 28.925 22.5 28.9318 22.5 28.9386C22.5 28.9454 22.5 28.9522 22.5 28.959C22.5 28.9659 22.5 28.9727 22.5 28.9795C22.5 28.9863 22.5 28.9932 22.5 29C22.5 29.0068 22.5 29.0137 22.5 29.0206C22.5 29.0274 22.5 29.0343 22.5 29.0411C22.5 29.048 22.5 29.0549 22.5 29.0618C22.5 29.0686 22.5 29.0755 22.5 29.0824C22.5 29.0893 22.5 29.0962 22.5 29.1031C22.5 29.1101 22.5 29.117 22.5 29.1239C22.5 29.1308 22.5 29.1378 22.5 29.1447C22.5 29.1516 22.5 29.1586 22.5 29.1655C22.5 29.1725 22.5 29.1794 22.5 29.1864C22.5 29.1934 22.5 29.2003 22.5 29.2073C22.5 29.2143 22.5 29.2213 22.5 29.2283C22.5 29.2352 22.5 29.2422 22.5 29.2492C22.5 29.2562 22.5 29.2633 22.5 29.2703C22.5 29.2773 22.5 29.2843 22.5 29.2913C22.5 29.2984 22.5 29.3054 22.5 29.3124C22.5 29.3195 22.5 29.3265 22.5 29.3336C22.5 29.3406 22.5 29.3477 22.5 29.3548C22.5 29.3618 22.5 29.3689 22.5 29.376C22.5 29.3831 22.5 29.3902 22.5 29.3973C22.5 29.4043 22.5 29.4114 22.5 29.4185C22.5 29.4257 22.5 29.4328 22.5 29.4399C22.5 29.447 22.5 29.4541 22.5 29.4612C22.5 29.4684 22.5 29.4755 22.5 29.4827C22.5 29.4898 22.5 29.4969 22.5 29.5041C22.5 29.5112 22.5 29.5184 22.5 29.5256C22.5 29.5327 22.5 29.5399 22.5 29.5471C22.5 29.5543 22.5 29.5614 22.5 29.5686C22.5 29.5758 22.5 29.583 22.5 29.5902C22.5 29.5974 22.5 29.6046 22.5 29.6118C22.5 29.619 22.5 29.6263 22.5 29.6335C22.5 29.6407 22.5 29.6479 22.5 29.6552C22.5 29.6624 22.5 29.6697 22.5 29.6769C22.5 29.6841 22.5 29.6914 22.5 29.6987C22.5 29.7059 22.5 29.7132 22.5 29.7204C22.5 29.7277 22.5 29.735 22.5 29.7423C22.5 29.7495 22.5 29.7568 22.5 29.7641C22.5 29.7714 22.5 29.7787 22.5 29.786C22.5 29.7933 22.5 29.8006 22.5 29.8079C22.5 29.8153 22.5 29.8226 22.5 29.8299C22.5 29.8372 22.5 29.8445 22.5 29.8519C22.5 29.8592 22.5 29.8666 22.5 29.8739C22.5 29.8812 22.5 29.8886 22.5 29.896C22.5 29.9033 22.5 29.9107 22.5 29.918C22.5 29.9254 22.5 29.9328 22.5 29.9401C22.5 29.9475 22.5 29.9549 22.5 29.9623C22.5 29.9697 22.5 29.9771 22.5 29.9845C22.5 29.9919 22.5 29.9993 22.5 30.0067C22.5 30.0141 22.5 30.0215 22.5 30.0289C22.5 30.0363 22.5 30.0438 22.5 30.0512C22.5 30.0586 22.5 30.066 22.5 30.0735C22.5 30.0809 22.5 30.0884 22.5 30.0958C22.5 30.1033 22.5 30.1107 22.5 30.1182C22.5 30.1256 22.5 30.1331 22.5 30.1405C22.5 30.148 22.5 30.1555 22.5 30.163C22.5 30.1704 22.5 30.1779 22.5 30.1854C22.5 30.1929 22.5 30.2004 22.5 30.2079C22.5 30.2154 22.5 30.2229 22.5 30.2304C22.5 30.2379 22.5 30.2454 22.5 30.2529C22.5 30.2604 22.5 30.2679 22.5 30.2755C22.5 30.283 22.5 30.2905 22.5 30.298C22.5 30.3056 22.5 30.3131 22.5 30.3206C22.5 30.3282 22.5 30.3357 22.5 30.3433C22.5 30.3508 22.5 30.3584 22.5 30.3659C22.5 30.3735 22.5 30.3811 22.5 30.3886C22.5 30.3962 22.5 30.4038 22.5 30.4113C22.5 30.4189 22.5 30.4265 22.5 30.4341C22.5 30.4417 22.5 30.4493 22.5 30.4568C22.5 30.4644 22.5 30.472 22.5 30.4796C22.5 30.4872 22.5 30.4948 22.5 30.5025C22.5 30.5101 22.5 30.5177 22.5 30.5253C22.5 30.5329 22.5 30.5405 22.5 30.5482C22.5 30.5558 22.5 30.5634 22.5 30.5711C22.5 30.5787 22.5 30.5863 22.5 30.594C22.5 30.6016 22.5 30.6093 22.5 30.6169C22.5 30.6246 22.5 30.6322 22.5 30.6399C22.5 30.6475 22.5 30.6552 22.5 30.6629C22.5 30.6705 22.5 30.6782 22.5 30.6859C22.5 30.6935 22.5 30.7012 22.5 30.7089C22.5 30.7166 22.5 30.7243 22.5 30.732C22.5 30.7396 22.5 30.7473 22.5 30.755C22.5 30.7627 22.5 30.7704 22.5 30.7781C22.5 30.7858 22.5 30.7935 22.5 30.8013C22.5 30.809 22.5 30.8167 22.5 30.8244C22.5 30.8321 22.5 30.8398 22.5 30.8476C22.5 30.8553 22.5 30.863 22.5 30.8707C22.5 30.8785 22.5 30.8862 22.5 30.894C22.5 30.9017 22.5 30.9094 22.5 30.9172C22.5 30.9249 22.5 30.9327 22.5 30.9404C22.5 30.9482 22.5 30.9559 22.5 30.9637C22.5 30.9715 22.5 30.9792 22.5 30.987C22.5 30.9947 22.5 31.0025 22.5 31.0103C22.5 31.0181 22.5 31.0258 22.5 31.0336C22.5 31.0414 22.5 31.0492 22.5 31.057C22.5 31.0648 22.5 31.0725 22.5 31.0803C22.5 31.0881 22.5 31.0959 22.5 31.1037C22.5 31.1115 22.5 31.1193 22.5 31.1271C22.5 31.1349 22.5 31.1427 22.5 31.1505C22.5 31.1583 22.5 31.1662 22.5 31.174C22.5 31.1818 22.5 31.1896 22.5 31.1974C22.5 31.2053 22.5 31.2131 22.5 31.2209C22.5 31.2287 22.5 31.2366 22.5 31.2444C22.5 31.2522 22.5 31.2601 22.5 31.2679C22.5 31.2757 22.5 31.2836 22.5 31.2914C22.5 31.2993 22.5 31.3071 22.5 31.315C22.5 31.3228 22.5 31.3307 22.5 31.3385C22.5 31.3464 22.5 31.3542 22.5 31.3621C22.5 31.37 22.5 31.3778 22.5 31.3857C22.5 31.3936 22.5 31.4014 22.5 31.4093C22.5 31.4172 22.5 31.425 22.5 31.4329C22.5 31.4408 22.5 31.4487 22.5 31.4566C22.5 31.4644 22.5 31.4723 22.5 31.4802C22.5 31.4881 22.5 31.496 22.5 31.5039C22.5 31.5118 22.5 31.5197 22.5 31.5276C22.5 31.5355 22.5 31.5434 22.5 31.5513C22.5 31.5592 22.5 31.5671 22.5 31.575C22.5 31.5829 22.5 31.5908 22.5 31.5987C22.5 31.6066 22.5 31.6145 22.5 31.6224C22.5 31.6303 22.5 31.6382 22.5 31.6462C22.5 31.6541 22.5 31.662 22.5 31.6699C22.5 31.6778 22.5 31.6858 22.5 31.6937C22.5 31.7016 22.5 31.7095 22.5 31.7175C22.5 31.7254 22.5 31.7333 22.5 31.7413C22.5 31.7492 22.5 31.7571 22.5 31.7651C22.5 31.773 22.5 31.781 22.5 31.7889C22.5 31.7969 22.5 31.8048 22.5 31.8127C22.5 31.8207 22.5 31.8286 22.5 31.8366C22.5 31.8445 22.5 31.8525 22.5 31.8604C22.5 31.8684 22.5 31.8763 22.5 31.8843C22.5 31.8923 22.5 31.9002 22.5 31.9082C22.5 31.9161 22.5 31.9241 22.5 31.9321C22.5 31.94 22.5 31.948 22.5 31.956C22.5 31.9639 22.5 31.9719 22.5 31.9799C22.5 31.9878 22.5 31.9958 22.5 32.0038C22.5 32.0118 22.5 32.0197 22.5 32.0277C22.5 32.0357 22.5 32.0437 22.5 32.0516C22.5 32.0596 22.5 32.0676 22.5 32.0756C22.5 32.0836 22.5 32.0915 22.5 32.0995C22.5 32.1075 22.5 32.1155 22.5 32.1235C22.5 32.1315 22.5 32.1395 22.5 32.1474C22.5 32.1554 22.5 32.1634 22.5 32.1714C22.5 32.1794 22.5 32.1874 22.5 32.1954C22.5 32.2034 22.5 32.2114 22.5 32.2194C22.5 32.2274 22.5 32.2354 22.5 32.2434C22.5 32.2514 22.5 32.2594 22.5 32.2674C22.5 32.2754 22.5 32.2834 22.5 32.2914C22.5 32.2994 22.5 32.3074 22.5 32.3154C22.5 32.3234 22.5 32.3314 22.5 32.3394C22.5 32.3474 22.5 32.3554 22.5 32.3635C22.5 32.3715 22.5 32.3795 22.5 32.3875C22.5 32.3955 22.5 32.4035 22.5 32.4115C22.5 32.4195 22.5 32.4275 22.5 32.4356C22.5 32.4436 22.5 32.4516 22.5 32.4596C22.5 32.4676 22.5 32.4756 22.5 32.4837C22.5 32.4917 22.5 32.4997 22.5 32.5077C22.5 32.5157 22.5 32.5237 22.5 32.5318C22.5 32.5398 22.5 32.5478 22.5 32.5558C22.5 32.5639 22.5 32.5719 22.5 32.5799C22.5 32.5879 22.5 32.5959 22.5 32.604C22.5 32.612 22.5 32.62 22.5 32.628C22.5 32.6361 22.5 32.6441 22.5 32.6521C22.5 32.6601 22.5 32.6682 22.5 32.6762C22.5 32.6842 22.5 32.6922 22.5 32.7003C22.5 32.7083 22.5 32.7163 22.5 32.7244C22.5 32.7324 22.5 32.7404 22.5 32.7484C22.5 32.7565 22.5 32.7645 22.5 32.7725C22.5 32.7805 22.5 32.7886 22.5 32.7966C22.5 32.8046 22.5 32.8127 22.5 32.8207C22.5 32.8287 22.5 32.8368 22.5 32.8448C22.5 32.8528 22.5 32.8608 22.5 32.8689C22.5 32.8769 22.5 32.8849 22.5 32.893C22.5 32.901 22.5 32.909 22.5 32.917C22.5 32.9251 22.5 32.9331 22.5 32.9411C22.5 32.9492 22.5 32.9572 22.5 32.9652C22.5 32.9733 22.5 32.9813 22.5 32.9893C22.5 32.9973 22.5 33.0054 22.5 33.0134C22.5 33.0214 22.5 33.0295 22.5 33.0375C22.5 33.0455 22.5 33.0535 22.5 33.0616C22.5 33.0696 22.5 33.0776 22.5 33.0856C22.5 33.0937 22.5 33.1017 22.5 33.1097C22.5 33.1178 22.5 33.1258 22.5 33.1338C22.5 33.1418 22.5 33.1499 22.5 33.1579C22.5 33.1659 22.5 33.1739 22.5 33.182C22.5 33.19 22.5 33.198 22.5 33.206C22.5 33.214 22.5 33.2221 22.5 33.2301C22.5 33.2381 22.5 33.2461 22.5 33.2542C22.5 33.2622 22.5 33.2702 22.5 33.2782C22.5 33.2862 22.5 33.2943 22.5 33.3023C22.5 33.3103 22.5 33.3183 22.5 33.3263C22.5 33.3343 22.5 33.3424 22.5 33.3504C22.5 33.3584 22.5 33.3664 22.5 33.3744C22.5 33.3824 22.5 33.3904 22.5 33.3985C22.5 33.4065 22.5 33.4145 22.5 33.4225C22.5 33.4305 22.5 33.4385 22.5 33.4465C22.5 33.4545 22.5 33.4625 22.5 33.4705C22.5 33.4785 22.5 33.4865 22.5 33.4945C22.5 33.5026 22.5 33.5106 22.5 33.5186C22.5 33.5266 22.5 33.5346 22.5 33.5426C22.5 33.5506 22.5 33.5586 22.5 33.5666C22.5 33.5746 22.5 33.5826 22.5 33.5905C22.5 33.5985 22.5 33.6065 22.5 33.6145C22.5 33.6225 22.5 33.6305 22.5 33.6385C22.5 33.6465 22.5 33.6545 22.5 33.6625C22.5 33.6705 22.5 33.6784 22.5 33.6864C22.5 33.6944 22.5 33.7024 22.5 33.7104C22.5 33.7184 22.5 33.7263 22.5 33.7343C22.5 33.7423 22.5 33.7503 22.5 33.7583C22.5 33.7662 22.5 33.7742 22.5 33.7822C22.5 33.7902 22.5 33.7981 22.5 33.8061C22.5 33.8141 22.5 33.822 22.5 33.83C22.5 33.838 22.5 33.8459 22.5 33.8539C22.5 33.8619 22.5 33.8698 22.5 33.8778C22.5 33.8858 22.5 33.8937 22.5 33.9017C22.5 33.9096 22.5 33.9176 22.5 33.9255C22.5 33.9335 22.5 33.9415 22.5 33.9494C22.5 33.9574 22.5 33.9653 22.5 33.9733C22.5 33.9812 22.5 33.9891 22.5 33.9971C22.5 34.005 22.5 34.013 22.5 34.0209C22.5 34.0288 22.5 34.0368 22.5 34.0447C22.5 34.0527 22.5 34.0606 22.5 34.0685C22.5 34.0765 22.5 34.0844 22.5 34.0923C22.5 34.1002 22.5 34.1082 22.5 34.1161C22.5 34.124 22.5 34.1319 22.5 34.1399C22.5 34.1478 22.5 34.1557 22.5 34.1636C22.5 34.1715 22.5 34.1794 22.5 34.1873C22.5 34.1953 22.5 34.2032 22.5 34.2111C22.5 34.219 22.5 34.2269 22.5 34.2348C22.5 34.2427 22.5 34.2506 22.5 34.2585C22.5 34.2664 22.5 34.2743 22.5 34.2822C22.5 34.2901 22.5 34.2979 22.5 34.3058C22.5 34.3137 22.5 34.3216 22.5 34.3295C22.5 34.3374 22.5 34.3452 22.5 34.3531C22.5 34.361 22.5 34.3689 22.5 34.3768C22.5 34.3846 22.5 34.3925 22.5 34.4004C22.5 34.4082 22.5 34.4161 22.5 34.424C22.5 34.4318 22.5 34.4397 22.5 34.4475C22.5 34.4554 22.5 34.4632 22.5 34.4711C22.5 34.4789 22.5 34.4868 22.5 34.4946C22.5 34.5025 22.5 34.5103 22.5 34.5182C22.5 34.526 22.5 34.5339 22.5 34.5417C22.5 34.5495 22.5 34.5574 22.5 34.5652C22.5 34.573 22.5 34.5808 22.5 34.5887C22.5 34.5965 22.5 34.6043 22.5 34.6121C22.5 34.6199 22.5 34.6278 22.5 34.6356C22.5 34.6434 22.5 34.6512 22.5 34.659C22.5 34.6668 22.5 34.6746 22.5 34.6824C22.5 34.6902 22.5 34.698 22.5 34.7058C22.5 34.7136 22.5 34.7214 22.5 34.7292C22.5 34.737 22.5 34.7447 22.5 34.7525C22.5 34.7603 22.5 34.7681 22.5 34.7759C22.5 34.7836 22.5 34.7914 22.5 34.7992C22.5 34.8069 22.5 34.8147 22.5 34.8225C22.5 34.8302 22.5 34.838 22.5 34.8457C22.5 34.8535 22.5 34.8612 22.5 34.869C22.5 34.8767 22.5 34.8845 22.5 34.8922C22.5 34.9 22.5 34.9077 22.5 34.9154C22.5 34.9232 22.5 34.9309 22.5 34.9386C22.5 34.9464 22.5 34.9541 22.5 34.9618C22.5 34.9695 22.5 34.9772 22.5 34.9849C22.5 34.9927 22.5 35.0004 22.5 35.0081C22.5 35.0158 22.5 35.0235 22.5 35.0312C22.5 35.0389 22.5 35.0466 22.5 35.0543C22.5 35.062 22.5 35.0696 22.5 35.0773C22.5 35.085 22.5 35.0927 22.5 35.1004C22.5 35.108 22.5 35.1157 22.5 35.1234C22.5 35.131 22.5 35.1387 22.5 35.1464C22.5 35.154 22.5 35.1617 22.5 35.1693C22.5 35.177 22.5 35.1846 22.5 35.1923C22.5 35.1999 22.5 35.2076 22.5 35.2152C22.5 35.2228 22.5 35.2305 22.5 35.2381C22.5 35.2457 22.5 35.2534 22.5 35.261C22.5 35.2686 22.5 35.2762 22.5 35.2838C22.5 35.2914 22.5 35.299 22.5 35.3066C22.5 35.3143 22.5 35.3219 22.5 35.3294C22.5 35.337 22.5 35.3446 22.5 35.3522C22.5 35.3598 22.5 35.3674 22.5 35.375C22.5 35.3825 22.5 35.3901 22.5 35.3977C22.5 35.4053 22.5 35.4128 22.5 35.4204C22.5 35.4279 22.5 35.4355 22.5 35.4431C22.5 35.4506 22.5 35.4582 22.5 35.4657C22.5 35.4732 22.5 35.4808 22.5 35.4883C22.5 35.4959 22.5 35.5034 22.5 35.5109C22.5 35.5184 22.5 35.526 22.5 35.5335C22.5 35.541 22.5 35.5485 22.5 35.556C22.5 35.5635 22.5 35.571 22.5 35.5785C22.5 35.586 22.5 35.5935 22.5 35.601C22.5 35.6085 22.5 35.616 22.5 35.6234C22.5 35.6309 22.5 35.6384 22.5 35.6459C22.5 35.6533 22.5 35.6608 22.5 35.6683C22.5 35.6757 22.5 35.6832 22.5 35.6906C22.5 35.6981 22.5 35.7055 22.5 35.713C22.5 35.7204 22.5 35.7278 22.5 35.7353C22.5 35.7427 22.5 35.7501 22.5 35.7575C22.5 35.765 22.5 35.7724 22.5 35.7798C22.5 35.7872 22.5 35.7946 22.5 35.802C22.5 35.8094 22.5 35.8168 22.5 35.8242C22.5 35.8316 22.5 35.839 22.5 35.8463C22.5 35.8537 22.5 35.8611 22.5 35.8685C22.5 35.8758 22.5 35.8832 22.5 35.8906C22.5 35.8979 22.5 35.9053 22.5 35.9126C22.5 35.92 22.5 35.9273 22.5 35.9346C22.5 35.942 22.5 35.9493 22.5 35.9566C22.5 35.964 22.5 35.9713 22.5 35.9786C22.5 35.9859 22.5 35.9932 22.5 36.0005H24H25.5C25.5 35.9932 25.5 35.9859 25.5 35.9786C25.5 35.9713 25.5 35.964 25.5 35.9566C25.5 35.9493 25.5 35.942 25.5 35.9346C25.5 35.9273 25.5 35.92 25.5 35.9126C25.5 35.9053 25.5 35.8979 25.5 35.8906C25.5 35.8832 25.5 35.8758 25.5 35.8685C25.5 35.8611 25.5 35.8537 25.5 35.8463C25.5 35.839 25.5 35.8316 25.5 35.8242C25.5 35.8168 25.5 35.8094 25.5 35.802C25.5 35.7946 25.5 35.7872 25.5 35.7798C25.5 35.7724 25.5 35.765 25.5 35.7575C25.5 35.7501 25.5 35.7427 25.5 35.7353C25.5 35.7278 25.5 35.7204 25.5 35.713C25.5 35.7055 25.5 35.6981 25.5 35.6906C25.5 35.6832 25.5 35.6757 25.5 35.6683C25.5 35.6608 25.5 35.6533 25.5 35.6459C25.5 35.6384 25.5 35.6309 25.5 35.6234C25.5 35.616 25.5 35.6085 25.5 35.601C25.5 35.5935 25.5 35.586 25.5 35.5785C25.5 35.571 25.5 35.5635 25.5 35.556C25.5 35.5485 25.5 35.541 25.5 35.5335C25.5 35.526 25.5 35.5184 25.5 35.5109C25.5 35.5034 25.5 35.4959 25.5 35.4883C25.5 35.4808 25.5 35.4732 25.5 35.4657C25.5 35.4582 25.5 35.4506 25.5 35.4431C25.5 35.4355 25.5 35.4279 25.5 35.4204C25.5 35.4128 25.5 35.4053 25.5 35.3977C25.5 35.3901 25.5 35.3825 25.5 35.375C25.5 35.3674 25.5 35.3598 25.5 35.3522C25.5 35.3446 25.5 35.337 25.5 35.3294C25.5 35.3219 25.5 35.3143 25.5 35.3066C25.5 35.299 25.5 35.2914 25.5 35.2838C25.5 35.2762 25.5 35.2686 25.5 35.261C25.5 35.2534 25.5 35.2457 25.5 35.2381C25.5 35.2305 25.5 35.2228 25.5 35.2152C25.5 35.2076 25.5 35.1999 25.5 35.1923C25.5 35.1846 25.5 35.177 25.5 35.1693C25.5 35.1617 25.5 35.154 25.5 35.1464C25.5 35.1387 25.5 35.131 25.5 35.1234C25.5 35.1157 25.5 35.108 25.5 35.1004C25.5 35.0927 25.5 35.085 25.5 35.0773C25.5 35.0696 25.5 35.062 25.5 35.0543C25.5 35.0466 25.5 35.0389 25.5 35.0312C25.5 35.0235 25.5 35.0158 25.5 35.0081C25.5 35.0004 25.5 34.9927 25.5 34.9849C25.5 34.9772 25.5 34.9695 25.5 34.9618C25.5 34.9541 25.5 34.9464 25.5 34.9386C25.5 34.9309 25.5 34.9232 25.5 34.9154C25.5 34.9077 25.5 34.9 25.5 34.8922C25.5 34.8845 25.5 34.8767 25.5 34.869C25.5 34.8612 25.5 34.8535 25.5 34.8457C25.5 34.838 25.5 34.8302 25.5 34.8225C25.5 34.8147 25.5 34.8069 25.5 34.7992C25.5 34.7914 25.5 34.7836 25.5 34.7759C25.5 34.7681 25.5 34.7603 25.5 34.7525C25.5 34.7447 25.5 34.737 25.5 34.7292C25.5 34.7214 25.5 34.7136 25.5 34.7058C25.5 34.698 25.5 34.6902 25.5 34.6824C25.5 34.6746 25.5 34.6668 25.5 34.659C25.5 34.6512 25.5 34.6434 25.5 34.6356C25.5 34.6278 25.5 34.6199 25.5 34.6121C25.5 34.6043 25.5 34.5965 25.5 34.5887C25.5 34.5808 25.5 34.573 25.5 34.5652C25.5 34.5574 25.5 34.5495 25.5 34.5417C25.5 34.5339 25.5 34.526 25.5 34.5182C25.5 34.5103 25.5 34.5025 25.5 34.4946C25.5 34.4868 25.5 34.4789 25.5 34.4711C25.5 34.4632 25.5 34.4554 25.5 34.4475C25.5 34.4397 25.5 34.4318 25.5 34.424C25.5 34.4161 25.5 34.4082 25.5 34.4004C25.5 34.3925 25.5 34.3846 25.5 34.3768C25.5 34.3689 25.5 34.361 25.5 34.3531C25.5 34.3452 25.5 34.3374 25.5 34.3295C25.5 34.3216 25.5 34.3137 25.5 34.3058C25.5 34.2979 25.5 34.2901 25.5 34.2822C25.5 34.2743 25.5 34.2664 25.5 34.2585C25.5 34.2506 25.5 34.2427 25.5 34.2348C25.5 34.2269 25.5 34.219 25.5 34.2111C25.5 34.2032 25.5 34.1953 25.5 34.1873C25.5 34.1794 25.5 34.1715 25.5 34.1636C25.5 34.1557 25.5 34.1478 25.5 34.1399C25.5 34.1319 25.5 34.124 25.5 34.1161C25.5 34.1082 25.5 34.1002 25.5 34.0923C25.5 34.0844 25.5 34.0765 25.5 34.0685C25.5 34.0606 25.5 34.0527 25.5 34.0447C25.5 34.0368 25.5 34.0288 25.5 34.0209C25.5 34.013 25.5 34.005 25.5 33.9971C25.5 33.9891 25.5 33.9812 25.5 33.9733C25.5 33.9653 25.5 33.9574 25.5 33.9494C25.5 33.9415 25.5 33.9335 25.5 33.9255C25.5 33.9176 25.5 33.9096 25.5 33.9017C25.5 33.8937 25.5 33.8858 25.5 33.8778C25.5 33.8698 25.5 33.8619 25.5 33.8539C25.5 33.8459 25.5 33.838 25.5 33.83C25.5 33.822 25.5 33.8141 25.5 33.8061C25.5 33.7981 25.5 33.7902 25.5 33.7822C25.5 33.7742 25.5 33.7662 25.5 33.7583C25.5 33.7503 25.5 33.7423 25.5 33.7343C25.5 33.7263 25.5 33.7184 25.5 33.7104C25.5 33.7024 25.5 33.6944 25.5 33.6864C25.5 33.6784 25.5 33.6705 25.5 33.6625C25.5 33.6545 25.5 33.6465 25.5 33.6385C25.5 33.6305 25.5 33.6225 25.5 33.6145C25.5 33.6065 25.5 33.5985 25.5 33.5905C25.5 33.5826 25.5 33.5746 25.5 33.5666C25.5 33.5586 25.5 33.5506 25.5 33.5426C25.5 33.5346 25.5 33.5266 25.5 33.5186C25.5 33.5106 25.5 33.5026 25.5 33.4945C25.5 33.4865 25.5 33.4785 25.5 33.4705C25.5 33.4625 25.5 33.4545 25.5 33.4465C25.5 33.4385 25.5 33.4305 25.5 33.4225C25.5 33.4145 25.5 33.4065 25.5 33.3985C25.5 33.3904 25.5 33.3824 25.5 33.3744C25.5 33.3664 25.5 33.3584 25.5 33.3504C25.5 33.3424 25.5 33.3343 25.5 33.3263C25.5 33.3183 25.5 33.3103 25.5 33.3023C25.5 33.2943 25.5 33.2862 25.5 33.2782C25.5 33.2702 25.5 33.2622 25.5 33.2542C25.5 33.2461 25.5 33.2381 25.5 33.2301C25.5 33.2221 25.5 33.214 25.5 33.206C25.5 33.198 25.5 33.19 25.5 33.182C25.5 33.1739 25.5 33.1659 25.5 33.1579C25.5 33.1499 25.5 33.1418 25.5 33.1338C25.5 33.1258 25.5 33.1178 25.5 33.1097C25.5 33.1017 25.5 33.0937 25.5 33.0856C25.5 33.0776 25.5 33.0696 25.5 33.0616C25.5 33.0535 25.5 33.0455 25.5 33.0375C25.5 33.0295 25.5 33.0214 25.5 33.0134C25.5 33.0054 25.5 32.9973 25.5 32.9893C25.5 32.9813 25.5 32.9733 25.5 32.9652C25.5 32.9572 25.5 32.9492 25.5 32.9411C25.5 32.9331 25.5 32.9251 25.5 32.917C25.5 32.909 25.5 32.901 25.5 32.893C25.5 32.8849 25.5 32.8769 25.5 32.8689C25.5 32.8608 25.5 32.8528 25.5 32.8448C25.5 32.8368 25.5 32.8287 25.5 32.8207C25.5 32.8127 25.5 32.8046 25.5 32.7966C25.5 32.7886 25.5 32.7805 25.5 32.7725C25.5 32.7645 25.5 32.7565 25.5 32.7484C25.5 32.7404 25.5 32.7324 25.5 32.7244C25.5 32.7163 25.5 32.7083 25.5 32.7003C25.5 32.6922 25.5 32.6842 25.5 32.6762C25.5 32.6682 25.5 32.6601 25.5 32.6521C25.5 32.6441 25.5 32.6361 25.5 32.628C25.5 32.62 25.5 32.612 25.5 32.604C25.5 32.5959 25.5 32.5879 25.5 32.5799C25.5 32.5719 25.5 32.5639 25.5 32.5558C25.5 32.5478 25.5 32.5398 25.5 32.5318C25.5 32.5237 25.5 32.5157 25.5 32.5077C25.5 32.4997 25.5 32.4917 25.5 32.4837C25.5 32.4756 25.5 32.4676 25.5 32.4596C25.5 32.4516 25.5 32.4436 25.5 32.4356C25.5 32.4275 25.5 32.4195 25.5 32.4115C25.5 32.4035 25.5 32.3955 25.5 32.3875C25.5 32.3795 25.5 32.3715 25.5 32.3635C25.5 32.3554 25.5 32.3474 25.5 32.3394C25.5 32.3314 25.5 32.3234 25.5 32.3154C25.5 32.3074 25.5 32.2994 25.5 32.2914C25.5 32.2834 25.5 32.2754 25.5 32.2674C25.5 32.2594 25.5 32.2514 25.5 32.2434C25.5 32.2354 25.5 32.2274 25.5 32.2194C25.5 32.2114 25.5 32.2034 25.5 32.1954C25.5 32.1874 25.5 32.1794 25.5 32.1714C25.5 32.1634 25.5 32.1554 25.5 32.1474C25.5 32.1395 25.5 32.1315 25.5 32.1235C25.5 32.1155 25.5 32.1075 25.5 32.0995C25.5 32.0915 25.5 32.0836 25.5 32.0756C25.5 32.0676 25.5 32.0596 25.5 32.0516C25.5 32.0437 25.5 32.0357 25.5 32.0277C25.5 32.0197 25.5 32.0118 25.5 32.0038C25.5 31.9958 25.5 31.9878 25.5 31.9799C25.5 31.9719 25.5 31.9639 25.5 31.956C25.5 31.948 25.5 31.94 25.5 31.9321C25.5 31.9241 25.5 31.9161 25.5 31.9082C25.5 31.9002 25.5 31.8923 25.5 31.8843C25.5 31.8763 25.5 31.8684 25.5 31.8604C25.5 31.8525 25.5 31.8445 25.5 31.8366C25.5 31.8286 25.5 31.8207 25.5 31.8127C25.5 31.8048 25.5 31.7969 25.5 31.7889C25.5 31.781 25.5 31.773 25.5 31.7651C25.5 31.7571 25.5 31.7492 25.5 31.7413C25.5 31.7333 25.5 31.7254 25.5 31.7175C25.5 31.7095 25.5 31.7016 25.5 31.6937C25.5 31.6858 25.5 31.6778 25.5 31.6699C25.5 31.662 25.5 31.6541 25.5 31.6462C25.5 31.6382 25.5 31.6303 25.5 31.6224C25.5 31.6145 25.5 31.6066 25.5 31.5987C25.5 31.5908 25.5 31.5829 25.5 31.575C25.5 31.5671 25.5 31.5592 25.5 31.5513C25.5 31.5434 25.5 31.5355 25.5 31.5276C25.5 31.5197 25.5 31.5118 25.5 31.5039C25.5 31.496 25.5 31.4881 25.5 31.4802C25.5 31.4723 25.5 31.4644 25.5 31.4566C25.5 31.4487 25.5 31.4408 25.5 31.4329C25.5 31.425 25.5 31.4172 25.5 31.4093C25.5 31.4014 25.5 31.3936 25.5 31.3857C25.5 31.3778 25.5 31.37 25.5 31.3621C25.5 31.3542 25.5 31.3464 25.5 31.3385C25.5 31.3307 25.5 31.3228 25.5 31.315C25.5 31.3071 25.5 31.2993 25.5 31.2914C25.5 31.2836 25.5 31.2757 25.5 31.2679C25.5 31.2601 25.5 31.2522 25.5 31.2444C25.5 31.2366 25.5 31.2287 25.5 31.2209C25.5 31.2131 25.5 31.2053 25.5 31.1974C25.5 31.1896 25.5 31.1818 25.5 31.174C25.5 31.1662 25.5 31.1583 25.5 31.1505C25.5 31.1427 25.5 31.1349 25.5 31.1271C25.5 31.1193 25.5 31.1115 25.5 31.1037C25.5 31.0959 25.5 31.0881 25.5 31.0803C25.5 31.0725 25.5 31.0648 25.5 31.057C25.5 31.0492 25.5 31.0414 25.5 31.0336C25.5 31.0258 25.5 31.0181 25.5 31.0103C25.5 31.0025 25.5 30.9947 25.5 30.987C25.5 30.9792 25.5 30.9715 25.5 30.9637C25.5 30.9559 25.5 30.9482 25.5 30.9404C25.5 30.9327 25.5 30.9249 25.5 30.9172C25.5 30.9094 25.5 30.9017 25.5 30.894C25.5 30.8862 25.5 30.8785 25.5 30.8707C25.5 30.863 25.5 30.8553 25.5 30.8476C25.5 30.8398 25.5 30.8321 25.5 30.8244C25.5 30.8167 25.5 30.809 25.5 30.8013C25.5 30.7935 25.5 30.7858 25.5 30.7781C25.5 30.7704 25.5 30.7627 25.5 30.755C25.5 30.7473 25.5 30.7396 25.5 30.732C25.5 30.7243 25.5 30.7166 25.5 30.7089C25.5 30.7012 25.5 30.6935 25.5 30.6859C25.5 30.6782 25.5 30.6705 25.5 30.6629C25.5 30.6552 25.5 30.6475 25.5 30.6399C25.5 30.6322 25.5 30.6246 25.5 30.6169C25.5 30.6093 25.5 30.6016 25.5 30.594C25.5 30.5863 25.5 30.5787 25.5 30.5711C25.5 30.5634 25.5 30.5558 25.5 30.5482C25.5 30.5405 25.5 30.5329 25.5 30.5253C25.5 30.5177 25.5 30.5101 25.5 30.5025C25.5 30.4948 25.5 30.4872 25.5 30.4796C25.5 30.472 25.5 30.4644 25.5 30.4568C25.5 30.4493 25.5 30.4417 25.5 30.4341C25.5 30.4265 25.5 30.4189 25.5 30.4113C25.5 30.4038 25.5 30.3962 25.5 30.3886C25.5 30.3811 25.5 30.3735 25.5 30.3659C25.5 30.3584 25.5 30.3508 25.5 30.3433C25.5 30.3357 25.5 30.3282 25.5 30.3206C25.5 30.3131 25.5 30.3056 25.5 30.298C25.5 30.2905 25.5 30.283 25.5 30.2755C25.5 30.2679 25.5 30.2604 25.5 30.2529C25.5 30.2454 25.5 30.2379 25.5 30.2304C25.5 30.2229 25.5 30.2154 25.5 30.2079C25.5 30.2004 25.5 30.1929 25.5 30.1854C25.5 30.1779 25.5 30.1704 25.5 30.163C25.5 30.1555 25.5 30.148 25.5 30.1405C25.5 30.1331 25.5 30.1256 25.5 30.1182C25.5 30.1107 25.5 30.1033 25.5 30.0958C25.5 30.0884 25.5 30.0809 25.5 30.0735C25.5 30.066 25.5 30.0586 25.5 30.0512C25.5 30.0438 25.5 30.0363 25.5 30.0289C25.5 30.0215 25.5 30.0141 25.5 30.0067C25.5 29.9993 25.5 29.9919 25.5 29.9845C25.5 29.9771 25.5 29.9697 25.5 29.9623C25.5 29.9549 25.5 29.9475 25.5 29.9401C25.5 29.9328 25.5 29.9254 25.5 29.918C25.5 29.9107 25.5 29.9033 25.5 29.896C25.5 29.8886 25.5 29.8812 25.5 29.8739C25.5 29.8666 25.5 29.8592 25.5 29.8519C25.5 29.8445 25.5 29.8372 25.5 29.8299C25.5 29.8226 25.5 29.8153 25.5 29.8079C25.5 29.8006 25.5 29.7933 25.5 29.786C25.5 29.7787 25.5 29.7714 25.5 29.7641C25.5 29.7568 25.5 29.7495 25.5 29.7423C25.5 29.735 25.5 29.7277 25.5 29.7204C25.5 29.7132 25.5 29.7059 25.5 29.6987C25.5 29.6914 25.5 29.6841 25.5 29.6769C25.5 29.6697 25.5 29.6624 25.5 29.6552C25.5 29.6479 25.5 29.6407 25.5 29.6335C25.5 29.6263 25.5 29.619 25.5 29.6118C25.5 29.6046 25.5 29.5974 25.5 29.5902C25.5 29.583 25.5 29.5758 25.5 29.5686C25.5 29.5614 25.5 29.5543 25.5 29.5471C25.5 29.5399 25.5 29.5327 25.5 29.5256C25.5 29.5184 25.5 29.5112 25.5 29.5041C25.5 29.4969 25.5 29.4898 25.5 29.4827C25.5 29.4755 25.5 29.4684 25.5 29.4612C25.5 29.4541 25.5 29.447 25.5 29.4399C25.5 29.4328 25.5 29.4257 25.5 29.4185C25.5 29.4114 25.5 29.4043 25.5 29.3973C25.5 29.3902 25.5 29.3831 25.5 29.376C25.5 29.3689 25.5 29.3618 25.5 29.3548C25.5 29.3477 25.5 29.3406 25.5 29.3336C25.5 29.3265 25.5 29.3195 25.5 29.3124C25.5 29.3054 25.5 29.2984 25.5 29.2913C25.5 29.2843 25.5 29.2773 25.5 29.2703C25.5 29.2633 25.5 29.2562 25.5 29.2492C25.5 29.2422 25.5 29.2352 25.5 29.2283C25.5 29.2213 25.5 29.2143 25.5 29.2073C25.5 29.2003 25.5 29.1934 25.5 29.1864C25.5 29.1794 25.5 29.1725 25.5 29.1655C25.5 29.1586 25.5 29.1516 25.5 29.1447C25.5 29.1378 25.5 29.1308 25.5 29.1239C25.5 29.117 25.5 29.1101 25.5 29.1031C25.5 29.0962 25.5 29.0893 25.5 29.0824C25.5 29.0755 25.5 29.0686 25.5 29.0618C25.5 29.0549 25.5 29.048 25.5 29.0411C25.5 29.0343 25.5 29.0274 25.5 29.0206C25.5 29.0137 25.5 29.0068 25.5 29C25.5 28.9932 25.5 28.9863 25.5 28.9795C25.5 28.9727 25.5 28.9659 25.5 28.959C25.5 28.9522 25.5 28.9454 25.5 28.9386C25.5 28.9318 25.5 28.925 25.5 28.9182C25.5 28.9115 25.5 28.9047 25.5 28.8979C25.5 28.8911 25.5 28.8844 25.5 28.8776C25.5 28.8709 25.5 28.8641 25.5 28.8574C25.5 28.8506 25.5 28.8439 25.5 28.8372C25.5 28.8304 25.5 28.8237 25.5 28.817C25.5 28.8103 25.5 28.8036 25.5 28.7969C25.5 28.7902 25.5 28.7835 25.5 28.7768C25.5 28.7701 25.5 28.7635 25.5 28.7568C25.5 28.7501 25.5 28.7435 25.5 28.7368C25.5 28.7302 25.5 28.7235 25.5 28.7169C25.5 28.7102 25.5 28.7036 25.5 28.697C25.5 28.6904 25.5 28.6837 25.5 28.6771C25.5 28.6705 25.5 28.6639 25.5 28.6573C25.5 28.6507 25.5 28.6442 25.5 28.6376C25.5 28.631 25.5 28.6244 25.5 28.6179C25.5 28.6113 25.5 28.6048 25.5 28.5982C25.5 28.5917 25.5 28.5851 25.5 28.5786C25.5 28.5721 25.5 28.5656 25.5 28.559C25.5 28.5525 25.5 28.546 25.5 28.5395C25.5 28.533 25.5 28.5265 25.5 28.52C25.5 28.5136 25.5 28.5071 25.5 28.5006C25.5 28.4942 25.5 28.4877 25.5 28.4812C25.5 28.4748 25.5 28.4684 25.5 28.4619C25.5 28.4555 25.5 28.4491 25.5 28.4426C25.5 28.4362 25.5 28.4298 25.5 28.4234C25.5 28.417 25.5 28.4106 25.5 28.4042C25.5 28.3978 25.5 28.3915 25.5 28.3851C25.5 28.3787 25.5 28.3724 25.5 28.366C25.5 28.3597 25.5 28.3533 25.5 28.347C25.5 28.3406 25.5 28.3343 25.5 28.328C25.5 28.3217 25.5 28.3154 25.5 28.3091C25.5 28.3028 25.5 28.2965 25.5 28.2902C25.5 28.2839 25.5 28.2776 25.5 28.2713C25.5 28.2651 25.5 28.2588 25.5 28.2526C25.5 28.2463 25.5 28.2401 25.5 28.2338C25.5 28.2276 25.5 28.2214 25.5 28.2152C25.5 28.2089 25.5 28.2027 25.5 28.1965C25.5 28.1903 25.5 28.1841 25.5 28.178C25.5 28.1718 25.5 28.1656 25.5 28.1594C25.5 28.1533 25.5 28.1471 25.5 28.141C25.5 28.1348 25.5 28.1287 25.5 28.1226C25.5 28.1164 25.5 28.1103 25.5 28.1042C25.5 28.0981 25.5 28.092 25.5 28.0859C25.5 28.0798 25.5 28.0737 25.5 28.0676C25.5 28.0615 25.5 28.0555 25.5 28.0494C25.5 28.0434 25.5 28.0373 25.5 28.0313C25.5 28.0252 25.5 28.0192 25.5 28.0132C25.5 28.0072 25.5 28.0011 25.5 27.9951C25.5 27.9891 25.5 27.9831 25.5 27.9771C25.5 27.9712 25.5 27.9652 25.5 27.9592C25.5 27.9532 25.5 27.9473 25.5 27.9413C25.5 27.9354 25.5 27.9295 25.5 27.9235C25.5 27.9176 25.5 27.9117 25.5 27.9058C25.5 27.8998 25.5 27.8939 25.5 27.888C25.5 27.8822 25.5 27.8763 25.5 27.8704C25.5 27.8645 25.5 27.8587 25.5 27.8528C25.5 27.8469 25.5 27.8411 25.5 27.8353C25.5 27.8294 25.5 27.8236 25.5 27.8178C25.5 27.812 25.5 27.8062 25.5 27.8004C25.5 27.7946 25.5 27.7888 25.5 27.783C25.5 27.7772 25.5 27.7714 25.5 27.7657C25.5 27.7599 25.5 27.7542 25.5 27.7484C25.5 27.7427 25.5 27.7369 25.5 27.7312C25.5 27.7255 25.5 27.7198 25.5 27.7141C25.5 27.7084 25.5 27.7027 25.5 27.697C25.5 27.6913 25.5 27.6857 25.5 27.68C25.5 27.6743 25.5 27.6687 25.5 27.663C25.5 27.6574 25.5 27.6518 25.5 27.6461C25.5 27.6405 25.5 27.6349 25.5 27.6293C25.5 27.6237 25.5 27.6181 25.5 27.6125C25.5 27.6069 25.5 27.6014 25.5 27.5958C25.5 27.5902 25.5 27.5847 25.5 27.5791C25.5 27.5736 25.5 27.5681 25.5 27.5625C25.5 27.557 25.5 27.5515 25.5 27.546C25.5 27.5405 25.5 27.535 25.5 27.5295C25.5 27.524 25.5 27.5186 25.5 27.5131C25.5 27.5076 25.5 27.5022 25.5 27.4968C25.5 27.4913 25.5 27.4859 25.5 27.4805C25.5 27.475 25.5 27.4696 25.5 27.4642C25.5 27.4588 25.5 27.4534 25.5 27.4481C25.5 27.4427 25.5 27.4373 25.5 27.432C25.5 27.4266 25.5 27.4212 25.5 27.4159C25.5 27.4106 25.5 27.4052 25.5 27.3999C25.5 27.3946 25.5 27.3893 25.5 27.384C25.5 27.3787 25.5 27.3734 25.5 27.3682C25.5 27.3629 25.5 27.3576 25.5 27.3524C25.5 27.3471 25.5 27.3419 25.5 27.3366C25.5 27.3314 25.5 27.3262 25.5 27.321C25.5 27.3158 25.5 27.3106 25.5 27.3054C25.5 27.3002 25.5 27.295 25.5 27.2899C25.5 27.2847 25.5 27.2795 25.5 27.2744C25.5 27.2693 25.5 27.2641 25.5 27.259C25.5 27.2539 25.5 27.2488 25.5 27.2437C25.5 27.2386 25.5 27.2335 25.5 27.2284C25.5 27.2233 25.5 27.2182 25.5 27.2132C25.5 27.2081 25.5 27.2031 25.5 27.198C25.5 27.193 25.5 27.188 25.5 27.183C25.5 27.178 25.5 27.173 25.5 27.168C25.5 27.163 25.5 27.158 25.5 27.153C25.5 27.1481 25.5 27.1431 25.5 27.1382C25.5 27.1332 25.5 27.1283 25.5 27.1234C25.5 27.1184 25.5 27.1135 25.5 27.1086C25.5 27.1037 25.5 27.0988 25.5 27.094C25.5 27.0891 25.5 27.0842 25.5 27.0794C25.5 27.0745 25.5 27.0697 25.5 27.0648C25.5 27.06 25.5 27.0552 25.5 27.0504C25.5 27.0456 25.5 27.0408 25.5 27.036C25.5 27.0312 25.5 27.0264 25.5 27.0217C25.5 27.0169 25.5 27.0121 25.5 27.0074C25.5 27.0027 25.5 26.9979 25.5 26.9932C25.5 26.9885 25.5 26.9838 25.5 26.9791C25.5 26.9744 25.5 26.9697 25.5 26.9651C25.5 26.9604 25.5 26.9557 25.5 26.9511C25.5 26.9464 25.5 26.9418 25.5 26.9372C25.5 26.9326 25.5 26.928 25.5 26.9234C25.5 26.9188 25.5 26.9142 25.5 26.9096C25.5 26.905 25.5 26.9005 25.5 26.8959C25.5 26.8914 25.5 26.8868 25.5 26.8823C25.5 26.8778 25.5 26.8733 25.5 26.8687C25.5 26.8642 25.5 26.8598 25.5 26.8553C25.5 26.8508 25.5 26.8463 25.5 26.8419C25.5 26.8374 25.5 26.833 25.5 26.8285C25.5 26.8241 25.5 26.8197 25.5 26.8153C25.5 26.8109 25.5 26.8065 25.5 26.8021C25.5 26.7977 25.5 26.7934 25.5 26.789C25.5 26.7846 25.5 26.7803 25.5 26.776C25.5 26.7716 25.5 26.7673 25.5 26.763C25.5 26.7587 25.5 26.7544 25.5 26.7501C25.5 26.7458 25.5 26.7416 25.5 26.7373C25.5 26.733 25.5 26.7288 25.5 26.7246C25.5 26.7203 25.5 26.7161 25.5 26.7119C25.5 26.7077 25.5 26.7035 25.5 26.6993C25.5 26.6951 25.5 26.691 25.5 26.6868C25.5 26.6826 25.5 26.6785 25.5 26.6744C25.5 26.6702 25.5 26.6661 25.5 26.662C25.5 26.6579 25.5 26.6538 25.5 26.6497C25.5 26.6456 25.5 26.6416 25.5 26.6375C25.5 26.6335 25.5 26.6294 25.5 26.6254C25.5 26.6214 25.5 26.6173 25.5 26.6133C25.5 26.6093 25.5 26.6053 25.5 26.6014C25.5 26.5974 25.5 26.5934 25.5 26.5895C25.5 26.5855 25.5 26.5816 25.5 26.5776C25.5 26.5737 25.5 26.5698 25.5 26.5659C25.5 26.562 25.5 26.5581 25.5 26.5542C25.5 26.5503 25.5 26.5465 25.5 26.5426C25.5 26.5388 25.5 26.5349 25.5 26.5311C25.5 26.5273 25.5 26.5235 25.5 26.5197C25.5 26.5159 25.5 26.5121 25.5 26.5083C25.5 26.5046 25.5 26.5008 25.5 26.4971C25.5 26.4933 25.5 26.4896 25.5 26.4859C25.5 26.4822 25.5 26.4785 25.5 26.4748C25.5 26.4711 25.5 26.4674 25.5 26.4637C25.5 26.4601 25.5 26.4564 25.5 26.4528C25.5 26.4491 25.5 26.4455 25.5 26.4419C25.5 26.4383 25.5 26.4347 25.5 26.4311C25.5 26.4275 25.5 26.424 25.5 26.4204C25.5 26.4168 25.5 26.4133 25.5 26.4098C25.5 26.4062 25.5 26.4027 25.5 26.3992C25.5 26.3957 25.5 26.3922 25.5 26.3888C25.5 26.3853 25.5 26.3818 25.5 26.3784C25.5 26.3749 25.5 26.3715 25.5 26.3681C25.5 26.3647 25.5 26.3612 25.5 26.3579C25.5 26.3545 25.5 26.3511 25.5 26.3477C25.5 26.3444 25.5 26.341 25.5 26.3377C25.5 26.3343 25.5 26.331 25.5 26.3277C25.5 26.3244 25.5 26.3211 25.5 26.3178C25.5 26.3145 25.5 26.3113 25.5 26.308C25.5 26.3048 25.5 26.3015 25.5 26.2983C25.5 26.2951 25.5 26.2919 25.5 26.2887C25.5 26.2855 25.5 26.2823 25.5 26.2791C25.5 26.2759 25.5 26.2728 25.5 26.2696C25.5 26.2665 25.5 26.2634 25.5 26.2603C25.5 26.2571 25.5 26.254 25.5 26.251C25.5 26.2479 25.5 26.2448 25.5 26.2418C25.5 26.2387 25.5 26.2357 25.5 26.2326C25.5 26.2296 25.5 26.2266 25.5 26.2236C25.5 26.2206 25.5 26.2176 25.5 26.2146C25.5 26.2117 25.5 26.2087 25.5 26.2058C25.5 26.2028 25.5 26.1999 25.5 26.197C25.5 26.1941 25.5 26.1912 25.5 26.1883C25.5 26.1854 25.5 26.1826 25.5 26.1797C25.5 26.1768 25.5 26.174 25.5 26.1712C25.5 26.1684 25.5 26.1656 25.5 26.1628C25.5 26.16 25.5 26.1572 25.5 26.1544C25.5 26.1516 25.5 26.1489 25.5 26.1462C25.5 26.1434 25.5 26.1407 25.5 26.138C25.5 26.1353 25.5 26.1326 25.5 26.1299C25.5 26.1272 25.5 26.1246 25.5 26.1219C25.5 26.1193 25.5 26.1167 25.5 26.114C25.5 26.1114 25.5 26.1088 25.5 26.1062C25.5 26.1036 25.5 26.1011 25.5 26.0985C25.5 26.096 25.5 26.0934 25.5 26.0909C25.5 26.0884 25.5 26.0858 25.5 26.0833C25.5 26.0808 25.5 26.0784 25.5 26.0759C25.5 26.0734 25.5 26.071 25.5 26.0685C25.5 26.0661 25.5 26.0637 25.5 26.0613C25.5 26.0589 25.5 26.0565 25.5 26.0541C25.5 26.0517 25.5 26.0494 25.5 26.047C25.5 26.0447 25.5 26.0423 25.5 26.04C25.5 26.0377 25.5 26.0354 25.5 26.0331C25.5 26.0308 25.5 26.0286 25.5 26.0263C25.5 26.0241 25.5 26.0218 25.5 26.0196C25.5 26.0174 25.5 26.0152 25.5 26.013C25.5 26.0108 25.5 26.0086 25.5 26.0064C25.5 26.0043 25.5 26.0021 25.5 26H24ZM16 36H17.5V33.875H16H14.5V36H16ZM20 40V38.5C18.6193 38.5 17.5 37.3807 17.5 36H16H14.5C14.5 39.0376 16.9624 41.5 20 41.5V40ZM24 36.0005H22.5C22.5 37.381 21.381 38.5 20 38.5V40V41.5C23.0373 41.5 25.5 39.0384 25.5 36.0005H24Z" fill="#7E796E"/>
<path fill-rule="evenodd" clip-rule="evenodd" d="M24 6C25.1045 6.00007 26 6.89547 26 8V9.125C29.506 9.56665 32.7882 11.1613 35.3135 13.6865C38.0776 16.4507 39.7261 20.1223 39.9687 24.001C40.0029 24.5519 39.5521 24.9999 39 25H9C8.44786 25 7.99704 24.552 8.03125 24.001C8.27386 20.1223 9.92238 16.4507 12.6865 13.6865C15.2118 11.1613 18.494 9.5666 22 9.125V8C22 6.89543 22.8954 6 24 6Z" fill="#E4DDCD"/>
<path d="M32.4982 30.9512C32.4982 32.0827 31.6027 33 30.4982 33C29.3936 33 28.4982 32.0827 28.4982 30.9512C28.4982 29.4197 30.4982 27 30.4982 27C30.4982 27 32.4982 29.4197 32.4982 30.9512Z" fill="#7E796E"/>
<path d="M37.4982 36.9512C37.4982 38.0827 36.6027 39 35.4982 39C34.3936 39 33.4982 38.0827 33.4982 36.9512C33.4982 35.4197 35.4982 33 35.4982 33C35.4982 33 37.4982 35.4197 37.4982 36.9512Z" fill="#7E796E"/>
</svg>
