<svg width="48" height="48" viewBox="0 0 48 48" fill="none" xmlns="http://www.w3.org/2000/svg">
<rect x="8" y="14" width="26" height="26" rx="1.08333" fill="#E4DDCD"/>
<line x1="32.5" y1="10" x2="9.5" y2="10" stroke="#7E796E" stroke-width="2" stroke-linecap="round"/>
<path d="M9 8V12" stroke="#7E796E" stroke-width="2" stroke-linecap="round"/>
<path d="M33.5 8V12" stroke="#7E796E" stroke-width="2" stroke-linecap="round"/>
<line x1="37.9922" y1="38" x2="37.9922" y2="16" stroke="#7E796E" stroke-width="2" stroke-linecap="round"/>
<path d="M39.9922 15L36 15" stroke="#7E796E" stroke-width="2" stroke-linecap="round"/>
<path d="M40 39L36.0078 39" stroke="#7E796E" stroke-width="2" stroke-linecap="round"/>
<path d="M29.6722 27.731C29.5522 27.731 29.4489 27.691 29.3622 27.611C29.2822 27.5243 29.2422 27.421 29.2422 27.301C29.2422 27.0077 29.3589 26.771 29.5922 26.591C30.2389 26.0777 30.6622 25.6977 30.8622 25.451C31.0622 25.1977 31.1622 24.9477 31.1622 24.701C31.1622 24.3543 30.9689 24.181 30.5822 24.181C30.3955 24.181 30.1322 24.2343 29.7922 24.341C29.6789 24.3743 29.5722 24.361 29.4722 24.301C29.3789 24.2343 29.3322 24.1443 29.3322 24.031C29.3322 23.8843 29.3722 23.751 29.4522 23.631C29.5389 23.511 29.6522 23.4377 29.7922 23.411C30.1589 23.331 30.4755 23.291 30.7422 23.291C31.2289 23.291 31.6022 23.4077 31.8622 23.641C32.1289 23.8677 32.2622 24.1843 32.2622 24.591C32.2622 24.931 32.1522 25.2577 31.9322 25.571C31.7122 25.8843 31.2855 26.311 30.6522 26.851L30.6422 26.861L30.6522 26.871H31.8622C31.9822 26.871 32.0822 26.9143 32.1622 27.001C32.2489 27.081 32.2922 27.181 32.2922 27.301C32.2922 27.421 32.2489 27.5243 32.1622 27.611C32.0822 27.691 31.9822 27.731 31.8622 27.731H29.6722Z" fill="#504323"/>
<path d="M21.9997 30.6496C21.8464 30.6496 21.713 30.5929 21.5997 30.4796C21.4864 30.3663 21.4297 30.2329 21.4297 30.0796V26.0196C21.4297 25.8663 21.4864 25.7329 21.5997 25.6196C21.713 25.5063 21.8464 25.4496 21.9997 25.4496H22.3697C22.5297 25.4496 22.663 25.5063 22.7697 25.6196C22.883 25.7263 22.9464 25.8596 22.9597 26.0196L22.9697 26.1096C22.9697 26.1163 22.973 26.1196 22.9797 26.1196C22.993 26.1196 22.9997 26.1163 22.9997 26.1096C23.393 25.6029 23.843 25.3496 24.3497 25.3496C24.6564 25.3496 24.8997 25.4063 25.0797 25.5196C25.2597 25.6263 25.4264 25.8196 25.5797 26.0996C25.5797 26.1129 25.5864 26.1196 25.5997 26.1196L25.6197 26.0996C26.0797 25.5996 26.5597 25.3496 27.0597 25.3496C27.6264 25.3496 28.0364 25.5029 28.2897 25.8096C28.543 26.1096 28.6697 26.6229 28.6697 27.3496V30.0796C28.6697 30.2329 28.613 30.3663 28.4997 30.4796C28.3864 30.5929 28.253 30.6496 28.0997 30.6496H27.6597C27.5064 30.6496 27.373 30.5929 27.2597 30.4796C27.1464 30.3663 27.0897 30.2329 27.0897 30.0796V27.4496C27.0897 27.0896 27.0497 26.8529 26.9697 26.7396C26.8897 26.6196 26.7397 26.5596 26.5197 26.5596C26.3664 26.5596 26.2164 26.6229 26.0697 26.7496C25.9297 26.8763 25.8597 26.9996 25.8597 27.1196V30.0796C25.8597 30.2329 25.803 30.3663 25.6897 30.4796C25.5764 30.5929 25.443 30.6496 25.2897 30.6496H24.8497C24.6964 30.6496 24.563 30.5929 24.4497 30.4796C24.3364 30.3663 24.2797 30.2329 24.2797 30.0796V27.4496C24.2797 27.0896 24.2397 26.8529 24.1597 26.7396C24.0864 26.6196 23.9397 26.5596 23.7197 26.5596C23.5664 26.5596 23.4164 26.6229 23.2697 26.7496C23.123 26.8763 23.0497 26.9996 23.0497 27.1196V30.0796C23.0497 30.2329 22.993 30.3663 22.8797 30.4796C22.7664 30.5929 22.633 30.6496 22.4797 30.6496H21.9997Z" fill="#504323"/>
<path d="M16.3825 24.7196C16.2292 24.7196 16.0958 24.6629 15.9825 24.5496C15.8692 24.4363 15.8125 24.3029 15.8125 24.1496V23.9196C15.8125 23.7663 15.8692 23.6329 15.9825 23.5196C16.0958 23.4063 16.2292 23.3496 16.3825 23.3496H20.1125C20.2658 23.3496 20.3992 23.4063 20.5125 23.5196C20.6258 23.6329 20.6825 23.7663 20.6825 23.9196V24.1496C20.6825 24.5296 20.5358 24.8396 20.2425 25.0796L18.7325 26.3296V26.3396C18.7325 26.3463 18.7358 26.3496 18.7425 26.3496H18.8625C19.4425 26.3496 19.9058 26.5296 20.2525 26.8896C20.6058 27.2496 20.7825 27.7363 20.7825 28.3496C20.7825 29.1229 20.5458 29.7163 20.0725 30.1296C19.5992 30.5429 18.9192 30.7496 18.0325 30.7496C17.4992 30.7496 16.9592 30.6863 16.4125 30.5596C16.2525 30.5196 16.1192 30.4329 16.0125 30.2996C15.9125 30.1596 15.8625 30.0029 15.8625 29.8296V29.4896C15.8625 29.3563 15.9158 29.2529 16.0225 29.1796C16.1358 29.0996 16.2592 29.0796 16.3925 29.1196C16.9658 29.3063 17.4658 29.3996 17.8925 29.3996C18.2792 29.3996 18.5792 29.3096 18.7925 29.1296C19.0058 28.9496 19.1125 28.6996 19.1125 28.3796C19.1125 28.0529 18.9892 27.8229 18.7425 27.6896C18.4958 27.5563 18.0358 27.4863 17.3625 27.4796C17.2092 27.4796 17.0758 27.4263 16.9625 27.3196C16.8492 27.2063 16.7925 27.0729 16.7925 26.9196V26.8996C16.7925 26.5263 16.9358 26.2163 17.2225 25.9696L18.6425 24.7396V24.7296C18.6425 24.7229 18.6392 24.7196 18.6325 24.7196H16.3825Z" fill="#504323"/>
<path d="M12.3609 27.46C11.9943 27.6133 11.7343 27.78 11.5809 27.96C11.4343 28.1333 11.3609 28.3367 11.3609 28.57C11.3609 28.8567 11.4776 29.0933 11.7109 29.28C11.9443 29.4667 12.2443 29.56 12.6109 29.56C12.9776 29.56 13.2743 29.4667 13.5009 29.28C13.7343 29.0933 13.8509 28.8567 13.8509 28.57C13.8509 28.3167 13.7609 28.11 13.5809 27.95C13.4076 27.7833 13.0543 27.6167 12.5209 27.45C12.4743 27.43 12.4209 27.4333 12.3609 27.46ZM12.6109 24.44C12.2843 24.44 12.0243 24.52 11.8309 24.68C11.6443 24.8333 11.5509 25.0333 11.5509 25.28C11.5509 25.4867 11.6276 25.6667 11.7809 25.82C11.9409 25.9733 12.2143 26.1133 12.6009 26.24C12.6543 26.26 12.7076 26.26 12.7609 26.24C13.3809 26 13.6909 25.68 13.6909 25.28C13.6909 25.0333 13.5943 24.8333 13.4009 24.68C13.2076 24.52 12.9443 24.44 12.6109 24.44ZM14.7409 30.18C14.2343 30.56 13.5243 30.75 12.6109 30.75C11.6976 30.75 10.9843 30.56 10.4709 30.18C9.96427 29.8 9.71094 29.29 9.71094 28.65C9.71094 27.9233 10.1709 27.3467 11.0909 26.92C11.0976 26.92 11.1009 26.9133 11.1009 26.9C11.1009 26.8933 11.0976 26.89 11.0909 26.89C10.3176 26.45 9.93094 25.86 9.93094 25.12C9.93094 24.5733 10.1676 24.1267 10.6409 23.78C11.1143 23.4267 11.7709 23.25 12.6109 23.25C13.4509 23.25 14.1076 23.4267 14.5809 23.78C15.0543 24.1267 15.2909 24.5733 15.2909 25.12C15.2909 25.7533 14.8809 26.28 14.0609 26.7C14.0543 26.7 14.0509 26.7033 14.0509 26.71C14.0509 26.7233 14.0543 26.73 14.0609 26.73C15.0276 27.13 15.5109 27.77 15.5109 28.65C15.5109 29.29 15.2543 29.8 14.7409 30.18Z" fill="#504323"/>
</svg>
