<svg width="48" height="48" viewBox="0 0 48 48" fill="none" xmlns="http://www.w3.org/2000/svg">
<rect x="8" y="14" width="26" height="26" rx="1.08333" fill="#E4DDCD"/>
<line x1="32.5" y1="10" x2="9.5" y2="10" stroke="#7E796E" stroke-width="2" stroke-linecap="round"/>
<path d="M9 8V12" stroke="#7E796E" stroke-width="2" stroke-linecap="round"/>
<path d="M33.5 8V12" stroke="#7E796E" stroke-width="2" stroke-linecap="round"/>
<line x1="37.9922" y1="38" x2="37.9922" y2="16" stroke="#7E796E" stroke-width="2" stroke-linecap="round"/>
<path d="M39.9922 15L36 15" stroke="#7E796E" stroke-width="2" stroke-linecap="round"/>
<path d="M40 39L36.0078 39" stroke="#7E796E" stroke-width="2" stroke-linecap="round"/>
<path d="M29.555 27.7115C29.435 27.7115 29.3317 27.6715 29.245 27.5915C29.165 27.5048 29.125 27.4015 29.125 27.2815C29.125 26.9882 29.2417 26.7515 29.475 26.5715C30.1217 26.0582 30.545 25.6782 30.745 25.4315C30.945 25.1782 31.045 24.9282 31.045 24.6815C31.045 24.3348 30.8517 24.1615 30.465 24.1615C30.2783 24.1615 30.015 24.2148 29.675 24.3215C29.5617 24.3548 29.455 24.3415 29.355 24.2815C29.2617 24.2148 29.215 24.1248 29.215 24.0115C29.215 23.8648 29.255 23.7315 29.335 23.6115C29.4217 23.4915 29.535 23.4182 29.675 23.3915C30.0417 23.3115 30.3583 23.2715 30.625 23.2715C31.1117 23.2715 31.485 23.3882 31.745 23.6215C32.0117 23.8482 32.145 24.1648 32.145 24.5715C32.145 24.9115 32.035 25.2382 31.815 25.5515C31.595 25.8648 31.1683 26.2915 30.535 26.8315L30.525 26.8415L30.535 26.8515H31.745C31.865 26.8515 31.965 26.8948 32.045 26.9815C32.1317 27.0615 32.175 27.1615 32.175 27.2815C32.175 27.4015 32.1317 27.5048 32.045 27.5915C31.965 27.6715 31.865 27.7115 31.745 27.7115H29.555Z" fill="#504323"/>
<path d="M21.8747 30.6301C21.7214 30.6301 21.588 30.5734 21.4747 30.4601C21.3614 30.3467 21.3047 30.2134 21.3047 30.0601V26.0001C21.3047 25.8467 21.3614 25.7134 21.4747 25.6001C21.588 25.4867 21.7214 25.4301 21.8747 25.4301H22.2447C22.4047 25.4301 22.538 25.4867 22.6447 25.6001C22.758 25.7067 22.8214 25.8401 22.8347 26.0001L22.8447 26.0901C22.8447 26.0967 22.848 26.1001 22.8547 26.1001C22.868 26.1001 22.8747 26.0967 22.8747 26.0901C23.268 25.5834 23.718 25.3301 24.2247 25.3301C24.5314 25.3301 24.7747 25.3867 24.9547 25.5001C25.1347 25.6067 25.3014 25.8001 25.4547 26.0801C25.4547 26.0934 25.4614 26.1001 25.4747 26.1001L25.4947 26.0801C25.9547 25.5801 26.4347 25.3301 26.9347 25.3301C27.5014 25.3301 27.9114 25.4834 28.1647 25.7901C28.418 26.0901 28.5447 26.6034 28.5447 27.3301V30.0601C28.5447 30.2134 28.488 30.3467 28.3747 30.4601C28.2614 30.5734 28.128 30.6301 27.9747 30.6301H27.5347C27.3814 30.6301 27.248 30.5734 27.1347 30.4601C27.0214 30.3467 26.9647 30.2134 26.9647 30.0601V27.4301C26.9647 27.0701 26.9247 26.8334 26.8447 26.7201C26.7647 26.6001 26.6147 26.5401 26.3947 26.5401C26.2414 26.5401 26.0914 26.6034 25.9447 26.7301C25.8047 26.8567 25.7347 26.9801 25.7347 27.1001V30.0601C25.7347 30.2134 25.678 30.3467 25.5647 30.4601C25.4514 30.5734 25.318 30.6301 25.1647 30.6301H24.7247C24.5714 30.6301 24.438 30.5734 24.3247 30.4601C24.2114 30.3467 24.1547 30.2134 24.1547 30.0601V27.4301C24.1547 27.0701 24.1147 26.8334 24.0347 26.7201C23.9614 26.6001 23.8147 26.5401 23.5947 26.5401C23.4414 26.5401 23.2914 26.6034 23.1447 26.7301C22.998 26.8567 22.9247 26.9801 22.9247 27.1001V30.0601C22.9247 30.2134 22.868 30.3467 22.7547 30.4601C22.6414 30.5734 22.508 30.6301 22.3547 30.6301H21.8747Z" fill="#504323"/>
<path d="M16.5625 27.8801V27.8901C16.5625 27.8967 16.5658 27.9001 16.5725 27.9001H18.2225C18.2825 27.9001 18.3125 27.8734 18.3125 27.8201V25.4001C18.3125 25.3934 18.3092 25.3901 18.3025 25.3901C18.2892 25.3901 18.2825 25.3934 18.2825 25.4001L16.5625 27.8801ZM15.6225 29.2301C15.4692 29.2301 15.3358 29.1734 15.2225 29.0601C15.1158 28.9467 15.0625 28.8134 15.0625 28.6601V28.4701C15.0625 28.0967 15.1725 27.7534 15.3925 27.4401L17.9825 23.7901C18.2025 23.4834 18.4992 23.3301 18.8725 23.3301H19.3725C19.5258 23.3301 19.6558 23.3867 19.7625 23.5001C19.8758 23.6134 19.9325 23.7467 19.9325 23.9001V27.8201C19.9325 27.8734 19.9625 27.9001 20.0225 27.9001H20.4225C20.5758 27.9001 20.7092 27.9567 20.8225 28.0701C20.9358 28.1834 20.9925 28.3167 20.9925 28.4701V28.6601C20.9925 28.8134 20.9358 28.9467 20.8225 29.0601C20.7092 29.1734 20.5758 29.2301 20.4225 29.2301H20.0225C19.9625 29.2301 19.9325 29.2601 19.9325 29.3201V30.0601C19.9325 30.2134 19.8758 30.3467 19.7625 30.4601C19.6558 30.5734 19.5258 30.6301 19.3725 30.6301H18.8725C18.7192 30.6301 18.5858 30.5734 18.4725 30.4601C18.3658 30.3467 18.3125 30.2134 18.3125 30.0601V29.3201C18.3125 29.2601 18.2825 29.2301 18.2225 29.2301H15.6225Z" fill="#504323"/>
<path d="M10.3703 30.5901C10.2103 30.5567 10.077 30.4734 9.97031 30.3401C9.87031 30.2067 9.82031 30.0534 9.82031 29.8801V29.5701C9.82031 29.4301 9.87698 29.3201 9.99031 29.2401C10.1036 29.1601 10.227 29.1367 10.3603 29.1701C10.9003 29.3101 11.3303 29.3801 11.6503 29.3801C12.6303 29.3801 13.1203 28.9701 13.1203 28.1501C13.1203 27.4834 12.787 27.1501 12.1203 27.1501C11.967 27.1501 11.8336 27.1734 11.7203 27.2201C11.6803 27.2334 11.597 27.2667 11.4703 27.3201C11.3503 27.3667 11.257 27.4034 11.1903 27.4301C11.1303 27.4501 11.0503 27.4734 10.9503 27.5001C10.857 27.5201 10.767 27.5301 10.6803 27.5301H10.3703C10.217 27.5301 10.087 27.4734 9.98031 27.3601C9.87365 27.2467 9.82365 27.1134 9.83031 26.9601L9.97031 23.9001C9.98365 23.7401 10.047 23.6067 10.1603 23.5001C10.2736 23.3867 10.4103 23.3301 10.5703 23.3301H13.8803C14.0336 23.3301 14.167 23.3867 14.2803 23.5001C14.3936 23.6134 14.4503 23.7467 14.4503 23.9001V24.1301C14.4503 24.2834 14.3936 24.4167 14.2803 24.5301C14.167 24.6434 14.0336 24.7001 13.8803 24.7001H11.6203C11.5603 24.7001 11.5303 24.7267 11.5303 24.7801L11.4703 26.0501C11.4703 26.0567 11.4736 26.0601 11.4803 26.0601H11.5003C11.8203 25.9267 12.137 25.8601 12.4503 25.8601C13.197 25.8601 13.7703 26.0601 14.1703 26.4601C14.577 26.8534 14.7803 27.4167 14.7803 28.1501C14.7803 29.8701 13.7603 30.7301 11.7203 30.7301C11.2736 30.7301 10.8236 30.6834 10.3703 30.5901Z" fill="#504323"/>
</svg>
