<svg width="48" height="48" viewBox="0 0 48 48" fill="none" xmlns="http://www.w3.org/2000/svg">
<rect x="8" y="14" width="26" height="26" rx="1.08333" fill="#E4DDCD"/>
<line x1="32.5" y1="10" x2="9.5" y2="10" stroke="#7E796E" stroke-width="2" stroke-linecap="round"/>
<path d="M9 8V12" stroke="#7E796E" stroke-width="2" stroke-linecap="round"/>
<path d="M33.5 8V12" stroke="#7E796E" stroke-width="2" stroke-linecap="round"/>
<line x1="37.9922" y1="38" x2="37.9922" y2="16" stroke="#7E796E" stroke-width="2" stroke-linecap="round"/>
<path d="M39.9922 15L36 15" stroke="#7E796E" stroke-width="2" stroke-linecap="round"/>
<path d="M40 39L36.0078 39" stroke="#7E796E" stroke-width="2" stroke-linecap="round"/>
<path d="M29.6175 27.731C29.4975 27.731 29.3942 27.691 29.3075 27.611C29.2275 27.5243 29.1875 27.421 29.1875 27.301C29.1875 27.0077 29.3042 26.771 29.5375 26.591C30.1842 26.0777 30.6075 25.6977 30.8075 25.451C31.0075 25.1977 31.1075 24.9477 31.1075 24.701C31.1075 24.3543 30.9142 24.181 30.5275 24.181C30.3408 24.181 30.0775 24.2343 29.7375 24.341C29.6242 24.3743 29.5175 24.361 29.4175 24.301C29.3242 24.2343 29.2775 24.1443 29.2775 24.031C29.2775 23.8843 29.3175 23.751 29.3975 23.631C29.4842 23.511 29.5975 23.4377 29.7375 23.411C30.1042 23.331 30.4208 23.291 30.6875 23.291C31.1742 23.291 31.5475 23.4077 31.8075 23.641C32.0742 23.8677 32.2075 24.1843 32.2075 24.591C32.2075 24.931 32.0975 25.2577 31.8775 25.571C31.6575 25.8843 31.2308 26.311 30.5975 26.851L30.5875 26.861L30.5975 26.871H31.8075C31.9275 26.871 32.0275 26.9143 32.1075 27.001C32.1942 27.081 32.2375 27.181 32.2375 27.301C32.2375 27.421 32.1942 27.5243 32.1075 27.611C32.0275 27.691 31.9275 27.731 31.8075 27.731H29.6175Z" fill="#504323"/>
<path d="M21.945 30.6496C21.7917 30.6496 21.6583 30.5929 21.545 30.4796C21.4317 30.3663 21.375 30.2329 21.375 30.0796V26.0196C21.375 25.8663 21.4317 25.7329 21.545 25.6196C21.6583 25.5063 21.7917 25.4496 21.945 25.4496H22.315C22.475 25.4496 22.6083 25.5063 22.715 25.6196C22.8283 25.7263 22.8917 25.8596 22.905 26.0196L22.915 26.1096C22.915 26.1163 22.9183 26.1196 22.925 26.1196C22.9383 26.1196 22.945 26.1163 22.945 26.1096C23.3383 25.6029 23.7883 25.3496 24.295 25.3496C24.6017 25.3496 24.845 25.4063 25.025 25.5196C25.205 25.6263 25.3717 25.8196 25.525 26.0996C25.525 26.1129 25.5317 26.1196 25.545 26.1196L25.565 26.0996C26.025 25.5996 26.505 25.3496 27.005 25.3496C27.5717 25.3496 27.9817 25.5029 28.235 25.8096C28.4883 26.1096 28.615 26.6229 28.615 27.3496V30.0796C28.615 30.2329 28.5583 30.3663 28.445 30.4796C28.3317 30.5929 28.1983 30.6496 28.045 30.6496H27.605C27.4517 30.6496 27.3183 30.5929 27.205 30.4796C27.0917 30.3663 27.035 30.2329 27.035 30.0796V27.4496C27.035 27.0896 26.995 26.8529 26.915 26.7396C26.835 26.6196 26.685 26.5596 26.465 26.5596C26.3117 26.5596 26.1617 26.6229 26.015 26.7496C25.875 26.8763 25.805 26.9996 25.805 27.1196V30.0796C25.805 30.2329 25.7483 30.3663 25.635 30.4796C25.5217 30.5929 25.3883 30.6496 25.235 30.6496H24.795C24.6417 30.6496 24.5083 30.5929 24.395 30.4796C24.2817 30.3663 24.225 30.2329 24.225 30.0796V27.4496C24.225 27.0896 24.185 26.8529 24.105 26.7396C24.0317 26.6196 23.885 26.5596 23.665 26.5596C23.5117 26.5596 23.3617 26.6229 23.215 26.7496C23.0683 26.8763 22.995 26.9996 22.995 27.1196V30.0796C22.995 30.2329 22.9383 30.3663 22.825 30.4796C22.7117 30.5929 22.5783 30.6496 22.425 30.6496H21.945Z" fill="#504323"/>
<path d="M16.3591 30.65C16.2057 30.65 16.0724 30.5933 15.9591 30.48C15.8457 30.3667 15.7891 30.2333 15.7891 30.08V29.85C15.7891 29.4767 15.9391 29.1733 16.2391 28.94C17.3591 28.06 18.0991 27.39 18.4591 26.93C18.8257 26.47 19.0091 26.02 19.0091 25.58C19.0091 24.9667 18.6691 24.66 17.9891 24.66C17.5757 24.66 17.0691 24.7733 16.4691 25C16.3424 25.0467 16.2224 25.0333 16.1091 24.96C15.9957 24.8867 15.9391 24.7833 15.9391 24.65V24.23C15.9391 24.0567 15.9891 23.9033 16.0891 23.77C16.1891 23.63 16.3224 23.5367 16.4891 23.49C17.0957 23.33 17.6791 23.25 18.2391 23.25C19.0457 23.25 19.6657 23.4433 20.0991 23.83C20.5391 24.21 20.7591 24.74 20.7591 25.42C20.7591 26.0067 20.5724 26.5667 20.1991 27.1C19.8324 27.6267 19.1124 28.3433 18.0391 29.25C18.0324 29.2567 18.0291 29.2633 18.0291 29.27C18.0291 29.2767 18.0324 29.28 18.0391 29.28H20.2291C20.3824 29.28 20.5124 29.3367 20.6191 29.45C20.7324 29.5633 20.7891 29.6967 20.7891 29.85V30.08C20.7891 30.2333 20.7324 30.3667 20.6191 30.48C20.5124 30.5933 20.3824 30.65 20.2291 30.65H16.3591Z" fill="#504323"/>
<path d="M12.5778 26.89C12.2178 26.89 11.9311 27.0067 11.7178 27.24C11.5045 27.4667 11.3978 27.78 11.3978 28.18C11.3978 28.6 11.5045 28.93 11.7178 29.17C11.9378 29.4033 12.2245 29.52 12.5778 29.52C12.9511 29.52 13.2411 29.4067 13.4478 29.18C13.6545 28.9467 13.7578 28.6133 13.7578 28.18C13.7578 27.7667 13.6511 27.45 13.4378 27.23C13.2311 27.0033 12.9445 26.89 12.5778 26.89ZM12.5778 30.75C11.6778 30.75 10.9811 30.4767 10.4878 29.93C10.0011 29.3767 9.75781 28.55 9.75781 27.45C9.75781 26.05 10.0411 25 10.6078 24.3C11.1745 23.6 11.9811 23.25 13.0278 23.25C13.3945 23.25 13.7345 23.2767 14.0478 23.33C14.2078 23.3567 14.3378 23.4367 14.4378 23.57C14.5445 23.7033 14.5978 23.8533 14.5978 24.02V24.2C14.5978 24.34 14.5411 24.45 14.4278 24.53C14.3211 24.61 14.1978 24.6333 14.0578 24.6C13.7045 24.52 13.3811 24.48 13.0878 24.48C12.6211 24.48 12.2411 24.6267 11.9478 24.92C11.6611 25.2067 11.4845 25.6233 11.4178 26.17C11.4178 26.1767 11.4211 26.18 11.4278 26.18H11.4378C11.8111 25.8933 12.3078 25.75 12.9278 25.75C13.7145 25.75 14.3211 25.9567 14.7478 26.37C15.1745 26.7833 15.3878 27.3767 15.3878 28.15C15.3878 28.9633 15.1378 29.6 14.6378 30.06C14.1378 30.52 13.4511 30.75 12.5778 30.75Z" fill="#504323"/>
</svg>
