<svg width="48" height="48" viewBox="0 0 48 48" fill="none" xmlns="http://www.w3.org/2000/svg">
<path fill-rule="evenodd" clip-rule="evenodd" d="M30.9971 39.3807C30.9971 40.1241 30.2149 40.6076 29.55 40.2752L18.9977 35.0008C18.9973 35.0006 18.9971 35.0002 18.9971 34.9997C18.9971 34.9991 18.9965 34.9985 18.9959 34.9985H11C10.4477 34.9985 10 34.5508 10 33.9985V14.9985C10 14.4463 10.4477 13.9985 11 13.9985H18.7296C18.9067 13.9985 19.0806 13.9515 19.2336 13.8623L29.4931 7.87606C30.1598 7.48708 30.9971 7.96795 30.9971 8.73979V39.3807Z" fill="#E4DDCD"/>
<path d="M35 29C35.6341 28.3434 36.1371 27.5639 36.4802 26.706C36.8234 25.8481 37 24.9286 37 24C37 23.0714 36.8234 22.1519 36.4802 21.294C36.1371 20.4361 35.6341 19.6566 35 19" stroke="#7E796E" stroke-width="2" stroke-linecap="round"/>
</svg>
