<svg width="48" height="48" viewBox="0 0 48 48" fill="none" xmlns="http://www.w3.org/2000/svg">
<path d="M7 11L9.90116 37.1104C9.95743 37.6169 10.3855 38 10.895 38H37.105C37.6145 38 38.0426 37.6169 38.0988 37.1104L41 11" stroke="#7E796E" stroke-width="2" stroke-linecap="round"/>
<path d="M35.7615 34.1055L37.8828 14.1055C37.9454 13.5148 37.4823 13 36.8883 13L11.1117 13C10.5177 13 10.0546 13.5148 10.1172 14.1055L12.2385 34.1055C12.2924 34.6141 12.7214 35 13.2329 35H34.7671C35.2786 35 35.7076 34.6141 35.7615 34.1055Z" fill="#E4DDCD"/>
<path d="M25.7676 28.03C25.599 28.03 25.4523 27.9677 25.3276 27.843C25.203 27.7183 25.1406 27.5717 25.1406 27.403V20.627C25.1406 20.4583 25.203 20.3117 25.3276 20.187C25.4523 20.0623 25.599 20 25.7676 20H26.4496C26.6183 20 26.7613 20.0623 26.8786 20.187C27.0033 20.3117 27.0656 20.4583 27.0656 20.627V26.391C27.0656 26.4497 27.0986 26.479 27.1646 26.479H29.8376C30.0063 26.479 30.153 26.5413 30.2776 26.666C30.4023 26.7907 30.4646 26.9373 30.4646 27.106V27.403C30.4646 27.5717 30.4023 27.7183 30.2776 27.843C30.153 27.9677 30.0063 28.03 29.8376 28.03H25.7676Z" fill="#504323"/>
<path d="M19.605 27.986C19.429 27.9493 19.2823 27.8577 19.165 27.711C19.055 27.5643 19 27.3957 19 27.205V26.864C19 26.71 19.0623 26.589 19.187 26.501C19.3117 26.413 19.4473 26.3873 19.594 26.424C20.188 26.578 20.661 26.655 21.013 26.655C22.091 26.655 22.63 26.204 22.63 25.302C22.63 24.5687 22.2633 24.202 21.53 24.202C21.3613 24.202 21.2147 24.2277 21.09 24.279C21.046 24.2937 20.9543 24.3303 20.815 24.389C20.683 24.4403 20.5803 24.4807 20.507 24.51C20.441 24.532 20.353 24.5577 20.243 24.587C20.1403 24.609 20.0413 24.62 19.946 24.62H19.605C19.4363 24.62 19.2933 24.5577 19.176 24.433C19.0587 24.3083 19.0037 24.1617 19.011 23.993L19.165 20.627C19.1797 20.451 19.2493 20.3043 19.374 20.187C19.4987 20.0623 19.649 20 19.825 20H23.466C23.6347 20 23.7813 20.0623 23.906 20.187C24.0307 20.3117 24.093 20.4583 24.093 20.627V20.88C24.093 21.0487 24.0307 21.1953 23.906 21.32C23.7813 21.4447 23.6347 21.507 23.466 21.507H20.98C20.914 21.507 20.881 21.5363 20.881 21.595L20.815 22.992C20.815 22.9993 20.8187 23.003 20.826 23.003H20.848C21.2 22.8563 21.5483 22.783 21.893 22.783C22.7143 22.783 23.345 23.003 23.785 23.443C24.2323 23.8757 24.456 24.4953 24.456 25.302C24.456 27.194 23.334 28.14 21.09 28.14C20.5987 28.14 20.1037 28.0887 19.605 27.986Z" fill="#504323"/>
</svg>
