<svg width="48" height="48" viewBox="0 0 48 48" fill="none" xmlns="http://www.w3.org/2000/svg">
<path d="M21 5C21 5 33.9255 19.1419 34.9346 28.2988C34.488 28.1782 34.0074 28.1211 33.5029 28.1211C32.1555 28.1211 30.9791 28.5237 30.1621 29.4727C30.0442 29.327 29.9122 29.1888 29.7637 29.0605H29.7627C29.0003 28.3871 27.9899 28.1211 26.8779 28.1211C26.1102 28.1211 25.3238 28.231 24.5225 28.4424L24.5088 28.4463C24.0982 28.5613 23.7504 28.8001 23.498 29.1445L23.4082 29.2754C23.2134 29.5849 23.1182 29.9338 23.1182 30.2969V30.8008C23.1182 31.305 23.3619 31.7432 23.7783 32.0127C24.1786 32.2717 24.6523 32.324 25.0996 32.1592L25.1074 32.1562C25.7698 31.906 26.2506 31.8125 26.5781 31.8125C26.6824 31.8125 26.7523 31.8244 26.7959 31.834C26.7983 31.8547 26.8018 31.882 26.8018 31.917C26.8018 32.1525 26.7067 32.4795 26.3604 32.9141L26.3545 32.9209C26.0054 33.3669 25.2069 34.104 23.8643 35.1592L23.6523 35.3428C23.1887 35.79 22.9375 36.3734 22.9375 37.041V37.3174C22.9376 37.7794 23.1207 38.19 23.4346 38.5039C23.7486 38.818 24.1598 39.001 24.6221 39.001H29.2656C29.7199 39.001 30.1291 38.8227 30.4404 38.5029L30.4414 38.5039C30.446 38.4993 30.4496 38.4939 30.4541 38.4893C30.4565 38.4868 30.4596 38.4849 30.4619 38.4824L30.4609 38.4814C30.533 38.407 30.5964 38.3264 30.6533 38.2422C30.8457 38.3952 31.0517 38.5257 31.2695 38.6367C31.1485 38.7638 31.0258 38.8898 30.8994 39.0127C28.2739 41.5654 24.713 43 21 43C17.287 43 13.7261 41.5654 11.1006 39.0127C8.4752 36.46 7 32.9977 7 29.3877C7.00037 20.3138 20.9975 5.0027 21 5ZM27.2305 29.1318C28.0285 29.1826 28.6554 29.4114 29.1104 29.8174L29.2959 29.9961C29.4077 30.1173 29.5021 30.2502 29.583 30.3926C29.5825 30.3938 29.5826 30.3953 29.582 30.3965C29.792 30.7678 29.8984 31.2102 29.8984 31.7246C29.8984 32.4286 29.6736 33.1012 29.2256 33.7412C29.1683 33.8235 29.1029 33.909 29.0312 33.999C29.0313 34.001 29.0312 34.0029 29.0312 34.0049C28.552 34.6055 27.7544 35.378 26.6377 36.3213L26.626 36.3447C26.626 36.3486 26.6271 36.3515 26.6289 36.3535L26.6377 36.3574H29.2656L29.3955 36.3691L29.3965 36.3701C29.5233 36.3958 29.6349 36.459 29.7305 36.5605C29.8665 36.6965 29.9336 36.857 29.9336 37.041V37.3174C29.9336 37.3636 29.9285 37.408 29.9199 37.4512C29.9208 37.4525 29.9219 37.4537 29.9229 37.4551C29.8968 37.582 29.8349 37.6962 29.7344 37.7969C29.6064 37.9329 29.4496 38.001 29.2656 38.001H24.6221L24.4883 37.9883C24.3593 37.9628 24.2436 37.8988 24.1416 37.7969C24.0397 37.6949 23.9766 37.5792 23.9512 37.4502L23.9375 37.3174V37.041C23.9375 36.6489 24.0758 36.321 24.3516 36.0576L24.4775 35.9492C25.6537 35.0251 26.4813 34.294 26.959 33.7559L27.1416 33.5371C27.5267 33.054 27.7439 32.58 27.792 32.1152L27.8018 31.917C27.8018 31.2271 27.4435 30.8606 26.7266 30.8174L26.5781 30.8125C26.0821 30.8125 25.4739 30.9487 24.7539 31.2207C24.602 31.2767 24.4582 31.2608 24.3223 31.1729C24.1863 31.0849 24.1182 30.9608 24.1182 30.8008V30.2969C24.1182 30.089 24.1779 29.9051 24.2979 29.7451C24.3879 29.6191 24.5007 29.5249 24.6357 29.4619L24.7783 29.4092C25.5062 29.2172 26.206 29.1211 26.8779 29.1211L27.2305 29.1318ZM33.7197 29.125C34.2003 29.1436 34.6268 29.225 34.999 29.3691C34.999 29.3753 35 29.3815 35 29.3877C35 30.2387 34.9165 31.0816 34.7568 31.9062C34.7043 31.6748 34.6393 31.4822 34.5586 31.3291C34.3626 30.9441 34.0687 30.7278 33.6768 30.6797L33.5029 30.6689C33.0229 30.6689 32.6666 30.8891 32.4346 31.3291C32.2106 31.7691 32.0986 32.5332 32.0986 33.6211L32.1035 34.0137C32.128 34.8949 32.2386 35.5281 32.4346 35.9131C32.569 36.168 32.7461 36.3469 32.9639 36.4541C32.6607 36.9394 32.3256 37.407 31.96 37.8545C31.5545 37.6908 31.2141 37.4515 30.9375 37.1367V37.1318C30.9181 37.1097 30.8977 37.0883 30.8789 37.0654C30.5954 36.714 30.3822 36.2515 30.2402 35.6787C30.1411 35.2791 30.0742 34.8265 30.0439 34.3193C30.0452 34.3175 30.0475 34.3163 30.0488 34.3145C30.0358 34.0935 30.0264 33.8625 30.0264 33.6211C30.0264 32.2104 30.2493 31.148 30.6953 30.4346C30.6949 30.4335 30.6937 30.4327 30.6934 30.4316C30.7502 30.341 30.811 30.2561 30.875 30.1768C31.451 29.4729 32.3271 29.1211 33.5029 29.1211L33.7197 29.125ZM33.873 33.0078C33.8788 33.0093 33.8838 33.0117 33.8838 33.0117L33.8867 33.0127C33.8867 33.0127 33.8924 33.0168 33.9033 33.0293C33.9122 33.0395 33.924 33.0579 33.9404 33.0859C33.9232 33.1541 33.9062 33.3086 33.9062 33.6211C33.9062 34.1352 33.8764 34.5278 33.835 34.8203C33.7216 35.0734 33.6007 35.3232 33.4717 35.5693C33.4469 35.5676 33.4303 35.5669 33.4209 35.5645C33.4091 35.5613 33.4035 35.5589 33.4014 35.5576C33.3991 35.5562 33.3917 35.5505 33.3789 35.5361C33.366 35.5216 33.346 35.4954 33.3223 35.4512C33.2162 35.2351 33.6132 34.7123 33.6133 33.6494C33.6133 32.9693 33.7172 32.9382 33.7266 33.0068C33.7414 33.0041 33.7628 33 33.793 33C33.8362 33 33.8614 33.0047 33.873 33.0078ZM33.6748 33.0293C33.7316 32.8855 33.7838 33.1153 33.6133 33.1191C33.6365 33.0764 33.6562 33.0504 33.6689 33.0361C33.6711 33.0337 33.6729 33.0312 33.6748 33.0293ZM33.6748 33.0293C33.7002 32.965 33.7223 32.9752 33.7266 33.0068C33.7202 33.008 33.7148 33.0078 33.7109 33.0088C33.6989 33.0119 33.6935 33.0143 33.6914 33.0156C33.6895 33.0168 33.6838 33.0201 33.6748 33.0293Z" fill="#E4DDCD"/>
<path d="M37.809 38.0002C37.625 38.0002 37.465 37.9322 37.329 37.7962C37.193 37.6602 37.125 37.5002 37.125 37.3162V29.9242C37.125 29.7402 37.193 29.5802 37.329 29.4442C37.465 29.3082 37.625 29.2402 37.809 29.2402H38.553C38.737 29.2402 38.893 29.3082 39.021 29.4442C39.157 29.5802 39.225 29.7402 39.225 29.9242V36.2122C39.225 36.2762 39.261 36.3082 39.333 36.3082H42.249C42.433 36.3082 42.593 36.3762 42.729 36.5122C42.865 36.6482 42.933 36.8082 42.933 36.9922V37.3162C42.933 37.5002 42.865 37.6602 42.729 37.7962C42.593 37.9322 42.433 38.0002 42.249 38.0002H37.809Z" fill="#504323"/>
<path d="M34.5594 31.3271C34.3354 30.8871 33.9834 30.6671 33.5034 30.6671C33.0234 30.6671 32.6674 30.8871 32.4354 31.3271C32.2114 31.7671 32.0994 32.5311 32.0994 33.6191C32.0994 34.7071 32.2114 35.4711 32.4354 35.9111C32.6674 36.3511 33.0234 36.5711 33.5034 36.5711C33.9834 36.5711 34.3354 36.3511 34.5594 35.9111C34.7914 35.4711 34.9074 34.7071 34.9074 33.6191C34.9074 32.5311 34.7914 31.7671 34.5594 31.3271ZM36.1194 37.0631C35.5514 37.7671 34.6794 38.1191 33.5034 38.1191C32.3274 38.1191 31.4514 37.7671 30.8754 37.0631C30.3074 36.3591 30.0234 35.2111 30.0234 33.6191C30.0234 32.0271 30.3074 30.8791 30.8754 30.1751C31.4514 29.4711 32.3274 29.1191 33.5034 29.1191C34.6794 29.1191 35.5514 29.4711 36.1194 30.1751C36.6954 30.8791 36.9834 32.0271 36.9834 33.6191C36.9834 35.2111 36.6954 36.3591 36.1194 37.0631Z" fill="#504323"/>
<path d="M24.6215 37.9991C24.4375 37.9991 24.2775 37.9311 24.1415 37.7951C24.0055 37.6591 23.9375 37.4991 23.9375 37.3151V37.0391C23.9375 36.5911 24.1175 36.2271 24.4775 35.9471C25.8215 34.8911 26.7095 34.0871 27.1415 33.5351C27.5815 32.9831 27.8015 32.4431 27.8015 31.9151C27.8015 31.1791 27.3935 30.8111 26.5775 30.8111C26.0815 30.8111 25.4735 30.9471 24.7535 31.2191C24.6015 31.2751 24.4575 31.2591 24.3215 31.1711C24.1855 31.0831 24.1175 30.9591 24.1175 30.7991V30.2951C24.1175 30.0871 24.1775 29.9031 24.2975 29.7431C24.4175 29.5751 24.5775 29.4631 24.7775 29.4071C25.5055 29.2151 26.2055 29.1191 26.8775 29.1191C27.8455 29.1191 28.5895 29.3511 29.1095 29.8151C29.6375 30.2711 29.9015 30.9071 29.9015 31.7231C29.9015 32.4271 29.6775 33.0991 29.2295 33.7391C28.7895 34.3711 27.9255 35.2311 26.6375 36.3191C26.6295 36.3271 26.6255 36.3351 26.6255 36.3431C26.6255 36.3511 26.6295 36.3551 26.6375 36.3551H29.2655C29.4495 36.3551 29.6055 36.4231 29.7335 36.5591C29.8695 36.6951 29.9375 36.8551 29.9375 37.0391V37.3151C29.9375 37.4991 29.8695 37.6591 29.7335 37.7951C29.6055 37.9311 29.4495 37.9991 29.2655 37.9991H24.6215Z" fill="#504323"/>
</svg>
