<svg width="48" height="48" viewBox="0 0 48 48" fill="none" xmlns="http://www.w3.org/2000/svg">
<rect x="8" y="14" width="26" height="26" rx="1.08333" fill="#E4DDCD"/>
<line x1="32.5" y1="10" x2="9.5" y2="10" stroke="#7E796E" stroke-width="2" stroke-linecap="round"/>
<path d="M9 8V12" stroke="#7E796E" stroke-width="2" stroke-linecap="round"/>
<path d="M33.5 8V12" stroke="#7E796E" stroke-width="2" stroke-linecap="round"/>
<line x1="37.9922" y1="38" x2="37.9922" y2="16" stroke="#7E796E" stroke-width="2" stroke-linecap="round"/>
<path d="M39.9922 15L36 15" stroke="#7E796E" stroke-width="2" stroke-linecap="round"/>
<path d="M40 39L36.0078 39" stroke="#7E796E" stroke-width="2" stroke-linecap="round"/>
<path d="M29.7894 27.731C29.6694 27.731 29.566 27.691 29.4794 27.611C29.3994 27.5243 29.3594 27.421 29.3594 27.301C29.3594 27.0077 29.476 26.771 29.7094 26.591C30.356 26.0777 30.7794 25.6977 30.9794 25.451C31.1794 25.1977 31.2794 24.9477 31.2794 24.701C31.2794 24.3543 31.086 24.181 30.6994 24.181C30.5127 24.181 30.2494 24.2343 29.9094 24.341C29.796 24.3743 29.6894 24.361 29.5894 24.301C29.496 24.2343 29.4494 24.1443 29.4494 24.031C29.4494 23.8843 29.4894 23.751 29.5694 23.631C29.656 23.511 29.7694 23.4377 29.9094 23.411C30.276 23.331 30.5927 23.291 30.8594 23.291C31.346 23.291 31.7194 23.4077 31.9794 23.641C32.246 23.8677 32.3794 24.1843 32.3794 24.591C32.3794 24.931 32.2694 25.2577 32.0494 25.571C31.8294 25.8843 31.4027 26.311 30.7694 26.851L30.7594 26.861L30.7694 26.871H31.9794C32.0994 26.871 32.1994 26.9143 32.2794 27.001C32.366 27.081 32.4094 27.181 32.4094 27.301C32.4094 27.421 32.366 27.5243 32.2794 27.611C32.1994 27.691 32.0994 27.731 31.9794 27.731H29.7894Z" fill="#504323"/>
<path d="M22.1091 30.6496C21.9557 30.6496 21.8224 30.5929 21.7091 30.4796C21.5957 30.3663 21.5391 30.2329 21.5391 30.0796V26.0196C21.5391 25.8663 21.5957 25.7329 21.7091 25.6196C21.8224 25.5063 21.9557 25.4496 22.1091 25.4496H22.4791C22.6391 25.4496 22.7724 25.5063 22.8791 25.6196C22.9924 25.7263 23.0557 25.8596 23.0691 26.0196L23.0791 26.1096C23.0791 26.1163 23.0824 26.1196 23.0891 26.1196C23.1024 26.1196 23.1091 26.1163 23.1091 26.1096C23.5024 25.6029 23.9524 25.3496 24.4591 25.3496C24.7657 25.3496 25.0091 25.4063 25.1891 25.5196C25.3691 25.6263 25.5357 25.8196 25.6891 26.0996C25.6891 26.1129 25.6957 26.1196 25.7091 26.1196L25.7291 26.0996C26.1891 25.5996 26.6691 25.3496 27.1691 25.3496C27.7357 25.3496 28.1457 25.5029 28.3991 25.8096C28.6524 26.1096 28.7791 26.6229 28.7791 27.3496V30.0796C28.7791 30.2329 28.7224 30.3663 28.6091 30.4796C28.4957 30.5929 28.3624 30.6496 28.2091 30.6496H27.7691C27.6157 30.6496 27.4824 30.5929 27.3691 30.4796C27.2557 30.3663 27.1991 30.2329 27.1991 30.0796V27.4496C27.1991 27.0896 27.1591 26.8529 27.0791 26.7396C26.9991 26.6196 26.8491 26.5596 26.6291 26.5596C26.4757 26.5596 26.3257 26.6229 26.1791 26.7496C26.0391 26.8763 25.9691 26.9996 25.9691 27.1196V30.0796C25.9691 30.2329 25.9124 30.3663 25.7991 30.4796C25.6857 30.5929 25.5524 30.6496 25.3991 30.6496H24.9591C24.8057 30.6496 24.6724 30.5929 24.5591 30.4796C24.4457 30.3663 24.3891 30.2329 24.3891 30.0796V27.4496C24.3891 27.0896 24.3491 26.8529 24.2691 26.7396C24.1957 26.6196 24.0491 26.5596 23.8291 26.5596C23.6757 26.5596 23.5257 26.6229 23.3791 26.7496C23.2324 26.8763 23.1591 26.9996 23.1591 27.1196V30.0796C23.1591 30.2329 23.1024 30.3663 22.9891 30.4796C22.8757 30.5929 22.7424 30.6496 22.5891 30.6496H22.1091Z" fill="#504323"/>
<path d="M16.3078 30.6096C16.1478 30.5763 16.0145 30.4929 15.9078 30.3596C15.8078 30.2263 15.7578 30.0729 15.7578 29.8996V29.5896C15.7578 29.4496 15.8145 29.3396 15.9278 29.2596C16.0411 29.1796 16.1645 29.1563 16.2978 29.1896C16.8378 29.3296 17.2678 29.3996 17.5878 29.3996C18.5678 29.3996 19.0578 28.9896 19.0578 28.1696C19.0578 27.5029 18.7245 27.1696 18.0578 27.1696C17.9045 27.1696 17.7711 27.1929 17.6578 27.2396C17.6178 27.2529 17.5345 27.2863 17.4078 27.3396C17.2878 27.3863 17.1945 27.4229 17.1278 27.4496C17.0678 27.4696 16.9878 27.4929 16.8878 27.5196C16.7945 27.5396 16.7045 27.5496 16.6178 27.5496H16.3078C16.1545 27.5496 16.0245 27.4929 15.9178 27.3796C15.8111 27.2663 15.7611 27.1329 15.7678 26.9796L15.9078 23.9196C15.9211 23.7596 15.9845 23.6263 16.0978 23.5196C16.2111 23.4063 16.3478 23.3496 16.5078 23.3496H19.8178C19.9711 23.3496 20.1045 23.4063 20.2178 23.5196C20.3311 23.6329 20.3878 23.7663 20.3878 23.9196V24.1496C20.3878 24.3029 20.3311 24.4363 20.2178 24.5496C20.1045 24.6629 19.9711 24.7196 19.8178 24.7196H17.5578C17.4978 24.7196 17.4678 24.7463 17.4678 24.7996L17.4078 26.0696C17.4078 26.0763 17.4111 26.0796 17.4178 26.0796H17.4378C17.7578 25.9463 18.0745 25.8796 18.3878 25.8796C19.1345 25.8796 19.7078 26.0796 20.1078 26.4796C20.5145 26.8729 20.7178 27.4363 20.7178 28.1696C20.7178 29.8896 19.6978 30.7496 17.6578 30.7496C17.2111 30.7496 16.7611 30.7029 16.3078 30.6096Z" fill="#504323"/>
<path d="M12.4037 24.48C12.0371 24.48 11.7471 24.59 11.5338 24.81C11.3271 25.03 11.2238 25.3333 11.2238 25.72C11.2238 26.18 11.3271 26.5267 11.5338 26.76C11.7404 26.9933 12.0304 27.11 12.4037 27.11C12.7704 27.11 13.0571 26.99 13.2638 26.75C13.4771 26.51 13.5838 26.1667 13.5838 25.72C13.5838 25.3467 13.4738 25.0467 13.2538 24.82C13.0338 24.5933 12.7504 24.48 12.4037 24.48ZM12.0538 28.25C11.2604 28.25 10.6504 28.0367 10.2238 27.61C9.80375 27.1833 9.59375 26.5633 9.59375 25.75C9.59375 24.9833 9.84375 24.3767 10.3438 23.93C10.8504 23.4767 11.5371 23.25 12.4037 23.25C13.3038 23.25 13.9971 23.52 14.4838 24.06C14.9771 24.6 15.2238 25.3967 15.2238 26.45C15.2238 29.3167 14.1337 30.75 11.9538 30.75C11.5871 30.75 11.2138 30.72 10.8338 30.66C10.6737 30.6333 10.5404 30.5567 10.4337 30.43C10.3338 30.2967 10.2838 30.1467 10.2838 29.98V29.8C10.2838 29.66 10.3404 29.55 10.4538 29.47C10.5671 29.3833 10.6938 29.3567 10.8338 29.39C11.2138 29.4767 11.5671 29.52 11.8938 29.52C12.4004 29.52 12.7971 29.3767 13.0838 29.09C13.3771 28.8033 13.5371 28.3833 13.5638 27.83C13.5638 27.8233 13.5604 27.82 13.5538 27.82H13.5437C13.1704 28.1067 12.6737 28.25 12.0538 28.25Z" fill="#504323"/>
</svg>
