<svg width="48" height="48" viewBox="0 0 48 48" fill="none" xmlns="http://www.w3.org/2000/svg">
<path d="M21 5C21 5 33.8713 19.0818 34.9287 28.2402H31.1914C30.7871 28.2403 30.4222 28.3798 30.127 28.625L30.0049 28.7373C29.9208 28.8214 29.8465 28.9127 29.7822 29.0098C29.748 28.9581 29.7118 28.9075 29.6719 28.8594L29.5605 28.7373L29.4385 28.625C29.1431 28.3796 28.7776 28.2402 28.373 28.2402H27.6172C26.9496 28.2402 26.3285 28.4343 25.79 28.8291L24.5859 29.7119C23.9544 30.1652 23.6173 30.8283 23.6172 31.6035V32.4805C23.6173 32.6928 23.6624 32.9345 23.7959 33.166C23.9313 33.4006 24.1237 33.5668 24.3262 33.6748L24.3496 33.6865C24.5507 33.7871 24.8023 33.8542 25.083 33.8262C25.3482 33.7996 25.5694 33.6927 25.7432 33.5635L25.7451 33.5654L25.9336 33.4277V37.3164C25.9337 37.7784 26.1159 38.189 26.4297 38.5029C26.7438 38.817 27.1549 39 27.6172 39H28.373C28.8354 39 29.2465 38.817 29.5605 38.5029C29.6891 38.3743 29.7931 38.2282 29.874 38.0703C29.8934 38.1007 29.9124 38.1315 29.9336 38.1611L29.9502 38.1836L29.9668 38.2051C30.2264 38.5294 30.5731 38.7592 30.9854 38.8623L30.9932 38.8643L31.002 38.8662C31.014 38.869 31.0261 38.8713 31.0381 38.874C30.9919 38.9202 30.9463 38.9671 30.8994 39.0127C28.2739 41.5654 24.713 43 21 43C17.287 43 13.7261 41.5654 11.1006 39.0127C8.4752 36.46 7 32.9977 7 29.3877C7.00037 20.3138 20.9975 5.0027 21 5ZM31.2041 36.1641L31.457 36.2432C31.9567 36.3902 32.407 36.4741 32.8076 36.4951L32.9365 36.498C32.6056 37.0232 32.2372 37.5276 31.833 38.0078C31.6321 37.9754 31.43 37.9385 31.2275 37.8916C31.0357 37.8436 30.876 37.7399 30.748 37.5801C30.628 37.4121 30.5674 37.2236 30.5674 37.0156V36.6084C30.5674 36.4484 30.6318 36.3243 30.7598 36.2363C30.8958 36.1403 31.0441 36.1161 31.2041 36.1641ZM28.5068 29.2529C28.6357 29.2785 28.7516 29.3424 28.8535 29.4443C28.9892 29.5802 29.0566 29.7401 29.0566 29.9238V31.2969H28.7344V35.5293H29.0566V37.3164L29.0439 37.4492C29.0185 37.5782 28.9554 37.6939 28.8535 37.7959L28.7471 37.8848C28.6359 37.9615 28.5113 38 28.373 38H27.6172L27.4834 37.9873C27.3545 37.9618 27.2387 37.8978 27.1367 37.7959C27.0348 37.6939 26.9717 37.5782 26.9463 37.4492L26.9336 37.3164V31.4844H26.9092L25.1572 32.7559C25.0452 32.8439 24.9249 32.856 24.7969 32.792C24.6771 32.7281 24.6173 32.6241 24.6172 32.4805V31.6035C24.6173 31.1479 24.8013 30.7883 25.1689 30.5244L26.3809 29.6357C26.6958 29.4048 27.0508 29.275 27.4453 29.2461L27.6172 29.2402H28.373L28.5068 29.2529ZM33.4658 35.3008C33.4635 35.3631 33.4546 35.3908 33.4521 35.3965C33.4507 35.3999 33.4494 35.4011 33.4492 35.4014C33.4486 35.4022 33.4456 35.4061 33.4385 35.4121C33.4278 35.421 33.3871 35.4483 33.2891 35.4707V35.2637C33.3628 35.2764 33.4212 35.2885 33.4658 35.3008ZM35 29.3877C35 30.3607 34.8916 31.3231 34.6836 32.2598L34.0117 32.8164V32.8281L34.0146 32.8369C34.0166 32.8389 34.0195 32.8398 34.0234 32.8398H34.168C34.2948 32.8399 34.4167 32.8489 34.5342 32.8633C34.3887 33.3986 34.2108 33.9244 34 34.4375C33.8355 34.3543 33.5988 34.292 33.2891 34.252V31.4395L33.9033 30.9082V30.8965C33.9033 30.8885 33.8996 30.8838 33.8916 30.8838H31.1914C31.0075 30.8837 30.8479 30.8156 30.7119 30.6797C30.576 30.5437 30.5079 30.3841 30.5078 30.2002V29.9238C30.5079 29.7399 30.576 29.5803 30.7119 29.4443C30.814 29.3422 30.9294 29.2784 31.0586 29.2529L31.1914 29.2402H34.9971C34.9979 29.2896 35 29.3387 35 29.3877Z" fill="#E4DDCD"/>
<path d="M37.809 38.0002C37.625 38.0002 37.465 37.9322 37.329 37.7962C37.193 37.6602 37.125 37.5002 37.125 37.3162V29.9242C37.125 29.7402 37.193 29.5802 37.329 29.4442C37.465 29.3082 37.625 29.2402 37.809 29.2402H38.553C38.737 29.2402 38.893 29.3082 39.021 29.4442C39.157 29.5802 39.225 29.7402 39.225 29.9242V36.2122C39.225 36.2762 39.261 36.3082 39.333 36.3082H42.249C42.433 36.3082 42.593 36.3762 42.729 36.5122C42.865 36.6482 42.933 36.8082 42.933 36.9922V37.3162C42.933 37.5002 42.865 37.6602 42.729 37.7962C42.593 37.9322 42.433 38.0002 42.249 38.0002H37.809Z" fill="#504323"/>
<path d="M31.1918 30.8842C31.0078 30.8842 30.8478 30.8162 30.7118 30.6802C30.5758 30.5442 30.5078 30.3842 30.5078 30.2002V29.9242C30.5078 29.7402 30.5758 29.5802 30.7118 29.4442C30.8478 29.3082 31.0078 29.2402 31.1918 29.2402H35.6678C35.8518 29.2402 36.0118 29.3082 36.1478 29.4442C36.2838 29.5802 36.3518 29.7402 36.3518 29.9242V30.2002C36.3518 30.6562 36.1758 31.0282 35.8238 31.3162L34.0118 32.8162V32.8282C34.0118 32.8362 34.0158 32.8402 34.0238 32.8402H34.1678C34.8638 32.8402 35.4198 33.0562 35.8358 33.4882C36.2598 33.9202 36.4718 34.5042 36.4718 35.2402C36.4718 36.1682 36.1878 36.8802 35.6198 37.3762C35.0518 37.8722 34.2358 38.1202 33.1718 38.1202C32.5318 38.1202 31.8838 38.0442 31.2278 37.8922C31.0358 37.8442 30.8758 37.7402 30.7478 37.5802C30.6278 37.4122 30.5678 37.2242 30.5678 37.0162V36.6082C30.5678 36.4482 30.6318 36.3242 30.7598 36.2362C30.8958 36.1402 31.0438 36.1162 31.2038 36.1642C31.8918 36.3882 32.4918 36.5002 33.0038 36.5002C33.4678 36.5002 33.8278 36.3922 34.0838 36.1762C34.3398 35.9602 34.4678 35.6602 34.4678 35.2762C34.4678 34.8842 34.3198 34.6082 34.0238 34.4482C33.7278 34.2882 33.1758 34.2042 32.3678 34.1962C32.1838 34.1962 32.0238 34.1322 31.8878 34.0042C31.7518 33.8682 31.6838 33.7082 31.6838 33.5242V33.5002C31.6838 33.0522 31.8558 32.6802 32.1998 32.3842L33.9038 30.9082V30.8962C33.9038 30.8882 33.8998 30.8842 33.8918 30.8842H31.1918Z" fill="#504323"/>
<path d="M25.1572 32.7562C25.0452 32.8442 24.9252 32.8562 24.7972 32.7922C24.6772 32.7282 24.6172 32.6242 24.6172 32.4802V31.6042C24.6172 31.1482 24.8012 30.7882 25.1692 30.5242L26.3812 29.6362C26.7412 29.3722 27.1532 29.2402 27.6172 29.2402H28.3732C28.5572 29.2402 28.7172 29.3082 28.8532 29.4442C28.9892 29.5802 29.0572 29.7402 29.0572 29.9242V37.3162C29.0572 37.5002 28.9892 37.6602 28.8532 37.7962C28.7172 37.9322 28.5572 38.0002 28.3732 38.0002H27.6172C27.4332 38.0002 27.2732 37.9322 27.1372 37.7962C27.0012 37.6602 26.9332 37.5002 26.9332 37.3162V31.4842H26.9212H26.9092L25.1572 32.7562Z" fill="#504323"/>
</svg>
