<svg width="48" height="48" viewBox="0 0 48 48" fill="none" xmlns="http://www.w3.org/2000/svg">
<rect x="8" y="14" width="26" height="26" rx="1.08333" fill="#E4DDCD"/>
<line x1="32.5" y1="10" x2="9.5" y2="10" stroke="#7E796E" stroke-width="2" stroke-linecap="round"/>
<path d="M9 8V12" stroke="#7E796E" stroke-width="2" stroke-linecap="round"/>
<path d="M33.5 8V12" stroke="#7E796E" stroke-width="2" stroke-linecap="round"/>
<line x1="37.9922" y1="38" x2="37.9922" y2="16" stroke="#7E796E" stroke-width="2" stroke-linecap="round"/>
<path d="M39.9922 15L36 15" stroke="#7E796E" stroke-width="2" stroke-linecap="round"/>
<path d="M40 39L36.0078 39" stroke="#7E796E" stroke-width="2" stroke-linecap="round"/>
<path d="M29.4925 27.7115C29.3725 27.7115 29.2692 27.6715 29.1825 27.5915C29.1025 27.5048 29.0625 27.4015 29.0625 27.2815C29.0625 26.9882 29.1792 26.7515 29.4125 26.5715C30.0592 26.0582 30.4825 25.6782 30.6825 25.4315C30.8825 25.1782 30.9825 24.9282 30.9825 24.6815C30.9825 24.3348 30.7892 24.1615 30.4025 24.1615C30.2158 24.1615 29.9525 24.2148 29.6125 24.3215C29.4992 24.3548 29.3925 24.3415 29.2925 24.2815C29.1992 24.2148 29.1525 24.1248 29.1525 24.0115C29.1525 23.8648 29.1925 23.7315 29.2725 23.6115C29.3592 23.4915 29.4725 23.4182 29.6125 23.3915C29.9792 23.3115 30.2958 23.2715 30.5625 23.2715C31.0492 23.2715 31.4225 23.3882 31.6825 23.6215C31.9492 23.8482 32.0825 24.1648 32.0825 24.5715C32.0825 24.9115 31.9725 25.2382 31.7525 25.5515C31.5325 25.8648 31.1058 26.2915 30.4725 26.8315L30.4625 26.8415L30.4725 26.8515H31.6825C31.8025 26.8515 31.9025 26.8948 31.9825 26.9815C32.0692 27.0615 32.1125 27.1615 32.1125 27.2815C32.1125 27.4015 32.0692 27.5048 31.9825 27.5915C31.9025 27.6715 31.8025 27.7115 31.6825 27.7115H29.4925Z" fill="#504323"/>
<path d="M21.82 30.6301C21.6667 30.6301 21.5333 30.5734 21.42 30.4601C21.3067 30.3467 21.25 30.2134 21.25 30.0601V26.0001C21.25 25.8467 21.3067 25.7134 21.42 25.6001C21.5333 25.4867 21.6667 25.4301 21.82 25.4301H22.19C22.35 25.4301 22.4833 25.4867 22.59 25.6001C22.7033 25.7067 22.7667 25.8401 22.78 26.0001L22.79 26.0901C22.79 26.0967 22.7933 26.1001 22.8 26.1001C22.8133 26.1001 22.82 26.0967 22.82 26.0901C23.2133 25.5834 23.6633 25.3301 24.17 25.3301C24.4767 25.3301 24.72 25.3867 24.9 25.5001C25.08 25.6067 25.2467 25.8001 25.4 26.0801C25.4 26.0934 25.4067 26.1001 25.42 26.1001L25.44 26.0801C25.9 25.5801 26.38 25.3301 26.88 25.3301C27.4467 25.3301 27.8567 25.4834 28.11 25.7901C28.3633 26.0901 28.49 26.6034 28.49 27.3301V30.0601C28.49 30.2134 28.4333 30.3467 28.32 30.4601C28.2067 30.5734 28.0733 30.6301 27.92 30.6301H27.48C27.3267 30.6301 27.1933 30.5734 27.08 30.4601C26.9667 30.3467 26.91 30.2134 26.91 30.0601V27.4301C26.91 27.0701 26.87 26.8334 26.79 26.7201C26.71 26.6001 26.56 26.5401 26.34 26.5401C26.1867 26.5401 26.0367 26.6034 25.89 26.7301C25.75 26.8567 25.68 26.9801 25.68 27.1001V30.0601C25.68 30.2134 25.6233 30.3467 25.51 30.4601C25.3967 30.5734 25.2633 30.6301 25.11 30.6301H24.67C24.5167 30.6301 24.3833 30.5734 24.27 30.4601C24.1567 30.3467 24.1 30.2134 24.1 30.0601V27.4301C24.1 27.0701 24.06 26.8334 23.98 26.7201C23.9067 26.6001 23.76 26.5401 23.54 26.5401C23.3867 26.5401 23.2367 26.6034 23.09 26.7301C22.9433 26.8567 22.87 26.9801 22.87 27.1001V30.0601C22.87 30.2134 22.8133 30.3467 22.7 30.4601C22.5867 30.5734 22.4533 30.6301 22.3 30.6301H21.82Z" fill="#504323"/>
<path d="M16.3156 30.5901C16.1556 30.5567 16.0223 30.4734 15.9156 30.3401C15.8156 30.2067 15.7656 30.0534 15.7656 29.8801V29.5701C15.7656 29.4301 15.8223 29.3201 15.9356 29.2401C16.049 29.1601 16.1723 29.1367 16.3056 29.1701C16.8456 29.3101 17.2756 29.3801 17.5956 29.3801C18.5756 29.3801 19.0656 28.9701 19.0656 28.1501C19.0656 27.4834 18.7323 27.1501 18.0656 27.1501C17.9123 27.1501 17.779 27.1734 17.6656 27.2201C17.6256 27.2334 17.5423 27.2667 17.4156 27.3201C17.2956 27.3667 17.2023 27.4034 17.1356 27.4301C17.0756 27.4501 16.9956 27.4734 16.8956 27.5001C16.8023 27.5201 16.7123 27.5301 16.6256 27.5301H16.3156C16.1623 27.5301 16.0323 27.4734 15.9256 27.3601C15.819 27.2467 15.769 27.1134 15.7756 26.9601L15.9156 23.9001C15.929 23.7401 15.9923 23.6067 16.1056 23.5001C16.219 23.3867 16.3556 23.3301 16.5156 23.3301H19.8256C19.979 23.3301 20.1123 23.3867 20.2256 23.5001C20.339 23.6134 20.3956 23.7467 20.3956 23.9001V24.1301C20.3956 24.2834 20.339 24.4167 20.2256 24.5301C20.1123 24.6434 19.979 24.7001 19.8256 24.7001H17.5656C17.5056 24.7001 17.4756 24.7267 17.4756 24.7801L17.4156 26.0501C17.4156 26.0567 17.419 26.0601 17.4256 26.0601H17.4456C17.7656 25.9267 18.0823 25.8601 18.3956 25.8601C19.1423 25.8601 19.7156 26.0601 20.1156 26.4601C20.5223 26.8534 20.7256 27.4167 20.7256 28.1501C20.7256 29.8701 19.7056 30.7301 17.6656 30.7301C17.219 30.7301 16.769 30.6834 16.3156 30.5901Z" fill="#504323"/>
<path d="M10.4528 24.7001C10.2995 24.7001 10.1661 24.6434 10.0528 24.5301C9.93948 24.4167 9.88281 24.2834 9.88281 24.1301V23.9001C9.88281 23.7467 9.93948 23.6134 10.0528 23.5001C10.1661 23.3867 10.2995 23.3301 10.4528 23.3301H14.4528C14.6061 23.3301 14.7361 23.3867 14.8428 23.5001C14.9561 23.6134 15.0128 23.7467 15.0128 23.9001V24.1301C15.0128 24.4967 14.9195 24.8467 14.7328 25.1801C13.8795 26.6534 13.1461 28.2901 12.5328 30.0901C12.4795 30.2501 12.3828 30.3801 12.2428 30.4801C12.1028 30.5801 11.9495 30.6301 11.7828 30.6301H11.1028C10.9628 30.6301 10.8528 30.5734 10.7728 30.4601C10.6928 30.3467 10.6795 30.2234 10.7328 30.0901C11.4728 28.1634 12.3561 26.3867 13.3828 24.7601C13.3961 24.7467 13.4028 24.7334 13.4028 24.7201C13.4028 24.7067 13.3961 24.7001 13.3828 24.7001H10.4528Z" fill="#504323"/>
</svg>
