<svg width="48" height="48" viewBox="0 0 48 48" fill="none" xmlns="http://www.w3.org/2000/svg">
<path d="M21 5C21 5 33.9181 19.1339 34.9336 28.291C34.8022 28.2579 34.6648 28.2402 34.5225 28.2402H33.7666C33.099 28.2403 32.4779 28.4343 31.9395 28.8291L30.7354 29.7119C30.64 29.7804 30.5525 29.8549 30.4707 29.9326C30.2933 29.6109 30.0605 29.317 29.7637 29.0605H29.7627C29.0003 28.3871 27.9899 28.1211 26.8779 28.1211C26.1102 28.1211 25.3238 28.231 24.5225 28.4424L24.5088 28.4463C24.0982 28.5613 23.7504 28.8001 23.498 29.1445L23.4082 29.2754C23.2134 29.5849 23.1182 29.9338 23.1182 30.2969V30.8008C23.1182 31.305 23.3619 31.7432 23.7783 32.0127C24.1786 32.2717 24.6523 32.324 25.0996 32.1592L25.1074 32.1562C25.7698 31.906 26.2506 31.8125 26.5781 31.8125C26.6824 31.8125 26.7523 31.8244 26.7959 31.834C26.7983 31.8547 26.8018 31.882 26.8018 31.917C26.8018 32.1525 26.7067 32.4795 26.3604 32.9141L26.3545 32.9209C26.0054 33.3669 25.2069 34.104 23.8643 35.1592L23.6523 35.3428C23.1887 35.79 22.9375 36.3734 22.9375 37.041V37.3174C22.9376 37.7794 23.1207 38.19 23.4346 38.5039C23.7486 38.818 24.1598 39.001 24.6221 39.001H29.2656C29.7199 39.001 30.1291 38.8227 30.4404 38.5029L30.4414 38.5039C30.446 38.4993 30.4496 38.4939 30.4541 38.4893C30.4565 38.4868 30.4596 38.4849 30.4619 38.4824L30.4609 38.4814C30.599 38.3388 30.7096 38.1767 30.79 38H31.8408C31.5458 38.351 31.232 38.6893 30.8994 39.0127C28.2739 41.5654 24.713 43 21 43C17.287 43 13.7261 41.5654 11.1006 39.0127C8.4752 36.46 7 32.9977 7 29.3877C7.00037 20.3138 20.9975 5.0027 21 5ZM27.2305 29.1318C28.0285 29.1826 28.6554 29.4114 29.1104 29.8174L29.2959 29.9961C29.5621 30.2848 29.7392 30.6337 29.8301 31.042C29.8292 31.0459 29.828 31.0498 29.8271 31.0537C29.8725 31.2618 29.8984 31.4847 29.8984 31.7236C29.8984 32.0232 29.8546 32.3165 29.7734 32.6045C29.7738 32.6087 29.774 32.613 29.7744 32.6172C29.7376 32.7459 29.6937 32.8736 29.6406 33H29V34.043C28.5177 34.638 27.7307 35.398 26.6377 36.3213L26.626 36.3447C26.626 36.3486 26.6271 36.3515 26.6289 36.3535L26.6377 36.3574H29V38H29.2754C29.2721 38 29.2689 38.001 29.2656 38.001H24.6221L24.4883 37.9883C24.3593 37.9628 24.2436 37.8988 24.1416 37.7969C24.0397 37.6949 23.9766 37.5792 23.9512 37.4502L23.9375 37.3174V37.041C23.9375 36.6489 24.0758 36.321 24.3516 36.0576L24.4775 35.9492C25.6537 35.0251 26.4813 34.294 26.959 33.7559L27.1416 33.5371C27.5267 33.054 27.7439 32.58 27.792 32.1152L27.8018 31.917C27.8018 31.2271 27.4435 30.8606 26.7266 30.8174L26.5781 30.8125C26.0821 30.8125 25.4739 30.9487 24.7539 31.2207C24.602 31.2767 24.4582 31.2608 24.3223 31.1729C24.1863 31.0849 24.1182 30.9608 24.1182 30.8008V30.2969C24.1182 30.089 24.1779 29.9051 24.2979 29.7451C24.4179 29.5771 24.5783 29.4652 24.7783 29.4092C25.5062 29.2172 26.206 29.1211 26.8779 29.1211L27.2305 29.1318ZM34.6562 29.2529C34.7836 29.2781 34.898 29.3407 34.999 29.4404C34.9895 31.8582 34.3178 34.2071 33.083 36.2598V31.4844H33.0586L31.3066 32.7559C31.1946 32.8439 31.0743 32.856 30.9463 32.792C30.8753 32.754 30.8277 32.7009 30.7988 32.6348C30.7992 32.6331 30.8004 32.6316 30.8008 32.6299C30.7826 32.5861 30.7706 32.5374 30.7705 32.4814V31.6045C30.7706 31.4243 30.8009 31.2596 30.8584 31.1094C30.8581 31.107 30.8568 31.1049 30.8564 31.1025C30.9448 30.8756 31.0981 30.6826 31.3184 30.5244L32.5303 29.6357C32.8452 29.4048 33.2003 29.275 33.5947 29.2461L33.7666 29.2402H34.5225L34.6562 29.2529Z" fill="#E4DDCD"/>
<path d="M37.809 38.0002C37.625 38.0002 37.465 37.9322 37.329 37.7962C37.193 37.6602 37.125 37.5002 37.125 37.3162V29.9242C37.125 29.7402 37.193 29.5802 37.329 29.4442C37.465 29.3082 37.625 29.2402 37.809 29.2402H38.553C38.737 29.2402 38.893 29.3082 39.021 29.4442C39.157 29.5802 39.225 29.7402 39.225 29.9242V36.2122C39.225 36.2762 39.261 36.3082 39.333 36.3082H42.249C42.433 36.3082 42.593 36.3762 42.729 36.5122C42.865 36.6482 42.933 36.8082 42.933 36.9922V37.3162C42.933 37.5002 42.865 37.6602 42.729 37.7962C42.593 37.9322 42.433 38.0002 42.249 38.0002H37.809Z" fill="#504323"/>
<path d="M31.3056 32.7562C31.1936 32.8442 31.0736 32.8562 30.9456 32.7922C30.8256 32.7282 30.7656 32.6242 30.7656 32.4802V31.6042C30.7656 31.1482 30.9496 30.7882 31.3176 30.5242L32.5296 29.6362C32.8896 29.3722 33.3016 29.2402 33.7656 29.2402H34.5216C34.7056 29.2402 34.8656 29.3082 35.0016 29.4442C35.1376 29.5802 35.2056 29.7402 35.2056 29.9242V37.3162C35.2056 37.5002 35.1376 37.6602 35.0016 37.7962C34.8656 37.9322 34.7056 38.0002 34.5216 38.0002H33.7656C33.5816 38.0002 33.4216 37.9322 33.2856 37.7962C33.1496 37.6602 33.0816 37.5002 33.0816 37.3162V31.4842H33.0696H33.0576L31.3056 32.7562Z" fill="#504323"/>
<path d="M24.6215 37.9991C24.4375 37.9991 24.2775 37.9311 24.1415 37.7951C24.0055 37.6591 23.9375 37.4991 23.9375 37.3151V37.0391C23.9375 36.5911 24.1175 36.2271 24.4775 35.9471C25.8215 34.8911 26.7095 34.0871 27.1415 33.5351C27.5815 32.9831 27.8015 32.4431 27.8015 31.9151C27.8015 31.1791 27.3935 30.8111 26.5775 30.8111C26.0815 30.8111 25.4735 30.9471 24.7535 31.2191C24.6015 31.2751 24.4575 31.2591 24.3215 31.1711C24.1855 31.0831 24.1175 30.9591 24.1175 30.7991V30.2951C24.1175 30.0871 24.1775 29.9031 24.2975 29.7431C24.4175 29.5751 24.5775 29.4631 24.7775 29.4071C25.5055 29.2151 26.2055 29.1191 26.8775 29.1191C27.8455 29.1191 28.5895 29.3511 29.1095 29.8151C29.6375 30.2711 29.9015 30.9071 29.9015 31.7231C29.9015 32.4271 29.6775 33.0991 29.2295 33.7391C28.7895 34.3711 27.9255 35.2311 26.6375 36.3191C26.6295 36.3271 26.6255 36.3351 26.6255 36.3431C26.6255 36.3511 26.6295 36.3551 26.6375 36.3551H29.2655C29.4495 36.3551 29.6055 36.4231 29.7335 36.5591C29.8695 36.6951 29.9375 36.8551 29.9375 37.0391V37.3151C29.9375 37.4991 29.8695 37.6591 29.7335 37.7951C29.6055 37.9311 29.4495 37.9991 29.2655 37.9991H24.6215Z" fill="#504323"/>
</svg>
