<svg width="48" height="48" viewBox="0 0 48 48" fill="none" xmlns="http://www.w3.org/2000/svg">
<circle cx="24" cy="24" r="12" fill="#E4DDCD"/>
<path fill-rule="evenodd" clip-rule="evenodd" d="M41.938 25.1191C42.513 25.1191 42.972 25.6041 42.907 26.1755C41.9086 34.948 34.9461 41.9105 26.1735 42.909C25.6021 42.974 25.1172 42.515 25.1172 41.9399V39.156C25.1172 38.6338 25.5206 38.2032 26.0376 38.1292C32.2885 37.2347 37.2328 32.2904 38.1273 26.0395C38.2012 25.5225 38.6318 25.1191 39.1541 25.1191H41.938Z" fill="#D5CDBA"/>
<path fill-rule="evenodd" clip-rule="evenodd" d="M21.8241 42.909C22.3955 42.974 22.8804 42.515 22.8804 41.9399V39.156C22.8804 38.6338 22.4771 38.2032 21.9601 38.1292C15.7092 37.2347 10.7648 32.2904 9.87038 26.0395C9.79639 25.5225 9.36583 25.1191 8.84355 25.1191H6.05969C5.48464 25.1191 5.02561 25.6041 5.09064 26.1755C6.08905 34.948 13.0516 41.9105 21.8241 42.909Z" fill="#C3B89D"/>
<path fill-rule="evenodd" clip-rule="evenodd" d="M41.9379 22.8804C42.513 22.8804 42.972 22.3955 42.907 21.8241C41.9086 13.0516 34.9461 6.08906 26.1735 5.09064C25.6021 5.02561 25.1172 5.48464 25.1172 6.05969V8.84355C25.1172 9.36583 25.5206 9.79639 26.0376 9.87038C32.2885 10.7648 37.2328 15.7092 38.1273 21.9601C38.2012 22.4771 38.6318 22.8804 39.1541 22.8804H41.9379Z" fill="#E4DDCD"/>
<path fill-rule="evenodd" clip-rule="evenodd" d="M9.87038 21.9601C9.79639 22.4771 9.36583 22.8804 8.84355 22.8804H6.05969C5.48464 22.8804 5.02561 22.3955 5.09064 21.8241C6.08906 13.0516 13.0516 6.08906 21.8241 5.09064C22.3955 5.02561 22.8804 5.48464 22.8804 6.05969V8.84355C22.8804 9.36583 22.4771 9.79639 21.9601 9.87038C15.7092 10.7648 10.7648 15.7092 9.87038 21.9601Z" fill="#BDAE96"/>
<path d="M20.9972 23.102C20.8665 23.2047 20.7265 23.2187 20.5772 23.144C20.4372 23.0693 20.3672 22.948 20.3672 22.78V21.758C20.3672 21.226 20.5819 20.806 21.0112 20.498L22.4252 19.462C22.8452 19.154 23.3259 19 23.8672 19H24.7492C24.9639 19 25.1505 19.0793 25.3092 19.238C25.4679 19.3967 25.5472 19.5833 25.5472 19.798V28.422C25.5472 28.6367 25.4679 28.8233 25.3092 28.982C25.1505 29.1407 24.9639 29.22 24.7492 29.22H23.8672C23.6525 29.22 23.4659 29.1407 23.3072 28.982C23.1485 28.8233 23.0692 28.6367 23.0692 28.422V21.618H23.0552H23.0412L20.9972 23.102Z" fill="#504323"/>
</svg>
