<svg width="48" height="48" viewBox="0 0 48 48" fill="none" xmlns="http://www.w3.org/2000/svg">
<g clip-path="url(#clip0_2621_93182)">
<path d="M13.1055 38.3374C15.1366 39.8818 17.4726 40.9754 19.9583 41.5457C22.4439 42.1159 25.0223 42.1498 27.522 41.6449C30.0216 41.14 32.3854 40.108 34.4563 38.6174C36.5271 37.1268 38.2575 35.2119 39.5325 32.9997M12.9712 40.8069L12.5586 37.8761L15.3596 37.3963M17.0063 7.40422C14.6556 8.39407 12.542 9.87374 10.8062 11.7449C9.07035 13.6161 7.75195 15.8359 6.9386 18.2568C6.12525 20.6777 5.83559 23.2443 6.08885 25.786C6.34212 28.3278 7.13252 30.7864 8.40752 32.9985M14.9385 6.05313L17.6785 7.16059L16.6928 9.83031M41.798 26.2566C42.1176 23.7224 41.8951 21.1491 41.1453 18.7076C40.3955 16.2662 39.1356 14.0126 37.4492 12.0966C35.7629 10.1805 33.6888 8.64594 31.3647 7.59479C29.0406 6.54364 26.5198 6 23.9698 6M44 25.1383L41.6725 26.9616L39.8572 24.7717" stroke="#7E796E" stroke-width="2" stroke-linecap="round" stroke-linejoin="round"/>
<path fill-rule="evenodd" clip-rule="evenodd" d="M16.7783 14.0202C16.545 14.0717 16.3378 14.205 16.1943 14.3961L11 21.3119L14.8722 24.6875L16.2842 22.7719L16.2842 35H32.1749L32.1716 22.7748L33.1278 24.6256L37 21.25L32.3992 14.437C32.2532 14.2209 32.0287 14.0704 31.7733 14.0175L26.8629 13C26.8629 14.215 25.6926 15.2 24.2296 15.2C22.7666 15.2 21.4 14.215 21.4 13L16.7783 14.0202Z" fill="#E4DDCD"/>
<circle cx="29" cy="31" r="1" transform="rotate(-90 29 31)" fill="#7E796E"/>
<path d="M26.0781 26V28.5" stroke="#7E796E" stroke-width="2" stroke-linecap="round"/>
<path d="M25.0078 27.875L27.1729 26.625" stroke="#7E796E" stroke-width="2" stroke-linecap="round"/>
<path d="M25 26.625L27.1651 27.875" stroke="#7E796E" stroke-width="2" stroke-linecap="round"/>
<circle cx="29" cy="23" r="1" transform="rotate(-90 29 23)" fill="#7E796E"/>
</g>
<defs>
<clipPath id="clip0_2621_93182">
<rect width="48" height="48" fill="white"/>
</clipPath>
</defs>
</svg>
