<svg width="48" height="48" viewBox="0 0 48 48" fill="none" xmlns="http://www.w3.org/2000/svg">
<path fill-rule="evenodd" clip-rule="evenodd" d="M16.7783 14.2233C16.545 14.2748 16.3378 14.4082 16.1943 14.5992L11 21.515L14.8722 24.8906L16.2842 22.9751L16.2842 35.2031H32.1749L32.1716 22.9779L33.1278 24.8287L37 21.4531L32.3992 14.6402C32.2532 14.4241 32.0287 14.2735 31.7733 14.2206L26.8629 13.2031C26.8629 14.4182 25.6926 15.4031 24.2296 15.4031C22.7666 15.4031 21.4 14.4182 21.4 13.2031L16.7783 14.2233Z" fill="#E4DDCD"/>
<path d="M16.2133 11.9297C16.3003 11.6476 16.6997 11.6476 16.7867 11.9297L17.135 13.0593C17.1606 13.1422 17.2207 13.2099 17.2999 13.2451L18.3825 13.7258C18.6202 13.8313 18.6202 14.1687 18.3825 14.2742L17.2999 14.7549C17.2207 14.7901 17.1606 14.8578 17.135 14.9407L16.7867 16.0703C16.6997 16.3524 16.3003 16.3524 16.2133 16.0703L15.865 14.9407C15.8394 14.8578 15.7793 14.7901 15.7001 14.7549L14.6175 14.2742C14.3798 14.1687 14.3798 13.8313 14.6175 13.7258L15.7001 13.2451C15.7793 13.2099 15.8394 13.1422 15.865 13.0593L16.2133 11.9297Z" fill="#7E796E"/>
<path d="M18.7123 15.9717C18.7971 15.6853 19.2029 15.6853 19.2877 15.9717L19.5017 16.6946C19.5261 16.7774 19.5851 16.8455 19.6634 16.8818L20.4113 17.2277C20.6434 17.3351 20.6434 17.6649 20.4113 17.7723L19.6634 18.1182C19.5851 18.1545 19.5261 18.2226 19.5017 18.3054L19.2877 19.0283C19.2029 19.3147 18.7971 19.3147 18.7123 19.0283L18.4983 18.3054C18.4739 18.2226 18.4149 18.1545 18.3366 18.1182L17.5887 17.7723C17.3566 17.6649 17.3566 17.3351 17.5887 17.2277L18.3366 16.8818C18.4149 16.8455 18.4739 16.7774 18.4983 16.6946L18.7123 15.9717Z" fill="#7E796E"/>
<path d="M14.8022 16.3367C14.8358 16.109 15.1642 16.109 15.1978 16.3367L15.2598 16.7551C15.2665 16.8002 15.2883 16.8417 15.3218 16.8726L15.8413 17.3532C15.9269 17.4324 15.9269 17.5676 15.8413 17.6468L15.3218 18.1274C15.2883 18.1583 15.2665 18.1998 15.2598 18.2449L15.1978 18.6633C15.1642 18.891 14.8358 18.891 14.8022 18.6633L14.7402 18.2449C14.7335 18.1998 14.7117 18.1583 14.6782 18.1274L14.1587 17.6468C14.0731 17.5676 14.0731 17.4324 14.1587 17.3532L14.6782 16.8726C14.7117 16.8417 14.7335 16.8002 14.7402 16.7551L14.8022 16.3367Z" fill="#7E796E"/>
<path d="M13.1055 38.3374C15.1366 39.8818 17.4726 40.9754 19.9583 41.5457C22.4439 42.1159 25.0223 42.1498 27.522 41.6449C30.0216 41.14 32.3854 40.108 34.4563 38.6174C36.5271 37.1268 38.2575 35.2119 39.5325 32.9997M12.9712 40.8069L12.5586 37.8761L15.3596 37.3963M17.0063 7.40422C14.6556 8.39407 12.542 9.87374 10.8062 11.7449C9.07035 13.6161 7.75195 15.8359 6.9386 18.2568C6.12525 20.6777 5.83559 23.2443 6.08885 25.786C6.34212 28.3278 7.13252 30.7864 8.40752 32.9985M14.9385 6.05313L17.6785 7.16059L16.6928 9.83031M41.798 26.2566C42.1176 23.7224 41.8951 21.1491 41.1453 18.7076C40.3955 16.2662 39.1356 14.0126 37.4492 12.0966C35.7629 10.1805 33.6888 8.64594 31.3647 7.59479C29.0406 6.54364 26.5198 6 23.9698 6M44 25.1383L41.6725 26.9616L39.8572 24.7717" stroke="#7E796E" stroke-width="1.67" stroke-linecap="round" stroke-linejoin="round"/>
<path d="M26.4415 24.7966C26.3035 24.7966 26.1835 24.7456 26.0815 24.6436C25.9855 24.5416 25.9375 24.4216 25.9375 24.2836V18.7396C25.9375 18.6016 25.9855 18.4816 26.0815 18.3796C26.1835 18.2776 26.3035 18.2266 26.4415 18.2266H27.1075C27.2455 18.2266 27.3625 18.2776 27.4585 18.3796C27.5605 18.4816 27.6115 18.6016 27.6115 18.7396V24.2836C27.6115 24.4216 27.5605 24.5416 27.4585 24.6436C27.3625 24.7456 27.2455 24.7966 27.1075 24.7966H26.4415Z" fill="#504323"/>
<path d="M22.4374 19.5586L21.7804 22.1416C21.7744 22.1596 21.7774 22.1776 21.7894 22.1956C21.8074 22.2076 21.8254 22.2136 21.8434 22.2136H23.0494C23.0674 22.2136 23.0824 22.2076 23.0944 22.1956C23.1124 22.1776 23.1184 22.1596 23.1124 22.1416L22.4554 19.5586C22.4554 19.5526 22.4524 19.5496 22.4464 19.5496C22.4404 19.5496 22.4374 19.5526 22.4374 19.5586ZM20.0344 24.7966C19.9084 24.7966 19.8064 24.7456 19.7284 24.6436C19.6564 24.5416 19.6414 24.4306 19.6834 24.3106L21.5014 18.7126C21.5494 18.5686 21.6334 18.4516 21.7534 18.3616C21.8794 18.2716 22.0174 18.2266 22.1674 18.2266H22.7614C22.9174 18.2266 23.0584 18.2716 23.1844 18.3616C23.3104 18.4516 23.3944 18.5686 23.4364 18.7126L25.2454 24.3106C25.2874 24.4306 25.2694 24.5416 25.1914 24.6436C25.1194 24.7456 25.0204 24.7966 24.8944 24.7966H24.2914C24.1414 24.7966 24.0064 24.7516 23.8864 24.6616C23.7664 24.5656 23.6884 24.4456 23.6524 24.3016L23.4364 23.4466C23.4304 23.3986 23.4004 23.3746 23.3464 23.3746H21.5464C21.4984 23.3746 21.4684 23.3986 21.4564 23.4466L21.2404 24.3016C21.2044 24.4456 21.1264 24.5656 21.0064 24.6616C20.8864 24.7516 20.7514 24.7966 20.6014 24.7966H20.0344Z" fill="#504323"/>
<path d="M35 31.2683C35 32.777 33.6569 34 32 34C30.3431 34 29 32.777 29 31.2683C29 29.2263 32 26 32 26C32 26 35 29.2263 35 31.2683Z" fill="#7E796E"/>
</svg>
