<svg width="48" height="48" viewBox="0 0 48 48" fill="none" xmlns="http://www.w3.org/2000/svg">
<circle cx="24" cy="24" r="18" stroke="#7E796E" stroke-width="2"/>
<circle cx="24" cy="24" r="14" fill="#E4DDCD"/>
<line x1="1" y1="-1" x2="7.06229" y2="-1" transform="matrix(0.115123 -0.993351 -0.992283 -0.123992 21 19.0078)" stroke="#7E796E" stroke-width="2" stroke-linecap="round" stroke-dasharray="1 3"/>
<line x1="1" y1="-1" x2="7.06229" y2="-1" transform="matrix(-0.115123 -0.993351 0.992283 -0.123992 26.9297 19.0078)" stroke="#7E796E" stroke-width="2" stroke-linecap="round" stroke-dasharray="1 3"/>
<line x1="1" y1="-1" x2="7.06229" y2="-1" transform="matrix(0.115123 0.993351 -0.992283 0.123992 21 29)" stroke="#7E796E" stroke-width="2" stroke-linecap="round" stroke-dasharray="1 3"/>
<line x1="1" y1="-1" x2="7.06229" y2="-1" transform="matrix(-0.115123 0.993351 0.992283 0.123992 26.9297 29)" stroke="#7E796E" stroke-width="2" stroke-linecap="round" stroke-dasharray="1 3"/>
<line x1="1" y1="-1" x2="7.06229" y2="-1" transform="matrix(0.993351 0.115123 0.123992 -0.992283 28.9922 21)" stroke="#7E796E" stroke-width="2" stroke-linecap="round" stroke-dasharray="1 3"/>
<line x1="1" y1="-1" x2="7.06229" y2="-1" transform="matrix(0.993351 -0.115123 0.123992 0.992283 28.9922 26.9297)" stroke="#7E796E" stroke-width="2" stroke-linecap="round" stroke-dasharray="1 3"/>
<line x1="1" y1="-1" x2="7.06229" y2="-1" transform="matrix(-0.993351 0.115123 -0.123992 -0.992283 19 21)" stroke="#7E796E" stroke-width="2" stroke-linecap="round" stroke-dasharray="1 3"/>
<line x1="1" y1="-1" x2="7.06229" y2="-1" transform="matrix(-0.993351 -0.115123 -0.123992 0.992283 19 26.9297)" stroke="#7E796E" stroke-width="2" stroke-linecap="round" stroke-dasharray="1 3"/>
</svg>
