<svg width="48" height="48" viewBox="0 0 48 48" fill="none" xmlns="http://www.w3.org/2000/svg">
<path d="M35 25.1238C35 31.3618 26.5359 36.5637 24.457 37.7473C24.1717 37.9097 23.8283 37.9097 23.543 37.7473C21.4641 36.5637 13 31.3618 13 25.1238C13 22.2591 13 18.1708 13 16.5417C13 16.1163 13.2692 15.7385 13.671 15.5985L23.671 12.1146C23.8841 12.0404 24.1159 12.0404 24.329 12.1146L34.329 15.5985C34.7308 15.7385 35 16.1163 35 16.5417C35 18.1708 35 22.2591 35 25.1238Z" fill="#D9D9D9"/>
<path d="M35 25.1238C35 31.3618 26.5359 36.5637 24.457 37.7473C24.1717 37.9097 23.8283 37.9097 23.543 37.7473C21.4641 36.5637 13 31.3618 13 25.1238C13 22.2591 13 18.1708 13 16.5417C13 16.1163 13.2692 15.7385 13.671 15.5985L23.671 12.1146C23.8841 12.0404 24.1159 12.0404 24.329 12.1146L34.329 15.5985C34.7308 15.7385 35 16.1163 35 16.5417C35 18.1708 35 22.2591 35 25.1238Z" fill="#E4DDCD"/>
<path d="M24.6689 20C25.2212 20 25.6689 20.4477 25.6689 21V23.3359H28C28.5523 23.3359 29 23.7837 29 24.3359V25.6689C29 26.2212 28.5523 26.6689 28 26.6689H25.6689V29C25.6689 29.5523 25.2212 30 24.6689 30H23.3359C22.7837 30 22.3359 29.5523 22.3359 29V26.6689H20C19.4477 26.6689 19 26.2212 19 25.6689V24.3359C19 23.7837 19.4477 23.3359 20 23.3359H22.3359V21C22.3359 20.4477 22.7837 20 23.3359 20H24.6689Z" fill="#7E796E"/>
<path d="M13.1055 38.3374C15.1366 39.8818 17.4726 40.9754 19.9583 41.5457C22.4439 42.1159 25.0223 42.1498 27.522 41.6449C30.0216 41.14 32.3854 40.108 34.4563 38.6174C36.5271 37.1268 38.2575 35.2119 39.5325 32.9997M12.9712 40.8069L12.5586 37.8761L15.3596 37.3963M17.0063 7.40422C14.6556 8.39407 12.542 9.87374 10.8062 11.7449C9.07035 13.6161 7.75195 15.8359 6.9386 18.2568C6.12525 20.6777 5.83559 23.2443 6.08885 25.786C6.34212 28.3278 7.13252 30.7864 8.40752 32.9985M14.9385 6.05313L17.6785 7.16059L16.6928 9.83031M41.798 26.2566C42.1176 23.7224 41.8951 21.1491 41.1453 18.7076C40.3955 16.2662 39.1356 14.0126 37.4492 12.0966C35.7629 10.1805 33.6888 8.64594 31.3647 7.59479C29.0406 6.54364 26.5198 6 23.9698 6M44 25.1383L41.6725 26.9616L39.8572 24.7717" stroke="#7E796E" stroke-width="2" stroke-linecap="round" stroke-linejoin="round"/>
<path d="M32.1156 13.3356C32.2266 12.9498 32.7734 12.9498 32.8844 13.3356L33.3955 15.1114C33.4272 15.2215 33.5046 15.3128 33.608 15.362L35.2408 16.1388C35.545 16.2835 35.545 16.7165 35.2408 16.8612L33.608 17.638C33.5046 17.6872 33.4272 17.7785 33.3955 17.8886L32.8844 19.6644C32.7734 20.0502 32.2266 20.0502 32.1156 19.6644L31.6045 17.8886C31.5728 17.7785 31.4954 17.6872 31.392 17.638L29.7592 16.8612C29.455 16.7165 29.455 16.2835 29.7592 16.1388L31.392 15.362C31.4954 15.3128 31.5728 15.2215 31.6045 15.1114L32.1156 13.3356Z" fill="#7E796E"/>
<path d="M35.21 18.0973C35.2887 17.7996 35.7113 17.7996 35.79 18.0973L36.1412 19.4261C36.1629 19.508 36.2181 19.5769 36.2933 19.6158L37.4858 20.2336C37.7018 20.3455 37.7018 20.6545 37.4858 20.7664L36.2933 21.3842C36.2181 21.4231 36.1629 21.492 36.1412 21.5739L35.79 22.9027C35.7113 23.2004 35.2887 23.2004 35.21 22.9027L34.8588 21.5739C34.8371 21.492 34.7819 21.4231 34.7067 21.3842L33.5142 20.7664C33.2982 20.6545 33.2982 20.3455 33.5142 20.2336L34.7067 19.6158C34.7819 19.5769 34.8371 19.508 34.8588 19.4261L35.21 18.0973Z" fill="#7E796E"/>
</svg>
