<svg width="48" height="48" viewBox="0 0 48 48" fill="none" xmlns="http://www.w3.org/2000/svg">
<rect x="5" y="11" width="38" height="26" rx="1" fill="#E4DDCD"/>
<rect x="27" y="18" width="12" height="2" rx="1" fill="#7E796E"/>
<rect x="27" y="23" width="12" height="2" rx="1" fill="#7E796E"/>
<rect x="27" y="28" width="12" height="2" rx="1" fill="#7E796E"/>
<path d="M20.2906 29C20.0805 29 19.8979 28.9224 19.7426 28.7671C19.5965 28.6119 19.5234 28.4292 19.5234 28.2192V19.7808C19.5234 19.5708 19.5965 19.3881 19.7426 19.2329C19.8979 19.0776 20.0805 19 20.2906 19H21.3043C21.5143 19 21.6924 19.0776 21.8385 19.2329C21.9938 19.3881 22.0714 19.5708 22.0714 19.7808V28.2192C22.0714 28.4292 21.9938 28.6119 21.8385 28.7671C21.6924 28.9224 21.5143 29 21.3043 29H20.2906Z" fill="#504323"/>
<path d="M14.2271 21.0274L13.2271 24.9589C13.218 24.9863 13.2225 25.0137 13.2408 25.0411C13.2682 25.0594 13.2956 25.0685 13.323 25.0685H15.1586C15.186 25.0685 15.2088 25.0594 15.2271 25.0411C15.2545 25.0137 15.2636 24.9863 15.2545 24.9589L14.2545 21.0274C14.2545 21.0183 14.2499 21.0137 14.2408 21.0137C14.2317 21.0137 14.2271 21.0183 14.2271 21.0274ZM10.5696 29C10.3778 29 10.2225 28.9224 10.1038 28.7671C9.99423 28.6119 9.9714 28.4429 10.0353 28.2603L12.8025 19.7397C12.8755 19.5205 13.0034 19.3425 13.186 19.2055C13.3778 19.0685 13.5878 19 13.8161 19H14.7203C14.9577 19 15.1723 19.0685 15.3641 19.2055C15.5559 19.3425 15.6837 19.5205 15.7477 19.7397L18.5011 28.2603C18.565 28.4429 18.5376 28.6119 18.4189 28.7671C18.3093 28.9224 18.1586 29 17.9668 29H17.049C16.8207 29 16.6152 28.9315 16.4326 28.7945C16.2499 28.6484 16.1312 28.4658 16.0764 28.2466L15.7477 26.9452C15.7385 26.8721 15.6929 26.8356 15.6107 26.8356H12.8709C12.7979 26.8356 12.7522 26.8721 12.734 26.9452L12.4052 28.2466C12.3504 28.4658 12.2317 28.6484 12.049 28.7945C11.8664 28.9315 11.6609 29 11.4326 29H10.5696Z" fill="#504323"/>
</svg>
