<svg width="48" height="48" viewBox="0 0 48 48" fill="none" xmlns="http://www.w3.org/2000/svg">
<circle cx="24" cy="24" r="13" fill="#E4DDCD"/>
<path d="M13.7646 23.5283C16.4633 22.7209 20.0077 22.7552 23.5 25.499C28.4638 29.3991 34.0552 26.5157 37.0029 23.9531C37.003 23.9686 37.0039 23.9845 37.0039 24C37.0036 31.1795 31.1834 37 24.0039 37C17.366 37 11.8902 32.0244 11.1016 25.5996C11.715 24.631 12.5941 23.8785 13.7646 23.5283Z" fill="#7E796E"/>
<path d="M13.1055 38.3374C15.1366 39.8818 17.4726 40.9754 19.9583 41.5457C22.4439 42.1159 25.0223 42.1498 27.522 41.6449C30.0216 41.14 32.3854 40.108 34.4563 38.6174C36.5271 37.1268 38.2575 35.2119 39.5325 32.9997M12.9712 40.8069L12.5586 37.8761L15.3596 37.3963M17.0063 7.40422C14.6556 8.39407 12.542 9.87374 10.8062 11.7449C9.07035 13.6161 7.75195 15.8359 6.9386 18.2568C6.12525 20.6777 5.83559 23.2443 6.08885 25.786C6.34212 28.3278 7.13252 30.7864 8.40752 32.9985M14.9385 6.05313L17.6785 7.16059L16.6928 9.83031M41.798 26.2566C42.1176 23.7224 41.8951 21.1491 41.1453 18.7076C40.3955 16.2662 39.1356 14.0126 37.4492 12.0966C35.7629 10.1805 33.6888 8.64594 31.3647 7.59479C29.0406 6.54364 26.5198 6 23.9698 6M44 25.1383L41.6725 26.9616L39.8572 24.7717" stroke="#7E796E" stroke-width="2" stroke-linecap="round" stroke-linejoin="round"/>
<path d="M30.0649 18.646C30.183 18.1993 30.817 18.1993 30.9351 18.646L31.1243 19.3619C31.1567 19.4846 31.2396 19.588 31.3523 19.6464L32.2287 20.1004C32.5527 20.2683 32.5527 20.7317 32.2287 20.8996L31.3523 21.3536C31.2396 21.412 31.1567 21.5154 31.1243 21.6381L30.9351 22.354C30.817 22.8007 30.183 22.8007 30.0649 22.354L29.8757 21.6381C29.8433 21.5154 29.7604 21.412 29.6477 21.3536L28.7713 20.8996C28.4473 20.7317 28.4473 20.2683 28.7713 20.1004L29.6477 19.6464C29.7604 19.588 29.8433 19.4846 29.8757 19.3619L30.0649 18.646Z" fill="#7E796E"/>
<path d="M32.7123 21.9717C32.7971 21.6853 33.2029 21.6853 33.2877 21.9717L33.5017 22.6946C33.5261 22.7774 33.5851 22.8455 33.6634 22.8818L34.4113 23.2277C34.6434 23.3351 34.6434 23.6649 34.4113 23.7723L33.6634 24.1182C33.5851 24.1545 33.5261 24.2226 33.5017 24.3054L33.2877 25.0283C33.2029 25.3147 32.7971 25.3147 32.7123 25.0283L32.4983 24.3054C32.4739 24.2226 32.4149 24.1545 32.3366 24.1182L31.5887 23.7723C31.3566 23.6649 31.3566 23.3351 31.5887 23.2277L32.3366 22.8818C32.4149 22.8455 32.4739 22.7774 32.4983 22.6946L32.7123 21.9717Z" fill="#7E796E"/>
</svg>
