<svg width="48" height="48" viewBox="0 0 48 48" fill="none" xmlns="http://www.w3.org/2000/svg">
<path d="M6 7C6 6.44772 6.44772 6 7 6H41C41.5523 6 42 6.44772 42 7V16C42 17.1046 41.1046 18 40 18H8C6.89543 18 6 17.1046 6 16V7Z" fill="#E4DDCD"/>
<path d="M6 22C6 20.8954 6.89543 20 8 20H40C41.1046 20 42 20.8954 42 22V41C42 41.5523 41.5523 42 41 42H7C6.44772 42 6 41.5523 6 41V22Z" fill="#E4DDCD"/>
<path fill-rule="evenodd" clip-rule="evenodd" d="M19.6941 24.442C19.4611 24.4932 19.2541 24.626 19.1105 24.8164L16 28.9383L18.3827 31.0057L19.2516 29.8326L19.2516 37.3217H29.0298L29.0277 29.8343L29.6162 30.9678L31.9989 28.9004L29.2557 24.8573C29.1095 24.6419 28.8851 24.4919 28.6302 24.4394L25.7611 23.8477C25.7611 24.5918 25.0409 25.1951 24.1407 25.1951C23.2405 25.1951 22.3996 24.5918 22.3996 23.8477L19.6941 24.442Z" fill="#7E796E"/>
</svg>
