<svg width="40" height="40" viewBox="0 0 40 40" fill="none" xmlns="http://www.w3.org/2000/svg">
<path fill-rule="evenodd" clip-rule="evenodd" d="M12.3117 12.1658C12.0758 12.2197 11.8674 12.3573 11.7251 12.5531L9.16797 16.0738L11.1537 17.8639L11.8778 16.8481L11.8778 23.3327H20.0269L20.0252 16.8496L20.5156 17.8311L22.5013 16.041L20.2503 12.5941C20.1061 12.3733 19.8805 12.2183 19.6226 12.1631L17.3028 11.666C17.3028 12.3104 16.7026 12.8327 15.9524 12.8327C15.2021 12.8327 14.5013 12.3104 14.5013 11.666L12.3117 12.1658Z" fill="#D5CDBA"/>
<path fill-rule="evenodd" clip-rule="evenodd" d="M19.325 16.4153C19.0878 16.4703 18.8789 16.6099 18.7374 16.8079L15.832 20.8715L18.066 22.9173L18.8806 21.7564L18.8806 29.1673H28.0483L28.0464 21.7581L28.5981 22.8798L30.832 20.834L28.2703 16.849C28.1269 16.6259 27.9009 16.469 27.6418 16.4126L24.9837 15.834C24.9837 16.5704 24.3085 17.1673 23.4645 17.1673C22.6205 17.1673 21.832 16.5704 21.832 15.834L19.325 16.4153Z" fill="#E4DDCD"/>
<path d="M10.9212 31.9479C12.6138 33.2348 14.5605 34.1462 16.6319 34.6214C18.7033 35.0966 20.8519 35.1248 22.935 34.7041C25.018 34.2833 26.9879 33.4233 28.7136 32.1812C30.4392 30.939 31.8812 29.3432 32.9437 27.4998M10.8093 34.0057L10.4655 31.5634L12.7997 31.1636M14.1719 6.17019C12.213 6.99506 10.4517 8.22812 9.00516 9.78742C7.55862 11.3467 6.45996 13.1966 5.78217 15.214C5.10438 17.2314 4.86299 19.3703 5.07404 21.4884C5.2851 23.6065 5.94376 25.6553 7.00626 27.4987M12.4487 5.04427L14.7321 5.96716L13.9107 8.19192M34.8317 21.8805C35.098 19.7686 34.9126 17.6242 34.2878 15.5897C33.6629 13.5552 32.613 11.6772 31.2077 10.0805C29.8024 8.48377 28.074 7.20495 26.1372 6.32899C24.2005 5.45303 22.0998 5 19.9748 5M36.6667 20.9486L34.7271 22.468L33.2144 20.6431" stroke="#7E796E" stroke-width="1.7" stroke-linecap="round" stroke-linejoin="round"/>
</svg>
