<svg width="48" height="48" viewBox="0 0 48 48" fill="none" xmlns="http://www.w3.org/2000/svg">
<rect x="5" y="11" width="38" height="26" rx="1" fill="#E4DDCD"/>
<path d="M20.1198 20.0073C21.3149 20.8315 22.2039 21.993 22.6594 23.3253C23.1149 24.6576 23.1135 26.0923 22.6554 27.4237C22.1972 28.7552 21.3059 29.9151 20.1092 30.7372C18.9124 31.5592 17.4717 32.0013 15.9934 32C14.5152 31.9987 13.0753 31.5541 11.8802 30.7299C10.6851 29.9056 9.79606 28.7442 9.34058 27.4119C8.88509 26.0796 8.88651 24.6449 9.34464 23.3134C9.80276 21.982 10.6941 20.8221 11.8908 20" stroke="#7E796E" stroke-width="2" stroke-linecap="round"/>
<line x1="16" y1="17" x2="16" y2="23" stroke="#7E796E" stroke-width="2" stroke-linecap="round"/>
<rect x="27" y="18" width="12" height="2" rx="1" fill="#7E796E"/>
<rect x="27" y="23" width="12" height="2" rx="1" fill="#7E796E"/>
<rect x="27" y="28" width="12" height="2" rx="1" fill="#7E796E"/>
</svg>
