<svg width="48" height="48" viewBox="0 0 48 48" fill="none" xmlns="http://www.w3.org/2000/svg">
<path d="M5 10C5 9.44772 5.44772 9 6 9H42C42.5523 9 43 9.44772 43 10V32C43 32.5523 42.5523 33 42 33H6C5.44772 33 5 32.5523 5 32V10Z" fill="#E4DDCD"/>
<path d="M21.2869 32.4779C20.429 33.0638 20 34.0334 20 35.3868C20 37.4168 22.4954 40.8868 24.7457 40.8868C26.9959 40.8868 28.3009 40.8868 30.5034 40.8868C32.5796 40.8868 33.5 39.154 33.5 37.6094C33.5 35.5327 33.5 33.1861 33.5 31.1094C33.5 30.2129 32.8965 29.6119 32 29.6094C31.1067 29.6069 30.8021 30.28 30.7996 31.1733V31.1778L25 30.5007" fill="#7E796E"/>
<path d="M21.9844 33.6085V23.6086C21.9844 22.7203 22.7046 22.0001 23.593 22.0001C24.4814 22.0001 25.2015 22.7203 25.2015 23.6086V30.7098" fill="#7E796E"/>
<path d="M25.2031 30.889V28.7927C25.2031 28.0184 25.8309 27.3906 26.6052 27.3906C27.3796 27.3906 28.0073 28.0184 28.0073 28.7927V31.1025" fill="#7E796E"/>
<path d="M27.9922 31.2181V29.7927C27.9922 29.0184 28.6199 28.3906 29.3943 28.3906C30.1686 28.3906 30.7964 29.0184 30.7964 29.7927V31.3906" fill="#7E796E"/>
<path d="M19.2591 23.2251C18.7683 22.5244 18.4654 21.7095 18.3795 20.8584C18.2936 20.0072 18.4276 19.1482 18.7686 18.3636C19.1095 17.579 19.6461 16.895 20.327 16.377C21.0078 15.859 21.8102 15.5244 22.6574 15.4052C23.5045 15.286 24.3681 15.3861 25.1655 15.696C25.9629 16.0059 26.6674 16.5152 27.2117 17.1752C27.756 17.8352 28.1219 18.6238 28.2743 19.4657C28.4267 20.3075 28.3605 21.1743 28.0822 21.9833" stroke="#7E796E" stroke-width="2" stroke-linecap="round"/>
</svg>
