<svg width="48" height="48" viewBox="0 0 48 48" fill="none" xmlns="http://www.w3.org/2000/svg">
<path d="M34.87 10.6V8.03C34.87 7.46 34.41 7 33.84 7H14.96C14.39 7 13.93 7.46 13.93 8.03V10.6L11.21 14.22C11.08 14.4 11 14.62 11 14.84V40.64C11 41.21 11.46 41.67 12.03 41.67H36.77C37.34 41.67 37.8 41.21 37.8 40.64V14.84C37.8 14.62 37.73 14.4 37.59 14.22L34.87 10.6Z" fill="#E4DDCD"/>
<path d="M26.9613 8.11719H32.4113C32.7913 8.11719 33.0913 8.42719 33.0913 8.79719C33.0913 9.17719 32.7812 9.47719 32.4113 9.47719H26.9613C26.5813 9.47719 26.2812 9.16719 26.2812 8.79719C26.2812 8.41719 26.5913 8.11719 26.9613 8.11719Z" fill="#7E796E"/>
<path d="M24.4011 9.82562C24.9699 9.82562 25.4311 9.36448 25.4311 8.79562C25.4311 8.22677 24.9699 7.76562 24.4011 7.76562C23.8322 7.76562 23.3711 8.22677 23.3711 8.79562C23.3711 9.36448 23.8322 9.82562 24.4011 9.82562Z" fill="#7E796E"/>
<path d="M35.7814 14.3681H13.0214C12.6814 14.3681 12.4814 13.9781 12.6914 13.7081L14.5614 11.2281C14.7514 10.9781 15.0414 10.8281 15.3614 10.8281H33.4414C33.7514 10.8281 34.0514 10.9781 34.2414 11.2281L36.1114 13.7081C36.3214 13.9781 36.1214 14.3681 35.7814 14.3681Z" fill="#7E796E"/>
</svg>
