<svg width="40" height="40" viewBox="0 0 40 40" fill="none" xmlns="http://www.w3.org/2000/svg">
<path fill-rule="evenodd" clip-rule="evenodd" d="M11.1262 7.92005C10.8932 7.97122 10.6862 8.10398 10.5425 8.29437L4.16797 16.741L8.88408 20.8327L10.6039 18.5108L10.6039 33.3327H29.9579L29.9539 18.5142L31.1185 20.7576L35.8346 16.666L30.1818 8.33526C30.0356 8.11986 29.8112 7.96994 29.5563 7.91736L23.4881 6.66602C23.4881 8.13878 22.0628 9.33268 20.2809 9.33268C18.4991 9.33268 16.8346 8.13878 16.8346 6.66602L11.1262 7.92005Z" fill="#E4DDCD"/>
<circle cx="29.5846" cy="29.5827" r="5.41667" fill="#D5CDBA"/>
<path d="M29.5883 29.4923C29.2883 29.4923 29.0494 29.5895 28.8716 29.784C28.6938 29.9729 28.6049 30.234 28.6049 30.5673C28.6049 30.9173 28.6938 31.1923 28.8716 31.3923C29.0549 31.5868 29.2938 31.684 29.5883 31.684C29.8994 31.684 30.1411 31.5895 30.3133 31.4007C30.4855 31.2062 30.5716 30.9284 30.5716 30.5673C30.5716 30.2229 30.4827 29.959 30.3049 29.7757C30.1327 29.5868 29.8938 29.4923 29.5883 29.4923ZM29.5883 32.709C28.8383 32.709 28.2577 32.4812 27.8466 32.0257C27.4411 31.5645 27.2383 30.8757 27.2383 29.959C27.2383 28.7923 27.4744 27.9173 27.9466 27.334C28.4188 26.7507 29.0911 26.459 29.9633 26.459C30.2688 26.459 30.5522 26.4812 30.8133 26.5257C30.9466 26.5479 31.0549 26.6145 31.1383 26.7257C31.2272 26.8368 31.2716 26.9618 31.2716 27.1007V27.2507C31.2716 27.3673 31.2244 27.459 31.1299 27.5257C31.0411 27.5923 30.9383 27.6118 30.8216 27.584C30.5272 27.5173 30.2577 27.484 30.0133 27.484C29.6244 27.484 29.3077 27.6062 29.0633 27.8507C28.8244 28.0895 28.6772 28.4368 28.6216 28.8923C28.6216 28.8979 28.6244 28.9007 28.6299 28.9007H28.6383C28.9494 28.6618 29.3633 28.5423 29.8799 28.5423C30.5355 28.5423 31.0411 28.7145 31.3966 29.059C31.7522 29.4034 31.9299 29.8979 31.9299 30.5423C31.9299 31.2201 31.7216 31.7507 31.3049 32.134C30.8883 32.5173 30.3161 32.709 29.5883 32.709Z" fill="#504323"/>
<path d="M14.9987 11.0366C14.9987 12.7653 13.5063 14.1667 11.6654 14.1667C9.82442 14.1667 8.33203 12.7653 8.33203 11.0366C8.33203 8.69678 11.6654 5 11.6654 5C11.6654 5 14.9987 8.69678 14.9987 11.0366Z" fill="#7E796E"/>
</svg>
