<svg width="48" height="48" viewBox="0 0 48 48" fill="none" xmlns="http://www.w3.org/2000/svg">
<path fill-rule="evenodd" clip-rule="evenodd" d="M16.7783 14.0202C16.545 14.0717 16.3378 14.205 16.1943 14.3961L11 21.3119L14.8722 24.6875L16.2842 22.7719L16.2842 35H32.1749L32.1716 22.7748L33.1278 24.6256L37 21.25L32.3992 14.437C32.2532 14.2209 32.0287 14.0704 31.7733 14.0175L26.8629 13C26.8629 14.215 25.6926 15.2 24.2296 15.2C22.7666 15.2 21.4 14.215 21.4 13L16.7783 14.0202Z" fill="#E4DDCD"/>
<path d="M13.1055 38.3374C15.1366 39.8818 17.4726 40.9754 19.9583 41.5457C22.4439 42.1159 25.0223 42.1498 27.522 41.6449C30.0216 41.14 32.3854 40.108 34.4563 38.6174C36.5271 37.1268 38.2575 35.2119 39.5325 32.9997M12.9712 40.8069L12.5586 37.8761L15.3596 37.3963M17.0063 7.40422C14.6556 8.39407 12.542 9.87374 10.8062 11.7449C9.07035 13.6161 7.75195 15.8359 6.9386 18.2568C6.12525 20.6777 5.83559 23.2443 6.08885 25.786C6.34212 28.3278 7.13252 30.7864 8.40752 32.9985M14.9385 6.05313L17.6785 7.16059L16.6928 9.83031M41.798 26.2566C42.1176 23.7224 41.8951 21.1491 41.1453 18.7076C40.3955 16.2662 39.1356 14.0126 37.4492 12.0966C35.7629 10.1805 33.6888 8.64594 31.3647 7.59479C29.0406 6.54364 26.5198 6 23.9698 6M44 25.1383L41.6725 26.9616L39.8572 24.7717" stroke="#7E796E" stroke-width="2" stroke-linecap="round" stroke-linejoin="round"/>
<path d="M26.4415 24.7966C26.3035 24.7966 26.1835 24.7456 26.0815 24.6436C25.9855 24.5416 25.9375 24.4216 25.9375 24.2836V18.7396C25.9375 18.6016 25.9855 18.4816 26.0815 18.3796C26.1835 18.2776 26.3035 18.2266 26.4415 18.2266H27.1075C27.2455 18.2266 27.3625 18.2776 27.4585 18.3796C27.5605 18.4816 27.6115 18.6016 27.6115 18.7396V24.2836C27.6115 24.4216 27.5605 24.5416 27.4585 24.6436C27.3625 24.7456 27.2455 24.7966 27.1075 24.7966H26.4415Z" fill="#504323"/>
<path d="M22.4374 19.5586L21.7804 22.1416C21.7744 22.1596 21.7774 22.1776 21.7894 22.1956C21.8074 22.2076 21.8254 22.2136 21.8434 22.2136H23.0494C23.0674 22.2136 23.0824 22.2076 23.0944 22.1956C23.1124 22.1776 23.1184 22.1596 23.1124 22.1416L22.4554 19.5586C22.4554 19.5526 22.4524 19.5496 22.4464 19.5496C22.4404 19.5496 22.4374 19.5526 22.4374 19.5586ZM20.0344 24.7966C19.9084 24.7966 19.8064 24.7456 19.7284 24.6436C19.6564 24.5416 19.6414 24.4306 19.6834 24.3106L21.5014 18.7126C21.5494 18.5686 21.6334 18.4516 21.7534 18.3616C21.8794 18.2716 22.0174 18.2266 22.1674 18.2266H22.7614C22.9174 18.2266 23.0584 18.2716 23.1844 18.3616C23.3104 18.4516 23.3944 18.5686 23.4364 18.7126L25.2454 24.3106C25.2874 24.4306 25.2694 24.5416 25.1914 24.6436C25.1194 24.7456 25.0204 24.7966 24.8944 24.7966H24.2914C24.1414 24.7966 24.0064 24.7516 23.8864 24.6616C23.7664 24.5656 23.6884 24.4456 23.6524 24.3016L23.4364 23.4466C23.4304 23.3986 23.4004 23.3746 23.3464 23.3746H21.5464C21.4984 23.3746 21.4684 23.3986 21.4564 23.4466L21.2404 24.3016C21.2044 24.4456 21.1264 24.5656 21.0064 24.6616C20.8864 24.7516 20.7514 24.7966 20.6014 24.7966H20.0344Z" fill="#504323"/>
<path d="M35 31.2683C35 32.777 33.6569 34 32 34C30.3431 34 29 32.777 29 31.2683C29 29.2263 32 26 32 26C32 26 35 29.2263 35 31.2683Z" fill="#7E796E"/>
</svg>
