<svg width="48" height="48" viewBox="0 0 48 48" fill="none" xmlns="http://www.w3.org/2000/svg">
<circle cx="24" cy="24" r="18" stroke="#7E796E" stroke-width="2"/>
<circle cx="24" cy="24" r="14" fill="#E4DDCD"/>
<line x1="1" y1="-1" x2="7.06229" y2="-1" transform="matrix(0.115123 -0.993351 -0.992283 -0.123992 21 19.0078)" stroke="#7E796E" stroke-width="2" stroke-linecap="round" stroke-dasharray="1 3"/>
<line x1="1" y1="-1" x2="7.06229" y2="-1" transform="matrix(-0.115123 -0.993351 0.992283 -0.123992 26.9297 19.0078)" stroke="#7E796E" stroke-width="2" stroke-linecap="round" stroke-dasharray="1 3"/>
<line x1="1" y1="-1" x2="7.06229" y2="-1" transform="matrix(0.907578 -0.419884 -0.41176 -0.911292 28 20.3828)" stroke="#7E796E" stroke-width="2" stroke-linecap="round" stroke-dasharray="1 3"/>
<line x1="1" y1="-1" x2="7.06229" y2="-1" transform="matrix(-0.907578 -0.419884 0.41176 -0.911292 20.4375 20.3828)" stroke="#7E796E" stroke-width="2" stroke-linecap="round" stroke-dasharray="1 3"/>
<line x1="1" y1="-1" x2="7.06229" y2="-1" transform="matrix(-0.334637 0.942347 -0.945299 -0.326205 17.6953 27)" stroke="#7E796E" stroke-width="2" stroke-linecap="round" stroke-dasharray="1 3"/>
<line x1="1" y1="-1" x2="7.06229" y2="-1" transform="matrix(0.334637 0.942347 0.945299 -0.326205 30.3203 27)" stroke="#7E796E" stroke-width="2" stroke-linecap="round" stroke-dasharray="1 3"/>
<line x1="1" y1="-1" x2="7.06229" y2="-1" transform="matrix(0.787487 -0.616332 0.623342 0.781949 31.0938 25.4453)" stroke="#7E796E" stroke-width="2" stroke-linecap="round" stroke-dasharray="1 3"/>
<line x1="1" y1="-1" x2="7.06229" y2="-1" transform="matrix(-0.787487 -0.616332 -0.623342 0.781949 17.3516 25.4453)" stroke="#7E796E" stroke-width="2" stroke-linecap="round" stroke-dasharray="1 3"/>
<line x1="1" y1="-1" x2="7.06229" y2="-1" transform="matrix(-0.541296 0.840832 0.835963 0.548786 23.0156 29.6172)" stroke="#7E796E" stroke-width="2" stroke-linecap="round" stroke-dasharray="1 3"/>
<line x1="1" y1="-1" x2="7.06229" y2="-1" transform="matrix(0.541296 0.840832 -0.835963 0.548786 25 29.6172)" stroke="#7E796E" stroke-width="2" stroke-linecap="round" stroke-dasharray="1 3"/>
</svg>
