<svg width="48" height="48" viewBox="0 0 48 48" fill="none" xmlns="http://www.w3.org/2000/svg">
<path d="M5 13C5 12.4477 5.44772 12 6 12H42C42.5523 12 43 12.4477 43 13V35C43 35.5523 42.5523 36 42 36H6C5.44772 36 5 35.5523 5 35V13Z" fill="#E4DDCD"/>
<path d="M13 28L9 32M9 32L13 32M9 32L9 28" stroke="#7E796E" stroke-width="2" stroke-linecap="round" stroke-linejoin="round"/>
<path d="M35 20L39 16M39 16L35 16M39 16L39 20" stroke="#7E796E" stroke-width="2" stroke-linecap="round" stroke-linejoin="round"/>
<path d="M28.9532 33.767C28.3177 34.2014 28 34.9201 28 35.9234C28 37.4282 29.8485 40.0004 31.5153 40.0004C33.1821 40.0004 34.1488 40.0004 35.7803 40.0004C37.3182 40.0004 38 38.7159 38 37.5709C38 36.0315 38 34.292 38 32.7526C38 32.088 37.553 31.6425 36.8889 31.6406C36.2272 31.6388 36.0016 32.1377 35.9997 32.7999V32.8033L31.7037 32.3014" fill="#7E796E"/>
<path d="M29.4688 34.6052V27.1925C29.4688 26.5339 30.0022 26.0001 30.6603 26.0001C31.3184 26.0001 31.8518 26.5339 31.8518 27.1925V32.4564" fill="#7E796E"/>
<path d="M31.8516 32.5855V31.0315C31.8516 30.4575 32.3166 29.9922 32.8902 29.9922C33.4637 29.9922 33.9287 30.4575 33.9287 31.0315V32.7438" fill="#7E796E"/>
<path d="M33.9297 33.2399V31.8311C33.9297 31.0658 34.4272 30.4453 35.0408 30.4453C35.6544 30.4453 36.1519 31.0658 36.1519 31.8311V33.4105" fill="#7E796E"/>
</svg>
