<svg width="48" height="48" viewBox="0 0 48 48" fill="none" xmlns="http://www.w3.org/2000/svg">
<circle cx="24" cy="24" r="13" fill="#E4DDCD"/>
<path d="M24 19V24H29" stroke="#7E796E" stroke-width="2" stroke-linecap="round" stroke-linejoin="round"/>
<path d="M43 23L41 25L39 23" stroke="#7E796E" stroke-width="2" stroke-linecap="round" stroke-linejoin="round"/>
<path d="M41 24C41 14.6112 33.3888 7 24 7C14.6112 7 7 14.6112 7 24C7 33.3888 14.6112 41 24 41C27.4758 41 30.7079 39.9569 33.4004 38.1667" stroke="#7E796E" stroke-width="2" stroke-linecap="round" stroke-linejoin="round"/>
<path d="M40.1053 29.48V34.02C40.1053 34.08 40.1353 34.1167 40.1953 34.13C40.3286 34.1567 40.4886 34.17 40.6753 34.17C41.3486 34.17 41.8453 33.9733 42.1653 33.58C42.492 33.1867 42.6553 32.5433 42.6553 31.65C42.6553 30.85 42.492 30.2633 42.1653 29.89C41.8386 29.5167 41.342 29.33 40.6753 29.33C40.4886 29.33 40.3286 29.3433 40.1953 29.37C40.1353 29.3833 40.1053 29.42 40.1053 29.48ZM39.0053 35.42C38.8453 35.4067 38.712 35.34 38.6053 35.22C38.4986 35.0933 38.4453 34.9467 38.4453 34.78V28.72C38.4453 28.5533 38.4986 28.41 38.6053 28.29C38.712 28.1633 38.8453 28.0933 39.0053 28.08C39.5253 28.0267 40.0386 28 40.5453 28C41.7386 28 42.6586 28.3167 43.3053 28.95C43.952 29.5833 44.2753 30.4833 44.2753 31.65C44.2753 32.9167 43.952 33.8767 43.3053 34.53C42.6586 35.1767 41.7386 35.5 40.5453 35.5C40.0386 35.5 39.5253 35.4733 39.0053 35.42Z" fill="#504323"/>
<path d="M32.2575 35.3996C32.1042 35.3996 31.9708 35.3429 31.8575 35.2296C31.7442 35.1163 31.6875 34.9829 31.6875 34.8296V28.6696C31.6875 28.5163 31.7442 28.3829 31.8575 28.2696C31.9708 28.1563 32.1042 28.0996 32.2575 28.0996H32.7475C33.1275 28.0996 33.4042 28.2663 33.5775 28.5996L35.6775 32.5696C35.6775 32.5763 35.6808 32.5796 35.6875 32.5796C35.6942 32.5796 35.6975 32.5763 35.6975 32.5696V28.6696C35.6975 28.5163 35.7542 28.3829 35.8675 28.2696C35.9808 28.1563 36.1142 28.0996 36.2675 28.0996H36.7575C36.9108 28.0996 37.0442 28.1563 37.1575 28.2696C37.2708 28.3829 37.3275 28.5163 37.3275 28.6696V34.8296C37.3275 34.9829 37.2708 35.1163 37.1575 35.2296C37.0442 35.3429 36.9108 35.3996 36.7575 35.3996H36.2675C35.8875 35.3996 35.6108 35.2329 35.4375 34.8996L33.3375 30.9296C33.3375 30.9229 33.3342 30.9196 33.3275 30.9196C33.3208 30.9196 33.3175 30.9229 33.3175 30.9296V34.8296C33.3175 34.9829 33.2608 35.1163 33.1475 35.2296C33.0342 35.3429 32.9008 35.3996 32.7475 35.3996H32.2575Z" fill="#504323"/>
<path d="M26.56 35.3996C26.4067 35.3996 26.2733 35.3429 26.16 35.2296C26.0533 35.1163 26 34.9829 26 34.8296V28.6696C26 28.5163 26.0533 28.3829 26.16 28.2696C26.2733 28.1563 26.4067 28.0996 26.56 28.0996H30.1C30.2533 28.0996 30.3833 28.1563 30.49 28.2696C30.6033 28.3829 30.66 28.5163 30.66 28.6696V28.8996C30.66 29.0529 30.6033 29.1863 30.49 29.2996C30.3833 29.4129 30.2533 29.4696 30.1 29.4696H27.78C27.7267 29.4696 27.7 29.4963 27.7 29.5496V30.8696C27.7 30.9296 27.7267 30.9596 27.78 30.9596H29.9C30.0533 30.9596 30.1833 31.0163 30.29 31.1296C30.4033 31.2429 30.46 31.3763 30.46 31.5296V31.6796C30.46 31.8329 30.4033 31.9663 30.29 32.0796C30.1833 32.1929 30.0533 32.2496 29.9 32.2496H27.78C27.7267 32.2496 27.7 32.2763 27.7 32.3296V33.9496C27.7 34.0029 27.7267 34.0296 27.78 34.0296H30.1C30.2533 34.0296 30.3833 34.0863 30.49 34.1996C30.6033 34.3129 30.66 34.4463 30.66 34.5996V34.8296C30.66 34.9829 30.6033 35.1163 30.49 35.2296C30.3833 35.3429 30.2533 35.3996 30.1 35.3996H26.56Z" fill="#504323"/>
</svg>
