<svg width="48" height="48" viewBox="0 0 48 48" fill="none" xmlns="http://www.w3.org/2000/svg">
<circle cx="24" cy="26" r="13" fill="#E4DDCD"/>
<path d="M24 21V26H29" stroke="#7E796E" stroke-width="2" stroke-linecap="round" stroke-linejoin="round"/>
<path d="M24 42C32.8366 42 40 34.8366 40 26C40 17.1634 32.8366 10 24 10C15.1634 10 8 17.1634 8 26C8 27.6378 8.24607 29.218 8.70324 30.7059" stroke="#7E796E" stroke-width="2" stroke-linecap="round"/>
<path d="M27 5C27.5523 5 28 5.44772 28 6C28 6.55228 27.5523 7 27 7H25V10H23V7H21C20.4477 7 20 6.55228 20 6C20 5.44772 20.4477 5 21 5H27Z" fill="#7E796E"/>
<path d="M20.1811 40.49C19.9818 40.49 19.8085 40.4163 19.6611 40.269C19.5225 40.1217 19.4531 39.9483 19.4531 39.749V31.741C19.4531 31.5417 19.5225 31.3683 19.6611 31.221C19.8085 31.0737 19.9818 31 20.1811 31H21.1431C21.3425 31 21.5115 31.0737 21.6501 31.221C21.7975 31.3683 21.8711 31.5417 21.8711 31.741V39.749C21.8711 39.9483 21.7975 40.1217 21.6501 40.269C21.5115 40.4163 21.3425 40.49 21.1431 40.49H20.1811Z" fill="#504323"/>
<path d="M14.0115 32.924L13.0625 36.655C13.0539 36.681 13.0582 36.707 13.0755 36.733C13.1015 36.7503 13.1275 36.759 13.1535 36.759H14.8955C14.9215 36.759 14.9432 36.7503 14.9605 36.733C14.9865 36.707 14.9952 36.681 14.9865 36.655L14.0375 32.924C14.0375 32.9153 14.0332 32.911 14.0245 32.911C14.0159 32.911 14.0115 32.9153 14.0115 32.924ZM10.5405 40.49C10.3585 40.49 10.2112 40.4163 10.0985 40.269C9.99453 40.1217 9.97286 39.9613 10.0335 39.788L12.6595 31.702C12.7289 31.494 12.8502 31.325 13.0235 31.195C13.2055 31.065 13.4049 31 13.6215 31H14.4795C14.7049 31 14.9085 31.065 15.0905 31.195C15.2725 31.325 15.3939 31.494 15.4545 31.702L18.0675 39.788C18.1282 39.9613 18.1022 40.1217 17.9895 40.269C17.8855 40.4163 17.7425 40.49 17.5605 40.49H16.6895C16.4729 40.49 16.2779 40.425 16.1045 40.295C15.9312 40.1563 15.8185 39.983 15.7665 39.775L15.4545 38.54C15.4459 38.4707 15.4025 38.436 15.3245 38.436H12.7245C12.6552 38.436 12.6119 38.4707 12.5945 38.54L12.2825 39.775C12.2305 39.983 12.1179 40.1563 11.9445 40.295C11.7712 40.425 11.5762 40.49 11.3595 40.49H10.5405Z" fill="#504323"/>
</svg>
