<svg width="48" height="48" viewBox="0 0 48 48" fill="none" xmlns="http://www.w3.org/2000/svg">
<path fill-rule="evenodd" clip-rule="evenodd" d="M13.2777 9.5207C13.0447 9.57187 12.8377 9.70463 12.694 9.89502L5 20.09L10.6593 25L12.7231 22.2137L12.7231 40H35.948L35.9431 22.2178L37.3407 24.91L43 20L36.171 9.93591C36.0248 9.72051 35.8004 9.57059 35.5455 9.51801L28.1842 8C28.1842 9.76732 26.4737 11.2 24.3355 11.2C22.1974 11.2 20.2 9.76732 20.2 8L13.2777 9.5207Z" fill="#E4DDCD"/>
<circle cx="35.5" cy="35.5" r="6.5" fill="#D5CDBA"/>
<path d="M35.5075 35.39C35.1475 35.39 34.8608 35.5067 34.6475 35.74C34.4342 35.9667 34.3275 36.28 34.3275 36.68C34.3275 37.1 34.4342 37.43 34.6475 37.67C34.8675 37.9033 35.1542 38.02 35.5075 38.02C35.8808 38.02 36.1708 37.9067 36.3775 37.68C36.5842 37.4467 36.6875 37.1133 36.6875 36.68C36.6875 36.2667 36.5808 35.95 36.3675 35.73C36.1608 35.5033 35.8742 35.39 35.5075 35.39ZM35.5075 39.25C34.6075 39.25 33.9108 38.9767 33.4175 38.43C32.9308 37.8767 32.6875 37.05 32.6875 35.95C32.6875 34.55 32.9708 33.5 33.5375 32.8C34.1042 32.1 34.9108 31.75 35.9575 31.75C36.3242 31.75 36.6642 31.7767 36.9775 31.83C37.1375 31.8567 37.2675 31.9367 37.3675 32.07C37.4742 32.2033 37.5275 32.3533 37.5275 32.52V32.7C37.5275 32.84 37.4708 32.95 37.3575 33.03C37.2508 33.11 37.1275 33.1333 36.9875 33.1C36.6342 33.02 36.3108 32.98 36.0175 32.98C35.5508 32.98 35.1708 33.1267 34.8775 33.42C34.5908 33.7067 34.4142 34.1233 34.3475 34.67C34.3475 34.6767 34.3508 34.68 34.3575 34.68H34.3675C34.7408 34.3933 35.2375 34.25 35.8575 34.25C36.6442 34.25 37.2508 34.4567 37.6775 34.87C38.1042 35.2833 38.3175 35.8767 38.3175 36.65C38.3175 37.4633 38.0675 38.1 37.5675 38.56C37.0675 39.02 36.3808 39.25 35.5075 39.25Z" fill="#504323"/>
<path d="M17 9.18182L16.3123 8.61917C15.2661 7.76318 13.7049 8.02838 13 9.18182C12.2951 10.3353 10.7339 10.6005 9.68768 9.74446L9 9.18182" stroke="#7E796E" stroke-width="2" stroke-linecap="round" stroke-linejoin="round"/>
<path d="M17 14.049L16.3123 13.4864C15.2661 12.6304 13.7049 12.8956 13 14.049C12.2951 15.2024 10.7339 15.4676 9.68768 14.6117L9 14.049" stroke="#7E796E" stroke-width="2" stroke-linecap="round" stroke-linejoin="round"/>
<path d="M27.4676 28.03C27.2989 28.03 27.1522 27.9677 27.0276 27.843C26.9102 27.7183 26.8516 27.5717 26.8516 27.403V20.627C26.8516 20.4583 26.9102 20.3117 27.0276 20.187C27.1522 20.0623 27.2989 20 27.4676 20H28.2816C28.4502 20 28.5932 20.0623 28.7106 20.187C28.8352 20.3117 28.8976 20.4583 28.8976 20.627V27.403C28.8976 27.5717 28.8352 27.7183 28.7106 27.843C28.5932 27.9677 28.4502 28.03 28.2816 28.03H27.4676Z" fill="#504323"/>
<path d="M22.3944 21.628L21.5914 24.785C21.584 24.807 21.5877 24.829 21.6024 24.851C21.6244 24.8657 21.6464 24.873 21.6684 24.873H23.1424C23.1644 24.873 23.1827 24.8657 23.1974 24.851C23.2194 24.829 23.2267 24.807 23.2194 24.785L22.4164 21.628C22.4164 21.6207 22.4127 21.617 22.4054 21.617C22.398 21.617 22.3944 21.6207 22.3944 21.628ZM19.4574 28.03C19.3034 28.03 19.1787 27.9677 19.0834 27.843C18.9954 27.7183 18.977 27.5827 19.0284 27.436L21.2504 20.594C21.309 20.418 21.4117 20.275 21.5584 20.165C21.7124 20.055 21.881 20 22.0644 20H22.7904C22.981 20 23.1534 20.055 23.3074 20.165C23.4614 20.275 23.564 20.418 23.6154 20.594L25.8264 27.436C25.8777 27.5827 25.8557 27.7183 25.7604 27.843C25.6724 27.9677 25.5514 28.03 25.3974 28.03H24.6604C24.477 28.03 24.312 27.975 24.1654 27.865C24.0187 27.7477 23.9234 27.601 23.8794 27.425L23.6154 26.38C23.608 26.3213 23.5714 26.292 23.5054 26.292H21.3054C21.2467 26.292 21.21 26.3213 21.1954 26.38L20.9314 27.425C20.8874 27.601 20.792 27.7477 20.6454 27.865C20.4987 27.975 20.3337 28.03 20.1504 28.03H19.4574Z" fill="#504323"/>
</svg>
