<svg width="48" height="48" viewBox="0 0 48 48" fill="none" xmlns="http://www.w3.org/2000/svg">
<path d="M13.1055 38.3374C15.1366 39.8818 17.4726 40.9754 19.9583 41.5457C22.4439 42.1159 25.0223 42.1498 27.522 41.6449C30.0216 41.14 32.3854 40.108 34.4563 38.6174C36.5271 37.1268 38.2575 35.2119 39.5325 32.9997M12.9712 40.8069L12.5586 37.8761L15.3596 37.3963M17.0063 7.40422C14.6556 8.39407 12.542 9.87374 10.8062 11.7449C9.07035 13.6161 7.75195 15.8359 6.9386 18.2568C6.12525 20.6777 5.83559 23.2443 6.08885 25.786C6.34212 28.3278 7.13252 30.7864 8.40752 32.9985M14.9385 6.05313L17.6785 7.16059L16.6928 9.83031M41.798 26.2566C42.1176 23.7224 41.8951 21.1491 41.1453 18.7076C40.3955 16.2662 39.1356 14.0126 37.4492 12.0966C35.7629 10.1805 33.6888 8.64594 31.3647 7.59479C29.0406 6.54364 26.5198 6 23.9698 6M44 25.1383L41.6725 26.9616L39.8572 24.7717" stroke="#7E796E" stroke-width="2" stroke-linecap="round" stroke-linejoin="round"/>
<path fill-rule="evenodd" clip-rule="evenodd" d="M16.7749 13.9955C16.5436 14.0452 16.3374 14.1754 16.1931 14.3628L11 21.1045L14.8722 24.3958L16.2842 22.5281C16.1254 26.4924 15.6807 28.7569 14.4358 32.1595C14.2441 32.6834 14.5074 33.2693 15.0359 33.4482C19.9044 35.0966 24.026 35.3787 28.9388 34.5455C29.2727 34.4888 29.5531 34.2615 29.6806 33.9478C31.3804 29.766 31.9031 27.182 32.1716 22.5308L33.1278 24.3355L37 21.0441L32.4009 14.4036C32.2537 14.1912 32.0301 14.044 31.7768 13.9928L26.8629 13C26.8629 14.1847 25.6926 15.1451 24.2296 15.1451C22.7666 15.1451 21.4 14.1847 21.4 13L16.7749 13.9955Z" fill="#E4DDCD"/>
</svg>
