<svg width="48" height="48" viewBox="0 0 48 48" fill="none" xmlns="http://www.w3.org/2000/svg">
<path d="M4 12.1429C4 11.5143 4.45 11 5 11H43C43.55 11 44 11.5143 44 12.1429V41.8571C44 42.4857 43.55 43 43 43H5C4.45 43 4 42.4857 4 41.8571V12.1429Z" fill="#E4DDCD"/>
<path d="M10.8406 22.4195C12.8841 22.4195 14.5406 20.763 14.5406 18.7195C14.5406 16.6761 12.8841 15.0195 10.8406 15.0195C8.79717 15.0195 7.14062 16.6761 7.14062 18.7195C7.14062 20.763 8.79717 22.4195 10.8406 22.4195Z" fill="#7E796E"/>
<path d="M17.7016 20.3211C18.5852 20.3211 19.3016 19.6047 19.3016 18.7211C19.3016 17.8374 18.5852 17.1211 17.7016 17.1211C16.8179 17.1211 16.1016 17.8374 16.1016 18.7211C16.1016 19.6047 16.8179 20.3211 17.7016 20.3211Z" fill="#B6AD99"/>
<path d="M40.2794 15.3203H21.4394C21.119 15.3203 20.8594 15.58 20.8594 15.9003V21.5403C20.8594 21.8606 21.119 22.1203 21.4394 22.1203H40.2794C40.5997 22.1203 40.8594 21.8606 40.8594 21.5403V15.9003C40.8594 15.58 40.5997 15.3203 40.2794 15.3203Z" fill="#7E796E"/>
<path d="M10.4703 16.9992C10.5532 16.9992 10.6203 16.9321 10.6203 16.8492C10.6203 16.7664 10.5532 16.6992 10.4703 16.6992C10.3875 16.6992 10.3203 16.7664 10.3203 16.8492C10.3203 16.9321 10.3875 16.9992 10.4703 16.9992Z" fill="#EAE8E4"/>
<path d="M11.2203 16.9992C11.3032 16.9992 11.3703 16.9321 11.3703 16.8492C11.3703 16.7664 11.3032 16.6992 11.2203 16.6992C11.1375 16.6992 11.0703 16.7664 11.0703 16.8492C11.0703 16.9321 11.1375 16.9992 11.2203 16.9992Z" fill="#EAE8E4"/>
<path d="M11.9703 16.9992C12.0532 16.9992 12.1203 16.9321 12.1203 16.8492C12.1203 16.7664 12.0532 16.6992 11.9703 16.6992C11.8875 16.6992 11.8203 16.7664 11.8203 16.8492C11.8203 16.9321 11.8875 16.9992 11.9703 16.9992Z" fill="#EAE8E4"/>
<path d="M9.72031 16.9992C9.80315 16.9992 9.87031 16.9321 9.87031 16.8492C9.87031 16.7664 9.80315 16.6992 9.72031 16.6992C9.63747 16.6992 9.57031 16.7664 9.57031 16.8492C9.57031 16.9321 9.63747 16.9992 9.72031 16.9992Z" fill="#EAE8E4"/>
<g clip-path="url(#clip0_6753_77149)">
<path d="M12 27.5C24.1503 27.5 34 37.3497 34 49.5C34 61.6503 24.1503 71.5 12 71.5C-0.150264 71.5 -10 61.6503 -10 49.5C-10 37.3497 -0.150264 27.5 12 27.5Z" fill="#E4DDCD" stroke="#D5CDBA" stroke-width="2"/>
</g>
<defs>
<clipPath id="clip0_6753_77149">
<rect width="40" height="32" fill="white" transform="translate(4 11)"/>
</clipPath>
</defs>
</svg>
