<svg width="48" height="48" viewBox="0 0 48 48" fill="none" xmlns="http://www.w3.org/2000/svg">
<path d="M41 16C41.5523 16 42 16.4477 42 17V41C42 41.5523 41.5523 42 41 42H7C6.44772 42 6 41.5523 6 41V17C6 16.4477 6.44772 16 7 16H14.8828L17.7705 19.4893C17.9605 19.7188 18.243 19.8516 18.541 19.8516H30.3496C30.6476 19.8516 30.9301 19.7188 31.1201 19.4893L34.0078 16H41Z" fill="#E4DDCD"/>
<path d="M24.3047 23.2949C24.6984 22.9013 25.3367 22.9014 25.7305 23.2949C26.1243 23.6887 26.1242 24.3269 25.7305 24.7207L25 25.4512V36.6836L25.7305 37.4141C26.124 37.8078 26.1239 38.4461 25.7305 38.8398C25.3366 39.2337 24.6975 39.2337 24.3037 38.8398L24.0088 38.5449L23.7129 38.8398C23.3191 39.2337 22.6809 39.2337 22.2871 38.8398C21.8934 38.446 21.8933 37.8079 22.2871 37.4141L23 36.7012V25.4326L22.2881 24.7207C21.8943 24.3269 21.8943 23.6887 22.2881 23.2949C22.6819 22.9014 23.3201 22.9013 23.7139 23.2949L24.0088 23.5908L24.3047 23.2949Z" fill="#7E796E"/>
<path d="M30.8847 27.4364C31.4227 27.5806 31.7422 28.134 31.5981 28.672C31.454 29.21 30.9005 29.5295 30.3625 29.3854L29.3668 29.1179L19.6342 34.737L19.3672 35.7335C19.2229 36.2712 18.6702 36.5903 18.1324 36.4464C17.5944 36.3023 17.2749 35.7488 17.419 35.2108L17.527 34.808L17.1236 34.6992C16.5857 34.555 16.2666 34.0024 16.4107 33.4644C16.5549 32.9265 17.1076 32.6074 17.6455 32.7515L18.6207 33.0128L28.3804 27.378L28.6408 26.4034C28.785 25.8654 29.3384 25.5458 29.8764 25.69C30.4141 25.8342 30.7331 26.387 30.5893 26.9247L30.481 27.3289L30.8847 27.4364Z" fill="#7E796E"/>
<path d="M30.5797 35.2083C30.7238 35.7462 30.4047 36.2988 29.8668 36.443C29.3288 36.5872 28.7762 36.2681 28.632 35.7301L28.3668 34.7403L18.6316 29.1197L17.6369 29.3855C17.099 29.5296 16.5463 29.2106 16.4022 28.6726C16.2581 28.1346 16.5771 27.582 17.1151 27.4378L17.5184 27.329L17.4105 26.9262C17.2663 26.3882 17.5854 25.8356 18.1234 25.6914C18.6614 25.5473 19.214 25.8663 19.3581 26.4043L19.6206 27.3813L29.3727 33.0117L30.3532 32.7489C30.8912 32.6048 31.4438 32.9238 31.588 33.4618C31.7321 33.9998 31.4131 34.5524 30.8751 34.6966L30.4717 34.8054L30.5797 35.2083Z" fill="#7E796E"/>
<path d="M12 7V12M12 12L14 10M12 12L10 10" stroke="#7E796E" stroke-width="2" stroke-linecap="round" stroke-linejoin="round"/>
<path d="M24 7V12M24 12L26 10M24 12L22 10" stroke="#7E796E" stroke-width="2" stroke-linecap="round" stroke-linejoin="round"/>
<path d="M36 7V12M36 12L38 10M36 12L34 10" stroke="#7E796E" stroke-width="2" stroke-linecap="round" stroke-linejoin="round"/>
</svg>
