<svg width="48" height="48" viewBox="0 0 48 48" fill="none" xmlns="http://www.w3.org/2000/svg">
<path d="M8 31V10C8 9.44772 8.44772 9 9 9H15C15.5523 9 16 9.44772 16 10V31L16.0049 31.2061C16.1122 33.3194 17.86 34.9999 20 35C22.2092 35 23.9999 33.2092 24 31V25C24 18.3727 29.3727 13.0002 36 13H41C41.5523 13 42 13.4477 42 14V20C42 20.5523 41.5523 21 41 21H36C33.791 21.0002 32 22.791 32 25V31C31.9999 37.6274 26.6274 43 20 43C13.4761 42.9999 8.16818 37.7939 8.00391 31.3096L8 31Z" fill="#E4DDCD"/>
<rect x="7" y="26" width="10" height="4" rx="1" fill="#7E796E"/>
<rect x="23" y="26" width="10" height="4" rx="1" fill="#7E796E"/>
<rect x="34" y="12" width="4" height="10" rx="1" fill="#7E796E"/>
</svg>
