<svg width="48" height="48" viewBox="0 0 48 48" fill="none" xmlns="http://www.w3.org/2000/svg">
<rect x="9" y="6" width="30" height="36" rx="1" fill="#E4DDCD"/>
<path d="M19.2222 10H14C13.4477 10 13 10.4477 13 11V37C13 37.5523 13.4477 38 14 38H21" stroke="#7E796E" stroke-width="2" stroke-linecap="round"/>
<path d="M19 8L21 10L19 12" stroke="#7E796E" stroke-width="2" stroke-linecap="round" stroke-linejoin="round"/>
<path d="M28.7778 38H34C34.5523 38 35 37.5523 35 37V11C35 10.4477 34.5523 10 34 10H27" stroke="#7E796E" stroke-width="2" stroke-linecap="round"/>
<path d="M29 40L27 38L29 36" stroke="#7E796E" stroke-width="2" stroke-linecap="round" stroke-linejoin="round"/>
<path d="M23.0078 18L24.0005 19.1249L24.9932 18" stroke="#7E796E" stroke-width="2" stroke-linecap="round" stroke-linejoin="round"/>
<path d="M23.9297 19.5V28.874" stroke="#7E796E" stroke-width="2" stroke-linecap="round" stroke-linejoin="round"/>
<path d="M25 30L24.0073 28.8751L23.0146 30" stroke="#7E796E" stroke-width="2" stroke-linecap="round" stroke-linejoin="round"/>
<path d="M23.0078 18L24.0005 19.1249L24.9932 18" stroke="#7E796E" stroke-width="2" stroke-linecap="round" stroke-linejoin="round"/>
<path d="M23.9297 19.5V28.874" stroke="#7E796E" stroke-width="2" stroke-linecap="round" stroke-linejoin="round"/>
<path d="M25 30L24.0073 28.8751L23.0146 30" stroke="#7E796E" stroke-width="2" stroke-linecap="round" stroke-linejoin="round"/>
<path d="M29.0078 20.1875L28.4725 21.5618L30.0005 21.8111" stroke="#7E796E" stroke-width="2" stroke-linecap="round" stroke-linejoin="round"/>
<path d="M28.0938 21.6875L19.4969 26.3745" stroke="#7E796E" stroke-width="2" stroke-linecap="round" stroke-linejoin="round"/>
<path d="M19 27.8125L19.5353 26.4382L18.0073 26.1889" stroke="#7E796E" stroke-width="2" stroke-linecap="round" stroke-linejoin="round"/>
<path d="M30 26.1875L28.472 26.4369L29.0073 27.8111" stroke="#7E796E" stroke-width="2" stroke-linecap="round" stroke-linejoin="round"/>
<path d="M28.1641 26.1875L19.5672 21.5005" stroke="#7E796E" stroke-width="2" stroke-linecap="round" stroke-linejoin="round"/>
<path d="M18 21.8125L19.528 21.5631L18.9927 20.1889" stroke="#7E796E" stroke-width="2" stroke-linecap="round" stroke-linejoin="round"/>
</svg>
