<svg width="48" height="48" viewBox="0 0 48 48" fill="none" xmlns="http://www.w3.org/2000/svg">
<path d="M9.62724 15.7274C9.74917 15.297 10.1421 15 10.5894 15H37.4106C37.8579 15 38.2508 15.297 38.3728 15.7274L40.6394 23.7274C40.8203 24.3657 40.3408 25 39.6773 25H8.3227C7.65923 25 7.17971 24.3657 7.36057 23.7274L9.62724 15.7274Z" fill="#D5CDBA"/>
<rect x="7" y="23" width="34" height="18" rx="1" fill="#E4DDCD"/>
<rect x="21" y="25.002" width="6" height="2" rx="1" fill="#7E796E"/>
<path d="M28 12C27.6754 11.4105 27.1232 10.9059 26.4131 10.5499C25.703 10.1939 24.8669 10.0026 24.0106 10C23.1543 9.9975 22.3162 10.1839 21.6023 10.5357C20.8884 10.8875 20.3308 11.3889 20 11.9764" stroke="#7E796E" stroke-width="2" stroke-linecap="round"/>
<path d="M31 11C30.432 9.82106 29.4656 8.81179 28.2229 8.0998C26.9802 7.38782 25.5171 7.0051 24.0185 7.00005C22.52 6.995 21.0534 7.36784 19.8041 8.07142C18.5548 8.77501 17.579 9.77774 17 10.9528" stroke="#7E796E" stroke-width="2" stroke-linecap="round"/>
</svg>
