<svg width="48" height="48" viewBox="0 0 48 48" fill="none" xmlns="http://www.w3.org/2000/svg">
<path d="M6.43874 36.3162C6.2229 35.6687 6.70487 35 7.38743 35H40.6126C41.2951 35 41.7771 35.6687 41.5613 36.3162L40.2279 40.3162C40.0918 40.7246 39.7097 41 39.2792 41H8.72076C8.29033 41 7.90819 40.7246 7.77208 40.3162L6.43874 36.3162Z" fill="#7E796E"/>
<path d="M22 37H26" stroke="white" stroke-width="2" stroke-linecap="round"/>
<rect x="10" y="21" width="13" height="13" rx="1" fill="#E4DDCD"/>
<rect x="25" y="21" width="13" height="13" rx="1" fill="#E4DDCD"/>
<rect x="18" y="7" width="13" height="13" rx="1" fill="#E4DDCD"/>
<path d="M15 32L12 32L12 29" stroke="#7E796E" stroke-width="2" stroke-linecap="round" stroke-linejoin="round"/>
<path d="M33 23H36V26" stroke="#7E796E" stroke-width="2" stroke-linecap="round" stroke-linejoin="round"/>
<path d="M20 12L20 9L23 9" stroke="#7E796E" stroke-width="2" stroke-linecap="round" stroke-linejoin="round"/>
</svg>
