<svg width="48" height="48" viewBox="0 0 48 48" fill="none" xmlns="http://www.w3.org/2000/svg">
<path d="M18.9932 20.0371C18.2757 20.9421 17.7996 22.046 17.6592 23.2529H7C7.17895 19.1137 8.83481 15.3575 11.4561 12.5L18.9932 20.0371Z" fill="#BDAE96"/>
<path d="M17.6592 24.7422C17.7991 25.9472 18.2748 27.0488 18.9902 27.9531L11.4512 35.4932C8.83224 32.6351 7.17747 28.8806 7 24.7422H17.6592Z" fill="#C3B89D"/>
<path d="M20.04 29.0059C20.9438 29.7201 22.0443 30.1941 23.248 30.334V41C19.1107 40.8212 15.357 39.1661 12.5 36.5469L20.04 29.0059Z" fill="#C3B89D"/>
<path d="M40.999 24.7422C40.8216 28.8786 39.1685 32.6317 36.5518 35.4893L29.0078 27.9453C29.72 27.0424 30.1944 25.944 30.334 24.7422H40.999Z" fill="#D5CDBA"/>
<path d="M35.499 36.5439C32.6404 39.1663 28.8834 40.8232 24.7422 41.001V30.335C25.9489 30.1945 27.0512 29.7174 27.9561 29L35.499 36.5439Z" fill="#D5CDBA"/>
<path d="M36.541 12.5039C39.1601 15.3609 40.8153 19.1147 40.9941 23.252H30.3291C30.1891 22.0486 29.714 20.9484 29 20.0449L36.541 12.5039Z" fill="#E4DDCD"/>
<path d="M25 7C29.1382 7.1776 32.8931 8.83303 35.751 11.4521L28.21 18.9922C27.306 18.2769 26.2046 17.8013 25 17.6611V7Z" fill="#E4DDCD"/>
<path d="M23.252 17.6611C22.0501 17.8007 20.9508 18.274 20.0479 18.9863L12.5098 11.4482C15.366 8.83231 19.1176 7.17861 23.252 7V17.6611Z" fill="#BDAE96"/>
<path d="M23.25 17.6611C22.0481 17.8007 20.9488 18.274 20.0459 18.9863L12.5078 11.4482C15.364 8.83231 19.1156 7.17861 23.25 7V17.6611Z" fill="#BDAE96"/>
<path d="M27.3734 22.6353L27.3706 22.6326L26.8424 23.1608C26.2563 23.7469 25.3058 23.7468 24.7197 23.1608C24.1336 22.5747 24.1336 21.6242 24.7197 21.0381L25.25 20.5078L25.2514 20.5092L25.781 17.8596L30.0257 22.1043L27.3734 22.6353ZM40.633 12.5549C41.2191 13.141 41.2191 14.0915 40.633 14.6776C40.0469 15.2636 39.0964 15.2637 38.5103 14.6776L37.9814 14.1487L30.0278 22.1022L25.7831 17.8575L33.7367 9.90396L33.2043 9.37156C32.6182 8.78548 32.6183 7.83497 33.2043 7.24886C33.7904 6.66275 34.7409 6.66275 35.327 7.24886L40.633 12.5549ZM41.4672 7.01407C42.4749 8.02189 42.4743 9.65579 41.4665 10.6635L40.1075 12.0225L35.8628 7.7778L37.2218 6.41883C38.2296 5.41103 39.8642 5.41103 40.872 6.41883L41.4672 7.01407Z" fill="#7E796E"/>
</svg>
