<svg width="48" height="48" viewBox="0 0 48 48" fill="none" xmlns="http://www.w3.org/2000/svg">
<path d="M24 5C26.2091 5 28 6.79086 28 9V28.0723C30.3907 29.4556 32 32.0392 32 35C32 39.4183 28.4183 43 24 43C19.5817 43 16 39.4183 16 35C16 32.0392 17.6093 29.4556 20 28.0723V9C20 6.79086 21.7909 5 24 5Z" fill="#E4DDCD"/>
<path d="M24 24C24.5523 24 25 24.4477 25 25V31.126C26.7252 31.57 28 33.1362 28 35C28 37.2091 26.2091 39 24 39C21.7909 39 20 37.2091 20 35C20 33.1362 21.2748 31.57 23 31.126V25C23 24.4477 23.4477 24 24 24Z" fill="#7E796E"/>
<path d="M33.2108 10.8889C33.4381 10.56 33.7612 10.3036 34.1393 10.1522C34.5173 10.0009 34.9333 9.96126 35.3347 10.0384C35.736 10.1156 36.1047 10.3061 36.394 10.5858C36.6834 10.8655 36.8804 11.2219 36.9602 11.6098C37.0401 11.9978 36.9991 12.3999 36.8425 12.7654C36.6859 13.1308 36.4207 13.4432 36.0805 13.6629C35.7402 13.8827 35.3402 14 34.931 14L31 14" stroke="#7E796E" stroke-width="2" stroke-linecap="round"/>
<path d="M33.2108 25.1111C33.4381 25.44 33.7612 25.6964 34.1393 25.8478C34.5173 25.9991 34.9333 26.0387 35.3347 25.9616C35.736 25.8844 36.1047 25.6939 36.394 25.4142C36.6834 25.1345 36.8804 24.7781 36.9602 24.3902C37.0401 24.0022 36.9991 23.6001 36.8425 23.2346C36.6859 22.8692 36.4207 22.5568 36.0805 22.3371C35.7402 22.1173 35.3402 22 34.931 22L31 22" stroke="#7E796E" stroke-width="2" stroke-linecap="round"/>
<path d="M39.2108 14.8889C39.4381 14.56 39.7612 14.3036 40.1393 14.1522C40.5173 14.0009 40.9333 13.9613 41.3347 14.0384C41.736 14.1156 42.1047 14.3061 42.394 14.5858C42.6834 14.8655 42.8804 15.2219 42.9602 15.6098C43.0401 15.9978 42.9991 16.3999 42.8425 16.7654C42.6859 17.1308 42.4207 17.4432 42.0805 17.6629C41.7402 17.8827 41.3402 18 40.931 18L31 18" stroke="#7E796E" stroke-width="2" stroke-linecap="round"/>
<path d="M12.2812 11L13.3732 12.2596L14.4651 11" stroke="#7E796E" stroke-width="2" stroke-linecap="round" stroke-linejoin="round"/>
<path d="M13.3672 12.6875V23.1842" stroke="#7E796E" stroke-width="2" stroke-linecap="round" stroke-linejoin="round"/>
<path d="M14.4531 24.4434L13.3612 23.1838L12.2693 24.4434" stroke="#7E796E" stroke-width="2" stroke-linecap="round" stroke-linejoin="round"/>
<path d="M16.971 15.7163L8.63867 20.4495" stroke="#7E796E" stroke-width="2" stroke-linecap="round" stroke-linejoin="round"/>
<path d="M8.09375 22.0234L8.63865 20.448L7.00184 20.1322" stroke="#7E796E" stroke-width="2" stroke-linecap="round" stroke-linejoin="round"/>
<path d="M16.9761 20.0012L8.64006 14.9889" stroke="#7E796E" stroke-width="2" stroke-linecap="round" stroke-linejoin="round"/>
<path d="M7.00781 15.3027L8.64462 14.9869L8.09972 13.4115" stroke="#7E796E" stroke-width="2" stroke-linecap="round" stroke-linejoin="round"/>
</svg>
