<svg width="48" height="48" viewBox="0 0 48 48" fill="none" xmlns="http://www.w3.org/2000/svg">
<path d="M7.65408 14.9828L23.6619 9.12376C23.8838 9.04253 24.1218 9.04457 24.3437 9.1258L40.3437 14.982C40.7379 15.1263 41 15.5014 41 15.9211V34.0789C41 34.4987 40.7379 34.8737 40.3437 35.018L24.368 40.8653C24.1314 40.9519 23.8709 40.946 23.6384 40.8488L7.6141 34.1458C7.24214 33.9902 7 33.6264 7 33.2232V15.9211C7 15.5013 7.25991 15.1271 7.65408 14.9828Z" fill="#E4DDCD"/>
<path d="M11 18L23.641 22.8619C23.8721 22.9508 24.1279 22.9508 24.359 22.8619L37 18" stroke="#7E796E" stroke-width="2" stroke-linecap="round"/>
<path d="M24 23V34" stroke="#7E796E" stroke-width="2" stroke-linecap="round"/>
<path d="M35.6953 27L36.6953 28.0796L37.6953 27" stroke="#7E796E" stroke-width="2" stroke-linecap="round" stroke-linejoin="round"/>
<path d="M36.6953 28.0781V38.1049" stroke="#7E796E" stroke-width="2" stroke-linecap="round" stroke-linejoin="round"/>
<path d="M37.6328 39L36.6667 37.7968L35.7006 39" stroke="#7E796E" stroke-width="2" stroke-linecap="round" stroke-linejoin="round"/>
<path d="M41.3906 29.1328L40.9557 30.5386L42.3906 30.8649" stroke="#7E796E" stroke-width="2" stroke-linecap="round" stroke-linejoin="round"/>
<path d="M40.9531 30.5391L32.2697 35.5525" stroke="#7E796E" stroke-width="2" stroke-linecap="round" stroke-linejoin="round"/>
<path d="M31.9688 36.8125L32.5277 35.3742L31.0026 35.1391" stroke="#7E796E" stroke-width="2" stroke-linecap="round" stroke-linejoin="round"/>
<path d="M42.3906 35.1328L40.9557 35.459L41.3906 36.8649" stroke="#7E796E" stroke-width="2" stroke-linecap="round" stroke-linejoin="round"/>
<path d="M40.6719 35.0078L31.9884 29.9944" stroke="#7E796E" stroke-width="2" stroke-linecap="round" stroke-linejoin="round"/>
<path d="M31.0312 30.8125L32.5563 30.5774L31.9974 29.1391" stroke="#7E796E" stroke-width="2" stroke-linecap="round" stroke-linejoin="round"/>
</svg>
