<svg width="48" height="48" viewBox="0 0 48 48" fill="none" xmlns="http://www.w3.org/2000/svg">
<path d="M24 13C25.8409 13 27.3333 14.4599 27.3333 16.2609C27.7692 15.6786 28.3077 15.1429 29.3846 15.1429C30.818 15.1429 32.0769 15.1429 32.6154 17.2857C33.1538 16.75 33.703 16.7653 34.7738 16.7907C36.6147 16.7907 38 18.373 38 20.1739V35C38 39.4183 34.4183 43 30 43H18C13.5817 43 10 39.4183 10 35V24.25C10 22.8093 11.8219 20.7767 13.2946 20.7767L14.0639 20.7767C14.5501 20.7767 14.9408 20.9553 15.3333 21.1777V18.8696C15.3333 17.0686 16.8257 15.6087 18.6667 15.6087C19.418 15.6087 20.1092 15.8544 20.6667 16.2647V16.2609C20.6667 14.4599 22.1591 13 24 13Z" fill="#E4DDCD"/>
<path d="M7.83594 17.7317C8.94891 14.3185 11.1139 11.3453 14.0205 9.23817C16.9271 7.13105 20.4262 5.99819 24.0162 6.00196C27.6063 6.00573 31.103 7.14594 34.0052 9.25917C36.9074 11.3724 39.066 14.3502 40.1718 17.7657" stroke="#7E796E" stroke-width="2" stroke-linecap="round"/>
</svg>
