<svg width="48" height="48" viewBox="0 0 48 48" fill="none" xmlns="http://www.w3.org/2000/svg">
<path d="M34.3421 15.1686C34.5808 15.1016 34.8171 15.2826 34.837 15.5297C36.4612 35.7017 25.6274 35.7345 23.3072 35.9977C23.1979 36.0101 23.0911 35.9685 23.022 35.8829C22.9696 35.8181 22.9453 35.7345 22.9542 35.6516C23.7219 28.5042 26.3119 24.0011 28.2256 21.5771C28.3848 21.3751 28.3503 21.0814 28.1484 20.9219C27.9464 20.7624 27.6527 20.7979 27.4932 21C25.6523 23.3319 23.27 27.4284 22.2716 33.7098C22.2145 34.0686 21.7491 34.1763 21.5554 33.8689C15.1074 23.6339 26.8274 17.2797 34.3421 15.1686Z" fill="#D5CDBA"/>
<path d="M15.0415 16.356C15.1557 16.1414 15.4402 16.0906 15.631 16.2411C26.447 24.7759 23.1048 33.7655 21.674 35.7107C21.6259 35.776 21.5448 35.7984 21.467 35.7755C21.4075 35.758 21.3592 35.7147 21.3356 35.6572C20.8792 34.5432 20.4789 33.322 20.1416 32.0928C19.4379 29.5282 19.0272 27 18.9424 25.4746C18.9264 25.1862 18.68 24.9649 18.3916 24.9805C18.1031 24.9965 17.8818 25.2428 17.8975 25.5312C17.9872 27.1473 18.4143 29.7517 19.1328 32.3701C19.3281 33.0816 19.5463 33.7997 19.7872 34.5034C19.8981 34.8274 19.5818 35.1365 19.2674 35.0006C10.0978 31.0376 12.3817 21.3562 15.0415 16.356Z" fill="#E4DDCD"/>
<path d="M41.9315 25.5688C42.2712 21.6857 41.3413 17.7973 39.2815 14.4881C37.2217 11.1789 34.1433 8.62775 30.5092 7.21817C26.8751 5.8086 22.8817 5.61678 19.1292 6.67155C15.3767 7.72632 12.068 9.97069 9.70054 13.0672C7.33305 16.1638 6.0347 19.9452 6.00069 23.8429C5.96667 27.7407 7.19883 31.5441 9.51191 34.6815C11.825 37.8189 15.094 40.1207 18.8275 41.2408C22.561 42.3609 26.5572 42.2388 30.2154 40.8929" stroke="#7E796E" stroke-width="2" stroke-linecap="round" stroke-linejoin="round"/>
<circle cx="35" cy="38" r="1" fill="#7E796E"/>
<circle cx="38" cy="35" r="1" fill="#7E796E"/>
<circle cx="40.5" cy="30.5" r="1.5" fill="#7E796E"/>
</svg>
