<svg width="48" height="48" viewBox="0 0 48 48" fill="none" xmlns="http://www.w3.org/2000/svg">
<path d="M7.42415 22.7897L18.6892 18.4089C18.8621 18.3416 19.049 18.3435 19.2219 18.4107L30.4804 22.7891C30.7654 22.8999 30.9531 23.1743 30.9531 23.4801V37.1324C30.9531 37.4381 30.7654 37.7126 30.4804 37.8234L19.2409 42.1943C19.0567 42.266 18.8516 42.2611 18.671 42.1808L7.39346 37.1686C7.12569 37.0496 6.95312 36.7841 6.95312 36.491V23.4801C6.95312 23.1743 7.13915 22.9006 7.42415 22.7897Z" fill="#E4DDCD"/>
<path d="M30.4775 22.7891L30.5801 22.8389C30.8065 22.9698 30.95 23.2133 30.9502 23.4805V26.2666L29.3584 26.4414C29.1981 26.459 29.0375 26.4119 28.9121 26.3105L21.0771 19.9746C20.8911 19.8242 20.8111 19.5778 20.873 19.3467L20.9434 19.0811L30.4775 22.7891ZM33.9502 7.56641C34.1005 7.55003 34.2472 7.59039 34.3691 7.67969L42.3232 13.5127C42.5246 13.6603 42.6154 13.9161 42.5508 14.1572L39.665 24.9248C39.6003 25.1657 39.3945 25.3419 39.1465 25.3691L31.9502 26.1572V23.4805C31.95 22.7625 31.509 22.1177 30.8398 21.8574L21.2041 18.1104L23.6221 9.08496C23.6868 8.84398 23.8916 8.6678 24.1396 8.64062L33.9502 7.56641Z" fill="#E4DDCD"/>
<path d="M10.9531 26.3047L18.6928 29.2071C18.8606 29.27 19.0456 29.27 19.2135 29.2071L26.9531 26.3047" stroke="#7E796E" stroke-width="2" stroke-linecap="round"/>
<path d="M18.9531 29.3047V37.3047" stroke="#7E796E" stroke-width="2" stroke-linecap="round"/>
<path d="M26.1875 12.1562L31.6782 16.0809C31.7973 16.166 31.9432 16.2051 32.0889 16.1909L38.8063 15.5374" stroke="#7E796E" stroke-width="1.63299" stroke-linecap="round"/>
<path d="M31.8359 16.2109L31.0995 19.7061" stroke="#7E796E" stroke-width="1.63299" stroke-linecap="round"/>
</svg>
