<svg width="48" height="48" viewBox="0 0 48 48" fill="none" xmlns="http://www.w3.org/2000/svg">
<path d="M9.62724 16.7274C9.74917 16.297 10.1421 16 10.5894 16H37.4106C37.8579 16 38.2508 16.297 38.3728 16.7274L40.6394 24.7274C40.8203 25.3657 40.3408 26 39.6773 26H8.3227C7.65923 26 7.17971 25.3657 7.36057 24.7274L9.62724 16.7274Z" fill="#D5CDBA"/>
<rect x="7" y="24" width="34" height="18" rx="1" fill="#E4DDCD"/>
<rect x="21" y="26.002" width="6" height="2" rx="1" fill="#7E796E"/>
<path d="M36.4191 6.04666C36.54 5.95202 36.7286 6.00818 36.7616 6.15818C37.4182 9.14913 36.8933 14.601 32.9697 16.8154C30.1309 18.4175 26.9368 17.5682 25.5596 17.0234C25.5037 17.0013 25.4784 16.9368 25.5008 16.8811C25.9338 15.8041 26.6401 15.0142 27.416 14.4424C28.5873 13.5794 29.9177 13.2153 30.6934 13.1455C30.9483 13.1226 31.1373 12.9002 31.1143 12.6484C31.0911 12.3967 30.8653 12.2107 30.6104 12.2334C29.6854 12.3164 28.1864 12.7317 26.8613 13.708C26.1013 14.268 25.3987 15.0136 24.8965 15.9823C24.8226 16.125 24.6202 16.1367 24.5477 15.9933C23.0517 13.0343 24.6211 8.11426 29.2607 8.11426C33.3802 8.11425 35.684 6.62195 36.4191 6.04666Z" fill="#7E796E"/>
<path d="M11.5799 10.3806C11.459 10.286 11.2704 10.3421 11.2375 10.4921C10.5807 13.4831 11.1053 18.935 15.0293 21.1494C17.8684 22.7515 21.0631 21.9022 22.4404 21.3574C22.7173 21.2479 22.9647 21.0732 23.1465 20.8402C23.191 20.7832 23.1946 20.7051 23.16 20.6416C22.7306 19.8506 22.146 19.2405 21.5146 18.7754C20.3431 17.9124 19.012 17.5492 18.2363 17.4795C17.9815 17.4564 17.7935 17.234 17.8164 16.9824C17.8396 16.7306 18.0653 16.5447 18.3203 16.5674C19.2453 16.6505 20.7444 17.0651 22.0693 18.041C22.5742 18.413 23.0537 18.8675 23.466 19.4145C23.5657 19.5468 23.775 19.5186 23.8171 19.3584C24.5921 16.4072 22.901 12.4485 18.7393 12.4482C14.6193 12.4482 12.3151 10.9559 11.5799 10.3806Z" fill="#7E796E"/>
</svg>
