<svg width="48" height="48" viewBox="0 0 48 48" fill="none" xmlns="http://www.w3.org/2000/svg">
<circle cx="23.0078" cy="24" r="16" fill="#E4DDCD"/>
<path d="M11.3556 25.9918C11.0424 24.1526 11.1688 22.2653 11.7247 20.4844C12.2805 18.7034 13.25 17.0793 14.5538 15.7448C15.8576 14.4103 17.4588 13.4033 19.2263 12.8062C20.9939 12.209 22.8777 12.0387 24.7237 12.3091" stroke="#7E796E" stroke-width="2" stroke-linecap="round"/>
<path d="M35.7109 27L36.7109 28.0796L37.7109 27" stroke="#7E796E" stroke-width="2" stroke-linecap="round" stroke-linejoin="round"/>
<path d="M36.7109 28.0781V38.1049" stroke="#7E796E" stroke-width="2" stroke-linecap="round" stroke-linejoin="round"/>
<path d="M37.6484 39L36.6823 37.7968L35.7162 39" stroke="#7E796E" stroke-width="2" stroke-linecap="round" stroke-linejoin="round"/>
<path d="M41.4062 29.1328L40.9713 30.5386L42.4062 30.8649" stroke="#7E796E" stroke-width="2" stroke-linecap="round" stroke-linejoin="round"/>
<path d="M40.9688 30.5391L32.2853 35.5525" stroke="#7E796E" stroke-width="2" stroke-linecap="round" stroke-linejoin="round"/>
<path d="M31.9844 36.8125L32.5433 35.3742L31.0182 35.1391" stroke="#7E796E" stroke-width="2" stroke-linecap="round" stroke-linejoin="round"/>
<path d="M42.4062 35.1328L40.9713 35.459L41.4062 36.8649" stroke="#7E796E" stroke-width="2" stroke-linecap="round" stroke-linejoin="round"/>
<path d="M40.6875 35.0078L32.004 29.9944" stroke="#7E796E" stroke-width="2" stroke-linecap="round" stroke-linejoin="round"/>
<path d="M31.0469 30.8125L32.572 30.5774L32.013 29.1391" stroke="#7E796E" stroke-width="2" stroke-linecap="round" stroke-linejoin="round"/>
</svg>
