<svg width="48" height="48" viewBox="0 0 48 48" fill="none" xmlns="http://www.w3.org/2000/svg">
<path d="M30 39V13H10V39" stroke="#7E796E" stroke-width="2" stroke-linecap="round" stroke-linejoin="round"/>
<path d="M34 12.9564C34 12.4482 33.6188 12.0208 33.1139 11.9629L17.1139 10.1278C16.5204 10.0597 16 10.5238 16 11.1213V40.8787C16 41.4762 16.5204 41.9403 17.1139 41.8722L33.1139 40.0371C33.6188 39.9792 34 39.5518 34 39.0436V12.9564Z" fill="#E4DDCD"/>
<path d="M19 24L19 28" stroke="#7E796E" stroke-width="2" stroke-linecap="round"/>
<path d="M35.9144 13.4694C36.1591 12.8804 36.223 12.2307 36.0981 11.6024C35.9733 10.9741 35.6652 10.3954 35.2129 9.93946C34.7605 9.48355 34.1842 9.1709 33.5569 9.04107C32.9295 8.91123 32.2793 8.97003 31.6884 9.21003" stroke="#7E796E" stroke-width="2" stroke-linecap="round"/>
<path d="M39.485 14.3137C39.9744 13.1358 40.1023 11.8364 39.8525 10.5798C39.6028 9.32315 38.9867 8.16574 38.082 7.25392C37.1773 6.34209 36.0247 5.71681 34.77 5.45713C33.5153 5.19746 32.2149 5.31506 31.0331 5.79506" stroke="#7E796E" stroke-width="2" stroke-linecap="round"/>
</svg>
