<svg width="48" height="48" viewBox="0 0 48 48" fill="none" xmlns="http://www.w3.org/2000/svg">
<rect x="7" y="7" width="16" height="34" rx="1" fill="#E4DDCD"/>
<rect x="25" y="7" width="16" height="34" rx="1" fill="#E4DDCD"/>
<path d="M38 24H43M43 24L41 22M43 24L41 26" stroke="#7E796E" stroke-width="2" stroke-linecap="round" stroke-linejoin="round"/>
<path d="M10 24H5M5 24L7 22M5 24L7 26" stroke="#7E796E" stroke-width="2" stroke-linecap="round" stroke-linejoin="round"/>
<path d="M14.57 27.3C14.4167 27.3 14.2833 27.2433 14.17 27.13C14.0567 27.0167 14 26.8833 14 26.73V20.57C14 20.4167 14.0567 20.2833 14.17 20.17C14.2833 20.0567 14.4167 20 14.57 20H15.19C15.3433 20 15.4733 20.0567 15.58 20.17C15.6933 20.2833 15.75 20.4167 15.75 20.57V25.81C15.75 25.8633 15.78 25.89 15.84 25.89H18.27C18.4233 25.89 18.5567 25.9467 18.67 26.06C18.7833 26.1733 18.84 26.3067 18.84 26.46V26.73C18.84 26.8833 18.7833 27.0167 18.67 27.13C18.5567 27.2433 18.4233 27.3 18.27 27.3H14.57Z" fill="#504323"/>
<path d="M30.67 21.44V23.36C30.67 23.42 30.6967 23.45 30.75 23.45H31.23C31.6967 23.45 32.0533 23.3533 32.3 23.16C32.5467 22.96 32.67 22.6833 32.67 22.33C32.67 21.6367 32.2133 21.29 31.3 21.29C31.0933 21.29 30.9133 21.3033 30.76 21.33C30.7 21.3433 30.67 21.38 30.67 21.44ZM29.57 27.4C29.4167 27.4 29.2833 27.3433 29.17 27.23C29.0567 27.1167 29 26.9833 29 26.83V20.72C29 20.5533 29.0533 20.41 29.16 20.29C29.2733 20.17 29.41 20.1033 29.57 20.09C30.1633 20.03 30.7733 20 31.4 20C32.4 20 33.1433 20.19 33.63 20.57C34.1233 20.9433 34.37 21.4767 34.37 22.17C34.37 22.6167 34.24 23.02 33.98 23.38C33.72 23.7333 33.38 23.9867 32.96 24.14C32.9533 24.14 32.95 24.1433 32.95 24.15C32.95 24.1633 32.9567 24.17 32.97 24.17C33.2967 24.3567 33.5733 24.75 33.8 25.35L34.37 26.87C34.4167 26.9967 34.4 27.1167 34.32 27.23C34.24 27.3433 34.1333 27.4 34 27.4H33.39C33.2167 27.4 33.06 27.35 32.92 27.25C32.78 27.15 32.6833 27.02 32.63 26.86L32.13 25.42C32.0367 25.14 31.9233 24.95 31.79 24.85C31.6567 24.75 31.45 24.7 31.17 24.7H30.75C30.6967 24.7 30.67 24.73 30.67 24.79V26.83C30.67 26.9833 30.6133 27.1167 30.5 27.23C30.3867 27.3433 30.2533 27.4 30.1 27.4H29.57Z" fill="#504323"/>
</svg>
