<svg width="48" height="48" viewBox="0 0 48 48" fill="none" xmlns="http://www.w3.org/2000/svg">
<rect x="14" y="8" width="19" height="34" rx="1" fill="#BDAE96"/>
<path d="M14 9C14 8.44772 14.4477 8 15 8H23V25H14V9Z" fill="#E4DDCD"/>
<path d="M14 26H23V42H15C14.4477 42 14 41.5523 14 41V26Z" fill="#E4DDCD"/>
<path d="M24 26H33V41C33 41.5523 32.5523 42 32 42H24V26Z" fill="#E4DDCD"/>
<path d="M24 8H32C32.5523 8 33 8.44772 33 9V25H24V8Z" fill="#E4DDCD"/>
<path d="M34 8.78078C34 8.32191 34.3123 7.92193 34.7575 7.81063L40.7575 6.31063C41.3886 6.15285 42 6.63021 42 7.28078V25.7192C42 26.3698 41.3886 26.8472 40.7575 26.6894L34.7575 25.1894C34.3123 25.0781 34 24.6781 34 24.2192V8.78078Z" fill="#E4DDCD"/>
<rect x="26" y="10" width="5" height="13" rx="1" fill="#7E796E"/>
</svg>
