<svg preserveAspectRatio="none" width="100%" height="100%" overflow="visible" style="display: block;" viewBox="0 0 20.5501 20.0006" fill="none" xmlns="http://www.w3.org/2000/svg">
<g id="icon">
<path id="Union" d="M9.87777 0.141433C10.1279 -0.0474744 10.4738 -0.0471385 10.7235 0.142409L20.2733 7.39241C20.5809 7.62608 20.6413 8.06504 20.408 8.37288C20.1743 8.68072 19.7345 8.74124 19.4266 8.50764L18.8016 8.03303V19.0008C18.8015 19.3873 18.4879 19.7009 18.1014 19.701H12.6493C12.2627 19.701 11.9491 19.3873 11.9491 19.0008V13.701C11.9491 13.691 11.9496 13.6807 11.95 13.6707C11.9615 13.4074 11.8883 12.9975 11.6541 12.6737C11.4469 12.3873 11.0682 12.1006 10.2996 12.1004C9.53097 12.1004 9.16443 12.3868 8.96859 12.6658C8.74492 12.9848 8.68087 13.3907 8.69808 13.6551C8.69906 13.6702 8.69906 13.6859 8.69906 13.701V19.0008C8.69897 19.3873 8.38534 19.7009 7.99886 19.701H2.50082C2.11427 19.701 1.80071 19.3873 1.80062 19.0008V7.99592L1.12191 8.50862C0.813468 8.74156 0.374466 8.68024 0.141442 8.3719C-0.0915411 8.0634 -0.0303342 7.62442 0.278161 7.39143L9.87777 0.141433ZM3.19515 6.94221C3.19666 6.96094 3.20101 6.97975 3.20101 6.99885V18.3006H7.29965V13.701C7.27602 13.2001 7.38688 12.4815 7.82211 11.8612C8.29876 11.1819 9.10832 10.701 10.2996 10.701C11.4903 10.7012 12.3029 11.1816 12.7889 11.8533C13.2386 12.4752 13.3642 13.1987 13.3485 13.701H13.3495V18.3006H17.4012V7.00081C17.4012 6.99103 17.4028 6.98119 17.4032 6.97151L10.2987 1.57698L3.19515 6.94221Z" fill="var(--fill-0, black)"/>
</g>
</svg>
