<svg preserveAspectRatio="none" width="100%" height="100%" overflow="visible" style="display: block;" viewBox="0 0 20 20" fill="none" xmlns="http://www.w3.org/2000/svg">
<g id="icon" clip-path="url(#clip0_0_4)">
<path id="Union" d="M10 0.5C15.2467 0.5 19.5 4.75329 19.5 10C19.5 15.2467 15.2467 19.5 10 19.5C4.75329 19.5 0.5 15.2467 0.5 10C0.5 4.75329 4.75329 0.5 10 0.5ZM10 1.90039C5.52649 1.90039 1.90039 5.52649 1.90039 10C1.90039 14.4735 5.52649 18.0996 10 18.0996C14.4735 18.0996 18.0996 14.4735 18.0996 10C18.0996 5.52649 14.4735 1.90039 10 1.90039ZM9.69922 4.2998C10.0858 4.2998 10.3994 4.6134 10.3994 5V10.0898L13.8066 12.5312C14.1208 12.7563 14.1936 13.1935 13.9688 13.5078C13.7436 13.8221 13.3055 13.895 12.9912 13.6699L9.29199 11.0195C9.10846 10.8881 8.99902 10.6759 8.99902 10.4502V5C8.99902 4.6134 9.31262 4.2998 9.69922 4.2998Z" fill="var(--fill-0, black)"/>
</g>
<defs>
<clipPath id="clip0_0_4">
<rect width="20" height="20" fill="white"/>
</clipPath>
</defs>
</svg>
