<svg preserveAspectRatio="none" width="100%" height="100%" overflow="visible" style="display: block;" viewBox="0 0 20 20" fill="none" xmlns="http://www.w3.org/2000/svg">
<g id="icon" clip-path="url(#clip0_0_8)">
<path id="Union" d="M9.99645 -0.0498047C10.3829 -0.0496136 10.6966 0.263909 10.6966 0.650391V2.9043L12.4457 1.89551C12.7804 1.70248 13.2085 1.81765 13.4017 2.15234C13.5947 2.487 13.4803 2.91509 13.1459 3.1084L10.6966 4.52148V8.73633L14.348 6.62891L14.347 3.80176C14.347 3.41538 14.66 3.10095 15.0463 3.10059C15.4327 3.10061 15.7462 3.41441 15.7464 3.80078L15.7474 5.82129L17.6986 4.69434C18.0334 4.50115 18.4614 4.61641 18.6547 4.95117C18.8478 5.28593 18.7335 5.71393 18.3988 5.90723L16.4476 7.03418L18.1966 8.04492C18.5313 8.23828 18.6458 8.66624 18.4525 9.00098C18.2591 9.33528 17.831 9.4499 17.4964 9.25684L15.0472 7.84277L11.3949 9.9502L15.0492 12.0605L17.4974 10.6455C17.832 10.4526 18.2601 10.5671 18.4535 10.9014C18.6466 11.2358 18.5326 11.6638 18.1986 11.8574L16.4486 12.8682L18.4007 13.9951C18.7355 14.1884 18.8499 14.6173 18.6566 14.9521C18.4631 15.2865 18.0351 15.4012 17.7005 15.208L15.7484 14.0811V16.1016C15.7483 16.488 15.4337 16.8007 15.0472 16.8008C14.661 16.8004 14.3481 16.4879 14.348 16.1016V13.2725L10.6966 11.1641V15.3975L13.1459 16.8115C13.4803 17.0048 13.5947 17.4329 13.4017 17.7676C13.2085 18.1023 12.7804 18.2174 12.4457 18.0244L10.6966 17.0146V19.25C10.6966 19.6365 10.3829 19.95 9.99645 19.9502C9.60985 19.9502 9.29625 19.6366 9.29625 19.25V17.0137L7.54528 18.0244C7.21058 18.2174 6.78249 18.1021 6.58922 17.7676C6.39624 17.4328 6.51138 17.0047 6.84606 16.8115L9.29625 15.3965V11.1631L5.62926 13.2803L5.62828 16.1094C5.62824 16.4957 5.31535 16.8083 4.92906 16.8086C4.54271 16.8083 4.22794 16.4958 4.22789 16.1094L4.22887 14.0889L2.29137 15.207C1.95666 15.4001 1.52765 15.2857 1.33434 14.9512C1.14108 14.6164 1.25653 14.1875 1.59117 13.9941L3.52867 12.876L1.7777 11.8652C1.44385 11.6716 1.32978 11.2436 1.52281 10.9092C1.71616 10.575 2.14431 10.4605 2.47887 10.6533L4.92809 12.0674L8.59313 9.9502L4.93004 7.83496L2.47985 9.24902C2.14526 9.44198 1.71718 9.32746 1.52379 8.99316C1.33061 8.65849 1.44514 8.22952 1.77965 8.03613L3.52965 7.02637L1.59313 5.9082C1.25859 5.71497 1.14344 5.28683 1.33629 4.95215C1.52957 4.61739 1.95854 4.50211 2.29332 4.69531L4.22985 5.81348V3.79297C4.23009 3.40669 4.54374 3.09295 4.93004 3.09277C5.31633 3.09314 5.62926 3.40757 5.62926 3.79395V6.62207L9.29625 8.73828V4.52246L6.84606 3.1084C6.51138 2.91517 6.39624 2.48709 6.58922 2.15234C6.78249 1.81779 7.21058 1.70255 7.54528 1.89551L9.29625 2.90527V0.650391C9.29625 0.263791 9.60985 -0.0498047 9.99645 -0.0498047Z" fill="var(--fill-0, black)"/>
</g>
<defs>
<clipPath id="clip0_0_8">
<rect width="20" height="20" fill="white"/>
</clipPath>
</defs>
</svg>
