<svg width="48" height="48" viewBox="0 0 48 48" fill="none" xmlns="http://www.w3.org/2000/svg">
<path d="M35.1156 10.3356C35.2266 9.9498 35.7734 9.9498 35.8844 10.3356L36.3955 12.1114C36.4272 12.2215 36.5046 12.3128 36.608 12.362L38.2408 13.1388C38.545 13.2835 38.545 13.7165 38.2408 13.8612L36.608 14.638C36.5046 14.6872 36.4272 14.7785 36.3955 14.8886L35.8844 16.6644C35.7734 17.0502 35.2266 17.0502 35.1156 16.6644L34.6045 14.8886C34.5728 14.7785 34.4954 14.6872 34.392 14.638L32.7592 13.8612C32.455 13.7165 32.455 13.2835 32.7592 13.1388L34.392 12.362C34.4954 12.3128 34.5728 12.2215 34.6045 12.1114L35.1156 10.3356Z" fill="#7E796E"/>
<path d="M31.1103 15.6851C31.2058 15.2719 31.7942 15.2719 31.8897 15.6851L32.1366 16.7528C32.1613 16.8594 32.2285 16.9512 32.3226 17.0069L33.4186 17.6558C33.6803 17.8107 33.6803 18.1893 33.4186 18.3442L32.3226 18.9931C32.2285 19.0488 32.1613 19.1406 32.1366 19.2472L31.8897 20.3149C31.7942 20.7281 31.2058 20.7281 31.1103 20.3149L30.8634 19.2472C30.8387 19.1406 30.7715 19.0488 30.6774 18.9931L29.5814 18.3442C29.3197 18.1893 29.3197 17.8107 29.5814 17.6558L30.6774 17.0069C30.7715 16.9512 30.8387 16.8594 30.8634 16.7528L31.1103 15.6851Z" fill="#7E796E"/>
<rect x="13" y="6" width="15" height="2" rx="0.4" fill="#E4DDCD"/>
<path d="M12.7645 9.66718C12.9056 9.26737 13.2835 9 13.7075 9H27C27.5523 9 28 9.44772 28 10V42C28 42.5523 27.5523 43 27 43H15.823C15.3449 43 14.9336 42.6616 14.8417 42.1924L10.0525 17.7678C10.0181 17.5925 10.0314 17.4111 10.0908 17.2426L12.7645 9.66718Z" fill="#E4DDCD"/>
<path d="M36.7046 23H29.2C29.0895 23 29 23.0895 29 23.2V41.9615C29 42.1817 29.3039 42.2402 29.3857 42.0358L36.8903 23.2743C36.9428 23.1429 36.8461 23 36.7046 23Z" fill="#E4DDCD"/>
<path d="M24 12V17.8262L20 20.7598L16 17.8262V12H24Z" stroke="#7E796E" stroke-width="2"/>
</svg>
