<svg width="48" height="48" viewBox="0 0 48 48" fill="none" xmlns="http://www.w3.org/2000/svg">
<rect x="16" y="12" width="14" height="24" rx="1" fill="#E4DDCD"/>
<path d="M27.993 24.6666C28.1734 24.42 28.4299 24.2277 28.7299 24.1142C29.0299 24.0006 29.36 23.9709 29.6785 24.0288C29.997 24.0867 30.2895 24.2296 30.5191 24.4393C30.7487 24.6491 30.9051 24.9164 30.9685 25.2074C31.0318 25.4983 30.9993 25.7999 30.875 26.074C30.7508 26.3481 30.5403 26.5824 30.2703 26.7472C30.0003 26.912 29.6829 27 29.3582 27L26 27" stroke="#7E796E" stroke-width="2" stroke-linecap="round"/>
<path d="M33.1581 27.6666C33.3286 27.42 33.5709 27.2277 33.8545 27.1142C34.138 27.0006 34.45 26.9709 34.751 27.0288C35.052 27.0867 35.3285 27.2296 35.5455 27.4393C35.7625 27.6491 35.9103 27.9164 35.9702 28.2074C36.0301 28.4983 35.9993 28.7999 35.8819 29.074C35.7644 29.3481 35.5655 29.5824 35.3104 29.7472C35.0552 29.912 34.7552 30 34.4483 30C30.2215 30 28.2268 30 24 30" stroke="#7E796E" stroke-width="2" stroke-linecap="round"/>
<path d="M27 33L31 33" stroke="#7E796E" stroke-width="2" stroke-linecap="round" stroke-linejoin="round"/>
<path d="M13.1055 38.3374C15.1366 39.8818 17.4726 40.9754 19.9583 41.5457C22.4439 42.1159 25.0223 42.1498 27.522 41.6449C30.0216 41.14 32.3854 40.108 34.4563 38.6174C36.5271 37.1268 38.2575 35.2119 39.5325 32.9997M12.9712 40.8069L12.5586 37.8761L15.3596 37.3963M17.0063 7.40422C14.6556 8.39407 12.542 9.87374 10.8062 11.7449C9.07035 13.6161 7.75195 15.8359 6.9386 18.2568C6.12525 20.6777 5.83559 23.2443 6.08885 25.786C6.34212 28.3278 7.13252 30.7864 8.40752 32.9985M14.9385 6.05313L17.6785 7.16059L16.6928 9.83031M41.798 26.2566C42.1176 23.7224 41.8951 21.1491 41.1453 18.7076C40.3955 16.2662 39.1356 14.0126 37.4492 12.0966C35.7629 10.1805 33.6888 8.64594 31.3647 7.59479C29.0406 6.54364 26.5198 6 23.9698 6M44 25.1383L41.6725 26.9616L39.8572 24.7717" stroke="#7E796E" stroke-width="2" stroke-linecap="round" stroke-linejoin="round"/>
</svg>
