<svg width="48" height="48" viewBox="0 0 48 48" fill="none" xmlns="http://www.w3.org/2000/svg">
<path d="M10 15L10 12C10 11.4477 10.4477 11 11 11L37 11C37.5523 11 38 11.4477 38 12L38 15L10 15Z" fill="#7E796E"/>
<path d="M11.1848 38C10.7075 38 10.2967 37.6627 10.2039 37.1946L6.23694 17.1946C6.11429 16.5762 6.58743 16 7.21783 16L40.7822 16C41.4126 16 41.8857 16.5762 41.7631 17.1946L37.7961 37.1946C37.7033 37.6627 37.2925 38 36.8152 38L11.1848 38Z" fill="#E4DDCD"/>
<rect x="20" y="18" width="8" height="2" rx="1" fill="#7E796E"/>
</svg>
