<svg width="48" height="48" viewBox="0 0 48 48" fill="none" xmlns="http://www.w3.org/2000/svg">
<path fill-rule="evenodd" clip-rule="evenodd" d="M34.3356 8C34.7321 8.00018 35.0911 8.23477 35.2507 8.59766L35.9147 10.1084C39.4272 18.1005 33.9998 26.9707 25.4997 27.915V39H33.9997C34.552 39 34.9997 39.4477 34.9997 40V42H12.9997V40C12.9997 39.4477 13.4474 39 13.9997 39H22.4997V27.915C13.999 26.9713 8.57187 18.1009 12.0847 10.1084L12.7487 8.59766C12.9084 8.23471 13.2673 8.0001 13.6638 8H34.3356Z" fill="#E4DDCD"/>
<path d="M34.5206 6.61956C34.6619 6.14213 35.3381 6.14213 35.4794 6.61956L36.0162 8.43263C36.057 8.57051 36.1552 8.68415 36.2857 8.74451L38.0189 9.54619C38.4057 9.7251 38.4057 10.2749 38.0189 10.4538L36.2857 11.2555C36.1552 11.3159 36.057 11.4295 36.0162 11.5674L35.4794 13.3804C35.3381 13.8579 34.6619 13.8579 34.5206 13.3804L33.9838 11.5674C33.943 11.4295 33.8448 11.3159 33.7143 11.2555L31.9811 10.4538C31.5943 10.2749 31.5943 9.7251 31.9811 9.54619L33.7143 8.74451C33.8448 8.68415 33.943 8.57051 33.9838 8.43263L34.5206 6.61956Z" fill="#7E796E"/>
<path d="M38.6146 13.3888C38.723 12.9981 39.277 12.9981 39.3854 13.3888L39.7624 14.7471C39.7929 14.8569 39.8687 14.9485 39.9708 14.9989L41.2729 15.6413C41.5703 15.788 41.5703 16.212 41.2729 16.3587L39.9708 17.0011C39.8687 17.0515 39.7929 17.1431 39.7624 17.2529L39.3854 18.6112C39.277 19.0019 38.723 19.0019 38.6146 18.6112L38.2376 17.2529C38.2071 17.1431 38.1313 17.0515 38.0292 17.0011L36.7271 16.3587C36.4297 16.212 36.4297 15.788 36.7271 15.6413L38.0292 14.9989C38.1313 14.9485 38.2071 14.8569 38.2376 14.7471L38.6146 13.3888Z" fill="#7E796E"/>
</svg>
