<svg width="48" height="48" viewBox="0 0 48 48" fill="none" xmlns="http://www.w3.org/2000/svg">
<path d="M23.0029 24C24.3159 24 25.6161 24.2584 26.8291 24.7607C28.0422 25.2632 29.1447 26.0003 30.0732 26.9287C31.0017 27.8572 31.7387 28.9597 32.2412 30.1729C32.7438 31.3861 33.0029 32.6868 33.0029 34C33.0029 35.3132 32.7438 36.6139 32.2412 37.8271C31.7387 39.0403 31.0017 40.1428 30.0732 41.0713C29.1447 41.9997 28.0422 42.7368 26.8291 43.2393C25.6161 43.7416 24.3159 44 23.0029 44V24ZM23 24C21.6868 24 20.3861 23.7418 19.1729 23.2393C17.9596 22.7367 16.8573 21.9998 15.9287 21.0713C15.0002 20.1427 14.2633 19.0404 13.7607 17.8271C13.2582 16.6139 13 15.3132 13 14C13 12.6868 13.2582 11.3861 13.7607 10.1729C14.2633 8.95964 15.0002 7.85727 15.9287 6.92871C16.8573 6.00015 17.9596 5.26329 19.1729 4.76074C20.3861 4.2582 21.6868 4 23 4V24ZM33 14C34.3132 14 35.6139 14.2582 36.8271 14.7607C38.0404 15.2633 39.1427 16.0002 40.0713 16.9287C40.9998 17.8573 41.7367 18.9596 42.2393 20.1729C42.7418 21.3861 43 22.6868 43 24H23C23 22.6868 23.2582 21.3861 23.7607 20.1729C24.2633 18.9596 25.0002 17.8573 25.9287 16.9287C26.8573 16.0002 27.9596 15.2633 29.1729 14.7607C30.3861 14.2582 31.6868 14 33 14Z" fill="#E4DDCD"/>
<rect x="6" y="26" width="15" height="2" rx="1" fill="#7E796E"/>
<rect x="4" y="31" width="15" height="2" rx="1" fill="#7E796E"/>
<rect x="6" y="36" width="15" height="2" rx="1" fill="#7E796E"/>
</svg>
