<svg width="48" height="48" viewBox="0 0 48 48" fill="none" xmlns="http://www.w3.org/2000/svg">
<path d="M24 11C31.1797 11 37 16.8203 37 24C37 31.1797 31.1797 37 24 37C16.8203 37 11 31.1797 11 24C11 16.8203 16.8203 11 24 11Z" fill="#E4DDCD"/>
<path d="M30.1195 15.1753C30.2389 14.8063 30.7611 14.8063 30.8805 15.1753L31.389 16.7457C31.4248 16.8561 31.5068 16.9456 31.6137 16.9909L33.1288 17.6316C33.4544 17.7693 33.4544 18.2307 33.1288 18.3684L31.6137 19.0091C31.5068 19.0544 31.4248 19.1439 31.389 19.2543L30.8805 20.8247C30.7611 21.1937 30.2389 21.1937 30.1195 20.8247L29.611 19.2543C29.5752 19.1439 29.4932 19.0544 29.3863 19.0091L27.8712 18.3684C27.5456 18.2307 27.5456 17.7693 27.8712 17.6316L29.3863 16.9909C29.4932 16.9456 29.5752 16.8561 29.611 16.7457L30.1195 15.1753Z" fill="#7E796E"/>
<path d="M13.1055 38.3374C15.1366 39.8818 17.4726 40.9754 19.9583 41.5457C22.4439 42.1159 25.0223 42.1498 27.522 41.6449C30.0216 41.14 32.3854 40.108 34.4563 38.6174C36.5271 37.1268 38.2575 35.2119 39.5325 32.9997M12.9712 40.8069L12.5586 37.8761L15.3596 37.3963M17.0063 7.40422C14.6556 8.39407 12.542 9.87374 10.8062 11.7449C9.07035 13.6161 7.75195 15.8359 6.9386 18.2568C6.12525 20.6777 5.83559 23.2443 6.08885 25.786C6.34212 28.3278 7.13252 30.7864 8.40752 32.9985M14.9385 6.05313L17.6785 7.16059L16.6928 9.83031M41.798 26.2566C42.1176 23.7224 41.8951 21.1491 41.1453 18.7076C40.3955 16.2662 39.1356 14.0126 37.4492 12.0966C35.7629 10.1805 33.6888 8.64594 31.3647 7.59479C29.0406 6.54364 26.5198 6 23.9698 6M44 25.1383L41.6725 26.9616L39.8572 24.7717" stroke="#7E796E" stroke-width="2" stroke-linecap="round" stroke-linejoin="round"/>
<path d="M13.1055 38.3374C15.1366 39.8818 17.4726 40.9754 19.9583 41.5457C22.4439 42.1159 25.0223 42.1498 27.522 41.6449C30.0216 41.14 32.3854 40.108 34.4563 38.6174C36.5271 37.1268 38.2575 35.2119 39.5325 32.9997M12.9712 40.8069L12.5586 37.8761L15.3596 37.3963M17.0063 7.40422C14.6556 8.39407 12.542 9.87374 10.8062 11.7449C9.07035 13.6161 7.75195 15.8359 6.9386 18.2568C6.12525 20.6777 5.83559 23.2443 6.08885 25.786C6.34212 28.3278 7.13252 30.7864 8.40752 32.9985M14.9385 6.05313L17.6785 7.16059L16.6928 9.83031M41.798 26.2566C42.1176 23.7224 41.8951 21.1491 41.1453 18.7076C40.3955 16.2662 39.1356 14.0126 37.4492 12.0966C35.7629 10.1805 33.6888 8.64594 31.3647 7.59479C29.0406 6.54364 26.5198 6 23.9698 6M44 25.1383L41.6725 26.9616L39.8572 24.7717" stroke="#7E796E" stroke-width="2" stroke-linecap="round" stroke-linejoin="round"/>
<path d="M26.1811 29.49C25.9818 29.49 25.8085 29.4163 25.6611 29.269C25.5225 29.1217 25.4531 28.9483 25.4531 28.749V20.741C25.4531 20.5417 25.5225 20.3683 25.6611 20.221C25.8085 20.0737 25.9818 20 26.1811 20H27.1431C27.3425 20 27.5115 20.0737 27.6501 20.221C27.7975 20.3683 27.8711 20.5417 27.8711 20.741V28.749C27.8711 28.9483 27.7975 29.1217 27.6501 29.269C27.5115 29.4163 27.3425 29.49 27.1431 29.49H26.1811Z" fill="#504323"/>
<path d="M20.0115 21.924L19.0625 25.655C19.0539 25.681 19.0582 25.707 19.0755 25.733C19.1015 25.7503 19.1275 25.759 19.1535 25.759H20.8955C20.9215 25.759 20.9432 25.7503 20.9605 25.733C20.9865 25.707 20.9952 25.681 20.9865 25.655L20.0375 21.924C20.0375 21.9153 20.0332 21.911 20.0245 21.911C20.0159 21.911 20.0115 21.9153 20.0115 21.924ZM16.5405 29.49C16.3585 29.49 16.2112 29.4163 16.0985 29.269C15.9945 29.1217 15.9729 28.9613 16.0335 28.788L18.6595 20.702C18.7289 20.494 18.8502 20.325 19.0235 20.195C19.2055 20.065 19.4049 20 19.6215 20H20.4795C20.7049 20 20.9085 20.065 21.0905 20.195C21.2725 20.325 21.3939 20.494 21.4545 20.702L24.0675 28.788C24.1282 28.9613 24.1022 29.1217 23.9895 29.269C23.8855 29.4163 23.7425 29.49 23.5605 29.49H22.6895C22.4729 29.49 22.2779 29.425 22.1045 29.295C21.9312 29.1563 21.8185 28.983 21.7665 28.775L21.4545 27.54C21.4459 27.4707 21.4025 27.436 21.3245 27.436H18.7245C18.6552 27.436 18.6119 27.4707 18.5945 27.54L18.2825 28.775C18.2305 28.983 18.1179 29.1563 17.9445 29.295C17.7712 29.425 17.5762 29.49 17.3595 29.49H16.5405Z" fill="#504323"/>
</svg>
