<svg width="48" height="48" viewBox="0 0 48 48" fill="none" xmlns="http://www.w3.org/2000/svg">
<rect x="7" y="7" width="16" height="16" rx="1" fill="#E4DDCD"/>
<rect x="25" y="7" width="16" height="16" rx="1" fill="#E4DDCD"/>
<rect x="7" y="25" width="16" height="16" rx="1" fill="#E4DDCD"/>
<rect x="25" y="25" width="16" height="16" rx="1" fill="#E4DDCD"/>
<path d="M13.7344 10L14.9955 10.8407L16.2566 10" stroke="#7E796E" stroke-width="1.78038" stroke-linecap="round" stroke-linejoin="round"/>
<path d="M13.7344 20.0859L14.9955 19.2452L16.2566 20.0859" stroke="#7E796E" stroke-width="1.78038" stroke-linecap="round" stroke-linejoin="round"/>
<path d="M14.9922 10.8398V19.2472" stroke="#7E796E" stroke-width="1.78038" stroke-linecap="round" stroke-linejoin="round"/>
<path d="M18.7344 11.4297L18.6368 12.9422L19.9955 13.614" stroke="#7E796E" stroke-width="1.78038" stroke-linecap="round" stroke-linejoin="round"/>
<path d="M10 16.4727L11.3586 17.1444L11.2611 18.657" stroke="#7E796E" stroke-width="1.78038" stroke-linecap="round" stroke-linejoin="round"/>
<path d="M18.6406 12.9414L11.3596 17.1451" stroke="#7E796E" stroke-width="1.78038" stroke-linecap="round" stroke-linejoin="round"/>
<path d="M20 16.4727L18.6414 17.1444L18.7389 18.657" stroke="#7E796E" stroke-width="1.78038" stroke-linecap="round" stroke-linejoin="round"/>
<path d="M11.2656 11.4297L11.3632 12.9422L10.0045 13.614" stroke="#7E796E" stroke-width="1.78038" stroke-linecap="round" stroke-linejoin="round"/>
<path d="M18.6406 17.1445L11.3629 12.9427" stroke="#7E796E" stroke-width="1.78038" stroke-linecap="round" stroke-linejoin="round"/>
<path d="M33 9.16406C33.6001 9.16406 34.1256 9.48141 34.419 9.95728C34.5349 10.1453 34.7739 10.2473 34.9899 10.2009C35.1021 10.1768 35.2185 10.1641 35.3379 10.1641C36.2585 10.1641 37.0049 10.9104 37.0049 11.8311C37.0049 11.8765 37.0029 11.9214 36.9992 11.9658C36.9838 12.1482 37.0736 12.3302 37.2276 12.4291C37.6891 12.7254 37.9951 13.2428 37.9951 13.832C37.995 14.7525 37.2487 15.499 36.3281 15.499C36.2497 15.499 36.1843 15.5631 36.1915 15.6412L36.333 17.1797C36.5127 19.1403 34.9698 20.832 33.001 20.832C31.0322 20.832 29.4892 19.1403 29.6689 17.1797L29.8083 15.6539C29.8161 15.569 29.7445 15.499 29.6592 15.499C28.7386 15.499 27.9923 14.7525 27.9922 13.832C27.9922 13.2373 28.304 12.716 28.7729 12.4213C28.9286 12.3234 29.0207 12.1408 29.0067 11.9574C29.0036 11.9157 29.002 11.8736 29.002 11.8311C29.002 10.9104 29.7483 10.1641 30.6689 10.1641C30.7867 10.1641 30.9014 10.1766 31.0121 10.2001C31.2273 10.2458 31.4649 10.1441 31.5804 9.9569C31.874 9.48119 32.4 9.16411 33 9.16406Z" fill="#7E796E"/>
<path d="M34.4749 16.0254C34.8318 16.8403 34.7802 18.7758 33.6717 19.6926" stroke="#EFEBE1" stroke-width="0.666763" stroke-linecap="round"/>
<path d="M31.5329 16.0254C31.176 16.8403 31.2276 18.7758 32.3361 19.6926" stroke="#EFEBE1" stroke-width="0.666763" stroke-linecap="round"/>
<path d="M20.1214 27.2982C20.6082 27.3065 20.9861 27.679 20.9945 28.1585C21.0123 29.1766 20.861 30.9275 19.7552 32.0169C18.6494 33.1061 16.8725 33.2552 15.8392 33.2376C15.7316 33.2358 15.6297 33.2146 15.5355 33.18V38.2367C15.5354 38.4948 15.2908 38.7042 14.9896 38.7044C14.6882 38.7044 14.4439 38.495 14.4437 38.2367V33.1859C14.3541 33.2169 14.258 33.2359 14.1566 33.2376C13.1232 33.2552 11.3455 33.1064 10.2396 32.0169C9.13384 30.9275 8.98347 29.1766 9.00132 28.1585C9.00974 27.6791 9.38682 27.3067 9.87339 27.2982C10.9068 27.2806 12.6845 27.4295 13.7904 28.5189C14.6157 29.3319 14.909 30.5134 14.9974 31.4837C15.0858 30.5134 15.3801 29.3319 16.2054 28.5189C17.3112 27.4297 19.0881 27.2806 20.1214 27.2982Z" fill="#7E796E"/>
<path d="M37.4479 37.5196C37.4646 37.9363 37.1402 38.2877 36.7235 38.3044C36.3072 38.3207 35.9561 37.9971 35.9393 37.5807L35.9083 36.8075L34.5617 35.5646C33.9839 36.0276 33.1548 36.016 32.5779 35.4705L32.5612 35.4551C32.0503 34.9719 31.3766 34.7314 30.6591 34.7003C29.6696 34.6626 28.7017 34.1777 28.0658 33.2334C27.3288 32.1444 27.2989 30.6466 27.994 29.4861C29.1748 27.4781 31.7203 27.1307 33.259 28.586C33.8423 29.1433 34.1854 29.8705 34.2846 30.6284C34.3841 31.3974 34.6883 32.0932 35.227 32.6028C35.7193 33.0684 35.8268 33.807 35.5395 34.4113L36.9316 35.696L37.7074 35.6649C38.1241 35.6482 38.4749 35.972 38.4916 36.3887C38.5083 36.8054 38.1846 37.1562 37.7678 37.1729L37.4345 37.1856L37.4479 37.5196Z" fill="#7E796E"/>
</svg>
