<svg width="48" height="48" viewBox="0 0 48 48" fill="none" xmlns="http://www.w3.org/2000/svg">
<rect x="7" y="7" width="34" height="34" rx="1" fill="#E4DDCD"/>
<path d="M16.2959 17.4316C18.6085 10.1958 28.8401 10.1893 31.166 17.4131L31.249 17.6543C32.7686 22.1354 38.5191 22.607 41 19.2129V22.292C37.0824 24.9876 30.9539 23.7229 29.1387 18.3701L29.0557 18.1279C29.0536 18.1219 29.0518 18.1155 29.0498 18.1094C27.3955 12.9337 20.0722 12.9337 18.418 18.1094L18.2637 18.6367C16.7257 23.8686 10.8512 25.2941 7 22.8154V19.8301C9.45127 22.9421 14.8653 22.2973 16.126 18.0078L16.2881 17.457L16.2959 17.4316Z" fill="#7E796E"/>
<path d="M37.27 34.5C36.1767 34.5 35.3167 34.1767 34.69 33.53C34.0633 32.8833 33.75 31.9567 33.75 30.75C33.75 29.5633 34.0533 28.6433 34.66 27.99C35.2667 27.33 36.1133 27 37.2 27C37.72 27 38.1733 27.0367 38.56 27.11C38.72 27.1367 38.85 27.2167 38.95 27.35C39.05 27.4833 39.1 27.6333 39.1 27.8V28.12C39.1 28.26 39.0433 28.37 38.93 28.45C38.8167 28.53 38.6933 28.5533 38.56 28.52C38.18 28.42 37.7933 28.37 37.4 28.37C36.8 28.37 36.33 28.5733 35.99 28.98C35.6567 29.3867 35.49 29.9767 35.49 30.75C35.49 31.51 35.67 32.1 36.03 32.52C36.39 32.94 36.87 33.15 37.47 33.15C37.87 33.15 38.26 33.1 38.64 33C38.7733 32.9667 38.8967 32.99 39.01 33.07C39.13 33.15 39.19 33.26 39.19 33.4V33.7C39.19 33.8667 39.1367 34.0167 39.03 34.15C38.93 34.2833 38.8 34.3633 38.64 34.39C38.2467 34.4633 37.79 34.5 37.27 34.5Z" fill="#504323"/>
<path d="M32.4459 28.22C32.3259 28.0933 32.1793 28.03 32.0059 28.03C31.8326 28.03 31.6826 28.0933 31.5559 28.22C31.4359 28.3467 31.3759 28.4967 31.3759 28.67C31.3759 28.8433 31.4359 28.9933 31.5559 29.12C31.6826 29.24 31.8326 29.3 32.0059 29.3C32.1793 29.3 32.3259 29.24 32.4459 29.12C32.5726 28.9933 32.6359 28.8433 32.6359 28.67C32.6359 28.4967 32.5726 28.3467 32.4459 28.22ZM33.1859 29.85C32.8593 30.17 32.4659 30.33 32.0059 30.33C31.5459 30.33 31.1526 30.17 30.8259 29.85C30.4993 29.5233 30.3359 29.13 30.3359 28.67C30.3359 28.21 30.4993 27.8167 30.8259 27.49C31.1526 27.1633 31.5459 27 32.0059 27C32.4659 27 32.8593 27.1633 33.1859 27.49C33.5126 27.8167 33.6759 28.21 33.6759 28.67C33.6759 29.13 33.5126 29.5233 33.1859 29.85Z" fill="#504323"/>
<path d="M25.3903 28.4696C25.237 28.4696 25.1036 28.4129 24.9903 28.2996C24.877 28.1863 24.8203 28.0529 24.8203 27.8996V27.6696C24.8203 27.5163 24.877 27.3829 24.9903 27.2696C25.1036 27.1563 25.237 27.0996 25.3903 27.0996H29.1203C29.2736 27.0996 29.407 27.1563 29.5203 27.2696C29.6336 27.3829 29.6903 27.5163 29.6903 27.6696V27.8996C29.6903 28.2796 29.5436 28.5896 29.2503 28.8296L27.7403 30.0796V30.0896C27.7403 30.0963 27.7436 30.0996 27.7503 30.0996H27.8703C28.4503 30.0996 28.9136 30.2796 29.2603 30.6396C29.6136 30.9996 29.7903 31.4863 29.7903 32.0996C29.7903 32.8729 29.5536 33.4663 29.0803 33.8796C28.607 34.2929 27.927 34.4996 27.0403 34.4996C26.507 34.4996 25.967 34.4363 25.4203 34.3096C25.2603 34.2696 25.127 34.1829 25.0203 34.0496C24.9203 33.9096 24.8703 33.7529 24.8703 33.5796V33.2396C24.8703 33.1063 24.9236 33.0029 25.0303 32.9296C25.1436 32.8496 25.267 32.8296 25.4003 32.8696C25.9736 33.0563 26.4736 33.1496 26.9003 33.1496C27.287 33.1496 27.587 33.0596 27.8003 32.8796C28.0136 32.6996 28.1203 32.4496 28.1203 32.1296C28.1203 31.8029 27.997 31.5729 27.7503 31.4396C27.5036 31.3063 27.0436 31.2363 26.3703 31.2296C26.217 31.2296 26.0836 31.1763 25.9703 31.0696C25.857 30.9563 25.8003 30.8229 25.8003 30.6696V30.6496C25.8003 30.2763 25.9436 29.9663 26.2303 29.7196L27.6503 28.4896V28.4796C27.6503 28.4729 27.647 28.4696 27.6403 28.4696H25.3903Z" fill="#504323"/>
<path d="M22.4763 34.4C22.3229 34.4 22.1896 34.3433 22.0763 34.23C21.9629 34.1167 21.9062 33.9833 21.9062 33.83V33.07C21.9062 32.9167 21.9629 32.7833 22.0763 32.67C22.1896 32.5567 22.3229 32.5 22.4763 32.5H23.2363C23.3896 32.5 23.5229 32.5567 23.6363 32.67C23.7496 32.7833 23.8063 32.9167 23.8063 33.07V33.83C23.8063 33.9833 23.7496 34.1167 23.6363 34.23C23.5229 34.3433 23.3896 34.4 23.2363 34.4H22.4763Z" fill="#504323"/>
<path d="M19.28 28.84C19.0933 28.4733 18.8 28.29 18.4 28.29C18 28.29 17.7033 28.4733 17.51 28.84C17.3233 29.2067 17.23 29.8433 17.23 30.75C17.23 31.6567 17.3233 32.2933 17.51 32.66C17.7033 33.0267 18 33.21 18.4 33.21C18.8 33.21 19.0933 33.0267 19.28 32.66C19.4733 32.2933 19.57 31.6567 19.57 30.75C19.57 29.8433 19.4733 29.2067 19.28 28.84ZM20.58 33.62C20.1067 34.2067 19.38 34.5 18.4 34.5C17.42 34.5 16.69 34.2067 16.21 33.62C15.7367 33.0333 15.5 32.0767 15.5 30.75C15.5 29.4233 15.7367 28.4667 16.21 27.88C16.69 27.2933 17.42 27 18.4 27C19.38 27 20.1067 27.2933 20.58 27.88C21.06 28.4667 21.3 29.4233 21.3 30.75C21.3 32.0767 21.06 33.0333 20.58 33.62Z" fill="#504323"/>
<path d="M9.57 34.8004C9.41667 34.8004 9.28333 34.7437 9.17 34.6304C9.05667 34.5171 9 34.3837 9 34.2304V34.0804C9 33.9271 9.05667 33.7971 9.17 33.6904C9.28333 33.5771 9.41667 33.5204 9.57 33.5204H14.37C14.5233 33.5204 14.6567 33.5771 14.77 33.6904C14.8833 33.7971 14.94 33.9271 14.94 34.0804V34.2304C14.94 34.3837 14.8833 34.5171 14.77 34.6304C14.6567 34.7437 14.5233 34.8004 14.37 34.8004H9.57ZM9.57 31.1104C9.41667 31.1104 9.28333 31.0537 9.17 30.9404C9.05667 30.8271 9 30.6937 9 30.5404V30.3904C9 30.2371 9.05667 30.1037 9.17 29.9904C9.28333 29.8771 9.41667 29.8204 9.57 29.8204H11.2C11.26 29.8204 11.29 29.7937 11.29 29.7404V28.4704C11.29 28.3171 11.3433 28.1837 11.45 28.0704C11.5633 27.9571 11.6967 27.9004 11.85 27.9004H12.09C12.2433 27.9004 12.3733 27.9571 12.48 28.0704C12.5933 28.1837 12.65 28.3171 12.65 28.4704V29.7404C12.65 29.7937 12.68 29.8204 12.74 29.8204H14.37C14.5233 29.8204 14.6567 29.8771 14.77 29.9904C14.8833 30.1037 14.94 30.2371 14.94 30.3904V30.5404C14.94 30.6937 14.8833 30.8271 14.77 30.9404C14.6567 31.0537 14.5233 31.1104 14.37 31.1104H12.74C12.68 31.1104 12.65 31.1371 12.65 31.1904V32.4704C12.65 32.6237 12.5933 32.7571 12.48 32.8704C12.3733 32.9771 12.2433 33.0304 12.09 33.0304H11.85C11.6967 33.0304 11.5633 32.9771 11.45 32.8704C11.3433 32.7571 11.29 32.6237 11.29 32.4704V31.1904C11.29 31.1371 11.26 31.1104 11.2 31.1104H9.57Z" fill="#504323"/>
</svg>
