<svg width="48" height="48" viewBox="0 0 48 48" fill="none" xmlns="http://www.w3.org/2000/svg">
<path d="M36.6343 33.4401C38.2438 34.302 38.88 35.162 38.9832 35.7947C39.0728 36.3443 38.8033 37.1163 37.5508 37.9996C36.3162 38.8704 34.3801 39.6466 31.9049 40.1933C29.4443 40.7368 26.6126 41.018 23.7273 40.9991C20.8417 40.9802 18.04 40.6621 15.6356 40.0877C13.2144 39.5093 11.3653 38.7113 10.2288 37.8375C9.09121 36.9628 8.90135 36.2223 9.04224 35.6736C9.21404 35.0046 9.96816 34.13 11.6674 33.2844" stroke="#7E796E" stroke-width="2" stroke-linecap="round"/>
<rect x="15" y="6" width="18" height="10" rx="1" fill="#E4DDCD"/>
<rect x="15" y="17" width="18" height="19" rx="1" fill="#E4DDCD"/>
<rect x="29" y="10" width="2" height="4" rx="1" fill="#7E796E"/>
<rect x="29" y="19" width="2" height="4" rx="1" fill="#7E796E"/>
</svg>
