<svg width="48" height="48" viewBox="0 0 48 48" fill="none" xmlns="http://www.w3.org/2000/svg">
<g clip-path="url(#clip0_2588_96764)">
<path d="M12.3962 11.5817C12.5508 11.2239 12.9034 11 13.2932 11H32.71C33.0999 11 33.4525 11.224 33.6071 11.582C34.4389 13.5091 37 19.8325 37 24.6364C37 30.0112 32.4689 38.4019 31.2819 40.5079C31.108 40.8163 30.7827 41 30.4287 41H15.5713C15.2173 41 14.892 40.8163 14.7181 40.5079C13.5311 38.4019 9 30.0112 9 24.6364C9 19.8322 11.5637 13.5085 12.3962 11.5817Z" fill="#E4DDCD"/>
<circle cx="35" cy="34" r="7" fill="#7E796E"/>
<path d="M35 34L38 31" stroke="white" stroke-width="2" stroke-linecap="round"/>
<path d="M11.3061 6.65826C11.4498 6.26307 11.8254 6 12.2459 6H33.7541C34.1746 6 34.5502 6.26307 34.6939 6.65826L36.5121 11.6583C36.7493 12.3104 36.2663 13 35.5723 13H10.4277C9.73374 13 9.25075 12.3104 9.48791 11.6583L11.3061 6.65826Z" fill="#7E796E"/>
</g>
<defs>
<clipPath id="clip0_2588_96764">
<rect width="48" height="48" fill="white"/>
</clipPath>
</defs>
</svg>
