<svg width="48" height="48" viewBox="0 0 48 48" fill="none" xmlns="http://www.w3.org/2000/svg">
<path d="M9.62724 16.7274C9.74917 16.297 10.1421 16 10.5894 16H37.4106C37.8579 16 38.2508 16.297 38.3728 16.7274L40.6394 24.7274C40.8203 25.3657 40.3408 26 39.6773 26H8.3227C7.65923 26 7.17971 25.3657 7.36057 24.7274L9.62724 16.7274Z" fill="#D5CDBA"/>
<path d="M16.7934 7.50049C17.6481 7.007 18.6435 6.98301 19.484 7.34732C20.0328 7.5852 20.7338 7.54257 21.2504 7.24116C21.2543 7.23892 21.2581 7.23668 21.262 7.23446C22.6968 6.40603 24.5316 6.89766 25.3601 8.33253C25.3622 8.33623 25.3643 8.33994 25.3664 8.34365C25.6623 8.86126 26.2438 9.24749 26.8361 9.31616C27.745 9.42157 28.5937 9.93943 29.0866 10.793C29.7148 11.881 29.5836 13.1983 28.8579 14.1329C28.5056 14.5865 28.3542 15.2326 28.6849 15.7023L29.8308 17.3299C31.9945 20.4054 31.0534 24.6752 27.797 26.5555C24.5404 28.4357 20.3714 27.1161 18.7898 23.7045L17.9522 21.8991C17.7106 21.3783 17.0757 21.1867 16.507 21.265C15.3346 21.4264 14.1277 20.8815 13.4995 19.7934C13.0063 18.939 12.9823 17.9436 13.3462 17.103C13.5832 16.5556 13.5405 15.8577 13.2402 15.3423C13.2383 15.3389 13.2363 15.3356 13.2344 15.3322C12.4061 13.8973 12.8976 12.0625 14.3324 11.2341C14.8497 10.9355 15.2467 10.3482 15.315 9.75487C15.4197 8.8445 15.9385 7.99415 16.7934 7.50049Z" fill="#7E796E"/>
<path d="M20.503 19.213C20.8344 21.0744 23.0262 24.6844 25.7574 25.417" stroke="#EFEBE1" stroke-width="1.5" stroke-linecap="round" stroke-linejoin="round"/>
<path d="M24.9189 16.6698C26.3653 17.8876 28.3957 21.5907 27.6645 24.3222" stroke="#EFEBE1" stroke-width="1.5" stroke-linecap="round" stroke-linejoin="round"/>
<rect x="7" y="24" width="34" height="18" rx="1" fill="#E4DDCD"/>
<rect x="21" y="26" width="6" height="2" rx="1" fill="#7E796E"/>
</svg>
