<svg width="48" height="48" viewBox="0 0 48 48" fill="none" xmlns="http://www.w3.org/2000/svg">
<path d="M9.62724 16.7274C9.74917 16.297 10.1421 16 10.5894 16H37.4106C37.8579 16 38.2508 16.297 38.3728 16.7274L40.6394 24.7274C40.8203 25.3657 40.3408 26 39.6773 26H8.3227C7.65923 26 7.17971 25.3657 7.36057 24.7274L9.62724 16.7274Z" fill="#D5CDBA"/>
<path d="M13.7934 7.50049C14.6481 7.007 15.6435 6.98301 16.484 7.34732C17.0328 7.5852 17.7338 7.54257 18.2504 7.24116C18.2543 7.23892 18.2581 7.23668 18.262 7.23446C19.6968 6.40603 21.5316 6.89766 22.3601 8.33253C22.3622 8.33623 22.3643 8.33994 22.3664 8.34365C22.6623 8.86126 23.2438 9.24749 23.8361 9.31616C24.745 9.42157 25.5937 9.93943 26.0866 10.793C26.7148 11.881 26.5836 13.1983 25.8579 14.1329C25.5056 14.5865 25.3542 15.2326 25.6849 15.7023L26.8308 17.3299C28.9945 20.4054 28.0534 24.6752 24.797 26.5555C21.5404 28.4357 17.3714 27.1161 15.7898 23.7045L14.9522 21.8991C14.7106 21.3783 14.0757 21.1867 13.507 21.265C12.3346 21.4264 11.1277 20.8815 10.4995 19.7934C10.0063 18.939 9.98227 17.9436 10.3462 17.103C10.5832 16.5556 10.5405 15.8577 10.2402 15.3423C10.2383 15.3389 10.2363 15.3356 10.2344 15.3322C9.40611 13.8973 9.89763 12.0625 11.3324 11.2341C11.8497 10.9355 12.2467 10.3482 12.315 9.75487C12.4197 8.8445 12.9385 7.99415 13.7934 7.50049Z" fill="#7E796E"/>
<path d="M17.503 19.213C17.8344 21.0744 20.0262 24.6844 22.7574 25.417" stroke="#EFEBE1" stroke-width="1.5" stroke-linecap="round" stroke-linejoin="round"/>
<path d="M21.9189 16.6698C23.3653 17.8876 25.3957 21.5907 24.6645 24.3222" stroke="#EFEBE1" stroke-width="1.5" stroke-linecap="round" stroke-linejoin="round"/>
<rect x="7" y="24" width="34" height="18" rx="1" fill="#E4DDCD"/>
<path d="M26.7084 37.5188C26.5551 37.5188 26.4218 37.4621 26.3084 37.3488C26.2018 37.2354 26.1484 37.1021 26.1484 36.9488V30.7887C26.1484 30.6354 26.2018 30.5021 26.3084 30.3887C26.4218 30.2754 26.5551 30.2188 26.7084 30.2188H27.4484C27.6018 30.2188 27.7318 30.2754 27.8384 30.3887C27.9518 30.5021 28.0084 30.6354 28.0084 30.7887V36.9488C28.0084 37.1021 27.9518 37.2354 27.8384 37.3488C27.7318 37.4621 27.6018 37.5188 27.4484 37.5188H26.7084Z" fill="#504323"/>
<path d="M21.9608 31.6988L21.2308 34.5687C21.2241 34.5887 21.2275 34.6088 21.2408 34.6288C21.2608 34.6421 21.2808 34.6488 21.3008 34.6488H22.6408C22.6608 34.6488 22.6775 34.6421 22.6908 34.6288C22.7108 34.6088 22.7175 34.5887 22.7108 34.5687L21.9808 31.6988C21.9808 31.6921 21.9775 31.6888 21.9708 31.6888C21.9641 31.6888 21.9608 31.6921 21.9608 31.6988ZM19.2908 37.5188C19.1508 37.5188 19.0375 37.4621 18.9508 37.3488C18.8708 37.2354 18.8541 37.1121 18.9008 36.9788L20.9208 30.7587C20.9741 30.5987 21.0675 30.4687 21.2008 30.3687C21.3408 30.2687 21.4941 30.2188 21.6608 30.2188H22.3208C22.4941 30.2188 22.6508 30.2687 22.7908 30.3687C22.9308 30.4687 23.0241 30.5987 23.0708 30.7587L25.0808 36.9788C25.1275 37.1121 25.1075 37.2354 25.0208 37.3488C24.9408 37.4621 24.8308 37.5188 24.6908 37.5188H24.0208C23.8541 37.5188 23.7041 37.4688 23.5708 37.3688C23.4375 37.2621 23.3508 37.1288 23.3108 36.9688L23.0708 36.0188C23.0641 35.9654 23.0308 35.9388 22.9708 35.9388H20.9708C20.9175 35.9388 20.8841 35.9654 20.8708 36.0188L20.6308 36.9688C20.5908 37.1288 20.5041 37.2621 20.3708 37.3688C20.2375 37.4688 20.0875 37.5188 19.9208 37.5188H19.2908Z" fill="#504323"/>
<rect x="21" y="26.002" width="6" height="2" rx="1" fill="#7E796E"/>
<path d="M31.62 9.15522C31.7406 8.78853 32.2594 8.78853 32.38 9.15522L33.0232 11.1107C33.0595 11.2211 33.1421 11.3103 33.2494 11.355L35.1129 12.1307C35.4413 12.2674 35.4413 12.7326 35.1129 12.8693L33.2494 13.645C33.1421 13.6897 33.0595 13.7789 33.0232 13.8893L32.38 15.8448C32.2594 16.2115 31.7406 16.2115 31.62 15.8448L30.9768 13.8893C30.9405 13.7789 30.8579 13.6897 30.7506 13.645L28.8871 12.8693C28.5587 12.7326 28.5587 12.2674 28.8871 12.1307L30.7506 11.355C30.8579 11.3103 30.9405 11.2211 30.9768 11.1107L31.62 9.15522Z" fill="#7E796E"/>
<path d="M35.2133 14.9297C35.3003 14.6476 35.6997 14.6476 35.7867 14.9297L36.135 16.0593C36.1606 16.1422 36.2207 16.2099 36.2999 16.2451L37.3825 16.7258C37.6202 16.8313 37.6202 17.1687 37.3825 17.2742L36.2999 17.7549C36.2207 17.7901 36.1606 17.8578 36.135 17.9407L35.7867 19.0703C35.6997 19.3524 35.3003 19.3524 35.2133 19.0703L34.865 17.9407C34.8394 17.8578 34.7793 17.7901 34.7001 17.7549L33.6175 17.2742C33.3798 17.1687 33.3798 16.8313 33.6175 16.7258L34.7001 16.2451C34.7793 16.2099 34.8394 16.1422 34.865 16.0593L35.2133 14.9297Z" fill="#7E796E"/>
</svg>
