<svg width="48" height="48" viewBox="0 0 48 48" fill="none" xmlns="http://www.w3.org/2000/svg">
<rect x="9" y="7" width="16" height="24" rx="1" fill="#E4DDCD"/>
<rect x="15" y="31" width="4" height="5" fill="#E4DDCD"/>
<rect x="7" y="36" width="20" height="5" rx="1" fill="#E4DDCD"/>
<path d="M21 13C21 12.4477 21.4477 12 22 12H25V20H22C21.4477 20 21 19.5523 21 19V13Z" fill="#7E796E"/>
<path d="M30 28.9999C30.6566 28.3433 31.1774 27.5638 31.5328 26.7059C31.8881 25.848 32.071 24.9285 32.071 23.9999C32.071 23.0714 31.8881 22.1519 31.5328 21.294C31.1774 20.4361 30.6566 19.6566 30 19" stroke="#7E796E" stroke-width="2" stroke-linecap="round"/>
<path d="M33 31.9998C34.0506 30.9493 34.8839 29.7021 35.4525 28.3294C36.021 26.9568 36.3137 25.4856 36.3137 23.9999C36.3137 22.5142 36.021 21.043 35.4525 19.6704C34.8839 18.2978 34.0506 17.0506 33 16" stroke="#7E796E" stroke-width="2" stroke-linecap="round"/>
<path d="M36 34.9997C37.4445 33.5552 38.5904 31.8403 39.3722 29.953C40.1539 28.0656 40.5563 26.0427 40.5563 23.9999C40.5563 21.957 40.1539 19.9341 39.3722 18.0468C38.5904 16.1594 37.4445 14.4445 36 13" stroke="#7E796E" stroke-width="2" stroke-linecap="round"/>
</svg>
