<svg width="48" height="48" viewBox="0 0 48 48" fill="none" xmlns="http://www.w3.org/2000/svg">
<rect x="16" y="18" width="16" height="16" fill="#7E796E"/>
<circle cx="14" cy="26" r="10" fill="#E4DDCD"/>
<circle cx="34" cy="26" r="10" fill="#E4DDCD"/>
<path d="M30.1738 20.1821L32.1738 20.1821L32.1766 22.182" stroke="#7E796E" stroke-width="2" stroke-linecap="round" stroke-linejoin="round"/>
<path d="M30.6026 21.8867C27.8774 23.8463 27.246 27.6356 29.1923 30.3503C31.1386 33.065 34.9256 33.6771 37.6507 31.7175C39.5675 30.3392 40.4484 28.0558 40.1253 25.8778" stroke="#7E796E" stroke-width="2" stroke-linecap="round" stroke-linejoin="round"/>
<path d="M17.834 20.1821L15.834 20.1821L15.8313 22.182" stroke="#7E796E" stroke-width="2" stroke-linecap="round" stroke-linejoin="round"/>
<path d="M17.4052 21.8867C20.1304 23.8463 20.7618 27.6356 18.8155 30.3503C16.8692 33.065 13.0822 33.6771 10.3571 31.7175C8.44035 30.3392 7.55939 28.0558 7.88255 25.8778" stroke="#7E796E" stroke-width="2" stroke-linecap="round" stroke-linejoin="round"/>
<path d="M38.525 8.44403C38.6758 7.98566 39.3242 7.98566 39.475 8.44403L40.0089 10.0672C40.0543 10.2052 40.1575 10.3167 40.2917 10.3726L41.8911 11.0384C42.3016 11.2093 42.3016 11.7907 41.8911 11.9616L40.2917 12.6274C40.1575 12.6833 40.0543 12.7948 40.0089 12.9328L39.475 14.556C39.3242 15.0143 38.6758 15.0143 38.525 14.556L37.9911 12.9328C37.9457 12.7948 37.8425 12.6833 37.7083 12.6274L36.1089 11.9616C35.6984 11.7907 35.6984 11.2093 36.1089 11.0384L37.7083 10.3726C37.8425 10.3167 37.9457 10.2052 37.9911 10.0672L38.525 8.44403Z" fill="#7E796E"/>
<path d="M42.1178 14.2396C42.2338 13.8634 42.7662 13.8634 42.8822 14.2396L43.1216 15.0159C43.1557 15.1263 43.2359 15.2167 43.3415 15.2636L44.1767 15.6344C44.4936 15.7751 44.4936 16.2249 44.1767 16.3656L43.3415 16.7364C43.2359 16.7833 43.1557 16.8737 43.1216 16.9841L42.8822 17.7604C42.7662 18.1366 42.2338 18.1366 42.1178 17.7604L41.8784 16.9841C41.8443 16.8737 41.7641 16.7833 41.6585 16.7364L40.8233 16.3656C40.5064 16.2249 40.5064 15.7751 40.8233 15.6344L41.6585 15.2636C41.7641 15.2167 41.8443 15.1263 41.8784 15.0159L42.1178 14.2396Z" fill="#7E796E"/>
</svg>
