<svg width="48" height="48" viewBox="0 0 48 48" fill="none" xmlns="http://www.w3.org/2000/svg">
<path d="M22.9414 12.0088C23.4878 11.9305 23.9375 12.3854 23.9375 12.9375V19.168C23.975 19.1287 24.0114 19.0882 24.0498 19.0498C24.6998 18.3998 25.472 17.885 26.3213 17.5332C27.1706 17.1814 28.0807 17 29 17C29.9193 17 30.8294 17.1814 31.6787 17.5332C32.528 17.885 33.3002 18.3998 33.9502 19.0498C34.6002 19.6998 35.115 20.472 35.4668 21.3213C35.6906 21.8616 35.8458 22.4266 35.9287 23.0029C36.0073 23.5496 35.5523 24 35 24H28.8984C29.5429 24.6475 30.0546 25.4146 30.4043 26.2588C30.7561 27.108 30.9375 28.0183 30.9375 28.9375C30.9375 29.8568 30.7561 30.7669 30.4043 31.6162C30.0525 32.4655 29.5377 33.2377 28.8877 33.8877C28.2377 34.5377 27.4655 35.0525 26.6162 35.4043C26.0758 35.6281 25.5109 35.7833 24.9346 35.8662C24.3879 35.9448 23.9375 35.4898 23.9375 34.9375V28.835C23.9206 28.8522 23.9048 28.8706 23.8877 28.8877C23.2377 29.5377 22.4655 30.0535 21.6162 30.4053C20.767 30.757 19.8566 30.9375 18.9375 30.9375C18.0183 30.9375 17.108 30.757 16.2588 30.4053C15.4097 30.0535 14.6382 29.5376 13.9883 28.8877C13.3383 28.2377 12.8225 27.4655 12.4707 26.6162C12.2469 26.0758 12.0917 25.5109 12.0088 24.9346C11.9302 24.388 12.3853 23.9376 12.9375 23.9375H19.041C19.0237 23.9206 19.0054 23.9048 18.9883 23.8877C18.3383 23.2377 17.8225 22.4655 17.4707 21.6162C17.1189 20.7669 16.9375 19.8567 16.9375 18.9375C16.9375 18.0183 17.1189 17.108 17.4707 16.2588C17.8225 15.4096 18.3383 14.6383 18.9883 13.9883C19.6383 13.3383 20.4096 12.8225 21.2588 12.4707C21.7993 12.2468 22.3649 12.0917 22.9414 12.0088Z" fill="#E4DDCD"/>
<circle cx="24" cy="24" r="2" fill="#7E796E"/>
<path d="M42.6105 20.5006L40.8704 22.7304L38.6406 20.9902" stroke="#7E796E" stroke-width="2" stroke-linecap="round" stroke-linejoin="round"/>
<path d="M40.8327 21.6056C39.5101 12.3103 30.9027 5.84718 21.6075 7.1697C12.3123 8.49222 5.84913 17.0996 7.17165 26.3948C8.49418 35.6901 17.1016 42.1532 26.3968 40.8307C28.4149 40.5436 30.2996 39.913 32 39.0066" stroke="#7E796E" stroke-width="2" stroke-linecap="round" stroke-linejoin="round"/>
<circle cx="35" cy="36" r="1" transform="rotate(-90 35 36)" fill="#7E796E"/>
<circle cx="43" cy="28" r="1" transform="rotate(-90 43 28)" fill="#7E796E"/>
<path d="M39.5156 30V33.5" stroke="#7E796E" stroke-width="2" stroke-linecap="round"/>
<path d="M38.0078 32.6328L41.0389 30.8828" stroke="#7E796E" stroke-width="2" stroke-linecap="round"/>
<path d="M38 30.8828L41.0311 32.6328" stroke="#7E796E" stroke-width="2" stroke-linecap="round"/>
<circle cx="38" cy="26" r="1" transform="rotate(-90 38 26)" fill="#7E796E"/>
<circle cx="40" cy="38" r="1" transform="rotate(-90 40 38)" fill="#7E796E"/>
</svg>
