<svg width="48" height="48" viewBox="0 0 48 48" fill="none" xmlns="http://www.w3.org/2000/svg">
<path d="M24 43C20.287 43 16.726 41.5659 14.1005 39.0132C11.475 36.4604 10 32.9982 10 29.3881C10 20.3134 24 5 24 5C24 5 38 20.3134 38 29.3881C38 32.9982 36.525 36.4604 33.8995 39.0132C31.274 41.5659 27.713 43 24 43Z" fill="#E4DDCD"/>
<path d="M28.6178 6.23958C28.7338 5.86341 29.2662 5.86341 29.3822 6.23958L30.2968 9.20559C30.3309 9.31605 30.4111 9.40638 30.5167 9.4533L33.1767 10.6344C33.4936 10.7751 33.4936 11.2249 33.1767 11.3656L30.5167 12.5467C30.4111 12.5936 30.3309 12.6839 30.2968 12.7944L29.3822 15.7604C29.2662 16.1366 28.7338 16.1366 28.6178 15.7604L27.7032 12.7944C27.6691 12.6839 27.5889 12.5936 27.4833 12.5467L24.8233 11.3656C24.5064 11.2249 24.5064 10.7751 24.8233 10.6344L27.4833 9.4533C27.5889 9.40638 27.6691 9.31605 27.7032 9.20558L28.6178 6.23958Z" fill="#7E796E"/>
<path d="M35.6146 12.3888C35.723 11.9981 36.277 11.9981 36.3854 12.3888L36.7624 13.7471C36.7929 13.8569 36.8687 13.9485 36.9708 13.9989L38.2729 14.6413C38.5703 14.788 38.5703 15.212 38.2729 15.3587L36.9708 16.0011C36.8687 16.0515 36.7929 16.1431 36.7624 16.2529L36.3854 17.6112C36.277 18.0019 35.723 18.0019 35.6146 17.6112L35.2376 16.2529C35.2071 16.1431 35.1313 16.0515 35.0292 16.0011L33.7271 15.3587C33.4297 15.212 33.4297 14.788 33.7271 14.6413L35.0292 13.9989C35.1313 13.9485 35.2071 13.8569 35.2376 13.7471L35.6146 12.3888Z" fill="#7E796E"/>
<path d="M31.21 17.0973C31.2887 16.7996 31.7113 16.7996 31.79 17.0973L32.1412 18.4261C32.1629 18.508 32.2181 18.5769 32.2933 18.6158L33.4858 19.2336C33.7018 19.3455 33.7018 19.6545 33.4858 19.7664L32.2933 20.3842C32.2181 20.4231 32.1629 20.492 32.1412 20.5739L31.79 21.9027C31.7113 22.2004 31.2887 22.2004 31.21 21.9027L30.8588 20.5739C30.8371 20.492 30.7819 20.4231 30.7067 20.3842L29.5142 19.7664C29.2982 19.6545 29.2982 19.3455 29.5142 19.2336L30.7067 18.6158C30.7819 18.5769 30.8371 18.508 30.8588 18.4261L31.21 17.0973Z" fill="#7E796E"/>
</svg>
