<svg width="48" height="48" viewBox="0 0 48 48" fill="none" xmlns="http://www.w3.org/2000/svg">
<path d="M32 35H37M37 35L35 33M37 35L35 37" stroke="#7E796E" stroke-width="2" stroke-linecap="round" stroke-linejoin="round"/>
<path d="M14 17V12M14 12L12 14M14 12L16 14" stroke="#7E796E" stroke-width="2" stroke-linecap="round" stroke-linejoin="round"/>
<path d="M41 40V10C41 8.89543 40.1046 8 39 8H9" stroke="#7E796E" stroke-width="2" stroke-linecap="round"/>
<path d="M11.2218 22.2218C6.92606 26.5176 6.92606 33.4824 11.2218 37.7782C15.5176 42.0739 22.4824 42.0739 26.7782 37.7782C31.0739 33.4824 31.0739 26.5176 26.7782 22.2218C22.4824 17.9261 15.5176 17.9261 11.2218 22.2218Z" fill="#E4DDCD"/>
<path d="M22.6319 22.872C20.9347 22.0072 18.9846 21.7764 17.1324 22.2211C15.2803 22.6657 13.6475 23.7567 12.5279 25.2977C11.4082 26.8388 10.8752 28.7287 11.0247 30.6277C11.1741 32.5266 11.9962 34.3099 13.3432 35.6569C14.6901 37.0038 16.4734 37.8259 18.3723 37.9753C20.2713 38.1248 22.1613 37.5918 23.7023 36.4721C25.2433 35.3525 26.3343 33.7198 26.779 31.8676C27.2236 30.0154 26.9928 28.0653 26.1281 26.3681" stroke="#7E796E" stroke-width="2" stroke-linecap="round"/>
<circle cx="1" cy="1" r="1" transform="matrix(-0.707107 -0.707107 -0.707107 0.707107 25.625 24.8984)" fill="#7E796E"/>
<path d="M35.8334 20.3C35.6801 20.3 35.5468 20.2433 35.4334 20.13C35.3268 20.0167 35.2734 19.8833 35.2734 19.73V13.57C35.2734 13.4167 35.3268 13.2833 35.4334 13.17C35.5468 13.0567 35.6801 13 35.8334 13H36.5734C36.7268 13 36.8568 13.0567 36.9634 13.17C37.0768 13.2833 37.1334 13.4167 37.1334 13.57V19.73C37.1334 19.8833 37.0768 20.0167 36.9634 20.13C36.8568 20.2433 36.7268 20.3 36.5734 20.3H35.8334Z" fill="#504323"/>
<path d="M31.0858 14.48L30.3558 17.35C30.3491 17.37 30.3525 17.39 30.3658 17.41C30.3858 17.4233 30.4058 17.43 30.4258 17.43H31.7658C31.7858 17.43 31.8025 17.4233 31.8158 17.41C31.8358 17.39 31.8425 17.37 31.8358 17.35L31.1058 14.48C31.1058 14.4733 31.1025 14.47 31.0958 14.47C31.0891 14.47 31.0858 14.4733 31.0858 14.48ZM28.4158 20.3C28.2758 20.3 28.1625 20.2433 28.0758 20.13C27.9958 20.0167 27.9791 19.8933 28.0258 19.76L30.0458 13.54C30.0991 13.38 30.1925 13.25 30.3258 13.15C30.4658 13.05 30.6191 13 30.7858 13H31.4458C31.6191 13 31.7758 13.05 31.9158 13.15C32.0558 13.25 32.1491 13.38 32.1958 13.54L34.2058 19.76C34.2525 19.8933 34.2325 20.0167 34.1458 20.13C34.0658 20.2433 33.9558 20.3 33.8158 20.3H33.1458C32.9791 20.3 32.8291 20.25 32.6958 20.15C32.5625 20.0433 32.4758 19.91 32.4358 19.75L32.1958 18.8C32.1891 18.7467 32.1558 18.72 32.0958 18.72H30.0958C30.0425 18.72 30.0091 18.7467 29.9958 18.8L29.7558 19.75C29.7158 19.91 29.6291 20.0433 29.4958 20.15C29.3625 20.25 29.2125 20.3 29.0458 20.3H28.4158Z" fill="#504323"/>
</svg>
