<svg width="48" height="48" viewBox="0 0 48 48" fill="none" xmlns="http://www.w3.org/2000/svg">
<path d="M12.0857 20.9282C12.1234 20.4051 12.5587 20 13.0831 20H34.9144C35.4388 20 35.8741 20.4051 35.9118 20.9281L36.9214 34.9281C36.9632 35.5072 36.5046 36 35.924 36H12.0746C11.494 36 11.0355 35.5072 11.0772 34.9282L12.0857 20.9282Z" fill="#E4DDCD"/>
<rect x="8" y="17" width="32" height="4" rx="1" fill="#7E796E"/>
<path d="M14 18L17.7222 12H32" stroke="#7E796E" stroke-width="4" stroke-linecap="round" stroke-linejoin="round"/>
<path d="M15 26C15 26.5523 15.4477 27 16 27C16.5523 27 17 26.5523 17 26H16H15ZM16 21H15V26H16H17V21H16Z" fill="#7E796E"/>
<path d="M20 26C20 26.5523 20.4477 27 21 27C21.5523 27 22 26.5523 22 26H21H20ZM21 21H20V26H21H22V21H21Z" fill="#7E796E"/>
<path d="M26 26C26 26.5523 26.4477 27 27 27C27.5523 27 28 26.5523 28 26H27H26ZM27 21H26V26H27H28V21H27Z" fill="#7E796E"/>
<path d="M31 26C31 26.5523 31.4477 27 32 27C32.5523 27 33 26.5523 33 26H32H31ZM32 21H31V26H32H33V21H32Z" fill="#7E796E"/>
<path d="M34 31.5H30C27.7909 31.5 26 33.2909 26 35.5C26 37.7091 27.7909 39.5 30 39.5H30.1953" stroke="#7E796E" stroke-width="2" stroke-linecap="round"/>
<path d="M34.6094 39.5H38.6094C40.8185 39.5 42.6094 37.7091 42.6094 35.5C42.6094 33.2909 40.8185 31.5 38.6094 31.5H38.1992" stroke="#7E796E" stroke-width="2" stroke-linecap="round"/>
<path d="M34.6953 30L35.6953 31.5L34.6953 33" stroke="#7E796E" stroke-width="2" stroke-linecap="round" stroke-linejoin="round"/>
<path d="M33.6953 38L32.6953 39.5L33.6953 41" stroke="#7E796E" stroke-width="2" stroke-linecap="round" stroke-linejoin="round"/>
<path d="M38.525 8.44403C38.6758 7.98566 39.3242 7.98566 39.475 8.44403L40.0089 10.0672C40.0543 10.2052 40.1575 10.3167 40.2917 10.3726L41.8911 11.0384C42.3016 11.2093 42.3016 11.7907 41.8911 11.9616L40.2917 12.6274C40.1575 12.6833 40.0543 12.7948 40.0089 12.9328L39.475 14.556C39.3242 15.0143 38.6758 15.0143 38.525 14.556L37.9911 12.9328C37.9457 12.7948 37.8425 12.6833 37.7083 12.6274L36.1089 11.9616C35.6984 11.7907 35.6984 11.2093 36.1089 11.0384L37.7083 10.3726C37.8425 10.3167 37.9457 10.2052 37.9911 10.0672L38.525 8.44403Z" fill="#7E796E"/>
<path d="M8.61872 35.2021C8.73674 34.83 9.26326 34.83 9.38128 35.2021L9.75509 36.3807C9.79014 36.4912 9.8714 36.5811 9.97784 36.627L11.1493 37.1328C11.4713 37.2717 11.4713 37.7283 11.1493 37.8672L9.97784 38.373C9.8714 38.4189 9.79014 38.5088 9.75509 38.6193L9.38128 39.7979C9.26326 40.17 8.73674 40.17 8.61872 39.7979L8.24491 38.6193C8.20986 38.5088 8.1286 38.4189 8.02216 38.373L6.85067 37.8672C6.52873 37.7283 6.52872 37.2717 6.85067 37.1328L8.02216 36.627C8.1286 36.5811 8.20986 36.4912 8.24491 36.3807L8.61872 35.2021Z" fill="#7E796E"/>
</svg>
