<svg width="48" height="48" viewBox="0 0 48 48" fill="none" xmlns="http://www.w3.org/2000/svg">
<path d="M28.875 7C30.4502 7.00004 31.8302 7.83301 32.6006 9.08203C33.3169 8.33799 34.3231 7.87502 35.4375 7.875C37.2662 7.875 38.8031 9.12178 39.2461 10.8115C40.8595 11.4557 41.9999 13.0317 42 14.875C42 17.0177 40.4595 18.7995 38.4258 19.1758C38.0496 21.2096 36.2678 22.75 34.125 22.75C32.6935 22.7499 31.4222 22.0629 30.624 21C29.8929 21.5491 28.9847 21.875 28 21.875C26.1062 21.875 24.4937 20.6719 23.8848 18.9883C22.2025 18.3786 21 16.7678 21 14.875C21 12.7327 22.54 10.9509 24.5732 10.5742C24.9495 8.54042 26.7323 7 28.875 7Z" fill="#E4DDCD"/>
<circle cx="28.473" cy="11.2386" r="0.605781" fill="white"/>
<circle cx="32.1058" cy="14.2698" r="0.605781" fill="white"/>
<circle cx="27.6058" cy="16.6058" r="0.605781" fill="white"/>
<circle cx="33.9261" cy="17.9027" r="0.605781" fill="white"/>
<circle cx="36.9495" cy="12.4495" r="0.605781" fill="white"/>
<path d="M15.1406 22.0078C15.5972 21.942 15.9726 22.3219 15.9727 22.7832V28.0088C16.0052 27.9746 16.037 27.9397 16.0703 27.9062C16.6132 27.3619 17.2574 26.9294 17.9668 26.6348C18.6761 26.3402 19.4364 26.1895 20.2041 26.1895C20.9719 26.1895 21.733 26.3402 22.4424 26.6348C23.1517 26.9294 23.796 27.3619 24.3389 27.9062C24.8817 28.4505 25.3126 29.0965 25.6064 29.8076C25.7937 30.2609 25.923 30.7352 25.9922 31.2188C26.0575 31.6754 25.6771 32.0508 25.2158 32.0508H20.1152C20.6534 32.593 21.081 33.2355 21.373 33.9424C21.6668 34.6535 21.8184 35.4158 21.8184 36.1855C21.8183 36.9553 21.6668 37.7175 21.373 38.4287C21.0792 39.14 20.6484 39.7867 20.1055 40.3311C19.5626 40.8752 18.9182 41.307 18.209 41.6016C17.7575 41.7891 17.2852 41.9188 16.8037 41.9883C16.3472 42.0541 15.9717 41.6732 15.9717 41.2119V36.0967C15.9571 36.1116 15.9435 36.1278 15.9287 36.1426C15.3859 36.6868 14.7414 37.1185 14.0322 37.4131C13.323 37.7076 12.5626 37.8593 11.7949 37.8594C11.0271 37.8594 10.266 37.7077 9.55664 37.4131C8.84745 37.1185 8.20297 36.6868 7.66016 36.1426C7.11723 35.5982 6.68641 34.9515 6.39258 34.2402C6.20543 33.7872 6.07602 33.3133 6.00684 32.8301C5.9415 32.3734 6.3219 31.9971 6.7832 31.9971H11.8828C11.8684 31.9829 11.8531 31.9694 11.8389 31.9551C11.296 31.4108 10.8651 30.7649 10.5713 30.0537C10.2775 29.3426 10.126 28.5803 10.126 27.8105C10.126 27.0409 10.2776 26.2785 10.5713 25.5674C10.8651 24.8561 11.2959 24.2094 11.8389 23.665C12.3817 23.1208 13.0261 22.6891 13.7354 22.3945C14.1868 22.207 14.6591 22.0773 15.1406 22.0078Z" fill="#E4DDCD"/>
<circle cx="16" cy="31.9961" r="2" fill="#7E796E"/>
<path d="M33 29V38M33 38L36 35.6M33 38L30 35.6" stroke="#7E796E" stroke-width="2" stroke-linecap="round" stroke-linejoin="round"/>
<path d="M15 19V10M15 10L18 12.4M15 10L12 12.4" stroke="#7E796E" stroke-width="2" stroke-linecap="round" stroke-linejoin="round"/>
</svg>
