<svg width="48" height="48" viewBox="0 0 48 48" fill="none" xmlns="http://www.w3.org/2000/svg">
<rect x="17" y="6" width="14" height="23" rx="1" fill="#E4DDCD"/>
<path d="M20 29H28V31C28 31.5523 27.5523 32 27 32H21C20.4477 32 20 31.5523 20 31V29Z" fill="#D5CDBA"/>
<path d="M20 34L19.4422 34.7437C18.659 35.788 18.9138 37.2759 20 38C21.0862 38.7241 21.341 40.212 20.5578 41.2563L20 42" stroke="#7E796E" stroke-width="2" stroke-linecap="round" stroke-linejoin="round"/>
<path d="M24 34L23.4422 34.7437C22.659 35.788 22.9138 37.2759 24 38C25.0862 38.7241 25.341 40.212 24.5578 41.2563L24 42" stroke="#7E796E" stroke-width="2" stroke-linecap="round" stroke-linejoin="round"/>
<path d="M28 34L27.4422 34.7437C26.659 35.788 26.9138 37.2759 28 38C29.0862 38.7241 29.341 40.212 28.5578 41.2563L28 42" stroke="#7E796E" stroke-width="2" stroke-linecap="round" stroke-linejoin="round"/>
<path d="M10.5206 20.6196C10.6619 20.1421 11.3381 20.1421 11.4794 20.6196L12.0162 22.4326C12.057 22.5705 12.1552 22.6841 12.2857 22.7445L14.0189 23.5462C14.4057 23.7251 14.4057 24.2749 14.0189 24.4538L12.2857 25.2555C12.1552 25.3159 12.057 25.4295 12.0162 25.5674L11.4794 27.3804C11.3381 27.8579 10.6619 27.8579 10.5206 27.3804L9.98385 25.5674C9.94303 25.4295 9.84483 25.3159 9.71432 25.2555L7.98111 24.4538C7.59432 24.2749 7.59432 23.7251 7.98111 23.5462L9.71432 22.7445C9.84483 22.6841 9.94303 22.5705 9.98385 22.4326L10.5206 20.6196Z" fill="#7E796E"/>
<path d="M36.1195 26.1753C36.2389 25.8063 36.7611 25.8063 36.8805 26.1753L37.389 27.7457C37.4248 27.8561 37.5068 27.9456 37.6137 27.9909L39.1288 28.6316C39.4544 28.7693 39.4544 29.2307 39.1288 29.3684L37.6137 30.0091C37.5068 30.0544 37.4248 30.1439 37.389 30.2543L36.8805 31.8247C36.7611 32.1937 36.2389 32.1937 36.1195 31.8247L35.611 30.2543C35.5752 30.1439 35.4932 30.0544 35.3863 30.0091L33.8712 29.3684C33.5456 29.2307 33.5456 28.7693 33.8712 28.6316L35.3863 27.9909C35.4932 27.9456 35.5752 27.8561 35.611 27.7457L36.1195 26.1753Z" fill="#7E796E"/>
</svg>
