<svg width="48" height="48" viewBox="0 0 48 48" fill="none" xmlns="http://www.w3.org/2000/svg">
<rect x="12" y="5" width="24" height="32" rx="1" fill="#E4DDCD"/>
<path d="M24.6365 11.3295L18.1361 20.3309C18.0547 20.4438 18.008 20.5751 18.0009 20.7106C17.9939 20.8461 18.0268 20.9809 18.0962 21.1005C18.1656 21.2201 18.2688 21.3201 18.3949 21.3899C18.521 21.4596 18.6652 21.4965 18.8121 21.4966H24.3212L22.8911 28.1006C22.7189 28.9062 23.8695 29.3458 24.3635 28.6632L30.8639 19.6618C30.9453 19.5488 30.992 19.4176 30.9991 19.2821C31.0061 19.1465 30.9732 19.0118 30.9038 18.8922C30.8344 18.7725 30.7312 18.6725 30.6051 18.6028C30.4791 18.533 30.3348 18.4962 30.1879 18.4961H24.6788L26.1089 11.8921C26.2811 11.0865 25.1192 10.6634 24.6365 11.3295Z" fill="#7E796E"/>
<rect x="8" y="35" width="32" height="8" rx="1" fill="#7E796E"/>
<path d="M19 35C19 33.8954 19.8954 33 21 33H27C28.1046 33 29 33.8954 29 35H19Z" fill="#7E796E"/>
<path d="M18 39C18 38.4477 18.4477 38 19 38H29C29.5523 38 30 38.4477 30 39C30 39.5523 29.5523 40 29 40H19C18.4477 40 18 39.5523 18 39Z" fill="white"/>
</svg>
