<svg width="48" height="48" viewBox="0 0 48 48" fill="none" xmlns="http://www.w3.org/2000/svg">
<line x1="1" y1="-1" x2="7.44372" y2="-1" transform="matrix(0.532941 -0.846153 -0.883852 -0.467766 13 18.1406)" stroke="#7E796E" stroke-width="2" stroke-linecap="round" stroke-dasharray="1 3"/>
<line x1="1" y1="-1" x2="7.44372" y2="-1" transform="matrix(-0.532941 -0.846153 0.883852 -0.467766 34.5 18.1406)" stroke="#7E796E" stroke-width="2" stroke-linecap="round" stroke-dasharray="1 3"/>
<line x1="24" y1="20" x2="24" y2="13" stroke="#7E796E" stroke-width="2" stroke-linecap="round" stroke-dasharray="1 3"/>
<path d="M35.2772 20.0145C35.538 19.943 35.795 20.1406 35.8172 20.4101C37.6397 42.5324 25.4875 42.5566 22.8958 42.8455C22.7751 42.859 22.6575 42.8134 22.5804 42.7196C22.5202 42.6462 22.4921 42.5509 22.5024 42.4565C23.3638 34.629 26.2631 29.6965 28.4062 27.041C28.5846 26.8196 28.5456 26.498 28.3193 26.3232C28.093 26.1488 27.7646 26.1869 27.5859 26.4082C25.5216 28.9661 22.8499 33.4616 21.733 40.3562C21.6698 40.7465 21.164 40.8647 20.9495 40.5326C13.6933 29.2979 26.8536 22.3256 35.2772 20.0145Z" fill="#D5CDBA"/>
<path d="M13.6433 21.31C13.769 21.0792 14.0759 21.0244 14.284 21.1849C26.4235 30.5454 22.6691 40.4087 21.0664 42.5362C21.0134 42.6066 20.9255 42.6306 20.8409 42.606C20.7752 42.5869 20.7217 42.5396 20.6953 42.4766C20.1832 41.2544 19.7339 39.9142 19.3555 38.5654C18.567 35.7548 18.1067 32.9842 18.0117 31.3125C17.9937 30.9963 17.7168 30.7542 17.3936 30.7715C17.0706 30.7892 16.8233 31.0591 16.8408 31.375C16.9414 33.146 17.4197 35.9997 18.2246 38.8691C18.4441 39.6517 18.6895 40.4417 18.9604 41.2158C19.0844 41.57 18.7397 41.9114 18.3938 41.7657C8.0874 37.4251 10.6584 26.7905 13.6433 21.31Z" fill="#E4DDCD"/>
<path d="M11 8C11 7.44772 11.4477 7 12 7H36C36.5523 7 37 7.44772 37 8V10C37 10.5523 36.5523 11 36 11H12C11.4477 11 11 10.5523 11 10V8Z" fill="#7E796E"/>
</svg>
