<svg width="48" height="48" viewBox="0 0 48 48" fill="none" xmlns="http://www.w3.org/2000/svg">
<circle cx="24" cy="28" r="15" fill="#E4DDCD"/>
<path d="M28.6488 18.0306C30.915 19.0873 32.7535 20.8846 33.8614 23.1262C34.9692 25.3678 35.2803 27.92 34.7434 30.3621C34.2065 32.8042 32.8535 34.9905 30.9076 36.5607C28.9616 38.1309 26.5388 38.9912 24.0384 38.9999C21.538 39.0087 19.1092 38.1652 17.1523 36.6087C15.1955 35.0521 13.8273 32.8753 13.2734 30.437C12.7194 27.9987 13.0127 25.4445 14.1049 23.1952C15.1971 20.9459 17.023 19.1358 19.2817 18.0633" stroke="#7E796E" stroke-width="2" stroke-linecap="round"/>
<circle cx="24" cy="18" r="2" fill="#7E796E"/>
<path d="M28 11C27.6754 10.4105 27.1232 9.90589 26.4131 9.5499C25.703 9.19391 24.8669 9.00255 24.0106 9.00003C23.1543 8.9975 22.3162 9.18392 21.6023 9.53571C20.8884 9.8875 20.3308 10.3889 20 10.9764" stroke="#7E796E" stroke-width="2" stroke-linecap="round"/>
<path d="M31 10C30.432 8.82106 29.4656 7.81179 28.2229 7.0998C26.9802 6.38782 25.5171 6.0051 24.0185 6.00005C22.52 5.995 21.0534 6.36784 19.8041 7.07142C18.5548 7.77501 17.579 8.77774 17 9.95281" stroke="#7E796E" stroke-width="2" stroke-linecap="round"/>
<path d="M26.5366 31.3C26.3832 31.3 26.2499 31.2433 26.1366 31.13C26.0299 31.0167 25.9766 30.8833 25.9766 30.73V24.57C25.9766 24.4167 26.0299 24.2833 26.1366 24.17C26.2499 24.0567 26.3832 24 26.5366 24H27.2766C27.4299 24 27.5599 24.0567 27.6666 24.17C27.7799 24.2833 27.8366 24.4167 27.8366 24.57V30.73C27.8366 30.8833 27.7799 31.0167 27.6666 31.13C27.5599 31.2433 27.4299 31.3 27.2766 31.3H26.5366Z" fill="#504323"/>
<path d="M22.0858 25.48L21.3558 28.35C21.3491 28.37 21.3525 28.39 21.3658 28.41C21.3858 28.4233 21.4058 28.43 21.4258 28.43H22.7658C22.7858 28.43 22.8025 28.4233 22.8158 28.41C22.8358 28.39 22.8425 28.37 22.8358 28.35L22.1058 25.48C22.1058 25.4733 22.1025 25.47 22.0958 25.47C22.0891 25.47 22.0858 25.4733 22.0858 25.48ZM19.4158 31.3C19.2758 31.3 19.1625 31.2433 19.0758 31.13C18.9958 31.0167 18.9791 30.8933 19.0258 30.76L21.0458 24.54C21.0991 24.38 21.1925 24.25 21.3258 24.15C21.4658 24.05 21.6191 24 21.7858 24H22.4458C22.6191 24 22.7758 24.05 22.9158 24.15C23.0558 24.25 23.1491 24.38 23.1958 24.54L25.2058 30.76C25.2525 30.8933 25.2325 31.0167 25.1458 31.13C25.0658 31.2433 24.9558 31.3 24.8158 31.3H24.1458C23.9791 31.3 23.8291 31.25 23.6958 31.15C23.5625 31.0433 23.4758 30.91 23.4358 30.75L23.1958 29.8C23.1891 29.7467 23.1558 29.72 23.0958 29.72H21.0958C21.0425 29.72 21.0091 29.7467 20.9958 29.8L20.7558 30.75C20.7158 30.91 20.6291 31.0433 20.4958 31.15C20.3625 31.25 20.2125 31.3 20.0458 31.3H19.4158Z" fill="#504323"/>
</svg>
