<svg width="48" height="48" viewBox="0 0 48 48" fill="none" xmlns="http://www.w3.org/2000/svg">
<rect x="14" y="8" width="20" height="32" rx="1" fill="#E4DDCD"/>
<path d="M19 6C19 5.44772 19.4477 5 20 5H28C28.5523 5 29 5.44772 29 6V8H19V6Z" fill="#7E796E"/>
<path d="M19 40H29V42C29 42.5523 28.5523 43 28 43H20C19.4477 43 19 42.5523 19 42V40Z" fill="#7E796E"/>
<path d="M28 25.9024C28 28.1655 26.2091 30 24 30C21.7909 30 20 28.1655 20 25.9024C20 22.8394 24 18 24 18C24 18 28 22.8394 28 25.9024Z" fill="#7E796E"/>
<path d="M38.6165 9.29565C38.7295 8.9137 39.2705 8.91371 39.3835 9.29565L40.029 11.476C40.0616 11.5863 40.1402 11.6772 40.2446 11.7255L42.2151 12.637C42.5245 12.7801 42.5245 13.2199 42.2151 13.363L40.2446 14.2745C40.1402 14.3228 40.0616 14.4137 40.029 14.524L39.3835 16.7043C39.2705 17.0863 38.7295 17.0863 38.6165 16.7043L37.971 14.524C37.9384 14.4137 37.8598 14.3228 37.7554 14.2745L35.7849 13.363C35.4755 13.2199 35.4755 12.7801 35.7849 12.637L37.7554 11.7255C37.8598 11.6772 37.9384 11.5863 37.971 11.476L38.6165 9.29565Z" fill="#7E796E"/>
<path d="M9.1156 32.3356C9.22664 31.9498 9.77335 31.9498 9.8844 32.3356L10.3955 34.1114C10.4272 34.2215 10.5046 34.3128 10.608 34.362L12.2408 35.1388C12.545 35.2835 12.545 35.7165 12.2408 35.8612L10.608 36.638C10.5046 36.6872 10.4272 36.7785 10.3955 36.8886L9.8844 38.6644C9.77336 39.0502 9.22665 39.0502 9.1156 38.6644L8.60452 36.8886C8.57283 36.7785 8.49544 36.6872 8.39197 36.638L6.75922 35.8612C6.45502 35.7165 6.45502 35.2835 6.75922 35.1388L8.39197 34.362C8.49544 34.3128 8.57283 34.2215 8.60452 34.1114L9.1156 32.3356Z" fill="#7E796E"/>
</svg>
