<svg width="48" height="48" viewBox="0 0 48 48" fill="none" xmlns="http://www.w3.org/2000/svg">
<path d="M38 29C38 36.732 31.732 43 24 43C16.268 43 10 36.732 10 29C10 21.268 16.268 15 24 15C31.732 15 38 21.268 38 29Z" fill="#E4DDCD"/>
<path d="M28.9939 19.1989C31.1954 20.3207 32.9551 22.1509 33.9896 24.3947C35.024 26.6386 35.2729 29.1654 34.6961 31.5679C34.1193 33.9704 32.7504 36.1088 30.81 37.6385C28.8697 39.1682 26.4708 40 24 40C21.5292 40 19.1303 39.1681 17.19 37.6385C15.2496 36.1088 13.8807 33.9704 13.3039 31.5679C12.7271 29.1654 12.976 26.6386 14.0104 24.3947C15.0449 22.1509 16.8046 20.3206 19.0061 19.1989" stroke="#7E796E" stroke-width="2" stroke-linecap="round"/>
<circle cx="24" cy="19" r="2" transform="rotate(-180 24 19)" fill="#7E796E"/>
<path d="M36 7L28.9289 13" stroke="#7E796E" stroke-width="2" stroke-linecap="round" stroke-dasharray="3 3"/>
<path d="M12 7L19.0711 13" stroke="#7E796E" stroke-width="2" stroke-linecap="round" stroke-dasharray="3 3"/>
<path d="M26.5366 32.3C26.3832 32.3 26.2499 32.2433 26.1366 32.13C26.0299 32.0167 25.9766 31.8833 25.9766 31.73V25.57C25.9766 25.4167 26.0299 25.2833 26.1366 25.17C26.2499 25.0567 26.3832 25 26.5366 25H27.2766C27.4299 25 27.5599 25.0567 27.6666 25.17C27.7799 25.2833 27.8366 25.4167 27.8366 25.57V31.73C27.8366 31.8833 27.7799 32.0167 27.6666 32.13C27.5599 32.2433 27.4299 32.3 27.2766 32.3H26.5366Z" fill="#504323"/>
<path d="M22.0858 26.48L21.3558 29.35C21.3491 29.37 21.3525 29.39 21.3658 29.41C21.3858 29.4233 21.4058 29.43 21.4258 29.43H22.7658C22.7858 29.43 22.8025 29.4233 22.8158 29.41C22.8358 29.39 22.8425 29.37 22.8358 29.35L22.1058 26.48C22.1058 26.4733 22.1025 26.47 22.0958 26.47C22.0891 26.47 22.0858 26.4733 22.0858 26.48ZM19.4158 32.3C19.2758 32.3 19.1625 32.2433 19.0758 32.13C18.9958 32.0167 18.9791 31.8933 19.0258 31.76L21.0458 25.54C21.0991 25.38 21.1925 25.25 21.3258 25.15C21.4658 25.05 21.6191 25 21.7858 25H22.4458C22.6191 25 22.7758 25.05 22.9158 25.15C23.0558 25.25 23.1491 25.38 23.1958 25.54L25.2058 31.76C25.2525 31.8933 25.2325 32.0167 25.1458 32.13C25.0658 32.2433 24.9558 32.3 24.8158 32.3H24.1458C23.9791 32.3 23.8291 32.25 23.6958 32.15C23.5625 32.0433 23.4758 31.91 23.4358 31.75L23.1958 30.8C23.1891 30.7467 23.1558 30.72 23.0958 30.72H21.0958C21.0425 30.72 21.0091 30.7467 20.9958 30.8L20.7558 31.75C20.7158 31.91 20.6291 32.0433 20.4958 32.15C20.3625 32.25 20.2125 32.3 20.0458 32.3H19.4158Z" fill="#504323"/>
<path d="M36.525 12.444C36.6758 11.9857 37.3242 11.9857 37.475 12.444L38.0089 14.0672C38.0543 14.2052 38.1575 14.3167 38.2917 14.3726L39.8911 15.0384C40.3016 15.2093 40.3016 15.7907 39.8911 15.9616L38.2917 16.6274C38.1575 16.6833 38.0543 16.7948 38.0089 16.9328L37.475 18.556C37.3242 19.0143 36.6758 19.0143 36.525 18.556L35.9911 16.9328C35.9457 16.7948 35.8425 16.6833 35.7083 16.6274L34.1089 15.9616C33.6984 15.7907 33.6984 15.2093 34.1089 15.0384L35.7083 14.3726C35.8425 14.3167 35.9457 14.2052 35.9911 14.0672L36.525 12.444Z" fill="#7E796E"/>
<path d="M40.1178 18.2396C40.2338 17.8634 40.7662 17.8634 40.8822 18.2396L41.1216 19.0159C41.1557 19.1263 41.2359 19.2167 41.3415 19.2636L42.1767 19.6344C42.4936 19.7751 42.4936 20.2249 42.1767 20.3656L41.3415 20.7364C41.2359 20.7833 41.1557 20.8737 41.1216 20.9841L40.8822 21.7604C40.7662 22.1366 40.2338 22.1366 40.1178 21.7604L39.8784 20.9841C39.8443 20.8737 39.7641 20.7833 39.6585 20.7364L38.8233 20.3656C38.5064 20.2249 38.5064 19.7751 38.8233 19.6344L39.6585 19.2636C39.7641 19.2167 39.8443 19.1263 39.8784 19.0159L40.1178 18.2396Z" fill="#7E796E"/>
</svg>
