<svg width="48" height="48" viewBox="0 0 48 48" fill="none" xmlns="http://www.w3.org/2000/svg">
<rect x="9" y="6" width="26" height="36" rx="1" fill="#E4DDCD"/>
<circle cx="22" cy="37" r="2" fill="#7E796E"/>
<path d="M19 10H25" stroke="#7E796E" stroke-width="2" stroke-linecap="round"/>
<path d="M42 24.0857C42 28.3114 36.1063 31.8504 34.4363 32.7684C34.161 32.9197 33.839 32.9197 33.5637 32.7684C31.8937 31.8504 26 28.3114 26 24.0857C26 22.2255 26 19.62 26 18.3732C26 17.9422 26.2761 17.5615 26.6852 17.4259L33.6852 15.1044C33.8896 15.0366 34.1104 15.0366 34.3148 15.1044L41.3148 17.4259C41.7239 17.5615 42 17.9422 42 18.3732C42 19.62 42 22.2255 42 24.0857Z" fill="#D9D9D9"/>
<path d="M42 24.0857C42 28.3114 36.1063 31.8504 34.4363 32.7684C34.161 32.9197 33.839 32.9197 33.5637 32.7684C31.8937 31.8504 26 28.3114 26 24.0857C26 22.2255 26 19.62 26 18.3732C26 17.9422 26.2761 17.5615 26.6852 17.4259L33.6852 15.1044C33.8896 15.0366 34.1104 15.0366 34.3148 15.1044L41.3148 17.4259C41.7239 17.5615 42 17.9422 42 18.3732C42 19.62 42 22.2255 42 24.0857Z" fill="#7E796E"/>
<path d="M31 23.1429L33.1634 26L37 21" stroke="white" stroke-width="2" stroke-linecap="round" stroke-linejoin="round"/>
</svg>
