<svg width="48" height="48" viewBox="0 0 48 48" fill="none" xmlns="http://www.w3.org/2000/svg">
<path d="M38.8877 13.0046L38.8892 13.0023L38.8906 13C41.7123 13.0013 44 16.7607 44 21.3972V27.6028C44 32.239 41.7126 35.9983 38.8911 36L38.8892 35.9969L38.8871 35.9938C38.8646 35.9964 38.8418 36 38.8189 36L15.0008 36C14.2469 35.9999 13.7647 34.6812 14.1181 33.5871L20.4896 13.8728C20.6631 13.336 21.0024 13 21.3723 13H38.8189C38.8419 13 38.865 13.0021 38.8877 13.0046Z" fill="#E4DDCD"/>
<path d="M5 24H19.997M19.997 24L17.997 22M19.997 24L17.997 26" stroke="#7E796E" stroke-width="2" stroke-linecap="round" stroke-linejoin="round"/>
<path d="M16 18H8C6.34315 18 5 16.6569 5 15M16 18L14 16M16 18L14 20" stroke="#7E796E" stroke-width="2" stroke-linecap="round" stroke-linejoin="round"/>
<path d="M16 30H8C6.3434 30 5.00069 31.3434 5.00155 33M16 30L14 28M16 30L14 32" stroke="#7E796E" stroke-width="2" stroke-linecap="round" stroke-linejoin="round"/>
</svg>
