<svg width="48" height="48" viewBox="0 0 48 48" fill="none" xmlns="http://www.w3.org/2000/svg">
<path d="M26.4336 17.4434C29.0078 14.9075 33.4023 14.9223 35.1475 15.042C35.5923 15.0725 35.9358 15.4104 35.9668 15.8486C36.0884 17.5677 36.1026 21.8975 33.5283 24.4336C31.0408 26.8839 26.8538 26.9509 25 26.8447V36.1426C25 36.616 24.5523 37 24 37C23.4477 37 23 36.616 23 36.1426V26.8457C21.1424 26.9513 16.9627 26.8809 14.4785 24.4336C11.9042 21.8975 11.9195 17.5677 12.041 15.8486C12.072 15.4105 12.4146 15.0726 12.8594 15.042C14.6043 14.9222 18.9999 14.9072 21.5742 17.4434C23.2904 19.1341 23.8526 21.6225 24.0029 23.6025C24.1532 21.6225 24.7173 19.1341 26.4336 17.4434Z" fill="#E4DDCD"/>
<path d="M13.1055 38.3374C15.1366 39.8818 17.4726 40.9754 19.9583 41.5457C22.4439 42.1159 25.0223 42.1498 27.522 41.6449C30.0216 41.14 32.3854 40.108 34.4563 38.6174C36.5271 37.1268 38.2575 35.2119 39.5325 32.9997M12.9712 40.8069L12.5586 37.8761L15.3596 37.3963M17.0063 7.40422C14.6556 8.39407 12.542 9.87374 10.8062 11.7449C9.07035 13.6161 7.75195 15.8359 6.9386 18.2568C6.12525 20.6777 5.83559 23.2443 6.08885 25.786C6.34212 28.3278 7.13252 30.7864 8.40752 32.9985M14.9385 6.05313L17.6785 7.16059L16.6928 9.83031M41.798 26.2566C42.1176 23.7224 41.8951 21.1491 41.1453 18.7076C40.3955 16.2662 39.1356 14.0126 37.4492 12.0966C35.7629 10.1805 33.6888 8.64594 31.3647 7.59479C29.0406 6.54364 26.5198 6 23.9698 6M44 25.1383L41.6725 26.9616L39.8572 24.7717" stroke="#7E796E" stroke-width="2" stroke-linecap="round" stroke-linejoin="round"/>
<path d="M31.62 13.1552C31.7406 12.7885 32.2594 12.7885 32.38 13.1552L33.0232 15.1107C33.0595 15.2211 33.1421 15.3103 33.2494 15.355L35.1129 16.1307C35.4413 16.2674 35.4413 16.7326 35.1129 16.8693L33.2494 17.645C33.1421 17.6897 33.0595 17.7789 33.0232 17.8893L32.38 19.8448C32.2594 20.2115 31.7406 20.2115 31.62 19.8448L30.9768 17.8893C30.9405 17.7789 30.8579 17.6897 30.7506 17.645L28.8871 16.8693C28.5587 16.7326 28.5587 16.2674 28.8871 16.1307L30.7506 15.355C30.8579 15.3103 30.9405 15.2211 30.9768 15.1107L31.62 13.1552Z" fill="#7E796E"/>
<path d="M35.2133 18.9297C35.3003 18.6476 35.6997 18.6476 35.7867 18.9297L36.135 20.0593C36.1606 20.1422 36.2207 20.2099 36.2999 20.2451L37.3825 20.7258C37.6202 20.8313 37.6202 21.1687 37.3825 21.2742L36.2999 21.7549C36.2207 21.7901 36.1606 21.8578 36.135 21.9407L35.7867 23.0703C35.6997 23.3524 35.3003 23.3524 35.2133 23.0703L34.865 21.9407C34.8394 21.8578 34.7793 21.7901 34.7001 21.7549L33.6175 21.2742C33.3798 21.1687 33.3798 20.8313 33.6175 20.7258L34.7001 20.2451C34.7793 20.2099 34.8394 20.1422 34.865 20.0593L35.2133 18.9297Z" fill="#7E796E"/>
</svg>
