<svg width="48" height="48" viewBox="0 0 48 48" fill="none" xmlns="http://www.w3.org/2000/svg">
<path d="M7 24H41" stroke="#7E796E" stroke-width="2" stroke-linecap="round" stroke-linejoin="round" stroke-dasharray="3 3"/>
<path d="M6 7C6 6.44772 6.44772 6 7 6H41C41.5523 6 42 6.44772 42 7V17C42 19.2091 40.2091 21 38 21H10C7.79086 21 6 19.2091 6 17V7Z" fill="#E4DDCD"/>
<path d="M6 31C6 28.7909 7.79086 27 10 27H38C40.2091 27 42 28.7909 42 31V41C42 41.5523 41.5523 42 41 42H7C6.44772 42 6 41.5523 6 41V31Z" fill="#E4DDCD"/>
<path d="M28.4557 39.0196C28.4724 39.4363 28.1481 39.7877 27.7313 39.8044C27.315 39.8207 26.9639 39.4971 26.9471 39.0807L26.9161 38.3075L25.5695 37.0646C24.9917 37.5276 24.1626 37.516 23.5857 36.9705L23.569 36.9551C23.0581 36.4719 22.3845 36.2314 21.6669 36.2003C20.6774 36.1626 19.7095 35.6777 19.0736 34.7334C18.3366 33.6444 18.3067 32.1466 19.0018 30.9861C20.1826 28.9781 22.7281 28.6307 24.2669 30.086C24.8502 30.6433 25.1932 31.3705 25.2924 32.1284C25.3919 32.8974 25.6961 33.5932 26.2348 34.1028C26.7271 34.5684 26.8346 35.307 26.5473 35.9113L27.9394 37.196L28.7152 37.1649C29.1319 37.1482 29.4827 37.472 29.4994 37.8887C29.5161 38.3054 29.1924 38.6562 28.7756 38.6729L28.4423 38.6856L28.4557 39.0196Z" fill="#7E796E"/>
<path d="M23.7578 12.3591C23.7578 11.389 24.158 9.35802 25.3584 8.75781" stroke="#7E796E" stroke-width="0.800282" stroke-linecap="round"/>
<path d="M23.7355 9.02662C24.1811 9.51158 24.1276 10.3108 24.1018 10.5376C24.0977 10.5742 24.0683 10.6012 24.0315 10.6023C23.8033 10.6087 23.0024 10.5944 22.5569 10.1095C22.1113 9.62451 22.1648 8.82525 22.1906 8.59844C22.1947 8.56185 22.2241 8.53486 22.2609 8.53382C22.4891 8.52736 23.29 8.54166 23.7355 9.02662Z" fill="#7E796E"/>
<path d="M25.9358 10.6796C27.4465 10.5721 28.6033 11.5782 28.6034 14.1032C28.6033 17.7407 26.2626 18.9972 25.4023 18.6063C24.7974 18.3314 24.2686 18.2294 23.8017 18.2354C23.3348 18.2294 22.806 18.3314 22.2011 18.6063C21.3408 18.9973 19 17.7408 19 14.1032C19.0001 11.5782 20.1569 10.5721 21.6676 10.6796C22.3332 10.727 23.0825 11.4356 23.8017 11.4356L23.8694 11.4337C24.5678 11.392 25.2911 10.7255 25.9358 10.6796Z" fill="#7E796E"/>
</svg>
