<svg width="48" height="48" viewBox="0 0 48 48" fill="none" xmlns="http://www.w3.org/2000/svg">
<path d="M42.6411 17.2017L41.5449 19.8091L38.9375 18.7129" stroke="#7E796E" stroke-width="2" stroke-linecap="round" stroke-linejoin="round"/>
<path d="M5.26511 30.478L6.38869 27.8823L8.98438 29.0059" stroke="#7E796E" stroke-width="2" stroke-linecap="round" stroke-linejoin="round"/>
<path d="M6.17517 21.4949C6.75812 17.347 8.76941 13.5322 11.8626 10.7078C14.9557 7.88338 18.937 6.22611 23.1207 6.02149C27.3044 5.81687 31.4284 7.07772 34.7824 9.58683C38.1364 12.0959 40.5104 15.6962 41.4953 19.7674" stroke="#7E796E" stroke-width="2" stroke-linecap="round" stroke-linejoin="round"/>
<circle cx="24" cy="24" r="14" fill="#E4DDCD"/>
<path d="M41.7784 26.8158C41.1231 30.9529 39.0456 34.732 35.9036 37.502C32.7616 40.272 28.752 41.8595 24.5654 41.9911C20.3788 42.1227 16.2774 40.7901 12.9677 38.2228C9.65797 35.6555 7.34723 32.0144 6.4335 27.9266" stroke="#7E796E" stroke-width="2" stroke-linecap="round" stroke-linejoin="round"/>
<path d="M21.9844 16L23.9851 17.3338L25.9857 16" stroke="#7E796E" stroke-width="2.66758" stroke-linecap="round" stroke-linejoin="round"/>
<path d="M21.9844 32L23.9851 30.6662L25.9857 32" stroke="#7E796E" stroke-width="2.66758" stroke-linecap="round" stroke-linejoin="round"/>
<path d="M23.9844 17.332V30.6699" stroke="#7E796E" stroke-width="2.66758" stroke-linecap="round" stroke-linejoin="round"/>
<path d="M29.9141 18.2695L29.7593 20.6691L31.9147 21.7348" stroke="#7E796E" stroke-width="2.66758" stroke-linecap="round" stroke-linejoin="round"/>
<path d="M16.0547 26.2695L18.2101 27.3353L18.0554 29.7348" stroke="#7E796E" stroke-width="2.66758" stroke-linecap="round" stroke-linejoin="round"/>
<path d="M29.7578 20.668L18.2069 27.3369" stroke="#7E796E" stroke-width="2.66758" stroke-linecap="round" stroke-linejoin="round"/>
<path d="M31.9375 26.2676L29.7821 27.3333L29.9368 29.7329" stroke="#7E796E" stroke-width="2.66758" stroke-linecap="round" stroke-linejoin="round"/>
<path d="M18.0703 18.2715L18.2251 20.671L16.0696 21.7368" stroke="#7E796E" stroke-width="2.66758" stroke-linecap="round" stroke-linejoin="round"/>
<path d="M29.7656 27.3359L18.2198 20.6699" stroke="#7E796E" stroke-width="2.66758" stroke-linecap="round" stroke-linejoin="round"/>
</svg>
