<svg width="48" height="48" viewBox="0 0 48 48" fill="none" xmlns="http://www.w3.org/2000/svg">
<path d="M24 7C25.7993 7 27.3765 7.9504 28.2571 9.37655C28.6041 9.93847 29.3179 10.244 29.9641 10.1076C30.2983 10.0371 30.6448 10 31 10C33.7614 10 36 12.2386 36 15C36 15.1311 35.9948 15.2611 35.9848 15.3896C35.9418 15.9379 36.2147 16.4841 36.6789 16.7791C38.074 17.6659 39 19.2243 39 21C39 23.7614 36.7614 26 34 26C33.7559 26 33.5518 26.202 33.5741 26.445L33.9961 31.0459C34.5352 36.9268 29.9055 42 24 42C18.0945 42 13.4648 36.9268 14.0039 31.0459L14.4251 26.4441C14.4473 26.2015 14.2436 26 14 26C11.2386 26 9 23.7614 9 21C9 19.2246 9.92564 17.6661 11.3204 16.7791C11.7844 16.4841 12.0576 15.9379 12.0151 15.3897C12.0051 15.2611 12 15.1312 12 15C12 12.2386 14.2386 10 17 10C17.3549 10 17.7011 10.0371 18.035 10.1076C18.6812 10.2441 19.3948 9.93855 19.7418 9.37669C20.6227 7.95039 22.2006 7 24 7Z" fill="#E4DDCD"/>
<path d="M28.4091 28C29.4798 30.4444 29.3249 36.25 26 39" stroke="#7E796E" stroke-width="2" stroke-linecap="round"/>
<path d="M19.5909 28C18.5202 30.4444 18.6751 36.25 22 39" stroke="#7E796E" stroke-width="2" stroke-linecap="round"/>
<circle cx="38.5" cy="14.5" r="1.5" fill="#7E796E"/>
<circle cx="36" cy="8" r="1" fill="#7E796E"/>
<circle cx="40" cy="10" r="1" fill="#7E796E"/>
<circle cx="1.5" cy="1.5" r="1.5" transform="matrix(-1 0 0 1 11 13)" fill="#7E796E"/>
<circle cx="1" cy="1" r="1" transform="matrix(-1 0 0 1 13 7)" fill="#7E796E"/>
<circle cx="1" cy="1" r="1" transform="matrix(-1 0 0 1 9 9)" fill="#7E796E"/>
</svg>
