<svg width="48" height="48" viewBox="0 0 48 48" fill="none" xmlns="http://www.w3.org/2000/svg">
<rect x="10" y="6" width="26" height="36" rx="1" fill="#E4DDCD"/>
<path d="M29.7628 34.0031C29.1549 34.8455 29.0808 35.9032 29.5405 37.1761C30.2301 39.0854 33.7558 41.5015 35.8722 40.7372C37.9887 39.9729 39.2161 39.5296 41.2876 38.7815C43.2404 38.0762 43.5175 36.1338 42.9928 34.681C42.2875 32.7278 41.4904 30.5207 40.785 28.5675C40.4805 27.7243 39.7088 27.364 38.8647 27.6662C38.0236 27.9672 37.9658 28.7038 38.2669 29.5448L38.2684 29.549L32.5836 30.8822" fill="#7E796E"/>
<path d="M30.8102 34.8323L27.4136 25.4271C27.1118 24.5915 27.5446 23.6695 28.3802 23.3677C29.2158 23.066 30.1377 23.4987 30.4395 24.3343L32.8515 31.0132" fill="#7E796E"/>
<path d="M32.907 31.181L32.195 29.2094C31.932 28.4811 32.3092 27.6774 33.0375 27.4144C33.7658 27.1514 34.5695 27.5286 34.8325 28.2569L35.617 30.4293" fill="#7E796E"/>
<path d="M35.6479 30.5422L35.1638 29.2016C34.9007 28.4732 35.2779 27.6696 36.0062 27.4066C36.7345 27.1435 37.5382 27.5207 37.8012 28.249L38.344 29.7519" fill="#7E796E"/>
<circle cx="23" cy="37" r="2" fill="#7E796E"/>
<path d="M20 10H26" stroke="#7E796E" stroke-width="2" stroke-linecap="round"/>
</svg>
