<svg width="48" height="48" viewBox="0 0 48 48" fill="none" xmlns="http://www.w3.org/2000/svg">
<path d="M24 41L24 7" stroke="#7E796E" stroke-width="2" stroke-linecap="round" stroke-linejoin="round" stroke-dasharray="3 3"/>
<path d="M7 42C6.44772 42 6 41.5523 6 41L6 7C6 6.44772 6.44771 6 7 6L17 6C19.2091 6 21 7.79086 21 10L21 38C21 40.2091 19.2091 42 17 42L7 42Z" fill="#E4DDCD"/>
<path d="M31 42C28.7909 42 27 40.2091 27 38L27 10C27 7.79086 28.7909 6 31 6L41 6C41.5523 6 42 6.44772 42 7L42 41C42 41.5523 41.5523 42 41 42L31 42Z" fill="#E4DDCD"/>
<rect x="12" y="17" width="3" height="2" rx="0.5" fill="#7E796E"/>
<rect x="12.5" y="18" width="2" height="3" fill="#7E796E"/>
<path d="M10 21.75C10 20.7835 10.7835 20 11.75 20H15.25C16.2165 20 17 20.7835 17 21.75V29.8333C17 30.4777 16.4777 31 15.8333 31H11.1667C10.5223 31 10 30.4777 10 29.8333V21.75Z" fill="#7E796E"/>
<path d="M33 17.5C33 17.2239 33.2239 17 33.5 17H35.5C35.7761 17 36 17.2239 36 17.5V19H33V17.5Z" fill="#7E796E"/>
<path d="M33 19H36L37.6687 21.3105C37.8841 21.6087 38 21.9672 38 22.3351V29.8333C38 30.4777 37.4777 31 36.8333 31H32.1667C31.5223 31 31 30.4777 31 29.8333V22.3351C31 21.9672 31.1159 21.6087 31.3313 21.3105L33 19Z" fill="#7E796E"/>
</svg>
