<svg width="48" height="48" viewBox="0 0 48 48" fill="none" xmlns="http://www.w3.org/2000/svg">
<circle cx="24" cy="24" r="16" fill="#E4DDCD"/>
<path d="M37 20H42M42 20L40 18M42 20L40 22" stroke="#7E796E" stroke-width="2" stroke-linecap="round" stroke-linejoin="round"/>
<path d="M37 30H42M42 30L40 28M42 30L40 32" stroke="#7E796E" stroke-width="2" stroke-linecap="round" stroke-linejoin="round"/>
<circle cx="7" cy="35" r="1" transform="rotate(-90 7 35)" fill="#7E796E"/>
<circle cx="11" cy="32" r="1" transform="rotate(-90 11 32)" fill="#7E796E"/>
<path d="M8.51562 24V27.5" stroke="#7E796E" stroke-width="2" stroke-linecap="round"/>
<path d="M7.00781 26.625L10.0389 24.875" stroke="#7E796E" stroke-width="2" stroke-linecap="round"/>
<path d="M7 24.875L10.0311 26.625" stroke="#7E796E" stroke-width="2" stroke-linecap="round"/>
<circle cx="7" cy="18" r="1" transform="rotate(-90 7 18)" fill="#7E796E"/>
<path d="M11.5156 12V15.5" stroke="#7E796E" stroke-width="2" stroke-linecap="round"/>
<path d="M10.0078 14.625L13.0389 12.875" stroke="#7E796E" stroke-width="2" stroke-linecap="round"/>
<path d="M10 12.875L13.0311 14.625" stroke="#7E796E" stroke-width="2" stroke-linecap="round"/>
<circle cx="13" cy="22" r="1" transform="rotate(-90 13 22)" fill="#7E796E"/>
<path d="M19.8996 28.9993C19.6849 28.9993 19.4982 28.92 19.3396 28.7613C19.1809 28.6026 19.1016 28.416 19.1016 28.2013V19.5773C19.1016 19.3626 19.1809 19.176 19.3396 19.0173C19.4982 18.8586 19.6849 18.7793 19.8996 18.7793H20.6976C20.9402 18.7793 21.1596 18.8446 21.3556 18.9753C21.5516 19.106 21.6962 19.2833 21.7896 19.5073L23.9596 24.7853C23.9596 24.7946 23.9642 24.7993 23.9736 24.7993C23.9829 24.7993 23.9876 24.7946 23.9876 24.7853L26.1576 19.5073C26.2509 19.2833 26.3956 19.106 26.5916 18.9753C26.7876 18.8446 27.0069 18.7793 27.2496 18.7793H28.1036C28.3182 18.7793 28.5049 18.8586 28.6636 19.0173C28.8222 19.176 28.9016 19.3626 28.9016 19.5773V28.2013C28.9016 28.416 28.8222 28.6026 28.6636 28.7613C28.5049 28.92 28.3182 28.9993 28.1036 28.9993H27.4316C27.2169 28.9993 27.0302 28.92 26.8716 28.7613C26.7222 28.6026 26.6476 28.416 26.6476 28.2013V22.7553C26.6476 22.746 26.6429 22.7413 26.6336 22.7413C26.6149 22.7413 26.6056 22.746 26.6056 22.7553L25.2616 25.9333C25.1682 26.1573 25.0189 26.3346 24.8136 26.4653C24.6176 26.596 24.3982 26.6613 24.1556 26.6613H23.7916C23.5489 26.6613 23.3249 26.596 23.1196 26.4653C22.9236 26.3346 22.7789 26.1573 22.6856 25.9333L21.3416 22.7553C21.3416 22.746 21.3322 22.7413 21.3136 22.7413C21.3042 22.7413 21.2996 22.746 21.2996 22.7553V28.2013C21.2996 28.416 21.2202 28.6026 21.0616 28.7613C20.9122 28.92 20.7302 28.9993 20.5156 28.9993H19.8996Z" fill="#504323"/>
</svg>
