<svg width="48" height="48" viewBox="0 0 48 48" fill="none" xmlns="http://www.w3.org/2000/svg">
<circle cx="24" cy="24" r="13" fill="#E4DDCD"/>
<path d="M24 18V25H30" stroke="#7E796E" stroke-width="2" stroke-linecap="round" stroke-linejoin="round"/>
<path d="M33.7266 31.9538L34.4888 31.1407C35.3955 30.1735 36.9556 30.2592 37.7511 31.3198C38.5298 32.3581 40.0477 32.466 40.9655 31.5482L41.7266 30.7871" stroke="#7E796E" stroke-width="2" stroke-linecap="round"/>
<path d="M33.7266 27.9538L34.4888 27.1407C35.3955 26.1735 36.9556 26.2592 37.7511 27.3198C38.5298 28.3581 40.0477 28.466 40.9655 27.5482L41.7266 26.7871" stroke="#7E796E" stroke-width="2" stroke-linecap="round"/>
<path d="M42.6105 20.5006L40.8704 22.7304L38.6406 20.9902" stroke="#7E796E" stroke-width="2" stroke-linecap="round" stroke-linejoin="round"/>
<path d="M40.8327 21.6056C39.5101 12.3103 30.9027 5.84718 21.6075 7.1697C12.3123 8.49222 5.84913 17.0996 7.17165 26.3948C8.49418 35.6901 17.1016 42.1532 26.3968 40.8307C29.8379 40.3411 32.8909 38.8531 35.3044 36.7015" stroke="#7E796E" stroke-width="2" stroke-linecap="round" stroke-linejoin="round"/>
</svg>
