<svg width="48" height="48" viewBox="0 0 48 48" fill="none" xmlns="http://www.w3.org/2000/svg">
<g clip-path="url(#paint0_angular_1164_46067_clip_path)" data-figma-skip-parse="true"><g transform="matrix(-5.72884e-10 -0.0154464 0.0131061 -6.75184e-10 24.2126 24.1015)"><foreignObject x="-1107.15" y="-1107.15" width="2214.3" height="2214.3"><div xmlns="http://www.w3.org/1999/xhtml" style="background:conic-gradient(from 90deg,rgba(237, 233, 222, 1) 0deg,rgba(214, 207, 191, 1) 360deg);height:100%;width:100%;opacity:1"></div></foreignObject></g></g><path d="M24 7C28.9706 7 33 11.0294 33 16V19H37C37.5523 19 38 19.4477 38 20V40C38 40.5523 37.5523 41 37 41H11C10.4477 41 10 40.5523 10 40V20C10 19.4477 10.4477 19 11 19H15V16C15 11.0294 19.0294 7 24 7ZM24 11C21.2386 11 19 13.2386 19 16V19H29V16C29 13.2386 26.7614 11 24 11Z" data-figma-gradient-fill="{&#34;type&#34;:&#34;GRADIENT_ANGULAR&#34;,&#34;stops&#34;:[{&#34;color&#34;:{&#34;r&#34;:0.92941176891326904,&#34;g&#34;:0.91372549533843994,&#34;b&#34;:0.87058824300765991,&#34;a&#34;:1.0},&#34;position&#34;:0.0},{&#34;color&#34;:{&#34;r&#34;:0.83921569585800171,&#34;g&#34;:0.81176471710205078,&#34;b&#34;:0.74901962280273438,&#34;a&#34;:1.0},&#34;position&#34;:1.0}],&#34;stopsVar&#34;:[{&#34;color&#34;:{&#34;r&#34;:0.92941176891326904,&#34;g&#34;:0.91372549533843994,&#34;b&#34;:0.87058824300765991,&#34;a&#34;:1.0},&#34;position&#34;:0.0},{&#34;color&#34;:{&#34;r&#34;:0.83921569585800171,&#34;g&#34;:0.81176471710205078,&#34;b&#34;:0.74901962280273438,&#34;a&#34;:1.0},&#34;position&#34;:1.0}],&#34;transform&#34;:{&#34;m00&#34;:-1.1457674418124952e-06,&#34;m01&#34;:26.212102890014648,&#34;m02&#34;:11.106565475463867,&#34;m10&#34;:-30.892835617065430,&#34;m11&#34;:-1.3503687341653858e-06,&#34;m12&#34;:39.547931671142578},&#34;opacity&#34;:1.0,&#34;blendMode&#34;:&#34;NORMAL&#34;,&#34;visible&#34;:true}"/>
<path d="M24 25C25.6569 25 27 26.3431 27 28C27 29.3116 26.1571 30.4233 24.9844 30.8311C24.9937 30.886 25 30.9423 25 31V34C25 34.5523 24.5523 35 24 35C23.4477 35 23 34.5523 23 34V31C23 30.9424 23.0053 30.886 23.0146 30.8311C21.8424 30.4231 21 29.3113 21 28C21 26.3431 22.3431 25 24 25Z" fill="#9F9A8E"/>
<defs>
<clipPath id="paint0_angular_1164_46067_clip_path"><path d="M24 7C28.9706 7 33 11.0294 33 16V19H37C37.5523 19 38 19.4477 38 20V40C38 40.5523 37.5523 41 37 41H11C10.4477 41 10 40.5523 10 40V20C10 19.4477 10.4477 19 11 19H15V16C15 11.0294 19.0294 7 24 7ZM24 11C21.2386 11 19 13.2386 19 16V19H29V16C29 13.2386 26.7614 11 24 11Z"/></clipPath></defs>
</svg>
