<svg width="48" height="48" viewBox="0 0 48 48" fill="none" xmlns="http://www.w3.org/2000/svg">
<circle cx="24" cy="24" r="18" fill="#E4DDCD"/>
<circle cx="24" cy="24" r="3" fill="#7E796E"/>
<path d="M28.1406 16L24 23.9909" stroke="#7E796E" stroke-width="2" stroke-linecap="round" stroke-linejoin="round"/>
<path d="M13.7666 35.0117C14.1148 34.5832 14.7442 34.5182 15.1729 34.8662C15.9722 35.5156 16.8478 36.0794 17.7852 36.5439C18.7223 37.0083 19.7005 37.3628 20.7012 37.6055C21.2379 37.7356 21.5676 38.2767 21.4375 38.8135C21.3071 39.3498 20.7669 39.6798 20.2305 39.5498C19.0865 39.2724 17.9676 38.8667 16.8965 38.3359C15.8255 37.8052 14.8256 37.1611 13.9121 36.4189C13.4835 36.0708 13.4186 35.4404 13.7666 35.0117ZM8.98242 24.667C9.53131 24.6059 10.0258 25.0009 10.0869 25.5498C10.2009 26.5733 10.4285 27.5895 10.7705 28.5781C11.1126 29.5666 11.5616 30.5058 12.1045 31.3809C12.3953 31.8501 12.2513 32.4667 11.7822 32.7578C11.313 33.0487 10.6964 32.9037 10.4053 32.4346C9.78473 31.4344 9.27174 30.3611 8.88086 29.2314C8.49003 28.1019 8.22992 26.9412 8.09961 25.7715C8.03849 25.2227 8.43366 24.7282 8.98242 24.667ZM35.9414 14.8662C36.4013 14.5606 37.0224 14.6857 37.3281 15.1455C37.9795 16.1258 38.5253 17.1829 38.9512 18.2998C39.377 19.4167 39.6732 20.5692 39.8398 21.7344C39.9179 22.281 39.5379 22.788 38.9912 22.8662C38.4448 22.9441 37.9386 22.564 37.8604 22.0176C37.7146 20.9982 37.4556 19.9901 37.083 19.0127C36.7104 18.0353 36.232 17.1107 35.6621 16.2529C35.3565 15.793 35.4816 15.1719 35.9414 14.8662ZM11.4268 14.1055C11.7683 13.6715 12.3971 13.597 12.8311 13.9385C13.265 14.28 13.3405 14.9088 12.999 15.3428C12.3622 16.1521 11.8111 17.0351 11.3613 17.9795C10.9115 18.9239 10.5728 19.9086 10.3457 20.9131C10.2237 21.4515 9.68795 21.7897 9.14941 21.668C8.61099 21.5461 8.27297 21.0102 8.39453 20.4717C8.65403 19.3238 9.04176 18.1992 9.55566 17.1201C10.0697 16.0409 10.6989 15.0305 11.4268 14.1055ZM26.1016 9.11426C26.2149 8.57377 26.7456 8.22752 27.2861 8.34082C28.438 8.58244 29.5683 8.95214 30.6553 9.44922C31.7424 9.94643 32.7619 10.56 33.6982 11.2734C34.1374 11.6081 34.2223 12.2355 33.8877 12.6748C33.5529 13.1138 32.9255 13.1988 32.4863 12.8643C31.6673 12.2401 30.7754 11.7036 29.8242 11.2686C28.8728 10.8334 27.883 10.5093 26.875 10.2979C26.3348 10.1844 25.9885 9.65452 26.1016 9.11426ZM21.9824 8.12793C22.5303 8.05827 23.0309 8.44627 23.1006 8.99414C23.1698 9.54174 22.782 10.0417 22.2344 10.1113C21.2128 10.2413 20.2008 10.4854 19.2178 10.8428C18.2348 11.2001 17.3029 11.6633 16.4365 12.2197C15.972 12.5179 15.3532 12.3832 15.0547 11.9189C14.7563 11.4543 14.891 10.8356 15.3555 10.5371C16.3458 9.90113 17.4109 9.3713 18.5342 8.96289C19.6577 8.55448 20.8147 8.27642 21.9824 8.12793Z" fill="#7E796E"/>
<path d="M28.846 33.319C28.7247 33.4143 28.5947 33.4273 28.456 33.358C28.326 33.2887 28.261 33.176 28.261 33.02V32.071C28.261 31.577 28.4603 31.187 28.859 30.901L30.172 29.939C30.562 29.653 31.0083 29.51 31.511 29.51H32.33C32.5293 29.51 32.7027 29.5837 32.85 29.731C32.9973 29.8783 33.071 30.0517 33.071 30.251V38.259C33.071 38.4583 32.9973 38.6317 32.85 38.779C32.7027 38.9263 32.5293 39 32.33 39H31.511C31.3117 39 31.1383 38.9263 30.991 38.779C30.8437 38.6317 30.77 38.4583 30.77 38.259V31.941H30.757H30.744L28.846 33.319ZM35.4811 33.319C35.3597 33.4143 35.2297 33.4273 35.0911 33.358C34.9611 33.2887 34.8961 33.176 34.8961 33.02V32.071C34.8961 31.577 35.0954 31.187 35.4941 30.901L36.8071 29.939C37.1971 29.653 37.6434 29.51 38.1461 29.51H38.9651C39.1644 29.51 39.3377 29.5837 39.4851 29.731C39.6324 29.8783 39.7061 30.0517 39.7061 30.251V38.259C39.7061 38.4583 39.6324 38.6317 39.4851 38.779C39.3377 38.9263 39.1644 39 38.9651 39H38.1461C37.9467 39 37.7734 38.9263 37.6261 38.779C37.4787 38.6317 37.4051 38.4583 37.4051 38.259V31.941H37.3921H37.3791L35.4811 33.319Z" fill="#504323"/>
</svg>
