<svg width="48" height="48" viewBox="0 0 48 48" fill="none" xmlns="http://www.w3.org/2000/svg">
<circle cx="24" cy="24" r="16" fill="#E4DDCD"/>
<path d="M37 20H42M42 20L40 18M42 20L40 22" stroke="#7E796E" stroke-width="2" stroke-linecap="round" stroke-linejoin="round"/>
<path d="M37 30H42M42 30L40 28M42 30L40 32" stroke="#7E796E" stroke-width="2" stroke-linecap="round" stroke-linejoin="round"/>
<path d="M25.1097 29.1406C23.5417 29.1406 22.2864 28.6786 21.3437 27.7546C20.401 26.8213 19.9297 25.5333 19.9297 23.8906C19.9297 22.2386 20.3917 20.9506 21.3157 20.0266C22.2397 19.1026 23.537 18.6406 25.2077 18.6406C25.8984 18.6406 26.5657 18.6966 27.2097 18.8086C27.4337 18.846 27.6157 18.958 27.7557 19.1446C27.905 19.322 27.9797 19.5273 27.9797 19.7606V20.1386C27.9797 20.3346 27.9004 20.4933 27.7417 20.6146C27.583 20.736 27.4057 20.7733 27.2097 20.7266C26.631 20.596 26.057 20.5306 25.4877 20.5306C23.397 20.5306 22.3517 21.6506 22.3517 23.8906C22.3517 25.0106 22.599 25.8506 23.0937 26.4106C23.5977 26.9706 24.3164 27.2506 25.2497 27.2506C25.539 27.2506 25.833 27.2133 26.1317 27.1386C26.2157 27.12 26.2577 27.0686 26.2577 26.9846V24.7026C26.2577 24.628 26.2157 24.5906 26.1317 24.5906H24.8297C24.615 24.5906 24.4284 24.5113 24.2697 24.3526C24.111 24.194 24.0317 24.0073 24.0317 23.7926V23.5826C24.0317 23.368 24.111 23.1813 24.2697 23.0226C24.4284 22.864 24.615 22.7846 24.8297 22.7846H27.7277C27.9424 22.7846 28.1244 22.864 28.2737 23.0226C28.4324 23.1813 28.5117 23.368 28.5117 23.5826V27.7686C28.5117 28.0113 28.4417 28.2306 28.3017 28.4266C28.1617 28.6133 27.9797 28.7393 27.7557 28.8046C26.9157 29.0286 26.0337 29.1406 25.1097 29.1406Z" fill="#504323"/>
<ellipse cx="10.5" cy="35.5" rx="1.5" ry="1.5" transform="rotate(-90 10.5 35.5)" fill="#7E796E"/>
<ellipse cx="7" cy="29" rx="2" ry="2" transform="rotate(-90 7 29)" fill="#7E796E"/>
<ellipse cx="13.5" cy="26.5" rx="1.5" ry="1.5" transform="rotate(-90 13.5 26.5)" fill="#7E796E"/>
<ellipse cx="5" cy="17" rx="2" ry="2" transform="rotate(-90 5 17)" fill="#7E796E"/>
<ellipse cx="11.5" cy="13.5" rx="1.5" ry="1.5" transform="rotate(-90 11.5 13.5)" fill="#7E796E"/>
<ellipse cx="8.5" cy="22.5" rx="1.5" ry="1.5" transform="rotate(-90 8.5 22.5)" fill="#7E796E"/>
</svg>
