<svg width="48" height="48" viewBox="0 0 48 48" fill="none" xmlns="http://www.w3.org/2000/svg">
<circle cx="24" cy="24" r="16" fill="#E4DDCD"/>
<path d="M37 20H42M42 20L40 18M42 20L40 22" stroke="#7E796E" stroke-width="2" stroke-linecap="round" stroke-linejoin="round"/>
<path d="M37 30H42M42 30L40 28M42 30L40 32" stroke="#7E796E" stroke-width="2" stroke-linecap="round" stroke-linejoin="round"/>
<ellipse cx="10.5" cy="35.5" rx="1.5" ry="1.5" transform="rotate(-90 10.5 35.5)" fill="#7E796E"/>
<ellipse cx="7" cy="29" rx="2" ry="2" transform="rotate(-90 7 29)" fill="#7E796E"/>
<ellipse cx="13.5" cy="26.5" rx="1.5" ry="1.5" transform="rotate(-90 13.5 26.5)" fill="#7E796E"/>
<ellipse cx="5" cy="17" rx="2" ry="2" transform="rotate(-90 5 17)" fill="#7E796E"/>
<ellipse cx="11.5" cy="13.5" rx="1.5" ry="1.5" transform="rotate(-90 11.5 13.5)" fill="#7E796E"/>
<ellipse cx="8.5" cy="22.5" rx="1.5" ry="1.5" transform="rotate(-90 8.5 22.5)" fill="#7E796E"/>
<path d="M22.5047 28.464L19.6767 19.756C19.6114 19.5693 19.6347 19.3967 19.7467 19.238C19.8681 19.0793 20.0267 19 20.2227 19H21.1607C21.3941 19 21.6041 19.0747 21.7907 19.224C21.9774 19.364 22.0987 19.546 22.1547 19.77L23.9887 26.924C23.9887 26.9333 23.9934 26.938 24.0027 26.938C24.0121 26.938 24.0167 26.9333 24.0167 26.924L25.9067 19.77C25.9627 19.546 26.0841 19.364 26.2707 19.224C26.4574 19.0747 26.6674 19 26.9007 19H27.7827C27.9787 19 28.1327 19.0793 28.2447 19.238C28.3661 19.3967 28.3941 19.5693 28.3287 19.756L25.5007 28.464C25.4354 28.688 25.3047 28.87 25.1087 29.01C24.9221 29.15 24.7074 29.22 24.4647 29.22H23.5407C23.3074 29.22 23.0927 29.15 22.8967 29.01C22.7101 28.87 22.5794 28.688 22.5047 28.464Z" fill="#504323"/>
</svg>
