<svg width="48" height="48" viewBox="0 0 48 48" fill="none" xmlns="http://www.w3.org/2000/svg">
<rect x="16" y="13" width="18" height="22" rx="1" fill="#E4DDCD"/>
<path d="M17 37H33" stroke="#7E796E" stroke-width="2" stroke-linecap="round"/>
<path d="M17 11H33" stroke="#7E796E" stroke-width="2" stroke-linecap="round"/>
<ellipse cx="8.5" cy="20.5" rx="1.5" ry="1.5" transform="rotate(90 8.5 20.5)" fill="#7E796E"/>
<ellipse cx="12.5" cy="15.5" rx="1.5" ry="1.5" transform="rotate(90 12.5 15.5)" fill="#7E796E"/>
<ellipse cx="12.5" cy="25.5" rx="1.5" ry="1.5" transform="rotate(90 12.5 25.5)" fill="#7E796E"/>
<ellipse cx="12.5" cy="35.5" rx="1.5" ry="1.5" transform="rotate(90 12.5 35.5)" fill="#7E796E"/>
<ellipse cx="8.5" cy="30.5" rx="1.5" ry="1.5" transform="rotate(90 8.5 30.5)" fill="#7E796E"/>
<path d="M32 31.6667L32.7622 30.8536C33.669 29.8864 35.229 29.9721 36.0245 31.0327C36.8033 32.071 38.3211 32.1789 39.2389 31.2611L40 30.5" stroke="#7E796E" stroke-width="2" stroke-linecap="round"/>
<path d="M32 26.6667L32.7622 25.8536C33.669 24.8864 35.229 24.9721 36.0245 26.0327C36.8033 27.071 38.3211 27.1789 39.2389 26.2611L40 25.5" stroke="#7E796E" stroke-width="2" stroke-linecap="round"/>
</svg>
