<svg width="48" height="48" viewBox="0 0 48 48" fill="none" xmlns="http://www.w3.org/2000/svg">
<path d="M40 24.1714C40 33.0454 27.0044 40.4051 24.4374 41.7723C24.1601 41.92 23.8399 41.92 23.5626 41.7723C20.9956 40.4051 8 33.0454 8 24.1714C8 20.0406 8 14.0721 8 12.026C8 11.595 8.27614 11.2147 8.68522 11.079L23.6852 6.10439C23.8896 6.03661 24.1104 6.03661 24.3148 6.10439L39.3148 11.079C39.7239 11.2147 40 11.595 40 12.026C40 14.0721 40 20.0406 40 24.1714Z" fill="#E4DDCD"/>
<circle cx="34.4993" cy="35.4993" r="3.27273" fill="#7E796E"/>
<path d="M34.4922 31V40" stroke="#7E796E" stroke-width="1.63636" stroke-linecap="round"/>
<path d="M39 35.4922L30 35.4922" stroke="#7E796E" stroke-width="1.63636" stroke-linecap="round"/>
<path d="M37.6797 32.3125L31.3157 38.6765" stroke="#7E796E" stroke-width="1.63636" stroke-linecap="round"/>
<path d="M37.6875 38.6797L31.3235 32.3157" stroke="#7E796E" stroke-width="1.63636" stroke-linecap="round"/>
<circle cx="39.5" cy="28.5" r="1.5" fill="#7E796E"/>
<circle cx="42" cy="33" r="1" fill="#7E796E"/>
<path d="M26.6361 26.788L24.0101 18.702C23.9494 18.5287 23.9711 18.3683 24.0751 18.221C24.1878 18.0737 24.3351 18 24.5171 18H25.3881C25.6048 18 25.7998 18.0693 25.9731 18.208C26.1464 18.338 26.2591 18.507 26.3111 18.715L28.0141 25.358C28.0141 25.3667 28.0184 25.371 28.0271 25.371C28.0358 25.371 28.0401 25.3667 28.0401 25.358L29.7951 18.715C29.8471 18.507 29.9598 18.338 30.1331 18.208C30.3064 18.0693 30.5014 18 30.7181 18H31.5371C31.7191 18 31.8621 18.0737 31.9661 18.221C32.0788 18.3683 32.1048 18.5287 32.0441 18.702L29.4181 26.788C29.3574 26.996 29.2361 27.165 29.0541 27.295C28.8808 27.425 28.6814 27.49 28.4561 27.49H27.5981C27.3814 27.49 27.1821 27.425 27.0001 27.295C26.8268 27.165 26.7054 26.996 26.6361 26.788Z" fill="#504323"/>
<path d="M23.28 24.045C23.28 26.4283 22.0667 27.62 19.64 27.62C17.2133 27.62 16 26.4283 16 24.045V18.741C16 18.5417 16.0737 18.3683 16.221 18.221C16.3683 18.0737 16.5417 18 16.741 18H17.495C17.6943 18 17.8677 18.0737 18.015 18.221C18.1623 18.3683 18.236 18.5417 18.236 18.741V24.201C18.236 24.7903 18.3487 25.2107 18.574 25.462C18.7993 25.7133 19.1633 25.839 19.666 25.839C20.1687 25.839 20.5327 25.7133 20.758 25.462C20.9833 25.2107 21.096 24.7903 21.096 24.201V18.741C21.096 18.5417 21.1697 18.3683 21.317 18.221C21.4643 18.0737 21.6377 18 21.837 18H22.539C22.7383 18 22.9117 18.0737 23.059 18.221C23.2063 18.3683 23.28 18.5417 23.28 18.741V24.045Z" fill="#504323"/>
</svg>
