<svg width="48" height="48" viewBox="0 0 48 48" fill="none" xmlns="http://www.w3.org/2000/svg">
<path d="M24 5L24 10" stroke="#7E796E" stroke-width="2" stroke-linecap="round"/>
<path d="M24 38L24 43" stroke="#7E796E" stroke-width="2" stroke-linecap="round"/>
<path d="M13.5391 14.5352L10.0035 10.9996" stroke="#7E796E" stroke-width="2" stroke-linecap="round"/>
<path d="M37.8281 11L34.2926 14.5355" stroke="#7E796E" stroke-width="2" stroke-linecap="round"/>
<path d="M13.5391 33L10.0035 36.5355" stroke="#7E796E" stroke-width="2" stroke-linecap="round"/>
<path d="M10 24H5" stroke="#7E796E" stroke-width="2" stroke-linecap="round"/>
<path d="M35 24C35 30.0751 30.0751 35 24 35C17.9249 35 13 30.0751 13 24C13 17.9249 17.9249 13 24 13C30.0751 13 35 17.9249 35 24Z" fill="#E4DDCD"/>
<path d="M33.2108 21.8889C33.4381 21.56 33.7612 21.3036 34.1393 21.1522C34.5173 21.0009 34.9333 20.9613 35.3347 21.0384C35.736 21.1156 36.1047 21.3061 36.394 21.5858C36.6834 21.8655 36.8804 22.2219 36.9602 22.6098C37.0401 22.9978 36.9991 23.3999 36.8425 23.7654C36.6859 24.1308 36.4207 24.4432 36.0805 24.6629C35.7402 24.8827 35.3402 25 34.931 25L28 25" stroke="#7E796E" stroke-width="2" stroke-linecap="round"/>
<path d="M33.2108 36.1111C33.4381 36.44 33.7612 36.6964 34.1393 36.8478C34.5173 36.9991 34.9333 37.0387 35.3347 36.9616C35.736 36.8844 36.1047 36.6939 36.394 36.4142C36.6834 36.1345 36.8804 35.7781 36.9602 35.3902C37.0401 35.0022 36.9991 34.6001 36.8425 34.2346C36.6859 33.8692 36.4207 33.5568 36.0805 33.3371C35.7402 33.1173 35.3402 33 34.931 33L28 33" stroke="#7E796E" stroke-width="2" stroke-linecap="round"/>
<path d="M39.2108 25.8889C39.4381 25.56 39.7612 25.3036 40.1393 25.1522C40.5173 25.0009 40.9333 24.9613 41.3347 25.0384C41.736 25.1156 42.1047 25.3061 42.394 25.5858C42.6834 25.8655 42.8804 26.2219 42.9602 26.6098C43.0401 26.9978 42.9991 27.3999 42.8425 27.7654C42.6859 28.1308 42.4207 28.4432 42.0805 28.6629C41.7402 28.8827 41.3402 29 40.931 29L28 29" stroke="#7E796E" stroke-width="2" stroke-linecap="round"/>
</svg>
