<svg width="48" height="48" viewBox="0 0 48 48" fill="none" xmlns="http://www.w3.org/2000/svg">
<path d="M40 24.1714C40 33.0454 27.0044 40.4051 24.4374 41.7723C24.1601 41.92 23.8399 41.92 23.5626 41.7723C20.9956 40.4051 8 33.0454 8 24.1714C8 20.0406 8 14.0721 8 12.026C8 11.595 8.27614 11.2147 8.68522 11.079L23.6852 6.10439C23.8896 6.03661 24.1104 6.03661 24.3148 6.10439L39.3148 11.079C39.7239 11.2147 40 11.595 40 12.026C40 14.0721 40 20.0406 40 24.1714Z" fill="#E4DDCD"/>
<path d="M26.6361 27.788L24.0101 19.702C23.9494 19.5287 23.9711 19.3683 24.0751 19.221C24.1878 19.0737 24.3351 19 24.5171 19H25.3881C25.6048 19 25.7998 19.0693 25.9731 19.208C26.1464 19.338 26.2591 19.507 26.3111 19.715L28.0141 26.358C28.0141 26.3667 28.0184 26.371 28.0271 26.371C28.0358 26.371 28.0401 26.3667 28.0401 26.358L29.7951 19.715C29.8471 19.507 29.9598 19.338 30.1331 19.208C30.3064 19.0693 30.5014 19 30.7181 19H31.5371C31.7191 19 31.8621 19.0737 31.9661 19.221C32.0788 19.3683 32.1048 19.5287 32.0441 19.702L29.4181 27.788C29.3574 27.996 29.2361 28.165 29.0541 28.295C28.8808 28.425 28.6814 28.49 28.4561 28.49H27.5981C27.3814 28.49 27.1821 28.425 27.0001 28.295C26.8268 28.165 26.7054 27.996 26.6361 27.788Z" fill="#504323"/>
<path d="M23.28 25.045C23.28 27.4283 22.0667 28.62 19.64 28.62C17.2133 28.62 16 27.4283 16 25.045V19.741C16 19.5417 16.0737 19.3683 16.221 19.221C16.3683 19.0737 16.5417 19 16.741 19H17.495C17.6943 19 17.8677 19.0737 18.015 19.221C18.1623 19.3683 18.236 19.5417 18.236 19.741V25.201C18.236 25.7903 18.3487 26.2107 18.574 26.462C18.7993 26.7133 19.1633 26.839 19.666 26.839C20.1687 26.839 20.5327 26.7133 20.758 26.462C20.9833 26.2107 21.096 25.7903 21.096 25.201V19.741C21.096 19.5417 21.1697 19.3683 21.317 19.221C21.4643 19.0737 21.6377 19 21.837 19H22.539C22.7383 19 22.9117 19.0737 23.059 19.221C23.2063 19.3683 23.28 19.5417 23.28 19.741V25.045Z" fill="#504323"/>
<path d="M35.5261 5.40878C35.6789 4.95467 36.3211 4.95467 36.4739 5.40878L37.2774 7.79723C37.3238 7.93518 37.428 8.04605 37.5628 8.10092L39.8623 9.03689C40.2776 9.20595 40.2776 9.79405 39.8622 9.96311L37.5628 10.8991C37.428 10.9539 37.3238 11.0648 37.2774 11.2028L36.4739 13.5912C36.3211 14.0453 35.6789 14.0453 35.5261 13.5912L34.7226 11.2028C34.6762 11.0648 34.572 10.9539 34.4372 10.8991L32.1377 9.96311C31.7224 9.79405 31.7224 9.20595 32.1378 9.03689L34.4372 8.10092C34.572 8.04605 34.6762 7.93518 34.7226 7.79723L35.5261 5.40878Z" fill="#7E796E"/>
<path d="M39.62 13.1552C39.7406 12.7885 40.2594 12.7885 40.38 13.1552L41.0232 15.1107C41.0595 15.2211 41.1421 15.3103 41.2494 15.355L43.1129 16.1307C43.4413 16.2674 43.4413 16.7326 43.1129 16.8693L41.2494 17.645C41.1421 17.6897 41.0595 17.7789 41.0232 17.8893L40.38 19.8448C40.2594 20.2115 39.7406 20.2115 39.62 19.8448L38.9768 17.8893C38.9405 17.7789 38.8579 17.6897 38.7506 17.645L36.8871 16.8693C36.5587 16.7326 36.5587 16.2674 36.8871 16.1307L38.7506 15.355C38.8579 15.3103 38.9405 15.2211 38.9768 15.1107L39.62 13.1552Z" fill="#7E796E"/>
</svg>
