<svg width="48" height="48" viewBox="0 0 48 48" fill="none" xmlns="http://www.w3.org/2000/svg">
<rect x="42" y="21" width="18" height="36" rx="1" transform="rotate(90 42 21)" fill="#E4DDCD"/>
<path d="M14.1702 13.0313C16.7272 10.51 20.1552 9.06756 23.7456 9.00231C27.336 8.93706 30.8142 10.254 33.4611 12.6807" stroke="#9F9A8E" stroke-width="2" stroke-linecap="round"/>
<path d="M18.0445 15.7517C19.7995 14.6215 21.8398 14.0141 23.9271 14.0002C26.0144 13.9864 28.0626 14.5668 29.8324 15.6735" stroke="#9F9A8E" stroke-width="2" stroke-linecap="round"/>
<line x1="16" y1="24" x2="10" y2="24" stroke="#7E796E" stroke-width="2" stroke-linecap="round"/>
<path d="M36.3034 29.5021C36.1168 29.1354 35.8234 28.9521 35.4234 28.9521C35.0234 28.9521 34.7268 29.1354 34.5334 29.5021C34.3468 29.8688 34.2534 30.5054 34.2534 31.4121C34.2534 32.3188 34.3468 32.9554 34.5334 33.3221C34.7268 33.6888 35.0234 33.8721 35.4234 33.8721C35.8234 33.8721 36.1168 33.6888 36.3034 33.3221C36.4968 32.9554 36.5934 32.3188 36.5934 31.4121C36.5934 30.5054 36.4968 29.8688 36.3034 29.5021ZM37.6034 34.2821C37.1301 34.8688 36.4034 35.1621 35.4234 35.1621C34.4434 35.1621 33.7134 34.8688 33.2334 34.2821C32.7601 33.6954 32.5234 32.7388 32.5234 31.4121C32.5234 30.0854 32.7601 29.1288 33.2334 28.5421C33.7134 27.9554 34.4434 27.6621 35.4234 27.6621C36.4034 27.6621 37.1301 27.9554 37.6034 28.5421C38.0834 29.1288 38.3234 30.0854 38.3234 31.4121C38.3234 32.7388 38.0834 33.6954 37.6034 34.2821Z" fill="#504323"/>
<path d="M30.5778 35.0621C30.4245 35.0621 30.2911 35.0054 30.1778 34.8921C30.0645 34.7788 30.0078 34.6454 30.0078 34.4921V33.7321C30.0078 33.5788 30.0645 33.4454 30.1778 33.3321C30.2911 33.2188 30.4245 33.1621 30.5778 33.1621H31.3378C31.4911 33.1621 31.6245 33.2188 31.7378 33.3321C31.8511 33.4454 31.9078 33.5788 31.9078 33.7321V34.4921C31.9078 34.6454 31.8511 34.7788 31.7378 34.8921C31.6245 35.0054 31.4911 35.0621 31.3378 35.0621H30.5778Z" fill="#504323"/>
<path d="M24.6687 30.6917C24.5754 30.7651 24.4754 30.7751 24.3687 30.7217C24.2687 30.6684 24.2188 30.5817 24.2188 30.4617V29.7317C24.2188 29.3517 24.3721 29.0517 24.6788 28.8317L25.6888 28.0917C25.9888 27.8717 26.3321 27.7617 26.7187 27.7617H27.3488C27.5021 27.7617 27.6354 27.8184 27.7487 27.9317C27.8621 28.0451 27.9187 28.1784 27.9187 28.3317V34.4917C27.9187 34.6451 27.8621 34.7784 27.7487 34.8917C27.6354 35.0051 27.5021 35.0617 27.3488 35.0617H26.7187C26.5654 35.0617 26.4321 35.0051 26.3187 34.8917C26.2054 34.7784 26.1487 34.6451 26.1487 34.4917V29.6317H26.1387H26.1288L24.6687 30.6917Z" fill="#504323"/>
<path d="M16.6637 35.0617C16.5104 35.0617 16.3771 35.0051 16.2637 34.8917C16.1504 34.7784 16.0938 34.6451 16.0938 34.4917V28.3317C16.0938 28.1784 16.1504 28.0451 16.2637 27.9317C16.3771 27.8184 16.5104 27.7617 16.6637 27.7617H17.2338C17.4071 27.7617 17.5637 27.8084 17.7037 27.9017C17.8437 27.9951 17.9471 28.1217 18.0138 28.2817L19.5638 32.0517C19.5638 32.0584 19.5671 32.0617 19.5737 32.0617C19.5804 32.0617 19.5837 32.0584 19.5837 32.0517L21.1337 28.2817C21.2004 28.1217 21.3037 27.9951 21.4437 27.9017C21.5837 27.8084 21.7404 27.7617 21.9138 27.7617H22.5238C22.6771 27.7617 22.8104 27.8184 22.9237 27.9317C23.0371 28.0451 23.0938 28.1784 23.0938 28.3317V34.4917C23.0938 34.6451 23.0371 34.7784 22.9237 34.8917C22.8104 35.0051 22.6771 35.0617 22.5238 35.0617H22.0437C21.8904 35.0617 21.7571 35.0051 21.6438 34.8917C21.5371 34.7784 21.4837 34.6451 21.4837 34.4917V30.6017C21.4837 30.5951 21.4804 30.5917 21.4738 30.5917C21.4604 30.5917 21.4538 30.5951 21.4538 30.6017L20.4937 32.8717C20.4271 33.0317 20.3204 33.1584 20.1737 33.2517C20.0338 33.3451 19.8771 33.3917 19.7037 33.3917H19.4438C19.2704 33.3917 19.1104 33.3451 18.9637 33.2517C18.8238 33.1584 18.7204 33.0317 18.6537 32.8717L17.6938 30.6017C17.6938 30.5951 17.6871 30.5917 17.6737 30.5917C17.6671 30.5917 17.6637 30.5951 17.6637 30.6017V34.4917C17.6637 34.6451 17.6071 34.7784 17.4937 34.8917C17.3871 35.0051 17.2571 35.0617 17.1038 35.0617H16.6637Z" fill="#504323"/>
<path d="M11.3419 29.1021V31.2821C11.3419 31.3288 11.3719 31.3588 11.4319 31.3721C11.6585 31.3988 11.8385 31.4121 11.9719 31.4121C12.4519 31.4121 12.8219 31.3021 13.0819 31.0821C13.3485 30.8554 13.4819 30.5421 13.4819 30.1421C13.4819 29.3488 12.9785 28.9521 11.9719 28.9521C11.8052 28.9521 11.6219 28.9688 11.4219 29.0021C11.3685 29.0154 11.3419 29.0488 11.3419 29.1021ZM10.2419 35.0621C10.0885 35.0621 9.95521 35.0054 9.84187 34.8921C9.72854 34.7788 9.67188 34.6454 9.67188 34.4921V28.3821C9.67188 28.2221 9.72521 28.0788 9.83188 27.9521C9.93854 27.8254 10.0719 27.7554 10.2319 27.7421C10.7985 27.6888 11.3452 27.6621 11.8719 27.6621C14.0052 27.6621 15.0719 28.4554 15.0719 30.0421C15.0719 30.9021 14.8219 31.5554 14.3219 32.0021C13.8285 32.4421 13.1019 32.6621 12.1419 32.6621C11.8885 32.6621 11.6519 32.6521 11.4319 32.6321C11.3719 32.6321 11.3419 32.6588 11.3419 32.7121V34.4921C11.3419 34.6454 11.2852 34.7788 11.1719 34.8921C11.0585 35.0054 10.9252 35.0621 10.7719 35.0621H10.2419Z" fill="#504323"/>
</svg>
