<svg width="48" height="48" viewBox="0 0 48 48" fill="none" xmlns="http://www.w3.org/2000/svg">
<path d="M41 46.9999H6.99997V32.551C6.99997 32.551 8.39796 28.8253 23.4615 28.8253C23.4615 28.8253 40.01 28.7429 41 32.551V46.9999Z" fill="#E4DDCD"/>
<path d="M23.9364 36.5244C32.8801 36.5244 40.1304 34.9395 40.1304 32.9844C40.1304 31.0293 32.8801 29.4443 23.9364 29.4443C14.9927 29.4443 7.74243 31.0293 7.74243 32.9844C7.74243 34.9395 14.9927 36.5244 23.9364 36.5244Z" fill="#7E796E"/>
<path d="M40.5184 18.1228C40.5184 22.4671 39.3277 26.9077 36.7324 29.9253C33.6823 33.4791 28.8328 35.2457 23.8562 35.2457C18.592 35.2457 13.4682 33.101 10.418 29.1829C8.13711 26.2478 7.20065 22.1716 7.20065 18.1228C7.20065 8.66438 14.6588 1 23.8629 1C33.0669 1 40.5251 8.66438 40.5251 18.1228H40.5184Z" fill="#D0C9BA"/>
<path d="M23.5278 31.6667C32.6558 31.6667 40.0556 24.8017 40.0556 16.3333C40.0556 7.86497 32.6558 1 23.5278 1C14.3997 1 7 7.86497 7 16.3333C7 24.8017 14.3997 31.6667 23.5278 31.6667Z" fill="#E4DDCD"/>
<ellipse cx="18.3333" cy="16.3333" rx="0.944444" ry="0.958333" fill="#D0C9BA"/>
<ellipse cx="22.1111" cy="16.3333" rx="0.944444" ry="0.958333" fill="#D0C9BA"/>
<ellipse cx="25.8889" cy="16.3333" rx="0.944444" ry="0.958333" fill="#D0C9BA"/>
<ellipse cx="29.6667" cy="16.3333" rx="0.944444" ry="0.958333" fill="#D0C9BA"/>
<path d="M23.5278 27.834C30.5694 27.834 36.2778 22.6853 36.2778 16.334C36.2778 9.98271 30.5694 4.83398 23.5278 4.83398C16.4861 4.83398 10.7778 9.98271 10.7778 16.334C10.7778 22.6853 16.4861 27.834 23.5278 27.834Z" stroke="#504323" stroke-width="2" stroke-miterlimit="10"/>
</svg>
