<svg width="48" height="48" viewBox="0 0 48 48" fill="none" xmlns="http://www.w3.org/2000/svg">
<path d="M36.785 26.255C37.3999 26.012 37.929 25.5921 38.3053 25.0485C38.6816 24.5048 38.8882 23.8617 38.8991 23.2006C38.9099 22.5395 38.7245 21.89 38.3662 21.3343C38.0079 20.7786 37.4929 20.3416 36.8862 20.0786" stroke="#7E796E" stroke-width="2" stroke-linecap="round"/>
<path d="M38.3845 29.6725C39.6701 29.1645 40.7762 28.2867 41.5629 27.1501C42.3496 26.0135 42.7816 24.6691 42.8043 23.287C42.8269 21.9049 42.4392 20.5471 41.6902 19.3853C40.9411 18.2235 39.8644 17.3099 38.5962 16.7601" stroke="#7E796E" stroke-width="2" stroke-linecap="round"/>
<rect x="13" y="7" width="22" height="34" rx="1" fill="#E4DDCD"/>
<circle cx="24" cy="32" r="6" stroke="#7E796E" stroke-width="2"/>
<circle cx="24" cy="16" r="6" stroke="#7E796E" stroke-width="2"/>
<path d="M11.1056 26.255C10.4907 26.012 9.96163 25.5921 9.58533 25.0485C9.20902 24.5048 9.00239 23.8617 8.99155 23.2006C8.98071 22.5395 9.16616 21.89 9.52445 21.3343C9.88274 20.7786 10.3978 20.3416 11.0044 20.0786" stroke="#7E796E" stroke-width="2" stroke-linecap="round"/>
<path d="M9.5061 29.6725C8.22051 29.1645 7.11443 28.2867 6.32772 27.1501C5.54101 26.0135 5.10902 24.6691 5.08637 23.287C5.06371 21.9049 5.45141 20.5471 6.20045 19.3853C6.94948 18.2235 8.0262 17.3099 9.29445 16.7601" stroke="#7E796E" stroke-width="2" stroke-linecap="round"/>
</svg>
