<svg width="48" height="48" viewBox="0 0 48 48" fill="none" xmlns="http://www.w3.org/2000/svg">
<path d="M29 32.2122C29 32.8069 28.3741 33.1937 27.8422 32.9277L19.1689 28.5911C19.0578 28.5355 18.9353 28.5066 18.8111 28.5066H12.8C12.3582 28.5066 12 28.1484 12 27.7066V13.3066C12 12.8648 12.3582 12.5066 12.8 12.5066H18.8111C18.9353 12.5066 19.0578 12.4777 19.1689 12.4221L27.8422 8.08549C28.3741 7.81953 29 8.20633 29 8.80104V32.2122Z" fill="#E4DDCD"/>
<path d="M30.9531 23.6825C31.3411 23.2945 31.6489 22.8339 31.8589 22.3269C32.0689 21.82 32.1769 21.2767 32.1769 20.728C32.1769 20.1793 32.0689 19.6359 31.8589 19.129C31.6489 18.622 31.3411 18.1614 30.9531 17.7734" stroke="#7E796E" stroke-width="2" stroke-linecap="round"/>
<path d="M33.7266 25.4545C34.3474 24.8337 34.8398 24.0967 35.1758 23.2856C35.5117 22.4745 35.6846 21.6052 35.6846 20.7272C35.6846 19.8493 35.5117 18.98 35.1758 18.1689C34.8398 17.3578 34.3474 16.6208 33.7266 16" stroke="#7E796E" stroke-width="2" stroke-linecap="round"/>
<path d="M9.69231 27C7.37603 28.3615 6 30.0634 6 31.9097C6 36.3779 14.0589 40 24 40C33.9411 40 42 36.3779 42 31.9097C42 30.0832 40.6534 28.3981 38.382 27.044" stroke="#7E796E" stroke-width="2" stroke-linecap="round"/>
</svg>
