<svg width="48" height="48" viewBox="0 0 48 48" fill="none" xmlns="http://www.w3.org/2000/svg">
<g clip-path="url(#paint0_angular_2390_93730_clip_path)" data-figma-skip-parse="true"><g transform="matrix(4.9489e-10 -0.015 0.0159989 0 24 26)"><foreignObject x="-1066.67" y="-1066.67" width="2133.33" height="2133.33"><div xmlns="http://www.w3.org/1999/xhtml" style="background:conic-gradient(from 90deg,rgba(235, 231, 222, 1) 0deg,rgba(212, 205, 189, 1) 360deg);height:100%;width:100%;opacity:1"></div></foreignObject></g></g><rect x="12" y="11" width="24" height="30" rx="1" data-figma-gradient-fill="{&#34;type&#34;:&#34;GRADIENT_ANGULAR&#34;,&#34;stops&#34;:[{&#34;color&#34;:{&#34;r&#34;:0.92156863212585449,&#34;g&#34;:0.90588235855102539,&#34;b&#34;:0.87058824300765991,&#34;a&#34;:1.0},&#34;position&#34;:0.0},{&#34;color&#34;:{&#34;r&#34;:0.83137255907058716,&#34;g&#34;:0.80392158031463623,&#34;b&#34;:0.74117648601531982,&#34;a&#34;:1.0},&#34;position&#34;:1.0}],&#34;stopsVar&#34;:[{&#34;color&#34;:{&#34;r&#34;:0.92156863212585449,&#34;g&#34;:0.90588235855102539,&#34;b&#34;:0.87058824300765991,&#34;a&#34;:1.0},&#34;position&#34;:0.0},{&#34;color&#34;:{&#34;r&#34;:0.83137255907058716,&#34;g&#34;:0.80392158031463623,&#34;b&#34;:0.74117648601531982,&#34;a&#34;:1.0},&#34;position&#34;:1.0}],&#34;transform&#34;:{&#34;m00&#34;:9.8977932339039398e-07,&#34;m01&#34;:31.997817993164062,&#34;m02&#34;:8.0010900497436523,&#34;m10&#34;:-30.000001907348633,&#34;m11&#34;:-1.8724107064826967e-07,&#34;m12&#34;:41.0},&#34;opacity&#34;:1.0,&#34;blendMode&#34;:&#34;NORMAL&#34;,&#34;visible&#34;:true}"/>
<rect x="20" y="6" width="8" height="12" rx="1" fill="#9F9A8E"/>
<path d="M22 18H26V19C26 19.5523 25.5523 20 25 20H23C22.4477 20 22 19.5523 22 19V18Z" fill="#9F9A8E"/>
<path d="M27 28.9268C27 30.6241 25.6569 32 24 32C22.3431 32 21 30.6241 21 28.9268C21 26.6296 24 23 24 23C24 23 27 26.6296 27 28.9268Z" fill="#9F9A8E"/>
<path d="M38 22V27" stroke="#9F9A8E" stroke-width="2" stroke-linecap="round"/>
<path d="M10 22V27" stroke="#9F9A8E" stroke-width="2" stroke-linecap="round"/>
<path d="M44 23L44 26" stroke="#9F9A8E" stroke-width="2" stroke-linecap="round"/>
<path d="M4 23L4 26" stroke="#9F9A8E" stroke-width="2" stroke-linecap="round"/>
<path d="M41 19V30" stroke="#9F9A8E" stroke-width="2" stroke-linecap="round"/>
<path d="M7 19V30" stroke="#9F9A8E" stroke-width="2" stroke-linecap="round"/>
<defs>
<clipPath id="paint0_angular_2390_93730_clip_path"><rect x="12" y="11" width="24" height="30" rx="1"/></clipPath></defs>
</svg>
