<svg width="48" height="48" viewBox="0 0 48 48" fill="none" xmlns="http://www.w3.org/2000/svg">
<line x1="1" y1="-1" x2="8" y2="-1" transform="matrix(-0.5 0.866025 0.866025 0.5 33 9)" stroke="#7E796E" stroke-width="2" stroke-linecap="round" stroke-dasharray="1 3"/>
<line x1="1" y1="-1" x2="10" y2="-1" transform="matrix(-0.866025 0.5 0.5 0.866025 40 15)" stroke="#7E796E" stroke-width="2" stroke-linecap="round" stroke-dasharray="1 3"/>
<line x1="16.866" y1="9.36603" x2="20.366" y2="15.4282" stroke="#7E796E" stroke-width="2" stroke-linecap="round" stroke-dasharray="1 3"/>
<line x1="9.86603" y1="14.634" x2="17.6603" y2="19.134" stroke="#7E796E" stroke-width="2" stroke-linecap="round" stroke-dasharray="1 3"/>
<line x1="24.5" y1="5" x2="24.5" y2="14" stroke="#7E796E" stroke-width="2" stroke-linecap="round" stroke-dasharray="1 3"/>
<path d="M24.5 44C21.8478 44 19.3043 42.9433 17.4289 41.0623C15.5536 39.1814 14.5 36.6302 14.5 33.9701C14.5 27.2836 24.5 16 24.5 16C24.5 16 34.5 27.2836 34.5 33.9701C34.5 36.6302 33.4464 39.1814 31.5711 41.0623C29.6957 42.9433 27.1522 44 24.5 44Z" fill="#E4DDCD"/>
</svg>
