<svg width="48" height="48" viewBox="0 0 48 48" fill="none" xmlns="http://www.w3.org/2000/svg">
<circle cx="24" cy="24" r="13" fill="#E4DDCD"/>
<path d="M43 23L41 25L39 23" stroke="#7E796E" stroke-width="2" stroke-linecap="round" stroke-linejoin="round"/>
<path d="M41 24C41 14.6112 33.3888 7 24 7C14.6112 7 7 14.6112 7 24C7 33.3888 14.6112 41 24 41C27.4758 41 30.7079 39.9569 33.4004 38.1667" stroke="#7E796E" stroke-width="2" stroke-linecap="round" stroke-linejoin="round"/>
<path d="M44 34.5854C44 36.4712 42.433 38 40.5 38C38.567 38 37 36.4712 37 34.5854C37 32.0328 40.5 28 40.5 28C40.5 28 44 32.0328 44 34.5854Z" fill="#7E796E"/>
<path d="M21.4047 25.37V25.384C21.4047 25.3933 21.4094 25.398 21.4187 25.398H23.7287C23.8127 25.398 23.8547 25.3607 23.8547 25.286V21.898C23.8547 21.8887 23.85 21.884 23.8407 21.884C23.822 21.884 23.8127 21.8887 23.8127 21.898L21.4047 25.37ZM20.0887 27.26C19.874 27.26 19.6874 27.1807 19.5287 27.022C19.3794 26.8633 19.3047 26.6767 19.3047 26.462V26.196C19.3047 25.6733 19.4587 25.1927 19.7667 24.754L23.3927 19.644C23.7007 19.2147 24.116 19 24.6387 19H25.3387C25.5534 19 25.7354 19.0793 25.8847 19.238C26.0434 19.3967 26.1227 19.5833 26.1227 19.798V25.286C26.1227 25.3607 26.1647 25.398 26.2487 25.398H26.8087C27.0234 25.398 27.21 25.4773 27.3687 25.636C27.5274 25.7947 27.6067 25.9813 27.6067 26.196V26.462C27.6067 26.6767 27.5274 26.8633 27.3687 27.022C27.21 27.1807 27.0234 27.26 26.8087 27.26H26.2487C26.1647 27.26 26.1227 27.302 26.1227 27.386V28.422C26.1227 28.6367 26.0434 28.8233 25.8847 28.982C25.7354 29.1407 25.5534 29.22 25.3387 29.22H24.6387C24.424 29.22 24.2374 29.1407 24.0787 28.982C23.9294 28.8233 23.8547 28.6367 23.8547 28.422V27.386C23.8547 27.302 23.8127 27.26 23.7287 27.26H20.0887Z" fill="#504323"/>
</svg>
