<svg width="48" height="48" viewBox="0 0 48 48" fill="none" xmlns="http://www.w3.org/2000/svg">
<circle cx="24" cy="24" r="13" fill="#E4DDCD"/>
<path d="M43 23L41 25L39 23" stroke="#7E796E" stroke-width="2" stroke-linecap="round" stroke-linejoin="round"/>
<path d="M41 24C41 14.6112 33.3888 7 24 7C14.6112 7 7 14.6112 7 24C7 33.3888 14.6112 41 24 41C27.4758 41 30.7079 39.9569 33.4004 38.1667" stroke="#7E796E" stroke-width="2" stroke-linecap="round" stroke-linejoin="round"/>
<path d="M44 34.5854C44 36.4712 42.433 38 40.5 38C38.567 38 37 36.4712 37 34.5854C37 32.0328 40.5 28 40.5 28C40.5 28 44 32.0328 44 34.5854Z" fill="#7E796E"/>
<path d="M21.3214 20.7383C21.1068 20.7383 20.9201 20.659 20.7614 20.5003C20.6028 20.3416 20.5234 20.155 20.5234 19.9403V19.6183C20.5234 19.4036 20.6028 19.217 20.7614 19.0583C20.9201 18.8996 21.1068 18.8203 21.3214 18.8203H26.5434C26.7581 18.8203 26.9448 18.8996 27.1034 19.0583C27.2621 19.217 27.3414 19.4036 27.3414 19.6183V19.9403C27.3414 20.4723 27.1361 20.9063 26.7254 21.2423L24.6114 22.9923V23.0063C24.6114 23.0156 24.6161 23.0203 24.6254 23.0203H24.7934C25.6054 23.0203 26.2541 23.2723 26.7394 23.7763C27.2341 24.2803 27.4814 24.9616 27.4814 25.8203C27.4814 26.903 27.1501 27.7336 26.4874 28.3123C25.8248 28.891 24.8728 29.1803 23.6314 29.1803C22.8848 29.1803 22.1288 29.0916 21.3634 28.9143C21.1394 28.8583 20.9528 28.737 20.8034 28.5503C20.6634 28.3543 20.5934 28.135 20.5934 27.8923V27.4163C20.5934 27.2296 20.6681 27.085 20.8174 26.9823C20.9761 26.8703 21.1488 26.8423 21.3354 26.8983C22.1381 27.1596 22.8381 27.2903 23.4354 27.2903C23.9768 27.2903 24.3968 27.1643 24.6954 26.9123C24.9941 26.6603 25.1434 26.3103 25.1434 25.8623C25.1434 25.405 24.9708 25.083 24.6254 24.8963C24.2801 24.7096 23.6361 24.6116 22.6934 24.6023C22.4788 24.6023 22.2921 24.5276 22.1334 24.3783C21.9748 24.2196 21.8954 24.033 21.8954 23.8183V23.7903C21.8954 23.2676 22.0961 22.8336 22.4974 22.4883L24.4854 20.7663V20.7523C24.4854 20.743 24.4808 20.7383 24.4714 20.7383H21.3214Z" fill="#504323"/>
</svg>
