<svg width="48" height="48" viewBox="0 0 48 48" fill="none" xmlns="http://www.w3.org/2000/svg">
<path d="M13.1055 38.3374C15.1366 39.8818 17.4726 40.9754 19.9583 41.5457C22.4439 42.1159 25.0223 42.1498 27.522 41.6449C30.0216 41.14 32.3854 40.108 34.4563 38.6174C36.5271 37.1268 38.2575 35.2119 39.5325 32.9997M12.9712 40.8069L12.5586 37.8761L15.3596 37.3963M17.0063 7.40422C14.6556 8.39407 12.542 9.87374 10.8062 11.7449C9.07035 13.6161 7.75195 15.8359 6.9386 18.2568C6.12525 20.6777 5.83559 23.2443 6.08885 25.786C6.34212 28.3278 7.13252 30.7864 8.40752 32.9985M14.9385 6.05313L17.6785 7.16059L16.6928 9.83031M41.798 26.2566C42.1176 23.7224 41.8951 21.1491 41.1453 18.7076C40.3955 16.2662 39.1356 14.0126 37.4492 12.0966C35.7629 10.1805 33.6888 8.64594 31.3647 7.59479C29.0406 6.54364 26.5198 6 23.9698 6M44 25.1383L41.6725 26.9616L39.8572 24.7717" stroke="#7E796E" stroke-width="2" stroke-linecap="round" stroke-linejoin="round"/>
<path d="M24 36C21.6131 36 19.3239 35.0942 17.636 33.482C15.9482 31.8697 15 29.6831 15 27.403C15 21.6716 24 12 24 12C24 12 33 21.6716 33 27.403C33 29.6831 32.0518 31.8697 30.364 33.482C28.6761 35.0942 26.3869 36 24 36Z" fill="#E4DDCD"/>
<path d="M28.2117 12.0017C28.295 11.7123 28.705 11.7123 28.7883 12.0017L29.4079 14.1547C29.4317 14.2373 29.4898 14.3057 29.5674 14.3427L31.4306 15.2291C31.6587 15.3376 31.6587 15.6624 31.4306 15.7709L29.5674 16.6573C29.4898 16.6943 29.4317 16.7627 29.4079 16.8453L28.7883 18.9983C28.705 19.2877 28.295 19.2877 28.2117 18.9983L27.5921 16.8453C27.5683 16.7627 27.5102 16.6943 27.4326 16.6573L25.5694 15.7709C25.3413 15.6624 25.3413 15.3376 25.5694 15.2291L27.4326 14.3427C27.5102 14.3057 27.5683 14.2373 27.5921 14.1547L28.2117 12.0017Z" fill="#7E796E"/>
<path d="M31.21 18.0973C31.2887 17.7996 31.7113 17.7996 31.79 18.0973L32.1412 19.4261C32.1629 19.508 32.2181 19.5769 32.2933 19.6158L33.4858 20.2336C33.7018 20.3455 33.7018 20.6545 33.4858 20.7664L32.2933 21.3842C32.2181 21.4231 32.1629 21.492 32.1412 21.5739L31.79 22.9027C31.7113 23.2004 31.2887 23.2004 31.21 22.9027L30.8588 21.5739C30.8371 21.492 30.7819 21.4231 30.7067 21.3842L29.5142 20.7664C29.2982 20.6545 29.2982 20.3455 29.5142 20.2336L30.7067 19.6158C30.7819 19.5769 30.8371 19.508 30.8588 19.4261L31.21 18.0973Z" fill="#7E796E"/>
</svg>
