<svg width="48" height="48" viewBox="0 0 48 48" fill="none" xmlns="http://www.w3.org/2000/svg">
<path d="M17.5 11.6098C17.5 12.9299 16.3807 14 15 14C13.6193 14 12.5 12.9299 12.5 11.6098C12.5 9.82299 15 7 15 7C15 7 17.5 9.82299 17.5 11.6098Z" fill="#7E796E"/>
<path d="M26.5 11.6098C26.5 12.9299 25.3807 14 24 14C22.6193 14 21.5 12.9299 21.5 11.6098C21.5 9.82299 24 7 24 7C24 7 26.5 9.82299 26.5 11.6098Z" fill="#7E796E"/>
<path d="M35 11.6098C35 12.9299 33.8807 14 32.5 14C31.1193 14 30 12.9299 30 11.6098C30 9.82299 32.5 7 32.5 7C32.5 7 35 9.82299 35 11.6098Z" fill="#7E796E"/>
<rect x="8" y="16" width="32" height="4" rx="1" fill="#E4DDCD"/>
<path d="M23.3356 37.4095C23.7145 37.7462 24.2855 37.7462 24.6644 37.4095L40.0342 23.7474C40.7214 23.1365 40.2893 22 39.3698 22H8.6302C7.71068 22 7.27858 23.1365 7.96584 23.7474L23.3356 37.4095Z" fill="#E4DDCD"/>
<path d="M20 34H28V39C28 39.5523 27.5523 40 27 40H21C20.4477 40 20 39.5523 20 39V34Z" fill="#E4DDCD"/>
</svg>
