<svg width="48" height="48" viewBox="0 0 48 48" fill="none" xmlns="http://www.w3.org/2000/svg">
<rect x="7" y="7" width="34" height="34" rx="1" fill="#E4DDCD"/>
<path d="M24.2705 9.25879C24.6155 8.91394 25.1745 8.91396 25.5195 9.25879C25.8645 9.60376 25.8644 10.1628 25.5195 10.5078L25.125 10.9023V21.1406C25.125 21.1702 25.1235 21.1997 25.1201 21.2285L25.5176 21.626C25.8623 21.9709 25.8623 22.53 25.5176 22.875C25.1726 23.22 24.6126 23.22 24.2676 22.875L24.0088 22.6162L23.75 22.875C23.405 23.2199 22.846 23.22 22.501 22.875C22.1562 22.53 22.1561 21.9709 22.501 21.626L23.125 21.002V11.1289L22.5039 10.5078C22.1589 10.1628 22.1589 9.6038 22.5039 9.25879C22.8489 8.91405 23.408 8.91387 23.7529 9.25879L24.0117 9.51758L24.2705 9.25879Z" fill="#7E796E"/>
<path d="M30.0396 12.8851C30.5106 13.0116 30.7903 13.4956 30.6641 13.9668C30.5378 14.4379 30.0535 14.7174 29.5824 14.5913L29.0474 14.448L20.0929 19.6179L19.9499 20.1515C19.8236 20.6228 19.3387 20.9028 18.8674 20.7765C18.3964 20.6502 18.1169 20.1659 18.2429 19.6948L18.3376 19.3413L17.9841 19.2466C17.5128 19.1203 17.2328 18.6353 17.3591 18.1641C17.4853 17.6928 17.9703 17.4128 18.4416 17.5391L19.2967 17.7682L27.8453 12.8326L28.0741 11.9789C28.2005 11.5078 28.6846 11.2282 29.1558 11.3544C29.6269 11.4806 29.9063 11.9649 29.7803 12.436L29.686 12.7904L30.0396 12.8851Z" fill="#7E796E"/>
<path d="M29.771 19.695C29.8973 20.1663 29.6173 20.6512 29.146 20.7775C28.675 20.9035 28.1908 20.6239 28.0643 20.153L27.922 19.622L18.9675 14.4521L18.4339 14.5951C17.9628 14.7211 17.4785 14.4417 17.3522 13.9706C17.2259 13.4993 17.5059 13.0143 17.9772 12.8881L18.3307 12.7933L18.236 12.4398C18.1099 11.9686 18.3893 11.4844 18.8605 11.3581C19.3317 11.2319 19.8158 11.5116 19.9422 11.9826L20.1713 12.8377L28.7148 17.7704L29.5726 17.5405C30.0439 17.4144 30.528 17.6938 30.6543 18.165C30.7806 18.6363 30.501 19.1204 30.0298 19.2467L29.6763 19.3414L29.771 19.695Z" fill="#7E796E"/>
<path d="M20 34.2439C20 36.3183 18.2091 38 16 38C13.7909 38 12 36.3183 12 34.2439C12 31.4361 16 27 16 27C16 27 20 31.4361 20 34.2439Z" fill="#7E796E"/>
<path d="M28.25 28.25L27.6574 29.0402C26.8252 30.1498 27.096 31.7306 28.25 32.5C29.404 33.2694 29.6748 34.8502 28.8426 35.9598L28.25 36.75" stroke="#7E796E" stroke-width="2" stroke-linecap="round" stroke-linejoin="round"/>
<path d="M32.5 28.25L31.9074 29.0402C31.0752 30.1498 31.346 31.7306 32.5 32.5C33.654 33.2694 33.9248 34.8502 33.0926 35.9598L32.5 36.75" stroke="#7E796E" stroke-width="2" stroke-linecap="round" stroke-linejoin="round"/>
<path d="M36.75 28.25L36.1574 29.0402C35.3252 30.1498 35.596 31.7306 36.75 32.5C37.904 33.2694 38.1748 34.8502 37.3426 35.9598L36.75 36.75" stroke="#7E796E" stroke-width="2" stroke-linecap="round" stroke-linejoin="round"/>
</svg>
