<svg width="48" height="48" viewBox="0 0 48 48" fill="none" xmlns="http://www.w3.org/2000/svg">
<path d="M11.1014 13.0925C11.047 12.5062 11.5084 12 12.0972 12H35.9028C36.4916 12 36.953 12.5062 36.8986 13.0925L34.2986 41.0925C34.2508 41.6067 33.8193 42 33.3028 42H14.6972C14.1807 42 13.7492 41.6067 13.7014 41.0925L11.1014 13.0925Z" fill="#E4DDCD"/>
<path d="M14.1183 24.1063C14.0551 23.5153 14.5183 23 15.1127 23H32.8873C33.4817 23 33.9449 23.5153 33.8817 24.1063L32.2774 39.1063C32.223 39.6146 31.7942 40 31.2831 40H16.7169C16.2058 40 15.777 39.6146 15.7226 39.1063L14.1183 24.1063Z" fill="#7E796E"/>
<path d="M19 8V13M19 13L21 11M19 13L17 11" stroke="#7E796E" stroke-width="2" stroke-linecap="round" stroke-linejoin="round"/>
<path d="M29 8V13M29 13L31 11M29 13L27 11" stroke="#7E796E" stroke-width="2" stroke-linecap="round" stroke-linejoin="round"/>
</svg>
