<svg width="48" height="48" viewBox="0 0 48 48" fill="none" xmlns="http://www.w3.org/2000/svg">
<rect x="20" y="11" width="8" height="27" fill="#E4DDCD"/>
<path d="M34 14L38 14C38 14.5523 37.5523 15 37 15L35 15C34.4477 15 34 14.5523 34 14Z" fill="#D5CDBA"/>
<path d="M10 25L14 25C14 25.5523 13.5523 26 13 26L11 26C10.4477 26 10 25.5523 10 25Z" fill="#D5CDBA"/>
<rect x="8" y="38" width="32" height="2" rx="1" fill="#7E796E"/>
<rect x="20" y="8" width="20" height="6" rx="1" fill="#E4DDCD"/>
<rect x="8" y="21" width="13" height="4" rx="1" fill="#E4DDCD"/>
<path d="M39 21.9268C39 23.6241 37.6569 25 36 25C34.3431 25 33 23.6241 33 21.9268C33 19.6296 36 16 36 16C36 16 39 19.6296 39 21.9268Z" fill="#7E796E"/>
<path d="M14 30.9512C14 32.0827 13.1046 33 12 33C10.8954 33 10 32.0827 10 30.9512C10 29.4197 12 27 12 27C12 27 14 29.4197 14 30.9512Z" fill="#7E796E"/>
</svg>
