<svg width="48" height="48" viewBox="0 0 48 48" fill="none" xmlns="http://www.w3.org/2000/svg">
<g clip-path="url(#paint0_angular_2390_94453_clip_path)" data-figma-skip-parse="true"><g transform="matrix(4.12408e-10 -0.016 0.0133324 0 24 24)"><foreignObject x="-1062.5" y="-1062.5" width="2125" height="2125"><div xmlns="http://www.w3.org/1999/xhtml" style="background:conic-gradient(from 90deg,rgba(235, 231, 222, 1) 0deg,rgba(212, 205, 189, 1) 360deg);height:100%;width:100%;opacity:1"></div></foreignObject></g></g><rect x="14" y="8" width="20" height="32" rx="1" data-figma-gradient-fill="{&#34;type&#34;:&#34;GRADIENT_ANGULAR&#34;,&#34;stops&#34;:[{&#34;color&#34;:{&#34;r&#34;:0.92156863212585449,&#34;g&#34;:0.90588235855102539,&#34;b&#34;:0.87058824300765991,&#34;a&#34;:1.0},&#34;position&#34;:0.0},{&#34;color&#34;:{&#34;r&#34;:0.83137255907058716,&#34;g&#34;:0.80392158031463623,&#34;b&#34;:0.74117648601531982,&#34;a&#34;:1.0},&#34;position&#34;:1.0}],&#34;stopsVar&#34;:[{&#34;color&#34;:{&#34;r&#34;:0.92156863212585449,&#34;g&#34;:0.90588235855102539,&#34;b&#34;:0.87058824300765991,&#34;a&#34;:1.0},&#34;position&#34;:0.0},{&#34;color&#34;:{&#34;r&#34;:0.83137255907058716,&#34;g&#34;:0.80392158031463623,&#34;b&#34;:0.74117648601531982,&#34;a&#34;:1.0},&#34;position&#34;:1.0}],&#34;transform&#34;:{&#34;m00&#34;:8.2481608387752203e-07,&#34;m01&#34;:26.664848327636719,&#34;m02&#34;:10.667574882507324,&#34;m10&#34;:-32.000003814697266,&#34;m11&#34;:-1.9972380016497482e-07,&#34;m12&#34;:40.0},&#34;opacity&#34;:1.0,&#34;blendMode&#34;:&#34;NORMAL&#34;,&#34;visible&#34;:true}"/>
<path d="M19 6C19 5.44772 19.4477 5 20 5H28C28.5523 5 29 5.44772 29 6V8H19V6Z" fill="#9F9A8E"/>
<path d="M19 40H29V42C29 42.5523 28.5523 43 28 43H20C19.4477 43 19 42.5523 19 42V40Z" fill="#9F9A8E"/>
<path d="M28 25.9024C28 28.1655 26.2091 30 24 30C21.7909 30 20 28.1655 20 25.9024C20 22.8394 24 18 24 18C24 18 28 22.8394 28 25.9024Z" fill="#9F9A8E"/>
<path d="M37.2133 12.9297C37.3003 12.6476 37.6997 12.6476 37.7867 12.9297L38.135 14.0593C38.1606 14.1422 38.2207 14.2099 38.2999 14.2451L39.3825 14.7258C39.6202 14.8313 39.6202 15.1687 39.3825 15.2742L38.2999 15.7549C38.2207 15.7901 38.1606 15.8578 38.135 15.9407L37.7867 17.0703C37.6997 17.3524 37.3003 17.3524 37.2133 17.0703L36.865 15.9407C36.8394 15.8578 36.7793 15.7901 36.7001 15.7549L35.6175 15.2742C35.3798 15.1687 35.3798 14.8313 35.6175 14.7258L36.7001 14.2451C36.7793 14.2099 36.8394 14.1422 36.865 14.0593L37.2133 12.9297Z" fill="#9F9A8E"/>
<path d="M9.2117 30.0017C9.29498 29.7123 9.70502 29.7123 9.7883 30.0017L10.4079 32.1547C10.4317 32.2373 10.4898 32.3057 10.5674 32.3427L12.4306 33.2291C12.6587 33.3376 12.6587 33.6624 12.4306 33.7709L10.5674 34.6573C10.4898 34.6943 10.4317 34.7627 10.4079 34.8453L9.7883 36.9983C9.70502 37.2877 9.29498 37.2877 9.2117 36.9983L8.59206 34.8453C8.56829 34.7627 8.51025 34.6943 8.43265 34.6573L6.56942 33.7709C6.34126 33.6624 6.34126 33.3376 6.56942 33.2291L8.43265 32.3427C8.51025 32.3057 8.56829 32.2373 8.59206 32.1547L9.2117 30.0017Z" fill="#9F9A8E"/>
<defs>
<clipPath id="paint0_angular_2390_94453_clip_path"><rect x="14" y="8" width="20" height="32" rx="1"/></clipPath></defs>
</svg>
