<svg width="40" height="40" viewBox="0 0 40 40" fill="none" xmlns="http://www.w3.org/2000/svg">
<path d="M35.8007 14.7585L34.8111 16.8977L32.6719 15.9082" stroke="#7E796E" stroke-width="1.66667" stroke-linecap="round" stroke-linejoin="round"/>
<path d="M4.25632 25.3278L5.3329 23.231L7.42969 24.3076" stroke="#7E796E" stroke-width="1.66667" stroke-linecap="round" stroke-linejoin="round"/>
<path d="M5.15379 17.9251C5.63958 14.4685 7.31565 11.2896 9.89327 8.93587C12.4709 6.58218 15.7887 5.20112 19.2751 5.0306C22.7614 4.86009 26.1982 5.91079 28.9932 8.00172C31.7882 10.0926 33.7664 13.0929 34.5872 16.4855" stroke="#7E796E" stroke-width="1.66667" stroke-linecap="round" stroke-linejoin="round"/>
<path d="M34.8231 22.3592C34.2771 25.8068 32.5458 28.956 29.9275 31.2644C27.3092 33.5727 23.9678 34.8957 20.479 35.0053C16.9901 35.1149 13.5723 34.0044 10.8142 31.865C8.05612 29.7256 6.1305 26.6913 5.36906 23.2848" stroke="#7E796E" stroke-width="1.66667" stroke-linecap="round" stroke-linejoin="round"/>
<path d="M11.749 11.7434C11.7055 11.2558 12.0895 10.8359 12.579 10.8359H27.4236C27.9131 10.8359 28.2971 11.2558 28.2536 11.7434L26.6167 30.0767C26.5783 30.5065 26.2182 30.8359 25.7867 30.8359H14.2159C13.7844 30.8359 13.4243 30.5065 13.3859 30.0767L11.749 11.7434Z" fill="#E4DDCD"/>
<mask id="mask0_2817_89663" style="mask-type:alpha" maskUnits="userSpaceOnUse" x="11" y="10" width="18" height="21">
<path d="M11.749 11.7434C11.7055 11.2558 12.0895 10.8359 12.579 10.8359H27.4236C27.9131 10.8359 28.2971 11.2558 28.2536 11.7434L26.6167 30.0767C26.5783 30.5065 26.2182 30.8359 25.7867 30.8359H14.2159C13.7844 30.8359 13.4243 30.5065 13.3859 30.0767L11.749 11.7434Z" fill="#7E796E"/>
</mask>
<g mask="url(#mask0_2817_89663)">
<path d="M11.668 18.3359H15.8346" stroke="#7E796E" stroke-width="1.66667" stroke-linecap="round"/>
<path d="M11.668 21.6689H15.8346" stroke="#7E796E" stroke-width="1.66667" stroke-linecap="round"/>
<path d="M11.668 28.3359H15.8346" stroke="#7E796E" stroke-width="1.66667" stroke-linecap="round"/>
<path d="M11.668 25.0029H15.8346" stroke="#7E796E" stroke-width="1.66667" stroke-linecap="round"/>
</g>
<path d="M22.5 12.7262C22.5 13.9834 21.3807 15.0026 20 15.0026C18.6193 15.0026 17.5 13.9834 17.5 12.7262C17.5 11.0245 20 8.33594 20 8.33594C20 8.33594 22.5 11.0245 22.5 12.7262Z" fill="#7E796E"/>
</svg>
