<svg width="47" height="47" viewBox="0 0 47 47" fill="none" xmlns="http://www.w3.org/2000/svg">
<path d="M9.69231 31C7.37603 32.0473 6 33.3565 6 34.7767C6 38.2137 14.0589 41 24 41C33.9411 41 42 38.2137 42 34.7767C42 33.3717 40.6534 32.0755 38.382 31.0339" stroke="#7E796E" stroke-width="2" stroke-linecap="round"/>
<path d="M37.4647 33.1033L36.5625 30.2422L39.4236 29.34" stroke="#7E796E" stroke-width="2" stroke-linecap="round" stroke-linejoin="round"/>
<rect x="14" y="9" width="8" height="25" fill="#E4DDCD"/>
<path d="M30 14L36 14C36 14.5523 35.5523 15 35 15L31 15C30.4477 15 30 14.5523 30 14Z" fill="#D5CDBA"/>
<rect x="14" y="6" width="24" height="8" rx="1" fill="#E4DDCD"/>
<rect x="12" y="34" width="12" height="2" rx="1" fill="#7E796E"/>
<path d="M36.0786 24.854C35.9946 24.7653 35.8919 24.721 35.7706 24.721C35.6492 24.721 35.5442 24.7653 35.4556 24.854C35.3716 24.9427 35.3296 25.0477 35.3296 25.169C35.3296 25.2903 35.3716 25.3953 35.4556 25.484C35.5442 25.568 35.6492 25.61 35.7706 25.61C35.8919 25.61 35.9946 25.568 36.0786 25.484C36.1672 25.3953 36.2116 25.2903 36.2116 25.169C36.2116 25.0477 36.1672 24.9427 36.0786 24.854ZM36.5966 25.995C36.3679 26.219 36.0926 26.331 35.7706 26.331C35.4486 26.331 35.1732 26.219 34.9446 25.995C34.7159 25.7663 34.6016 25.491 34.6016 25.169C34.6016 24.847 34.7159 24.5717 34.9446 24.343C35.1732 24.1143 35.4486 24 35.7706 24C36.0926 24 36.3679 24.1143 36.5966 24.343C36.8252 24.5717 36.9396 24.847 36.9396 25.169C36.9396 25.491 36.8252 25.7663 36.5966 25.995Z" fill="#504323"/>
<path d="M33.0366 25.288C32.906 25.0313 32.7006 24.903 32.4206 24.903C32.1406 24.903 31.933 25.0313 31.7976 25.288C31.667 25.5447 31.6016 25.9903 31.6016 26.625C31.6016 27.2597 31.667 27.7053 31.7976 27.962C31.933 28.2187 32.1406 28.347 32.4206 28.347C32.7006 28.347 32.906 28.2187 33.0366 27.962C33.172 27.7053 33.2396 27.2597 33.2396 26.625C33.2396 25.9903 33.172 25.5447 33.0366 25.288ZM33.9466 28.634C33.6153 29.0447 33.1066 29.25 32.4206 29.25C31.7346 29.25 31.2236 29.0447 30.8876 28.634C30.5563 28.2233 30.3906 27.5537 30.3906 26.625C30.3906 25.6963 30.5563 25.0267 30.8876 24.616C31.2236 24.2053 31.7346 24 32.4206 24C33.1066 24 33.6153 24.2053 33.9466 24.616C34.2826 25.0267 34.4506 25.6963 34.4506 26.625C34.4506 27.5537 34.2826 28.2233 33.9466 28.634Z" fill="#504323"/>
<path d="M28.0425 26.947C27.7858 27.0543 27.6038 27.171 27.4965 27.297C27.3938 27.4183 27.3425 27.5607 27.3425 27.724C27.3425 27.9247 27.4242 28.0903 27.5875 28.221C27.7508 28.3517 27.9608 28.417 28.2175 28.417C28.4742 28.417 28.6818 28.3517 28.8405 28.221C29.0038 28.0903 29.0855 27.9247 29.0855 27.724C29.0855 27.5467 29.0225 27.402 28.8965 27.29C28.7752 27.1733 28.5278 27.0567 28.1545 26.94C28.1218 26.926 28.0845 26.9283 28.0425 26.947ZM28.2175 24.833C27.9888 24.833 27.8068 24.889 27.6715 25.001C27.5408 25.1083 27.4755 25.2483 27.4755 25.421C27.4755 25.5657 27.5292 25.6917 27.6365 25.799C27.7485 25.9063 27.9398 26.0043 28.2105 26.093C28.2478 26.107 28.2852 26.107 28.3225 26.093C28.7565 25.925 28.9735 25.701 28.9735 25.421C28.9735 25.2483 28.9058 25.1083 28.7705 25.001C28.6352 24.889 28.4508 24.833 28.2175 24.833ZM29.7085 28.851C29.3538 29.117 28.8568 29.25 28.2175 29.25C27.5782 29.25 27.0788 29.117 26.7195 28.851C26.3648 28.585 26.1875 28.228 26.1875 27.78C26.1875 27.2713 26.5095 26.8677 27.1535 26.569C27.1582 26.569 27.1605 26.5643 27.1605 26.555C27.1605 26.5503 27.1582 26.548 27.1535 26.548C26.6122 26.24 26.3415 25.827 26.3415 25.309C26.3415 24.9263 26.5072 24.6137 26.8385 24.371C27.1698 24.1237 27.6295 24 28.2175 24C28.8055 24 29.2652 24.1237 29.5965 24.371C29.9278 24.6137 30.0935 24.9263 30.0935 25.309C30.0935 25.7523 29.8065 26.121 29.2325 26.415C29.2278 26.415 29.2255 26.4173 29.2255 26.422C29.2255 26.4313 29.2278 26.436 29.2325 26.436C29.9092 26.716 30.2475 27.164 30.2475 27.78C30.2475 28.228 30.0678 28.585 29.7085 28.851Z" fill="#504323"/>
<path d="M23.315 26.1213C23.2497 26.1726 23.1797 26.1796 23.105 26.1423C23.035 26.105 23 26.0443 23 25.9603V25.4493C23 25.1833 23.1073 24.9733 23.322 24.8193L24.029 24.3013C24.239 24.1473 24.4793 24.0703 24.75 24.0703H25.191C25.2983 24.0703 25.3917 24.11 25.471 24.1893C25.5503 24.2686 25.59 24.362 25.59 24.4693V28.7813C25.59 28.8886 25.5503 28.982 25.471 29.0613C25.3917 29.1406 25.2983 29.1803 25.191 29.1803H24.75C24.6427 29.1803 24.5493 29.1406 24.47 29.0613C24.3907 28.982 24.351 28.8886 24.351 28.7813V25.3793H24.344H24.337L23.315 26.1213Z" fill="#504323"/>
</svg>
