<svg width="48" height="48" viewBox="0 0 48 48" fill="none" xmlns="http://www.w3.org/2000/svg">
<rect x="6" y="7" width="36" height="26" rx="1" fill="#E4DDCD"/>
<mask id="path-2-inside-1_2550_22871" fill="white">
<rect x="11" y="37" width="26" height="4" rx="1"/>
</mask>
<rect x="11" y="37" width="26" height="4" rx="1" stroke="#E4DDCD" stroke-width="4" mask="url(#path-2-inside-1_2550_22871)"/>
<rect x="22" y="37" width="4" height="4" transform="rotate(-90 22 37)" fill="#E4DDCD"/>
<path d="M22.2108 12.8889C22.4381 12.56 22.7612 12.3036 23.1393 12.1522C23.5173 12.0009 23.9333 11.9613 24.3347 12.0384C24.736 12.1156 25.1047 12.3061 25.394 12.5858C25.6834 12.8655 25.8804 13.2219 25.9602 13.6098C26.0401 13.9978 25.9991 14.3999 25.8425 14.7654C25.6859 15.1308 25.4207 15.4432 25.0805 15.6629C24.7402 15.8827 24.3402 16 23.931 16L15 16" stroke="#7E796E" stroke-width="2" stroke-linecap="round"/>
<path d="M23.2108 27.1111C23.4381 27.44 23.7612 27.6964 24.1393 27.8478C24.5173 27.9991 24.9333 28.0387 25.3347 27.9616C25.736 27.8844 26.1047 27.6939 26.394 27.4142C26.6834 27.1345 26.8804 26.7781 26.9602 26.3902C27.0401 26.0022 26.9991 25.6001 26.8425 25.2346C26.6859 24.8692 26.4207 24.5568 26.0805 24.3371C25.7402 24.1173 25.3402 24 24.931 24L15 24" stroke="#7E796E" stroke-width="2" stroke-linecap="round"/>
<path d="M29.2108 16.8889C29.4381 16.56 29.7612 16.3036 30.1393 16.1522C30.5173 16.0009 30.9333 15.9613 31.3347 16.0384C31.736 16.1156 32.1047 16.3061 32.394 16.5858C32.6834 16.8655 32.8804 17.2219 32.9602 17.6098C33.0401 17.9978 32.9991 18.3999 32.8425 18.7654C32.6859 19.1308 32.4207 19.4432 32.0805 19.6629C31.7402 19.8827 31.3402 20 30.931 20L15 20" stroke="#7E796E" stroke-width="2" stroke-linecap="round"/>
</svg>
