<svg width="48" height="48" viewBox="0 0 48 48" fill="none" xmlns="http://www.w3.org/2000/svg">
<path d="M27.0435 25.6061C27.2162 25.6061 27.3562 25.5595 27.4635 25.4661C27.5708 25.3728 27.6548 25.2468 27.7155 25.0881C27.7762 24.9295 27.8158 24.7475 27.8345 24.5421C27.8578 24.3368 27.8695 24.1245 27.8695 23.9051C27.8695 23.6858 27.8578 23.4735 27.8345 23.2681C27.8158 23.0628 27.7762 22.8808 27.7155 22.7221C27.6548 22.5635 27.5708 22.4375 27.4635 22.3441C27.3562 22.2461 27.2162 22.1971 27.0435 22.1971C26.8708 22.1971 26.7308 22.2461 26.6235 22.3441C26.5162 22.4375 26.4322 22.5635 26.3715 22.7221C26.3108 22.8808 26.2688 23.0628 26.2455 23.2681C26.2268 23.4735 26.2175 23.6858 26.2175 23.9051C26.2175 24.1245 26.2268 24.3368 26.2455 24.5421C26.2688 24.7475 26.3108 24.9295 26.3715 25.0881C26.4322 25.2468 26.5162 25.3728 26.6235 25.4661C26.7308 25.5595 26.8708 25.6061 27.0435 25.6061ZM27.0435 26.6001C26.6702 26.6001 26.3575 26.5301 26.1055 26.3901C25.8535 26.2501 25.6505 26.0588 25.4965 25.8161C25.3425 25.5735 25.2305 25.2888 25.1605 24.9621C25.0952 24.6308 25.0625 24.2785 25.0625 23.9051C25.0625 23.5318 25.0952 23.1818 25.1605 22.8551C25.2305 22.5238 25.3425 22.2368 25.4965 21.9941C25.6505 21.7468 25.8535 21.5531 26.1055 21.4131C26.3575 21.2731 26.6702 21.2031 27.0435 21.2031C27.4168 21.2031 27.7295 21.2731 27.9815 21.4131C28.2335 21.5531 28.4365 21.7468 28.5905 21.9941C28.7445 22.2368 28.8542 22.5238 28.9195 22.8551C28.9895 23.1818 29.0245 23.5318 29.0245 23.9051C29.0245 24.2785 28.9895 24.6308 28.9195 24.9621C28.8542 25.2888 28.7445 25.5735 28.5905 25.8161C28.4365 26.0588 28.2335 26.2501 27.9815 26.3901C27.7295 26.5301 27.4168 26.6001 27.0435 26.6001Z" fill="#9F9A8E"/>
<path d="M22.299 23.0886C22.369 23.0606 22.4437 23.0443 22.523 23.0396C22.607 23.0303 22.6887 23.0256 22.768 23.0256C23.0153 23.0256 23.2417 23.07 23.447 23.1586C23.657 23.2473 23.8367 23.371 23.986 23.5296C24.14 23.6836 24.259 23.868 24.343 24.0826C24.427 24.2973 24.469 24.5283 24.469 24.7756C24.469 25.0463 24.42 25.2936 24.322 25.5176C24.2287 25.737 24.0957 25.9283 23.923 26.0916C23.7503 26.2503 23.545 26.374 23.307 26.4626C23.0737 26.5513 22.817 26.5956 22.537 26.5956C22.2383 26.5956 21.963 26.5513 21.711 26.4626C21.4637 26.374 21.249 26.2503 21.067 26.0916C20.8897 25.9283 20.7497 25.737 20.647 25.5176C20.549 25.2936 20.5 25.0463 20.5 24.7756C20.5 24.463 20.549 24.1736 20.647 23.9076C20.745 23.6416 20.8687 23.3943 21.018 23.1656L22.11 21.4506C22.2033 21.3106 22.3177 21.2126 22.453 21.1566C22.5883 21.096 22.7307 21.1053 22.88 21.1846C23.0293 21.264 23.118 21.3713 23.146 21.5066C23.174 21.6373 23.1483 21.7773 23.069 21.9266L22.299 23.0886ZM21.599 24.8106C21.599 24.9366 21.62 25.0533 21.662 25.1606C21.7087 25.2633 21.7717 25.3543 21.851 25.4336C21.935 25.5083 22.0307 25.5666 22.138 25.6086C22.2453 25.6506 22.362 25.6716 22.488 25.6716C22.614 25.6716 22.7307 25.6506 22.838 25.6086C22.9453 25.5666 23.0387 25.5083 23.118 25.4336C23.202 25.3543 23.265 25.2633 23.307 25.1606C23.3537 25.0533 23.377 24.9366 23.377 24.8106C23.377 24.6846 23.3537 24.5703 23.307 24.4676C23.265 24.3603 23.202 24.2693 23.118 24.1946C23.0387 24.1153 22.9453 24.0546 22.838 24.0126C22.7307 23.9706 22.614 23.9496 22.488 23.9496C22.362 23.9496 22.2453 23.9706 22.138 24.0126C22.0307 24.0546 21.935 24.1153 21.851 24.1946C21.7717 24.2693 21.7087 24.3603 21.662 24.4676C21.62 24.5703 21.599 24.6846 21.599 24.8106Z" fill="#9F9A8E"/>
<path d="M16.7473 22.2357C16.57 22.2357 16.4253 22.203 16.3133 22.1377C16.206 22.0724 16.1523 21.951 16.1523 21.7737C16.1523 21.5964 16.206 21.475 16.3133 21.4097C16.4253 21.3397 16.57 21.3047 16.7473 21.3047H18.8753C19.0667 21.3047 19.2207 21.342 19.3373 21.4167C19.4587 21.4867 19.5193 21.6174 19.5193 21.8087C19.5193 21.9907 19.4563 22.1377 19.3303 22.2497L18.0213 23.4187C18.0773 23.4047 18.1357 23.393 18.1963 23.3837C18.257 23.3744 18.32 23.3697 18.3853 23.3697C18.5953 23.3697 18.7867 23.4047 18.9593 23.4747C19.1367 23.5447 19.286 23.6427 19.4073 23.7687C19.5333 23.8947 19.6313 24.0487 19.7013 24.2307C19.7713 24.408 19.8063 24.604 19.8063 24.8187C19.8063 25.108 19.755 25.3624 19.6523 25.5817C19.5497 25.801 19.4097 25.9877 19.2323 26.1417C19.055 26.291 18.845 26.403 18.6023 26.4777C18.3597 26.557 18.096 26.5967 17.8113 26.5967C17.6713 26.5967 17.5267 26.5897 17.3773 26.5757C17.2327 26.5617 17.0903 26.536 16.9503 26.4987C16.8103 26.466 16.675 26.417 16.5443 26.3517C16.4137 26.291 16.297 26.214 16.1943 26.1207C16.0917 26.032 16.0287 25.927 16.0053 25.8057C15.9867 25.6797 16.017 25.5584 16.0963 25.4417C16.1803 25.3297 16.2853 25.2644 16.4113 25.2457C16.542 25.227 16.654 25.2504 16.7473 25.3157C16.9153 25.4277 17.0857 25.507 17.2583 25.5537C17.4357 25.6004 17.6223 25.6237 17.8183 25.6237C18.0843 25.6237 18.299 25.563 18.4623 25.4417C18.6257 25.3157 18.7073 25.1267 18.7073 24.8747C18.7073 24.73 18.6747 24.6064 18.6093 24.5037C18.544 24.3964 18.4553 24.3124 18.3433 24.2517C18.2313 24.1864 18.0983 24.1397 17.9443 24.1117C17.795 24.0837 17.634 24.0744 17.4613 24.0837L16.9503 24.1047C16.843 24.1094 16.7543 24.079 16.6843 24.0137C16.6143 23.9437 16.5793 23.8527 16.5793 23.7407C16.5793 23.6194 16.605 23.5237 16.6563 23.4537C16.7123 23.379 16.7777 23.309 16.8523 23.2437L17.9443 22.2357H16.7473Z" fill="#9F9A8E"/>
<path d="M30.1172 21.882C30.1172 21.756 30.1405 21.6393 30.1872 21.532C30.2385 21.4247 30.3039 21.3313 30.3832 21.252C30.4672 21.1727 30.5652 21.112 30.6772 21.07C30.7892 21.0233 30.9082 21 31.0342 21C31.1602 21 31.2792 21.0233 31.3912 21.07C31.5032 21.112 31.6012 21.1727 31.6852 21.252C31.7692 21.3313 31.8345 21.4247 31.8812 21.532C31.9279 21.6393 31.9512 21.756 31.9512 21.882C31.9512 22.008 31.9279 22.1247 31.8812 22.232C31.8345 22.3393 31.7692 22.4327 31.6852 22.512C31.6012 22.5913 31.5032 22.6543 31.3912 22.701C31.2792 22.743 31.1602 22.764 31.0342 22.764C30.9082 22.764 30.7892 22.743 30.6772 22.701C30.5652 22.6543 30.4672 22.5913 30.3832 22.512C30.2992 22.4327 30.2339 22.3393 30.1872 22.232C30.1405 22.1247 30.1172 22.008 30.1172 21.882ZM30.6842 21.882C30.6842 21.98 30.7145 22.064 30.7752 22.134C30.8405 22.204 30.9269 22.239 31.0342 22.239C31.1415 22.239 31.2255 22.204 31.2862 22.134C31.3515 22.064 31.3842 21.98 31.3842 21.882C31.3842 21.784 31.3515 21.7 31.2862 21.63C31.2255 21.56 31.1415 21.525 31.0342 21.525C30.9269 21.525 30.8405 21.56 30.7752 21.63C30.7145 21.7 30.6842 21.784 30.6842 21.882Z" fill="#9F9A8E"/>
<circle cx="24" cy="24" r="13" fill="#E4DDCD"/>
<path d="M41.5536 16.8547L40.3621 19.42L37.7969 18.2285" stroke="#7E796E" stroke-width="2" stroke-linecap="round" stroke-linejoin="round"/>
<path d="M39.9109 18C37.4856 11.5719 31.2767 7 24 7C14.6112 7 7 14.6112 7 24C7 33.3888 14.6112 41 24 41C27.4758 41 30.7079 39.9569 33.4004 38.1667" stroke="#7E796E" stroke-width="2" stroke-linecap="round" stroke-linejoin="round"/>
<path d="M41.4922 26.75V24.25H38.9922" stroke="#7E796E" stroke-width="2" stroke-linecap="round" stroke-linejoin="round"/>
<path d="M40 25.748L39.3071 26.3816C38.487 27.1314 37.2107 27.0603 36.479 26.224C35.7636 25.4064 34.5233 25.3174 33.6984 26.0244L33 26.623" stroke="#7E796E" stroke-width="2" stroke-linecap="round"/>
<path d="M41.4922 31.998V29.498H38.9922" stroke="#7E796E" stroke-width="2" stroke-linecap="round" stroke-linejoin="round"/>
<path d="M40 30.9961L39.3071 31.6296C38.487 32.3794 37.2107 32.3083 36.479 31.4721C35.7636 30.6545 34.5233 30.5654 33.6984 31.2725L33 31.8711" stroke="#7E796E" stroke-width="2" stroke-linecap="round"/>
<path d="M32.9771 21.4378C32.8691 21.3238 32.7371 21.2668 32.5811 21.2668C32.4251 21.2668 32.2901 21.3238 32.1761 21.4378C32.0681 21.5518 32.0141 21.6868 32.0141 21.8428C32.0141 21.9988 32.0681 22.1338 32.1761 22.2478C32.2901 22.3558 32.4251 22.4098 32.5811 22.4098C32.7371 22.4098 32.8691 22.3558 32.9771 22.2478C33.0911 22.1338 33.1481 21.9988 33.1481 21.8428C33.1481 21.6868 33.0911 21.5518 32.9771 21.4378ZM33.6431 22.9048C33.3491 23.1928 32.9951 23.3368 32.5811 23.3368C32.1671 23.3368 31.8131 23.1928 31.5191 22.9048C31.2251 22.6108 31.0781 22.2568 31.0781 21.8428C31.0781 21.4288 31.2251 21.0748 31.5191 20.7808C31.8131 20.4868 32.1671 20.3398 32.5811 20.3398C32.9951 20.3398 33.3491 20.4868 33.6431 20.7808C33.9371 21.0748 34.0841 21.4288 34.0841 21.8428C34.0841 22.2568 33.9371 22.6108 33.6431 22.9048Z" fill="#504323"/>
<path d="M28.8864 21.9958C28.7184 21.6658 28.4544 21.5008 28.0944 21.5008C27.7344 21.5008 27.4674 21.6658 27.2934 21.9958C27.1254 22.3258 27.0414 22.8988 27.0414 23.7148C27.0414 24.5308 27.1254 25.1038 27.2934 25.4338C27.4674 25.7638 27.7344 25.9288 28.0944 25.9288C28.4544 25.9288 28.7184 25.7638 28.8864 25.4338C29.0604 25.1038 29.1474 24.5308 29.1474 23.7148C29.1474 22.8988 29.0604 22.3258 28.8864 21.9958ZM30.0564 26.2978C29.6304 26.8258 28.9764 27.0898 28.0944 27.0898C27.2124 27.0898 26.5554 26.8258 26.1234 26.2978C25.6974 25.7698 25.4844 24.9088 25.4844 23.7148C25.4844 22.5208 25.6974 21.6598 26.1234 21.1318C26.5554 20.6038 27.2124 20.3398 28.0944 20.3398C28.9764 20.3398 29.6304 20.6038 30.0564 21.1318C30.4884 21.6598 30.7044 22.5208 30.7044 23.7148C30.7044 24.9088 30.4884 25.7698 30.0564 26.2978Z" fill="#504323"/>
<path d="M22.5302 23.6158C22.2062 23.6158 21.9482 23.7208 21.7562 23.9308C21.5642 24.1348 21.4682 24.4168 21.4682 24.7768C21.4682 25.1548 21.5642 25.4518 21.7562 25.6678C21.9542 25.8778 22.2122 25.9828 22.5302 25.9828C22.8662 25.9828 23.1272 25.8808 23.3132 25.6768C23.4992 25.4668 23.5922 25.1668 23.5922 24.7768C23.5922 24.4048 23.4962 24.1198 23.3042 23.9218C23.1182 23.7178 22.8602 23.6158 22.5302 23.6158ZM22.5302 27.0898C21.7202 27.0898 21.0932 26.8438 20.6492 26.3518C20.2112 25.8538 19.9922 25.1098 19.9922 24.1198C19.9922 22.8598 20.2472 21.9148 20.7572 21.2848C21.2672 20.6548 21.9932 20.3398 22.9352 20.3398C23.2652 20.3398 23.5712 20.3638 23.8532 20.4118C23.9972 20.4358 24.1142 20.5078 24.2042 20.6278C24.3002 20.7478 24.3482 20.8828 24.3482 21.0328V21.1948C24.3482 21.3208 24.2972 21.4198 24.1952 21.4918C24.0992 21.5638 23.9882 21.5848 23.8622 21.5548C23.5442 21.4828 23.2532 21.4468 22.9892 21.4468C22.5692 21.4468 22.2272 21.5788 21.9632 21.8428C21.7052 22.1008 21.5462 22.4758 21.4862 22.9678C21.4862 22.9738 21.4892 22.9768 21.4952 22.9768H21.5042C21.8402 22.7188 22.2872 22.5898 22.8452 22.5898C23.5532 22.5898 24.0992 22.7758 24.4832 23.1478C24.8672 23.5198 25.0592 24.0538 25.0592 24.7498C25.0592 25.4818 24.8342 26.0548 24.3842 26.4688C23.9342 26.8828 23.3162 27.0898 22.5302 27.0898Z" fill="#504323"/>
<path d="M15.1849 21.6627C15.0469 21.6627 14.9269 21.6117 14.8249 21.5097C14.7229 21.4077 14.6719 21.2877 14.6719 21.1497V20.9427C14.6719 20.8047 14.7229 20.6847 14.8249 20.5827C14.9269 20.4807 15.0469 20.4297 15.1849 20.4297H18.5419C18.6799 20.4297 18.7999 20.4807 18.9019 20.5827C19.0039 20.6847 19.0549 20.8047 19.0549 20.9427V21.1497C19.0549 21.4917 18.9229 21.7707 18.6589 21.9867L17.2999 23.1117V23.1207C17.2999 23.1267 17.3029 23.1297 17.3089 23.1297H17.4169C17.9389 23.1297 18.3559 23.2917 18.6679 23.6157C18.9859 23.9397 19.1449 24.3777 19.1449 24.9297C19.1449 25.6257 18.9319 26.1597 18.5059 26.5317C18.0799 26.9037 17.4679 27.0897 16.6699 27.0897C16.1899 27.0897 15.7039 27.0327 15.2119 26.9187C15.0679 26.8827 14.9479 26.8047 14.8519 26.6847C14.7619 26.5587 14.7169 26.4177 14.7169 26.2617V25.9557C14.7169 25.8357 14.7649 25.7427 14.8609 25.6767C14.9629 25.6047 15.0739 25.5867 15.1939 25.6227C15.7099 25.7907 16.1599 25.8747 16.5439 25.8747C16.8919 25.8747 17.1619 25.7937 17.3539 25.6317C17.5459 25.4697 17.6419 25.2447 17.6419 24.9567C17.6419 24.6627 17.5309 24.4557 17.3089 24.3357C17.0869 24.2157 16.6729 24.1527 16.0669 24.1467C15.9289 24.1467 15.8089 24.0987 15.7069 24.0027C15.6049 23.9007 15.5539 23.7807 15.5539 23.6427V23.6247C15.5539 23.2887 15.6829 23.0097 15.9409 22.7877L17.2189 21.6807V21.6717C17.2189 21.6657 17.2159 21.6627 17.2099 21.6627H15.1849Z" fill="#504323"/>
</svg>
