<svg width="48" height="48" viewBox="0 0 48 48" fill="none" xmlns="http://www.w3.org/2000/svg">
<rect x="13" y="6" width="22" height="34" rx="1" fill="#E4DDCD"/>
<circle cx="24" cy="30" r="6" stroke="#7E796E" stroke-width="2"/>
<circle cx="24" cy="13" r="3" stroke="#7E796E" stroke-width="2"/>
<path d="M16 40H20V41C20 41.5523 19.5523 42 19 42H17C16.4477 42 16 41.5523 16 41V40Z" fill="#7E796E"/>
<path d="M28 40H32V41C32 41.5523 31.5523 42 31 42H29C28.4477 42 28 41.5523 28 41V40Z" fill="#7E796E"/>
<path d="M11.1056 26.257C10.4907 26.014 9.96163 25.5941 9.58533 25.0504C9.20902 24.5067 9.00239 23.8637 8.99155 23.2026C8.98071 22.5415 9.16616 21.892 9.52445 21.3363C9.88274 20.7805 10.3978 20.3435 11.0044 20.0805" stroke="#7E796E" stroke-width="2" stroke-linecap="round"/>
<path d="M36.785 26.257C37.3999 26.014 37.929 25.5941 38.3053 25.0504C38.6816 24.5067 38.8882 23.8637 38.8991 23.2026C38.9099 22.5415 38.7245 21.892 38.3662 21.3363C38.0079 20.7805 37.4929 20.3435 36.8862 20.0805" stroke="#7E796E" stroke-width="2" stroke-linecap="round"/>
<path d="M9.5061 29.6745C8.22051 29.1665 7.11443 28.2887 6.32772 27.1521C5.54101 26.0155 5.10902 24.6711 5.08637 23.289C5.06371 21.9068 5.45141 20.549 6.20045 19.3873C6.94948 18.2255 8.0262 17.3119 9.29445 16.762" stroke="#7E796E" stroke-width="2" stroke-linecap="round"/>
<path d="M38.3845 29.6745C39.6701 29.1665 40.7762 28.2887 41.5629 27.1521C42.3496 26.0155 42.7816 24.6711 42.8043 23.289C42.8269 21.9068 42.4392 20.549 41.6902 19.3873C40.9411 18.2255 39.8644 17.3119 38.5962 16.762" stroke="#7E796E" stroke-width="2" stroke-linecap="round"/>
</svg>
