<svg width="48" height="48" viewBox="0 0 48 48" fill="none" xmlns="http://www.w3.org/2000/svg">
<path d="M36.6883 10.9778C37.9601 12.3903 38.752 14.169 38.9507 16.0592C39.1494 17.9494 38.7445 19.854 37.7942 21.5" stroke="#7E796E" stroke-width="2" stroke-linecap="round"/>
<path d="M33.4729 13.0008C34.2317 13.8496 34.7335 14.8968 34.9194 16.02C35.1054 17.1433 34.9679 18.2963 34.523 19.3444" stroke="#7E796E" stroke-width="2" stroke-linecap="round"/>
<path d="M11.3117 10.9778C10.0399 12.3903 9.24797 14.169 9.0493 16.0592C8.85063 17.9494 9.25546 19.854 10.2058 21.5" stroke="#7E796E" stroke-width="2" stroke-linecap="round"/>
<path d="M14.5271 13.0008C13.7683 13.8496 13.2665 14.8968 13.0806 16.02C12.8946 17.1433 13.0321 18.2963 13.477 19.3444" stroke="#7E796E" stroke-width="2" stroke-linecap="round"/>
<circle cx="22" cy="12" r="2" fill="#7E796E"/>
<circle cx="26.5" cy="16.5" r="1.5" fill="#7E796E"/>
<circle cx="23" cy="20" r="1" fill="#7E796E"/>
<rect x="6" y="24" width="36" height="16" rx="1" fill="#E4DDCD"/>
<path d="M27.616 36.03C27.4473 36.03 27.3007 35.9677 27.176 35.843C27.0587 35.7183 27 35.5717 27 35.403V28.627C27 28.4583 27.0587 28.3117 27.176 28.187C27.3007 28.0623 27.4473 28 27.616 28H28.43C28.5987 28 28.7417 28.0623 28.859 28.187C28.9837 28.3117 29.046 28.4583 29.046 28.627V35.403C29.046 35.5717 28.9837 35.7183 28.859 35.843C28.7417 35.9677 28.5987 36.03 28.43 36.03H27.616Z" fill="#504323"/>
<path d="M22.3944 29.628L21.5914 32.785C21.584 32.807 21.5877 32.829 21.6024 32.851C21.6244 32.8657 21.6464 32.873 21.6684 32.873H23.1424C23.1644 32.873 23.1827 32.8657 23.1974 32.851C23.2194 32.829 23.2267 32.807 23.2194 32.785L22.4164 29.628C22.4164 29.6207 22.4127 29.617 22.4054 29.617C22.398 29.617 22.3944 29.6207 22.3944 29.628ZM19.4574 36.03C19.3034 36.03 19.1787 35.9677 19.0834 35.843C18.9954 35.7183 18.977 35.5827 19.0284 35.436L21.2504 28.594C21.309 28.418 21.4117 28.275 21.5584 28.165C21.7124 28.055 21.881 28 22.0644 28H22.7904C22.981 28 23.1534 28.055 23.3074 28.165C23.4614 28.275 23.564 28.418 23.6154 28.594L25.8264 35.436C25.8777 35.5827 25.8557 35.7183 25.7604 35.843C25.6724 35.9677 25.5514 36.03 25.3974 36.03H24.6604C24.477 36.03 24.312 35.975 24.1654 35.865C24.0187 35.7477 23.9234 35.601 23.8794 35.425L23.6154 34.38C23.608 34.3213 23.5714 34.292 23.5054 34.292H21.3054C21.2467 34.292 21.21 34.3213 21.1954 34.38L20.9314 35.425C20.8874 35.601 20.792 35.7477 20.6454 35.865C20.4987 35.975 20.3337 36.03 20.1504 36.03H19.4574Z" fill="#504323"/>
</svg>
