<svg width="48" height="48" viewBox="0 0 48 48" fill="none" xmlns="http://www.w3.org/2000/svg">
<circle cx="24" cy="24" r="18" fill="#E4DDCD"/>
<path d="M35.5479 14.4881C36.0674 14.0994 36.7933 14.2212 37.1687 14.7593C37.8688 15.7629 38.4648 16.8516 38.9414 18.008C39.4181 19.1644 39.7652 20.3628 39.9808 21.5807C40.0963 22.2336 39.6783 22.8603 39.048 22.9802C38.4177 23.0997 37.8126 22.6668 37.6969 22.0139C37.5121 20.9704 37.2156 19.9431 36.8071 18.9519C36.3985 17.9605 35.8872 17.0272 35.2872 16.167C34.9118 15.6289 35.0283 14.877 35.5479 14.4881Z" fill="#7E796E"/>
<path d="M10.843 14.7358C11.2193 14.1986 11.945 14.0796 12.4638 14.4693C12.9824 14.8592 13.0984 15.6109 12.7222 16.1482C12.1208 17.0074 11.608 17.9389 11.1977 18.9296C10.7874 19.9204 10.4888 20.948 10.3023 21.9916C10.1854 22.644 9.58006 23.0749 8.95008 22.9543C8.31988 22.8335 7.90306 22.2064 8.01951 21.5537C8.23706 20.3361 8.586 19.1379 9.06456 17.9822C9.54317 16.8264 10.1411 15.7384 10.843 14.7358Z" fill="#7E796E"/>
<path d="M25.3683 9.00637C25.475 8.35187 26.0739 7.90987 26.7057 8.02015C27.8844 8.22653 29.0477 8.56979 30.1707 9.04746C31.2934 9.52508 32.3525 10.1269 33.3308 10.8379C33.8553 11.2193 33.9822 11.9699 33.6142 12.5133C33.2461 13.0565 32.5225 13.1876 31.9979 12.8068C31.1593 12.1974 30.2514 11.6806 29.2889 11.2712C28.3262 10.8617 27.3294 10.5687 26.3192 10.3918C25.6874 10.2811 25.2618 9.66079 25.3683 9.00637Z" fill="#7E796E"/>
<path d="M21.3161 8.01663C21.9483 7.90722 22.5467 8.34923 22.6525 9.00402C22.7578 9.65848 22.331 10.2773 21.6992 10.3871C20.6887 10.5622 19.6918 10.8539 18.7284 11.2618C17.7651 11.6696 16.8568 12.1847 16.0172 12.7928C15.492 13.1731 14.7683 13.0407 14.4009 12.4969C14.0337 11.9529 14.1616 11.2032 14.6865 10.8227C15.6661 10.1132 16.7264 9.51262 17.85 9.03689C18.9738 8.56116 20.1371 8.22097 21.3161 8.01663Z" fill="#7E796E"/>
<circle cx="24" cy="24" r="3" fill="#7E796E"/>
<path d="M28.1406 16L24 23.9909" stroke="#7E796E" stroke-width="2" stroke-linecap="round" stroke-linejoin="round"/>
<path d="M39.7345 38.0002C39.5505 38.0002 39.3905 37.9322 39.2545 37.7962C39.1265 37.6602 39.0625 37.5002 39.0625 37.3162V29.9242C39.0625 29.7402 39.1265 29.5802 39.2545 29.4442C39.3905 29.3082 39.5505 29.2402 39.7345 29.2402H40.6225C40.8065 29.2402 40.9625 29.3082 41.0905 29.4442C41.2265 29.5802 41.2945 29.7402 41.2945 29.9242V37.3162C41.2945 37.5002 41.2265 37.6602 41.0905 37.7962C40.9625 37.9322 40.8065 38.0002 40.6225 38.0002H39.7345Z" fill="#504323"/>
<path d="M34.0311 31.0162L33.1551 34.4602C33.1471 34.4842 33.1511 34.5082 33.1671 34.5322C33.1911 34.5482 33.2151 34.5562 33.2391 34.5562H34.8471C34.8711 34.5562 34.8911 34.5482 34.9071 34.5322C34.9311 34.5082 34.9391 34.4842 34.9311 34.4602L34.0551 31.0162C34.0551 31.0082 34.0511 31.0042 34.0431 31.0042C34.0351 31.0042 34.0311 31.0082 34.0311 31.0162ZM30.8271 38.0002C30.6591 38.0002 30.5231 37.9322 30.4191 37.7962C30.3231 37.6602 30.3031 37.5122 30.3591 37.3522L32.7831 29.8882C32.8471 29.6962 32.9591 29.5402 33.1191 29.4202C33.2871 29.3002 33.4711 29.2402 33.6711 29.2402H34.4631C34.6711 29.2402 34.8591 29.3002 35.0271 29.4202C35.1951 29.5402 35.3071 29.6962 35.3631 29.8882L37.7751 37.3522C37.8311 37.5122 37.8071 37.6602 37.7031 37.7962C37.6071 37.9322 37.4751 38.0002 37.3071 38.0002H36.5031C36.3031 38.0002 36.1231 37.9402 35.9631 37.8202C35.8031 37.6922 35.6991 37.5322 35.6511 37.3402L35.3631 36.2002C35.3551 36.1362 35.3151 36.1042 35.2431 36.1042H32.8431C32.7791 36.1042 32.7391 36.1362 32.7231 36.2002L32.4351 37.3402C32.3871 37.5322 32.2831 37.6922 32.1231 37.8202C31.9631 37.9402 31.7831 38.0002 31.5831 38.0002H30.8271Z" fill="#504323"/>
</svg>
