<svg width="48" height="48" viewBox="0 0 48 48" fill="none" xmlns="http://www.w3.org/2000/svg">
<path d="M30.9971 39.3802C30.9971 40.1236 30.2149 40.6071 29.55 40.2747L18.9974 35.0002C18.9972 35.0001 18.9971 34.9999 18.9971 34.9996C18.9971 34.9993 18.9968 34.999 18.9965 34.999H11C10.4477 34.999 10 34.5513 10 33.999V14.999C10 14.4467 10.4477 13.999 11 13.999H18.7286C18.9057 13.999 19.0796 13.952 19.2326 13.8627L29.4931 7.87564C30.1597 7.48664 30.9971 7.9675 30.9971 8.73935V39.3802Z" fill="#E4DDCD"/>
<path d="M35 29C35.6341 28.3434 36.1371 27.5639 36.4802 26.706C36.8234 25.8481 37 24.9286 37 24C37 23.0714 36.8234 22.1519 36.4802 21.294C36.1371 20.4361 35.6341 19.6566 35 19" stroke="#7E796E" stroke-width="2" stroke-linecap="round"/>
</svg>
