<svg width="48" height="48" viewBox="0 0 48 48" fill="none" xmlns="http://www.w3.org/2000/svg">
<circle cx="24" cy="24" r="13" fill="#E4DDCD"/>
<path d="M35.2108 33.1111C35.4381 33.44 35.7612 33.6964 36.1393 33.8478C36.5173 33.9991 36.9333 34.0387 37.3347 33.9616C37.736 33.8844 38.1047 33.6939 38.394 33.4142C38.6834 33.1345 38.8804 32.7781 38.9602 32.3902C39.0401 32.0022 38.9991 31.6001 38.8425 31.2346C38.6859 30.8692 38.4207 30.5568 38.0805 30.3371C37.7402 30.1173 37.3402 30 36.931 30L30.5 30" stroke="#7E796E" stroke-width="2" stroke-linecap="round"/>
<path d="M38.7108 23.8889C38.9381 23.56 39.2612 23.3036 39.6393 23.1522C40.0173 23.0009 40.4333 22.9613 40.8347 23.0384C41.236 23.1156 41.6047 23.3061 41.894 23.5858C42.1834 23.8655 42.3804 24.2219 42.4602 24.6098C42.5401 24.9978 42.4991 25.3999 42.3425 25.7654C42.1859 26.1308 41.9207 26.4432 41.5805 26.6629C41.2402 26.8827 40.8402 27 40.431 27L33 27" stroke="#7E796E" stroke-width="2" stroke-linecap="round"/>
<path d="M27.5704 28.3791C27.3864 28.3791 27.2264 28.3111 27.0904 28.1751C26.9624 28.0391 26.8984 27.8791 26.8984 27.6951V20.3031C26.8984 20.1191 26.9624 19.9591 27.0904 19.8231C27.2264 19.6871 27.3864 19.6191 27.5704 19.6191H28.4584C28.6424 19.6191 28.7984 19.6871 28.9264 19.8231C29.0624 19.9591 29.1304 20.1191 29.1304 20.3031V27.6951C29.1304 27.8791 29.0624 28.0391 28.9264 28.1751C28.7984 28.3111 28.6424 28.3791 28.4584 28.3791H27.5704Z" fill="#504323"/>
<path d="M21.867 21.3951L20.991 24.8391C20.983 24.8631 20.987 24.8871 21.003 24.9111C21.027 24.9271 21.051 24.9351 21.075 24.9351H22.683C22.707 24.9351 22.727 24.9271 22.743 24.9111C22.767 24.8871 22.775 24.8631 22.767 24.8391L21.891 21.3951C21.891 21.3871 21.887 21.3831 21.879 21.3831C21.871 21.3831 21.867 21.3871 21.867 21.3951ZM18.663 28.3791C18.495 28.3791 18.359 28.3111 18.255 28.1751C18.159 28.0391 18.139 27.8911 18.195 27.7311L20.619 20.2671C20.683 20.0751 20.795 19.9191 20.955 19.7991C21.123 19.6791 21.307 19.6191 21.507 19.6191H22.299C22.507 19.6191 22.695 19.6791 22.863 19.7991C23.031 19.9191 23.143 20.0751 23.199 20.2671L25.611 27.7311C25.667 27.8911 25.643 28.0391 25.539 28.1751C25.443 28.3111 25.311 28.3791 25.143 28.3791H24.339C24.139 28.3791 23.959 28.3191 23.799 28.1991C23.639 28.0711 23.535 27.9111 23.487 27.7191L23.199 26.5791C23.191 26.5151 23.151 26.4831 23.079 26.4831H20.679C20.615 26.4831 20.575 26.5151 20.559 26.5791L20.271 27.7191C20.223 27.9111 20.119 28.0711 19.959 28.1991C19.799 28.3191 19.619 28.3791 19.419 28.3791H18.663Z" fill="#504323"/>
<path d="M41.5536 16.8547L40.3621 19.42L37.7969 18.2285" stroke="#7E796E" stroke-width="2" stroke-linecap="round" stroke-linejoin="round"/>
<path d="M39.9109 18C37.4856 11.5719 31.2767 7 24 7C14.6112 7 7 14.6112 7 24C7 33.3888 14.6112 41 24 41C27.4758 41 30.7079 39.9569 33.4004 38.1667" stroke="#7E796E" stroke-width="2" stroke-linecap="round" stroke-linejoin="round"/>
</svg>
