<svg width="48" height="48" viewBox="0 0 48 48" fill="none" xmlns="http://www.w3.org/2000/svg">
<circle cx="24" cy="24" r="16" fill="#E4DDCD"/>
<path d="M37 20H42M42 20L40 18M42 20L40 22" stroke="#7E796E" stroke-width="2" stroke-linecap="round" stroke-linejoin="round"/>
<path d="M37 30H42M42 30L40 28M42 30L40 32" stroke="#7E796E" stroke-width="2" stroke-linecap="round" stroke-linejoin="round"/>
<circle cx="7" cy="35" r="1" transform="rotate(-90 7 35)" fill="#7E796E"/>
<circle cx="11" cy="32" r="1" transform="rotate(-90 11 32)" fill="#7E796E"/>
<path d="M8.51562 24V27.5" stroke="#7E796E" stroke-width="2" stroke-linecap="round"/>
<path d="M7.00781 26.625L10.0389 24.875" stroke="#7E796E" stroke-width="2" stroke-linecap="round"/>
<path d="M7 24.875L10.0311 26.625" stroke="#7E796E" stroke-width="2" stroke-linecap="round"/>
<circle cx="7" cy="18" r="1" transform="rotate(-90 7 18)" fill="#7E796E"/>
<path d="M11.5156 12V15.5" stroke="#7E796E" stroke-width="2" stroke-linecap="round"/>
<path d="M10.0078 14.625L13.0389 12.875" stroke="#7E796E" stroke-width="2" stroke-linecap="round"/>
<path d="M10 12.875L13.0311 14.625" stroke="#7E796E" stroke-width="2" stroke-linecap="round"/>
<circle cx="13" cy="22" r="1" transform="rotate(-90 13 22)" fill="#7E796E"/>
<path d="M15.798 28.9993C15.5833 28.9993 15.3967 28.92 15.238 28.7613C15.0793 28.6026 15 28.416 15 28.2013V19.5773C15 19.3626 15.0793 19.176 15.238 19.0173C15.3967 18.8586 15.5833 18.7793 15.798 18.7793H16.596C16.8387 18.7793 17.058 18.8446 17.254 18.9753C17.45 19.106 17.5947 19.2833 17.688 19.5073L19.858 24.7853C19.858 24.7946 19.8627 24.7993 19.872 24.7993C19.8813 24.7993 19.886 24.7946 19.886 24.7853L22.056 19.5073C22.1493 19.2833 22.294 19.106 22.49 18.9753C22.686 18.8446 22.9053 18.7793 23.148 18.7793H24.002C24.2167 18.7793 24.4033 18.8586 24.562 19.0173C24.7207 19.176 24.8 19.3626 24.8 19.5773V28.2013C24.8 28.416 24.7207 28.6026 24.562 28.7613C24.4033 28.92 24.2167 28.9993 24.002 28.9993H23.33C23.1153 28.9993 22.9287 28.92 22.77 28.7613C22.6207 28.6026 22.546 28.416 22.546 28.2013V22.7553C22.546 22.746 22.5413 22.7413 22.532 22.7413C22.5133 22.7413 22.504 22.746 22.504 22.7553L21.16 25.9333C21.0667 26.1573 20.9173 26.3346 20.712 26.4653C20.516 26.596 20.2967 26.6613 20.054 26.6613H19.69C19.4473 26.6613 19.2233 26.596 19.018 26.4653C18.822 26.3346 18.6773 26.1573 18.584 25.9333L17.24 22.7553C17.24 22.746 17.2307 22.7413 17.212 22.7413C17.2027 22.7413 17.198 22.746 17.198 22.7553V28.2013C17.198 28.416 17.1187 28.6026 16.96 28.7613C16.8107 28.92 16.6287 28.9993 16.414 28.9993H15.798Z" fill="#504323"/>
<path d="M32.2225 20.6701H28.7005L28.2786 22.9705C28.9818 22.6095 29.6289 22.4318 30.2196 22.4318C30.6922 22.4318 31.1367 22.518 31.553 22.685C31.9637 22.8574 32.3294 23.089 32.6388 23.3907C32.9483 23.6924 33.1958 24.048 33.3702 24.4574C33.5446 24.8669 33.6347 25.314 33.6347 25.7881C33.6347 26.4723 33.4715 27.0972 33.1508 27.6629C32.8301 28.2286 32.3632 28.6757 31.7612 29.0044C31.1535 29.333 30.4559 29.5 29.6682 29.5C28.7849 29.5 28.0648 29.3438 27.5134 29.0313C26.9621 28.7188 26.5739 28.3579 26.3432 27.9538C26.1125 27.5498 26 27.1942 26 26.8925C26 26.7093 26.0788 26.5316 26.2419 26.3645C26.4051 26.1975 26.602 26.1167 26.8439 26.1167C27.2603 26.1167 27.5697 26.3484 27.7722 26.8063C27.9691 27.2265 28.2392 27.5552 28.5711 27.7922C28.9087 28.0239 29.2857 28.1424 29.6964 28.1424C30.0789 28.1424 30.4109 28.0454 30.6978 27.8569C30.9847 27.6683 31.2042 27.4097 31.3617 27.0757C31.5192 26.7417 31.598 26.3699 31.598 25.9443C31.598 25.4918 31.5136 25.1039 31.3448 24.7807C31.176 24.4574 30.951 24.2204 30.6697 24.0587C30.3884 23.9025 30.0733 23.8217 29.7301 23.8217C29.3025 23.8217 28.9987 23.8702 28.8187 23.9725C28.633 24.0695 28.3742 24.2473 28.031 24.4951C27.6878 24.7429 27.4065 24.8669 27.1815 24.8669C26.9396 24.8669 26.7258 24.7807 26.5345 24.6136C26.3488 24.4466 26.2532 24.2527 26.2532 24.0426C26.2532 24.021 26.2813 23.8594 26.3376 23.5577L26.9564 20.1637C27.024 19.7542 27.1534 19.4579 27.3446 19.2748C27.5359 19.0916 27.8397 19 28.2617 19H32.1775C32.9483 19 33.3365 19.2801 33.3365 19.8458C33.3365 20.0936 33.2408 20.293 33.0552 20.4438C32.8695 20.5947 32.5882 20.6701 32.2225 20.6701Z" fill="#504323" stroke="#504323" stroke-width="0.2"/>
</svg>
