<svg width="48" height="48" viewBox="0 0 48 48" fill="none" xmlns="http://www.w3.org/2000/svg">
<circle cx="24" cy="24" r="16" fill="#E4DDCD"/>
<path d="M37 20H42M42 20L40 18M42 20L40 22" stroke="#7E796E" stroke-width="2" stroke-linecap="round" stroke-linejoin="round"/>
<path d="M37 30H42M42 30L40 28M42 30L40 32" stroke="#7E796E" stroke-width="2" stroke-linecap="round" stroke-linejoin="round"/>
<circle cx="7" cy="35" r="1" transform="rotate(-90 7 35)" fill="#7E796E"/>
<circle cx="11" cy="32" r="1" transform="rotate(-90 11 32)" fill="#7E796E"/>
<path d="M8.51562 24V27.5" stroke="#7E796E" stroke-width="2" stroke-linecap="round"/>
<path d="M7.00781 26.625L10.0389 24.875" stroke="#7E796E" stroke-width="2" stroke-linecap="round"/>
<path d="M7 24.875L10.0311 26.625" stroke="#7E796E" stroke-width="2" stroke-linecap="round"/>
<circle cx="7" cy="18" r="1" transform="rotate(-90 7 18)" fill="#7E796E"/>
<path d="M11.5156 12V15.5" stroke="#7E796E" stroke-width="2" stroke-linecap="round"/>
<path d="M10.0078 14.625L13.0389 12.875" stroke="#7E796E" stroke-width="2" stroke-linecap="round"/>
<path d="M10 12.875L13.0311 14.625" stroke="#7E796E" stroke-width="2" stroke-linecap="round"/>
<circle cx="13" cy="22" r="1" transform="rotate(-90 13 22)" fill="#7E796E"/>
<path d="M15.798 28.9993C15.5833 28.9993 15.3967 28.92 15.238 28.7613C15.0793 28.6026 15 28.416 15 28.2013V19.5773C15 19.3626 15.0793 19.176 15.238 19.0173C15.3967 18.8586 15.5833 18.7793 15.798 18.7793H16.596C16.8387 18.7793 17.058 18.8446 17.254 18.9753C17.45 19.106 17.5947 19.2833 17.688 19.5073L19.858 24.7853C19.858 24.7946 19.8627 24.7993 19.872 24.7993C19.8813 24.7993 19.886 24.7946 19.886 24.7853L22.056 19.5073C22.1493 19.2833 22.294 19.106 22.49 18.9753C22.686 18.8446 22.9053 18.7793 23.148 18.7793H24.002C24.2167 18.7793 24.4033 18.8586 24.562 19.0173C24.7207 19.176 24.8 19.3626 24.8 19.5773V28.2013C24.8 28.416 24.7207 28.6026 24.562 28.7613C24.4033 28.92 24.2167 28.9993 24.002 28.9993H23.33C23.1153 28.9993 22.9287 28.92 22.77 28.7613C22.6207 28.6026 22.546 28.416 22.546 28.2013V22.7553C22.546 22.746 22.5413 22.7413 22.532 22.7413C22.5133 22.7413 22.504 22.746 22.504 22.7553L21.16 25.9333C21.0667 26.1573 20.9173 26.3346 20.712 26.4653C20.516 26.596 20.2967 26.6613 20.054 26.6613H19.69C19.4473 26.6613 19.2233 26.596 19.018 26.4653C18.822 26.3346 18.6773 26.1573 18.584 25.9333L17.24 22.7553C17.24 22.746 17.2307 22.7413 17.212 22.7413C17.2027 22.7413 17.198 22.746 17.198 22.7553V28.2013C17.198 28.416 17.1187 28.6026 16.96 28.7613C16.8107 28.92 16.6287 28.9993 16.414 28.9993H15.798Z" fill="#504323"/>
<path d="M27.6858 19H32.4184C32.8712 19 33.1999 19.0701 33.4048 19.2156C33.6096 19.3611 33.712 19.5929 33.712 19.9217C33.712 20.1212 33.5934 20.3853 33.3509 20.7087C33.1137 21.0375 32.8388 21.3986 32.5316 21.7921C32.2243 22.1856 31.9117 22.6815 31.5883 23.269C31.2649 23.8565 30.9684 24.5734 30.6935 25.4197C30.5803 25.7916 30.4995 26.1042 30.451 26.3522C30.4025 26.6001 30.3486 26.9181 30.2947 27.3116C30.2408 27.7051 30.1869 28.0069 30.1437 28.2118C30.0467 28.6969 29.9012 29.0311 29.7233 29.2197C29.54 29.4084 29.2975 29.5 28.9956 29.5C28.6938 29.5 28.4728 29.3976 28.3003 29.1982C28.1278 28.9987 28.0362 28.7023 28.0362 28.3088C28.0362 28.0069 28.1009 27.5919 28.2302 27.0744C28.3596 26.557 28.5644 25.9317 28.8555 25.2041C29.1466 24.4764 29.5077 23.7325 29.9389 22.9671C30.3701 22.2017 30.8876 21.4417 31.4859 20.6817H27.6858C27.287 20.6817 26.9905 20.6117 26.7965 20.4661C26.6024 20.3206 26.5 20.0942 26.5 19.787C26.5 19.4474 26.6024 19.2372 26.8126 19.1401C27.0228 19.0431 27.3139 19 27.6858 19Z" fill="#504323" stroke="#504323" stroke-width="0.5"/>
</svg>
