<svg width="48" height="48" viewBox="0 0 48 48" fill="none" xmlns="http://www.w3.org/2000/svg">
<path d="M24 6C28.2965 6 31.8866 9.01134 32.7822 13.0381C36.8334 13.4312 40 16.8457 40 21C40 25.4183 36.4183 29 32 29C30.4101 29 28.9299 28.5341 27.6846 27.7344L24 33L20.3145 27.7344C19.0693 28.5338 17.5896 29 16 29C11.5817 29 8 25.4183 8 21C8 16.846 11.1661 13.4317 15.2168 13.0381C16.1123 9.01124 19.7034 6 24 6Z" fill="#E4DDCD"/>
<path d="M7 37L8.2088 36.2031C9.2911 35.4896 10.7139 35.5736 11.7048 36.4093L11.8123 36.5C12.8396 37.3665 14.3419 37.3665 15.3692 36.5C16.3966 35.6335 17.8988 35.6335 18.9262 36.5C19.9535 37.3665 21.4557 37.3665 22.4831 36.5C23.5104 35.6335 25.0127 35.6335 26.04 36.5C27.0673 37.3665 28.5696 37.3665 29.5969 36.5C30.6243 35.6335 32.1265 35.6335 33.1538 36.5C34.1812 37.3665 35.6962 37.3557 36.7235 36.4892C37.7429 35.6295 39.24 35.5981 40.2831 36.4289L41 37" stroke="#7E796E" stroke-width="2" stroke-linecap="round"/>
<path d="M7 42L8.2088 41.2031C9.2911 40.4896 10.7139 40.5736 11.7048 41.4093L11.8123 41.5C12.8396 42.3665 14.3419 42.3665 15.3692 41.5C16.3966 40.6335 17.8988 40.6335 18.9262 41.5C19.9535 42.3665 21.4557 42.3665 22.4831 41.5C23.5104 40.6335 25.0127 40.6335 26.04 41.5C27.0673 42.3665 28.5696 42.3665 29.5969 41.5C30.6243 40.6335 32.1265 40.6335 33.1538 41.5C34.1812 42.3665 35.6962 42.3557 36.7235 41.4892C37.7429 40.6295 39.24 40.5981 40.2831 41.4289L41 42" stroke="#7E796E" stroke-width="2" stroke-linecap="round"/>
<path d="M33.9414 23.75C32.9574 23.75 32.1834 23.459 31.6194 22.877C31.0554 22.295 30.7734 21.461 30.7734 20.375C30.7734 19.307 31.0464 18.479 31.5924 17.891C32.1384 17.297 32.9004 17 33.8784 17C34.3464 17 34.7544 17.033 35.1024 17.099C35.2464 17.123 35.3634 17.195 35.4534 17.315C35.5434 17.435 35.5884 17.57 35.5884 17.72V18.008C35.5884 18.134 35.5374 18.233 35.4354 18.305C35.3334 18.377 35.2224 18.398 35.1024 18.368C34.7604 18.278 34.4124 18.233 34.0584 18.233C33.5184 18.233 33.0954 18.416 32.7894 18.782C32.4894 19.148 32.3394 19.679 32.3394 20.375C32.3394 21.059 32.5014 21.59 32.8254 21.968C33.1494 22.346 33.5814 22.535 34.1214 22.535C34.4814 22.535 34.8324 22.49 35.1744 22.4C35.2944 22.37 35.4054 22.391 35.5074 22.463C35.6154 22.535 35.6694 22.634 35.6694 22.76V23.03C35.6694 23.18 35.6214 23.315 35.5254 23.435C35.4354 23.555 35.3184 23.627 35.1744 23.651C34.8204 23.717 34.4094 23.75 33.9414 23.75Z" fill="#504323"/>
<path d="M29.2428 18.098C29.1348 17.984 29.0028 17.927 28.8468 17.927C28.6908 17.927 28.5558 17.984 28.4418 18.098C28.3338 18.212 28.2798 18.347 28.2798 18.503C28.2798 18.659 28.3338 18.794 28.4418 18.908C28.5558 19.016 28.6908 19.07 28.8468 19.07C29.0028 19.07 29.1348 19.016 29.2428 18.908C29.3568 18.794 29.4137 18.659 29.4137 18.503C29.4137 18.347 29.3568 18.212 29.2428 18.098ZM29.9088 19.565C29.6148 19.853 29.2608 19.997 28.8468 19.997C28.4328 19.997 28.0788 19.853 27.7847 19.565C27.4907 19.271 27.3438 18.917 27.3438 18.503C27.3438 18.089 27.4907 17.735 27.7847 17.441C28.0788 17.147 28.4328 17 28.8468 17C29.2608 17 29.6148 17.147 29.9088 17.441C30.2028 17.735 30.3498 18.089 30.3498 18.503C30.3498 18.917 30.2028 19.271 29.9088 19.565Z" fill="#504323"/>
<path d="M25.0661 18.656C24.8981 18.326 24.6341 18.161 24.2741 18.161C23.9141 18.161 23.6471 18.326 23.4731 18.656C23.3051 18.986 23.2211 19.559 23.2211 20.375C23.2211 21.191 23.3051 21.764 23.4731 22.094C23.6471 22.424 23.9141 22.589 24.2741 22.589C24.6341 22.589 24.8981 22.424 25.0661 22.094C25.2401 21.764 25.3271 21.191 25.3271 20.375C25.3271 19.559 25.2401 18.986 25.0661 18.656ZM26.2361 22.958C25.8101 23.486 25.1561 23.75 24.2741 23.75C23.3921 23.75 22.7351 23.486 22.3031 22.958C21.8771 22.43 21.6641 21.569 21.6641 20.375C21.6641 19.181 21.8771 18.32 22.3031 17.792C22.7351 17.264 23.3921 17 24.2741 17C25.1561 17 25.8101 17.264 26.2361 17.792C26.6681 18.32 26.8841 19.181 26.8841 20.375C26.8841 21.569 26.6681 22.43 26.2361 22.958Z" fill="#504323"/>
<path d="M19.3942 18.656C19.2262 18.326 18.9622 18.161 18.6022 18.161C18.2422 18.161 17.9752 18.326 17.8012 18.656C17.6332 18.986 17.5492 19.559 17.5492 20.375C17.5492 21.191 17.6332 21.764 17.8012 22.094C17.9752 22.424 18.2422 22.589 18.6022 22.589C18.9622 22.589 19.2262 22.424 19.3942 22.094C19.5682 21.764 19.6552 21.191 19.6552 20.375C19.6552 19.559 19.5682 18.986 19.3942 18.656ZM20.5642 22.958C20.1382 23.486 19.4842 23.75 18.6022 23.75C17.7202 23.75 17.0632 23.486 16.6312 22.958C16.2052 22.43 15.9922 21.569 15.9922 20.375C15.9922 19.181 16.2052 18.32 16.6312 17.792C17.0632 17.264 17.7202 17 18.6022 17C19.4842 17 20.1382 17.264 20.5642 17.792C20.9962 18.32 21.2122 19.181 21.2122 20.375C21.2122 21.569 20.9962 22.43 20.5642 22.958Z" fill="#504323"/>
<path d="M12.405 19.7268C12.321 19.7928 12.231 19.8018 12.135 19.7538C12.045 19.7058 12 19.6278 12 19.5198V18.8628C12 18.5208 12.138 18.2508 12.414 18.0528L13.323 17.3868C13.593 17.1888 13.902 17.0898 14.25 17.0898H14.817C14.955 17.0898 15.075 17.1408 15.177 17.2428C15.279 17.3448 15.33 17.4648 15.33 17.6028V23.1468C15.33 23.2848 15.279 23.4048 15.177 23.5068C15.075 23.6088 14.955 23.6598 14.817 23.6598H14.25C14.112 23.6598 13.992 23.6088 13.89 23.5068C13.788 23.4048 13.737 23.2848 13.737 23.1468V18.7728H13.728H13.719L12.405 19.7268Z" fill="#504323"/>
</svg>
