<svg width="48" height="48" viewBox="0 0 48 48" fill="none" xmlns="http://www.w3.org/2000/svg">
<path d="M25 10C25.5523 10 26 10.4477 26 11V12H27C27.5523 12 28 12.4477 28 13V14.084C30.8376 14.5601 33 17.0271 33 20V34C33 34.5523 32.5523 35 32 35H16C15.4477 35 15 34.5523 15 34V20C15 17.0271 17.1624 14.5601 20 14.084V13C20 12.4477 20.4477 12 21 12H22V11C22 10.4477 22.4477 10 23 10H25ZM30 21C29.4477 21 29 21.4477 29 22V29C29 30.1046 29.8954 31 31 31V22C31 21.4477 30.5523 21 30 21Z" fill="#E4DDCD"/>
<path d="M15 21H21C21.5523 21 22 21.4477 22 22V30C22 30.5523 21.5523 31 21 31H15V21Z" fill="#7E796E"/>
<path d="M13.1055 38.3374C15.1366 39.8818 17.4726 40.9754 19.9583 41.5457C22.4439 42.1159 25.0223 42.1498 27.522 41.6449C30.0216 41.14 32.3854 40.108 34.4563 38.6174C36.5271 37.1268 38.2575 35.2119 39.5325 32.9997M12.9712 40.8069L12.5586 37.8761L15.3596 37.3963M17.0063 7.40422C14.6556 8.39407 12.542 9.87374 10.8062 11.7449C9.07035 13.6161 7.75195 15.8359 6.9386 18.2568C6.12525 20.6777 5.83559 23.2443 6.08885 25.786C6.34212 28.3278 7.13252 30.7864 8.40752 32.9985M14.9385 6.05313L17.6785 7.16059L16.6928 9.83031M41.798 26.2566C42.1176 23.7224 41.8951 21.1491 41.1453 18.7076C40.3955 16.2662 39.1356 14.0126 37.4492 12.0966C35.7629 10.1805 33.6888 8.64594 31.3647 7.59479C29.0406 6.54364 26.5198 6 23.9698 6M44 25.1383L41.6725 26.9616L39.8572 24.7717" stroke="#7E796E" stroke-width="2" stroke-linecap="round" stroke-linejoin="round"/>
<path d="M30.6146 12.3888C30.723 11.9981 31.277 11.9981 31.3854 12.3888L31.7624 13.7471C31.7929 13.8569 31.8687 13.9485 31.9708 13.9989L33.2729 14.6413C33.5703 14.788 33.5703 15.212 33.2729 15.3587L31.9708 16.0011C31.8687 16.0515 31.7929 16.1431 31.7624 16.2529L31.3854 17.6112C31.277 18.0019 30.723 18.0019 30.6146 17.6112L30.2376 16.2529C30.2071 16.1431 30.1313 16.0515 30.0292 16.0011L28.7271 15.3587C28.4297 15.212 28.4297 14.788 28.7271 14.6413L30.0292 13.9989C30.1313 13.9485 30.2071 13.8569 30.2376 13.7471L30.6146 12.3888Z" fill="#7E796E"/>
<path d="M33.7087 17.1807C33.7838 16.8765 34.2162 16.8765 34.2913 17.1807L34.5089 18.0627C34.5288 18.1437 34.5816 18.2127 34.6545 18.2532L35.5274 18.7377C35.7333 18.852 35.7333 19.148 35.5274 19.2623L34.6545 19.7468C34.5816 19.7873 34.5288 19.8563 34.5089 19.9373L34.2913 20.8193C34.2162 21.1235 33.7838 21.1235 33.7087 20.8193L33.4911 19.9373C33.4712 19.8563 33.4184 19.7873 33.3455 19.7468L32.4726 19.2623C32.2667 19.148 32.2667 18.852 32.4726 18.7377L33.3455 18.2532C33.4184 18.2127 33.4712 18.1437 33.4911 18.0627L33.7087 17.1807Z" fill="#7E796E"/>
</svg>
