<svg width="48" height="48" viewBox="0 0 48 48" fill="none" xmlns="http://www.w3.org/2000/svg">
<g clip-path="url(#clip0_2621_94628)">
<path fill-rule="evenodd" clip-rule="evenodd" d="M16.7783 14.0202C16.545 14.0717 16.3378 14.205 16.1943 14.3961L11 21.3119L14.8722 24.6875L16.2842 22.7719L16.2842 35H32.1749L32.1716 22.7748L33.1278 24.6256L37 21.25L32.3992 14.437C32.2532 14.2209 32.0287 14.0704 31.7733 14.0175L26.8629 13C26.8629 14.215 25.6926 15.2 24.2296 15.2C22.7666 15.2 21.4 14.215 21.4 13L16.7783 14.0202Z" fill="#E4DDCD"/>
<path d="M13.1055 38.3374C15.1366 39.8818 17.4726 40.9754 19.9583 41.5457C22.4439 42.1159 25.0223 42.1498 27.522 41.6449C30.0216 41.14 32.3854 40.108 34.4563 38.6174C36.5271 37.1268 38.2575 35.2119 39.5325 32.9997M12.9712 40.8069L12.5586 37.8761L15.3596 37.3963M17.0063 7.40422C14.6556 8.39407 12.542 9.87374 10.8062 11.7449C9.07035 13.6161 7.75195 15.8359 6.9386 18.2568C6.12525 20.6777 5.83559 23.2443 6.08885 25.786C6.34212 28.3278 7.13252 30.7864 8.40752 32.9985M14.9385 6.05313L17.6785 7.16059L16.6928 9.83031M41.798 26.2566C42.1176 23.7224 41.8951 21.1491 41.1453 18.7076C40.3955 16.2662 39.1356 14.0126 37.4492 12.0966C35.7629 10.1805 33.6888 8.64594 31.3647 7.59479C29.0406 6.54364 26.5198 6 23.9698 6M44 25.1383L41.6725 26.9616L39.8572 24.7717" stroke="#7E796E" stroke-width="2" stroke-linecap="round" stroke-linejoin="round"/>
<path d="M26.4415 24.7946C26.3035 24.7946 26.1835 24.7436 26.0815 24.6416C25.9855 24.5396 25.9375 24.4196 25.9375 24.2816V18.7376C25.9375 18.5996 25.9855 18.4796 26.0815 18.3776C26.1835 18.2756 26.3035 18.2246 26.4415 18.2246H27.1075C27.2455 18.2246 27.3625 18.2756 27.4585 18.3776C27.5605 18.4796 27.6115 18.5996 27.6115 18.7376V24.2816C27.6115 24.4196 27.5605 24.5396 27.4585 24.6416C27.3625 24.7436 27.2455 24.7946 27.1075 24.7946H26.4415Z" fill="#504323"/>
<path d="M22.4413 19.5566L21.7843 22.1396C21.7783 22.1576 21.7813 22.1756 21.7933 22.1936C21.8113 22.2056 21.8293 22.2116 21.8473 22.2116H23.0533C23.0713 22.2116 23.0863 22.2056 23.0983 22.1936C23.1163 22.1756 23.1223 22.1576 23.1163 22.1396L22.4593 19.5566C22.4593 19.5506 22.4563 19.5476 22.4503 19.5476C22.4443 19.5476 22.4413 19.5506 22.4413 19.5566ZM20.0383 24.7946C19.9123 24.7946 19.8103 24.7436 19.7323 24.6416C19.6603 24.5396 19.6453 24.4286 19.6873 24.3086L21.5053 18.7106C21.5533 18.5666 21.6373 18.4496 21.7573 18.3596C21.8833 18.2696 22.0213 18.2246 22.1713 18.2246H22.7653C22.9213 18.2246 23.0623 18.2696 23.1883 18.3596C23.3143 18.4496 23.3983 18.5666 23.4403 18.7106L25.2493 24.3086C25.2913 24.4286 25.2733 24.5396 25.1953 24.6416C25.1233 24.7436 25.0243 24.7946 24.8983 24.7946H24.2953C24.1453 24.7946 24.0103 24.7496 23.8903 24.6596C23.7703 24.5636 23.6923 24.4436 23.6563 24.2996L23.4403 23.4446C23.4343 23.3966 23.4043 23.3726 23.3503 23.3726H21.5503C21.5023 23.3726 21.4723 23.3966 21.4603 23.4446L21.2443 24.2996C21.2083 24.4436 21.1303 24.5636 21.0103 24.6596C20.8903 24.7496 20.7553 24.7946 20.6053 24.7946H20.0383Z" fill="#504323"/>
<path d="M35 31.2683C35 32.777 33.6569 34 32 34C30.3431 34 29 32.777 29 31.2683C29 29.2263 32 26 32 26C32 26 35 29.2263 35 31.2683Z" fill="#7E796E"/>
</g>
<defs>
<clipPath id="clip0_2621_94628">
<rect width="48" height="48" fill="white"/>
</clipPath>
</defs>
</svg>
