<svg width="48" height="48" viewBox="0 0 48 48" fill="none" xmlns="http://www.w3.org/2000/svg">
<path fill-rule="evenodd" clip-rule="evenodd" d="M14.6993 14.6165C14.4634 14.6703 14.255 14.8079 14.1127 15.0037L11 19.2894L13.3829 21.4375L14.2518 20.2185L14.2518 28H24.0307L24.0287 20.2203L24.6171 21.3981L27 19.25L24.2538 15.0448C24.1096 14.8239 23.8839 14.669 23.626 14.6137L20.7618 14C20.7618 14.7732 20.0416 15.4 19.1413 15.4C18.241 15.4 17.4 14.7732 17.4 14L14.6993 14.6165Z" fill="#D5CDBA"/>
<path fill-rule="evenodd" clip-rule="evenodd" d="M23.1179 19.7147C22.8808 19.7697 22.6719 19.9092 22.5303 20.1072L19 25.045L21.6807 27.5L22.6583 26.1069L22.6583 35H33.6596L33.6572 26.1089L34.3193 27.455L37 25L33.8811 20.1483C33.7378 19.9253 33.5117 19.7683 33.2526 19.7119L29.982 19C29.982 19.8837 29.1718 20.6 28.1589 20.6C27.1461 20.6 26.2 19.8837 26.2 19L23.1179 19.7147Z" fill="#E4DDCD"/>
<path d="M13.1055 38.3374C15.1366 39.8818 17.4726 40.9754 19.9583 41.5457C22.4439 42.1159 25.0223 42.1498 27.522 41.6449C30.0216 41.14 32.3854 40.108 34.4563 38.6174C36.5271 37.1268 38.2575 35.2119 39.5325 32.9997M12.9712 40.8069L12.5586 37.8761L15.3596 37.3963M17.0063 7.40422C14.6556 8.39407 12.542 9.87374 10.8062 11.7449C9.07035 13.6161 7.75195 15.8359 6.9386 18.2568C6.12525 20.6777 5.83559 23.2443 6.08885 25.786C6.34212 28.3278 7.13252 30.7864 8.40752 32.9985M14.9385 6.05313L17.6785 7.16059L16.6928 9.83031M41.798 26.2566C42.1176 23.7224 41.8951 21.1491 41.1453 18.7076C40.3955 16.2662 39.1356 14.0126 37.4492 12.0966C35.7629 10.1805 33.6888 8.64594 31.3647 7.59479C29.0406 6.54364 26.5198 6 23.9698 6M44 25.1383L41.6725 26.9616L39.8572 24.7717" stroke="#7E796E" stroke-width="2" stroke-linecap="round" stroke-linejoin="round"/>
</svg>
