<svg width="48" height="48" viewBox="0 0 48 48" fill="none" xmlns="http://www.w3.org/2000/svg">
<path d="M5 13C5 12.4477 5.44772 12 6 12H42C42.5523 12 43 12.4477 43 13V35C43 35.5523 42.5523 36 42 36H6C5.44772 36 5 35.5523 5 35V13Z" fill="#E4DDCD"/>
<path d="M10 28L10 31L13 31C13.5523 31 14 31.4477 14 32C14 32.5523 13.5523 33 13 33L9 33C8.44772 33 8 32.5523 8 32L8 28C8 27.4477 8.44771 27 9 27C9.55228 27 10 27.4477 10 28Z" fill="#D5CDBA"/>
<path d="M38 20L38 17L35 17C34.4477 17 34 16.5523 34 16C34 15.4477 34.4477 15 35 15L39 15C39.5523 15 40 15.4477 40 16L40 20C40 20.5523 39.5523 21 39 21C38.4477 21 38 20.5523 38 20Z" fill="#D5CDBA"/>
<path d="M33.4466 23.65C33.4466 24.8767 33.1066 25.8267 32.4266 26.5C31.7532 27.1667 30.8032 27.5 29.5766 27.5C28.8366 27.5 28.1366 27.45 27.4766 27.35V20.15C28.1366 20.05 28.8366 20 29.5766 20C30.8032 20 31.7532 20.3233 32.4266 20.97C33.1066 21.61 33.4466 22.5033 33.4466 23.65ZM31.8266 23.65C31.8266 22.1033 31.1199 21.33 29.7066 21.33C29.5132 21.33 29.3266 21.35 29.1466 21.39V26.11C29.3266 26.15 29.5132 26.17 29.7066 26.17C31.1199 26.17 31.8266 25.33 31.8266 23.65Z" fill="#504323"/>
<path d="M24.0547 21.37C23.3547 21.37 22.8014 21.58 22.3947 22C21.9947 22.42 21.7947 23.0033 21.7947 23.75C21.7947 24.4833 22.0047 25.0633 22.4247 25.49C22.8447 25.9167 23.388 26.13 24.0547 26.13C24.6347 26.13 25.208 25.9467 25.7747 25.58L26.2547 26.82C25.588 27.2733 24.798 27.5 23.8847 27.5C22.7247 27.5 21.7947 27.1633 21.0947 26.49C20.4014 25.8167 20.0547 24.9033 20.0547 23.75C20.0547 22.5833 20.3914 21.6667 21.0647 21C21.7447 20.3333 22.6847 20 23.8847 20C24.798 20 25.588 20.2267 26.2547 20.68L25.7747 21.92C25.208 21.5533 24.6347 21.37 24.0547 21.37Z" fill="#504323"/>
<path d="M16.75 20.0996V25.9896H19.83V27.3996H15V20.0996H16.75Z" fill="#504323"/>
<path d="M32.8611 36.7832C32.3545 37.3627 32.2267 38.1381 32.4776 39.1095C32.8541 40.5664 35.2873 42.5945 36.9011 42.1775C38.5149 41.7605 39.4509 41.5187 41.0305 41.1105C42.5195 40.7258 42.8583 39.3116 42.5718 38.203C42.1867 36.7125 41.7516 35.0283 41.3664 33.5378C41.2002 32.8944 40.656 32.5749 40.0125 32.7392C39.3714 32.9029 39.2777 33.4425 39.4416 34.0841L39.4424 34.0873L35.1575 34.6761" fill="#7E796E"/>
<path d="M33.5746 37.4663L31.7202 30.2893C31.5554 29.6517 31.9384 29.0014 32.5756 28.8367C33.2127 28.6721 33.8627 29.0555 34.0275 29.6932L35.3443 34.7897" fill="#7E796E"/>
<path d="M35.3753 34.9151L34.9866 33.4106C34.843 32.8548 35.1768 32.288 35.7321 32.1445C36.2875 32.001 36.8541 32.3352 36.9977 32.891L37.426 34.5487" fill="#7E796E"/>
<path d="M37.5507 35.028L37.1982 33.664C37.0068 32.923 37.3332 32.1978 37.9273 32.0443C38.5215 31.8908 39.1583 32.3671 39.3498 33.1081L39.7449 34.6372" fill="#7E796E"/>
</svg>
