<svg width="48" height="48" viewBox="0 0 48 48" fill="none" xmlns="http://www.w3.org/2000/svg">
<path fill-rule="evenodd" clip-rule="evenodd" d="M13.2777 9.5207C13.0447 9.57187 12.8377 9.70463 12.694 9.89502L5 20.09L10.6593 25L12.7231 22.2137L12.7231 40H35.948L35.9431 22.2178L37.3407 24.91L43 20L36.171 9.93591C36.0248 9.72051 35.8004 9.57059 35.5455 9.51801L28.1842 8C28.1842 9.76732 26.4737 11.2 24.3355 11.2C22.1974 11.2 20.2 9.76732 20.2 8L13.2777 9.5207Z" fill="#E4DDCD"/>
<circle cx="33" cy="31" r="5" stroke="#7E796E" stroke-width="2"/>
<path d="M37 34L42 38" stroke="#7E796E" stroke-width="2" stroke-linecap="round"/>
<path d="M27.4207 25.0007C27.252 25.0007 27.1054 24.9384 26.9807 24.8137C26.8634 24.689 26.8047 24.5424 26.8047 24.3737V17.5977C26.8047 17.429 26.8634 17.2824 26.9807 17.1577C27.1054 17.033 27.252 16.9707 27.4207 16.9707H28.2347C28.4034 16.9707 28.5464 17.033 28.6637 17.1577C28.7884 17.2824 28.8507 17.429 28.8507 17.5977V24.3737C28.8507 24.5424 28.7884 24.689 28.6637 24.8137C28.5464 24.9384 28.4034 25.0007 28.2347 25.0007H27.4207Z" fill="#504323"/>
<path d="M22.5506 18.5987L21.7476 21.7557C21.7403 21.7777 21.744 21.7997 21.7586 21.8217C21.7806 21.8364 21.8026 21.8437 21.8246 21.8437H23.2986C23.3206 21.8437 23.339 21.8364 23.3536 21.8217C23.3756 21.7997 23.383 21.7777 23.3756 21.7557L22.5726 18.5987C22.5726 18.5914 22.569 18.5877 22.5616 18.5877C22.5543 18.5877 22.5506 18.5914 22.5506 18.5987ZM19.6136 25.0007C19.4596 25.0007 19.335 24.9384 19.2396 24.8137C19.1516 24.689 19.1333 24.5534 19.1846 24.4067L21.4066 17.5647C21.4653 17.3887 21.568 17.2457 21.7146 17.1357C21.8686 17.0257 22.0373 16.9707 22.2206 16.9707H22.9466C23.1373 16.9707 23.3096 17.0257 23.4636 17.1357C23.6176 17.2457 23.7203 17.3887 23.7716 17.5647L25.9826 24.4067C26.034 24.5534 26.012 24.689 25.9166 24.8137C25.8286 24.9384 25.7076 25.0007 25.5536 25.0007H24.8166C24.6333 25.0007 24.4683 24.9457 24.3216 24.8357C24.175 24.7184 24.0796 24.5717 24.0356 24.3957L23.7716 23.3507C23.7643 23.292 23.7276 23.2627 23.6616 23.2627H21.4616C21.403 23.2627 21.3663 23.292 21.3516 23.3507L21.0876 24.3957C21.0436 24.5717 20.9483 24.7184 20.8016 24.8357C20.655 24.9457 20.49 25.0007 20.3066 25.0007H19.6136Z" fill="#504323"/>
</svg>
