<svg width="48" height="48" viewBox="0 0 48 48" fill="none" xmlns="http://www.w3.org/2000/svg">
<path fill-rule="evenodd" clip-rule="evenodd" d="M13.2777 9.5207C13.0447 9.57187 12.8377 9.70463 12.694 9.89502L5 20.09L10.6593 25L12.7231 22.2137L12.7231 40H35.948L35.9431 22.2178L37.3407 24.91L43 20L36.171 9.93591C36.0248 9.72051 35.8004 9.57059 35.5455 9.51801L28.1842 8C28.1842 9.76732 26.4737 11.2 24.3355 11.2C22.1974 11.2 20.2 9.76732 20.2 8L13.2777 9.5207Z" fill="#E4DDCD"/>
<path d="M27.4207 25.9988C27.252 25.9988 27.1054 25.9364 26.9807 25.8117C26.8634 25.6871 26.8047 25.5404 26.8047 25.3718V18.5957C26.8047 18.4271 26.8634 18.2804 26.9807 18.1557C27.1054 18.0311 27.252 17.9688 27.4207 17.9688H28.2347C28.4034 17.9688 28.5464 18.0311 28.6637 18.1557C28.7884 18.2804 28.8507 18.4271 28.8507 18.5957V25.3718C28.8507 25.5404 28.7884 25.6871 28.6637 25.8117C28.5464 25.9364 28.4034 25.9988 28.2347 25.9988H27.4207Z" fill="#504323"/>
<path d="M22.5467 19.5968L21.7437 22.7537C21.7364 22.7757 21.74 22.7977 21.7547 22.8198C21.7767 22.8344 21.7987 22.8418 21.8207 22.8418H23.2947C23.3167 22.8418 23.335 22.8344 23.3497 22.8198C23.3717 22.7977 23.379 22.7757 23.3717 22.7537L22.5687 19.5968C22.5687 19.5894 22.565 19.5858 22.5577 19.5858C22.5504 19.5858 22.5467 19.5894 22.5467 19.5968ZM19.6097 25.9988C19.4557 25.9988 19.331 25.9364 19.2357 25.8117C19.1477 25.6871 19.1294 25.5514 19.1807 25.4048L21.4027 18.5627C21.4614 18.3867 21.564 18.2437 21.7107 18.1337C21.8647 18.0238 22.0334 17.9688 22.2167 17.9688H22.9427C23.1334 17.9688 23.3057 18.0238 23.4597 18.1337C23.6137 18.2437 23.7164 18.3867 23.7677 18.5627L25.9787 25.4048C26.03 25.5514 26.008 25.6871 25.9127 25.8117C25.8247 25.9364 25.7037 25.9988 25.5497 25.9988H24.8127C24.6294 25.9988 24.4644 25.9438 24.3177 25.8338C24.171 25.7164 24.0757 25.5697 24.0317 25.3937L23.7677 24.3488C23.7604 24.2901 23.7237 24.2608 23.6577 24.2608H21.4577C21.399 24.2608 21.3624 24.2901 21.3477 24.3488L21.0837 25.3937C21.0397 25.5697 20.9444 25.7164 20.7977 25.8338C20.651 25.9438 20.486 25.9988 20.3027 25.9988H19.6097Z" fill="#504323"/>
<path d="M13.1156 5.33562C13.2266 4.9498 13.7734 4.9498 13.8844 5.33562L14.3955 7.11143C14.4272 7.22154 14.5046 7.31278 14.608 7.362L16.2408 8.13879C16.545 8.28352 16.545 8.71648 16.2408 8.86121L14.608 9.638C14.5046 9.68722 14.4272 9.77846 14.3955 9.88857L13.8844 11.6644C13.7734 12.0502 13.2266 12.0502 13.1156 11.6644L12.6045 9.88857C12.5728 9.77846 12.4954 9.68722 12.392 9.638L10.7592 8.86121C10.455 8.71648 10.455 8.28352 10.7592 8.13879L12.392 7.362C12.4954 7.31278 12.5728 7.22154 12.6045 7.11143L13.1156 5.33562Z" fill="#7E796E"/>
<path d="M16.1133 11.4631C16.2182 11.0661 16.7818 11.0661 16.8867 11.4631L17.1299 12.3833C17.1588 12.4924 17.2324 12.5843 17.3326 12.6362L18.3144 13.1448C18.6024 13.294 18.6024 13.706 18.3144 13.8552L17.3326 14.3638C17.2324 14.4157 17.1588 14.5076 17.1299 14.6167L16.8867 15.5369C16.7818 15.9339 16.2182 15.9339 16.1133 15.5369L15.8701 14.6167C15.8412 14.5076 15.7676 14.4157 15.6674 14.3638L14.6856 13.8552C14.3976 13.706 14.3976 13.294 14.6856 13.1448L15.6674 12.6362C15.7676 12.5843 15.8412 12.4924 15.8701 12.3833L16.1133 11.4631Z" fill="#7E796E"/>
<path d="M10.7087 12.1807C10.7838 11.8765 11.2162 11.8765 11.2913 12.1807L11.5089 13.0627C11.5288 13.1437 11.5816 13.2127 11.6545 13.2532L12.5274 13.7377C12.7333 13.852 12.7333 14.148 12.5274 14.2623L11.6545 14.7468C11.5816 14.7873 11.5288 14.8563 11.5089 14.9373L11.2913 15.8193C11.2162 16.1235 10.7838 16.1235 10.7087 15.8193L10.4911 14.9373C10.4712 14.8563 10.4184 14.7873 10.3455 14.7468L9.47258 14.2623C9.2667 14.148 9.2667 13.852 9.47258 13.7377L10.3455 13.2532C10.4184 13.2127 10.4712 13.1437 10.4911 13.0627L10.7087 12.1807Z" fill="#7E796E"/>
<path d="M40.0547 30.5937V28.0938H37.5547" stroke="#7E796E" stroke-width="2" stroke-linecap="round" stroke-linejoin="round"/>
<path d="M38.4531 29.7005L37.5701 30.5378C36.5231 31.5305 34.8565 31.4378 33.926 30.335C33.016 29.2565 31.3959 29.1402 30.3413 30.0777L29.4531 30.8672" stroke="#7E796E" stroke-width="2" stroke-linecap="round"/>
<path d="M40.0547 36.1172V33.6172H37.5547" stroke="#7E796E" stroke-width="2" stroke-linecap="round" stroke-linejoin="round"/>
<path d="M38.4531 35.224L37.5701 36.0612C36.5231 37.054 34.8565 36.9612 33.926 35.8585C33.016 34.78 31.3959 34.6637 30.3413 35.6012L29.4531 36.3906" stroke="#7E796E" stroke-width="2" stroke-linecap="round"/>
</svg>
