<svg width="48" height="48" viewBox="0 0 48 48" fill="none" xmlns="http://www.w3.org/2000/svg">
<path d="M24 6C28.2965 6 31.8866 9.01134 32.7822 13.0381C36.8334 13.4312 40 16.8457 40 21C40 25.4183 36.4183 29 32 29C30.4101 29 28.9299 28.5341 27.6846 27.7344L24 33L20.3145 27.7344C19.0693 28.5338 17.5896 29 16 29C11.5817 29 8 25.4183 8 21C8 16.846 11.1661 13.4317 15.2168 13.0381C16.1123 9.01124 19.7034 6 24 6Z" fill="#E4DDCD"/>
<path d="M7 37L8.2088 36.2031C9.2911 35.4896 10.7139 35.5736 11.7048 36.4093L11.8123 36.5C12.8396 37.3665 14.3419 37.3665 15.3692 36.5C16.3966 35.6335 17.8988 35.6335 18.9262 36.5C19.9535 37.3665 21.4557 37.3665 22.4831 36.5C23.5104 35.6335 25.0127 35.6335 26.04 36.5C27.0673 37.3665 28.5696 37.3665 29.5969 36.5C30.6243 35.6335 32.1265 35.6335 33.1538 36.5C34.1812 37.3665 35.6962 37.3557 36.7235 36.4892C37.7429 35.6295 39.24 35.5981 40.2831 36.4289L41 37" stroke="#7E796E" stroke-width="2" stroke-linecap="round"/>
<path d="M7 42L8.2088 41.2031C9.2911 40.4896 10.7139 40.5736 11.7048 41.4093L11.8123 41.5C12.8396 42.3665 14.3419 42.3665 15.3692 41.5C16.3966 40.6335 17.8988 40.6335 18.9262 41.5C19.9535 42.3665 21.4557 42.3665 22.4831 41.5C23.5104 40.6335 25.0127 40.6335 26.04 41.5C27.0673 42.3665 28.5696 42.3665 29.5969 41.5C30.6243 40.6335 32.1265 40.6335 33.1538 41.5C34.1812 42.3665 35.6962 42.3557 36.7235 41.4892C37.7429 40.6295 39.24 40.5981 40.2831 41.4289L41 42" stroke="#7E796E" stroke-width="2" stroke-linecap="round"/>
<path d="M34.5261 6.40878C34.6789 5.95467 35.3211 5.95467 35.4739 6.40878L36.2774 8.79723C36.3238 8.93518 36.428 9.04605 36.5628 9.10092L38.8623 10.0369C39.2776 10.2059 39.2776 10.7941 38.8622 10.9631L36.5628 11.8991C36.428 11.9539 36.3238 12.0648 36.2774 12.2028L35.4739 14.5912C35.3211 15.0453 34.6789 15.0453 34.5261 14.5912L33.7226 12.2028C33.6762 12.0648 33.572 11.9539 33.4372 11.8991L31.1377 10.9631C30.7224 10.7941 30.7224 10.2059 31.1378 10.0369L33.4372 9.10092C33.572 9.04605 33.6762 8.93518 33.7226 8.79723L34.5261 6.40878Z" fill="#7E796E"/>
<path d="M38.62 14.1552C38.7406 13.7885 39.2594 13.7885 39.38 14.1552L40.0232 16.1107C40.0595 16.2211 40.1421 16.3103 40.2494 16.355L42.1129 17.1307C42.4413 17.2674 42.4413 17.7326 42.1129 17.8693L40.2494 18.645C40.1421 18.6897 40.0595 18.7789 40.0232 18.8893L39.38 20.8448C39.2594 21.2115 38.7406 21.2115 38.62 20.8448L37.9768 18.8893C37.9405 18.7789 37.8579 18.6897 37.7506 18.645L35.8871 17.8693C35.5587 17.7326 35.5587 17.2674 35.8871 17.1307L37.7506 16.355C37.8579 16.3103 37.9405 16.2211 37.9768 16.1107L38.62 14.1552Z" fill="#7E796E"/>
</svg>
