<svg width="48" height="48" viewBox="0 0 48 48" fill="none" xmlns="http://www.w3.org/2000/svg">
<circle cx="24" cy="24" r="13" fill="#E4DDCD"/>
<path d="M13.1055 38.3374C15.1366 39.8818 17.4726 40.9754 19.9583 41.5457C22.4439 42.1159 25.0223 42.1498 27.522 41.6449C30.0216 41.14 32.3854 40.108 34.4563 38.6174C36.5271 37.1268 38.2575 35.2119 39.5325 32.9997M12.9712 40.8069L12.5586 37.8761L15.3596 37.3963M17.0063 7.40422C14.6556 8.39407 12.542 9.87374 10.8062 11.7449C9.07035 13.6161 7.75195 15.8359 6.9386 18.2568C6.12525 20.6777 5.83559 23.2443 6.08885 25.786C6.34212 28.3278 7.13252 30.7864 8.40752 32.9985M14.9385 6.05313L17.6785 7.16059L16.6928 9.83031M41.798 26.2566C42.1176 23.7224 41.8951 21.1491 41.1453 18.7076C40.3955 16.2662 39.1356 14.0126 37.4492 12.0966C35.7629 10.1805 33.6888 8.64594 31.3647 7.59479C29.0406 6.54364 26.5198 6 23.9698 6M44 25.1383L41.6725 26.9616L39.8572 24.7717" stroke="#7E796E" stroke-width="2" stroke-linecap="round" stroke-linejoin="round"/>
<path d="M24.0824 28.3791C23.8984 28.3791 23.7384 28.3111 23.6024 28.1751C23.4664 28.0391 23.3984 27.8791 23.3984 27.6951V20.3031C23.3984 20.1191 23.4664 19.9591 23.6024 19.8231C23.7384 19.6871 23.8984 19.6191 24.0824 19.6191H24.7664C24.9504 19.6191 25.1064 19.6871 25.2344 19.8231C25.3704 19.9591 25.4384 20.1191 25.4384 20.3031V22.9431C25.4384 23.0151 25.4744 23.0511 25.5464 23.0511H28.0184C28.0904 23.0511 28.1264 23.0151 28.1264 22.9431V20.3031C28.1264 20.1191 28.1904 19.9591 28.3184 19.8231C28.4544 19.6871 28.6144 19.6191 28.7984 19.6191H29.4824C29.6664 19.6191 29.8264 19.6871 29.9624 19.8231C30.0984 19.9591 30.1664 20.1191 30.1664 20.3031V27.6951C30.1664 27.8791 30.0984 28.0391 29.9624 28.1751C29.8264 28.3111 29.6664 28.3791 29.4824 28.3791H28.7984C28.6144 28.3791 28.4544 28.3111 28.3184 28.1751C28.1904 28.0391 28.1264 27.8791 28.1264 27.6951V24.6951C28.1264 24.6311 28.0904 24.5991 28.0184 24.5991H25.5464C25.4744 24.5991 25.4384 24.6311 25.4384 24.6951V27.6951C25.4384 27.8791 25.3704 28.0391 25.2344 28.1751C25.1064 28.3111 24.9504 28.3791 24.7664 28.3791H24.0824Z" fill="#504323"/>
<path d="M18.0634 23.1351C17.9514 23.2231 17.8314 23.2351 17.7034 23.1711C17.5834 23.1071 17.5234 23.0031 17.5234 22.8591V21.9831C17.5234 21.5271 17.7074 21.1671 18.0754 20.9031L19.2874 20.0151C19.6474 19.7511 20.0594 19.6191 20.5234 19.6191H21.2794C21.4634 19.6191 21.6234 19.6871 21.7594 19.8231C21.8954 19.9591 21.9634 20.1191 21.9634 20.3031V27.6951C21.9634 27.8791 21.8954 28.0391 21.7594 28.1751C21.6234 28.3111 21.4634 28.3791 21.2794 28.3791H20.5234C20.3394 28.3791 20.1794 28.3111 20.0434 28.1751C19.9074 28.0391 19.8394 27.8791 19.8394 27.6951V21.8631H19.8274H19.8154L18.0634 23.1351Z" fill="#504323"/>
</svg>
