<svg width="48" height="48" viewBox="0 0 48 48" fill="none" xmlns="http://www.w3.org/2000/svg">
<path d="M24 24C24.9193 24 25.8294 24.1685 26.6787 24.4951C27.528 24.8218 28.3002 25.2998 28.9502 25.9033C29.6002 26.5069 30.115 27.2241 30.4668 28.0127C30.8186 28.8013 31 29.6464 31 30.5C31 31.3536 30.8186 32.1987 30.4668 32.9873C30.115 33.7759 29.6002 34.4931 28.9502 35.0967C28.3002 35.7002 27.528 36.1782 26.6787 36.5049C25.8294 36.8315 24.9193 37 24 37V24ZM24 24C24 24.9193 23.8315 25.8294 23.5049 26.6787C23.1782 27.528 22.7002 28.3002 22.0967 28.9502C21.4931 29.6002 20.7759 30.115 19.9873 30.4668C19.1987 30.8186 18.3536 31 17.5 31C16.6464 31 15.8013 30.8186 15.0127 30.4668C14.2241 30.115 13.5069 29.6002 12.9033 28.9502C12.2998 28.3002 11.8218 27.528 11.4951 26.6787C11.1685 25.8294 11 24.9193 11 24H24ZM30.5 17C31.3536 17 32.1987 17.1814 32.9873 17.5332C33.7759 17.885 34.4931 18.3998 35.0967 19.0498C35.7002 19.6998 36.1782 20.472 36.5049 21.3213C36.8315 22.1706 37 23.0807 37 24H24C24 23.0807 24.1685 22.1706 24.4951 21.3213C24.8218 20.472 25.2998 19.6998 25.9033 19.0498C26.5069 18.3998 27.2241 17.885 28.0127 17.5332C28.8013 17.1814 29.6464 17 30.5 17ZM24 24C23.0807 24 22.1706 23.8315 21.3213 23.5049C20.472 23.1782 19.6998 22.7002 19.0498 22.0967C18.3998 21.4931 17.885 20.7759 17.5332 19.9873C17.1814 19.1987 17 18.3536 17 17.5C17 16.6464 17.1814 15.8013 17.5332 15.0127C17.885 14.2241 18.3998 13.5069 19.0498 12.9033C19.6998 12.2998 20.472 11.8218 21.3213 11.4951C22.1706 11.1685 23.0807 11 24 11V24Z" fill="#E4DDCD"/>
<path d="M32.532 8.49026C33.8639 7.06966 36.1556 7.19524 37.324 8.75296C37.7377 9.30447 38.5446 9.36152 39.032 8.87405L39.7928 8.11331C40.1833 7.72279 40.8163 7.72279 41.2068 8.11331C41.5974 8.50384 41.5974 9.13685 41.2068 9.52737L40.4461 10.2881C39.0981 11.6362 36.8684 11.4782 35.7244 9.95315C35.3021 9.38999 34.4737 9.34422 33.992 9.85745L33.2293 10.6709C32.8517 11.0737 32.2191 11.0942 31.8162 10.7168C31.4133 10.3391 31.3926 9.70568 31.7703 9.30276L32.532 8.49026Z" fill="#7E796E"/>
<path d="M33.532 12.4903C34.8639 11.0697 37.1556 11.1952 38.324 12.753C38.7377 13.3045 39.5446 13.3615 40.032 12.8741L40.7928 12.1133C41.1833 11.7228 41.8163 11.7228 42.2068 12.1133C42.5974 12.5038 42.5974 13.1368 42.2068 13.5274L41.4461 14.2881C40.0981 15.6362 37.8684 15.4782 36.7244 13.9532C36.3021 13.39 35.4737 13.3442 34.992 13.8575L34.2293 14.6709C33.8517 15.0737 33.2191 15.0942 32.8162 14.7168C32.4133 14.3391 32.3926 13.7057 32.7703 13.3028L33.532 12.4903Z" fill="#7E796E"/>
<path d="M38.666 32.5C38.9419 32.0217 39.5538 31.8581 40.0322 32.1338C40.5104 32.4097 40.6741 33.0207 40.3984 33.499C39.0526 35.8339 37.226 37.8552 35.04 39.4287C32.854 41.0022 30.3587 42.092 27.7197 42.625C25.0808 43.158 22.3585 43.1225 19.7344 42.5205C17.6563 42.0437 15.6783 41.2186 13.8799 40.0869L13.9619 40.667C14.0389 41.2139 13.6572 41.7199 13.1104 41.7969C12.5636 41.8737 12.0585 41.493 11.9814 40.9463L11.5684 38.0156C11.493 37.4803 11.8569 36.982 12.3896 36.8906L15.1904 36.4111C15.7348 36.3179 16.2525 36.6832 16.3457 37.2275C16.4389 37.7719 16.0726 38.2886 15.5283 38.3818L15.0537 38.4629C16.6333 39.4402 18.3649 40.1545 20.1816 40.5713C22.5287 41.1098 24.9639 41.1418 27.3242 40.665C29.6845 40.1883 31.9166 39.2132 33.8721 37.8057C35.8276 36.3981 37.4618 34.5893 38.666 32.5ZM14.0117 5.67871C14.2187 5.16669 14.8014 4.91907 15.3135 5.12598L18.0537 6.2334C18.5545 6.43605 18.8033 6.99998 18.6162 7.50684L17.6309 10.1768C17.4396 10.6947 16.8647 10.9597 16.3467 10.7686C15.8287 10.5773 15.5638 10.0024 15.7549 9.48438L15.9209 9.03223C14.2881 9.91353 12.8067 11.0583 11.5391 12.4248C9.89977 14.1919 8.65493 16.2887 7.88672 18.5752C7.11854 20.8617 6.84483 23.2859 7.08398 25.6865C7.32319 28.0872 8.06934 30.4098 9.27344 32.499C9.54921 32.9775 9.38564 33.5894 8.90723 33.8652C8.42877 34.141 7.81682 33.9764 7.54102 33.498C6.19523 31.1631 5.36106 28.5674 5.09375 25.8848C4.82653 23.2023 5.13188 20.4935 5.99023 17.9385C6.8487 15.3832 8.24093 13.0396 10.0732 11.0645C11.5252 9.49932 13.2284 8.19478 15.1074 7.2002L14.5635 6.98047C14.0516 6.77346 13.8049 6.19065 14.0117 5.67871ZM41.2793 16.2285C41.5968 16.938 41.8723 17.6675 42.1016 18.4141C42.7284 20.4553 43.0041 22.5838 42.9248 24.71L43.3838 24.3516C43.8185 24.0111 44.4465 24.0869 44.7871 24.5215C45.1277 24.9563 45.051 25.5852 44.6162 25.9258L42.2891 27.749C41.8628 28.0828 41.2479 28.0165 40.9023 27.5996L39.0869 25.4102C38.7346 24.9851 38.7938 24.3544 39.2188 24.002C39.6439 23.6495 40.2745 23.7086 40.627 24.1338L40.9307 24.5C40.9852 22.6423 40.7371 20.7843 40.1895 19.001C39.9472 18.2121 39.6469 17.4448 39.2949 16.7031C39.9741 16.6943 40.6529 16.5376 41.2793 16.2285ZM36.2324 12.251C36.8768 12.5585 37.5803 12.7108 38.2852 12.7031C38.298 12.7195 38.3117 12.7352 38.3242 12.752L38.4062 12.8496C38.7047 13.1671 39.1496 13.274 39.5469 13.1592C39.9327 13.7153 40.2883 14.2912 40.6123 14.8848C39.926 15.2222 39.1467 15.2903 38.4258 15.0996C37.9187 14.2731 37.3421 13.4884 36.6982 12.7568C36.5466 12.5846 36.3906 12.4166 36.2324 12.251ZM33.7129 7.69922C34.8733 8.39489 35.9562 9.21287 36.9434 10.1396C36.5572 10.0433 36.1605 9.9968 35.7637 10.001C35.751 9.98471 35.7371 9.96873 35.7246 9.95215C35.3022 9.38941 34.4738 9.3435 33.9922 9.85645L33.7529 10.1104C33.1978 9.71796 32.6191 9.3588 32.0195 9.03516L32.5322 8.48926C32.8742 8.12458 33.2797 7.86202 33.7129 7.69922ZM23.9697 5C26.6617 5 29.323 5.57402 31.7764 6.68359C31.8976 6.73841 32.0178 6.79525 32.1377 6.85254C31.8902 7.02875 31.6547 7.23125 31.4375 7.46289L30.6758 8.27539C30.6518 8.30092 30.6301 8.32825 30.6074 8.35449C28.5094 7.46121 26.2519 7 23.9697 7C23.4175 6.99993 22.9697 6.55224 22.9697 6C22.9697 5.44776 23.4175 5.00007 23.9697 5Z" fill="#7E796E"/>
</svg>
