<svg width="48" height="48" viewBox="0 0 48 48" fill="none" xmlns="http://www.w3.org/2000/svg">
<path d="M7 22.9996L9.41483 23.6371C14.3203 24.9322 19.5227 24.4919 24.1408 22.3909L25 22C30.0838 20.0869 35.7345 20.3762 40.5964 22.7985L41 22.9996V39.9996C41 40.5519 40.5523 40.9996 40 40.9996H8C7.44772 40.9996 7 40.5519 7 39.9996V22.9996Z" fill="#E4DDCD"/>
<path d="M35.7544 36.5C34.661 36.5 33.801 36.1767 33.1744 35.53C32.5477 34.8833 32.2344 33.9567 32.2344 32.75C32.2344 31.5633 32.5377 30.6433 33.1444 29.99C33.751 29.33 34.5977 29 35.6844 29C36.2044 29 36.6577 29.0367 37.0444 29.11C37.2044 29.1367 37.3344 29.2167 37.4344 29.35C37.5344 29.4833 37.5844 29.6333 37.5844 29.8V30.12C37.5844 30.26 37.5277 30.37 37.4144 30.45C37.301 30.53 37.1777 30.5533 37.0444 30.52C36.6644 30.42 36.2777 30.37 35.8844 30.37C35.2844 30.37 34.8144 30.5733 34.4744 30.98C34.141 31.3867 33.9744 31.9767 33.9744 32.75C33.9744 33.51 34.1544 34.1 34.5144 34.52C34.8744 34.94 35.3544 35.15 35.9544 35.15C36.3544 35.15 36.7444 35.1 37.1244 35C37.2577 34.9667 37.381 34.99 37.4944 35.07C37.6144 35.15 37.6744 35.26 37.6744 35.4V35.7C37.6744 35.8667 37.621 36.0167 37.5144 36.15C37.4144 36.2833 37.2844 36.3633 37.1244 36.39C36.731 36.4633 36.2744 36.5 35.7544 36.5Z" fill="#504323"/>
<path d="M30.3366 30.22C30.2166 30.0933 30.0699 30.03 29.8966 30.03C29.7232 30.03 29.5732 30.0933 29.4466 30.22C29.3266 30.3467 29.2666 30.4967 29.2666 30.67C29.2666 30.8433 29.3266 30.9933 29.4466 31.12C29.5732 31.24 29.7232 31.3 29.8966 31.3C30.0699 31.3 30.2166 31.24 30.3366 31.12C30.4632 30.9933 30.5266 30.8433 30.5266 30.67C30.5266 30.4967 30.4632 30.3467 30.3366 30.22ZM31.0766 31.85C30.7499 32.17 30.3566 32.33 29.8966 32.33C29.4366 32.33 29.0432 32.17 28.7166 31.85C28.3899 31.5233 28.2266 31.13 28.2266 30.67C28.2266 30.21 28.3899 29.8167 28.7166 29.49C29.0432 29.1633 29.4366 29 29.8966 29C30.3566 29 30.7499 29.1633 31.0766 29.49C31.4032 29.8167 31.5666 30.21 31.5666 30.67C31.5666 31.13 31.4032 31.5233 31.0766 31.85Z" fill="#504323"/>
<path d="M25.4909 30.84C25.3043 30.4733 25.0109 30.29 24.6109 30.29C24.2109 30.29 23.9143 30.4733 23.7209 30.84C23.5343 31.2067 23.4409 31.8433 23.4409 32.75C23.4409 33.6567 23.5343 34.2933 23.7209 34.66C23.9143 35.0267 24.2109 35.21 24.6109 35.21C25.0109 35.21 25.3043 35.0267 25.4909 34.66C25.6843 34.2933 25.7809 33.6567 25.7809 32.75C25.7809 31.8433 25.6843 31.2067 25.4909 30.84ZM26.7909 35.62C26.3176 36.2067 25.5909 36.5 24.6109 36.5C23.6309 36.5 22.9009 36.2067 22.4209 35.62C21.9476 35.0333 21.7109 34.0767 21.7109 32.75C21.7109 31.4233 21.9476 30.4667 22.4209 29.88C22.9009 29.2933 23.6309 29 24.6109 29C25.5909 29 26.3176 29.2933 26.7909 29.88C27.2709 30.4667 27.5109 31.4233 27.5109 32.75C27.5109 34.0767 27.2709 35.0333 26.7909 35.62Z" fill="#504323"/>
<path d="M18.9831 30.84C18.7965 30.4733 18.5031 30.29 18.1031 30.29C17.7031 30.29 17.4065 30.4733 17.2131 30.84C17.0265 31.2067 16.9331 31.8433 16.9331 32.75C16.9331 33.6567 17.0265 34.2933 17.2131 34.66C17.4065 35.0267 17.7031 35.21 18.1031 35.21C18.5031 35.21 18.7965 35.0267 18.9831 34.66C19.1765 34.2933 19.2731 33.6567 19.2731 32.75C19.2731 31.8433 19.1765 31.2067 18.9831 30.84ZM20.2831 35.62C19.8098 36.2067 19.0831 36.5 18.1031 36.5C17.1231 36.5 16.3931 36.2067 15.9131 35.62C15.4398 35.0333 15.2031 34.0767 15.2031 32.75C15.2031 31.4233 15.4398 30.4667 15.9131 29.88C16.3931 29.2933 17.1231 29 18.1031 29C19.0831 29 19.8098 29.2933 20.2831 29.88C20.7631 30.4667 21.0031 31.4233 21.0031 32.75C21.0031 34.0767 20.7631 35.0333 20.2831 35.62Z" fill="#504323"/>
<path d="M10.7703 32.0296C10.677 32.1029 10.577 32.1129 10.4703 32.0596C10.3703 32.0063 10.3203 31.9196 10.3203 31.7996V31.0696C10.3203 30.6896 10.4736 30.3896 10.7803 30.1696L11.7903 29.4296C12.0903 29.2096 12.4336 29.0996 12.8203 29.0996H13.4503C13.6036 29.0996 13.737 29.1563 13.8503 29.2696C13.9636 29.3829 14.0203 29.5163 14.0203 29.6696V35.8296C14.0203 35.9829 13.9636 36.1163 13.8503 36.2296C13.737 36.3429 13.6036 36.3996 13.4503 36.3996H12.8203C12.667 36.3996 12.5336 36.3429 12.4203 36.2296C12.307 36.1163 12.2503 35.9829 12.2503 35.8296V30.9696H12.2403H12.2303L10.7703 32.0296Z" fill="#504323"/>
<path d="M15 9L14.3717 9.62829C13.2049 10.7951 13.5241 12.7621 15 13.5C16.4759 14.2379 16.7951 16.2049 15.6283 17.3717L15 18" stroke="#7E796E" stroke-width="2" stroke-linecap="round" stroke-linejoin="round"/>
<path d="M24 9L23.3717 9.62829C22.2049 10.7951 22.5241 12.7621 24 13.5C25.4759 14.2379 25.7951 16.2049 24.6283 17.3717L24 18" stroke="#7E796E" stroke-width="2" stroke-linecap="round" stroke-linejoin="round"/>
<path d="M33 9L32.3717 9.62829C31.2049 10.7951 31.5241 12.7621 33 13.5C34.4759 14.2379 34.7951 16.2049 33.6283 17.3717L33 18" stroke="#7E796E" stroke-width="2" stroke-linecap="round" stroke-linejoin="round"/>
</svg>
