<svg width="48" height="48" viewBox="0 0 48 48" fill="none" xmlns="http://www.w3.org/2000/svg">
<circle cx="10" cy="16" r="1" transform="rotate(90 10 16)" fill="#7E796E"/>
<circle cx="16" cy="19" r="1" transform="rotate(90 16 19)" fill="#7E796E"/>
<circle cx="15" cy="13" r="2" transform="rotate(90 15 13)" fill="#7E796E"/>
<circle cx="16" cy="28" r="1" transform="rotate(90 16 28)" fill="#7E796E"/>
<circle cx="10" cy="30" r="1" transform="rotate(90 10 30)" fill="#7E796E"/>
<circle cx="11" cy="23" r="2" transform="rotate(90 11 23)" fill="#7E796E"/>
<circle cx="15" cy="35" r="2" transform="rotate(90 15 35)" fill="#7E796E"/>
<rect x="19" y="8" width="12" height="32" rx="2" fill="#E4DDCD"/>
<ellipse cx="25" cy="18" rx="1" ry="1" transform="rotate(90 25 18)" fill="white"/>
<ellipse cx="25" cy="24" rx="1" ry="1" transform="rotate(90 25 24)" fill="white"/>
<ellipse cx="25" cy="30" rx="1" ry="1" transform="rotate(90 25 30)" fill="white"/>
<path d="M34 15H39M39 15L37 13M39 15L37 17" stroke="#7E796E" stroke-width="2" stroke-linecap="round" stroke-linejoin="round"/>
<path d="M34 24H39M39 24L37 22M39 24L37 26" stroke="#7E796E" stroke-width="2" stroke-linecap="round" stroke-linejoin="round"/>
<path d="M34 33H39M39 33L37 31M39 33L37 35" stroke="#7E796E" stroke-width="2" stroke-linecap="round" stroke-linejoin="round"/>
</svg>
