<svg width="48" height="48" viewBox="0 0 48 48" fill="none" xmlns="http://www.w3.org/2000/svg">
<path d="M28 38C28.5523 38 29 38.4477 29 39C29 40.6569 27.6569 42 26 42H22C20.3431 42 19 40.6569 19 39C19 38.4477 19.4477 38 20 38H28ZM24 11C30.0751 11 35 15.9249 35 22C35 26.0554 32.8037 29.5948 29.5371 31.502C29.213 31.6912 29.0002 32.0319 29 32.4072V36C29 36.5523 28.5523 37 28 37H20C19.4477 37 19 36.5523 19 36V32.4072C18.9998 32.0319 18.787 31.6912 18.4629 31.502C15.1963 29.5948 13 26.0554 13 22C13 15.9249 17.9249 11 24 11Z" fill="#E4DDCD"/>
<path d="M21 26L24 28L27 26" stroke="#7E796E" stroke-width="2" stroke-linecap="round"/>
<line x1="24" y1="6" x2="24" y2="9" stroke="#7E796E" stroke-width="2" stroke-linecap="round"/>
<line x1="1" y1="-1" x2="4" y2="-1" transform="matrix(0.725953 0.687745 -0.725953 0.687745 10 11)" stroke="#7E796E" stroke-width="2" stroke-linecap="round"/>
<line x1="7" y1="22" x2="10" y2="22" stroke="#7E796E" stroke-width="2" stroke-linecap="round"/>
<line x1="1" y1="-1" x2="4" y2="-1" transform="matrix(-0.725953 0.687745 0.725953 0.687745 37.6328 11)" stroke="#7E796E" stroke-width="2" stroke-linecap="round"/>
<line x1="1" y1="-1" x2="4" y2="-1" transform="matrix(-1 0 0 1 42 23)" stroke="#7E796E" stroke-width="2" stroke-linecap="round"/>
<path d="M24 37V28" stroke="#7E796E" stroke-width="2"/>
</svg>
