<svg width="40" height="40" viewBox="0 0 40 40" fill="none" xmlns="http://www.w3.org/2000/svg">
<path d="M3.33594 10.1203C3.33594 9.59654 3.71094 9.16797 4.16927 9.16797H35.8359C36.2943 9.16797 36.6693 9.59654 36.6693 10.1203V34.8823C36.6693 35.4061 36.2943 35.8346 35.8359 35.8346H4.16927C3.71094 35.8346 3.33594 35.4061 3.33594 34.8823V10.1203Z" fill="#E4DDCD"/>
<path d="M9.03613 12.8154C10.5732 12.8154 11.8192 14.0616 11.8193 15.5986C11.8193 17.1358 10.5733 18.3818 9.03613 18.3818C7.49909 18.3817 6.25293 17.1357 6.25293 15.5986C6.25311 14.0617 7.4992 12.8156 9.03613 12.8154Z" stroke="#7E796E" stroke-width="0.6"/>
<path d="M14.7552 16.9323C15.4916 16.9323 16.0885 16.3353 16.0885 15.599C16.0885 14.8626 15.4916 14.2656 14.7552 14.2656C14.0188 14.2656 13.4219 14.8626 13.4219 15.599C13.4219 16.3353 14.0188 16.9323 14.7552 16.9323Z" fill="#B6AD99"/>
<path d="M33.5661 12.7656H17.8661C17.5992 12.7656 17.3828 12.982 17.3828 13.249V17.949C17.3828 18.2159 17.5992 18.4323 17.8661 18.4323H33.5661C33.8331 18.4323 34.0495 18.2159 34.0495 17.949V13.249C34.0495 12.982 33.8331 12.7656 33.5661 12.7656Z" fill="#7E796E"/>
<g clip-path="url(#clip0_6698_83963)">
<path d="M10.0029 24.168C20.0359 24.1681 28.1689 32.3019 28.1689 42.335C28.1688 52.3679 20.0358 60.5008 10.0029 60.501C-0.0301342 60.501 -8.16389 52.368 -8.16406 42.335C-8.16406 32.3018 -0.0302429 24.168 10.0029 24.168Z" fill="#E4DDCD" stroke="#D5CDBA" stroke-width="2"/>
</g>
<defs>
<clipPath id="clip0_6698_83963">
<rect width="33.3333" height="26.6667" fill="white" transform="translate(3.33594 9.16797)"/>
</clipPath>
</defs>
</svg>
