<svg width="48" height="48" viewBox="0 0 48 48" fill="none" xmlns="http://www.w3.org/2000/svg">
<circle cx="24" cy="24" r="13" fill="#E4DDCD"/>
<path d="M24 19V24H29" stroke="#7E796E" stroke-width="2" stroke-linecap="round" stroke-linejoin="round"/>
<path d="M43 23L41 25L39 23" stroke="#7E796E" stroke-width="2" stroke-linecap="round" stroke-linejoin="round"/>
<path d="M41 24C41 14.6112 33.3888 7 24 7C14.6112 7 7 14.6112 7 24C7 33.3888 14.6112 41 24 41C27.4758 41 30.7079 39.9569 33.4004 38.1667" stroke="#7E796E" stroke-width="2" stroke-linecap="round" stroke-linejoin="round"/>
<path d="M40.1053 29.48V34.02C40.1053 34.08 40.1353 34.1167 40.1953 34.13C40.3286 34.1567 40.4886 34.17 40.6753 34.17C41.3486 34.17 41.8453 33.9733 42.1653 33.58C42.492 33.1867 42.6553 32.5433 42.6553 31.65C42.6553 30.85 42.492 30.2633 42.1653 29.89C41.8386 29.5167 41.342 29.33 40.6753 29.33C40.4886 29.33 40.3286 29.3433 40.1953 29.37C40.1353 29.3833 40.1053 29.42 40.1053 29.48ZM39.0053 35.42C38.8453 35.4067 38.712 35.34 38.6053 35.22C38.4986 35.0933 38.4453 34.9467 38.4453 34.78V28.72C38.4453 28.5533 38.4986 28.41 38.6053 28.29C38.712 28.1633 38.8453 28.0933 39.0053 28.08C39.5253 28.0267 40.0386 28 40.5453 28C41.7386 28 42.6586 28.3167 43.3053 28.95C43.952 29.5833 44.2753 30.4833 44.2753 31.65C44.2753 32.9167 43.952 33.8767 43.3053 34.53C42.6586 35.1767 41.7386 35.5 40.5453 35.5C40.0386 35.5 39.5253 35.4733 39.0053 35.42Z" fill="#504323"/>
<path d="M32.2575 35.4016C32.1042 35.4016 31.9708 35.3449 31.8575 35.2316C31.7442 35.1182 31.6875 34.9849 31.6875 34.8316V28.6716C31.6875 28.5182 31.7442 28.3849 31.8575 28.2716C31.9708 28.1582 32.1042 28.1016 32.2575 28.1016H32.7475C33.1275 28.1016 33.4042 28.2682 33.5775 28.6016L35.6775 32.5716C35.6775 32.5782 35.6808 32.5816 35.6875 32.5816C35.6942 32.5816 35.6975 32.5782 35.6975 32.5716V28.6716C35.6975 28.5182 35.7542 28.3849 35.8675 28.2716C35.9808 28.1582 36.1142 28.1016 36.2675 28.1016H36.7575C36.9108 28.1016 37.0442 28.1582 37.1575 28.2716C37.2708 28.3849 37.3275 28.5182 37.3275 28.6716V34.8316C37.3275 34.9849 37.2708 35.1182 37.1575 35.2316C37.0442 35.3449 36.9108 35.4016 36.7575 35.4016H36.2675C35.8875 35.4016 35.6108 35.2349 35.4375 34.9016L33.3375 30.9316C33.3375 30.9249 33.3342 30.9216 33.3275 30.9216C33.3208 30.9216 33.3175 30.9249 33.3175 30.9316V34.8316C33.3175 34.9849 33.2608 35.1182 33.1475 35.2316C33.0342 35.3449 32.9008 35.4016 32.7475 35.4016H32.2575Z" fill="#504323"/>
<path d="M26.56 35.4016C26.4067 35.4016 26.2733 35.3449 26.16 35.2316C26.0533 35.1182 26 34.9849 26 34.8316V28.6716C26 28.5182 26.0533 28.3849 26.16 28.2716C26.2733 28.1582 26.4067 28.1016 26.56 28.1016H30.1C30.2533 28.1016 30.3833 28.1582 30.49 28.2716C30.6033 28.3849 30.66 28.5182 30.66 28.6716V28.9016C30.66 29.0549 30.6033 29.1882 30.49 29.3016C30.3833 29.4149 30.2533 29.4716 30.1 29.4716H27.78C27.7267 29.4716 27.7 29.4982 27.7 29.5516V30.8716C27.7 30.9316 27.7267 30.9616 27.78 30.9616H29.9C30.0533 30.9616 30.1833 31.0182 30.29 31.1316C30.4033 31.2449 30.46 31.3782 30.46 31.5316V31.6816C30.46 31.8349 30.4033 31.9682 30.29 32.0816C30.1833 32.1949 30.0533 32.2516 29.9 32.2516H27.78C27.7267 32.2516 27.7 32.2782 27.7 32.3316V33.9516C27.7 34.0049 27.7267 34.0316 27.78 34.0316H30.1C30.2533 34.0316 30.3833 34.0882 30.49 34.2016C30.6033 34.3149 30.66 34.4482 30.66 34.6016V34.8316C30.66 34.9849 30.6033 35.1182 30.49 35.2316C30.3833 35.3449 30.2533 35.4016 30.1 35.4016H26.56Z" fill="#504323"/>
</svg>
