<svg width="48" height="48" viewBox="0 0 48 48" fill="none" xmlns="http://www.w3.org/2000/svg">
<path fill-rule="evenodd" clip-rule="evenodd" d="M13.2777 9.5207C13.0447 9.57187 12.8377 9.70463 12.694 9.89502L5 20.09L10.6593 25L12.7231 22.2137L12.7231 40H35.948L35.9431 22.2178L37.3407 24.91L43 20L36.171 9.93591C36.0248 9.72051 35.8004 9.57059 35.5455 9.51801L28.1842 8C28.1842 9.76732 26.4737 11.2 24.3355 11.2C22.1974 11.2 20.2 9.76732 20.2 8L13.2777 9.5207Z" fill="#E4DDCD"/>
<path d="M39.4531 29.6966L38.5701 30.5338C37.5231 31.5266 35.8565 31.4339 34.926 30.3311C34.016 29.2526 32.3959 29.1363 31.3413 30.0738L30.4531 30.8633" stroke="#7E796E" stroke-width="2" stroke-linecap="round"/>
<path d="M39.4531 35.2161L38.5701 36.0534C37.5231 37.0461 35.8565 36.9534 34.926 35.8506C34.016 34.7721 32.3959 34.6559 31.3413 35.5934L30.4531 36.3828" stroke="#7E796E" stroke-width="2" stroke-linecap="round"/>
</svg>
