<svg width="48" height="48" viewBox="0 0 48 48" fill="none" xmlns="http://www.w3.org/2000/svg">
<path fill-rule="evenodd" clip-rule="evenodd" d="M13.2777 9.5207C13.0447 9.57187 12.8377 9.70463 12.694 9.89502L5 20.09L10.6593 25L12.7231 22.2137L12.7231 40H35.948L35.9431 22.2178L37.3407 24.91L43 20L36.171 9.93591C36.0248 9.72051 35.8004 9.57059 35.5455 9.51801L28.1842 8C28.1842 9.76732 26.4737 11.2 24.3355 11.2C22.1974 11.2 20.2 9.76732 20.2 8L13.2777 9.5207Z" fill="#E4DDCD"/>
<path d="M27.4207 24.9988C27.252 24.9988 27.1054 24.9364 26.9807 24.8117C26.8634 24.6871 26.8047 24.5404 26.8047 24.3718V17.5957C26.8047 17.4271 26.8634 17.2804 26.9807 17.1557C27.1054 17.0311 27.252 16.9688 27.4207 16.9688H28.2347C28.4034 16.9688 28.5464 17.0311 28.6637 17.1557C28.7884 17.2804 28.8507 17.4271 28.8507 17.5957V24.3718C28.8507 24.5404 28.7884 24.6871 28.6637 24.8117C28.5464 24.9364 28.4034 24.9988 28.2347 24.9988H27.4207Z" fill="#504323"/>
<path d="M22.5506 18.5968L21.7476 21.7537C21.7403 21.7757 21.744 21.7977 21.7586 21.8198C21.7806 21.8344 21.8026 21.8418 21.8246 21.8418H23.2986C23.3206 21.8418 23.339 21.8344 23.3536 21.8198C23.3756 21.7977 23.383 21.7757 23.3756 21.7537L22.5726 18.5968C22.5726 18.5894 22.569 18.5858 22.5616 18.5858C22.5543 18.5858 22.5506 18.5894 22.5506 18.5968ZM19.6136 24.9988C19.4596 24.9988 19.335 24.9364 19.2396 24.8117C19.1516 24.6871 19.1333 24.5514 19.1846 24.4048L21.4066 17.5627C21.4653 17.3867 21.568 17.2437 21.7146 17.1337C21.8686 17.0238 22.0373 16.9688 22.2206 16.9688H22.9466C23.1373 16.9688 23.3096 17.0238 23.4636 17.1337C23.6176 17.2437 23.7203 17.3867 23.7716 17.5627L25.9826 24.4048C26.034 24.5514 26.012 24.6871 25.9166 24.8117C25.8286 24.9364 25.7076 24.9988 25.5536 24.9988H24.8166C24.6333 24.9988 24.4683 24.9438 24.3216 24.8338C24.175 24.7164 24.0796 24.5697 24.0356 24.3937L23.7716 23.3488C23.7643 23.2901 23.7276 23.2608 23.6616 23.2608H21.4616C21.403 23.2608 21.3663 23.2901 21.3516 23.3488L21.0876 24.3937C21.0436 24.5697 20.9483 24.7164 20.8016 24.8338C20.655 24.9438 20.49 24.9988 20.3066 24.9988H19.6136Z" fill="#504323"/>
<path d="M39.4531 29.6966L38.5701 30.5338C37.5231 31.5266 35.8565 31.4339 34.926 30.3311C34.016 29.2526 32.3959 29.1363 31.3413 30.0738L30.4531 30.8633" stroke="#7E796E" stroke-width="2" stroke-linecap="round"/>
<path d="M39.4531 35.2161L38.5701 36.0534C37.5231 37.0461 35.8565 36.9534 34.926 35.8506C34.016 34.7721 32.3959 34.6559 31.3413 35.5934L30.4531 36.3828" stroke="#7E796E" stroke-width="2" stroke-linecap="round"/>
</svg>
