<svg width="48" height="48" viewBox="0 0 48 48" fill="none" xmlns="http://www.w3.org/2000/svg">
<path d="M13.1055 38.3374C15.1366 39.8818 17.4726 40.9754 19.9583 41.5457C22.4439 42.1159 25.0223 42.1498 27.522 41.6449C30.0216 41.14 32.3854 40.108 34.4563 38.6174C36.5271 37.1268 38.2575 35.2119 39.5325 32.9997M12.9712 40.8069L12.5586 37.8761L15.3596 37.3963M17.0063 7.40422C14.6556 8.39407 12.542 9.87374 10.8062 11.7449C9.07035 13.6161 7.75195 15.8359 6.9386 18.2568C6.12525 20.6777 5.83559 23.2443 6.08885 25.786C6.34212 28.3278 7.13252 30.7864 8.40752 32.9985M14.9385 6.05313L17.6785 7.16059L16.6928 9.83031M41.798 26.2566C42.1176 23.7224 41.8951 21.1491 41.1453 18.7076C40.3955 16.2662 39.1356 14.0126 37.4492 12.0966C35.7629 10.1805 33.6888 8.64594 31.3647 7.59479C29.0406 6.54364 26.5198 6 23.9698 6M44 25.1383L41.6725 26.9616L39.8572 24.7717" stroke="#7E796E" stroke-width="2" stroke-linecap="round" stroke-linejoin="round"/>
<path fill-rule="evenodd" clip-rule="evenodd" d="M16.7749 13.9955C16.5436 14.0452 16.3374 14.1754 16.1931 14.3628L11 21.1045L14.8722 24.3958L16.2842 22.5281C16.1254 26.4924 15.6807 28.7569 14.4358 32.1595C14.2441 32.6834 14.5074 33.2693 15.0359 33.4482C19.9044 35.0966 24.026 35.3787 28.9388 34.5455C29.2727 34.4888 29.5531 34.2615 29.6806 33.9478C31.3804 29.766 31.9031 27.182 32.1716 22.5308L33.1278 24.3355L37 21.0441L32.4009 14.4036C32.2537 14.1912 32.0301 14.044 31.7768 13.9928L26.8629 13C26.8629 14.1847 25.6926 15.1451 24.2296 15.1451C22.7666 15.1451 21.4 14.1847 21.4 13L16.7749 13.9955Z" fill="#E4DDCD"/>
<path d="M29.1156 25.3356C29.2266 24.9498 29.7734 24.9498 29.8844 25.3356L30.3955 27.1114C30.4272 27.2215 30.5046 27.3128 30.608 27.362L32.2408 28.1388C32.545 28.2835 32.545 28.7165 32.2408 28.8612L30.608 29.638C30.5046 29.6872 30.4272 29.7785 30.3955 29.8886L29.8844 31.6644C29.7734 32.0502 29.2266 32.0502 29.1156 31.6644L28.6045 29.8886C28.5728 29.7785 28.4954 29.6872 28.392 29.638L26.7592 28.8612C26.455 28.7165 26.455 28.2835 26.7592 28.1388L28.392 27.362C28.4954 27.3128 28.5728 27.2215 28.6045 27.1114L29.1156 25.3356Z" fill="#7E796E"/>
<path d="M32.1133 31.4631C32.2182 31.0661 32.7818 31.0661 32.8867 31.4631L33.1299 32.3833C33.1588 32.4924 33.2324 32.5843 33.3326 32.6362L34.3144 33.1448C34.6024 33.294 34.6024 33.706 34.3144 33.8552L33.3326 34.3638C33.2324 34.4157 33.1588 34.5076 33.1299 34.6167L32.8867 35.5369C32.7818 35.9339 32.2182 35.9339 32.1133 35.5369L31.8701 34.6167C31.8412 34.5076 31.7676 34.4157 31.6674 34.3638L30.6856 33.8552C30.3976 33.706 30.3976 33.294 30.6856 33.1448L31.6674 32.6362C31.7676 32.5843 31.8412 32.4924 31.8701 32.3833L32.1133 31.4631Z" fill="#7E796E"/>
<path d="M26.7087 32.1807C26.7838 31.8765 27.2162 31.8765 27.2913 32.1807L27.5089 33.0627C27.5288 33.1437 27.5816 33.2127 27.6545 33.2532L28.5274 33.7377C28.7333 33.852 28.7333 34.148 28.5274 34.2623L27.6545 34.7468C27.5816 34.7873 27.5288 34.8563 27.5089 34.9373L27.2913 35.8193C27.2162 36.1235 26.7838 36.1235 26.7087 35.8193L26.4911 34.9373C26.4712 34.8563 26.4184 34.7873 26.3455 34.7468L25.4726 34.2623C25.2667 34.148 25.2667 33.852 25.4726 33.7377L26.3455 33.2532C26.4184 33.2127 26.4712 33.1437 26.4911 33.0627L26.7087 32.1807Z" fill="#7E796E"/>
</svg>
