<svg width="32" height="32" viewBox="0 0 32 32" fill="none" xmlns="http://www.w3.org/2000/svg">
<g clip-path="url(#clip0_2492_77063)">
<path opacity="0.5" d="M16 32C24.8366 32 32 24.8366 32 16C32 7.16344 24.8366 0 16 0C7.16344 0 0 7.16344 0 16C0 24.8366 7.16344 32 16 32Z" fill="black"/>
<path d="M16.0018 31.3864C24.4985 31.3864 31.3864 24.4985 31.3864 16.0018C31.3864 7.50511 24.4985 0.617188 16.0018 0.617188C7.50511 0.617188 0.617188 7.50511 0.617188 16.0018C0.617188 24.4985 7.50511 31.3864 16.0018 31.3864Z" stroke="white" stroke-width="1.23077"/>
<path d="M18.6719 13.5078L23.1679 18.0038" stroke="white" stroke-width="1.23077" stroke-linecap="round" stroke-linejoin="round"/>
<path d="M23.1679 13.5078L18.6719 18.0038" stroke="white" stroke-width="1.23077" stroke-linecap="round" stroke-linejoin="round"/>
<path d="M15.8923 21.9251L12.3397 18.1319H9.41108C9.30243 18.132 9.19815 18.0891 9.12109 18.0125C9.04403 17.9359 9.00049 17.8319 9 17.7233V14.2722C9.00016 14.2184 9.01093 14.1652 9.03168 14.1155C9.05243 14.0659 9.08277 14.0209 9.12095 13.983C9.15913 13.9451 9.20441 13.9151 9.25419 13.8947C9.30397 13.8743 9.35728 13.8639 9.41108 13.8642H12.1188L15.8812 9.63096C15.9762 9.55885 16.0893 9.51455 16.208 9.50302C16.3266 9.49148 16.4462 9.51316 16.5532 9.56564C16.6603 9.61811 16.7506 9.69931 16.8142 9.80018C16.8778 9.90104 16.9121 10.0176 16.9132 10.1368V21.4088C16.9124 21.5268 16.879 21.6422 16.8169 21.7425C16.7547 21.8428 16.6661 21.924 16.5609 21.9773C16.4556 22.0305 16.3377 22.0538 16.2201 22.0445C16.1025 22.0352 15.9897 21.9937 15.8942 21.9245L15.8923 21.9251Z" fill="white"/>
</g>
<defs>
<clipPath id="clip0_2492_77063">
<rect width="32" height="32" fill="white"/>
</clipPath>
</defs>
</svg>
