<svg width="48" height="48" viewBox="0 0 48 48" fill="none" xmlns="http://www.w3.org/2000/svg">
<rect x="6" y="7.00391" width="36" height="26" rx="1" fill="#E4DDCD"/>
<mask id="path-2-inside-1_2512_77996" fill="white">
<rect x="11" y="37.0039" width="26" height="4" rx="1"/>
</mask>
<rect x="11" y="37.0039" width="26" height="4" rx="1" stroke="#E4DDCD" stroke-width="4" mask="url(#path-2-inside-1_2512_77996)"/>
<rect x="22" y="37.0039" width="4" height="4" transform="rotate(-90 22 37.0039)" fill="#E4DDCD"/>
<path d="M24.9203 25.0022C24.7363 25.0022 24.5763 24.9342 24.4403 24.7982C24.3043 24.6622 24.2363 24.5022 24.2363 24.3182V16.9262C24.2363 16.7422 24.3043 16.5822 24.4403 16.4462C24.5763 16.3102 24.7363 16.2422 24.9203 16.2422H25.6043C25.7883 16.2422 25.9443 16.3102 26.0723 16.4462C26.2083 16.5822 26.2763 16.7422 26.2763 16.9262V19.9862C26.2763 19.9942 26.2803 19.9982 26.2883 19.9982C26.3043 19.9982 26.3123 19.9942 26.3123 19.9862L28.3523 16.8182C28.5923 16.4342 28.9403 16.2422 29.3963 16.2422H30.4043C30.5483 16.2422 30.6523 16.3062 30.7163 16.4342C30.7803 16.5622 30.7723 16.6862 30.6923 16.8062L28.2563 20.3582C28.2163 20.4142 28.2163 20.4702 28.2563 20.5262L30.8243 24.4382C30.9043 24.5582 30.9083 24.6822 30.8363 24.8102C30.7723 24.9382 30.6683 25.0022 30.5243 25.0022H29.5163C29.0603 25.0022 28.7163 24.8102 28.4843 24.4262L26.3123 20.8982C26.3123 20.8902 26.3043 20.8862 26.2883 20.8862C26.2803 20.8862 26.2763 20.8902 26.2763 20.8982V24.3182C26.2763 24.5022 26.2083 24.6622 26.0723 24.7982C25.9443 24.9342 25.7883 25.0022 25.6043 25.0022H24.9203Z" fill="#504323"/>
<path d="M17.9436 21.7022V21.7142C17.9436 21.7222 17.9476 21.7262 17.9556 21.7262H19.9356C20.0076 21.7262 20.0436 21.6942 20.0436 21.6302V18.7262C20.0436 18.7182 20.0396 18.7142 20.0316 18.7142C20.0156 18.7142 20.0076 18.7182 20.0076 18.7262L17.9436 21.7022ZM16.8156 23.3222C16.6316 23.3222 16.4716 23.2542 16.3356 23.1182C16.2076 22.9822 16.1436 22.8222 16.1436 22.6382V22.4102C16.1436 21.9622 16.2756 21.5502 16.5396 21.1742L19.6476 16.7942C19.9116 16.4262 20.2676 16.2422 20.7156 16.2422H21.3156C21.4996 16.2422 21.6556 16.3102 21.7836 16.4462C21.9196 16.5822 21.9876 16.7422 21.9876 16.9262V21.6302C21.9876 21.6942 22.0236 21.7262 22.0956 21.7262H22.5756C22.7596 21.7262 22.9196 21.7942 23.0556 21.9302C23.1916 22.0662 23.2596 22.2262 23.2596 22.4102V22.6382C23.2596 22.8222 23.1916 22.9822 23.0556 23.1182C22.9196 23.2542 22.7596 23.3222 22.5756 23.3222H22.0956C22.0236 23.3222 21.9876 23.3582 21.9876 23.4302V24.3182C21.9876 24.5022 21.9196 24.6622 21.7836 24.7982C21.6556 24.9342 21.4996 25.0022 21.3156 25.0022H20.7156C20.5316 25.0022 20.3716 24.9342 20.2356 24.7982C20.1076 24.6622 20.0436 24.5022 20.0436 24.3182V23.4302C20.0436 23.3582 20.0076 23.3222 19.9356 23.3222H16.8156Z" fill="#504323"/>
<path d="M31.3915 10.9612C32.6825 11.0289 33.9189 11.5035 34.9235 12.317C35.9281 13.1305 36.6494 14.2412 36.984 15.4899" stroke="#7E796E" stroke-width="2" stroke-linecap="round"/>
<path d="M30.7879 13.5955C31.5429 13.6377 32.2703 13.8938 32.8852 14.334C33.5001 14.7742 33.977 15.3803 34.2603 16.0814" stroke="#7E796E" stroke-width="2" stroke-linecap="round"/>
</svg>
