<svg width="48" height="48" viewBox="0 0 48 48" fill="none" xmlns="http://www.w3.org/2000/svg">
<rect x="6" y="7" width="36" height="26" rx="1" fill="#E4DDCD"/>
<mask id="path-2-inside-1_2233_71639" fill="white">
<rect x="11" y="37" width="26" height="4" rx="1"/>
</mask>
<rect x="11" y="37" width="26" height="4" rx="1" stroke="#E4DDCD" stroke-width="4" mask="url(#path-2-inside-1_2233_71639)"/>
<rect x="22" y="37" width="4" height="4" transform="rotate(-90 22 37)" fill="#E4DDCD"/>
<path d="M33.6815 13.2213V18.6693C33.6815 18.7413 33.7175 18.7853 33.7895 18.8013C33.9495 18.8333 34.1415 18.8493 34.3655 18.8493C35.1735 18.8493 35.7695 18.6133 36.1535 18.1413C36.5455 17.6693 36.7415 16.8973 36.7415 15.8253C36.7415 14.8653 36.5455 14.1613 36.1535 13.7133C35.7615 13.2653 35.1655 13.0413 34.3655 13.0413C34.1415 13.0413 33.9495 13.0573 33.7895 13.0893C33.7175 13.1053 33.6815 13.1493 33.6815 13.2213ZM32.3615 20.3493C32.1695 20.3333 32.0095 20.2533 31.8815 20.1093C31.7535 19.9573 31.6895 19.7813 31.6895 19.5813V12.3093C31.6895 12.1093 31.7535 11.9373 31.8815 11.7933C32.0095 11.6413 32.1695 11.5573 32.3615 11.5413C32.9855 11.4773 33.6015 11.4453 34.2095 11.4453C35.6415 11.4453 36.7455 11.8253 37.5215 12.5853C38.2975 13.3453 38.6855 14.4253 38.6855 15.8253C38.6855 17.3453 38.2975 18.4973 37.5215 19.2813C36.7455 20.0573 35.6415 20.4453 34.2095 20.4453C33.6015 20.4453 32.9855 20.4133 32.3615 20.3493Z" fill="#504323"/>
<path d="M25.7809 20.3264C25.5969 20.3264 25.4369 20.2584 25.3009 20.1224C25.1729 19.9864 25.1089 19.8264 25.1089 19.6424V12.2504C25.1089 12.0664 25.1729 11.9064 25.3009 11.7704C25.4369 11.6344 25.5969 11.5664 25.7809 11.5664H30.0289C30.2129 11.5664 30.3689 11.6344 30.4969 11.7704C30.6329 11.9064 30.7009 12.0664 30.7009 12.2504V12.5264C30.7009 12.7104 30.6329 12.8704 30.4969 13.0064C30.3689 13.1424 30.2129 13.2104 30.0289 13.2104H27.2449C27.1809 13.2104 27.1489 13.2424 27.1489 13.3064V14.8904C27.1489 14.9624 27.1809 14.9984 27.2449 14.9984H29.7889C29.9729 14.9984 30.1289 15.0664 30.2569 15.2024C30.3929 15.3384 30.4609 15.4984 30.4609 15.6824V15.8624C30.4609 16.0464 30.3929 16.2064 30.2569 16.3424C30.1289 16.4784 29.9729 16.5464 29.7889 16.5464H27.2449C27.1809 16.5464 27.1489 16.5784 27.1489 16.6424V18.5864C27.1489 18.6504 27.1809 18.6824 27.2449 18.6824H30.0289C30.2129 18.6824 30.3689 18.7504 30.4969 18.8864C30.6329 19.0224 30.7009 19.1824 30.7009 19.3664V19.6424C30.7009 19.8264 30.6329 19.9864 30.4969 20.1224C30.3689 20.2584 30.2129 20.3264 30.0289 20.3264H25.7809Z" fill="#504323"/>
<path d="M17.9228 20.3264C17.7388 20.3264 17.5788 20.2584 17.4428 20.1224C17.3068 19.9864 17.2388 19.8264 17.2388 19.6424V12.2504C17.2388 12.0664 17.3068 11.9064 17.4428 11.7704C17.5788 11.6344 17.7388 11.5664 17.9228 11.5664H18.5108C18.9668 11.5664 19.2988 11.7664 19.5068 12.1664L22.0268 16.9304C22.0268 16.9384 22.0308 16.9424 22.0388 16.9424C22.0468 16.9424 22.0508 16.9384 22.0508 16.9304V12.2504C22.0508 12.0664 22.1188 11.9064 22.2548 11.7704C22.3908 11.6344 22.5508 11.5664 22.7348 11.5664H23.3228C23.5068 11.5664 23.6668 11.6344 23.8028 11.7704C23.9388 11.9064 24.0068 12.0664 24.0068 12.2504V19.6424C24.0068 19.8264 23.9388 19.9864 23.8028 20.1224C23.6668 20.2584 23.5068 20.3264 23.3228 20.3264H22.7348C22.2788 20.3264 21.9468 20.1264 21.7388 19.7264L19.2188 14.9624C19.2188 14.9544 19.2148 14.9504 19.2068 14.9504C19.1988 14.9504 19.1948 14.9544 19.1948 14.9624V19.6424C19.1948 19.8264 19.1268 19.9864 18.9908 20.1224C18.8548 20.2584 18.6948 20.3264 18.5108 20.3264H17.9228Z" fill="#504323"/>
<path d="M12.4641 13.1253C11.1281 13.1253 10.4601 14.0653 10.4601 15.9453C10.4601 17.8253 11.1281 18.7653 12.4641 18.7653C13.8081 18.7653 14.4801 17.8253 14.4801 15.9453C14.4801 14.0653 13.8081 13.1253 12.4641 13.1253ZM12.4641 20.4453C11.2001 20.4453 10.2001 20.0493 9.46407 19.2573C8.73607 18.4573 8.37207 17.3533 8.37207 15.9453C8.37207 14.5373 8.73607 13.4373 9.46407 12.6453C10.2001 11.8453 11.2001 11.4453 12.4641 11.4453C13.7281 11.4453 14.7281 11.8453 15.4641 12.6453C16.2001 13.4373 16.5681 14.5373 16.5681 15.9453C16.5681 16.7693 16.4201 17.5013 16.1241 18.1413C15.8281 18.7733 15.4121 19.2813 14.8761 19.6653C14.8681 19.6653 14.8641 19.6733 14.8641 19.6893C14.8641 19.6973 14.8721 19.7013 14.8881 19.7013C15.7681 20.1013 16.5201 20.7213 17.1441 21.5613C17.2321 21.6813 17.2401 21.8053 17.1681 21.9333C17.0961 22.0613 16.9841 22.1253 16.8321 22.1253H15.9921C15.5521 22.1253 15.2081 21.9333 14.9601 21.5493C14.6481 21.0853 14.3321 20.7853 14.0121 20.6493C13.7001 20.5133 13.1841 20.4453 12.4641 20.4453Z" fill="#504323"/>
<path d="M31.0511 29.3281C30.9131 29.3281 30.7931 29.2771 30.6911 29.1751C30.5891 29.0731 30.5381 28.9531 30.5381 28.8151V25.1611C30.5381 25.0231 30.5891 24.9031 30.6911 24.8011C30.7931 24.6991 30.9131 24.6481 31.0511 24.6481H31.5551C31.6931 24.6481 31.8131 24.6991 31.9151 24.8011C32.0171 24.9031 32.0681 25.0231 32.0681 25.1611V28.8151C32.0681 28.9531 32.0171 29.0731 31.9151 29.1751C31.8131 29.2771 31.6931 29.3281 31.5551 29.3281H31.0511ZM31.0511 23.7481C30.9131 23.7481 30.7931 23.6971 30.6911 23.5951C30.5891 23.4931 30.5381 23.3731 30.5381 23.2351V23.0911C30.5381 22.9531 30.5891 22.8331 30.6911 22.7311C30.7931 22.6291 30.9131 22.5781 31.0511 22.5781H31.5551C31.6931 22.5781 31.8131 22.6291 31.9151 22.7311C32.0171 22.8331 32.0681 22.9531 32.0681 23.0911V23.2351C32.0681 23.3731 32.0171 23.4931 31.9151 23.5951C31.8131 23.6971 31.6931 23.7481 31.5551 23.7481H31.0511Z" fill="#504323"/>
<path d="M25.8375 29.3286C25.6995 29.3286 25.5795 29.2776 25.4775 29.1756C25.3815 29.0736 25.3335 28.9536 25.3335 28.8156V25.1616C25.3335 25.0236 25.3815 24.9036 25.4775 24.8016C25.5795 24.6996 25.6995 24.6486 25.8375 24.6486H26.2065C26.3505 24.6486 26.4705 24.6996 26.5665 24.8016C26.6685 24.8976 26.7225 25.0176 26.7285 25.1616L26.7375 25.2336C26.7375 25.2396 26.7405 25.2426 26.7465 25.2426L26.7645 25.2246C27.1545 24.7806 27.6225 24.5586 28.1685 24.5586C28.7145 24.5586 29.1075 24.7146 29.3475 25.0266C29.5875 25.3326 29.7075 25.8576 29.7075 26.6016V28.8156C29.7075 28.9536 29.6565 29.0736 29.5545 29.1756C29.4585 29.2776 29.3415 29.3286 29.2035 29.3286H28.8075C28.6695 29.3286 28.5495 29.2776 28.4475 29.1756C28.3455 29.0736 28.2945 28.9536 28.2945 28.8156V26.6466C28.2945 26.2866 28.2465 26.0406 28.1505 25.9086C28.0545 25.7706 27.8805 25.7016 27.6285 25.7016C27.4185 25.7016 27.2235 25.7886 27.0435 25.9626C26.8695 26.1306 26.7825 26.3136 26.7825 26.5116V28.8156C26.7825 28.9536 26.7315 29.0736 26.6295 29.1756C26.5335 29.2776 26.4165 29.3286 26.2785 29.3286H25.8375Z" fill="#504323"/>
<path d="M23.4471 29.3281C23.3091 29.3281 23.1891 29.2771 23.0871 29.1751C22.9851 29.0731 22.9341 28.9531 22.9341 28.8151V25.1611C22.9341 25.0231 22.9851 24.9031 23.0871 24.8011C23.1891 24.6991 23.3091 24.6481 23.4471 24.6481H23.9511C24.0891 24.6481 24.2091 24.6991 24.3111 24.8011C24.4131 24.9031 24.4641 25.0231 24.4641 25.1611V28.8151C24.4641 28.9531 24.4131 29.0731 24.3111 29.1751C24.2091 29.2771 24.0891 29.3281 23.9511 29.3281H23.4471ZM23.4471 23.7481C23.3091 23.7481 23.1891 23.6971 23.0871 23.5951C22.9851 23.4931 22.9341 23.3731 22.9341 23.2351V23.0911C22.9341 22.9531 22.9851 22.8331 23.0871 22.7311C23.1891 22.6291 23.3091 22.5781 23.4471 22.5781H23.9511C24.0891 22.5781 24.2091 22.6291 24.3111 22.7311C24.4131 22.8331 24.4641 22.9531 24.4641 23.0911V23.2351C24.4641 23.3731 24.4131 23.4931 24.3111 23.5951C24.2091 23.6971 24.0891 23.7481 23.9511 23.7481H23.4471Z" fill="#504323"/>
<path d="M16.1072 29.3286C15.9692 29.3286 15.8492 29.2776 15.7472 29.1756C15.6452 29.0736 15.5942 28.9536 15.5942 28.8156V25.1616C15.5942 25.0236 15.6452 24.9036 15.7472 24.8016C15.8492 24.6996 15.9692 24.6486 16.1072 24.6486H16.4402C16.5842 24.6486 16.7042 24.6996 16.8002 24.8016C16.9022 24.8976 16.9592 25.0176 16.9712 25.1616L16.9802 25.2426C16.9802 25.2486 16.9832 25.2516 16.9892 25.2516C17.0012 25.2516 17.0072 25.2486 17.0072 25.2426C17.3612 24.7866 17.7662 24.5586 18.2222 24.5586C18.4982 24.5586 18.7172 24.6096 18.8792 24.7116C19.0412 24.8076 19.1912 24.9816 19.3292 25.2336C19.3292 25.2456 19.3352 25.2516 19.3472 25.2516L19.3652 25.2336C19.7792 24.7836 20.2112 24.5586 20.6612 24.5586C21.1712 24.5586 21.5402 24.6966 21.7682 24.9726C21.9962 25.2426 22.1102 25.7046 22.1102 26.3586V28.8156C22.1102 28.9536 22.0592 29.0736 21.9572 29.1756C21.8552 29.2776 21.7352 29.3286 21.5972 29.3286H21.2012C21.0632 29.3286 20.9432 29.2776 20.8412 29.1756C20.7392 29.0736 20.6882 28.9536 20.6882 28.8156V26.4486C20.6882 26.1246 20.6522 25.9116 20.5802 25.8096C20.5082 25.7016 20.3732 25.6476 20.1752 25.6476C20.0372 25.6476 19.9022 25.7046 19.7702 25.8186C19.6442 25.9326 19.5812 26.0436 19.5812 26.1516V28.8156C19.5812 28.9536 19.5302 29.0736 19.4282 29.1756C19.3262 29.2776 19.2062 29.3286 19.0682 29.3286H18.6722C18.5342 29.3286 18.4142 29.2776 18.3122 29.1756C18.2102 29.0736 18.1592 28.9536 18.1592 28.8156V26.4486C18.1592 26.1246 18.1232 25.9116 18.0512 25.8096C17.9852 25.7016 17.8532 25.6476 17.6552 25.6476C17.5172 25.6476 17.3822 25.7046 17.2502 25.8186C17.1182 25.9326 17.0522 26.0436 17.0522 26.1516V28.8156C17.0522 28.9536 17.0012 29.0736 16.8992 29.1756C16.7972 29.2776 16.6772 29.3286 16.5392 29.3286H16.1072Z" fill="#504323"/>
</svg>
