<svg width="48" height="48" viewBox="0 0 48 48" fill="none" xmlns="http://www.w3.org/2000/svg">
<rect x="6" y="7" width="36" height="26" rx="1" fill="#E4DDCD"/>
<mask id="path-2-inside-1_2512_78086" fill="white">
<rect x="11" y="37" width="26" height="4" rx="1"/>
</mask>
<rect x="11" y="37" width="26" height="4" rx="1" stroke="#E4DDCD" stroke-width="4" mask="url(#path-2-inside-1_2512_78086)"/>
<rect x="22" y="37" width="4" height="4" transform="rotate(-90 22 37)" fill="#E4DDCD"/>
<path d="M10 26.1481H17L20.5 22L24 26.1481L27.5 30L31 26.1481H38" stroke="#7E796E" stroke-width="2" stroke-linecap="round" stroke-linejoin="round"/>
<path d="M22.4689 19.3616C22.3089 19.3282 22.1756 19.2449 22.0689 19.1116C21.9689 18.9782 21.9189 18.8249 21.9189 18.6516V18.3416C21.9189 18.2016 21.9756 18.0916 22.0889 18.0116C22.2023 17.9316 22.3256 17.9082 22.4589 17.9416C22.9989 18.0816 23.4289 18.1516 23.7489 18.1516C24.7289 18.1516 25.2189 17.7416 25.2189 16.9216C25.2189 16.2549 24.8856 15.9216 24.2189 15.9216C24.0656 15.9216 23.9323 15.9449 23.8189 15.9916C23.7789 16.0049 23.6956 16.0382 23.5689 16.0916C23.4489 16.1382 23.3556 16.1749 23.2889 16.2016C23.2289 16.2216 23.1489 16.2449 23.0489 16.2716C22.9556 16.2916 22.8656 16.3016 22.7789 16.3016H22.4689C22.3156 16.3016 22.1856 16.2449 22.0789 16.1316C21.9723 16.0182 21.9223 15.8849 21.9289 15.7316L22.0689 12.6716C22.0823 12.5116 22.1456 12.3782 22.2589 12.2716C22.3723 12.1582 22.5089 12.1016 22.6689 12.1016H25.9789C26.1323 12.1016 26.2656 12.1582 26.3789 12.2716C26.4923 12.3849 26.5489 12.5182 26.5489 12.6716V12.9016C26.5489 13.0549 26.4923 13.1882 26.3789 13.3016C26.2656 13.4149 26.1323 13.4716 25.9789 13.4716H23.7189C23.6589 13.4716 23.6289 13.4982 23.6289 13.5516L23.5689 14.8216C23.5689 14.8282 23.5723 14.8316 23.5789 14.8316H23.5989C23.9189 14.6982 24.2356 14.6316 24.5489 14.6316C25.2956 14.6316 25.8689 14.8316 26.2689 15.2316C26.6756 15.6249 26.8789 16.1882 26.8789 16.9216C26.8789 18.6416 25.8589 19.5016 23.8189 19.5016C23.3723 19.5016 22.9223 19.4549 22.4689 19.3616Z" fill="#504323"/>
<path d="M18.8054 15.64C18.4454 15.64 18.1587 15.7567 17.9454 15.99C17.732 16.2167 17.6254 16.53 17.6254 16.93C17.6254 17.35 17.732 17.68 17.9454 17.92C18.1654 18.1533 18.452 18.27 18.8054 18.27C19.1787 18.27 19.4687 18.1567 19.6754 17.93C19.882 17.6967 19.9854 17.3633 19.9854 16.93C19.9854 16.5167 19.8787 16.2 19.6654 15.98C19.4587 15.7533 19.172 15.64 18.8054 15.64ZM18.8054 19.5C17.9054 19.5 17.2087 19.2267 16.7154 18.68C16.2287 18.1267 15.9854 17.3 15.9854 16.2C15.9854 14.8 16.2687 13.75 16.8354 13.05C17.402 12.35 18.2087 12 19.2554 12C19.622 12 19.962 12.0267 20.2754 12.08C20.4354 12.1067 20.5654 12.1867 20.6654 12.32C20.772 12.4533 20.8254 12.6033 20.8254 12.77V12.95C20.8254 13.09 20.7687 13.2 20.6554 13.28C20.5487 13.36 20.4254 13.3833 20.2854 13.35C19.932 13.27 19.6087 13.23 19.3154 13.23C18.8487 13.23 18.4687 13.3767 18.1754 13.67C17.8887 13.9567 17.712 14.3733 17.6454 14.92C17.6454 14.9267 17.6487 14.93 17.6554 14.93H17.6654C18.0387 14.6433 18.5354 14.5 19.1554 14.5C19.942 14.5 20.5487 14.7067 20.9754 15.12C21.402 15.5333 21.6154 16.1267 21.6154 16.9C21.6154 17.7133 21.3654 18.35 20.8654 18.81C20.3654 19.27 19.6787 19.5 18.8054 19.5Z" fill="#504323"/>
<path d="M11.451 15.0316C11.3576 15.1049 11.2576 15.1149 11.151 15.0616C11.051 15.0082 11.001 14.9216 11.001 14.8016V14.0716C11.001 13.6916 11.1543 13.3916 11.461 13.1716L12.471 12.4316C12.771 12.2116 13.1143 12.1016 13.501 12.1016H14.131C14.2843 12.1016 14.4176 12.1582 14.531 12.2716C14.6443 12.3849 14.701 12.5182 14.701 12.6716V18.8316C14.701 18.9849 14.6443 19.1182 14.531 19.2316C14.4176 19.3449 14.2843 19.4016 14.131 19.4016H13.501C13.3476 19.4016 13.2143 19.3449 13.101 19.2316C12.9876 19.1182 12.931 18.9849 12.931 18.8316V13.9716H12.921H12.911L11.451 15.0316Z" fill="#504323"/>
<path d="M33.164 18.1462L34.78 16.1702V16.1542C34.78 16.1489 34.7773 16.1462 34.772 16.1462H33.332C33.2093 16.1462 33.1026 16.1035 33.012 16.0182C32.9213 15.9275 32.876 15.8209 32.876 15.6982C32.876 15.5755 32.9213 15.4689 33.012 15.3782C33.1026 15.2875 33.2093 15.2422 33.332 15.2422H35.94C36.0626 15.2422 36.1693 15.2875 36.26 15.3782C36.3506 15.4689 36.396 15.5755 36.396 15.6982C36.396 15.9969 36.3 16.2635 36.108 16.4982L34.492 18.4742V18.4902C34.492 18.4955 34.4946 18.4982 34.5 18.4982H35.94C36.0626 18.4982 36.1693 18.5435 36.26 18.6342C36.3506 18.7195 36.396 18.8235 36.396 18.9462C36.396 19.0689 36.3506 19.1755 36.26 19.2662C36.1693 19.3569 36.0626 19.4022 35.94 19.4022H33.332C33.2093 19.4022 33.1026 19.3569 33.012 19.2662C32.9213 19.1755 32.876 19.0689 32.876 18.9462C32.876 18.6475 32.972 18.3809 33.164 18.1462Z" fill="#504323"/>
<path d="M28.4863 19.4025C28.3636 19.4025 28.2569 19.3572 28.1663 19.2665C28.0756 19.1758 28.0303 19.0692 28.0303 18.9465V14.0185C28.0303 13.8958 28.0756 13.7892 28.1663 13.6985C28.2569 13.6078 28.3636 13.5625 28.4863 13.5625H28.9423C29.0649 13.5625 29.1689 13.6078 29.2543 13.6985C29.3449 13.7892 29.3903 13.8958 29.3903 14.0185V15.7785C29.3903 15.8265 29.4143 15.8505 29.4623 15.8505H31.1103C31.1583 15.8505 31.1823 15.8265 31.1823 15.7785V14.0185C31.1823 13.8958 31.2249 13.7892 31.3103 13.6985C31.4009 13.6078 31.5076 13.5625 31.6303 13.5625H32.0863C32.2089 13.5625 32.3156 13.6078 32.4063 13.6985C32.4969 13.7892 32.5423 13.8958 32.5423 14.0185V18.9465C32.5423 19.0692 32.4969 19.1758 32.4063 19.2665C32.3156 19.3572 32.2089 19.4025 32.0863 19.4025H31.6303C31.5076 19.4025 31.4009 19.3572 31.3103 19.2665C31.2249 19.1758 31.1823 19.0692 31.1823 18.9465V16.9465C31.1823 16.9038 31.1583 16.8825 31.1103 16.8825H29.4623C29.4143 16.8825 29.3903 16.9038 29.3903 16.9465V18.9465C29.3903 19.0692 29.3449 19.1758 29.2543 19.2665C29.1689 19.3572 29.0649 19.4025 28.9423 19.4025H28.4863Z" fill="#504323"/>
</svg>
