<svg width="48" height="48" viewBox="0 0 48 48" fill="none" xmlns="http://www.w3.org/2000/svg">
<rect x="6" y="7" width="36" height="26" rx="1" fill="#E4DDCD"/>
<mask id="path-2-inside-1_2233_71632" fill="white">
<rect x="11" y="37" width="26" height="4" rx="1"/>
</mask>
<rect x="11" y="37" width="26" height="4" rx="1" stroke="#E4DDCD" stroke-width="4" mask="url(#path-2-inside-1_2233_71632)"/>
<rect x="22" y="37" width="4" height="4" transform="rotate(-90 22 37)" fill="#E4DDCD"/>
<path d="M33.6815 13.2213V18.6693C33.6815 18.7413 33.7175 18.7853 33.7895 18.8013C33.9495 18.8333 34.1415 18.8493 34.3655 18.8493C35.1735 18.8493 35.7695 18.6133 36.1535 18.1413C36.5455 17.6693 36.7415 16.8973 36.7415 15.8253C36.7415 14.8653 36.5455 14.1613 36.1535 13.7133C35.7615 13.2653 35.1655 13.0413 34.3655 13.0413C34.1415 13.0413 33.9495 13.0573 33.7895 13.0893C33.7175 13.1053 33.6815 13.1493 33.6815 13.2213ZM32.3615 20.3493C32.1695 20.3333 32.0095 20.2533 31.8815 20.1093C31.7535 19.9573 31.6895 19.7813 31.6895 19.5813V12.3093C31.6895 12.1093 31.7535 11.9373 31.8815 11.7933C32.0095 11.6413 32.1695 11.5573 32.3615 11.5413C32.9855 11.4773 33.6015 11.4453 34.2095 11.4453C35.6415 11.4453 36.7455 11.8253 37.5215 12.5853C38.2975 13.3453 38.6855 14.4253 38.6855 15.8253C38.6855 17.3453 38.2975 18.4973 37.5215 19.2813C36.7455 20.0573 35.6415 20.4453 34.2095 20.4453C33.6015 20.4453 32.9855 20.4133 32.3615 20.3493Z" fill="#504323"/>
<path d="M25.7809 20.3264C25.5969 20.3264 25.4369 20.2584 25.3009 20.1224C25.1729 19.9864 25.1089 19.8264 25.1089 19.6424V12.2504C25.1089 12.0664 25.1729 11.9064 25.3009 11.7704C25.4369 11.6344 25.5969 11.5664 25.7809 11.5664H30.0289C30.2129 11.5664 30.3689 11.6344 30.4969 11.7704C30.6329 11.9064 30.7009 12.0664 30.7009 12.2504V12.5264C30.7009 12.7104 30.6329 12.8704 30.4969 13.0064C30.3689 13.1424 30.2129 13.2104 30.0289 13.2104H27.2449C27.1809 13.2104 27.1489 13.2424 27.1489 13.3064V14.8904C27.1489 14.9624 27.1809 14.9984 27.2449 14.9984H29.7889C29.9729 14.9984 30.1289 15.0664 30.2569 15.2024C30.3929 15.3384 30.4609 15.4984 30.4609 15.6824V15.8624C30.4609 16.0464 30.3929 16.2064 30.2569 16.3424C30.1289 16.4784 29.9729 16.5464 29.7889 16.5464H27.2449C27.1809 16.5464 27.1489 16.5784 27.1489 16.6424V18.5864C27.1489 18.6504 27.1809 18.6824 27.2449 18.6824H30.0289C30.2129 18.6824 30.3689 18.7504 30.4969 18.8864C30.6329 19.0224 30.7009 19.1824 30.7009 19.3664V19.6424C30.7009 19.8264 30.6329 19.9864 30.4969 20.1224C30.3689 20.2584 30.2129 20.3264 30.0289 20.3264H25.7809Z" fill="#504323"/>
<path d="M17.9228 20.3264C17.7388 20.3264 17.5788 20.2584 17.4428 20.1224C17.3068 19.9864 17.2388 19.8264 17.2388 19.6424V12.2504C17.2388 12.0664 17.3068 11.9064 17.4428 11.7704C17.5788 11.6344 17.7388 11.5664 17.9228 11.5664H18.5108C18.9668 11.5664 19.2988 11.7664 19.5068 12.1664L22.0268 16.9304C22.0268 16.9384 22.0308 16.9424 22.0388 16.9424C22.0468 16.9424 22.0508 16.9384 22.0508 16.9304V12.2504C22.0508 12.0664 22.1188 11.9064 22.2548 11.7704C22.3908 11.6344 22.5508 11.5664 22.7348 11.5664H23.3228C23.5068 11.5664 23.6668 11.6344 23.8028 11.7704C23.9388 11.9064 24.0068 12.0664 24.0068 12.2504V19.6424C24.0068 19.8264 23.9388 19.9864 23.8028 20.1224C23.6668 20.2584 23.5068 20.3264 23.3228 20.3264H22.7348C22.2788 20.3264 21.9468 20.1264 21.7388 19.7264L19.2188 14.9624C19.2188 14.9544 19.2148 14.9504 19.2068 14.9504C19.1988 14.9504 19.1948 14.9544 19.1948 14.9624V19.6424C19.1948 19.8264 19.1268 19.9864 18.9908 20.1224C18.8548 20.2584 18.6948 20.3264 18.5108 20.3264H17.9228Z" fill="#504323"/>
<path d="M12.4641 13.1253C11.1281 13.1253 10.4601 14.0653 10.4601 15.9453C10.4601 17.8253 11.1281 18.7653 12.4641 18.7653C13.8081 18.7653 14.4801 17.8253 14.4801 15.9453C14.4801 14.0653 13.8081 13.1253 12.4641 13.1253ZM12.4641 20.4453C11.2001 20.4453 10.2001 20.0493 9.46407 19.2573C8.73607 18.4573 8.37207 17.3533 8.37207 15.9453C8.37207 14.5373 8.73607 13.4373 9.46407 12.6453C10.2001 11.8453 11.2001 11.4453 12.4641 11.4453C13.7281 11.4453 14.7281 11.8453 15.4641 12.6453C16.2001 13.4373 16.5681 14.5373 16.5681 15.9453C16.5681 16.7693 16.4201 17.5013 16.1241 18.1413C15.8281 18.7733 15.4121 19.2813 14.8761 19.6653C14.8681 19.6653 14.8641 19.6733 14.8641 19.6893C14.8641 19.6973 14.8721 19.7013 14.8881 19.7013C15.7681 20.1013 16.5201 20.7213 17.1441 21.5613C17.2321 21.6813 17.2401 21.8053 17.1681 21.9333C17.0961 22.0613 16.9841 22.1253 16.8321 22.1253H15.9921C15.5521 22.1253 15.2081 21.9333 14.9601 21.5493C14.6481 21.0853 14.3321 20.7853 14.0121 20.6493C13.7001 20.5133 13.1841 20.4453 12.4641 20.4453Z" fill="#504323"/>
<path d="M29.2496 24.9047C29.1056 24.6827 28.8836 24.5717 28.5836 24.5717C28.2836 24.5717 28.0586 24.6827 27.9086 24.9047C27.7646 25.1267 27.6926 25.4867 27.6926 25.9847C27.6926 26.4827 27.7646 26.8427 27.9086 27.0647C28.0586 27.2867 28.2836 27.3977 28.5836 27.3977C28.8836 27.3977 29.1056 27.2867 29.2496 27.0647C29.3996 26.8427 29.4746 26.4827 29.4746 25.9847C29.4746 25.4867 29.3996 25.1267 29.2496 24.9047ZM30.3206 27.7757C29.9066 28.2017 29.3276 28.4147 28.5836 28.4147C27.8396 28.4147 27.2606 28.2017 26.8466 27.7757C26.4326 27.3497 26.2256 26.7527 26.2256 25.9847C26.2256 25.2167 26.4326 24.6197 26.8466 24.1937C27.2606 23.7677 27.8396 23.5547 28.5836 23.5547C29.3276 23.5547 29.9066 23.7677 30.3206 24.1937C30.7346 24.6197 30.9416 25.2167 30.9416 25.9847C30.9416 26.7527 30.7346 27.3497 30.3206 27.7757Z" fill="#504323"/>
<path d="M23.2164 28.3245C23.0784 28.3245 22.9584 28.2735 22.8564 28.1715C22.7604 28.0695 22.7124 27.9495 22.7124 27.8115V24.1575C22.7124 24.0195 22.7604 23.8995 22.8564 23.7975C22.9584 23.6955 23.0784 23.6445 23.2164 23.6445H23.6574C23.7954 23.6445 23.9124 23.6955 24.0084 23.7975C24.1104 23.8995 24.1614 24.0195 24.1614 24.1575V24.5355C24.1614 24.5415 24.1644 24.5445 24.1704 24.5445C24.1824 24.5445 24.1884 24.5415 24.1884 24.5355C24.5604 24.0375 25.0794 23.7465 25.7454 23.6625C25.8834 23.6445 26.0004 23.6865 26.0964 23.7885C26.1984 23.8905 26.2494 24.0135 26.2494 24.1575V24.2295C26.2494 24.3675 26.1984 24.4875 26.0964 24.5895C26.0004 24.6915 25.8804 24.7485 25.7364 24.7605C25.2504 24.8145 24.8724 24.9825 24.6024 25.2645C24.3384 25.5405 24.2064 25.9005 24.2064 26.3445V27.8115C24.2064 27.9495 24.1554 28.0695 24.0534 28.1715C23.9574 28.2735 23.8404 28.3245 23.7024 28.3245H23.2164Z" fill="#504323"/>
<path d="M19.1022 25.4267V26.5427C19.1022 26.7407 19.1922 26.9237 19.3722 27.0917C19.5582 27.2537 19.7682 27.3347 20.0022 27.3347C20.2782 27.3347 20.4972 27.2237 20.6592 27.0017C20.8212 26.7737 20.9022 26.4347 20.9022 25.9847C20.9022 25.0847 20.6022 24.6347 20.0022 24.6347C19.7682 24.6347 19.5582 24.7187 19.3722 24.8867C19.1922 25.0487 19.1022 25.2287 19.1022 25.4267ZM18.1932 30.3047C18.0552 30.3047 17.9352 30.2537 17.8332 30.1517C17.7312 30.0497 17.6802 29.9297 17.6802 29.7917V24.1577C17.6802 24.0197 17.7312 23.8997 17.8332 23.7977C17.9352 23.6957 18.0552 23.6447 18.1932 23.6447H18.5532C18.6972 23.6447 18.8202 23.6957 18.9222 23.7977C19.0242 23.8937 19.0782 24.0137 19.0842 24.1577V24.2297C19.0842 24.2357 19.0872 24.2387 19.0932 24.2387L19.1112 24.2207C19.4952 23.7767 19.9572 23.5547 20.4972 23.5547C21.0552 23.5547 21.4992 23.7647 21.8292 24.1847C22.1652 24.6047 22.3332 25.2047 22.3332 25.9847C22.3332 26.7407 22.1592 27.3347 21.8112 27.7667C21.4692 28.1987 21.0312 28.4147 20.4972 28.4147C19.9992 28.4147 19.5552 28.2317 19.1652 27.8657C19.1592 27.8597 19.1532 27.8567 19.1472 27.8567C19.1412 27.8567 19.1382 27.8597 19.1382 27.8657V29.7917C19.1382 29.9297 19.0872 30.0497 18.9852 30.1517C18.8832 30.2537 18.7632 30.3047 18.6252 30.3047H18.1932Z" fill="#504323"/>
</svg>
