<svg width="48" height="48" viewBox="0 0 48 48" fill="none" xmlns="http://www.w3.org/2000/svg">
<rect x="6" y="7" width="36" height="26" rx="1" fill="#E4DDCD"/>
<mask id="path-2-inside-1_2233_71691" fill="white">
<rect x="11" y="37" width="26" height="4" rx="1"/>
</mask>
<rect x="11" y="37" width="26" height="4" rx="1" stroke="#E4DDCD" stroke-width="4" mask="url(#path-2-inside-1_2233_71691)"/>
<rect x="22" y="37" width="4" height="4" transform="rotate(-90 22 37)" fill="#E4DDCD"/>
<path d="M33.6815 17.401V22.849C33.6815 22.921 33.7175 22.965 33.7895 22.981C33.9495 23.013 34.1415 23.029 34.3655 23.029C35.1735 23.029 35.7695 22.793 36.1535 22.321C36.5455 21.849 36.7415 21.077 36.7415 20.005C36.7415 19.045 36.5455 18.341 36.1535 17.893C35.7615 17.445 35.1655 17.221 34.3655 17.221C34.1415 17.221 33.9495 17.237 33.7895 17.269C33.7175 17.285 33.6815 17.329 33.6815 17.401ZM32.3615 24.529C32.1695 24.513 32.0095 24.433 31.8815 24.289C31.7535 24.137 31.6895 23.961 31.6895 23.761V16.489C31.6895 16.289 31.7535 16.117 31.8815 15.973C32.0095 15.821 32.1695 15.737 32.3615 15.721C32.9855 15.657 33.6015 15.625 34.2095 15.625C35.6415 15.625 36.7455 16.005 37.5215 16.765C38.2975 17.525 38.6855 18.605 38.6855 20.005C38.6855 21.525 38.2975 22.677 37.5215 23.461C36.7455 24.237 35.6415 24.625 34.2095 24.625C33.6015 24.625 32.9855 24.593 32.3615 24.529Z" fill="#504323"/>
<path d="M25.7809 24.5061C25.5969 24.5061 25.4369 24.4381 25.3009 24.3021C25.1729 24.1661 25.1089 24.0061 25.1089 23.8221V16.4301C25.1089 16.2461 25.1729 16.0861 25.3009 15.9501C25.4369 15.8141 25.5969 15.7461 25.7809 15.7461H30.0289C30.2129 15.7461 30.3689 15.8141 30.4969 15.9501C30.6329 16.0861 30.7009 16.2461 30.7009 16.4301V16.7061C30.7009 16.8901 30.6329 17.0501 30.4969 17.1861C30.3689 17.3221 30.2129 17.3901 30.0289 17.3901H27.2449C27.1809 17.3901 27.1489 17.4221 27.1489 17.4861V19.0701C27.1489 19.1421 27.1809 19.1781 27.2449 19.1781H29.7889C29.9729 19.1781 30.1289 19.2461 30.2569 19.3821C30.3929 19.5181 30.4609 19.6781 30.4609 19.8621V20.0421C30.4609 20.2261 30.3929 20.3861 30.2569 20.5221C30.1289 20.6581 29.9729 20.7261 29.7889 20.7261H27.2449C27.1809 20.7261 27.1489 20.7581 27.1489 20.8221V22.7661C27.1489 22.8301 27.1809 22.8621 27.2449 22.8621H30.0289C30.2129 22.8621 30.3689 22.9301 30.4969 23.0661C30.6329 23.2021 30.7009 23.3621 30.7009 23.5461V23.8221C30.7009 24.0061 30.6329 24.1661 30.4969 24.3021C30.3689 24.4381 30.2129 24.5061 30.0289 24.5061H25.7809Z" fill="#504323"/>
<path d="M17.9228 24.5061C17.7388 24.5061 17.5788 24.4381 17.4428 24.3021C17.3068 24.1661 17.2388 24.0061 17.2388 23.8221V16.4301C17.2388 16.2461 17.3068 16.0861 17.4428 15.9501C17.5788 15.8141 17.7388 15.7461 17.9228 15.7461H18.5108C18.9668 15.7461 19.2988 15.9461 19.5068 16.3461L22.0268 21.1101C22.0268 21.1181 22.0308 21.1221 22.0388 21.1221C22.0468 21.1221 22.0508 21.1181 22.0508 21.1101V16.4301C22.0508 16.2461 22.1188 16.0861 22.2548 15.9501C22.3908 15.8141 22.5508 15.7461 22.7348 15.7461H23.3228C23.5068 15.7461 23.6668 15.8141 23.8028 15.9501C23.9388 16.0861 24.0068 16.2461 24.0068 16.4301V23.8221C24.0068 24.0061 23.9388 24.1661 23.8028 24.3021C23.6668 24.4381 23.5068 24.5061 23.3228 24.5061H22.7348C22.2788 24.5061 21.9468 24.3061 21.7388 23.9061L19.2188 19.1421C19.2188 19.1341 19.2148 19.1301 19.2068 19.1301C19.1988 19.1301 19.1948 19.1341 19.1948 19.1421V23.8221C19.1948 24.0061 19.1268 24.1661 18.9908 24.3021C18.8548 24.4381 18.6948 24.5061 18.5108 24.5061H17.9228Z" fill="#504323"/>
<path d="M12.4641 17.305C11.1281 17.305 10.4601 18.245 10.4601 20.125C10.4601 22.005 11.1281 22.945 12.4641 22.945C13.8081 22.945 14.4801 22.005 14.4801 20.125C14.4801 18.245 13.8081 17.305 12.4641 17.305ZM12.4641 24.625C11.2001 24.625 10.2001 24.229 9.46407 23.437C8.73607 22.637 8.37207 21.533 8.37207 20.125C8.37207 18.717 8.73607 17.617 9.46407 16.825C10.2001 16.025 11.2001 15.625 12.4641 15.625C13.7281 15.625 14.7281 16.025 15.4641 16.825C16.2001 17.617 16.5681 18.717 16.5681 20.125C16.5681 20.949 16.4201 21.681 16.1241 22.321C15.8281 22.953 15.4121 23.461 14.8761 23.845C14.8681 23.845 14.8641 23.853 14.8641 23.869C14.8641 23.877 14.8721 23.881 14.8881 23.881C15.7681 24.281 16.5201 24.901 17.1441 25.741C17.2321 25.861 17.2401 25.985 17.1681 26.113C17.0961 26.241 16.9841 26.305 16.8321 26.305H15.9921C15.5521 26.305 15.2081 26.113 14.9601 25.729C14.6481 25.265 14.3321 24.965 14.0121 24.829C13.7001 24.693 13.1841 24.625 12.4641 24.625Z" fill="#504323"/>
</svg>
