<svg width="48" height="48" viewBox="0 0 48 48" fill="none" xmlns="http://www.w3.org/2000/svg">
<path d="M10.0946 12.0867C10.0437 11.5024 10.5043 11 11.0908 11H34.9092C35.4957 11 35.9563 11.5024 35.9054 12.0867L33.2938 42.0867C33.2488 42.6034 32.8162 43 32.2976 43H13.7024C13.1838 43 12.7512 42.6034 12.7062 42.0867L10.0946 12.0867Z" fill="#E4DDCD"/>
<path d="M27 12.9024C27 15.1655 25.2091 17 23 17C20.7909 17 19 15.1655 19 12.9024C19 9.83942 23 5 23 5C23 5 27 9.83942 27 12.9024Z" fill="#7E796E"/>
<path d="M32 30.5H28C25.7909 30.5 24 32.2909 24 34.5C24 36.7091 25.7909 38.5 28 38.5H28.1953" stroke="#7E796E" stroke-width="2" stroke-linecap="round"/>
<path d="M33 38.5H37C39.2091 38.5 41 36.7091 41 34.5V34.1094C41 32.116 39.384 30.5 37.3906 30.5" stroke="#7E796E" stroke-width="2" stroke-linecap="round"/>
<path d="M33 29L34 30.5L33 32" stroke="#7E796E" stroke-width="2" stroke-linecap="round" stroke-linejoin="round"/>
<path d="M32 37L31 38.5L32 40" stroke="#7E796E" stroke-width="2" stroke-linecap="round" stroke-linejoin="round"/>
</svg>
