<svg width="48" height="48" viewBox="0 0 48 48" fill="none" xmlns="http://www.w3.org/2000/svg">
<path d="M37.1074 11.8182C37.6491 11.9258 38.001 12.4522 37.8935 12.9938L37.6987 13.9747C37.5911 14.5164 37.0647 14.8683 36.523 14.7607L12.9828 10.0856C12.4411 9.97802 12.0892 9.45167 12.1967 8.90997L12.3915 7.92912C12.4992 7.38747 13.0255 7.0355 13.5672 7.14307L37.1074 11.8182ZM28.8663 7.11694C29.408 7.22456 29.76 7.7509 29.6524 8.29258L29.2628 10.2543L21.416 8.69589L21.8056 6.7342C21.9132 6.1925 22.4396 5.84057 22.9813 5.94816L28.8663 7.11694Z" fill="#E4DDCD"/>
<rect x="13" y="16" width="24" height="26" rx="1" fill="#E4DDCD"/>
<circle cx="10" cy="18" r="1" transform="rotate(-90 10 18)" fill="#7E796E"/>
<circle cx="6" cy="16" r="1" transform="rotate(-90 6 16)" fill="#7E796E"/>
<path d="M10.5156 11V14.5" stroke="#7E796E" stroke-width="2" stroke-linecap="round"/>
<path d="M9.00781 13.6328L12.0389 11.8828" stroke="#7E796E" stroke-width="2" stroke-linecap="round"/>
<path d="M9 11.8828L12.0311 13.6328" stroke="#7E796E" stroke-width="2" stroke-linecap="round"/>
<circle cx="8" cy="9" r="1" transform="rotate(-90 8 9)" fill="#7E796E"/>
<path d="M33.6347 29C33.6347 27.7467 33.1867 27.12 32.2907 27.12C31.3947 27.12 30.9467 27.7467 30.9467 29C30.9467 30.2533 31.3947 30.88 32.2907 30.88C33.1867 30.88 33.6347 30.2533 33.6347 29ZM34.2907 31.208C33.8 31.736 33.1334 32 32.2907 32C31.448 32 30.7814 31.736 30.2907 31.208C29.8 30.6747 29.5547 29.9387 29.5547 29C29.5547 28.0613 29.8 27.328 30.2907 26.8C30.7814 26.2667 31.448 26 32.2907 26C33.1334 26 33.8 26.2667 34.2907 26.8C34.7814 27.328 35.0267 28.0613 35.0267 29C35.0267 29.9387 34.7814 30.6747 34.2907 31.208Z" fill="#504323"/>
<path d="M25.5107 27.2061C25.388 27.2061 25.2814 27.1608 25.1907 27.0701C25.1 26.9795 25.0547 26.8728 25.0547 26.7501V26.5341C25.0547 26.4115 25.1 26.3048 25.1907 26.2141C25.2814 26.1235 25.388 26.0781 25.5107 26.0781H29.0787C29.2014 26.0781 29.308 26.1235 29.3987 26.2141C29.4894 26.3048 29.5347 26.4115 29.5347 26.5341V26.7501C29.5347 26.8728 29.4894 26.9795 29.3987 27.0701C29.308 27.1608 29.2014 27.2061 29.0787 27.2061H28.0547C28.012 27.2061 27.9907 27.2275 27.9907 27.2701V31.4621C27.9907 31.5848 27.9454 31.6915 27.8547 31.7821C27.764 31.8728 27.6574 31.9181 27.5347 31.9181H27.0547C26.932 31.9181 26.8254 31.8728 26.7347 31.7821C26.644 31.6915 26.5987 31.5848 26.5987 31.4621V27.2701C26.5987 27.2275 26.5774 27.2061 26.5347 27.2061H25.5107Z" fill="#504323"/>
<path d="M24.4409 29.7981C24.4409 31.2648 23.6943 31.9981 22.2009 31.9981C20.7076 31.9981 19.9609 31.2648 19.9609 29.7981V26.5341C19.9609 26.4115 20.0063 26.3048 20.0969 26.2141C20.1876 26.1235 20.2943 26.0781 20.4169 26.0781H20.8809C21.0036 26.0781 21.1103 26.1235 21.2009 26.2141C21.2916 26.3048 21.3369 26.4115 21.3369 26.5341V29.8941C21.3369 30.2568 21.4063 30.5155 21.5449 30.6701C21.6836 30.8248 21.9076 30.9021 22.2169 30.9021C22.5263 30.9021 22.7503 30.8248 22.8889 30.6701C23.0276 30.5155 23.0969 30.2568 23.0969 29.8941V26.5341C23.0969 26.4115 23.1423 26.3048 23.2329 26.2141C23.3236 26.1235 23.4303 26.0781 23.5529 26.0781H23.9849C24.1076 26.0781 24.2143 26.1235 24.3049 26.2141C24.3956 26.3048 24.4409 26.4115 24.4409 26.5341V29.7981Z" fill="#504323"/>
<path d="M17.4452 27.2621L16.8612 29.5581C16.8559 29.5741 16.8585 29.5901 16.8692 29.6061C16.8852 29.6168 16.9012 29.6221 16.9172 29.6221H17.9892C18.0052 29.6221 18.0185 29.6168 18.0292 29.6061C18.0452 29.5901 18.0505 29.5741 18.0452 29.5581L17.4612 27.2621C17.4612 27.2568 17.4585 27.2541 17.4532 27.2541C17.4479 27.2541 17.4452 27.2568 17.4452 27.2621ZM15.3092 31.9181C15.1972 31.9181 15.1065 31.8728 15.0372 31.7821C14.9732 31.6915 14.9599 31.5928 14.9972 31.4861L16.6132 26.5101C16.6559 26.3821 16.7305 26.2781 16.8372 26.1981C16.9492 26.1181 17.0719 26.0781 17.2052 26.0781H17.7332C17.8719 26.0781 17.9972 26.1181 18.1092 26.1981C18.2212 26.2781 18.2959 26.3821 18.3332 26.5101L19.9412 31.4861C19.9785 31.5928 19.9625 31.6915 19.8932 31.7821C19.8292 31.8728 19.7412 31.9181 19.6292 31.9181H19.0932C18.9599 31.9181 18.8399 31.8781 18.7332 31.7981C18.6265 31.7128 18.5572 31.6061 18.5252 31.4781L18.3332 30.7181C18.3279 30.6755 18.3012 30.6541 18.2532 30.6541H16.6532C16.6105 30.6541 16.5839 30.6755 16.5732 30.7181L16.3812 31.4781C16.3492 31.6061 16.2799 31.7128 16.1732 31.7981C16.0665 31.8781 15.9465 31.9181 15.8132 31.9181H15.3092Z" fill="#504323"/>
</svg>
