<svg width="48" height="48" viewBox="0 0 48 48" fill="none" xmlns="http://www.w3.org/2000/svg">
<path d="M22 43C18.287 43 14.726 41.5659 12.1005 39.0132C9.475 36.4604 8 32.9982 8 29.3881C8 20.3134 22 5 22 5C22 5 36 20.3134 36 29.3881C36 32.9982 34.525 36.4604 31.8995 39.0132C29.274 41.5659 25.713 43 22 43Z" fill="#E4DDCD"/>
<path d="M36.147 22.3622L29.1466 32.3637C29.0589 32.4893 29.0086 32.6351 29.001 32.7857C28.9934 32.9362 29.0289 33.086 29.1036 33.2189C29.1783 33.3518 29.2895 33.4629 29.4253 33.5404C29.561 33.6179 29.7163 33.6589 29.8746 33.6589H35.8075L34.2674 40.9967C34.0819 41.8919 35.321 42.3803 35.853 41.6218L42.8534 31.6203C42.9411 31.4948 42.9914 31.349 42.999 31.1984C43.0066 31.0478 42.9711 30.8981 42.8964 30.7652C42.8217 30.6323 42.7105 30.5211 42.5747 30.4436C42.439 30.3661 42.2837 30.3252 42.1254 30.3251H36.1925L37.7326 22.9873C37.9181 22.0922 36.6668 21.6221 36.147 22.3622Z" fill="#7E796E"/>
</svg>
