<svg width="48" height="48" viewBox="0 0 48 48" fill="none" xmlns="http://www.w3.org/2000/svg">
<rect x="17" y="11" width="8" height="27" fill="#E4DDCD"/>
<path d="M31 14L35 14C35 14.5523 34.5523 15 34 15L32 15C31.4477 15 31 14.5523 31 14Z" fill="#D5CDBA"/>
<rect x="8" y="38" width="32" height="2" rx="1" fill="#7E796E"/>
<rect x="17" y="8" width="20" height="6" rx="1" fill="#E4DDCD"/>
<path d="M36 21.9268C36 23.6241 34.6569 25 33 25C31.3431 25 30 23.6241 30 21.9268C30 19.6296 33 16 33 16C33 16 36 19.6296 36 21.9268Z" fill="#7E796E"/>
</svg>
