<svg width="48" height="48" viewBox="0 0 48 48" fill="none" xmlns="http://www.w3.org/2000/svg">
<path d="M6 30C6 27.2386 8.23858 25 11 25H37C39.7614 25 42 27.2386 42 30V34C42 34.5523 41.5523 35 41 35H7C6.44772 35 6 34.5523 6 34V30Z" fill="#E4DDCD"/>
<path d="M16 23C16 21.3431 17.3431 20 19 20H29C30.6569 20 32 21.3431 32 23V25H16V23Z" fill="#E4DDCD"/>
<path d="M21 7C21 6.44772 21.4477 6 22 6H26C26.5523 6 27 6.44772 27 7V20H21V7Z" fill="#E4DDCD"/>
<path d="M9 37V41" stroke="#7E796E" stroke-width="2" stroke-linecap="round"/>
<path d="M15 37V41" stroke="#7E796E" stroke-width="2" stroke-linecap="round"/>
<path d="M21 37V41" stroke="#7E796E" stroke-width="2" stroke-linecap="round"/>
<path d="M27 37V41" stroke="#7E796E" stroke-width="2" stroke-linecap="round"/>
<path d="M33 37V41" stroke="#7E796E" stroke-width="2" stroke-linecap="round"/>
<path d="M39 37V41" stroke="#7E796E" stroke-width="2" stroke-linecap="round"/>
<path d="M38.8334 18.3C38.6801 18.3 38.5468 18.2433 38.4334 18.13C38.3268 18.0167 38.2734 17.8833 38.2734 17.73V11.57C38.2734 11.4167 38.3268 11.2833 38.4334 11.17C38.5468 11.0567 38.6801 11 38.8334 11H39.5734C39.7268 11 39.8568 11.0567 39.9634 11.17C40.0768 11.2833 40.1334 11.4167 40.1334 11.57V17.73C40.1334 17.8833 40.0768 18.0167 39.9634 18.13C39.8568 18.2433 39.7268 18.3 39.5734 18.3H38.8334Z" fill="#504323"/>
<path d="M34.0858 12.48L33.3558 15.35C33.3491 15.37 33.3525 15.39 33.3658 15.41C33.3858 15.4233 33.4058 15.43 33.4258 15.43H34.7658C34.7858 15.43 34.8025 15.4233 34.8158 15.41C34.8358 15.39 34.8425 15.37 34.8358 15.35L34.1058 12.48C34.1058 12.4733 34.1025 12.47 34.0958 12.47C34.0891 12.47 34.0858 12.4733 34.0858 12.48ZM31.4158 18.3C31.2758 18.3 31.1625 18.2433 31.0758 18.13C30.9958 18.0167 30.9791 17.8933 31.0258 17.76L33.0458 11.54C33.0991 11.38 33.1925 11.25 33.3258 11.15C33.4658 11.05 33.6191 11 33.7858 11H34.4458C34.6191 11 34.7758 11.05 34.9158 11.15C35.0558 11.25 35.1491 11.38 35.1958 11.54L37.2058 17.76C37.2525 17.8933 37.2325 18.0167 37.1458 18.13C37.0658 18.2433 36.9558 18.3 36.8158 18.3H36.1458C35.9791 18.3 35.8291 18.25 35.6958 18.15C35.5625 18.0433 35.4758 17.91 35.4358 17.75L35.1958 16.8C35.1891 16.7467 35.1558 16.72 35.0958 16.72H33.0958C33.0425 16.72 33.0091 16.7467 32.9958 16.8L32.7558 17.75C32.7158 17.91 32.6291 18.0433 32.4958 18.15C32.3625 18.25 32.2125 18.3 32.0458 18.3H31.4158Z" fill="#504323"/>
</svg>
