<svg width="48" height="48" viewBox="0 0 48 48" fill="none" xmlns="http://www.w3.org/2000/svg">
<path d="M39 37.7969C39 38.3492 38.5523 38.7969 38 38.7969H10C9.44772 38.7969 9 38.3492 9 37.7969V25.0104C9 24.6876 9.1558 24.3847 9.41836 24.197L23.4184 14.1864C23.7662 13.9377 24.2338 13.9377 24.5816 14.1864L38.5816 24.197C38.8442 24.3847 39 24.6876 39 25.0104V37.7969Z" fill="#E4DDCD"/>
<path d="M39 20.5L23.9997 10L9 20.5" stroke="#7E796E" stroke-width="2" stroke-linecap="round" stroke-linejoin="round"/>
<ellipse cx="35" cy="35" rx="7" ry="7" fill="#7E796E"/>
<ellipse cx="1" cy="1" rx="1" ry="1" transform="matrix(-1 8.74228e-08 8.74228e-08 1 36 30)" fill="white"/>
<path d="M27.5265 23.9016C27.6151 23.6225 28.0099 23.6225 28.0985 23.9016L28.5814 25.4242C28.6077 25.5071 28.6686 25.5745 28.7484 25.6089L30.1745 26.2246C30.416 26.3288 30.416 26.6712 30.1745 26.7754L28.7484 27.3911C28.6686 27.4255 28.6077 27.4929 28.5814 27.5758L28.0985 29.0984C28.0099 29.3775 27.6151 29.3775 27.5265 29.0984L27.0436 27.5758C27.0173 27.4929 26.9564 27.4255 26.8766 27.3911L25.4505 26.7754C25.209 26.6712 25.209 26.3288 25.4505 26.2246L26.8766 25.6089C26.9564 25.5745 27.0173 25.5071 27.0436 25.4242L27.5265 23.9016Z" fill="#7E796E"/>
<path d="M24.7123 28.9717C24.7971 28.6853 25.2029 28.6853 25.2877 28.9717L25.5017 29.6946C25.5261 29.7774 25.5851 29.8455 25.6634 29.8818L26.4113 30.2277C26.6434 30.3351 26.6434 30.6649 26.4113 30.7723L25.6634 31.1182C25.5851 31.1545 25.5261 31.2226 25.5017 31.3054L25.2877 32.0283C25.2029 32.3147 24.7971 32.3147 24.7123 32.0283L24.4983 31.3054C24.4739 31.2226 24.4149 31.1545 24.3366 31.1182L23.5887 30.7723C23.3566 30.6649 23.3566 30.3351 23.5887 30.2277L24.3366 29.8818C24.4149 29.8455 24.4739 29.7774 24.4983 29.6946L24.7123 28.9717Z" fill="#7E796E"/>
</svg>
