<svg width="48" height="48" viewBox="0 0 48 48" fill="none" xmlns="http://www.w3.org/2000/svg">
<rect x="16" y="16" width="16" height="16" fill="#7E796E"/>
<circle cx="14" cy="24" r="10" fill="#E4DDCD"/>
<circle cx="34" cy="24" r="10" fill="#E4DDCD"/>
<path d="M30.1738 18.1841L32.1738 18.1841L32.1766 20.184" stroke="#7E796E" stroke-width="2" stroke-linecap="round" stroke-linejoin="round"/>
<path d="M30.6026 19.8906C27.8774 21.8502 27.246 25.6395 29.1923 28.3542C31.1386 31.0689 34.9256 31.681 37.6507 29.7214C39.5675 28.3431 40.4484 26.0597 40.1253 23.8817" stroke="#7E796E" stroke-width="2" stroke-linecap="round" stroke-linejoin="round"/>
<path d="M17.834 18.1841L15.834 18.1841L15.8313 20.184" stroke="#7E796E" stroke-width="2" stroke-linecap="round" stroke-linejoin="round"/>
<path d="M17.4052 19.8906C20.1304 21.8502 20.7618 25.6395 18.8155 28.3542C16.8692 31.0689 13.0822 31.681 10.3571 29.7214C8.44035 28.3431 7.55939 26.0597 7.88255 23.8817" stroke="#7E796E" stroke-width="2" stroke-linecap="round" stroke-linejoin="round"/>
</svg>
