<svg width="48" height="48" viewBox="0 0 48 48" fill="none" xmlns="http://www.w3.org/2000/svg">
<path d="M42.9655 17.7141L41.778 20.2812L39.2109 19.0938" stroke="#7E796E" stroke-width="2" stroke-linecap="round" stroke-linejoin="round"/>
<path d="M5.11383 30.3961L6.40573 27.88L8.92188 29.1719" stroke="#7E796E" stroke-width="2" stroke-linecap="round" stroke-linejoin="round"/>
<path d="M6.1908 21.5105C6.77375 17.3626 8.78503 13.5479 11.8782 10.7234C14.9713 7.899 18.9527 6.24173 23.1363 6.03712C27.32 5.8325 31.444 7.09334 34.798 9.60245C38.152 12.1116 40.526 15.7118 41.5109 19.783" stroke="#7E796E" stroke-width="2" stroke-linecap="round" stroke-linejoin="round"/>
<path d="M41.794 26.8314C41.1388 30.9685 39.0612 34.7476 35.9192 37.5176C32.7773 40.2876 28.7676 41.8752 24.581 42.0067C20.3944 42.1383 16.293 40.8057 12.9833 38.2384C9.6736 35.6711 7.36285 32.03 6.44912 27.9422" stroke="#7E796E" stroke-width="2" stroke-linecap="round" stroke-linejoin="round"/>
<path d="M14.0972 14.0889C14.045 13.5039 14.5059 13 15.0933 13H32.9067C33.4941 13 33.955 13.5039 33.9028 14.0889L31.9385 36.0889C31.8924 36.6047 31.4603 37 30.9425 37H17.0575C16.5397 37 16.1076 36.6047 16.0615 36.0889L14.0972 14.0889Z" fill="#E4DDCD"/>
<path d="M17.0977 24.0893C17.0452 23.5041 17.5061 23 18.0937 23H29.9062C30.4938 23 30.9547 23.5042 30.9021 24.0895L30.004 34.0895C29.9577 34.605 29.5256 35 29.008 35H18.9904C18.4727 35 18.0406 34.6049 17.9944 34.0893L17.0977 24.0893Z" fill="#7E796E"/>
</svg>
