<svg width="48" height="48" viewBox="0 0 48 48" fill="none" xmlns="http://www.w3.org/2000/svg">
<circle cx="24" cy="28" r="15" fill="#E4DDCD"/>
<path d="M28.6488 18.0306C30.915 19.0873 32.7535 20.8846 33.8614 23.1262C34.9692 25.3678 35.2803 27.92 34.7434 30.3621C34.2065 32.8042 32.8535 34.9905 30.9076 36.5607C28.9616 38.1309 26.5388 38.9912 24.0384 38.9999C21.538 39.0087 19.1092 38.1652 17.1523 36.6087C15.1955 35.0521 13.8273 32.8753 13.2734 30.437C12.7194 27.9987 13.0127 25.4445 14.1049 23.1952C15.1971 20.9459 17.023 19.1358 19.2817 18.0633" stroke="#7E796E" stroke-width="2" stroke-linecap="round"/>
<circle cx="24" cy="18" r="2" fill="#7E796E"/>
<path d="M28 11C27.6754 10.4105 27.1232 9.90589 26.4131 9.5499C25.703 9.19391 24.8669 9.00255 24.0106 9.00003C23.1543 8.9975 22.3162 9.18392 21.6023 9.53571C20.8884 9.8875 20.3308 10.3889 20 10.9764" stroke="#7E796E" stroke-width="2" stroke-linecap="round"/>
<path d="M31 10C30.432 8.82106 29.4656 7.81179 28.2229 7.0998C26.9802 6.38782 25.5171 6.0051 24.0185 6.00005C22.52 5.995 21.0534 6.36784 19.8041 7.07142C18.5548 7.77501 17.579 8.77774 17 9.95281" stroke="#7E796E" stroke-width="2" stroke-linecap="round"/>
</svg>
