<svg width="48" height="48" viewBox="0 0 48 48" fill="none" xmlns="http://www.w3.org/2000/svg">
<rect x="6" y="7" width="36" height="26" rx="1" fill="#E4DDCD"/>
<mask id="path-2-inside-1_2550_25250" fill="white">
<rect x="11" y="37" width="26" height="4" rx="1"/>
</mask>
<rect x="11" y="37" width="26" height="4" rx="1" stroke="#E4DDCD" stroke-width="4" mask="url(#path-2-inside-1_2550_25250)"/>
<rect x="22" y="37" width="4" height="4" transform="rotate(-90 22 37)" fill="#E4DDCD"/>
<path d="M24.5986 12C25.1509 12 25.5986 12.4477 25.5986 13V13.0264C25.5987 13.4827 25.9113 13.8738 26.3359 14.041C26.4663 14.0923 26.5947 14.1476 26.7207 14.207C27.1343 14.4022 27.6354 14.3534 27.959 14.0303C28.3416 13.6479 28.9621 13.648 29.3447 14.0303L30.208 14.8936C30.5983 15.2842 30.5977 15.9172 30.207 16.3076L30.1367 16.3779C29.8215 16.6931 29.7607 17.1764 29.9297 17.5889C29.9397 17.6133 29.9503 17.6376 29.96 17.6621C30.1276 18.0861 30.5177 18.3983 30.9736 18.3984H31C31.5523 18.3984 32 18.8462 32 19.3984V20.5986C32 21.1509 31.5523 21.5986 31 21.5986H30.8311C30.4599 21.5987 30.1402 21.8549 30.0117 22.2031C29.893 22.5253 29.9535 22.891 30.1963 23.1338L30.4648 23.4023C30.8553 23.7928 30.8553 24.4259 30.4648 24.8164L29.5439 25.7373C29.1933 26.0877 28.625 26.0877 28.2744 25.7373C27.9632 25.4261 27.4749 25.3922 27.0898 25.6055C26.8477 25.7396 26.596 25.8586 26.3359 25.9609C25.9112 26.1281 25.5987 26.5192 25.5986 26.9756V27C25.5986 27.5523 25.1509 28 24.5986 28H23.3984C22.8462 28 22.3984 27.5523 22.3984 27V26.9727C22.3983 26.5168 22.0863 26.1262 21.6621 25.959C21.6377 25.9493 21.6132 25.9396 21.5889 25.9297C21.1762 25.7611 20.6931 25.8215 20.3779 26.1367L20.3086 26.2061C19.9182 26.5967 19.2852 26.5973 18.8945 26.207L18.0312 25.3438C17.649 24.9615 17.6484 24.3415 18.0303 23.959C18.3533 23.6357 18.4027 23.1351 18.208 22.7217C18.1485 22.5954 18.0923 22.4666 18.041 22.3359C17.8741 21.9113 17.4836 21.5987 17.0273 21.5986H17C16.4477 21.5986 16 21.1509 16 20.5986V19.3984C16 18.8462 16.4477 18.3984 17 18.3984H17.0293C17.4852 18.3983 17.8758 18.0863 18.043 17.6621C18.1421 17.4105 18.2568 17.1665 18.3857 16.9316C18.6037 16.5346 18.5693 16.0322 18.249 15.7119C17.8883 15.3511 17.8883 14.7661 18.249 14.4053L19.1514 13.5029C19.5419 13.1125 20.1749 13.1125 20.5654 13.5029L20.8701 13.8076C21.112 14.0495 21.4758 14.1093 21.7969 13.9912C22.1436 13.8635 22.3984 13.5453 22.3984 13.1758V13C22.3984 12.4477 22.8462 12 23.3984 12H24.5986ZM24.0039 18.2266C23.0224 18.2268 22.2268 19.0224 22.2266 20.0039C22.2266 20.9856 23.0223 21.782 24.0039 21.7822C24.9857 21.7822 25.7822 20.9857 25.7822 20.0039C25.782 19.0223 24.9856 18.2266 24.0039 18.2266Z" fill="#7E796E"/>
</svg>
