<svg width="48" height="48" viewBox="0 0 48 48" fill="none" xmlns="http://www.w3.org/2000/svg">
<path d="M38 29C38 36.732 31.732 43 24 43C16.268 43 10 36.732 10 29C10 21.268 16.268 15 24 15C31.732 15 38 21.268 38 29Z" fill="#E4DDCD"/>
<path d="M28.9939 19.1989C31.1954 20.3207 32.9551 22.1509 33.9896 24.3947C35.024 26.6386 35.2729 29.1654 34.6961 31.5679C34.1193 33.9704 32.7504 36.1088 30.81 37.6385C28.8697 39.1682 26.4708 40 24 40C21.5292 40 19.1303 39.1681 17.19 37.6385C15.2496 36.1088 13.8807 33.9704 13.3039 31.5679C12.7271 29.1654 12.976 26.6386 14.0104 24.3947C15.0449 22.1509 16.8046 20.3206 19.0061 19.1989" stroke="#7E796E" stroke-width="2" stroke-linecap="round"/>
<circle cx="24" cy="19" r="2" transform="rotate(-180 24 19)" fill="#7E796E"/>
<path d="M33.7578 7.48438C31.8726 8.0107 30.0645 9.88046 30.2578 13.4844" stroke="#7E796E" stroke-width="2" stroke-linecap="round"/>
<path d="M14 7.48438C15.8852 8.0107 17.6933 9.88046 17.5 13.4844" stroke="#7E796E" stroke-width="2" stroke-linecap="round"/>
<path d="M27 10.9268C27 12.6241 25.6569 14 24 14C22.3431 14 21 12.6241 21 10.9268C21 8.62956 24 5 24 5C24 5 27 8.62956 27 10.9268Z" fill="#7E796E"/>
</svg>
