<svg width="48" height="48" viewBox="0 0 48 48" fill="none" xmlns="http://www.w3.org/2000/svg">
<path d="M40 38.7754C40 39.3277 39.5523 39.7754 39 39.7754H9C8.44772 39.7754 8 39.3277 8 38.7754V24.2754C8 23.9606 8.14819 23.6642 8.4 23.4754L23.4 12.2254C23.7556 11.9587 24.2444 11.9587 24.6 12.2254L39.6 23.4754C39.8518 23.6642 40 23.9606 40 24.2754V38.7754Z" fill="#E4DDCD"/>
<path d="M40 20L23.9997 8L8 20" stroke="#7E796E" stroke-width="2" stroke-linecap="round" stroke-linejoin="round"/>
<path d="M26.2827 34.9998C26.0834 34.9998 25.91 34.9261 25.7627 34.7788C25.624 34.6314 25.5547 34.4581 25.5547 34.2588V26.2508C25.5547 26.0514 25.624 25.8781 25.7627 25.7308C25.91 25.5834 26.0834 25.5098 26.2827 25.5098H27.2447C27.444 25.5098 27.613 25.5834 27.7517 25.7308C27.899 25.8781 27.9727 26.0514 27.9727 26.2508V34.2588C27.9727 34.4581 27.899 34.6314 27.7517 34.7788C27.613 34.9261 27.444 34.9998 27.2447 34.9998H26.2827Z" fill="#504323"/>
<path d="M20.3709 27.4338L19.4219 31.1648C19.4132 31.1908 19.4176 31.2168 19.4349 31.2428C19.4609 31.2601 19.4869 31.2688 19.5129 31.2688H21.2549C21.2809 31.2688 21.3026 31.2601 21.3199 31.2428C21.3459 31.2168 21.3546 31.1908 21.3459 31.1648L20.3969 27.4338C20.3969 27.4251 20.3926 27.4208 20.3839 27.4208C20.3752 27.4208 20.3709 27.4251 20.3709 27.4338ZM16.8999 34.9998C16.7179 34.9998 16.5706 34.9261 16.4579 34.7788C16.3539 34.6314 16.3322 34.4711 16.3929 34.2978L19.0189 26.2118C19.0882 26.0038 19.2096 25.8348 19.3829 25.7048C19.5649 25.5748 19.7642 25.5098 19.9809 25.5098H20.8389C21.0642 25.5098 21.2679 25.5748 21.4499 25.7048C21.6319 25.8348 21.7532 26.0038 21.8139 26.2118L24.4269 34.2978C24.4876 34.4711 24.4616 34.6314 24.3489 34.7788C24.2449 34.9261 24.1019 34.9998 23.9199 34.9998H23.0489C22.8322 34.9998 22.6372 34.9348 22.4639 34.8048C22.2906 34.6661 22.1779 34.4928 22.1259 34.2848L21.8139 33.0498C21.8052 32.9804 21.7619 32.9458 21.6839 32.9458H19.0839C19.0146 32.9458 18.9712 32.9804 18.9539 33.0498L18.6419 34.2848C18.5899 34.4928 18.4772 34.6661 18.3039 34.8048C18.1306 34.9348 17.9356 34.9998 17.7189 34.9998H16.8999Z" fill="#504323"/>
<path d="M29.0243 20.4692C29.1737 20.0079 29.8263 20.0079 29.9757 20.4692L30.3749 21.7022C30.4196 21.8403 30.5221 21.9521 30.6558 22.0087L31.911 22.5395C32.318 22.7116 32.318 23.2884 31.911 23.4605L30.6558 23.9913C30.5221 24.0479 30.4196 24.1597 30.3749 24.2978L29.9757 25.5308C29.8263 25.9921 29.1737 25.9921 29.0243 25.5308L28.6251 24.2978C28.5804 24.1597 28.4779 24.0479 28.3442 23.9913L27.089 23.4605C26.682 23.2884 26.682 22.7116 27.089 22.5395L28.3442 22.0087C28.4779 21.9521 28.5804 21.8403 28.6251 21.7022L29.0243 20.4692Z" fill="#7E796E"/>
<path d="M31.7123 24.9717C31.7971 24.6853 32.2029 24.6853 32.2877 24.9717L32.5017 25.6946C32.5261 25.7774 32.5851 25.8455 32.6634 25.8818L33.4113 26.2277C33.6434 26.3351 33.6434 26.6649 33.4113 26.7723L32.6634 27.1182C32.5851 27.1545 32.5261 27.2226 32.5017 27.3054L32.2877 28.0283C32.2029 28.3147 31.7971 28.3147 31.7123 28.0283L31.4983 27.3054C31.4739 27.2226 31.4149 27.1545 31.3366 27.1182L30.5887 26.7723C30.3566 26.6649 30.3566 26.3351 30.5887 26.2277L31.3366 25.8818C31.4149 25.8455 31.4739 25.7774 31.4983 25.6946L31.7123 24.9717Z" fill="#7E796E"/>
</svg>
