<svg width="48" height="48" viewBox="0 0 48 48" fill="none" xmlns="http://www.w3.org/2000/svg">
<path d="M30.9971 39.3763C30.9971 40.1197 30.2149 40.6032 29.55 40.2708L18.9974 34.9963C18.9972 34.9962 18.9971 34.9959 18.9971 34.9957C18.9971 34.9954 18.9968 34.9951 18.9965 34.9951H11C10.4477 34.9951 10 34.5474 10 33.9951V14.9951C10 14.4428 10.4477 13.9951 11 13.9951H18.7286C18.9057 13.9951 19.0796 13.9481 19.2326 13.8588L29.4931 7.87173C30.1597 7.48273 30.9971 7.96359 30.9971 8.73544V39.3763Z" fill="#E4DDCD"/>
<path d="M35 29C35.6341 28.3434 36.1371 27.5639 36.4802 26.706C36.8234 25.8481 37 24.9286 37 24C37 23.0714 36.8234 22.1519 36.4802 21.294C36.1371 20.4361 35.6341 19.6566 35 19" stroke="#7E796E" stroke-width="2" stroke-linecap="round"/>
</svg>
