<svg width="48" height="48" viewBox="0 0 48 48" fill="none" xmlns="http://www.w3.org/2000/svg">
<path d="M23.2285 38.0647C23.6285 38.5496 24.3715 38.5496 24.7715 38.0647L39.9709 19.6363C40.5089 18.984 40.0449 18 39.1995 18H8.80053C7.95507 18 7.49112 18.984 8.02908 19.6363L23.2285 38.0647Z" fill="#E4DDCD"/>
<path d="M20 34C20 33.4477 20.4477 33 21 33H27C27.5523 33 28 33.4477 28 34V39.4381C28 39.8608 27.7343 40.2377 27.3363 40.3799L21.3363 42.5227C20.6851 42.7553 20 42.2725 20 41.581V34Z" fill="#E4DDCD"/>
<path d="M9 10C10.8852 10.5263 12.6933 12.3961 12.5 16" stroke="#7E796E" stroke-width="2" stroke-linecap="round"/>
<path d="M39 10C37.1148 10.5263 35.3067 12.3961 35.5 16" stroke="#7E796E" stroke-width="2" stroke-linecap="round"/>
<path d="M16 10L16 16" stroke="#7E796E" stroke-width="2" stroke-linecap="round"/>
<path d="M32 10L32 16" stroke="#7E796E" stroke-width="2" stroke-linecap="round"/>
<path d="M24 6C25.9137 6 27.5126 7.34411 27.9062 9.13965C29.1201 9.52388 30 10.659 30 12C30 13.6569 28.6569 15 27 15C26.5407 15 26.107 14.8935 25.7178 14.709L24 17L22.2812 14.709C21.8923 14.8933 21.459 15 21 15C19.3431 15 18 13.6569 18 12C18 10.6594 18.8794 9.52415 20.0928 9.13965C20.4864 7.34401 22.0862 6 24 6Z" fill="#EFEBE1"/>
</svg>
