<svg width="47" height="47" viewBox="0 0 47 47" fill="none" xmlns="http://www.w3.org/2000/svg">
<path d="M9.69231 31C7.37603 32.0473 6 33.3565 6 34.7767C6 38.2137 14.0589 41 24 41C33.9411 41 42 38.2137 42 34.7767C42 33.3717 40.6534 32.0755 38.382 31.0339" stroke="#7E796E" stroke-width="2" stroke-linecap="round"/>
<path d="M37.4647 33.1033L36.5625 30.2422L39.4236 29.34" stroke="#7E796E" stroke-width="2" stroke-linecap="round" stroke-linejoin="round"/>
<rect x="14" y="9" width="8" height="25" fill="#E4DDCD"/>
<path d="M32 12L36 12C36 12.5523 35.5523 13 35 13L33 13C32.4477 13 32 12.5523 32 12Z" fill="#D5CDBA"/>
<rect x="14" y="6" width="24" height="6" rx="1" fill="#E4DDCD"/>
<rect x="14" y="16" width="20" height="4" rx="1" fill="#E4DDCD"/>
<rect x="12" y="34" width="12" height="2" rx="1" fill="#7E796E"/>
<path d="M36.0786 25.854C35.9946 25.7653 35.8919 25.721 35.7706 25.721C35.6492 25.721 35.5442 25.7653 35.4556 25.854C35.3716 25.9427 35.3296 26.0477 35.3296 26.169C35.3296 26.2903 35.3716 26.3953 35.4556 26.484C35.5442 26.568 35.6492 26.61 35.7706 26.61C35.8919 26.61 35.9946 26.568 36.0786 26.484C36.1672 26.3953 36.2116 26.2903 36.2116 26.169C36.2116 26.0477 36.1672 25.9427 36.0786 25.854ZM36.5966 26.995C36.3679 27.219 36.0926 27.331 35.7706 27.331C35.4486 27.331 35.1732 27.219 34.9446 26.995C34.7159 26.7663 34.6016 26.491 34.6016 26.169C34.6016 25.847 34.7159 25.5717 34.9446 25.343C35.1732 25.1143 35.4486 25 35.7706 25C36.0926 25 36.3679 25.1143 36.5966 25.343C36.8252 25.5717 36.9396 25.847 36.9396 26.169C36.9396 26.491 36.8252 26.7663 36.5966 26.995Z" fill="#504323"/>
<path d="M33.0366 26.288C32.906 26.0313 32.7006 25.903 32.4206 25.903C32.1406 25.903 31.933 26.0313 31.7976 26.288C31.667 26.5447 31.6016 26.9903 31.6016 27.625C31.6016 28.2597 31.667 28.7053 31.7976 28.962C31.933 29.2187 32.1406 29.347 32.4206 29.347C32.7006 29.347 32.906 29.2187 33.0366 28.962C33.172 28.7053 33.2396 28.2597 33.2396 27.625C33.2396 26.9903 33.172 26.5447 33.0366 26.288ZM33.9466 29.634C33.6153 30.0447 33.1066 30.25 32.4206 30.25C31.7346 30.25 31.2236 30.0447 30.8876 29.634C30.5563 29.2233 30.3906 28.5537 30.3906 27.625C30.3906 26.6963 30.5563 26.0267 30.8876 25.616C31.2236 25.2053 31.7346 25 32.4206 25C33.1066 25 33.6153 25.2053 33.9466 25.616C34.2826 26.0267 34.4506 26.6963 34.4506 27.625C34.4506 28.5537 34.2826 29.2233 33.9466 29.634Z" fill="#504323"/>
<path d="M28.0425 27.947C27.7858 28.0543 27.6038 28.171 27.4965 28.297C27.3938 28.4183 27.3425 28.5607 27.3425 28.724C27.3425 28.9247 27.4242 29.0903 27.5875 29.221C27.7508 29.3517 27.9608 29.417 28.2175 29.417C28.4742 29.417 28.6818 29.3517 28.8405 29.221C29.0038 29.0903 29.0855 28.9247 29.0855 28.724C29.0855 28.5467 29.0225 28.402 28.8965 28.29C28.7752 28.1733 28.5278 28.0567 28.1545 27.94C28.1218 27.926 28.0845 27.9283 28.0425 27.947ZM28.2175 25.833C27.9888 25.833 27.8068 25.889 27.6715 26.001C27.5408 26.1083 27.4755 26.2483 27.4755 26.421C27.4755 26.5657 27.5292 26.6917 27.6365 26.799C27.7485 26.9063 27.9398 27.0043 28.2105 27.093C28.2478 27.107 28.2852 27.107 28.3225 27.093C28.7565 26.925 28.9735 26.701 28.9735 26.421C28.9735 26.2483 28.9058 26.1083 28.7705 26.001C28.6352 25.889 28.4508 25.833 28.2175 25.833ZM29.7085 29.851C29.3538 30.117 28.8568 30.25 28.2175 30.25C27.5782 30.25 27.0788 30.117 26.7195 29.851C26.3648 29.585 26.1875 29.228 26.1875 28.78C26.1875 28.2713 26.5095 27.8677 27.1535 27.569C27.1582 27.569 27.1605 27.5643 27.1605 27.555C27.1605 27.5503 27.1582 27.548 27.1535 27.548C26.6122 27.24 26.3415 26.827 26.3415 26.309C26.3415 25.9263 26.5072 25.6137 26.8385 25.371C27.1698 25.1237 27.6295 25 28.2175 25C28.8055 25 29.2652 25.1237 29.5965 25.371C29.9278 25.6137 30.0935 25.9263 30.0935 26.309C30.0935 26.7523 29.8065 27.121 29.2325 27.415C29.2278 27.415 29.2255 27.4173 29.2255 27.422C29.2255 27.4313 29.2278 27.436 29.2325 27.436C29.9092 27.716 30.2475 28.164 30.2475 28.78C30.2475 29.228 30.0678 29.585 29.7085 29.851Z" fill="#504323"/>
<path d="M23.315 27.1213C23.2497 27.1726 23.1797 27.1796 23.105 27.1423C23.035 27.105 23 27.0443 23 26.9603V26.4493C23 26.1833 23.1073 25.9733 23.322 25.8193L24.029 25.3013C24.239 25.1473 24.4793 25.0703 24.75 25.0703H25.191C25.2983 25.0703 25.3917 25.11 25.471 25.1893C25.5503 25.2686 25.59 25.362 25.59 25.4693V29.7813C25.59 29.8886 25.5503 29.982 25.471 30.0613C25.3917 30.1406 25.2983 30.1803 25.191 30.1803H24.75C24.6427 30.1803 24.5493 30.1406 24.47 30.0613C24.3907 29.982 24.351 29.8886 24.351 29.7813V26.3793H24.344H24.337L23.315 27.1213Z" fill="#504323"/>
</svg>
