<svg width="48" height="48" viewBox="0 0 48 48" fill="none" xmlns="http://www.w3.org/2000/svg">
<path d="M38 29C38 36.732 31.732 43 24 43C16.268 43 10 36.732 10 29C10 21.268 16.268 15 24 15C31.732 15 38 21.268 38 29Z" fill="#E4DDCD"/>
<path d="M28.9939 19.1989C31.1954 20.3207 32.9551 22.1509 33.9896 24.3947C35.024 26.6386 35.2729 29.1654 34.6961 31.5679C34.1193 33.9704 32.7504 36.1088 30.81 37.6385C28.8697 39.1682 26.4708 40 24 40C21.5292 40 19.1303 39.1681 17.19 37.6385C15.2496 36.1088 13.8807 33.9704 13.3039 31.5679C12.7271 29.1654 12.976 26.6386 14.0104 24.3947C15.0449 22.1509 16.8046 20.3206 19.0061 19.1989" stroke="#7E796E" stroke-width="2" stroke-linecap="round"/>
<circle cx="24" cy="19" r="2" transform="rotate(-180 24 19)" fill="#7E796E"/>
<path d="M31.7578 6.49414C29.8726 7.02046 28.0645 8.89022 28.2578 12.4941" stroke="#7E796E" stroke-width="2" stroke-linecap="round"/>
<path d="M16.2422 6.49414C18.1274 7.02046 19.9355 8.89022 19.7422 12.4941" stroke="#7E796E" stroke-width="2" stroke-linecap="round"/>
<path d="M24 6.49414L24 12.4941" stroke="#7E796E" stroke-width="2" stroke-linecap="round"/>
<path d="M36.525 11.444C36.6758 10.9857 37.3242 10.9857 37.475 11.444L38.0089 13.0672C38.0543 13.2052 38.1575 13.3167 38.2917 13.3726L39.8911 14.0384C40.3016 14.2093 40.3016 14.7907 39.8911 14.9616L38.2917 15.6274C38.1575 15.6833 38.0543 15.7948 38.0089 15.9328L37.475 17.556C37.3242 18.0143 36.6758 18.0143 36.525 17.556L35.9911 15.9328C35.9457 15.7948 35.8425 15.6833 35.7083 15.6274L34.1089 14.9616C33.6984 14.7907 33.6984 14.2093 34.1089 14.0384L35.7083 13.3726C35.8425 13.3167 35.9457 13.2052 35.9911 13.0672L36.525 11.444Z" fill="#7E796E"/>
<path d="M40.1178 17.2396C40.2338 16.8634 40.7662 16.8634 40.8822 17.2396L41.1216 18.0159C41.1557 18.1263 41.2359 18.2167 41.3415 18.2636L42.1767 18.6344C42.4936 18.7751 42.4936 19.2249 42.1767 19.3656L41.3415 19.7364C41.2359 19.7833 41.1557 19.8737 41.1216 19.9841L40.8822 20.7604C40.7662 21.1366 40.2338 21.1366 40.1178 20.7604L39.8784 19.9841C39.8443 19.8737 39.7641 19.7833 39.6585 19.7364L38.8233 19.3656C38.5064 19.2249 38.5064 18.7751 38.8233 18.6344L39.6585 18.2636C39.7641 18.2167 39.8443 18.1263 39.8784 18.0159L40.1178 17.2396Z" fill="#7E796E"/>
</svg>
