<svg width="49" height="49" viewBox="0 0 49 49" fill="none" xmlns="http://www.w3.org/2000/svg">
<rect x="15" y="10" width="22" height="30" rx="1" fill="#E4DDCD"/>
<path d="M21 7C21 6.44772 21.4477 6 22 6H30C30.5523 6 31 6.44772 31 7V10H21V7Z" fill="#E4DDCD"/>
<path d="M31 32.7805C31 30.1403 28.7614 28 26 28C23.2386 28 21 30.1403 21 32.7805C21 35.4989 23.8933 39.4165 25.2781 41.1358C25.6546 41.6033 26.3454 41.6033 26.7219 41.1358C28.1067 39.4165 31 35.4989 31 32.7805Z" fill="#7E796E"/>
<circle cx="26" cy="33" r="2" fill="white"/>
<path d="M13 33H12C9.23858 33 7 35.2386 7 38C7 40.7614 9.23858 43 12 43H23" stroke="#7E796E" stroke-width="2" stroke-linecap="round"/>
</svg>
