<svg width="48" height="48" viewBox="0 0 48 48" fill="none" xmlns="http://www.w3.org/2000/svg">
<path d="M23.2285 38.0647C23.6285 38.5496 24.3715 38.5496 24.7715 38.0647L39.9709 19.6363C40.5089 18.984 40.0449 18 39.1995 18H8.80053C7.95507 18 7.49112 18.984 8.02908 19.6363L23.2285 38.0647Z" fill="#E4DDCD"/>
<path d="M20 34C20 33.4477 20.4477 33 21 33H27C27.5523 33 28 33.4477 28 34V39.4381C28 39.8608 27.7343 40.2377 27.3363 40.3799L21.3363 42.5227C20.6851 42.7553 20 42.2725 20 41.581V34Z" fill="#E4DDCD"/>
<path d="M38.5 10.0059C36.6148 10.5322 34.8067 12.4019 35 16.0059" stroke="#7E796E" stroke-width="2" stroke-linecap="round"/>
<path d="M9.48438 10.0059C11.3696 10.5322 13.1777 12.4019 12.9844 16.0059" stroke="#7E796E" stroke-width="2" stroke-linecap="round"/>
<path d="M31 10L31 16" stroke="#7E796E" stroke-width="2" stroke-linecap="round"/>
<path d="M17 10.0078L17 16.0078" stroke="#7E796E" stroke-width="2" stroke-linecap="round"/>
<path d="M27.5 13.5854C27.5 15.4712 25.933 17 24 17C22.067 17 20.5 15.4712 20.5 13.5854C20.5 11.0328 24 7 24 7C24 7 27.5 11.0328 27.5 13.5854Z" fill="#7E796E"/>
</svg>
