<svg width="48" height="48" viewBox="0 0 48 48" fill="none" xmlns="http://www.w3.org/2000/svg">
<path d="M13.1055 38.3374C15.1366 39.8818 17.4726 40.9754 19.9583 41.5457C22.4439 42.1159 25.0223 42.1498 27.522 41.6449C30.0216 41.14 32.3854 40.108 34.4563 38.6174C36.5271 37.1268 38.2575 35.2119 39.5325 32.9997M12.9712 40.8069L12.5586 37.8761L15.3596 37.3963M17.0063 7.40422C14.6556 8.39407 12.542 9.87374 10.8062 11.7449C9.07035 13.6161 7.75195 15.8359 6.9386 18.2568C6.12525 20.6777 5.83559 23.2443 6.08885 25.786C6.34212 28.3278 7.13252 30.7864 8.40752 32.9985M14.9385 6.05313L17.6785 7.16059L16.6928 9.83031M41.798 26.2566C42.1176 23.7224 41.8951 21.1491 41.1453 18.7076C40.3955 16.2662 39.1356 14.0126 37.4492 12.0966C35.7629 10.1805 33.6888 8.64594 31.3647 7.59479C29.0406 6.54364 26.5198 6 23.9698 6M44 25.1383L41.6725 26.9616L39.8572 24.7717" stroke="#7E796E" stroke-width="2" stroke-linecap="round" stroke-linejoin="round"/>
<path d="M24 36C21.6131 36 19.3239 35.0942 17.636 33.482C15.9482 31.8697 15 29.6831 15 27.403C15 21.6716 24 12 24 12C24 12 33 21.6716 33 27.403C33 29.6831 32.0518 31.8697 30.364 33.482C28.6761 35.0942 26.3869 36 24 36Z" fill="#E4DDCD"/>
<path d="M34 26.9091L33.3983 26.4168C32.4828 25.6678 31.1168 25.8998 30.5 26.9091C29.8832 27.9183 28.5171 28.1504 27.6017 27.4014L27 26.9091" stroke="#7E796E" stroke-width="2" stroke-linecap="round" stroke-linejoin="round"/>
<path d="M34 31.0888L33.3983 30.5965C32.4828 29.8475 31.1168 30.0795 30.5 31.0888C29.8832 32.098 28.5171 32.3301 27.6017 31.5811L27 31.0888" stroke="#7E796E" stroke-width="2" stroke-linecap="round" stroke-linejoin="round"/>
</svg>
