<svg width="48" height="48" viewBox="0 0 48 48" fill="none" xmlns="http://www.w3.org/2000/svg">
<path d="M23 7C26.8957 7 30.3151 9.02713 32.2695 12.082C32.6749 12.0295 33.0881 12.0007 33.5078 12.001C38.7545 12.0046 43.0046 16.2611 43.001 21.5078C42.9972 26.5847 39.0117 30.7271 34 30.9863V31H33.5322C33.5197 31 33.5067 31.001 33.4941 31.001C33.4818 31.001 33.4694 31.0001 33.457 31H13V30.9814C12.8347 30.9923 12.6681 31 12.5 31C8.35786 31 5 27.6421 5 23.5C5 19.4642 8.18771 16.1741 12.1826 16.0078C13.1202 10.8839 17.6053 7 23 7Z" fill="#E4DDCD"/>
<path d="M28.333 17C29.2535 17 30 17.7465 30 18.667V24.333C30 25.2535 29.2535 26 28.333 26H19.667C18.7465 26 18 25.2535 18 24.333V18.667C18 17.7465 18.7465 17 19.667 17H28.333ZM24.002 19.2676C23.1735 19.2676 22.502 19.9392 22.502 20.7676C22.502 21.3194 22.8003 21.8 23.2441 22.0605V23.5176C23.2441 23.9318 23.5799 24.2676 23.9941 24.2676C24.4081 24.2673 24.7441 23.9316 24.7441 23.5176V22.0693C25.1961 21.8109 25.502 21.3255 25.502 20.7676C25.502 19.9393 24.8302 19.2678 24.002 19.2676Z" fill="#7E796E"/>
<path d="M27 18V17C27 15.3431 25.6569 14 24 14C22.3431 14 21 15.3431 21 17V18" stroke="#7E796E" stroke-width="1.66667"/>
<path d="M24 31V38" stroke="#7E796E" stroke-width="2" stroke-linejoin="round"/>
<circle cx="24" cy="39" r="2" fill="#7E796E"/>
<circle cx="38" cy="37" r="2" fill="#7E796E"/>
<circle cx="2" cy="2" r="2" transform="matrix(-1 0 0 1 12 35)" fill="#7E796E"/>
<path d="M32 31V37H37" stroke="#7E796E" stroke-width="2" stroke-linejoin="round"/>
<path d="M16 31V37H11" stroke="#7E796E" stroke-width="2" stroke-linejoin="round"/>
</svg>
