<svg width="48" height="48" viewBox="0 0 48 48" fill="none" xmlns="http://www.w3.org/2000/svg">
<path d="M12 18C12 17.4477 12.4477 17 13 17H35C35.5523 17 36 17.4477 36 18V19C36 21.2091 34.2091 23 32 23H16C13.7909 23 12 21.2091 12 19V18Z" fill="#E4DDCD"/>
<path d="M20 23H28V25H20V23Z" fill="#E4DDCD"/>
<path d="M11.8471 25.8157C11.9357 25.3427 12.3487 25 12.8299 25H35.1701C35.6513 25 36.0643 25.3427 36.1529 25.8157L38.7779 39.8157C38.8933 40.4311 38.4212 41 37.7951 41H10.2049C9.57879 41 9.10666 40.4311 9.22205 39.8157L11.8471 25.8157Z" fill="#E4DDCD"/>
<circle cx="24" cy="32" r="5" fill="white"/>
<path d="M24 32L26 30" stroke="#7E796E" stroke-width="2" stroke-linecap="round"/>
<path d="M33.3083 10.0605C32.7383 10.0605 32.4533 10.4805 32.4533 11.3205C32.4533 11.7405 32.5283 12.0555 32.6783 12.2655C32.8343 12.4755 33.0443 12.5805 33.3083 12.5805C33.5423 12.5805 33.7433 12.5025 33.9113 12.3465C34.0793 12.1845 34.1632 11.9985 34.1632 11.7885V10.9155C34.1632 10.6755 34.0793 10.4745 33.9113 10.3125C33.7433 10.1445 33.5423 10.0605 33.3083 10.0605ZM32.8313 13.6605C32.3093 13.6605 31.8773 13.4535 31.5353 13.0395C31.1993 12.6195 31.0312 12.0465 31.0312 11.3205C31.0312 10.5765 31.1933 10.0005 31.5173 9.59247C31.8413 9.18447 32.2793 8.98047 32.8313 8.98047C33.3593 8.98047 33.8123 9.20247 34.1903 9.64647L34.2083 9.66447C34.2143 9.66447 34.2173 9.66147 34.2173 9.65547V9.58347C34.2233 9.43947 34.2773 9.31947 34.3793 9.22347C34.4813 9.12147 34.6043 9.07047 34.7483 9.07047H35.0813C35.2193 9.07047 35.3392 9.12147 35.4412 9.22347C35.5433 9.32547 35.5943 9.44547 35.5943 9.58347V13.3455C35.5943 14.1555 35.3693 14.7705 34.9193 15.1905C34.4753 15.6105 33.8303 15.8205 32.9843 15.8205C32.6243 15.8205 32.3003 15.7965 32.0123 15.7485C31.8683 15.7245 31.7483 15.6525 31.6523 15.5325C31.5563 15.4125 31.5083 15.2775 31.5083 15.1275V14.9475C31.5083 14.8275 31.5593 14.7315 31.6613 14.6595C31.7633 14.5875 31.8743 14.5665 31.9943 14.5965C32.3183 14.6745 32.6273 14.7135 32.9213 14.7135C33.3533 14.7135 33.6683 14.6085 33.8663 14.3985C34.0643 14.1945 34.1632 13.8495 34.1632 13.3635V13.1115C34.1632 13.1055 34.1603 13.1025 34.1543 13.1025C34.1483 13.1025 34.1423 13.1055 34.1363 13.1115C33.7943 13.4775 33.3593 13.6605 32.8313 13.6605Z" fill="#504323"/>
<path d="M27.1915 13.75C27.0535 13.75 26.9335 13.699 26.8315 13.597C26.7355 13.495 26.6875 13.375 26.6875 13.237V7.513C26.6875 7.375 26.7355 7.255 26.8315 7.153C26.9335 7.051 27.0535 7 27.1915 7H27.6325C27.7705 7 27.8875 7.051 27.9835 7.153C28.0855 7.255 28.1365 7.375 28.1365 7.513V10.834C28.1365 10.84 28.1395 10.843 28.1455 10.843L28.1635 10.834L29.2885 9.466C29.5045 9.202 29.7805 9.07 30.1165 9.07H30.7645C30.8605 9.07 30.9295 9.115 30.9715 9.205C31.0195 9.295 31.0105 9.379 30.9445 9.457L29.4055 11.266C29.3755 11.302 29.3755 11.341 29.4055 11.383L30.9625 13.354C31.0225 13.438 31.0285 13.525 30.9805 13.615C30.9385 13.705 30.8665 13.75 30.7645 13.75H30.1165C29.7805 13.75 29.5075 13.615 29.2975 13.345L28.1635 11.869C28.1575 11.863 28.1515 11.86 28.1455 11.86C28.1395 11.86 28.1365 11.863 28.1365 11.869V13.237C28.1365 13.375 28.0855 13.495 27.9835 13.597C27.8875 13.699 27.7705 13.75 27.6325 13.75H27.1915Z" fill="#504323"/>
<path d="M21.9203 11.2747V11.2837C21.9203 11.2897 21.9233 11.2927 21.9293 11.2927H23.4143C23.4683 11.2927 23.4953 11.2687 23.4953 11.2207V9.04269C23.4953 9.03669 23.4923 9.03369 23.4863 9.03369C23.4743 9.03369 23.4683 9.03669 23.4683 9.04269L21.9203 11.2747ZM21.0743 12.4897C20.9363 12.4897 20.8163 12.4387 20.7143 12.3367C20.6183 12.2347 20.5703 12.1147 20.5703 11.9767V11.8057C20.5703 11.4697 20.6693 11.1607 20.8673 10.8787L23.1983 7.59369C23.3963 7.31769 23.6633 7.17969 23.9993 7.17969H24.4493C24.5873 7.17969 24.7043 7.23069 24.8003 7.33269C24.9023 7.43469 24.9533 7.55469 24.9533 7.69269V11.2207C24.9533 11.2687 24.9803 11.2927 25.0343 11.2927H25.3943C25.5323 11.2927 25.6523 11.3437 25.7543 11.4457C25.8563 11.5477 25.9073 11.6677 25.9073 11.8057V11.9767C25.9073 12.1147 25.8563 12.2347 25.7543 12.3367C25.6523 12.4387 25.5323 12.4897 25.3943 12.4897H25.0343C24.9803 12.4897 24.9533 12.5167 24.9533 12.5707V13.2367C24.9533 13.3747 24.9023 13.4947 24.8003 13.5967C24.7043 13.6987 24.5873 13.7497 24.4493 13.7497H23.9993C23.8613 13.7497 23.7413 13.6987 23.6393 13.5967C23.5433 13.4947 23.4953 13.3747 23.4953 13.2367V12.5707C23.4953 12.5167 23.4683 12.4897 23.4143 12.4897H21.0743Z" fill="#504323"/>
<path d="M18.763 13.7491C18.625 13.7491 18.505 13.6981 18.403 13.5961C18.301 13.4941 18.25 13.3741 18.25 13.2361V12.5521C18.25 12.4141 18.301 12.2941 18.403 12.1921C18.505 12.0901 18.625 12.0391 18.763 12.0391H19.447C19.585 12.0391 19.705 12.0901 19.807 12.1921C19.909 12.2941 19.96 12.4141 19.96 12.5521V13.2361C19.96 13.3741 19.909 13.4941 19.807 13.5961C19.705 13.6981 19.585 13.7491 19.447 13.7491H18.763Z" fill="#504323"/>
<path d="M13.35 11.2747V11.2837C13.35 11.2897 13.353 11.2927 13.359 11.2927H14.844C14.898 11.2927 14.925 11.2687 14.925 11.2207V9.04269C14.925 9.03669 14.922 9.03369 14.916 9.03369C14.904 9.03369 14.898 9.03669 14.898 9.04269L13.35 11.2747ZM12.504 12.4897C12.366 12.4897 12.246 12.4387 12.144 12.3367C12.048 12.2347 12 12.1147 12 11.9767V11.8057C12 11.4697 12.099 11.1607 12.297 10.8787L14.628 7.59369C14.826 7.31769 15.093 7.17969 15.429 7.17969H15.879C16.017 7.17969 16.134 7.23069 16.23 7.33269C16.332 7.43469 16.383 7.55469 16.383 7.69269V11.2207C16.383 11.2687 16.41 11.2927 16.464 11.2927H16.824C16.962 11.2927 17.082 11.3437 17.184 11.4457C17.286 11.5477 17.337 11.6677 17.337 11.8057V11.9767C17.337 12.1147 17.286 12.2347 17.184 12.3367C17.082 12.4387 16.962 12.4897 16.824 12.4897H16.464C16.41 12.4897 16.383 12.5167 16.383 12.5707V13.2367C16.383 13.3747 16.332 13.4947 16.23 13.5967C16.134 13.6987 16.017 13.7497 15.879 13.7497H15.429C15.291 13.7497 15.171 13.6987 15.069 13.5967C14.973 13.4947 14.925 13.3747 14.925 13.2367V12.5707C14.925 12.5167 14.898 12.4897 14.844 12.4897H12.504Z" fill="#504323"/>
</svg>
