<svg width="48" height="48" viewBox="0 0 48 48" fill="none" xmlns="http://www.w3.org/2000/svg">
<path d="M22 18H26V34H22V18Z" fill="#E4DDCD"/>
<path d="M31 18C31 18.5523 30.5523 19 30 19H18C17.4477 19 17 18.5523 17 18V12C17 11.4477 17.4477 11 18 11H19C19.5523 11 20 10.5523 20 10V7C20 6.44772 20.4477 6 21 6H27C27.5523 6 28 6.44772 28 7V10C28 10.5523 28.4477 11 29 11H30C30.5523 11 31 11.4477 31 12V18Z" fill="#E4DDCD"/>
<path d="M15.0136 33.7625C15.123 33.3149 15.5242 33 15.985 33H32.015C32.4758 33 32.877 33.3149 32.9864 33.7625L34.6975 40.7625C34.8515 41.3924 34.3745 42 33.7261 42H14.2739C13.6255 42 13.1485 41.3924 13.3025 40.7625L15.0136 33.7625Z" fill="#E4DDCD"/>
<path d="M21 15C23.3299 16.3338 24.679 16.3329 27 15" stroke="#7E796E" stroke-width="2" stroke-linecap="round"/>
<path d="M34.2893 27.8987C35.025 27.608 35.6581 27.1056 36.1083 26.4551C36.5586 25.8046 36.8058 25.0352 36.8188 24.2442C36.8317 23.4531 36.6098 22.676 36.1812 22.0111C35.7525 21.3462 35.1362 20.8234 34.4104 20.5087" stroke="#7E796E" stroke-width="2" stroke-linecap="round"/>
<path d="M13.6082 27.8979C12.8724 27.6071 12.2394 27.1047 11.7891 26.4542C11.3389 25.8037 11.0916 25.0343 11.0787 24.2433C11.0657 23.4523 11.2876 22.6752 11.7163 22.0103C12.145 21.3454 12.7612 20.8225 13.487 20.5078" stroke="#7E796E" stroke-width="2" stroke-linecap="round"/>
<path d="M35.389 30.686C36.6766 30.1772 37.7844 29.2981 38.5724 28.1597C39.3603 27.0213 39.793 25.6748 39.8157 24.2906C39.8384 22.9063 39.45 21.5463 38.6998 20.3828C37.9496 19.2192 36.8712 18.3042 35.601 17.7535" stroke="#7E796E" stroke-width="2" stroke-linecap="round"/>
<path d="M12.5094 30.686C11.2218 30.1772 10.114 29.2981 9.32606 28.1597C8.53813 27.0213 8.10546 25.6748 8.08277 24.2906C8.06008 22.9063 8.44839 21.5463 9.19859 20.3828C9.94879 19.2192 11.0272 18.3042 12.2974 17.7535" stroke="#7E796E" stroke-width="2" stroke-linecap="round"/>
</svg>
