<svg width="48" height="48" viewBox="0 0 48 48" fill="none" xmlns="http://www.w3.org/2000/svg">
<rect x="6" y="18" width="36" height="12" rx="1" fill="#E4DDCD"/>
<path d="M23.8278 5.9997L23.8278 11.6566M23.8278 11.6566L26.6562 8.82812M23.8278 11.6566L20.9994 8.82812" stroke="#7E796E" stroke-width="2" stroke-linecap="round" stroke-linejoin="round"/>
<path d="M23.8278 42.0003L23.8278 36.3434M23.8278 36.3434L26.6562 39.1719M23.8278 36.3434L20.9994 39.1719" stroke="#7E796E" stroke-width="2" stroke-linecap="round" stroke-linejoin="round"/>
<path d="M16.0002 12C17.0507 13.0506 18.2979 13.8839 19.6706 14.4525C21.0432 15.021 22.5144 15.3137 24.0001 15.3137C25.4858 15.3137 26.957 15.021 28.3296 14.4525C29.7022 13.8839 30.9494 13.0506 32 12" stroke="#7E796E" stroke-width="2" stroke-linecap="round"/>
<path d="M16.0002 36C17.0507 34.9494 18.2979 34.1161 19.6706 33.5475C21.0432 32.979 22.5144 32.6863 24.0001 32.6863C25.4858 32.6863 26.957 32.979 28.3296 33.5475C29.7022 34.1161 30.9494 34.9494 32 36" stroke="#7E796E" stroke-width="2" stroke-linecap="round"/>
</svg>
