<svg width="48" height="48" viewBox="0 0 48 48" fill="none" xmlns="http://www.w3.org/2000/svg">
<rect x="16" y="20" width="16" height="16" fill="#7E796E"/>
<circle cx="14" cy="28" r="10" fill="#E4DDCD"/>
<circle cx="34" cy="28" r="10" fill="#E4DDCD"/>
<circle cx="14" cy="28" r="2" fill="#7E796E"/>
<circle cx="34" cy="28" r="2" fill="#7E796E"/>
<path d="M31 13C29.7573 12.288 28.5171 12.0051 27.0185 12.0001C25.52 11.995 24.0534 12.3678 22.8041 13.0714C21.5548 13.775 20.579 14.8249 20 16" stroke="#7E796E" stroke-width="2" stroke-linecap="round"/>
<path d="M32 11L33 14L30 15" stroke="#7E796E" stroke-width="2" stroke-linecap="round" stroke-linejoin="round"/>
<path d="M37.525 13.444C37.6758 12.9857 38.3242 12.9857 38.475 13.444L39.0089 15.0672C39.0543 15.2052 39.1575 15.3167 39.2917 15.3726L40.8911 16.0384C41.3016 16.2093 41.3016 16.7907 40.8911 16.9616L39.2917 17.6274C39.1575 17.6833 39.0543 17.7948 39.0089 17.9328L38.475 19.556C38.3242 20.0143 37.6758 20.0143 37.525 19.556L36.9911 17.9328C36.9457 17.7948 36.8425 17.6833 36.7083 17.6274L35.1089 16.9616C34.6984 16.7907 34.6984 16.2093 35.1089 16.0384L36.7083 15.3726C36.8425 15.3167 36.9457 15.2052 36.9911 15.0672L37.525 13.444Z" fill="#7E796E"/>
<path d="M41.1178 19.2396C41.2338 18.8634 41.7662 18.8634 41.8822 19.2396L42.1216 20.0159C42.1557 20.1263 42.2359 20.2167 42.3415 20.2636L43.1767 20.6344C43.4936 20.7751 43.4936 21.2249 43.1767 21.3656L42.3415 21.7364C42.2359 21.7833 42.1557 21.8737 42.1216 21.9841L41.8822 22.7604C41.7662 23.1366 41.2338 23.1366 41.1178 22.7604L40.8784 21.9841C40.8443 21.8737 40.7641 21.7833 40.6585 21.7364L39.8233 21.3656C39.5064 21.2249 39.5064 20.7751 39.8233 20.6344L40.6585 20.2636C40.7641 20.2167 40.8443 20.1263 40.8784 20.0159L41.1178 19.2396Z" fill="#7E796E"/>
</svg>
