<svg width="48" height="48" viewBox="0 0 48 48" fill="none" xmlns="http://www.w3.org/2000/svg">
<path d="M23 43C19.287 43 15.726 41.5659 13.1005 39.0132C10.475 36.4604 9 32.9982 9 29.3881C9 20.3134 23 5 23 5C23 5 37 20.3134 37 29.3881C37 32.9982 35.525 36.4604 32.8995 39.0132C30.274 41.5659 26.713 43 23 43Z" fill="#E4DDCD"/>
<path d="M34.4897 39.7256L40.0281 39.7529C40.6308 39.7558 41.0187 39.0645 40.7097 38.5128L38.537 34.4749" stroke="#7E796E" stroke-width="1.74285" stroke-linecap="round" stroke-linejoin="round"/>
<path d="M28.4637 33.3684L25.1326 38.4274C24.7722 38.9785 25.2128 39.6772 25.9283 39.6808L30.2707 39.7021" stroke="#7E796E" stroke-width="1.74285" stroke-linecap="round" stroke-linejoin="round"/>
<path d="M36.5956 31.3016L34.0742 26.4788C33.7506 25.8636 32.9285 25.8596 32.5989 26.4715L30.2749 30.4757" stroke="#7E796E" stroke-width="1.74285" stroke-linecap="round" stroke-linejoin="round"/>
<path d="M37.2001 29.5653L36.9289 31.727L34.9297 30.8613" stroke="#7E796E" stroke-width="1.74285" stroke-linecap="round" stroke-linejoin="round"/>
<path d="M35.1356 41.0322L33.3992 39.7165L35.1484 38.418" stroke="#7E796E" stroke-width="1.74285" stroke-linecap="round" stroke-linejoin="round"/>
<path d="M26.4377 34.0431L28.4454 33.1971L28.6953 35.3613" stroke="#7E796E" stroke-width="1.74285" stroke-linecap="round" stroke-linejoin="round"/>
<path d="M20.715 29.438C20.507 29.3947 20.3337 29.2863 20.195 29.113C20.065 28.9397 20 28.7403 20 28.515V28.112C20 27.93 20.0737 27.787 20.221 27.683C20.3683 27.579 20.5287 27.5487 20.702 27.592C21.404 27.774 21.963 27.865 22.379 27.865C23.653 27.865 24.29 27.332 24.29 26.266C24.29 25.3993 23.8567 24.966 22.99 24.966C22.7907 24.966 22.6173 24.9963 22.47 25.057C22.418 25.0743 22.3097 25.1177 22.145 25.187C21.989 25.2477 21.8677 25.2953 21.781 25.33C21.703 25.356 21.599 25.3863 21.469 25.421C21.3477 25.447 21.2307 25.46 21.118 25.46H20.715C20.5157 25.46 20.3467 25.3863 20.208 25.239C20.0693 25.0917 20.0043 24.9183 20.013 24.719L20.195 20.741C20.2123 20.533 20.2947 20.3597 20.442 20.221C20.5893 20.0737 20.767 20 20.975 20H25.278C25.4773 20 25.6507 20.0737 25.798 20.221C25.9453 20.3683 26.019 20.5417 26.019 20.741V21.04C26.019 21.2393 25.9453 21.4127 25.798 21.56C25.6507 21.7073 25.4773 21.781 25.278 21.781H22.34C22.262 21.781 22.223 21.8157 22.223 21.885L22.145 23.536C22.145 23.5447 22.1493 23.549 22.158 23.549H22.184C22.6 23.3757 23.0117 23.289 23.419 23.289C24.3897 23.289 25.135 23.549 25.655 24.069C26.1837 24.5803 26.448 25.3127 26.448 26.266C26.448 28.502 25.122 29.62 22.47 29.62C21.8893 29.62 21.3043 29.5593 20.715 29.438Z" fill="#504323"/>
</svg>
