<svg width="48" height="48" viewBox="0 0 48 48" fill="none" xmlns="http://www.w3.org/2000/svg">
<path d="M24 5C26.2091 5 28 6.79086 28 9V28.0723C30.3907 29.4556 32 32.0392 32 35C32 39.4183 28.4183 43 24 43C19.5817 43 16 39.4183 16 35C16 32.0392 17.6093 29.4556 20 28.0723V9C20 6.79086 21.7909 5 24 5Z" fill="#E4DDCD"/>
<path d="M24 10C24.5523 10 25 10.4477 25 11V31.126C26.7252 31.57 28 33.1362 28 35C28 37.2091 26.2091 39 24 39C21.7909 39 20 37.2091 20 35C20 33.1362 21.2748 31.57 23 31.126V11C23 10.4477 23.4477 10 24 10Z" fill="#7E796E"/>
<line x1="17" y1="15" x2="7" y2="15" stroke="#7E796E" stroke-width="2" stroke-linecap="round"/>
<path d="M17 19L10 19" stroke="#7E796E" stroke-width="2" stroke-linecap="round"/>
<line x1="17" y1="23" x2="7" y2="23" stroke="#7E796E" stroke-width="2" stroke-linecap="round"/>
<path d="M33.2108 11.8889C33.4381 11.56 33.7612 11.3036 34.1393 11.1522C34.5173 11.0009 34.9333 10.9613 35.3347 11.0384C35.736 11.1156 36.1047 11.3061 36.394 11.5858C36.6834 11.8655 36.8804 12.2219 36.9602 12.6098C37.0401 12.9978 36.9991 13.3999 36.8425 13.7654C36.6859 14.1308 36.4207 14.4432 36.0805 14.6629C35.7402 14.8827 35.3402 15 34.931 15L31 15" stroke="#7E796E" stroke-width="2" stroke-linecap="round"/>
<path d="M33.2108 26.1111C33.4381 26.44 33.7612 26.6964 34.1393 26.8478C34.5173 26.9991 34.9333 27.0387 35.3347 26.9616C35.736 26.8844 36.1047 26.6939 36.394 26.4142C36.6834 26.1345 36.8804 25.7781 36.9602 25.3902C37.0401 25.0022 36.9991 24.6001 36.8425 24.2346C36.6859 23.8692 36.4207 23.5568 36.0805 23.3371C35.7402 23.1173 35.3402 23 34.931 23L31 23" stroke="#7E796E" stroke-width="2" stroke-linecap="round"/>
<path d="M39.2108 15.8889C39.4381 15.56 39.7612 15.3036 40.1393 15.1522C40.5173 15.0009 40.9333 14.9613 41.3347 15.0384C41.736 15.1156 42.1047 15.3061 42.394 15.5858C42.6834 15.8655 42.8804 16.2219 42.9602 16.6098C43.0401 16.9978 42.9991 17.3999 42.8425 17.7654C42.6859 18.1308 42.4207 18.4432 42.0805 18.6629C41.7402 18.8827 41.3402 19 40.931 19L31 19" stroke="#7E796E" stroke-width="2" stroke-linecap="round"/>
</svg>
