<svg width="48" height="48" viewBox="0 0 48 48" fill="none" xmlns="http://www.w3.org/2000/svg">
<path d="M8 26L8.24855 26.1327C13.1346 28.7424 18.9571 28.9285 23.9999 26.6364L24.2217 26.5356C29.202 24.2718 34.8776 24.0791 40 26V41C40 41.5523 39.5523 42 39 42H9C8.44772 42 8 41.5523 8 41V26Z" fill="#E4DDCD"/>
<circle cx="35" cy="31" r="1" fill="#7E796E"/>
<circle cx="30.5" cy="36.5" r="1.5" fill="#7E796E"/>
<circle cx="13" cy="34" r="1" fill="#7E796E"/>
<path d="M24 3C27.7727 3 30.9326 5.61212 31.7764 9.12598C34.755 9.71912 37 12.3471 37 15.5C37 19.0899 34.0899 22 30.5 22C28.9654 22 27.5563 21.4665 26.4443 20.5771L24 24L21.5547 20.5771C20.4428 21.4663 19.0343 22 17.5 22C13.9101 22 11 19.0899 11 15.5C11 12.3474 13.2445 9.71948 16.2227 9.12598C17.0663 5.61201 20.2273 3 24 3Z" fill="#EFEBE1"/>
</svg>
