<svg width="48" height="48" viewBox="0 0 48 48" fill="none" xmlns="http://www.w3.org/2000/svg">
<rect x="7" y="30" width="34" height="6" rx="3" fill="#E4DDCD"/>
<circle cx="12" cy="33" r="1" fill="#7E796E"/>
<circle cx="16" cy="33" r="1" fill="#7E796E"/>
<circle cx="20" cy="33" r="1" fill="#7E796E"/>
<circle cx="24" cy="33" r="1" fill="#7E796E"/>
<circle cx="28" cy="33" r="1" fill="#7E796E"/>
<circle cx="32" cy="33" r="1" fill="#7E796E"/>
<circle cx="36" cy="33" r="1" fill="#7E796E"/>
<path d="M7 39C7 38.4477 7.44772 38 8 38H40C40.5523 38 41 38.4477 41 39C41 39.5523 40.5523 40 40 40H8C7.44772 40 7 39.5523 7 39Z" fill="#7E796E"/>
<path d="M41 11C41.5523 11 42.0041 11.4485 41.9601 11.999C41.6708 15.6124 39.8199 19.03 36.7279 21.6066C33.3523 24.4196 28.7739 26 24 26C19.2261 26 14.6477 24.4196 11.2721 21.6066C8.18011 19.03 6.32919 15.6124 6.03993 11.999C5.99586 11.4485 6.44772 11 7 11L41 11Z" fill="#E4DDCD"/>
<path d="M20 24H28V27C28 27.5523 27.5523 28 27 28H21C20.4477 28 20 27.5523 20 27V24Z" fill="#E4DDCD"/>
</svg>
