<svg width="24" height="24" viewBox="0 0 24 24" fill="none" xmlns="http://www.w3.org/2000/svg">
<g clip-path="url(#clip0_929_39952)">
<path d="M12.0005 0.5H11.9998C5.64861 0.5 0.5 5.64861 0.5 11.9998V12.0005C0.5 18.3516 5.64861 23.5002 11.9998 23.5002H12.0005C18.3516 23.5002 23.5002 18.3516 23.5002 12.0005V11.9998C23.5002 5.64861 18.3516 0.5 12.0005 0.5Z" fill="black" fill-opacity="0.5" stroke="white" stroke-width="1.44462"/>
<path d="M10.8745 8.43701C10.8745 7.71214 10.2869 7.12451 9.56201 7.12451C8.83714 7.12451 8.24951 7.71214 8.24951 8.43701V15.562C8.24951 16.2869 8.83714 16.8745 9.56201 16.8745C10.2869 16.8745 10.8745 16.2869 10.8745 15.562V8.43701Z" fill="white"/>
<path d="M15.75 8.43701C15.75 7.71214 15.1624 7.12451 14.4375 7.12451C13.7126 7.12451 13.125 7.71214 13.125 8.43701V15.562C13.125 16.2869 13.7126 16.8745 14.4375 16.8745C15.1624 16.8745 15.75 16.2869 15.75 15.562V8.43701Z" fill="white"/>
</g>
<defs>
<clipPath id="clip0_929_39952">
<rect width="24" height="24" rx="12" fill="white"/>
</clipPath>
</defs>
</svg>
