<svg width="32" height="32" viewBox="0 0 32 32" fill="none" xmlns="http://www.w3.org/2000/svg">
<path opacity="0.5" d="M16 32C24.8366 32 32 24.8366 32 16C32 7.16344 24.8366 0 16 0C7.16344 0 0 7.16344 0 16C0 24.8366 7.16344 32 16 32Z" fill="black"/>
<path d="M15.9998 31.3864C24.4965 31.3864 31.3845 24.4985 31.3845 16.0018C31.3845 7.50511 24.4965 0.617188 15.9998 0.617188C7.50316 0.617188 0.615234 7.50511 0.615234 16.0018C0.615234 24.4985 7.50316 31.3864 15.9998 31.3864Z" stroke="white" stroke-width="1.23077"/>
<path d="M18.6621 13.5078L23.1581 18.0038" stroke="white" stroke-width="1.23077" stroke-linecap="round" stroke-linejoin="round"/>
<path d="M23.1581 13.5078L18.6621 18.0038" stroke="white" stroke-width="1.23077" stroke-linecap="round" stroke-linejoin="round"/>
<path d="M15.7773 21.6096L12.2838 17.8822H9.40626C9.2993 17.8823 9.19665 17.84 9.12084 17.7646C9.04504 17.6891 9.00228 17.5867 9.00195 17.4797V14.0889C9.0022 14.0361 9.01284 13.9838 9.03329 13.9351C9.05374 13.8863 9.08359 13.8421 9.12114 13.8049C9.15868 13.7677 9.20318 13.7382 9.2521 13.7182C9.30103 13.6982 9.35341 13.6881 9.40626 13.6883H12.0647L15.7644 9.52709C15.8577 9.45624 15.9689 9.41272 16.0855 9.4014C16.2021 9.39007 16.3196 9.41139 16.4248 9.46297C16.53 9.51455 16.6188 9.59436 16.6813 9.69349C16.7438 9.79262 16.7774 9.90716 16.7786 10.0243V21.1012C16.7778 21.2173 16.7451 21.3308 16.684 21.4295C16.6229 21.5281 16.5358 21.608 16.4323 21.6604C16.3288 21.7128 16.2129 21.7356 16.0972 21.7265C15.9816 21.7173 15.8707 21.6764 15.7767 21.6083L15.7773 21.6096Z" fill="white" stroke="white" stroke-width="0.615385"/>
</svg>
