<svg width="32" height="32" viewBox="0 0 32 32" fill="none" xmlns="http://www.w3.org/2000/svg">
<g clip-path="url(#clip0_7554_1393)">
<path d="M30.0543 8.56065C29.8959 7.92786 29.5733 7.34808 29.1191 6.87986C28.665 6.41164 28.0953 6.07156 27.4676 5.89398C25.1743 5.33398 16.0009 5.33398 16.0009 5.33398C16.0009 5.33398 6.82759 5.33398 4.53426 5.94732C3.90659 6.1249 3.33689 6.46497 2.88272 6.93319C2.42855 7.40141 2.10598 7.9812 1.94759 8.61398C1.52788 10.9414 1.32257 13.3024 1.33426 15.6673C1.3193 18.05 1.52462 20.4291 1.94759 22.774C2.1222 23.3871 2.452 23.9448 2.90512 24.3933C3.35823 24.8417 3.91935 25.1657 4.53426 25.334C6.82759 25.9473 16.0009 25.9473 16.0009 25.9473C16.0009 25.9473 25.1743 25.9473 27.4676 25.334C28.0953 25.1564 28.665 24.8163 29.1191 24.3481C29.5733 23.8799 29.8959 23.3001 30.0543 22.6673C30.4707 20.3574 30.676 18.0144 30.6676 15.6673C30.6826 13.2846 30.4772 10.9056 30.0543 8.56065Z" stroke="#EA4E29" stroke-width="2.66667" stroke-linecap="round" stroke-linejoin="round"/>
<path d="M13 20.0266L20.6667 15.6666L13 11.3066V20.0266Z" stroke="#EA4E29" stroke-width="2.66667" stroke-linecap="round" stroke-linejoin="round"/>
</g>
<defs>
<clipPath id="clip0_7554_1393">
<rect width="32" height="32" fill="white"/>
</clipPath>
</defs>
</svg>
