<svg width="48" height="48" viewBox="0 0 48 48" fill="none" xmlns="http://www.w3.org/2000/svg">
<path d="M18 7L18 41" stroke="#7E796E" stroke-width="2" stroke-linecap="round"/>
<path d="M24 7L24 41" stroke="#7E796E" stroke-width="2" stroke-linecap="round"/>
<path d="M30 7L30 41" stroke="#7E796E" stroke-width="2" stroke-linecap="round"/>
<path d="M41 18L7 18" stroke="#7E796E" stroke-width="2" stroke-linecap="round"/>
<path d="M41 24L7 24" stroke="#7E796E" stroke-width="2" stroke-linecap="round"/>
<path d="M41 30L7 30" stroke="#7E796E" stroke-width="2" stroke-linecap="round"/>
<rect x="10" y="10" width="28" height="28" rx="1" fill="#E4DDCD"/>
<circle cx="13.5" cy="13.5" r="1.5" fill="#7E796E"/>
<circle cx="13.5" cy="34.5" r="1.5" fill="#7E796E"/>
<circle cx="34.5" cy="13.5" r="1.5" fill="#7E796E"/>
<circle cx="34.5" cy="34.5" r="1.5" fill="#7E796E"/>
<path d="M33.2245 25.3531C33.2245 27.1865 32.2912 28.1031 30.4245 28.1031C28.5578 28.1031 27.6245 27.1865 27.6245 25.3531V21.2731C27.6245 21.1198 27.6812 20.9865 27.7945 20.8731C27.9078 20.7598 28.0412 20.7031 28.1945 20.7031H28.7745C28.9278 20.7031 29.0612 20.7598 29.1745 20.8731C29.2878 20.9865 29.3445 21.1198 29.3445 21.2731V25.4731C29.3445 25.9265 29.4312 26.2498 29.6045 26.4431C29.7778 26.6365 30.0578 26.7331 30.4445 26.7331C30.8312 26.7331 31.1112 26.6365 31.2845 26.4431C31.4578 26.2498 31.5445 25.9265 31.5445 25.4731V21.2731C31.5445 21.1198 31.6012 20.9865 31.7145 20.8731C31.8278 20.7598 31.9612 20.7031 32.1145 20.7031H32.6545C32.8078 20.7031 32.9412 20.7598 33.0545 20.8731C33.1678 20.9865 33.2245 21.1198 33.2245 21.2731V25.3531Z" fill="#504323"/>
<path d="M23.2784 22.0416V24.2216C23.2784 24.2682 23.3084 24.2982 23.3684 24.3116C23.5951 24.3382 23.7751 24.3516 23.9084 24.3516C24.3884 24.3516 24.7584 24.2416 25.0184 24.0216C25.2851 23.7949 25.4184 23.4816 25.4184 23.0816C25.4184 22.2882 24.9151 21.8916 23.9084 21.8916C23.7417 21.8916 23.5584 21.9082 23.3584 21.9416C23.3051 21.9549 23.2784 21.9882 23.2784 22.0416ZM22.1784 28.0016C22.0251 28.0016 21.8917 27.9449 21.7784 27.8316C21.6651 27.7182 21.6084 27.5849 21.6084 27.4316V21.3216C21.6084 21.1616 21.6617 21.0182 21.7684 20.8916C21.8751 20.7649 22.0084 20.6949 22.1684 20.6816C22.7351 20.6282 23.2817 20.6016 23.8084 20.6016C25.9417 20.6016 27.0084 21.3949 27.0084 22.9816C27.0084 23.8416 26.7584 24.4949 26.2584 24.9416C25.7651 25.3816 25.0384 25.6016 24.0784 25.6016C23.8251 25.6016 23.5884 25.5916 23.3684 25.5716C23.3084 25.5716 23.2784 25.5982 23.2784 25.6516V27.4316C23.2784 27.5849 23.2217 27.7182 23.1084 27.8316C22.9951 27.9449 22.8617 28.0016 22.7084 28.0016H22.1784Z" fill="#504323"/>
<path d="M18.0101 28.1016C16.8901 28.1016 15.9934 27.7716 15.3201 27.1116C14.6467 26.4449 14.3101 25.5249 14.3101 24.3516C14.3101 23.1716 14.6401 22.2516 15.3001 21.5916C15.9601 20.9316 16.8867 20.6016 18.0801 20.6016C18.5734 20.6016 19.0501 20.6416 19.5101 20.7216C19.6701 20.7482 19.8001 20.8282 19.9001 20.9616C20.0067 21.0882 20.0601 21.2349 20.0601 21.4016V21.6716C20.0601 21.8116 20.0034 21.9249 19.8901 22.0116C19.7767 22.0982 19.6501 22.1249 19.5101 22.0916C19.0967 21.9982 18.6867 21.9516 18.2801 21.9516C16.7867 21.9516 16.0401 22.7516 16.0401 24.3516C16.0401 25.1516 16.2167 25.7516 16.5701 26.1516C16.9301 26.5516 17.4434 26.7516 18.1101 26.7516C18.3167 26.7516 18.5267 26.7249 18.7401 26.6716C18.8001 26.6582 18.8301 26.6216 18.8301 26.5616V24.9316C18.8301 24.8782 18.8001 24.8516 18.7401 24.8516H17.8101C17.6567 24.8516 17.5234 24.7949 17.4101 24.6816C17.2967 24.5682 17.2401 24.4349 17.2401 24.2816V24.1316C17.2401 23.9782 17.2967 23.8449 17.4101 23.7316C17.5234 23.6182 17.6567 23.5616 17.8101 23.5616H19.8801C20.0334 23.5616 20.1634 23.6182 20.2701 23.7316C20.3834 23.8449 20.4401 23.9782 20.4401 24.1316V27.1216C20.4401 27.2949 20.3901 27.4516 20.2901 27.5916C20.1901 27.7249 20.0601 27.8149 19.9001 27.8616C19.3001 28.0216 18.6701 28.1016 18.0101 28.1016Z" fill="#504323"/>
</svg>
