<svg width="48" height="48" viewBox="0 0 48 48" fill="none" xmlns="http://www.w3.org/2000/svg">
<path d="M9 9L9 37" stroke="#7E796E" stroke-width="2" stroke-linecap="round"/>
<path d="M10 10H41C41.5523 10 42 10.4477 42 11V35C42 35.5523 41.5523 36 41 36H10V10Z" fill="#E4DDCD"/>
<path d="M8 13H7C6.44772 13 6 13.4477 6 14V18C6 18.5523 6.44772 19 7 19H8" stroke="#7E796E" stroke-width="2"/>
<path d="M8 26H7C6.44772 26 6 26.4477 6 27V33C6 33.5523 6.44772 34 7 34H8" stroke="#7E796E" stroke-width="2"/>
<circle cx="29" cy="23" r="9" stroke="#7E796E" stroke-width="2"/>
<path d="M26.6868 14.4345L26.1925 16.85C25.6846 19.3322 26.822 21.861 29.0162 23.1278C31.8052 24.738 32.9374 28.1878 31.6451 31.1376L31.3456 31.8211" stroke="#7E796E" stroke-width="2"/>
<path d="M38.0655 20.1868L35.65 19.6925C33.1678 19.1846 30.639 20.322 29.3722 22.5162C27.762 25.3052 24.3122 26.4374 21.3624 25.1451L20.6789 24.8456" stroke="#7E796E" stroke-width="2"/>
<circle cx="29" cy="23" r="3" fill="#7E796E"/>
<path d="M15 36H23V37C23 37.5523 22.5523 38 22 38H16C15.4477 38 15 37.5523 15 37V36Z" fill="#7E796E"/>
<path d="M29 36H37V37C37 37.5523 36.5523 38 36 38H30C29.4477 38 29 37.5523 29 37V36Z" fill="#7E796E"/>
</svg>
