<svg width="48" height="48" viewBox="0 0 48 48" fill="none" xmlns="http://www.w3.org/2000/svg">
<path d="M23.5029 6.29004C23.8123 6.11141 24.1935 6.11141 24.5029 6.29004L39.0918 14.7129C39.4008 14.8915 39.5917 15.2212 39.5918 15.5781V32.4238C39.5918 32.781 39.4011 33.1114 39.0918 33.29L24.5029 41.7129C24.1936 41.8914 23.8122 41.8914 23.5029 41.7129L8.91406 33.29C8.6048 33.1114 8.41407 32.781 8.41406 32.4238V15.5781C8.4142 15.2212 8.60506 14.8915 8.91406 14.7129L23.5029 6.29004ZM23.999 17.001C20.1332 17.001 16.9992 20.1352 16.999 24.001C16.999 27.867 20.133 31.001 23.999 31.001C27.865 31.001 30.999 27.867 30.999 24.001C30.9988 20.1352 27.8649 17.001 23.999 17.001Z" fill="#E4DDCD"/>
<circle cx="24" cy="24" r="7.5" stroke="#EFEBE1" stroke-width="3"/>
<path d="M35.6165 9.29565C35.7295 8.9137 36.2705 8.91371 36.3835 9.29565L37.029 11.476C37.0616 11.5863 37.1402 11.6772 37.2446 11.7255L39.2151 12.637C39.5245 12.7801 39.5245 13.2199 39.2151 13.363L37.2446 14.2745C37.1402 14.3228 37.0616 14.4137 37.029 14.524L36.3835 16.7043C36.2705 17.0863 35.7295 17.0863 35.6165 16.7043L34.971 14.524C34.9384 14.4137 34.8598 14.3228 34.7554 14.2745L32.7849 13.363C32.4755 13.2199 32.4755 12.7801 32.7849 12.637L34.7554 11.7255C34.8598 11.6772 34.9384 11.5863 34.971 11.476L35.6165 9.29565Z" fill="#7E796E"/>
<path d="M39.6187 16.2021C39.7367 15.83 40.2633 15.83 40.3813 16.2021L40.7551 17.3807C40.7901 17.4912 40.8714 17.5811 40.9778 17.627L42.1493 18.1328C42.4713 18.2717 42.4713 18.7283 42.1493 18.8672L40.9778 19.373C40.8714 19.4189 40.7901 19.5088 40.7551 19.6193L40.3813 20.7979C40.2633 21.17 39.7367 21.17 39.6187 20.7979L39.2449 19.6193C39.2099 19.5088 39.1286 19.4189 39.0222 19.373L37.8507 18.8672C37.5287 18.7283 37.5287 18.2717 37.8507 18.1328L39.0222 17.627C39.1286 17.5811 39.2099 17.4912 39.2449 17.3807L39.6187 16.2021Z" fill="#7E796E"/>
</svg>
