<svg width="48" height="48" viewBox="0 0 48 48" fill="none" xmlns="http://www.w3.org/2000/svg">
<path d="M17.1972 19.1733C12.7501 19.5091 10.9012 24.1677 10.8526 26.7899C10.848 27.0378 10.7625 27.2785 10.5919 27.4584C10.2671 27.8007 10.262 28.3358 10.5801 28.6844L17.9278 36.7353C18.2738 37.1145 18.8508 37.17 19.2628 36.8638L19.5693 36.6361C19.6779 36.5554 19.7995 36.4981 19.931 36.4666C23.1013 35.7081 29.3956 34.1944 30.7196 33.846C32.0717 33.4903 32.8766 32.9699 33.2548 32.5122C36.1773 28.9756 41.7899 22.1968 42.128 21.8411C42.5505 21.3965 43.6006 19.7987 42.5505 18.7286C41.561 17.7204 40.2649 17.965 39.6643 18.2484C39.616 18.2712 39.5713 18.3001 39.5286 18.3322L30.7196 24.9534C27.56 27.6212 21.9618 27.6212 21.0014 27.6212C20.041 27.6212 19.5397 27.0667 19.5397 26.1663C19.5397 24.7434 20.1564 24.5088 20.5789 24.5088H24.8042C25.2267 24.5088 27.7619 24.5088 27.7619 21.841C27.7619 19.7068 26.0718 19.1733 25.2267 19.1733H17.1972Z" fill="#E4DDCD"/>
<path d="M5.67433 33.3399C5.30191 32.9321 5.3249 32.2935 5.72568 31.9135L8.678 29.1143C9.07878 28.7343 9.70559 28.7569 10.078 29.1647L17.3096 37.0837C17.6821 37.4915 17.6591 38.1301 17.2583 38.5101L14.306 41.3093C13.9052 41.6893 13.2784 41.6667 12.906 41.2589L5.67433 33.3399Z" fill="#D5CDBA"/>
<path d="M6 8H42V10C42 12.2091 40.2091 14 38 14H10C7.79086 14 6 12.2091 6 10V8Z" fill="#7E796E"/>
<path d="M20 9H28V10C28 10.5523 27.5523 11 27 11H21C20.4477 11 20 10.5523 20 10V9Z" fill="white"/>
</svg>
