<svg width="48" height="48" viewBox="0 0 48 48" fill="none" xmlns="http://www.w3.org/2000/svg">
<path d="M42 36C42 38.2091 40.2091 40 38 40H10C7.79086 40 6 38.2091 6 36V34H42V36ZM38 9C38.5523 9 39 9.44772 39 10V33H8V10C8 9.44772 8.44772 9 9 9H38Z" fill="#E4DDCD"/>
<path d="M20 34H28V35C28 35.5523 27.5523 36 27 36H21C20.4477 36 20 35.5523 20 35V34Z" fill="#7E796E"/>
<path d="M27.7827 25.49C27.5834 25.49 27.41 25.4163 27.2627 25.269C27.124 25.1217 27.0547 24.9483 27.0547 24.749V16.741C27.0547 16.5417 27.124 16.3683 27.2627 16.221C27.41 16.0737 27.5834 16 27.7827 16H28.7447C28.944 16 29.113 16.0737 29.2517 16.221C29.399 16.3683 29.4727 16.5417 29.4727 16.741V24.749C29.4727 24.9483 29.399 25.1217 29.2517 25.269C29.113 25.4163 28.944 25.49 28.7447 25.49H27.7827Z" fill="#504323"/>
<path d="M21.6131 17.924L20.6641 21.655C20.6554 21.681 20.6598 21.707 20.6771 21.733C20.7031 21.7503 20.7291 21.759 20.7551 21.759H22.4971C22.5231 21.759 22.5448 21.7503 22.5621 21.733C22.5881 21.707 22.5968 21.681 22.5881 21.655L21.6391 17.924C21.6391 17.9153 21.6348 17.911 21.6261 17.911C21.6174 17.911 21.6131 17.9153 21.6131 17.924ZM18.1421 25.49C17.9601 25.49 17.8128 25.4163 17.7001 25.269C17.5961 25.1217 17.5744 24.9613 17.6351 24.788L20.2611 16.702C20.3304 16.494 20.4518 16.325 20.6251 16.195C20.8071 16.065 21.0064 16 21.2231 16H22.0811C22.3064 16 22.5101 16.065 22.6921 16.195C22.8741 16.325 22.9954 16.494 23.0561 16.702L25.6691 24.788C25.7298 24.9613 25.7038 25.1217 25.5911 25.269C25.4871 25.4163 25.3441 25.49 25.1621 25.49H24.2911C24.0744 25.49 23.8794 25.425 23.7061 25.295C23.5328 25.1563 23.4201 24.983 23.3681 24.775L23.0561 23.54C23.0474 23.4707 23.0041 23.436 22.9261 23.436H20.3261C20.2568 23.436 20.2134 23.4707 20.1961 23.54L19.8841 24.775C19.8321 24.983 19.7194 25.1563 19.5461 25.295C19.3728 25.425 19.1778 25.49 18.9611 25.49H18.1421Z" fill="#504323"/>
</svg>
