<svg width="48" height="48" viewBox="0 0 48 48" fill="none" xmlns="http://www.w3.org/2000/svg">
<path d="M18 7L18 41" stroke="#7E796E" stroke-width="2" stroke-linecap="round"/>
<path d="M24 7L24 41" stroke="#7E796E" stroke-width="2" stroke-linecap="round"/>
<path d="M30 7L30 41" stroke="#7E796E" stroke-width="2" stroke-linecap="round"/>
<path d="M41 18L7 18" stroke="#7E796E" stroke-width="2" stroke-linecap="round"/>
<path d="M41 24L7 24" stroke="#7E796E" stroke-width="2" stroke-linecap="round"/>
<path d="M41 30L7 30" stroke="#7E796E" stroke-width="2" stroke-linecap="round"/>
<rect x="10" y="10" width="28" height="28" rx="1" fill="#E4DDCD"/>
<path d="M14 34H34V14H14V34ZM36 35L35.9951 35.1025C35.9472 35.573 35.573 35.9472 35.1025 35.9951L35 36H13C12.4823 36 12.0562 35.6067 12.0049 35.1025L12 35V13C12 12.4477 12.4477 12 13 12H35L35.1025 12.0049C35.6067 12.0562 36 12.4823 36 13V35Z" fill="#7E796E"/>
<path d="M32.4072 24.8998C32.4072 26.5498 31.5672 27.3748 29.8872 27.3748C28.2072 27.3748 27.3672 26.5498 27.3672 24.8998V21.2278C27.3672 21.0898 27.4182 20.9698 27.5202 20.8678C27.6222 20.7658 27.7422 20.7148 27.8802 20.7148H28.4022C28.5402 20.7148 28.6602 20.7658 28.7622 20.8678C28.8642 20.9698 28.9152 21.0898 28.9152 21.2278V25.0078C28.9152 25.4158 28.9932 25.7068 29.1492 25.8808C29.3052 26.0548 29.5572 26.1418 29.9052 26.1418C30.2532 26.1418 30.5052 26.0548 30.6612 25.8808C30.8172 25.7068 30.8952 25.4158 30.8952 25.0078V21.2278C30.8952 21.0898 30.9462 20.9698 31.0482 20.8678C31.1502 20.7658 31.2702 20.7148 31.4082 20.7148H31.8942C32.0322 20.7148 32.1522 20.7658 32.2542 20.8678C32.3562 20.9698 32.4072 21.0898 32.4072 21.2278V24.8998Z" fill="#504323"/>
<path d="M23.4561 21.921V23.883C23.4561 23.925 23.4831 23.952 23.5371 23.964C23.7411 23.988 23.9031 24 24.0231 24C24.4551 24 24.7881 23.901 25.0221 23.703C25.2621 23.499 25.3821 23.217 25.3821 22.857C25.3821 22.143 24.9291 21.786 24.0231 21.786C23.8731 21.786 23.7081 21.801 23.5281 21.831C23.4801 21.843 23.4561 21.873 23.4561 21.921ZM22.4661 27.285C22.3281 27.285 22.2081 27.234 22.1061 27.132C22.0041 27.03 21.9531 26.91 21.9531 26.772V21.273C21.9531 21.129 22.0011 21 22.0971 20.886C22.1931 20.772 22.3131 20.709 22.4571 20.697C22.9671 20.649 23.4591 20.625 23.9331 20.625C25.8531 20.625 26.8131 21.339 26.8131 22.767C26.8131 23.541 26.5881 24.129 26.1381 24.531C25.6941 24.927 25.0401 25.125 24.1761 25.125C23.9481 25.125 23.7351 25.116 23.5371 25.098C23.4831 25.098 23.4561 25.122 23.4561 25.17V26.772C23.4561 26.91 23.4051 27.03 23.3031 27.132C23.2011 27.234 23.0811 27.285 22.9431 27.285H22.4661Z" fill="#504323"/>
<path d="M19.168 27.375C18.184 27.375 17.41 27.084 16.846 26.502C16.282 25.92 16 25.086 16 24C16 22.932 16.273 22.104 16.819 21.516C17.365 20.922 18.127 20.625 19.105 20.625C19.573 20.625 19.981 20.658 20.329 20.724C20.473 20.748 20.59 20.82 20.68 20.94C20.77 21.06 20.815 21.195 20.815 21.345V21.633C20.815 21.759 20.764 21.858 20.662 21.93C20.56 22.002 20.449 22.023 20.329 21.993C19.987 21.903 19.639 21.858 19.285 21.858C18.745 21.858 18.322 22.041 18.016 22.407C17.716 22.773 17.566 23.304 17.566 24C17.566 24.684 17.728 25.215 18.052 25.593C18.376 25.971 18.808 26.16 19.348 26.16C19.708 26.16 20.059 26.115 20.401 26.025C20.521 25.995 20.632 26.016 20.734 26.088C20.842 26.16 20.896 26.259 20.896 26.385V26.655C20.896 26.805 20.848 26.94 20.752 27.06C20.662 27.18 20.545 27.252 20.401 27.276C20.047 27.342 19.636 27.375 19.168 27.375Z" fill="#504323"/>
</svg>
